<svg width="1024" height="1024" viewBox="0 0 1024 1024" fill="none" xmlns="http://www.w3.org/2000/svg">
<path d="M350.319 738.52V325.78C350.319 325.378 350.168 324.991 349.898 324.695C349.628 324.398 349.257 324.215 348.859 324.18C343.569 323.69 338.219 324.17 333.219 324.09C324.926 323.963 316.769 323.933 308.749 324C301.809 324.06 299.779 325.5 293.889 329.89C289.556 333.123 271.056 346.673 238.389 370.54C233.423 374.167 228.933 377.393 224.919 380.22C218.986 384.407 214.499 387.647 211.459 389.94C208.093 392.48 203.066 396.1 196.379 400.8C193.759 402.65 192.989 403.9 192.979 407.01C192.926 428.057 192.919 448.277 192.959 467.67C192.959 467.829 192.983 467.991 193.029 468.15C193.483 469.743 194.469 470.283 195.989 469.77C197.589 469.237 199.143 468.44 200.649 467.38C233.109 444.573 253.003 430.897 260.329 426.35C265.289 423.26 269.799 421.03 275.569 420.86C275.924 420.847 276.274 420.922 276.589 421.08C279.963 422.76 281.726 425.5 281.879 429.3C282.079 434.16 282.179 436.643 282.179 436.75C282.086 533.917 282.093 613.917 282.199 676.75C282.239 699.877 282.369 718.83 282.589 733.61C282.619 735.12 282.379 736.49 282.319 738.2C282.317 738.316 282.337 738.431 282.38 738.539C282.422 738.647 282.486 738.745 282.567 738.828C282.648 738.911 282.745 738.977 282.852 739.022C282.959 739.067 283.073 739.09 283.189 739.09H349.759C349.908 739.09 350.05 739.03 350.155 738.923C350.26 738.816 350.319 738.671 350.319 738.52Z" stroke="#86E7CD" stroke-width="2"/>
<path d="M670 232.63C670.023 232.512 670.018 232.39 669.986 232.274C669.955 232.158 669.897 232.051 669.817 231.96C669.737 231.869 669.637 231.798 669.525 231.751C669.412 231.704 669.291 231.683 669.169 231.69C655.459 232.42 645.1 235.61 631.359 241.11C616.466 247.077 606.843 250.793 602.49 252.26C597.35 253.993 592.033 253.91 586.539 252.01C575.119 248.07 569.11 236.88 572.28 225.59C575.12 215.51 583.2 210.6 592.5 207.21C628.42 194.117 672.293 177.427 724.12 157.14C737.02 152.09 753.38 157.21 758.26 170.55C759.226 173.19 759.699 178.737 759.68 187.19C759.546 238.05 759.556 281.77 759.71 318.35C759.75 326.657 759.283 332.02 758.31 334.44C753.77 345.71 741.02 351.99 729.099 347.83C720.24 344.73 713.62 337.23 713.65 327.47C713.776 290.603 713.853 268.78 713.88 262C713.88 261.613 713.826 261.283 713.719 261.01C713.541 260.571 713.217 260.207 712.802 259.98C712.386 259.752 711.905 259.674 711.44 259.76C709.48 260.12 707.826 261.03 706.479 262.49C698.733 270.837 689.346 280.607 678.32 291.8C674.08 296.1 670.66 300.42 666.53 304.53C654.083 316.89 642.423 328.897 631.549 340.55C624.956 347.61 620.153 352.64 617.14 355.64C605.84 366.91 597.13 376.81 585.87 388.03C585.856 388.043 580.273 393.85 569.12 405.45C564.906 409.837 559.323 415.643 552.37 422.87C526.823 449.43 499.663 477.187 470.89 506.14C462.53 514.56 456.63 521.11 448.25 529.51C442.69 535.09 433.64 536.28 426.63 532.88C414 526.76 412.74 511.58 418.6 500.33C420.486 496.717 423.116 493.183 426.49 489.73C432.216 483.863 436.96 478.88 440.72 474.78C445.32 469.767 449.75 465.153 454.01 460.94C456.21 458.76 460.633 454.127 467.28 447.04C472.78 441.18 478.286 435.353 483.8 429.56C502.52 409.88 521.426 390.033 540.52 370.02C544.34 366.02 547.719 362.397 550.659 359.15C554.693 354.697 558.083 351.083 560.83 348.31C571.056 338.017 580.583 328.043 589.409 318.39C608.489 297.51 625.749 280.11 646.359 258.36C648.369 256.23 650.06 254.07 651.75 252.41C658.043 246.223 663.943 239.91 669.45 233.47C669.783 233.077 669.966 232.797 670 232.63Z" fill="#65DBBF"/>
<path d="M257.94 458.71C257.725 458.518 257.453 458.399 257.164 458.37C256.875 458.341 256.583 458.404 256.33 458.55C252.823 460.59 249.3 462.91 245.76 465.51C233.426 474.59 221.166 483.24 208.98 491.46C202.58 495.78 194.61 498.47 187.04 496.41C172.97 492.59 167.77 481.62 168.33 467.94C168.356 467.26 168.343 447.6 168.29 408.96C168.276 397.04 173.02 387.723 182.52 381.01C212.98 359.51 246.846 335.13 284.12 307.87C288.513 304.657 293.33 302.557 298.57 301.57C300.49 301.203 305.78 301.06 314.44 301.14C315.693 301.153 327.546 301.18 350 301.22C352.02 301.227 354.37 301.727 357.05 302.72C364.676 305.553 369.766 310.53 372.32 317.65C373.253 320.263 373.736 324.29 373.77 329.73C373.796 333.177 373.803 337.267 373.79 342C373.59 432.953 373.576 559.62 373.75 722C373.756 729.793 373.733 736.243 373.68 741.35C373.68 741.715 373.633 742.082 373.54 742.44C370.96 752.613 365.036 759.257 355.77 762.37C352.803 763.363 348.39 763.843 342.53 763.81C332.843 763.75 314.72 763.753 288.16 763.82C283.306 763.833 279.503 763.343 276.75 762.35C267.79 759.1 260.77 751.16 259.43 741.55C259.316 740.743 259.263 737.207 259.27 730.94C259.37 621.08 259.383 532.44 259.31 465.02C259.31 462.88 259.38 459.98 257.94 458.71ZM350.32 738.52V325.78C350.319 325.378 350.169 324.991 349.898 324.695C349.628 324.399 349.258 324.215 348.86 324.18C343.57 323.69 338.22 324.17 333.22 324.09C324.926 323.963 316.77 323.933 308.75 324C301.81 324.06 299.78 325.5 293.89 329.89C289.556 333.123 271.056 346.673 238.39 370.54C233.423 374.167 228.933 377.393 224.92 380.22C218.986 384.407 214.5 387.647 211.46 389.94C208.093 392.48 203.066 396.1 196.38 400.8C193.76 402.65 192.99 403.9 192.98 407.01C192.926 428.057 192.92 448.277 192.96 467.67C192.96 467.829 192.983 467.991 193.03 468.15C193.483 469.743 194.47 470.283 195.99 469.77C197.59 469.237 199.143 468.44 200.65 467.38C233.11 444.573 253.003 430.897 260.33 426.35C265.29 423.26 269.8 421.03 275.57 420.86C275.924 420.847 276.275 420.923 276.59 421.08C279.963 422.76 281.726 425.5 281.88 429.3C282.08 434.16 282.18 436.643 282.18 436.75C282.086 533.917 282.093 613.917 282.2 676.75C282.24 699.877 282.37 718.83 282.59 733.61C282.62 735.12 282.38 736.49 282.32 738.2C282.317 738.316 282.337 738.431 282.38 738.539C282.422 738.647 282.486 738.745 282.567 738.828C282.648 738.911 282.745 738.977 282.852 739.022C282.959 739.067 283.074 739.09 283.19 739.09H349.76C349.908 739.09 350.05 739.03 350.156 738.923C350.261 738.816 350.32 738.671 350.32 738.52Z" fill="#65DBBF"/>
<path d="M350.319 738.52C350.319 738.671 350.26 738.816 350.155 738.923C350.05 739.03 349.908 739.09 349.759 739.09H283.189C283.073 739.09 282.959 739.067 282.852 739.022C282.745 738.977 282.648 738.911 282.567 738.828C282.486 738.745 282.422 738.647 282.38 738.539C282.337 738.431 282.317 738.316 282.319 738.2C282.379 736.49 282.619 735.12 282.589 733.61C282.369 718.83 282.239 699.877 282.199 676.75C282.093 613.917 282.086 533.917 282.179 436.75C282.179 436.643 282.079 434.16 281.879 429.3C281.726 425.5 279.963 422.76 276.589 421.08C276.274 420.922 275.924 420.847 275.569 420.86C269.799 421.03 265.289 423.26 260.329 426.35C253.003 430.897 233.109 444.573 200.649 467.38C199.143 468.44 197.589 469.237 195.989 469.77C194.469 470.283 193.483 469.743 193.029 468.15C192.983 467.991 192.959 467.829 192.959 467.67C192.919 448.277 192.926 428.057 192.979 407.01C192.989 403.9 193.759 402.65 196.379 400.8C203.066 396.1 208.093 392.48 211.459 389.94C214.499 387.647 218.986 384.407 224.919 380.22C228.933 377.393 233.423 374.167 238.389 370.54C271.056 346.673 289.556 333.123 293.889 329.89C299.779 325.5 301.809 324.06 308.749 324C316.769 323.933 324.926 323.963 333.219 324.09C338.219 324.17 343.569 323.69 348.859 324.18C349.257 324.215 349.628 324.398 349.898 324.695C350.168 324.991 350.319 325.378 350.319 325.78V738.52Z" fill="#A7F2DB"/>
<path d="M675.329 523.59C670.789 545.04 659.109 562.03 639.219 571.99C630.412 576.41 621.172 578.96 611.499 579.64C604.869 580.1 596.429 580.09 588.909 578.46C567.299 573.77 549.459 561.23 539.809 540.84C533.569 527.647 531.182 513.63 532.649 498.79C535.279 472.17 553.389 448.32 578.029 439.11C591.562 434.05 605.556 432.757 620.009 435.23C637.789 438.27 651.959 446.957 662.519 461.29C675.389 478.76 679.709 502.87 675.329 523.59ZM602.979 540.5C619.829 541.2 633.569 527.97 635.029 511.59C635.496 506.423 635.489 502.523 635.009 499.89C632.009 483.27 618.429 471.96 601.569 473.63C590.379 474.74 582.479 481.62 577.629 491.63C574.859 497.34 574.609 504.02 574.929 510.76C575.709 526.88 586.169 539.81 602.979 540.5Z" fill="#65DBBF"/>
<path d="M561.149 743.93C561.299 739.08 564.449 734.96 567.529 730.55C589.789 698.61 601.509 682.02 618.289 656.74C639.022 625.493 653.476 603.797 661.649 591.65C689.856 549.723 718.262 506.307 746.869 461.4C753.849 450.447 758.059 443.913 759.499 441.8C762.266 437.74 765.976 435.223 770.629 434.25C770.695 434.23 770.766 434.22 770.839 434.22L797.449 434.26C797.621 434.26 797.794 434.287 797.959 434.34C802.319 435.827 805.239 438.367 806.719 441.96C808.526 446.353 808.119 450.623 805.499 454.77C791.692 476.61 778.582 496.73 766.169 515.13C741.019 552.39 734.749 562.09 708.999 600.84C699.512 615.107 689.586 629.83 679.219 645.01C652.119 684.703 635.723 708.733 630.029 717.1C624.329 725.473 619.002 733.37 614.049 740.79C610.836 745.597 608.329 748.623 606.529 749.87C597.539 756.09 586.419 755.17 575.689 754.9C573.269 754.833 570.602 754.39 567.689 753.57C563.099 752.27 561.009 748.68 561.149 743.93Z" fill="#65DBBF"/>
<path d="M793.809 608.2C817.209 614.41 835.129 631.02 842.209 654.31C845.176 664.05 846.579 671.917 846.419 677.91C846.352 680.243 846.256 681.963 846.129 683.07C845.962 684.543 845.806 686.26 845.659 688.22C844.799 699.4 841.086 710.103 834.519 720.33C825.486 734.403 812.866 744.1 796.659 749.42C786.166 752.867 775.776 754.237 765.489 753.53C723.899 750.69 695.309 714.35 699.339 673.26C699.959 666.913 701.022 661.26 702.529 656.3C710.709 629.34 731.679 611.37 759.349 606.66C770.989 604.68 782.476 605.193 793.809 608.2ZM771.089 715.08C778.822 715.373 785.782 713.003 791.969 707.97C801.959 699.86 805.559 686.53 804.199 673.76C802.419 657 790.519 646.3 773.699 645.67C756.879 645.04 744.209 654.81 741.179 671.4C738.869 684.03 741.459 697.59 750.809 706.43C756.602 711.91 763.362 714.793 771.089 715.08Z" fill="#65DBBF"/>
</svg>
