<svg width="1024" height="1024" viewBox="0 0 1024 1024" fill="none" xmlns="http://www.w3.org/2000/svg">
<path d="M252.349 172.66C248.629 172.22 244.002 172.307 238.469 172.92C229.509 173.907 221.332 176.567 213.939 180.9C203.269 187.16 194.929 198.64 190.089 209.85C187.669 215.45 186.412 222.333 186.319 230.5C186.152 244.967 190.429 257.58 199.149 268.34C212.429 284.74 233.199 291.43 254.009 290.25C271.719 289.24 288.269 278.3 296.949 262.86C305.516 247.627 307.666 231.357 303.399 214.05C301.039 204.51 294.549 196.51 287.129 189.27C277.389 179.783 265.796 174.247 252.349 172.66Z" stroke="#FB6B00" stroke-width="2"/>
<path d="M495.14 174.49C476.85 180.26 462.29 195.67 456.1 213.88C454.873 217.48 454.153 222.107 453.94 227.76C453.72 233.493 453.893 238.277 454.46 242.11C455.84 251.457 459.5 259.917 465.44 267.49C474.26 278.72 489.77 288.85 504.53 289.93C510.823 290.39 516.15 290.347 520.51 289.8C531.74 288.4 541.04 283.59 549.8 276.36C564.12 264.54 571.85 246.88 571.43 228.16C571.343 224.3 570.647 220.547 569.34 216.9C564.8 204.213 557.45 193.653 547.29 185.22C533.15 173.48 512.61 168.98 495.14 174.49Z" stroke="#FB6B00" stroke-width="2"/>
<path d="M832.69 255.85C838.21 244.64 838.31 234.75 837.61 223.3C836.816 210.12 831.92 199.196 822.92 190.53C817.606 185.41 813.283 181.91 809.95 180.03C798.263 173.436 785.023 171.013 770.23 172.76C759.11 174.07 749.04 177.79 740.98 184.93C738.286 187.323 735.693 189.916 733.2 192.71C726.64 200.04 720.39 210.62 719.42 220.49C718.893 225.783 718.8 231.533 719.14 237.74C719.77 249.57 726.35 261.64 734.17 270.37C745.1 282.58 761.72 290.84 778.69 290.46C786.1 290.29 793.44 289.47 800.29 286.32C814.14 279.97 826 269.45 832.69 255.85Z" stroke="#FB6B00" stroke-width="2"/>
<path d="M545.509 639.84H564.379C564.474 639.84 564.567 639.821 564.654 639.784C564.741 639.747 564.82 639.693 564.885 639.624C564.95 639.556 565.001 639.475 565.035 639.387C565.068 639.298 565.083 639.204 565.079 639.11C563.979 614.01 573.569 592.6 589.769 572.52C594.759 566.34 601.739 559.09 606.669 552.17C615.816 539.303 622.369 525.086 626.329 509.52C628.999 499.04 628.509 487.16 628.139 476.69C627.589 461.53 623.649 447.53 616.789 433.44C605.889 411.04 589.499 394.006 567.619 382.34C562.906 379.826 558.029 377.846 552.989 376.4C546.236 374.46 542.786 373.467 542.639 373.42C536.286 371.56 532.102 370.477 530.089 370.17C521.329 368.85 512.229 368.91 504.279 369.31C489.592 370.036 475.502 373.61 462.009 380.03C436.362 392.23 417.616 411.14 405.769 436.76C398.659 452.15 395.289 468.24 395.549 485.1C395.676 493.533 395.892 498.843 396.199 501.03C396.912 506.103 398.482 512.386 400.909 519.88C405.549 534.186 412.589 546.886 422.029 557.98C427.642 564.58 432.266 570.033 435.899 574.34C451.139 592.36 461.039 615.39 459.789 639.46C459.785 639.54 459.797 639.62 459.825 639.695C459.853 639.77 459.896 639.839 459.951 639.897C460.006 639.955 460.073 640.001 460.146 640.032C460.22 640.064 460.299 640.08 460.379 640.08H478.409C478.558 640.08 478.705 640.05 478.842 639.993C478.98 639.935 479.104 639.851 479.208 639.745C479.313 639.639 479.395 639.513 479.45 639.375C479.505 639.236 479.532 639.089 479.529 638.94C479.429 633.366 479.486 625.533 479.699 615.44C480.209 591.69 479.819 571.86 480.039 543.51C480.052 541.59 479.932 539.806 479.679 538.16C479.608 537.692 479.39 537.261 479.059 536.93C477.286 535.163 475.842 534.206 474.729 534.06C463.582 532.613 455.652 526.997 450.939 517.21C448.749 512.66 449.069 508.29 449.439 503.74C450.409 491.8 459.279 481.96 471.439 481.24C490.299 480.13 500.419 492.64 504.609 509.44C504.674 509.709 504.82 509.951 505.027 510.134C505.235 510.316 505.494 510.43 505.769 510.46C509.229 510.83 517.079 511.98 518.979 508.48C522.319 502.32 524.369 498.7 525.129 497.62C528.256 493.153 532.022 489.33 536.429 486.15C541.759 482.31 546.539 481.51 552.969 482.3C558.962 483.033 563.936 485.427 567.889 489.48C575.802 497.593 577.502 506.817 572.989 517.15C570.862 522.003 567.329 525.906 562.389 528.86C557.462 531.806 552.139 533.58 546.419 534.18C546.142 534.209 545.886 534.34 545.7 534.547C545.514 534.753 545.41 535.022 545.409 535.3L544.709 639.04C544.709 639.252 544.793 639.456 544.943 639.606C545.093 639.756 545.297 639.84 545.509 639.84Z" stroke="#FB790D" stroke-width="2"/>
<path d="M544.51 510.22C544.423 510.341 544.372 510.485 544.366 510.634C544.36 510.784 544.398 510.932 544.475 511.058C544.552 511.185 544.666 511.286 544.8 511.346C544.935 511.407 545.085 511.426 545.23 511.4C548.45 510.82 555.08 508.93 553.11 504.86C553.006 504.647 552.854 504.461 552.665 504.316C552.476 504.17 552.254 504.069 552.016 504.018C551.777 503.968 551.528 503.969 551.285 504.023C551.042 504.077 550.812 504.182 550.61 504.33C548.104 506.17 546.07 508.133 544.51 510.22Z" stroke="#FB790D" stroke-width="2"/>
<path d="M475.119 508.89C474.626 507.463 474.196 506.51 473.829 506.03C473.651 505.797 473.396 505.633 473.108 505.569C472.821 505.505 472.521 505.545 472.261 505.681C472.002 505.817 471.799 506.04 471.691 506.311C471.582 506.582 471.575 506.883 471.669 507.16C472.036 508.253 473.029 509 474.649 509.4C474.719 509.416 474.792 509.413 474.861 509.392C474.929 509.371 474.991 509.333 475.039 509.281C475.087 509.228 475.12 509.165 475.134 509.096C475.148 509.027 475.143 508.956 475.119 508.89Z" stroke="#FB790D" stroke-width="2"/>
<path d="M520.97 639.05C521.236 608.35 521.113 577.673 520.6 547.02C520.533 543.16 520.336 538.88 520.01 534.18C519.992 533.917 519.882 533.67 519.699 533.481C519.516 533.293 519.271 533.175 519.01 533.15C514.416 532.69 510.02 533.01 505.82 534.11C505.485 534.197 505.185 534.385 504.96 534.648C504.735 534.911 504.595 535.236 504.56 535.58C504.313 537.933 504.18 540.323 504.16 542.75C503.9 576.103 503.856 608.15 504.03 638.89C504.029 639.013 504.075 639.131 504.158 639.224C504.241 639.316 504.355 639.375 504.48 639.39C509.766 640.05 515.063 640.153 520.37 639.7C520.533 639.685 520.684 639.61 520.795 639.49C520.906 639.37 520.968 639.213 520.97 639.05Z" stroke="#FB790D" stroke-width="2"/>
<path d="M458.679 664.8C458.545 672.373 458.715 679.606 459.189 686.5C459.439 690.17 461.959 695.55 466.119 695.77C470.025 695.976 474.319 696.08 478.999 696.08C519.309 696.06 544.909 696.03 559.539 695.95C563.709 695.93 564.999 693.76 564.999 689.73C564.992 681.63 564.772 673.37 564.339 664.95C564.326 664.696 564.216 664.457 564.032 664.282C563.847 664.107 563.603 664.009 563.349 664.01H459.479C459.268 664.01 459.066 664.093 458.917 664.241C458.767 664.388 458.681 664.589 458.679 664.8Z" stroke="#FB6B00" stroke-width="2"/>
<path d="M247.498 451.88C231.821 451.305 216.555 457.071 205.057 467.909C193.559 478.747 186.772 493.77 186.189 509.672C185.901 517.546 187.144 525.399 189.847 532.783C192.551 540.166 196.663 546.936 201.948 552.705C207.232 558.474 213.587 563.13 220.648 566.406C227.709 569.682 235.339 571.515 243.101 571.799C258.778 572.374 274.045 566.608 285.542 555.77C297.04 544.932 303.827 529.91 304.41 514.007C304.699 506.133 303.456 498.28 300.752 490.897C298.048 483.513 293.936 476.743 288.652 470.974C283.367 465.205 277.013 460.55 269.951 457.274C262.89 453.997 255.261 452.165 247.498 451.88Z" stroke="#FB6B00" stroke-width="2"/>
<path d="M719.539 502.62C718.266 510.913 718.496 518.353 720.229 524.94C722.343 532.967 726.026 540.547 731.279 547.68C740.259 559.9 751.699 566.46 765.949 570.26C777.919 573.46 790.949 571.55 802.689 566.42C818.509 559.493 829.039 547.893 834.279 531.62C835.659 527.327 836.583 523.653 837.049 520.6C837.516 517.54 837.733 513.757 837.699 509.25C837.566 492.15 830.986 477.93 817.959 466.59C808.289 458.19 796.429 452.47 784.049 451.94C769.319 451.31 756.439 454.15 744.219 463.12C737.073 468.36 731.293 474.493 726.879 481.52C723.253 487.287 720.806 494.32 719.539 502.62Z" stroke="#FB6B00" stroke-width="2"/>
<path d="M191.139 769.85C189.133 774.843 188.023 778.49 187.809 780.79C186.759 792.14 187.079 803.37 191.379 814.03C195.126 823.31 200.783 831.44 208.349 838.42C217.529 846.9 231.719 851.12 243.799 850.81C253.969 850.55 261.619 849.98 268.719 846.68C284.426 839.366 295.216 827.52 301.089 811.14C302.596 806.946 303.499 803.486 303.799 800.76C305.659 784.17 302.249 765.04 290.829 752.16C288.389 749.41 283.839 744.64 280.019 742.08C263.009 730.69 240.929 729.32 222.079 737.08C208.019 742.87 196.749 755.9 191.139 769.85Z" stroke="#FB6B00" stroke-width="2"/>
<path d="M804.11 737.19C794.303 733.263 784.136 731.613 773.61 732.24C769.383 732.493 765.826 733.033 762.94 733.86C749.35 737.78 736.79 744.83 728.97 757.15C724.45 764.283 721.523 771.053 720.19 777.46C719.276 781.826 718.903 787.626 719.07 794.86C719.44 810.77 728.05 826.32 739.61 836.78C742.283 839.193 745.04 841.19 747.88 842.77C754.67 846.55 760.82 849.31 768.08 849.82C776.1 850.39 784.22 850.94 791.92 849.56C801.626 847.82 810.28 843.526 817.88 836.68C822.833 832.22 826.633 828.093 829.28 824.3C831.25 821.5 831.95 819.44 833.74 815.98C837.03 809.66 838.33 802.57 838.65 795.02C839.03 785.98 838.113 777.84 835.9 770.6C834.98 767.58 833.84 765.57 832.53 762.56C831.697 760.633 830.616 758.753 829.29 756.92C826.69 753.3 823.626 749.813 820.1 746.46C815.32 741.91 809.81 739.47 804.11 737.19Z" stroke="#FB6B00" stroke-width="2"/>
<path d="M333.87 216.97C333.956 217.346 334.166 217.683 334.465 217.924C334.765 218.166 335.137 218.298 335.52 218.3C339.4 218.33 343.38 217.56 346.81 217.54C366.557 217.4 380.454 217.387 388.5 217.5C395.9 217.6 401.76 220.67 402.51 228.72C403.46 238.96 396.02 243.27 387 243.57C380.974 243.77 367.557 243.804 346.75 243.67C342.804 243.65 338.457 243.287 333.71 242.58C333.301 242.523 332.886 242.627 332.553 242.872C332.22 243.117 331.997 243.483 331.93 243.89C330.09 255.3 327.33 265.43 321.95 275.15C311.37 294.27 291.11 308.96 270.19 315.05C266.457 316.144 262.78 316.717 259.16 316.77C246.374 316.964 236.247 316.504 228.78 315.39C217.96 313.77 207.717 309.79 198.05 303.45C182.35 293.144 170.957 279.05 163.87 261.17C162.277 257.144 161.267 253.584 160.84 250.49C159.354 239.777 159.054 229.107 159.94 218.48C161.55 199.3 172.41 180.67 185.88 168.38C199.08 156.34 214.384 149.084 231.79 146.61C236.884 145.884 243.754 145.637 252.4 145.87C266.047 146.237 279.164 150.354 291.75 158.22C308.48 168.69 322.71 184.12 329.68 202.57C331.214 206.624 332.61 211.424 333.87 216.97ZM252.35 172.66C248.63 172.22 244.004 172.307 238.47 172.92C229.51 173.907 221.334 176.567 213.94 180.9C203.27 187.16 194.93 198.64 190.09 209.85C187.67 215.45 186.414 222.334 186.32 230.5C186.154 244.967 190.43 257.58 199.15 268.34C212.43 284.74 233.2 291.43 254.01 290.25C271.72 289.24 288.27 278.3 296.95 262.86C305.517 247.627 307.667 231.357 303.4 214.05C301.04 204.51 294.55 196.51 287.13 189.27C277.39 179.784 265.797 174.247 252.35 172.66Z" fill="#F64D00"/>
<path d="M598.829 245.04C597.663 251.733 595.599 258.11 592.639 264.17C587.619 274.45 583.009 282.36 575.079 290.09C560.969 303.87 545.669 313.5 525.839 316.32C518.589 317.34 511.829 317.85 504.059 316.89C494.019 315.65 484.869 313.23 476.609 309.63C473.436 308.243 469.823 306.126 465.769 303.28C448.959 291.46 434.219 273.75 429.369 253.43C427.783 246.796 426.819 240.62 426.479 234.9C425.353 215.78 430.213 198.436 441.059 182.87C445.246 176.863 450.079 171.617 455.559 167.13C467.989 156.95 482.519 148.94 498.499 146.58C509.959 144.88 526.159 145.26 537.989 149.18C552.189 153.88 566.659 163.02 576.259 174.78C586.553 187.4 593.769 201.273 597.909 216.4C597.989 216.697 598.156 216.963 598.39 217.163C598.624 217.363 598.913 217.488 599.219 217.52C605.699 218.18 612.199 217.48 619.229 217.43C627.089 217.376 637.763 217.4 651.249 217.5C655.516 217.533 659.626 218.513 663.579 220.44C668.669 222.92 669.839 229.17 668.499 234.33C666.529 241.88 657.489 243.6 650.959 243.65C636.453 243.756 619.636 243.753 600.509 243.64C600.11 243.636 599.723 243.775 599.415 244.031C599.108 244.287 598.9 244.645 598.829 245.04ZM495.139 174.49C476.849 180.26 462.289 195.67 456.099 213.88C454.873 217.48 454.153 222.106 453.939 227.76C453.719 233.493 453.893 238.276 454.459 242.11C455.839 251.456 459.499 259.916 465.439 267.49C474.259 278.72 489.769 288.85 504.529 289.93C510.823 290.39 516.149 290.346 520.509 289.8C531.739 288.4 541.039 283.59 549.799 276.36C564.119 264.54 571.849 246.88 571.429 228.16C571.343 224.3 570.646 220.546 569.339 216.9C564.799 204.213 557.449 193.653 547.289 185.22C533.149 173.48 512.609 168.98 495.139 174.49Z" fill="#F64D00"/>
<path d="M767.029 318.36C767.026 318.242 766.984 318.128 766.91 318.036C766.836 317.944 766.734 317.879 766.619 317.85C759.919 316.23 755.199 315.21 749.839 313.06C739.899 309.074 730.756 303.413 722.409 296.08C715.279 289.81 707.229 282.08 702.499 273.56C678.089 229.64 693.179 177.92 738.039 155.03C748.989 149.45 758.939 146.46 771.279 145.85C784.313 145.21 796.143 146.317 806.769 149.17C826.889 154.58 843.819 169.55 854.059 187.47C863.066 203.217 866.596 220.39 864.649 238.99C862.479 259.67 852.959 281.02 836.789 294.8C824.343 305.407 810.106 312.824 794.079 317.05C792.739 317.404 792.083 318.22 792.109 319.5C792.809 355.114 792.589 382.94 791.449 402.98C791.369 404.414 790.579 405.774 789.079 407.06C784.479 411 779.376 411.617 773.769 408.91C770.549 407.357 768.659 404.654 768.099 400.8C767.526 396.794 767.306 392.527 767.439 388C767.819 375.02 767.886 364.647 767.639 356.88C767.219 343.64 767.479 331.05 767.029 318.36ZM832.689 255.85C838.209 244.64 838.309 234.75 837.609 223.3C836.816 210.12 831.919 199.197 822.919 190.53C817.606 185.41 813.283 181.91 809.949 180.03C798.263 173.437 785.023 171.014 770.229 172.76C759.109 174.07 749.039 177.79 740.979 184.93C738.286 187.324 735.693 189.917 733.199 192.71C726.639 200.04 720.389 210.62 719.419 220.49C718.893 225.784 718.799 231.534 719.139 237.74C719.769 249.57 726.349 261.64 734.169 270.37C745.099 282.58 761.719 290.84 778.689 290.46C786.099 290.29 793.439 289.47 800.289 286.32C814.139 279.97 825.999 269.45 832.689 255.85Z" fill="#F64D00"/>
<path d="M252.349 172.66C265.796 174.247 277.389 179.783 287.129 189.27C294.549 196.51 301.039 204.51 303.399 214.05C307.666 231.357 305.516 247.627 296.949 262.86C288.269 278.3 271.719 289.24 254.009 290.25C233.199 291.43 212.429 284.74 199.149 268.34C190.429 257.58 186.152 244.967 186.319 230.5C186.412 222.333 187.669 215.45 190.089 209.85C194.929 198.64 203.269 187.16 213.939 180.9C221.332 176.567 229.509 173.907 238.469 172.92C244.002 172.307 248.629 172.22 252.349 172.66Z" fill="#FF8900"/>
<path d="M495.14 174.49C512.61 168.98 533.15 173.48 547.29 185.22C557.45 193.653 564.8 204.213 569.34 216.9C570.647 220.547 571.343 224.3 571.43 228.16C571.85 246.88 564.12 264.54 549.8 276.36C541.04 283.59 531.74 288.4 520.51 289.8C516.15 290.347 510.823 290.39 504.53 289.93C489.77 288.85 474.26 278.72 465.44 267.49C459.5 259.917 455.84 251.457 454.46 242.11C453.893 238.277 453.72 233.493 453.94 227.76C454.153 222.107 454.873 217.48 456.1 213.88C462.29 195.67 476.85 180.26 495.14 174.49Z" fill="#FF8900"/>
<path d="M837.61 223.3C838.31 234.75 838.21 244.64 832.69 255.85C826 269.45 814.14 279.97 800.29 286.32C793.44 289.47 786.1 290.29 778.69 290.46C761.72 290.84 745.1 282.58 734.17 270.37C726.35 261.64 719.77 249.57 719.14 237.74C718.8 231.533 718.893 225.783 719.42 220.49C720.39 210.62 726.64 200.04 733.2 192.71C735.693 189.917 738.286 187.323 740.98 184.93C749.04 177.79 759.11 174.07 770.23 172.76C785.023 171.013 798.263 173.437 809.95 180.03C813.283 181.91 817.606 185.41 822.92 190.53C831.92 199.197 836.816 210.12 837.61 223.3Z" fill="#FF8900"/>
<path d="M442.29 706.27C441.336 705.35 440.206 703.467 438.9 700.62C435.9 694.08 434.383 686.7 434.35 678.48C434.316 669.933 434.383 659.537 434.55 647.29C434.74 633.38 433.61 621.68 428.54 610.96C424.44 602.287 419.506 594.717 413.74 588.25C406.88 580.557 402.57 575.573 400.81 573.3C387.683 556.34 378.5 537.857 373.26 517.85C371.346 510.557 370.043 502.287 369.35 493.04C367.41 467.08 372.516 442.617 384.67 419.65C396.08 398.11 413.44 378.74 433.83 365.57C455.71 351.43 482.76 341.87 508.92 342.42C517.95 342.62 527.15 341.93 536.67 343.68C562.33 348.38 587.66 359.81 606.7 377.81C613.04 383.81 619.88 390.59 625.49 397.66C637.963 413.38 646.623 430.893 651.47 450.2C656.796 471.413 656.85 492.97 651.63 514.87C646.57 536.103 637.063 555.52 623.11 573.12C620.183 576.813 616.11 581.57 610.89 587.39C599.07 600.55 591.59 616.67 590.83 634.5C590.07 652.28 590.72 673.35 590.51 687C590.43 692.05 588.64 698.67 585.72 703.25C580.013 712.203 571.853 717.517 561.24 719.19C557.433 719.79 551.27 720.077 542.75 720.05C514.256 719.97 492.923 719.98 478.75 720.08C473.81 720.11 467.44 720.11 462.56 718.51C454.84 715.97 448.083 711.89 442.29 706.27ZM545.51 639.84H564.38C564.474 639.84 564.568 639.821 564.655 639.784C564.742 639.747 564.82 639.693 564.886 639.625C564.951 639.556 565.002 639.475 565.035 639.387C565.069 639.299 565.084 639.204 565.08 639.11C563.98 614.01 573.57 592.6 589.77 572.52C594.76 566.34 601.74 559.09 606.67 552.17C615.816 539.303 622.37 525.087 626.33 509.52C629 499.04 628.51 487.16 628.14 476.69C627.59 461.53 623.65 447.53 616.79 433.44C605.89 411.04 589.5 394.007 567.62 382.34C562.906 379.827 558.03 377.847 552.99 376.4C546.236 374.46 542.786 373.467 542.64 373.42C536.286 371.56 532.103 370.477 530.09 370.17C521.33 368.85 512.23 368.91 504.28 369.31C489.593 370.037 475.503 373.61 462.01 380.03C436.363 392.23 417.616 411.14 405.77 436.76C398.66 452.15 395.29 468.24 395.55 485.1C395.676 493.533 395.893 498.843 396.2 501.03C396.913 506.103 398.483 512.387 400.91 519.88C405.55 534.187 412.59 546.887 422.03 557.98C427.643 564.58 432.266 570.033 435.9 574.34C451.14 592.36 461.04 615.39 459.79 639.46C459.786 639.54 459.798 639.62 459.826 639.695C459.854 639.77 459.896 639.839 459.952 639.897C460.007 639.955 460.073 640.001 460.147 640.032C460.22 640.064 460.3 640.08 460.38 640.08H478.41C478.559 640.08 478.706 640.05 478.843 639.993C478.98 639.935 479.105 639.851 479.209 639.745C479.313 639.639 479.395 639.513 479.45 639.375C479.505 639.237 479.532 639.089 479.53 638.94C479.43 633.367 479.486 625.533 479.7 615.44C480.21 591.69 479.82 571.86 480.04 543.51C480.053 541.59 479.933 539.807 479.68 538.16C479.608 537.692 479.391 537.261 479.06 536.93C477.286 535.163 475.843 534.207 474.73 534.06C463.583 532.613 455.653 526.997 450.94 517.21C448.75 512.66 449.07 508.29 449.44 503.74C450.41 491.8 459.28 481.96 471.44 481.24C490.3 480.13 500.42 492.64 504.61 509.44C504.674 509.709 504.82 509.951 505.028 510.134C505.236 510.317 505.495 510.43 505.77 510.46C509.23 510.83 517.08 511.98 518.98 508.48C522.32 502.32 524.37 498.7 525.13 497.62C528.256 493.153 532.023 489.33 536.43 486.15C541.76 482.31 546.54 481.51 552.97 482.3C558.963 483.033 563.936 485.427 567.89 489.48C575.803 497.593 577.503 506.817 572.99 517.15C570.863 522.003 567.33 525.907 562.39 528.86C557.463 531.807 552.14 533.58 546.42 534.18C546.143 534.21 545.887 534.34 545.701 534.547C545.514 534.754 545.411 535.022 545.41 535.3L544.71 639.04C544.71 639.252 544.794 639.456 544.944 639.606C545.094 639.756 545.298 639.84 545.51 639.84ZM544.51 510.22C544.422 510.341 544.372 510.485 544.365 510.635C544.359 510.784 544.397 510.932 544.474 511.059C544.552 511.185 544.665 511.286 544.8 511.347C544.934 511.407 545.084 511.426 545.23 511.4C548.45 510.82 555.08 508.93 553.11 504.86C553.005 504.647 552.853 504.461 552.664 504.316C552.475 504.17 552.253 504.069 552.015 504.018C551.777 503.968 551.527 503.969 551.284 504.023C551.042 504.077 550.811 504.182 550.61 504.33C548.103 506.17 546.07 508.133 544.51 510.22ZM475.12 508.89C474.626 507.463 474.196 506.51 473.83 506.03C473.652 505.797 473.396 505.633 473.109 505.569C472.822 505.506 472.522 505.545 472.262 505.681C472.002 505.817 471.8 506.04 471.692 506.311C471.583 506.582 471.575 506.883 471.67 507.16C472.036 508.253 473.03 509 474.65 509.4C474.72 509.416 474.793 509.413 474.861 509.392C474.93 509.371 474.992 509.333 475.04 509.281C475.088 509.228 475.121 509.165 475.135 509.096C475.149 509.027 475.144 508.956 475.12 508.89ZM520.97 639.05C521.236 608.35 521.113 577.673 520.6 547.02C520.533 543.16 520.336 538.88 520.01 534.18C519.992 533.918 519.882 533.67 519.699 533.482C519.516 533.293 519.271 533.175 519.01 533.15C514.416 532.69 510.02 533.01 505.82 534.11C505.485 534.198 505.185 534.385 504.96 534.648C504.735 534.911 504.595 535.236 504.56 535.58C504.313 537.933 504.18 540.323 504.16 542.75C503.9 576.103 503.856 608.15 504.03 638.89C504.029 639.013 504.075 639.132 504.158 639.224C504.241 639.316 504.355 639.375 504.48 639.39C509.766 640.05 515.063 640.153 520.37 639.7C520.533 639.685 520.684 639.611 520.795 639.49C520.906 639.37 520.968 639.213 520.97 639.05ZM458.68 664.8C458.546 672.373 458.716 679.607 459.19 686.5C459.44 690.17 461.96 695.55 466.12 695.77C470.026 695.977 474.32 696.08 479 696.08C519.31 696.06 544.91 696.03 559.54 695.95C563.71 695.93 565 693.76 565 689.73C564.993 681.63 564.773 673.37 564.34 664.95C564.327 664.696 564.217 664.457 564.033 664.282C563.848 664.107 563.604 664.01 563.35 664.01H459.48C459.269 664.01 459.067 664.093 458.918 664.241C458.768 664.389 458.682 664.59 458.68 664.8Z" fill="#F64D00"/>
<path d="M256.69 423.77C256.73 424.064 256.867 424.337 257.078 424.545C257.29 424.753 257.565 424.885 257.86 424.92C282.16 427.82 301.46 441.87 315.72 461.31C326.54 476.05 331.763 492.693 331.39 511.24C331.343 513.606 331 517.4 330.36 522.62C328.45 538.06 323.44 551.42 314.24 564.23C302.77 580.19 283.99 591.59 264.65 596.85C260.13 598.083 256.003 598.727 252.27 598.78C234.923 599.02 219.383 595.873 205.65 589.34C198.443 585.913 191.347 580.673 184.36 573.62C169.19 558.31 158.89 537.03 158.79 515.23C158.717 498.323 162.747 482.256 170.88 467.03C172.753 463.523 174.86 460.497 177.2 457.95C183.96 450.61 191.23 443.58 199.55 438.49C209.31 432.516 219.687 428.54 230.68 426.56C231.175 426.47 231.623 426.208 231.943 425.82C232.263 425.432 232.436 424.943 232.43 424.44C232.23 408.753 232.197 390.773 232.33 370.5C232.39 361.77 234.44 351.88 245.61 352.25C250.92 352.43 254.59 356.17 255.35 361.23C256.28 367.5 256.65 376.55 256.58 383.65C256.4 404.19 256.363 416.806 256.47 421.5C256.483 422.033 256.557 422.79 256.69 423.77ZM247.499 451.88C231.822 451.305 216.555 457.071 205.057 467.909C193.56 478.747 186.773 493.77 186.19 509.672C185.901 517.546 187.144 525.399 189.848 532.783C192.552 540.166 196.663 546.936 201.948 552.705C207.233 558.474 213.587 563.13 220.648 566.406C227.709 569.682 235.339 571.515 243.101 571.799C258.778 572.374 274.045 566.609 285.543 555.77C297.04 544.932 303.827 529.91 304.41 514.007C304.699 506.133 303.456 498.28 300.752 490.897C298.048 483.513 293.937 476.744 288.652 470.975C283.367 465.206 277.013 460.55 269.952 457.274C262.891 453.997 255.261 452.165 247.499 451.88Z" fill="#F64D00"/>
<path d="M545.509 639.84C545.297 639.84 545.093 639.756 544.943 639.606C544.793 639.456 544.709 639.252 544.709 639.04L545.409 535.3C545.41 535.022 545.514 534.753 545.7 534.547C545.886 534.34 546.142 534.209 546.419 534.18C552.139 533.58 557.462 531.806 562.389 528.86C567.329 525.906 570.862 522.003 572.989 517.15C577.502 506.817 575.802 497.593 567.889 489.48C563.936 485.426 558.962 483.033 552.969 482.3C546.539 481.51 541.759 482.31 536.429 486.15C532.022 489.33 528.256 493.153 525.129 497.62C524.369 498.7 522.319 502.32 518.979 508.48C517.079 511.98 509.229 510.83 505.769 510.46C505.494 510.43 505.235 510.316 505.027 510.134C504.82 509.951 504.674 509.709 504.609 509.44C500.419 492.64 490.299 480.13 471.439 481.24C459.279 481.96 450.409 491.8 449.439 503.74C449.069 508.29 448.749 512.66 450.939 517.21C455.652 526.997 463.582 532.613 474.729 534.06C475.842 534.206 477.286 535.163 479.059 536.93C479.39 537.261 479.608 537.692 479.679 538.16C479.932 539.806 480.052 541.59 480.039 543.51C479.819 571.86 480.209 591.69 479.699 615.44C479.486 625.533 479.429 633.366 479.529 638.94C479.532 639.089 479.505 639.236 479.45 639.375C479.395 639.513 479.313 639.639 479.208 639.745C479.104 639.851 478.98 639.935 478.842 639.993C478.705 640.05 478.558 640.08 478.409 640.08H460.379C460.299 640.08 460.22 640.064 460.146 640.032C460.073 640.001 460.006 639.955 459.951 639.897C459.896 639.839 459.853 639.77 459.825 639.695C459.797 639.62 459.785 639.54 459.789 639.46C461.039 615.39 451.139 592.36 435.899 574.34C432.266 570.033 427.642 564.58 422.029 557.98C412.589 546.886 405.549 534.186 400.909 519.88C398.482 512.386 396.912 506.103 396.199 501.03C395.892 498.843 395.676 493.533 395.549 485.1C395.289 468.24 398.659 452.15 405.769 436.76C417.616 411.14 436.362 392.23 462.009 380.03C475.502 373.61 489.592 370.036 504.279 369.31C512.229 368.91 521.329 368.85 530.089 370.17C532.102 370.477 536.286 371.56 542.639 373.42C542.786 373.467 546.236 374.46 552.989 376.4C558.029 377.846 562.906 379.826 567.619 382.34C589.499 394.006 605.889 411.04 616.789 433.44C623.649 447.53 627.589 461.53 628.139 476.69C628.509 487.16 628.999 499.04 626.329 509.52C622.369 525.086 615.816 539.303 606.669 552.17C601.739 559.09 594.759 566.34 589.769 572.52C573.569 592.6 563.979 614.01 565.079 639.11C565.083 639.204 565.068 639.298 565.035 639.387C565.001 639.475 564.95 639.556 564.885 639.624C564.82 639.693 564.741 639.747 564.654 639.784C564.567 639.821 564.474 639.84 564.379 639.84H545.509Z" fill="#FFA41A"/>
<path d="M792.389 598.51C791.949 599.323 791.779 600.67 791.879 602.55C792.686 617.123 792.886 633.806 792.479 652.6C792.339 659.073 791.983 662.936 791.409 664.19C789.809 667.67 786.649 669.76 781.929 670.46C777.059 671.19 771.019 668.76 769.219 663.78C768.493 661.746 767.973 658.613 767.659 654.38C766.969 645.06 768.119 635.17 767.659 625.51C767.379 619.663 767.359 611.156 767.599 599.99C767.633 598.256 766.803 597.293 765.109 597.1C747.419 595.04 729.169 586.03 716.659 573.11C704.473 560.53 696.523 545.883 692.809 529.17C691.809 524.656 691.283 520.276 691.229 516.03C691.119 508.03 691.229 501.04 693.459 493.2C696.199 483.553 700.443 473.88 706.189 464.18C708.096 460.966 709.946 458.326 711.739 456.26C723.129 443.14 738.889 432.09 756.029 427.7C767.969 424.64 780.979 424.65 792.799 425.89C809.319 427.63 824.049 434.97 836.349 446.42C841.039 450.79 846.689 456.29 850.409 462.37C854.676 469.323 858.313 477.013 861.319 485.44C865.289 496.58 865.159 508.88 864.619 520.34C863.909 535.34 858.709 549.11 849.539 560.98C839.859 573.5 827.709 584.48 813.609 590.86C808.729 593.066 801.966 595.373 793.319 597.78C793.123 597.834 792.94 597.926 792.78 598.051C792.62 598.177 792.488 598.333 792.389 598.51ZM719.539 502.62C718.266 510.913 718.496 518.353 720.229 524.94C722.343 532.966 726.026 540.546 731.279 547.68C740.259 559.9 751.699 566.46 765.949 570.26C777.919 573.46 790.949 571.55 802.689 566.42C818.509 559.493 829.039 547.893 834.279 531.62C835.659 527.326 836.583 523.653 837.049 520.6C837.516 517.54 837.733 513.756 837.699 509.25C837.566 492.15 830.986 477.93 817.959 466.59C808.289 458.19 796.429 452.47 784.049 451.94C769.319 451.31 756.439 454.15 744.219 463.12C737.073 468.36 731.293 474.493 726.879 481.52C723.253 487.286 720.806 494.32 719.539 502.62Z" fill="#F64D00"/>
<path d="M304.409 514.008C305.624 480.893 280.143 453.077 247.498 451.88C214.852 450.683 187.403 476.558 186.189 509.673C184.975 542.787 210.455 570.603 243.101 571.8C275.746 572.997 303.195 547.122 304.409 514.008Z" fill="#FF8900"/>
<path d="M837.049 520.6C836.583 523.653 835.659 527.327 834.279 531.62C829.039 547.893 818.509 559.493 802.689 566.42C790.949 571.55 777.919 573.46 765.949 570.26C751.699 566.46 740.259 559.9 731.279 547.68C726.026 540.547 722.343 532.967 720.229 524.94C718.496 518.353 718.266 510.913 719.539 502.62C720.806 494.32 723.253 487.287 726.879 481.52C731.293 474.493 737.073 468.36 744.219 463.12C756.439 454.15 769.319 451.31 784.049 451.94C796.429 452.47 808.289 458.19 817.959 466.59C830.986 477.93 837.566 492.15 837.699 509.25C837.733 513.757 837.516 517.54 837.049 520.6Z" fill="#FF8900"/>
<path d="M544.51 510.22C546.07 508.133 548.104 506.17 550.61 504.33C550.812 504.182 551.042 504.077 551.285 504.023C551.528 503.969 551.777 503.968 552.016 504.018C552.254 504.069 552.476 504.17 552.665 504.316C552.854 504.461 553.006 504.647 553.11 504.86C555.08 508.93 548.45 510.82 545.23 511.4C545.085 511.426 544.935 511.407 544.8 511.346C544.666 511.286 544.552 511.185 544.475 511.058C544.398 510.932 544.36 510.784 544.366 510.634C544.372 510.485 544.423 510.341 544.51 510.22Z" fill="#FFA41A"/>
<path d="M474.651 509.4C473.031 509 472.038 508.253 471.671 507.16C471.577 506.883 471.584 506.582 471.693 506.311C471.801 506.04 472.004 505.817 472.263 505.681C472.523 505.545 472.823 505.505 473.11 505.569C473.398 505.633 473.653 505.797 473.831 506.03C474.198 506.51 474.628 507.463 475.121 508.89C475.145 508.956 475.15 509.027 475.136 509.096C475.122 509.165 475.089 509.228 475.041 509.281C474.993 509.333 474.931 509.371 474.863 509.392C474.794 509.413 474.721 509.416 474.651 509.4Z" fill="#FFA41A"/>
<path d="M520.37 639.7C515.063 640.153 509.766 640.05 504.48 639.39C504.355 639.375 504.241 639.316 504.158 639.224C504.075 639.131 504.029 639.013 504.03 638.89C503.856 608.15 503.9 576.103 504.16 542.75C504.18 540.323 504.313 537.933 504.56 535.58C504.595 535.236 504.735 534.911 504.96 534.648C505.185 534.385 505.485 534.197 505.82 534.11C510.02 533.01 514.416 532.69 519.01 533.15C519.271 533.175 519.516 533.293 519.699 533.481C519.882 533.67 519.992 533.917 520.01 534.18C520.336 538.88 520.533 543.16 520.6 547.02C521.113 577.673 521.236 608.35 520.97 639.05C520.968 639.213 520.906 639.37 520.795 639.49C520.684 639.61 520.533 639.685 520.37 639.7Z" fill="#FFA41A"/>
<path d="M233.24 703.75C233.28 700.92 232.4 697.4 232.36 694.08C232.25 683.79 233.07 672.19 232.77 663.51C232.217 647.83 232.08 635.18 232.36 625.56C232.367 625.156 232.437 624.751 232.57 624.36C234.67 617.95 241.12 613.6 248.08 615.2C255.19 616.84 256.73 622.7 257.3 629.25C258.21 639.64 256.47 649.16 256.96 659.18C257.68 673.627 257.89 688.337 257.59 703.31C257.581 703.744 257.727 704.166 258.002 704.502C258.277 704.838 258.663 705.064 259.09 705.14C264.63 706.1 268.39 706.42 272.58 707.94C305.32 719.83 328.42 746.17 331.48 781.44C332.007 787.507 331.99 794.05 331.43 801.07C330.02 818.84 322.94 835.87 310.25 848.58C295.7 863.14 275.94 873.46 255.25 875.55C253.557 875.723 249.233 875.807 242.28 875.8C228.82 875.79 214.52 872.58 203.01 865.69C181.46 852.79 164.59 831.71 160.7 806.58C159.233 797.067 159.243 787.33 160.73 777.37C164.86 749.88 181.5 728.93 204.72 714.72C213.047 709.627 222.037 706.537 231.69 705.45C232.109 705.404 232.498 705.206 232.783 704.893C233.068 704.581 233.231 704.174 233.24 703.75ZM191.14 769.85C189.133 774.843 188.023 778.49 187.81 780.79C186.76 792.14 187.08 803.37 191.38 814.03C195.127 823.31 200.783 831.44 208.35 838.42C217.53 846.9 231.72 851.12 243.8 850.81C253.97 850.55 261.62 849.98 268.72 846.68C284.427 839.367 295.217 827.52 301.09 811.14C302.597 806.947 303.5 803.487 303.8 800.76C305.66 784.17 302.25 765.04 290.83 752.16C288.39 749.41 283.84 744.64 280.02 742.08C263.01 730.69 240.93 729.32 222.08 737.08C208.02 742.87 196.75 755.9 191.14 769.85Z" fill="#F64D00"/>
<path d="M458.681 664.8C458.683 664.589 458.769 664.388 458.918 664.241C459.068 664.093 459.27 664.01 459.481 664.01H563.351C563.605 664.009 563.849 664.107 564.034 664.282C564.218 664.457 564.328 664.696 564.341 664.95C564.774 673.37 564.994 681.63 565.001 689.73C565.001 693.76 563.711 695.93 559.541 695.95C544.911 696.03 519.311 696.06 479.001 696.08C474.321 696.08 470.027 695.976 466.121 695.77C461.961 695.55 459.441 690.17 459.191 686.5C458.717 679.606 458.547 672.373 458.681 664.8Z" fill="#FF8900"/>
<path d="M860.309 819.28C854.749 833.99 845.689 846.92 833.549 856.57C816.536 870.103 797.686 876.44 776.999 875.58C770.619 875.313 763.699 874.21 756.239 872.27C728.613 865.07 708.943 848.49 697.229 822.53C693.756 814.837 691.839 806.823 691.479 798.49C691.189 791.74 690.999 782.97 692.359 775.9C696.459 754.58 709.439 735.41 726.889 722.35C742.889 710.383 761.179 704.843 781.759 705.73C789.419 706.063 795.839 706.987 801.019 708.5C811.726 711.64 821.766 716.627 831.139 723.46C846.429 734.6 859.529 753.99 863.549 772.39C867.096 788.583 866.016 804.213 860.309 819.28ZM804.109 737.19C794.303 733.263 784.136 731.613 773.609 732.24C769.383 732.493 765.826 733.033 762.939 733.86C749.349 737.78 736.789 744.83 728.969 757.15C724.449 764.283 721.523 771.053 720.189 777.46C719.276 781.827 718.903 787.627 719.069 794.86C719.439 810.77 728.049 826.32 739.609 836.78C742.283 839.193 745.039 841.19 747.879 842.77C754.669 846.55 760.819 849.31 768.079 849.82C776.099 850.39 784.219 850.94 791.919 849.56C801.626 847.82 810.279 843.527 817.879 836.68C822.833 832.22 826.633 828.093 829.279 824.3C831.249 821.5 831.949 819.44 833.739 815.98C837.029 809.66 838.329 802.57 838.649 795.02C839.029 785.98 838.113 777.84 835.899 770.6C834.979 767.58 833.839 765.57 832.529 762.56C831.696 760.633 830.616 758.753 829.289 756.92C826.689 753.3 823.626 749.813 820.099 746.46C815.319 741.91 809.809 739.47 804.109 737.19Z" fill="#F64D00"/>
<path d="M191.139 769.85C196.749 755.9 208.019 742.87 222.079 737.08C240.929 729.32 263.009 730.69 280.019 742.08C283.839 744.64 288.389 749.41 290.829 752.16C302.249 765.04 305.659 784.17 303.799 800.76C303.499 803.487 302.596 806.947 301.089 811.14C295.216 827.52 284.426 839.367 268.719 846.68C261.619 849.98 253.969 850.55 243.799 850.81C231.719 851.12 217.529 846.9 208.349 838.42C200.783 831.44 195.126 823.31 191.379 814.03C187.079 803.37 186.759 792.14 187.809 780.79C188.023 778.49 189.133 774.843 191.139 769.85Z" fill="#FF8900"/>
<path d="M804.11 737.19C809.81 739.47 815.32 741.91 820.1 746.46C823.626 749.813 826.69 753.3 829.29 756.92C830.616 758.753 831.697 760.633 832.53 762.56C833.84 765.57 834.98 767.58 835.9 770.6C838.113 777.84 839.03 785.98 838.65 795.02C838.33 802.57 837.03 809.66 833.74 815.98C831.95 819.44 831.25 821.5 829.28 824.3C826.633 828.093 822.833 832.22 817.88 836.68C810.28 843.526 801.626 847.82 791.92 849.56C784.22 850.94 776.1 850.39 768.08 849.82C760.82 849.31 754.67 846.55 747.88 842.77C745.04 841.19 742.283 839.193 739.61 836.78C728.05 826.32 719.44 810.77 719.07 794.86C718.903 787.626 719.276 781.826 720.19 777.46C721.523 771.053 724.45 764.283 728.97 757.15C736.79 744.83 749.35 737.78 762.94 733.86C765.826 733.033 769.383 732.493 773.61 732.24C784.136 731.613 794.303 733.263 804.11 737.19Z" fill="#FF8900"/>
<path d="M507.289 801.86C506.909 801.7 506.649 801.62 506.509 801.62C497.943 801.693 490.886 801.65 485.339 801.49C473.979 801.177 466.919 801.01 464.159 800.99C418.819 800.597 386.873 800.537 368.319 800.81C362.649 800.89 357.709 799.53 354.889 794.5C351.509 788.48 353.749 778.32 361.339 776.34C364.599 775.493 368.319 775.16 372.499 775.34C396.639 776.39 423.709 775.39 450.249 775.79C469.516 776.083 489.286 775.883 509.559 775.19C509.75 775.186 509.935 775.122 510.088 775.007C510.241 774.892 510.353 774.732 510.41 774.549C510.466 774.366 510.463 774.171 510.402 773.99C510.341 773.809 510.225 773.651 510.069 773.54C504.389 769.407 500.299 766.277 497.799 764.15C494.033 760.957 492.659 757.23 493.679 752.97C494.386 750.023 495.643 747.75 497.449 746.15C503.839 740.47 511.369 742.47 517.299 747.47C526.066 754.843 536.236 764 547.809 774.94C549.823 776.847 551.146 778.183 551.779 778.95C556.149 784.29 555.309 791.3 550.469 796.23C537.149 809.823 525.183 821.263 514.569 830.55C511.989 832.81 509.219 834.117 506.259 834.47C505.099 834.61 503.326 834.223 500.939 833.31C492.829 830.22 490.809 820.98 496.799 814.68C500.973 810.287 504.573 806.49 507.599 803.29C507.698 803.185 507.769 803.058 507.807 802.919C507.845 802.78 507.849 802.635 507.819 802.494C507.788 802.353 507.724 802.222 507.632 802.112C507.54 802.001 507.422 801.915 507.289 801.86Z" fill="#F64D00"/>
<path d="M624.539 801.75C624.239 801.65 623.899 801.6 623.519 801.6C618.886 801.647 608.736 801.633 593.069 801.56C587.769 801.54 581.829 798.33 579.359 792.82C576.409 786.23 582.359 778.92 588.149 776.47C590.369 775.53 593.112 775.14 596.379 775.3C599.889 775.47 604.099 775.08 607.559 775.45C609.626 775.67 614.516 775.66 622.229 775.42C623.209 775.387 623.976 775.16 624.529 774.74C624.709 774.602 624.852 774.422 624.948 774.213C625.044 774.005 625.091 773.773 625.086 773.534C625.08 773.295 625.022 773.055 624.915 772.832C624.809 772.608 624.656 772.406 624.469 772.24C622.542 770.52 620.712 769.09 618.979 767.95C618.61 767.706 618.29 767.386 618.039 767.01C615.666 763.383 615.596 759.41 617.829 755.09C619.636 751.577 622.809 749.547 627.349 749C631.539 748.5 635.769 751.23 638.619 753.9C643.766 758.72 648.909 763.57 654.049 768.45C658.769 772.93 663.549 777.75 667.159 783.26C671.479 789.86 667.609 796.15 663.019 801.02C657.379 807.007 650.016 814.223 640.929 822.67C634.869 828.3 628.729 833.74 620.389 827.42C613.969 822.56 615.819 814.91 620.079 809.26C621.319 807.613 622.962 805.773 625.009 803.74C625.154 803.595 625.26 803.416 625.317 803.219C625.373 803.022 625.378 802.813 625.33 802.614C625.283 802.414 625.186 802.23 625.047 802.079C624.909 801.928 624.734 801.814 624.539 801.75Z" fill="#F64D00"/>
</svg>
