<svg width="1024" height="1024" viewBox="0 0 1024 1024" fill="none" xmlns="http://www.w3.org/2000/svg">
<path d="M656.541 259.65L643.961 271.76" stroke="#FFCB43" stroke-width="2"/>
<path d="M643.96 271.76C640.514 269.493 637.05 267.237 633.57 264.99C612.424 251.317 589.837 242.513 565.81 238.58C556.857 237.107 551.207 236.3 548.86 236.16C534.07 235.27 518.19 235.34 503.96 237.35C467.75 242.45 434 257.86 406.97 282.45C383.924 303.417 367.074 327.79 356.42 355.57C345.954 382.89 342.097 412.22 344.85 443.56C347.564 474.367 357.09 503.293 373.43 530.34C380.84 542.61 391.56 556.1 401.4 568.41C409.62 578.7 414.27 586.25 417.18 598.07C419.414 607.157 420.62 616.55 420.8 626.25C421.49 663.93 421.06 701.95 421.19 733.75C421.204 735.63 421.257 737.233 421.35 738.56C421.38 738.953 421.522 739.328 421.76 739.64C421.998 739.953 422.321 740.189 422.69 740.32L518.93 775.15" stroke="#FFD667" stroke-width="2"/>
<path d="M518.931 775.15C523.351 781.923 525.961 789.3 526.761 797.28" stroke="#FFCB43" stroke-width="2"/>
<path d="M643.961 271.76C655.054 280.433 664.151 288.677 671.251 296.49C690.944 318.177 704.967 343.987 713.321 373.92C717.001 387.11 718.421 401.97 718.831 415.13C719.117 424.63 719.551 430.74 720.131 433.46C721.444 439.667 723.434 445.42 726.101 450.72C746.174 490.66 758.571 515.447 763.291 525.08C765.051 528.68 766.831 534.09 766.181 538.56C766.135 538.899 765.989 539.219 765.761 539.48C764.121 541.38 760.341 542.57 758.501 542.58C748.741 542.653 739.501 542.76 730.781 542.9C723.687 543.013 719.971 546.46 719.631 553.24C718.781 570.19 719.001 590.84 719.011 626.99C719.021 640.66 712.351 654.09 699.381 658.88C693.901 660.907 688.107 661.94 682.001 661.98C669.407 662.067 643.907 662.097 605.501 662.07C596.661 662.063 588.821 661.49 581.981 660.35C578.527 659.777 575.431 659.03 572.691 658.11C565.851 655.8 563.041 654.48 556.691 651.1C553.001 649.14 549.241 648.49 545.931 650.83C541.091 654.25 540.861 659.53 544.221 664.22C545.001 665.307 546.681 666.493 549.261 667.78C558.121 672.213 566.804 675.333 575.311 677.14C583.737 678.927 591.764 679.967 599.391 680.26C599.584 680.268 599.768 680.35 599.902 680.49C600.036 680.63 600.111 680.816 600.111 681.01V803.26C600.111 803.376 600.084 803.491 600.031 803.595C599.977 803.698 599.899 803.788 599.804 803.854C599.709 803.921 599.598 803.964 599.483 803.979C599.367 803.994 599.25 803.98 599.141 803.94L518.931 775.15" stroke="#FFDF72" stroke-width="2"/>
<path d="M315 227.86C315 221.94 312.649 216.263 308.463 212.077C304.277 207.892 298.6 205.54 292.68 205.54C286.761 205.54 281.084 207.892 276.898 212.077C272.712 216.263 270.36 221.94 270.36 227.86C270.36 233.78 272.712 239.457 276.898 243.643C281.084 247.828 286.761 250.18 292.68 250.18C298.6 250.18 304.277 247.828 308.463 243.643C312.649 239.457 315 233.78 315 227.86Z" stroke="#FFD667" stroke-width="2"/>
<path d="M216.68 331.85C216.68 325.851 214.297 320.097 210.055 315.855C205.813 311.613 200.06 309.23 194.06 309.23C188.061 309.23 182.308 311.613 178.066 315.855C173.824 320.097 171.44 325.851 171.44 331.85C171.44 337.849 173.824 343.603 178.066 347.845C182.308 352.087 188.061 354.47 194.06 354.47C200.06 354.47 205.813 352.087 210.055 347.845C214.297 343.603 216.68 337.849 216.68 331.85Z" stroke="#FFD667" stroke-width="2"/>
<path d="M265.121 469.71C265.121 463.766 262.76 458.066 258.557 453.864C254.354 449.661 248.654 447.3 242.711 447.3C236.767 447.3 231.067 449.661 226.865 453.864C222.662 458.066 220.301 463.766 220.301 469.71C220.301 475.653 222.662 481.354 226.865 485.556C231.067 489.759 236.767 492.12 242.711 492.12C248.654 492.12 254.354 489.759 258.557 485.556C262.76 481.354 265.121 475.653 265.121 469.71Z" stroke="#FFD667" stroke-width="2"/>
<path d="M280.881 592.41C280.881 586.421 278.502 580.678 274.267 576.444C270.033 572.209 264.289 569.83 258.301 569.83C252.312 569.83 246.569 572.209 242.334 576.444C238.1 580.678 235.721 586.421 235.721 592.41C235.721 595.375 236.305 598.311 237.439 601.051C238.574 603.79 240.237 606.28 242.334 608.376C244.431 610.473 246.92 612.136 249.66 613.271C252.399 614.406 255.335 614.99 258.301 614.99C261.266 614.99 264.202 614.406 266.942 613.271C269.681 612.136 272.17 610.473 274.267 608.376C276.364 606.28 278.027 603.79 279.162 601.051C280.297 598.311 280.881 595.375 280.881 592.41Z" stroke="#FFD667" stroke-width="2"/>
<path d="M228.12 714.899C225.115 714.815 222.123 715.333 219.314 716.424C216.505 717.514 213.935 719.156 211.75 721.254C209.565 723.353 207.808 725.868 206.579 728.656C205.351 731.443 204.675 734.449 204.589 737.501C204.417 743.665 206.663 749.644 210.832 754.122C215.001 758.6 220.753 761.211 226.821 761.381C229.826 761.465 232.818 760.947 235.627 759.856C238.436 758.766 241.006 757.125 243.191 755.026C245.376 752.927 247.133 750.412 248.361 747.624C249.59 744.837 250.266 741.831 250.352 738.779C250.524 732.615 248.278 726.637 244.109 722.158C239.94 717.68 234.188 715.069 228.12 714.899Z" stroke="#FFD667" stroke-width="2"/>
<path d="M792.648 248.691C789.536 245.26 785.777 242.478 781.583 240.504C777.39 238.53 772.845 237.402 768.208 237.186C763.57 236.97 758.932 237.669 754.557 239.243C750.182 240.818 746.156 243.236 742.709 246.362C739.263 249.487 736.462 253.258 734.468 257.458C732.475 261.659 731.326 266.207 731.089 270.843C730.852 275.479 731.53 280.113 733.086 284.479C734.641 288.845 737.043 292.858 740.154 296.289C743.265 299.72 747.025 302.502 751.218 304.476C755.412 306.45 759.957 307.578 764.594 307.794C769.231 308.01 773.87 307.311 778.245 305.737C782.62 304.162 786.646 301.744 790.093 298.618C793.539 295.493 796.34 291.722 798.333 287.522C800.327 283.321 801.475 278.773 801.713 274.137C801.95 269.501 801.272 264.867 799.716 260.501C798.161 256.135 795.759 252.122 792.648 248.691Z" stroke="#FFDF72" stroke-width="2"/>
<path d="M410.6 475.78C410.656 475.78 410.711 475.791 410.763 475.813C410.815 475.835 410.861 475.866 410.901 475.907C410.94 475.947 410.97 475.994 410.991 476.046C411.011 476.098 411.021 476.154 411.02 476.21C410.9 483.837 410.917 491.427 411.07 498.98C411.33 511.61 422.54 520.07 434.5 520.06C440.107 520.053 446.197 520.083 452.77 520.15C452.92 520.151 453.068 520.182 453.205 520.241C453.343 520.299 453.468 520.384 453.573 520.491C453.678 520.598 453.761 520.724 453.817 520.863C453.873 521.002 453.901 521.15 453.9 521.3C453.827 530.753 453.833 539.817 453.92 548.49C454 555.85 461.79 559.25 467.86 556.46C471.33 554.86 472.46 552.37 472.52 548.49C472.66 539.517 472.573 530.487 472.26 521.4C472.255 521.234 472.283 521.068 472.343 520.913C472.403 520.758 472.493 520.617 472.609 520.497C472.724 520.378 472.863 520.283 473.016 520.218C473.169 520.153 473.334 520.12 473.5 520.12H501.61C501.84 520.12 502.061 520.21 502.225 520.371C502.39 520.531 502.485 520.75 502.49 520.98C502.61 527.267 502.58 536.017 502.4 547.23C502.3 553.743 505.32 557.243 511.46 557.73C515.513 558.05 518.363 556.787 520.01 553.94C520.877 552.447 521.303 549.24 521.29 544.32C521.277 533.98 521.293 526.353 521.34 521.44C521.343 521.092 521.483 520.758 521.73 520.513C521.977 520.268 522.312 520.13 522.66 520.13H550.54C550.701 520.13 550.861 520.162 551.009 520.224C551.158 520.286 551.293 520.376 551.406 520.491C551.52 520.605 551.609 520.741 551.67 520.89C551.731 521.039 551.761 521.199 551.76 521.36C551.673 532.18 551.64 541.077 551.66 548.05C551.667 550.657 552.05 552.58 552.81 553.82C556.08 559.15 563.04 559.04 567.4 555.13C569.107 553.61 569.97 551.317 569.99 548.25C570.003 546.75 570.027 537.703 570.06 521.11C570.06 520.842 570.166 520.585 570.356 520.396C570.545 520.206 570.802 520.1 571.07 520.1C584.043 520.127 590.797 520.14 591.33 520.14C595.93 520.14 600.477 518.453 604.97 515.08C610.55 510.893 613.363 505.643 613.41 499.33C613.47 490.35 613.46 483.027 613.38 477.36C613.377 477.206 613.406 477.053 613.464 476.911C613.522 476.768 613.608 476.638 613.717 476.53C613.826 476.422 613.957 476.336 614.1 476.28C614.243 476.223 614.396 476.196 614.55 476.2C621.39 476.407 629.17 476.473 637.89 476.4C643.53 476.35 648.43 477.04 650.68 472.12C652.273 468.633 652.26 465.373 650.64 462.34C649.153 459.553 646.27 458.157 641.99 458.15C636.55 458.137 627.25 458.213 614.09 458.38C613.996 458.381 613.903 458.364 613.815 458.329C613.728 458.294 613.648 458.242 613.581 458.176C613.514 458.11 613.461 458.031 613.425 457.944C613.389 457.857 613.37 457.764 613.37 457.67V430.13C613.37 429.845 613.482 429.572 613.683 429.37C613.883 429.168 614.155 429.053 614.44 429.05C620.653 428.99 629.687 428.953 641.54 428.94C646 428.94 648.97 428.2 650.64 424.2C652.22 420.427 651.867 416.92 649.58 413.68C647.12 410.19 641.52 410.26 637.5 410.31C624.16 410.483 616.417 410.577 614.27 410.59C614.015 410.59 613.771 410.489 613.591 410.309C613.411 410.129 613.31 409.885 613.31 409.63V382.06C613.31 381.884 613.379 381.715 613.503 381.59C613.626 381.464 613.794 381.393 613.97 381.39C627.583 381.27 637.593 381.143 644 381.01C647.267 380.943 649.473 379.483 650.62 376.63C653.37 369.77 650.41 362.82 642.27 362.85C637.583 362.87 628.103 362.823 613.83 362.71C613.752 362.71 613.674 362.694 613.602 362.664C613.53 362.634 613.464 362.589 613.409 362.534C613.354 362.478 613.311 362.412 613.282 362.339C613.253 362.266 613.239 362.188 613.24 362.11C613.293 357.277 613.227 351.28 613.04 344.12C612.94 340.187 612.55 337.307 611.87 335.48C609.66 329.49 604.55 325.17 598.62 323.11C596.533 322.383 593.26 321.98 588.8 321.9C583.76 321.807 577.883 321.847 571.17 322.02C571.011 322.024 570.853 321.996 570.705 321.936C570.557 321.877 570.422 321.788 570.309 321.675C570.196 321.562 570.107 321.427 570.047 321.279C569.987 321.13 569.957 320.97 569.96 320.81C570.027 316.397 570.063 306.86 570.07 292.2C570.07 288.987 569.713 286.793 569 285.62C565.59 280.01 559.06 279.79 554.08 283.78C552.633 284.933 551.893 286.213 551.86 287.62C551.553 299.093 551.577 310.057 551.93 320.51C551.935 320.683 551.906 320.855 551.843 321.016C551.78 321.177 551.685 321.324 551.564 321.448C551.442 321.572 551.297 321.671 551.137 321.738C550.976 321.805 550.804 321.84 550.63 321.84H522.72C522.564 321.84 522.409 321.809 522.265 321.75C522.12 321.691 521.989 321.604 521.879 321.494C521.768 321.385 521.68 321.255 521.621 321.112C521.561 320.968 521.53 320.815 521.53 320.66C521.497 307.047 521.42 296.917 521.3 290.27C521.18 283.83 516.08 280.54 509.9 281.56C504.76 282.41 502.82 286.25 502.77 291.26C502.643 305.547 502.647 314.877 502.78 319.25C502.827 320.803 502.193 321.6 500.88 321.64C491.487 321.913 482.397 321.947 473.61 321.74C473.49 321.737 473.373 321.711 473.263 321.664C473.154 321.616 473.055 321.548 472.972 321.462C472.89 321.377 472.825 321.276 472.782 321.166C472.738 321.056 472.717 320.938 472.72 320.82C472.98 310.607 472.94 300.03 472.6 289.09C472.43 283.51 466.61 280.59 461.99 281.28C455.85 282.21 453.71 286.66 453.91 292.95C453.963 294.65 453.973 303.807 453.94 320.42C453.94 320.747 453.81 321.061 453.577 321.293C453.345 321.526 453.03 321.657 452.7 321.66C448.48 321.68 442.413 321.767 434.5 321.92C430.2 322.007 427.07 322.407 425.11 323.12C418.01 325.68 411.6 332.4 411.18 339.54C410.793 346.22 410.703 353.443 410.91 361.21C410.913 361.329 410.891 361.447 410.847 361.558C410.803 361.668 410.737 361.768 410.652 361.852C410.568 361.937 410.468 362.003 410.358 362.047C410.247 362.091 410.129 362.113 410.01 362.11C404.25 361.977 395.953 361.987 385.12 362.14C382.54 362.173 380.493 362.36 378.98 362.7C372.71 364.12 370.7 370.53 373.11 376.17C374.67 379.82 378.92 380.72 382.76 380.73C399.387 380.79 408.477 380.823 410.03 380.83C410.142 380.83 410.252 380.852 410.355 380.895C410.458 380.939 410.552 381.002 410.631 381.082C410.71 381.162 410.773 381.257 410.815 381.361C410.858 381.465 410.88 381.577 410.88 381.69V408.9C410.88 409.067 410.847 409.233 410.782 409.387C410.718 409.541 410.623 409.681 410.504 409.798C410.385 409.915 410.243 410.008 410.088 410.07C409.933 410.132 409.767 410.163 409.6 410.16C399.833 410.027 391.243 410.057 383.83 410.25C380.517 410.33 378.203 410.767 376.89 411.56C371.34 414.91 370.36 421.18 374.43 426.18C376.77 429.04 385.18 428.64 387.5 428.61C393.207 428.543 400.853 428.463 410.44 428.37C410.589 428.37 410.731 428.428 410.836 428.531C410.941 428.634 411 428.774 411 428.92V456.31C411 456.527 410.914 456.736 410.76 456.89C410.606 457.044 410.397 457.13 410.18 457.13C399.473 457.157 390.667 457.19 383.76 457.23C378.2 457.27 372.67 459.14 372.25 465.52C371.937 470.34 373.923 473.567 378.21 475.2C379.55 475.71 382.58 475.74 383.75 475.76C390.057 475.847 399.007 475.853 410.6 475.78Z" stroke="#FFD667" stroke-width="2"/>
<path d="M842.51 636.22C842.51 632.52 841.041 628.972 838.424 626.356C835.808 623.74 832.26 622.27 828.56 622.27C824.861 622.27 821.312 623.74 818.696 626.356C816.08 628.972 814.61 632.52 814.61 636.22C814.61 639.92 816.08 643.468 818.696 646.084C821.312 648.7 824.861 650.17 828.56 650.17C832.26 650.17 835.808 648.7 838.424 646.084C841.041 643.468 842.51 639.92 842.51 636.22Z" stroke="#FFDF72" stroke-width="2"/>
<path d="M834.29 790.38C834.29 785.832 832.483 781.469 829.267 778.253C826.051 775.037 821.689 773.23 817.14 773.23C812.592 773.23 808.23 775.037 805.013 778.253C801.797 781.469 799.99 785.832 799.99 790.38C799.99 794.928 801.797 799.291 805.013 802.507C808.23 805.723 812.592 807.53 817.14 807.53C821.689 807.53 826.051 805.723 829.267 802.507C832.483 799.291 834.29 794.928 834.29 790.38Z" stroke="#FFDF72" stroke-width="2"/>
<path d="M428.87 492.67C428.87 495.102 429.836 497.434 431.556 499.154C433.276 500.874 435.608 501.84 438.04 501.84H586.02C588.452 501.84 590.785 500.874 592.504 499.154C594.224 497.434 595.19 495.102 595.19 492.67V348.89C595.19 346.458 594.224 344.126 592.504 342.406C590.785 340.686 588.452 339.72 586.02 339.72H438.04C435.608 339.72 433.276 340.686 431.556 342.406C429.836 344.126 428.87 346.458 428.87 348.89V492.67Z" stroke="#FFD667" stroke-width="2"/>
<path d="M491.991 451.36C497.444 451.38 503.064 451.333 508.851 451.22C509.3 451.212 509.741 451.352 510.102 451.62C510.464 451.887 510.727 452.267 510.851 452.7C512.251 457.66 514.091 465.28 516.891 469.82C521.151 476.73 532.481 474.65 533.941 466.88C534.221 465.393 533.701 462.63 532.381 458.59C524.227 433.637 515.817 407.79 507.151 381.05C504.511 372.89 501.211 368.67 492.391 368.63C483.571 368.59 480.231 372.78 477.511 380.91C468.591 407.563 459.934 433.327 451.541 458.2C450.181 462.227 449.634 464.987 449.901 466.48C451.281 474.26 462.591 476.45 466.921 469.58C469.761 465.07 471.681 457.46 473.121 452.52C473.248 452.089 473.514 451.713 473.878 451.449C474.241 451.185 474.682 451.048 475.131 451.06C480.917 451.233 486.537 451.333 491.991 451.36Z" stroke="#FFD667" stroke-width="2"/>
<path d="M568.664 378.134C568.66 375.731 567.702 373.428 566 371.732C564.298 370.036 561.991 369.085 559.589 369.09L559.109 369.09C557.919 369.093 556.741 369.329 555.643 369.786C554.544 370.243 553.547 370.912 552.707 371.755C551.867 372.598 551.201 373.598 550.748 374.698C550.295 375.798 550.062 376.976 550.064 378.166L550.216 465.246C550.221 467.649 551.179 469.952 552.881 471.648C554.583 473.344 556.889 474.294 559.292 474.29L559.772 474.289C560.962 474.287 562.14 474.051 563.238 473.594C564.337 473.137 565.334 472.467 566.174 471.625C567.014 470.782 567.679 469.782 568.133 468.682C568.586 467.582 568.818 466.403 568.816 465.214L568.664 378.134Z" stroke="#FFD667" stroke-width="2"/>
<path d="M479.971 432.02C479.955 432.069 479.951 432.121 479.959 432.172C479.967 432.223 479.987 432.271 480.017 432.313C480.048 432.355 480.087 432.389 480.133 432.413C480.178 432.437 480.229 432.449 480.281 432.45L503.711 432.53C503.762 432.529 503.813 432.517 503.858 432.493C503.904 432.469 503.944 432.435 503.974 432.393C504.004 432.351 504.024 432.303 504.032 432.252C504.04 432.201 504.036 432.149 504.021 432.1L492.441 395.84C492.42 395.773 492.378 395.714 492.321 395.672C492.264 395.631 492.196 395.608 492.126 395.608C492.055 395.608 491.987 395.631 491.93 395.672C491.873 395.714 491.832 395.773 491.811 395.84L479.971 432.02Z" stroke="#FFD667" stroke-width="2"/>
<path d="M765.39 150.87H764.81C760.458 150.87 756.93 154.398 756.93 158.75V191.87C756.93 196.222 760.458 199.75 764.81 199.75H765.39C769.742 199.75 773.27 196.222 773.27 191.87V158.75C773.27 154.398 769.742 150.87 765.39 150.87Z" fill="#FFD34E"/>
<path d="M656.54 259.65L643.96 271.76C640.513 269.493 637.05 267.237 633.57 264.99C612.423 251.317 589.837 242.513 565.81 238.58C556.857 237.107 551.207 236.3 548.86 236.16C534.07 235.27 518.19 235.34 503.96 237.35C467.75 242.45 434 257.86 406.97 282.45C383.923 303.417 367.073 327.79 356.42 355.57C345.953 382.89 342.097 412.22 344.85 443.56C347.563 474.367 357.09 503.293 373.43 530.34C380.84 542.61 391.56 556.1 401.4 568.41C409.62 578.7 414.27 586.25 417.18 598.07C419.413 607.157 420.62 616.55 420.8 626.25C421.49 663.93 421.06 701.95 421.19 733.75C421.203 735.63 421.257 737.233 421.35 738.56C421.379 738.953 421.521 739.328 421.759 739.64C421.997 739.953 422.321 740.189 422.69 740.32L518.93 775.15C523.35 781.923 525.96 789.3 526.76 797.28C488.427 783.58 450.14 769.767 411.9 755.84C403.58 752.82 403.03 748.09 403.06 739.4C403.107 723.493 403.13 707.203 403.13 690.53C403.13 689.41 403.067 688.457 402.94 687.67C402.895 687.413 402.762 687.18 402.562 687.012C402.363 686.844 402.111 686.751 401.85 686.75C376.063 686.85 349.533 686.817 322.26 686.65C321.3 686.643 320.087 687.387 318.62 688.88C297.233 710.64 281.183 726.837 270.47 737.47C268.89 739.03 268.11 739.77 267.94 742.09C267.187 752.143 263.137 760.717 255.79 767.81C247.01 776.28 233.55 781.3 221.53 779.02C206.983 776.247 196.5 768.38 190.08 755.42C186.24 747.68 185.163 739.3 186.85 730.28C190 713.5 203.06 700.43 219.79 697.2C236.8 693.92 254.38 702.86 263.02 717.72C263.107 717.869 263.228 717.995 263.372 718.09C263.516 718.185 263.679 718.245 263.849 718.266C264.02 718.288 264.192 718.269 264.354 718.213C264.515 718.156 264.661 718.063 264.78 717.94C277.593 704.813 292.383 689.8 309.15 672.9C311.23 670.81 314.05 668.23 317.26 668.23C364.06 668.157 392.26 668.147 401.86 668.2C402.025 668.201 402.189 668.17 402.341 668.108C402.494 668.046 402.633 667.954 402.75 667.837C402.867 667.721 402.96 667.583 403.024 667.431C403.087 667.278 403.12 667.115 403.12 666.95C403.12 663.483 403.127 653.38 403.14 636.64C403.14 636.427 403.183 635.84 403.27 634.88C403.41 633.42 402.733 632.693 401.24 632.7C385.373 632.793 373.713 632.783 366.26 632.67C364.493 632.637 362.767 632.103 361.08 631.07C360.927 630.97 360.783 630.856 360.65 630.73C352.77 622.91 343.35 613.54 332.39 602.62C331.45 601.687 330.32 601.217 329 601.21C312.087 601.137 302.26 601.1 299.52 601.1C299.137 601.103 298.762 601.218 298.442 601.431C298.123 601.644 297.872 601.946 297.72 602.3C296.53 605.09 295.5 608.67 294.08 611.33C286.08 626.45 269.32 635.91 252.06 633.19C244.76 632.043 238.343 629.227 232.81 624.74C216.29 611.33 212.38 589.82 223.19 571.41C238.84 544.72 274.86 545.13 291.94 569.89C294.56 573.7 295.78 577.56 297.67 582.47C297.819 582.865 298.087 583.204 298.438 583.441C298.79 583.677 299.206 583.799 299.63 583.79C310.93 583.483 322.72 583.443 335 583.67C337.667 583.723 340.267 585.13 342.8 587.89C346.607 592.037 354.557 600.25 366.65 612.53C367.95 613.85 369.477 614.507 371.23 614.5C385.577 614.447 395.49 614.427 400.97 614.44C401.156 614.442 401.34 614.404 401.509 614.327C401.679 614.251 401.83 614.139 401.952 613.999C402.075 613.858 402.166 613.692 402.219 613.513C402.272 613.334 402.286 613.145 402.26 612.96C400.3 599.18 394.82 586.917 385.82 576.17C377.44 566.17 370.573 557.403 365.22 549.87C349.86 528.243 339.1 504.793 332.94 479.52C332.812 478.998 332.512 478.534 332.088 478.202C331.664 477.87 331.14 477.69 330.6 477.69H283.89C283.486 477.69 283.094 477.823 282.774 478.069C282.453 478.315 282.224 478.66 282.12 479.05C278.66 491.977 270.757 501.267 258.41 506.92C255.17 508.407 251.953 509.34 248.76 509.72C243.6 510.34 236.34 510.25 230.98 508.53C213.92 503.07 201.74 487.86 202.08 469.6C202.173 464.867 202.463 461.573 202.95 459.72C207.35 442.88 220.01 431.12 237 428.6C257.11 425.62 275.75 439.11 281.92 458.12C282.019 458.425 282.211 458.691 282.468 458.879C282.724 459.068 283.033 459.17 283.35 459.17H327.3C327.464 459.171 327.627 459.137 327.777 459.071C327.928 459.005 328.063 458.909 328.175 458.788C328.287 458.666 328.372 458.523 328.427 458.367C328.481 458.211 328.502 458.045 328.49 457.88C328 451.21 326.53 444.08 326.37 437.06C326.077 424.347 326.21 413.71 326.77 405.15C327.08 400.35 328.29 394.66 328.58 389.44C328.611 388.843 328.52 388.246 328.312 387.686C328.104 387.125 327.783 386.613 327.37 386.18C313.383 371.64 298.7 356.64 283.32 341.18C282.307 340.16 281.283 339.653 280.25 339.66C266.157 339.727 251.263 339.757 235.57 339.75C235.217 339.75 234.875 339.868 234.599 340.086C234.323 340.304 234.129 340.608 234.05 340.95C229.49 360.06 212.67 374.08 192.55 373.12C176.63 372.35 162.37 363 156.17 348.24C148.77 330.6 154.15 310.12 169.54 298.92C183.09 289.07 200.22 288.36 214.87 296.91C224.27 302.4 230.53 310.97 233.97 321.21C234.062 321.489 234.242 321.732 234.482 321.904C234.722 322.076 235.012 322.169 235.31 322.17C254.263 322.07 269.573 322.053 281.24 322.12C285.233 322.14 287.237 322.15 287.25 322.15C288.743 322.063 290.473 323.03 292.44 325.05C310.113 343.15 323.43 356.743 332.39 365.83C332.513 365.955 332.667 366.047 332.837 366.095C333.006 366.144 333.185 366.147 333.356 366.106C333.527 366.065 333.685 365.98 333.813 365.86C333.942 365.739 334.037 365.588 334.09 365.42C346.423 325.62 368.1 292.37 399.12 265.67C399.267 265.543 399.386 265.387 399.471 265.213C399.555 265.038 399.602 264.848 399.61 264.654C399.618 264.461 399.585 264.268 399.514 264.089C399.444 263.909 399.337 263.746 399.2 263.61L371.81 236.21C371.124 235.531 370.197 235.15 369.23 235.15H334.34C333.982 235.15 333.635 235.264 333.347 235.474C333.059 235.684 332.846 235.981 332.74 236.32C331.653 239.847 330.993 241.907 330.76 242.5C323.79 260.23 306.64 271.21 287.64 268.85C270.52 266.72 257.65 254.56 252.96 237.8C251.993 234.347 251.67 229.967 251.99 224.66C252.88 209.82 261.96 196.76 275.01 190.52C288.057 184.28 300.693 184.733 312.92 191.88C322.793 197.653 329.21 206.12 332.17 217.28C332.239 217.546 332.395 217.782 332.614 217.951C332.833 218.119 333.103 218.21 333.38 218.21C351.987 218.143 366.6 218.15 377.22 218.23C378.493 218.237 379.94 219.063 381.56 220.71C390.867 230.163 401.307 240.82 412.88 252.68C413.224 253.033 413.681 253.252 414.17 253.3C414.659 253.347 415.148 253.22 415.55 252.94C443.617 233.667 474.95 222.467 509.55 219.34C522.683 218.153 533.587 217.89 542.26 218.55C553.78 219.423 564.583 220.857 574.67 222.85C603.47 228.54 632.92 241.68 656.54 259.65ZM315 227.86C315 221.94 312.648 216.263 308.463 212.077C304.277 207.892 298.6 205.54 292.68 205.54C286.76 205.54 281.083 207.892 276.897 212.077C272.712 216.263 270.36 221.94 270.36 227.86C270.36 233.78 272.712 239.457 276.897 243.643C281.083 247.828 286.76 250.18 292.68 250.18C298.6 250.18 304.277 247.828 308.463 243.643C312.648 239.457 315 233.78 315 227.86ZM216.68 331.85C216.68 325.851 214.297 320.097 210.055 315.855C205.813 311.613 200.059 309.23 194.06 309.23C188.061 309.23 182.307 311.613 178.065 315.855C173.823 320.097 171.44 325.851 171.44 331.85C171.44 337.849 173.823 343.603 178.065 347.845C182.307 352.087 188.061 354.47 194.06 354.47C200.059 354.47 205.813 352.087 210.055 347.845C214.297 343.603 216.68 337.849 216.68 331.85ZM265.12 469.71C265.12 463.766 262.759 458.066 258.556 453.864C254.354 449.661 248.653 447.3 242.71 447.3C236.766 447.3 231.066 449.661 226.864 453.864C222.661 458.066 220.3 463.766 220.3 469.71C220.3 475.654 222.661 481.354 226.864 485.556C231.066 489.759 236.766 492.12 242.71 492.12C248.653 492.12 254.354 489.759 258.556 485.556C262.759 481.354 265.12 475.654 265.12 469.71ZM280.88 592.41C280.88 586.421 278.501 580.678 274.266 576.444C270.032 572.209 264.289 569.83 258.3 569.83C252.311 569.83 246.568 572.209 242.333 576.444C238.099 580.678 235.72 586.421 235.72 592.41C235.72 595.375 236.304 598.311 237.439 601.051C238.574 603.79 240.237 606.28 242.333 608.376C244.43 610.473 246.919 612.136 249.659 613.271C252.398 614.406 255.335 614.99 258.3 614.99C261.265 614.99 264.201 614.406 266.941 613.271C269.68 612.136 272.17 610.473 274.266 608.376C276.363 606.28 278.026 603.79 279.161 601.051C280.296 598.311 280.88 595.375 280.88 592.41ZM228.119 714.899C225.114 714.815 222.122 715.333 219.314 716.424C216.505 717.514 213.935 719.156 211.75 721.254C209.565 723.353 207.808 725.868 206.579 728.656C205.35 731.443 204.674 734.449 204.589 737.501C204.417 743.665 206.662 749.643 210.832 754.122C215.001 758.6 220.752 761.211 226.821 761.381C229.826 761.465 232.818 760.947 235.626 759.856C238.435 758.766 241.005 757.125 243.19 755.026C245.375 752.927 247.132 750.412 248.361 747.624C249.59 744.837 250.266 741.831 250.351 738.779C250.523 732.615 248.278 726.637 244.108 722.158C239.939 717.68 234.188 715.069 228.119 714.899Z" fill="#FFC237"/>
<path d="M680.385 188.608L680.059 188.932C676.932 192.038 676.914 197.09 680.019 200.218L700.848 221.193C703.954 224.32 709.007 224.337 712.134 221.232L712.46 220.908C715.587 217.802 715.605 212.75 712.5 209.622L691.671 188.648C688.565 185.52 683.513 185.503 680.385 188.608Z" fill="#FFD34E"/>
<path d="M852.034 188.913L851.536 188.42C848.518 185.433 843.649 185.458 840.661 188.477L819.489 209.872C816.502 212.891 816.527 217.76 819.546 220.747L820.044 221.24C823.062 224.227 827.931 224.202 830.919 221.183L852.091 199.788C855.078 196.769 855.053 191.9 852.034 188.913Z" fill="#FFD34E"/>
<path d="M292.68 250.18C305.007 250.18 315 240.187 315 227.86C315 215.533 305.007 205.54 292.68 205.54C280.353 205.54 270.36 215.533 270.36 227.86C270.36 240.187 280.353 250.18 292.68 250.18Z" fill="#FFEA96"/>
<path d="M810.636 241.744C814.619 247.539 817.419 254.065 818.875 260.948C820.33 267.831 820.414 274.936 819.121 281.859C817.828 288.781 815.184 295.385 811.339 301.293C807.494 307.201 802.523 312.298 796.712 316.292C790.9 320.286 784.36 323.1 777.467 324.572C770.573 326.045 763.46 326.147 756.534 324.873C749.608 323.6 743.005 320.975 737.101 317.149C731.197 313.324 726.108 308.371 722.125 302.576C718.142 296.78 715.342 290.255 713.886 283.372C712.431 276.489 712.347 269.384 713.64 262.461C714.933 255.539 717.577 248.935 721.422 243.027C725.267 237.119 730.238 232.022 736.049 228.028C741.861 224.034 748.401 221.22 755.294 219.748C762.188 218.275 769.301 218.173 776.227 219.447C783.153 220.72 789.756 223.345 795.66 227.171C801.564 230.996 806.653 235.948 810.636 241.744ZM792.647 248.691C789.536 245.26 785.776 242.478 781.583 240.504C777.389 238.53 772.844 237.402 768.207 237.186C763.57 236.97 758.931 237.669 754.556 239.243C750.181 240.818 746.156 243.236 742.709 246.362C739.262 249.487 736.462 253.258 734.468 257.458C732.474 261.659 731.326 266.207 731.089 270.843C730.851 275.479 731.53 280.113 733.085 284.479C734.641 288.845 737.043 292.858 740.154 296.289C743.265 299.72 747.025 302.502 751.218 304.476C755.412 306.45 759.957 307.578 764.594 307.794C769.231 308.01 773.87 307.311 778.245 305.737C782.62 304.162 786.645 301.744 790.092 298.618C793.539 295.493 796.339 291.722 798.333 287.522C800.327 283.321 801.475 278.773 801.712 274.137C801.95 269.501 801.271 264.867 799.716 260.501C798.16 256.135 795.758 252.122 792.647 248.691Z" fill="#FFD34E"/>
<path d="M643.96 271.76C655.054 280.433 664.15 288.677 671.25 296.49C690.944 318.177 704.967 343.987 713.32 373.92C717 387.11 718.42 401.97 718.83 415.13C719.117 424.63 719.55 430.74 720.13 433.46C721.444 439.667 723.434 445.42 726.1 450.72C746.174 490.66 758.57 515.447 763.29 525.08C765.05 528.68 766.83 534.09 766.18 538.56C766.135 538.899 765.989 539.219 765.76 539.48C764.12 541.38 760.34 542.57 758.5 542.58C748.74 542.653 739.5 542.76 730.78 542.9C723.687 543.013 719.97 546.46 719.63 553.24C718.78 570.19 719 590.84 719.01 626.99C719.02 640.66 712.35 654.09 699.38 658.88C693.9 660.907 688.107 661.94 682 661.98C669.407 662.067 643.907 662.097 605.5 662.07C596.66 662.063 588.82 661.49 581.98 660.35C578.527 659.777 575.43 659.03 572.69 658.11C565.85 655.8 563.04 654.48 556.69 651.1C553 649.14 549.24 648.49 545.93 650.83C541.09 654.25 540.86 659.53 544.22 664.22C545 665.307 546.68 666.493 549.26 667.78C558.12 672.213 566.804 675.333 575.31 677.14C583.737 678.927 591.764 679.967 599.39 680.26C599.584 680.268 599.767 680.35 599.901 680.49C600.036 680.63 600.111 680.816 600.11 681.01V803.26C600.111 803.377 600.084 803.491 600.03 803.595C599.977 803.698 599.899 803.787 599.804 803.854C599.708 803.921 599.598 803.964 599.483 803.979C599.367 803.994 599.25 803.98 599.14 803.94L518.93 775.15L422.69 740.32C422.321 740.189 421.998 739.953 421.76 739.64C421.522 739.328 421.38 738.953 421.35 738.56C421.257 737.233 421.204 735.63 421.19 733.75C421.06 701.95 421.49 663.93 420.8 626.25C420.62 616.55 419.414 607.157 417.18 598.07C414.27 586.25 409.62 578.7 401.4 568.41C391.56 556.1 380.84 542.61 373.43 530.34C357.09 503.293 347.564 474.367 344.85 443.56C342.097 412.22 345.954 382.89 356.42 355.57C367.074 327.79 383.924 303.417 406.97 282.45C434 257.86 467.75 242.45 503.96 237.35C518.19 235.34 534.07 235.27 548.86 236.16C551.207 236.3 556.857 237.107 565.81 238.58C589.837 242.513 612.424 251.317 633.57 264.99C637.05 267.237 640.514 269.493 643.96 271.76ZM410.6 475.78C410.656 475.78 410.712 475.791 410.763 475.813C410.815 475.835 410.862 475.866 410.901 475.907C410.94 475.947 410.971 475.994 410.991 476.046C411.012 476.098 411.022 476.154 411.02 476.21C410.9 483.837 410.917 491.427 411.07 498.98C411.33 511.61 422.54 520.07 434.5 520.06C440.107 520.053 446.197 520.083 452.77 520.15C452.92 520.151 453.068 520.182 453.206 520.241C453.344 520.299 453.469 520.384 453.574 520.491C453.678 520.598 453.761 520.724 453.817 520.863C453.874 521.002 453.902 521.15 453.9 521.3C453.827 530.753 453.834 539.817 453.92 548.49C454 555.85 461.79 559.25 467.86 556.46C471.33 554.86 472.46 552.37 472.52 548.49C472.66 539.517 472.574 530.487 472.26 521.4C472.255 521.234 472.283 521.068 472.343 520.913C472.403 520.758 472.493 520.617 472.609 520.497C472.725 520.378 472.863 520.283 473.016 520.218C473.17 520.153 473.334 520.12 473.5 520.12H501.61C501.84 520.12 502.061 520.21 502.226 520.371C502.39 520.531 502.485 520.75 502.49 520.98C502.61 527.267 502.58 536.017 502.4 547.23C502.3 553.743 505.32 557.243 511.46 557.73C515.514 558.05 518.364 556.787 520.01 553.94C520.877 552.447 521.304 549.24 521.29 544.32C521.277 533.98 521.294 526.353 521.34 521.44C521.343 521.092 521.483 520.758 521.731 520.513C521.978 520.268 522.312 520.13 522.66 520.13H550.54C550.701 520.13 550.861 520.162 551.01 520.224C551.158 520.286 551.293 520.377 551.407 520.491C551.52 520.605 551.61 520.741 551.67 520.89C551.731 521.039 551.762 521.199 551.76 521.36C551.674 532.18 551.64 541.077 551.66 548.05C551.667 550.657 552.05 552.58 552.81 553.82C556.08 559.15 563.04 559.04 567.4 555.13C569.107 553.61 569.97 551.317 569.99 548.25C570.004 546.75 570.027 537.703 570.06 521.11C570.06 520.842 570.167 520.585 570.356 520.396C570.546 520.206 570.803 520.1 571.07 520.1C584.044 520.127 590.797 520.14 591.33 520.14C595.93 520.14 600.477 518.453 604.97 515.08C610.55 510.893 613.364 505.643 613.41 499.33C613.47 490.35 613.46 483.027 613.38 477.36C613.378 477.206 613.406 477.053 613.464 476.911C613.522 476.768 613.608 476.638 613.718 476.53C613.827 476.422 613.957 476.337 614.1 476.28C614.243 476.223 614.396 476.196 614.55 476.2C621.39 476.407 629.17 476.473 637.89 476.4C643.53 476.35 648.43 477.04 650.68 472.12C652.274 468.633 652.26 465.373 650.64 462.34C649.154 459.553 646.27 458.157 641.99 458.15C636.55 458.137 627.25 458.213 614.09 458.38C613.996 458.381 613.903 458.364 613.816 458.329C613.728 458.294 613.649 458.242 613.582 458.176C613.515 458.11 613.462 458.031 613.425 457.944C613.389 457.857 613.37 457.764 613.37 457.67V430.13C613.37 429.845 613.483 429.572 613.683 429.37C613.884 429.168 614.156 429.053 614.44 429.05C620.654 428.99 629.687 428.953 641.54 428.94C646 428.94 648.97 428.2 650.64 424.2C652.22 420.427 651.867 416.92 649.58 413.68C647.12 410.19 641.52 410.26 637.5 410.31C624.16 410.483 616.417 410.577 614.27 410.59C614.016 410.59 613.772 410.489 613.592 410.309C613.412 410.129 613.31 409.885 613.31 409.63V382.06C613.31 381.884 613.38 381.715 613.503 381.59C613.627 381.464 613.794 381.393 613.97 381.39C627.584 381.27 637.594 381.143 644 381.01C647.267 380.943 649.474 379.483 650.62 376.63C653.37 369.77 650.41 362.82 642.27 362.85C637.584 362.87 628.104 362.823 613.83 362.71C613.752 362.71 613.674 362.694 613.602 362.664C613.53 362.634 613.465 362.59 613.41 362.534C613.355 362.478 613.311 362.412 613.282 362.339C613.253 362.266 613.239 362.188 613.24 362.11C613.294 357.277 613.227 351.28 613.04 344.12C612.94 340.187 612.55 337.307 611.87 335.48C609.66 329.49 604.55 325.17 598.62 323.11C596.534 322.383 593.26 321.98 588.8 321.9C583.76 321.807 577.884 321.847 571.17 322.02C571.011 322.024 570.853 321.996 570.705 321.936C570.557 321.877 570.422 321.788 570.309 321.675C570.196 321.562 570.107 321.427 570.047 321.279C569.987 321.13 569.958 320.971 569.96 320.81C570.027 316.397 570.064 306.86 570.07 292.2C570.07 288.987 569.714 286.793 569 285.62C565.59 280.01 559.06 279.79 554.08 283.78C552.634 284.933 551.894 286.213 551.86 287.62C551.554 299.093 551.577 310.057 551.93 320.51C551.936 320.683 551.906 320.855 551.843 321.016C551.78 321.177 551.685 321.324 551.564 321.448C551.443 321.572 551.298 321.671 551.137 321.738C550.977 321.805 550.805 321.84 550.63 321.84H522.72C522.564 321.84 522.409 321.81 522.265 321.75C522.121 321.691 521.989 321.604 521.879 321.494C521.768 321.385 521.681 321.255 521.621 321.112C521.561 320.968 521.53 320.815 521.53 320.66C521.497 307.047 521.42 296.917 521.3 290.27C521.18 283.83 516.08 280.54 509.9 281.56C504.76 282.41 502.82 286.25 502.77 291.26C502.644 305.547 502.647 314.877 502.78 319.25C502.827 320.803 502.194 321.6 500.88 321.64C491.487 321.913 482.397 321.947 473.61 321.74C473.491 321.737 473.373 321.711 473.264 321.664C473.154 321.616 473.055 321.548 472.973 321.462C472.89 321.377 472.825 321.276 472.782 321.166C472.739 321.056 472.718 320.938 472.72 320.82C472.98 310.607 472.94 300.03 472.6 289.09C472.43 283.51 466.61 280.59 461.99 281.28C455.85 282.21 453.71 286.66 453.91 292.95C453.964 294.65 453.974 303.807 453.94 320.42C453.94 320.747 453.81 321.061 453.578 321.293C453.346 321.526 453.03 321.657 452.7 321.66C448.48 321.68 442.414 321.767 434.5 321.92C430.2 322.007 427.07 322.407 425.11 323.12C418.01 325.68 411.6 332.4 411.18 339.54C410.794 346.22 410.704 353.443 410.91 361.21C410.913 361.329 410.892 361.447 410.847 361.558C410.803 361.668 410.737 361.768 410.653 361.852C410.569 361.937 410.468 362.003 410.358 362.047C410.248 362.091 410.129 362.113 410.01 362.11C404.25 361.977 395.954 361.987 385.12 362.14C382.54 362.173 380.494 362.36 378.98 362.7C372.71 364.12 370.7 370.53 373.11 376.17C374.67 379.82 378.92 380.72 382.76 380.73C399.387 380.79 408.477 380.823 410.03 380.83C410.142 380.83 410.253 380.852 410.356 380.895C410.459 380.939 410.552 381.002 410.631 381.082C410.71 381.162 410.773 381.257 410.816 381.361C410.858 381.465 410.88 381.577 410.88 381.69V408.9C410.88 409.067 410.847 409.233 410.783 409.387C410.718 409.541 410.623 409.681 410.504 409.798C410.385 409.915 410.244 410.008 410.089 410.07C409.934 410.132 409.768 410.163 409.6 410.16C399.834 410.027 391.244 410.057 383.83 410.25C380.517 410.33 378.204 410.767 376.89 411.56C371.34 414.91 370.36 421.18 374.43 426.18C376.77 429.04 385.18 428.64 387.5 428.61C393.207 428.543 400.854 428.463 410.44 428.37C410.589 428.37 410.731 428.428 410.836 428.531C410.941 428.634 411 428.774 411 428.92V456.31C411 456.527 410.914 456.736 410.76 456.89C410.606 457.044 410.398 457.13 410.18 457.13C399.474 457.157 390.667 457.19 383.76 457.23C378.2 457.27 372.67 459.14 372.25 465.52C371.937 470.34 373.924 473.567 378.21 475.2C379.55 475.71 382.58 475.74 383.75 475.76C390.057 475.847 399.007 475.853 410.6 475.78Z" fill="#FFEA96"/>
<path d="M790.092 298.618C804.587 285.474 805.731 263.121 792.647 248.691C779.562 234.261 757.204 233.218 742.709 246.362C728.213 259.506 727.069 281.859 740.153 296.289C753.238 310.719 775.596 311.762 790.092 298.618Z" fill="#FFEA96"/>
<path d="M656.54 259.65C678.293 276.143 696.103 296.183 709.97 319.77C723.66 343.05 733.15 370.16 735.5 397.17C736.14 404.56 736.85 408.18 737.02 414.95C737.22 422.943 737.516 428.183 737.91 430.67C738.63 435.29 740.586 440.743 743.78 447.03C760.106 479.203 772.363 503.44 780.55 519.74C783.096 524.807 784.22 530.5 783.92 536.82C783.673 542.073 782.073 546.553 779.12 550.26C774.07 556.6 767.42 559.73 759.25 559.9C757.696 559.927 750.756 559.89 738.43 559.79C738.094 559.787 737.77 559.917 737.529 560.151C737.287 560.385 737.148 560.704 737.14 561.04C737.073 563.753 736.95 585.073 736.77 625C736.763 626.187 736.533 628.85 736.08 632.99C734.313 649.31 726.78 661.883 713.48 670.71C702.65 677.9 689.97 679.76 677 679.79C660.486 679.837 641.47 679.827 619.95 679.76C619.757 679.76 619.565 679.798 619.387 679.871C619.209 679.945 619.047 680.052 618.91 680.188C618.774 680.323 618.665 680.484 618.592 680.661C618.518 680.838 618.48 681.028 618.48 681.22V716.13C618.48 716.294 618.512 716.457 618.576 716.608C618.64 716.759 618.733 716.896 618.851 717.011C618.968 717.125 619.107 717.215 619.26 717.275C619.412 717.335 619.576 717.364 619.74 717.36C623.793 717.267 627.97 717.223 632.27 717.23C659.31 717.297 693.966 717.377 736.24 717.47C737.226 717.477 738.253 716.927 739.32 715.82C758.92 695.64 779.233 674.913 800.26 653.64C800.578 653.321 800.786 652.907 800.853 652.461C800.92 652.015 800.841 651.559 800.63 651.16C793.98 638.53 795.83 622.73 806.8 612.78C811.906 608.147 817.473 605.363 823.5 604.43C839.44 601.96 852.86 610.77 858.48 625.82C859.76 629.26 859.95 633.33 859.83 637.1C859.536 646.32 856.1 653.887 849.52 659.8C842.693 665.933 834.446 668.593 824.78 667.78C821.03 667.46 818.52 666.15 815.14 664.95C814.896 664.865 814.635 664.845 814.382 664.892C814.129 664.94 813.894 665.053 813.7 665.22C812.166 666.507 810.323 668.24 808.17 670.42C787.536 691.3 767.063 712.16 746.75 733C744.67 735.15 741.86 735.05 737.9 735.06C717.9 735.093 703.86 735.06 695.78 734.96C695.126 734.953 694.756 734.963 694.67 734.99C694.308 735.104 693.992 735.329 693.764 735.632C693.536 735.935 693.409 736.301 693.4 736.68C693.326 740.64 693.34 747.873 693.44 758.38C693.453 759.427 694.29 760.82 695.95 762.56C697.816 764.513 704.05 770.853 714.65 781.58C715.014 781.948 715.449 782.239 715.927 782.438C716.406 782.637 716.92 782.74 717.44 782.74H781.38C781.871 782.74 782.349 782.579 782.741 782.281C783.132 781.983 783.417 781.565 783.55 781.09C788.68 762.34 807.96 750.75 826.57 755.96C839.07 759.46 849.95 770.63 851.61 783.84C852.49 790.8 852.25 797.91 849.25 804.8C845.45 813.54 839.196 819.753 830.49 823.44C824.15 826.13 818.53 826.09 812.34 825.82C805.04 825.5 798.14 821.17 792.62 815.91C788.166 811.67 785.223 806.733 783.79 801.1C783.701 800.754 783.499 800.447 783.217 800.228C782.934 800.009 782.587 799.89 782.23 799.89C753.136 799.91 729.313 799.903 710.76 799.87C709.346 799.863 708.056 799.277 706.89 798.11C689.316 780.503 679.89 771.01 678.61 769.63C676.37 767.203 675.26 764.193 675.28 760.6C675.333 751.807 675.326 743.763 675.26 736.47C675.254 736.061 675.088 735.67 674.798 735.383C674.508 735.097 674.116 734.937 673.71 734.94C655.996 735.06 638.35 735.037 620.77 734.87C619.23 734.857 618.46 735.653 618.46 737.26C618.466 773.993 618.406 799.823 618.28 814.75C618.23 820.57 615.25 824.85 609.61 825.87C608.076 826.143 605.223 825.527 601.05 824.02C576.283 815.093 551.52 806.18 526.76 797.28C525.96 789.3 523.35 781.923 518.93 775.15L599.14 803.94C599.249 803.981 599.366 803.994 599.482 803.979C599.597 803.964 599.708 803.921 599.803 803.854C599.898 803.787 599.976 803.698 600.03 803.595C600.083 803.491 600.11 803.377 600.11 803.26V681.01C600.11 680.816 600.035 680.63 599.901 680.49C599.767 680.35 599.583 680.268 599.39 680.26C591.763 679.967 583.736 678.927 575.31 677.14C566.803 675.333 558.12 672.213 549.26 667.78C546.68 666.493 545 665.307 544.22 664.22C540.86 659.53 541.09 654.25 545.93 650.83C549.24 648.49 553 649.14 556.69 651.1C563.04 654.48 565.85 655.8 572.69 658.11C575.43 659.03 578.526 659.777 581.98 660.35C588.82 661.49 596.66 662.063 605.5 662.07C643.906 662.097 669.406 662.067 682 661.98C688.106 661.94 693.9 660.907 699.38 658.88C712.35 654.09 719.02 640.66 719.01 626.99C719 590.84 718.78 570.19 719.63 553.24C719.97 546.46 723.686 543.013 730.78 542.9C739.5 542.76 748.74 542.653 758.5 542.58C760.34 542.57 764.12 541.38 765.76 539.48C765.988 539.219 766.134 538.899 766.18 538.56C766.83 534.09 765.05 528.68 763.29 525.08C758.57 515.447 746.173 490.66 726.1 450.72C723.433 445.42 721.443 439.667 720.13 433.46C719.55 430.74 719.116 424.63 718.83 415.13C718.42 401.97 717 387.11 713.32 373.92C704.966 343.987 690.943 318.177 671.25 296.49C664.15 288.677 655.053 280.433 643.96 271.76L656.54 259.65ZM842.51 636.22C842.51 632.52 841.04 628.972 838.424 626.356C835.808 623.74 832.259 622.27 828.56 622.27C824.86 622.27 821.312 623.74 818.696 626.356C816.079 628.972 814.61 632.52 814.61 636.22C814.61 639.92 816.079 643.468 818.696 646.084C821.312 648.7 824.86 650.17 828.56 650.17C832.259 650.17 835.808 648.7 838.424 646.084C841.04 643.468 842.51 639.92 842.51 636.22ZM834.29 790.38C834.29 785.832 832.483 781.469 829.267 778.253C826.05 775.037 821.688 773.23 817.14 773.23C812.591 773.23 808.229 775.037 805.013 778.253C801.797 781.469 799.99 785.832 799.99 790.38C799.99 794.928 801.797 799.291 805.013 802.507C808.229 805.723 812.591 807.53 817.14 807.53C821.688 807.53 826.05 805.723 829.267 802.507C832.483 799.291 834.29 794.928 834.29 790.38Z" fill="#FFD34E"/>
<path d="M410.6 475.78C399.007 475.853 390.057 475.847 383.75 475.76C382.58 475.74 379.55 475.71 378.21 475.2C373.923 473.567 371.937 470.34 372.25 465.52C372.67 459.14 378.2 457.27 383.76 457.23C390.667 457.19 399.473 457.157 410.18 457.13C410.397 457.13 410.606 457.044 410.76 456.89C410.914 456.736 411 456.527 411 456.31V428.92C411 428.774 410.941 428.634 410.836 428.531C410.731 428.428 410.589 428.37 410.44 428.37C400.853 428.463 393.207 428.543 387.5 428.61C385.18 428.64 376.77 429.04 374.43 426.18C370.36 421.18 371.34 414.91 376.89 411.56C378.203 410.767 380.517 410.33 383.83 410.25C391.243 410.057 399.833 410.027 409.6 410.16C409.767 410.163 409.933 410.132 410.088 410.07C410.243 410.008 410.385 409.915 410.504 409.798C410.623 409.681 410.718 409.541 410.782 409.387C410.847 409.233 410.88 409.067 410.88 408.9V381.69C410.88 381.577 410.858 381.465 410.815 381.361C410.773 381.257 410.71 381.162 410.631 381.082C410.552 381.002 410.458 380.939 410.355 380.895C410.252 380.852 410.142 380.83 410.03 380.83C408.477 380.823 399.387 380.79 382.76 380.73C378.92 380.72 374.67 379.82 373.11 376.17C370.7 370.53 372.71 364.12 378.98 362.7C380.493 362.36 382.54 362.173 385.12 362.14C395.953 361.987 404.25 361.977 410.01 362.11C410.129 362.113 410.247 362.091 410.358 362.047C410.468 362.003 410.568 361.937 410.652 361.852C410.737 361.768 410.803 361.668 410.847 361.558C410.891 361.447 410.913 361.329 410.91 361.21C410.703 353.443 410.793 346.22 411.18 339.54C411.6 332.4 418.01 325.68 425.11 323.12C427.07 322.407 430.2 322.007 434.5 321.92C442.413 321.767 448.48 321.68 452.7 321.66C453.03 321.657 453.345 321.526 453.577 321.293C453.81 321.061 453.94 320.747 453.94 320.42C453.973 303.807 453.963 294.65 453.91 292.95C453.71 286.66 455.85 282.21 461.99 281.28C466.61 280.59 472.43 283.51 472.6 289.09C472.94 300.03 472.98 310.607 472.72 320.82C472.717 320.938 472.738 321.056 472.782 321.166C472.825 321.276 472.89 321.377 472.972 321.462C473.055 321.548 473.154 321.616 473.263 321.664C473.373 321.711 473.49 321.737 473.61 321.74C482.397 321.947 491.487 321.913 500.88 321.64C502.193 321.6 502.827 320.803 502.78 319.25C502.647 314.877 502.643 305.547 502.77 291.26C502.82 286.25 504.76 282.41 509.9 281.56C516.08 280.54 521.18 283.83 521.3 290.27C521.42 296.917 521.497 307.047 521.53 320.66C521.53 320.815 521.561 320.968 521.621 321.112C521.68 321.255 521.768 321.385 521.879 321.494C521.989 321.604 522.12 321.691 522.265 321.75C522.409 321.809 522.564 321.84 522.72 321.84H550.63C550.804 321.84 550.977 321.805 551.137 321.738C551.297 321.671 551.442 321.572 551.564 321.448C551.685 321.324 551.78 321.177 551.843 321.016C551.906 320.855 551.935 320.683 551.93 320.51C551.577 310.057 551.553 299.093 551.86 287.62C551.893 286.213 552.633 284.933 554.08 283.78C559.06 279.79 565.59 280.01 569 285.62C569.713 286.793 570.07 288.987 570.07 292.2C570.063 306.86 570.027 316.397 569.96 320.81C569.957 320.97 569.987 321.13 570.047 321.279C570.107 321.427 570.196 321.562 570.309 321.675C570.422 321.788 570.557 321.877 570.705 321.936C570.853 321.996 571.011 322.024 571.17 322.02C577.883 321.847 583.76 321.807 588.8 321.9C593.26 321.98 596.533 322.383 598.62 323.11C604.55 325.17 609.66 329.49 611.87 335.48C612.55 337.307 612.94 340.187 613.04 344.12C613.227 351.28 613.293 357.277 613.24 362.11C613.239 362.188 613.253 362.266 613.282 362.339C613.311 362.412 613.354 362.478 613.409 362.534C613.464 362.589 613.53 362.634 613.602 362.664C613.674 362.694 613.752 362.71 613.83 362.71C628.103 362.823 637.583 362.87 642.27 362.85C650.41 362.82 653.37 369.77 650.62 376.63C649.473 379.483 647.267 380.943 644 381.01C637.593 381.143 627.583 381.27 613.97 381.39C613.794 381.393 613.626 381.464 613.503 381.59C613.379 381.715 613.31 381.884 613.31 382.06V409.63C613.31 409.885 613.411 410.129 613.591 410.309C613.771 410.489 614.015 410.59 614.27 410.59C616.417 410.577 624.16 410.483 637.5 410.31C641.52 410.26 647.12 410.19 649.58 413.68C651.867 416.92 652.22 420.427 650.64 424.2C648.97 428.2 646 428.94 641.54 428.94C629.687 428.953 620.653 428.99 614.44 429.05C614.155 429.053 613.883 429.168 613.683 429.37C613.482 429.572 613.37 429.845 613.37 430.13V457.67C613.37 457.764 613.389 457.857 613.425 457.944C613.461 458.031 613.514 458.11 613.581 458.176C613.648 458.242 613.728 458.294 613.815 458.329C613.903 458.364 613.996 458.381 614.09 458.38C627.25 458.213 636.55 458.137 641.99 458.15C646.27 458.157 649.153 459.553 650.64 462.34C652.26 465.373 652.273 468.633 650.68 472.12C648.43 477.04 643.53 476.35 637.89 476.4C629.17 476.473 621.39 476.407 614.55 476.2C614.396 476.196 614.243 476.223 614.1 476.28C613.957 476.336 613.826 476.422 613.717 476.53C613.608 476.638 613.522 476.768 613.464 476.911C613.406 477.053 613.377 477.206 613.38 477.36C613.46 483.027 613.47 490.35 613.41 499.33C613.363 505.643 610.55 510.893 604.97 515.08C600.477 518.453 595.93 520.14 591.33 520.14C590.797 520.14 584.043 520.127 571.07 520.1C570.802 520.1 570.545 520.206 570.356 520.396C570.166 520.585 570.06 520.842 570.06 521.11C570.027 537.703 570.003 546.75 569.99 548.25C569.97 551.317 569.107 553.61 567.4 555.13C563.04 559.04 556.08 559.15 552.81 553.82C552.05 552.58 551.667 550.657 551.66 548.05C551.64 541.077 551.673 532.18 551.76 521.36C551.761 521.199 551.731 521.039 551.67 520.89C551.609 520.741 551.52 520.605 551.406 520.491C551.293 520.376 551.158 520.286 551.009 520.224C550.861 520.162 550.701 520.13 550.54 520.13H522.66C522.312 520.13 521.977 520.268 521.73 520.513C521.483 520.758 521.343 521.092 521.34 521.44C521.293 526.353 521.277 533.98 521.29 544.32C521.303 549.24 520.877 552.447 520.01 553.94C518.363 556.787 515.513 558.05 511.46 557.73C505.32 557.243 502.3 553.743 502.4 547.23C502.58 536.017 502.61 527.267 502.49 520.98C502.485 520.75 502.39 520.531 502.225 520.371C502.061 520.21 501.84 520.12 501.61 520.12H473.5C473.334 520.12 473.169 520.153 473.016 520.218C472.863 520.283 472.724 520.378 472.609 520.497C472.493 520.617 472.403 520.758 472.343 520.913C472.283 521.068 472.255 521.234 472.26 521.4C472.573 530.487 472.66 539.517 472.52 548.49C472.46 552.37 471.33 554.86 467.86 556.46C461.79 559.25 454 555.85 453.92 548.49C453.833 539.817 453.827 530.753 453.9 521.3C453.901 521.15 453.873 521.002 453.817 520.863C453.761 520.724 453.678 520.598 453.573 520.491C453.468 520.384 453.343 520.299 453.205 520.241C453.068 520.182 452.92 520.151 452.77 520.15C446.197 520.083 440.107 520.053 434.5 520.06C422.54 520.07 411.33 511.61 411.07 498.98C410.917 491.427 410.9 483.837 411.02 476.21C411.021 476.154 411.011 476.098 410.991 476.046C410.97 475.994 410.94 475.947 410.901 475.907C410.861 475.866 410.815 475.835 410.763 475.813C410.711 475.791 410.656 475.78 410.6 475.78ZM428.87 492.67C428.87 495.102 429.836 497.434 431.556 499.154C433.276 500.874 435.608 501.84 438.04 501.84H586.02C588.452 501.84 590.784 500.874 592.504 499.154C594.224 497.434 595.19 495.102 595.19 492.67V348.89C595.19 346.458 594.224 344.126 592.504 342.406C590.784 340.686 588.452 339.72 586.02 339.72H438.04C435.608 339.72 433.276 340.686 431.556 342.406C429.836 344.126 428.87 346.458 428.87 348.89V492.67Z" fill="#FFC237"/>
<path d="M194.06 354.47C206.553 354.47 216.68 344.343 216.68 331.85C216.68 319.357 206.553 309.23 194.06 309.23C181.568 309.23 171.44 319.357 171.44 331.85C171.44 344.343 181.568 354.47 194.06 354.47Z" fill="#FFEA96"/>
<path d="M428.87 492.67V348.89C428.87 346.458 429.836 344.126 431.556 342.406C433.276 340.686 435.608 339.72 438.04 339.72H586.02C588.452 339.72 590.785 340.686 592.504 342.406C594.224 344.126 595.19 346.458 595.19 348.89V492.67C595.19 495.102 594.224 497.434 592.504 499.154C590.785 500.874 588.452 501.84 586.02 501.84H438.04C435.608 501.84 433.276 500.874 431.556 499.154C429.836 497.434 428.87 495.102 428.87 492.67ZM491.99 451.36C497.443 451.38 503.063 451.333 508.85 451.22C509.3 451.212 509.74 451.352 510.102 451.62C510.464 451.887 510.727 452.267 510.85 452.7C512.25 457.66 514.09 465.28 516.89 469.82C521.15 476.73 532.48 474.65 533.94 466.88C534.22 465.393 533.7 462.63 532.38 458.59C524.227 433.637 515.817 407.79 507.15 381.05C504.51 372.89 501.21 368.67 492.39 368.63C483.57 368.59 480.23 372.78 477.51 380.91C468.59 407.563 459.933 433.327 451.54 458.2C450.18 462.227 449.633 464.987 449.9 466.48C451.28 474.26 462.59 476.45 466.92 469.58C469.76 465.07 471.68 457.46 473.12 452.52C473.248 452.089 473.514 451.713 473.877 451.449C474.241 451.185 474.681 451.048 475.13 451.06C480.917 451.233 486.537 451.333 491.99 451.36ZM568.664 378.134C568.66 375.731 567.701 373.428 565.999 371.732C564.297 370.036 561.991 369.085 559.588 369.09L559.108 369.09C557.919 369.093 556.741 369.329 555.642 369.786C554.544 370.243 553.546 370.912 552.707 371.755C551.867 372.598 551.201 373.598 550.748 374.698C550.294 375.798 550.062 376.976 550.064 378.166L550.216 465.246C550.22 467.649 551.179 469.952 552.881 471.648C554.583 473.344 556.889 474.294 559.292 474.29L559.772 474.289C560.962 474.287 562.139 474.051 563.238 473.594C564.336 473.137 565.334 472.467 566.174 471.625C567.014 470.782 567.679 469.782 568.133 468.682C568.586 467.582 568.818 466.403 568.816 465.214L568.664 378.134Z" fill="#FFEA96"/>
<path d="M492.39 368.63C501.21 368.67 504.51 372.89 507.15 381.05C515.816 407.79 524.226 433.637 532.38 458.59C533.7 462.63 534.22 465.393 533.94 466.88C532.48 474.65 521.15 476.73 516.89 469.82C514.09 465.28 512.25 457.66 510.85 452.7C510.726 452.267 510.463 451.888 510.101 451.62C509.74 451.352 509.299 451.212 508.85 451.22C503.063 451.333 497.443 451.38 491.99 451.36C486.536 451.333 480.916 451.233 475.13 451.06C474.681 451.048 474.24 451.185 473.877 451.449C473.513 451.713 473.247 452.089 473.12 452.52C471.68 457.46 469.76 465.07 466.92 469.58C462.59 476.45 451.28 474.26 449.9 466.48C449.633 464.987 450.18 462.227 451.54 458.2C459.933 433.327 468.59 407.563 477.51 380.91C480.23 372.78 483.57 368.59 492.39 368.63ZM479.97 432.02C479.954 432.069 479.95 432.121 479.958 432.172C479.966 432.223 479.986 432.271 480.016 432.313C480.046 432.355 480.086 432.389 480.132 432.413C480.177 432.437 480.228 432.449 480.28 432.45L503.71 432.53C503.761 432.529 503.812 432.517 503.857 432.493C503.903 432.469 503.943 432.435 503.973 432.393C504.003 432.351 504.023 432.303 504.031 432.252C504.039 432.201 504.035 432.149 504.02 432.1L492.44 395.84C492.419 395.773 492.377 395.714 492.32 395.673C492.263 395.631 492.195 395.608 492.125 395.608C492.054 395.608 491.986 395.631 491.929 395.673C491.872 395.714 491.831 395.773 491.81 395.84L479.97 432.02Z" fill="#FFC237"/>
<path d="M559.588 369.09L559.108 369.091C554.104 369.099 550.055 373.163 550.064 378.166L550.216 465.246C550.224 470.25 554.288 474.299 559.291 474.29L559.771 474.29C564.775 474.281 568.824 470.217 568.816 465.214L568.664 378.134C568.655 373.13 564.592 369.081 559.588 369.09Z" fill="#FFC237"/>
<path d="M479.97 432.02L491.81 395.84C491.831 395.773 491.872 395.714 491.929 395.673C491.986 395.631 492.054 395.608 492.125 395.608C492.195 395.608 492.263 395.631 492.32 395.673C492.377 395.714 492.419 395.773 492.44 395.84L504.02 432.1C504.035 432.149 504.039 432.201 504.031 432.252C504.023 432.303 504.003 432.351 503.973 432.393C503.943 432.435 503.903 432.469 503.858 432.493C503.812 432.517 503.761 432.529 503.71 432.53L480.28 432.45C480.228 432.449 480.177 432.437 480.132 432.413C480.086 432.389 480.047 432.355 480.016 432.313C479.986 432.271 479.966 432.223 479.958 432.172C479.95 432.121 479.954 432.069 479.97 432.02Z" fill="#FFEA96"/>
<path d="M242.71 492.12C255.087 492.12 265.12 482.087 265.12 469.71C265.12 457.333 255.087 447.3 242.71 447.3C230.333 447.3 220.3 457.333 220.3 469.71C220.3 482.087 230.333 492.12 242.71 492.12Z" fill="#FFEA96"/>
<path d="M258.3 614.99C270.77 614.99 280.88 604.881 280.88 592.41C280.88 579.939 270.77 569.83 258.3 569.83C245.829 569.83 235.72 579.939 235.72 592.41C235.72 604.881 245.829 614.99 258.3 614.99Z" fill="#FFEA96"/>
<path d="M828.56 650.17C836.265 650.17 842.51 643.924 842.51 636.22C842.51 628.516 836.265 622.27 828.56 622.27C820.856 622.27 814.61 628.516 814.61 636.22C814.61 643.924 820.856 650.17 828.56 650.17Z" fill="#FFEA96"/>
<path d="M250.351 738.779C250.709 725.944 240.756 715.252 228.119 714.899C215.482 714.546 204.947 724.665 204.589 737.501C204.23 750.336 214.184 761.028 226.821 761.381C239.457 761.734 249.992 751.615 250.351 738.779Z" fill="#FFEA96"/>
<path d="M817.14 807.53C826.612 807.53 834.29 799.852 834.29 790.38C834.29 780.908 826.612 773.23 817.14 773.23C807.669 773.23 799.99 780.908 799.99 790.38C799.99 799.852 807.669 807.53 817.14 807.53Z" fill="#FFEA96"/>
</svg>
