<svg width="32" height="32" viewBox="0 0 32 32" fill="none" xmlns="http://www.w3.org/2000/svg">
<circle cx="16" cy="16" r="16" fill="white"/>
<path d="M19.6173 9.93774C20.1747 9.93786 22.176 9.98726 23.4933 11.8264C23.3788 11.913 21.3783 13.0117 21.378 15.4553C21.378 18.2819 23.9235 19.2821 24.0001 19.3069C23.9875 19.3686 23.5947 20.6778 22.6573 22.011C21.8214 23.1837 20.9471 24.3557 19.6173 24.3557C18.2876 24.3557 17.9454 23.6029 16.4132 23.6028C14.9185 23.6028 14.386 24.3811 13.17 24.3811C11.9541 24.381 11.1052 23.2943 10.13 21.9612C9.00277 20.3934 8.091 17.9618 8.09091 15.6536C8.09091 11.9502 10.5614 9.98657 12.9933 9.98657C14.285 9.98677 15.3614 10.8137 16.172 10.8137C16.9446 10.8137 18.148 9.93774 19.6173 9.93774ZM19.921 5.33325C19.9464 5.44441 19.9591 5.58028 19.9591 5.71606C19.959 6.69124 19.5289 7.66674 18.921 8.37036C18.2749 9.14804 17.1602 9.72763 16.2735 9.72778C16.1725 9.72778 16.0712 9.71565 16.0079 9.70337C15.9953 9.65401 15.9698 9.50576 15.9698 9.35767C15.9698 8.37005 16.4887 7.39482 17.046 6.77759C17.7552 5.97533 18.9331 5.37047 19.921 5.33325Z" fill="black"/>
</svg>
