<svg width="1024" height="1024" viewBox="0 0 1024 1024" fill="none" xmlns="http://www.w3.org/2000/svg">
<path d="M375.561 502.8C375.687 503.72 375.757 504.95 375.771 506.49C375.904 517.097 378.574 526.837 383.781 535.71C383.84 535.811 383.872 535.926 383.873 536.044C383.874 536.161 383.844 536.277 383.787 536.379C383.729 536.482 383.645 536.567 383.544 536.627C383.443 536.687 383.328 536.719 383.211 536.72C375.611 536.82 368.231 537.29 361.261 536.22C359.287 535.92 357.511 535.753 355.931 535.72C354.211 535.687 352.424 535.527 350.571 535.24C308.591 528.787 272.587 512.1 242.561 485.18C232.081 475.78 222.104 464.267 212.631 450.64C192.591 421.82 181.177 389.75 178.391 354.43C178.124 351.077 178.041 345.047 178.141 336.34C178.581 297.74 191.341 260.65 213.591 229.09C231.197 204.117 253.477 184.233 280.431 169.44C319.101 148.2 362.831 140.74 406.421 148.61C454.611 157.31 499.221 183.69 528.521 222.5C544.974 244.287 555.94 268.55 561.421 295.29C563.26 304.27 564.98 313.44 564.861 322.56C564.847 323.21 564.739 323.857 564.54 324.48C562.514 330.733 558.544 334.827 552.631 336.76C547.137 338.56 541.38 339.123 535.361 338.45C534.067 338.31 533.387 337.497 533.321 336.01C532.431 316.24 528.74 296.48 520.91 277.98C507.197 245.56 485.174 220.383 454.841 202.45C434.241 190.263 411.551 183.083 386.771 180.91C384.037 180.67 378.634 180.607 370.561 180.72C364.014 180.813 358.621 181.117 354.381 181.63C333.381 184.177 313.971 190.35 296.151 200.15C249.381 225.85 219.011 273.48 213.821 326.5C213.614 328.633 213.544 334.95 213.611 345.45C213.664 352.65 214.141 358.943 215.041 364.33C216.961 375.743 219.377 385.457 222.291 393.47C242.211 448.15 289.451 488.14 346.511 498.97C353.077 500.21 362.571 501.307 374.991 502.26C375.131 502.268 375.265 502.327 375.369 502.425C375.472 502.524 375.54 502.656 375.561 502.8Z" fill="#49B5DE"/>
<path d="M780.074 282.929C779.531 238.523 743.147 202.964 698.808 203.506C654.468 204.048 618.963 240.485 619.506 284.891C620.048 329.297 656.433 364.856 700.772 364.314C745.112 363.772 780.616 327.335 780.074 282.929Z" fill="#49B5DE"/>
<path d="M367.62 358.15C356.667 369.197 342.52 383.623 325.18 401.43C323.674 402.977 321.597 404.323 318.95 405.47C317.1 406.28 310.52 406.11 308.12 404.9C299.58 400.59 297.35 389.9 304.13 382.85C318.644 367.75 333.457 352.543 348.57 337.23C348.828 336.97 349.025 336.657 349.149 336.313C349.274 335.97 349.322 335.603 349.29 335.24C348.617 327.687 350.634 321.093 355.34 315.46C356.73 313.8 359.02 312.07 360.67 310.37C361.106 309.921 361.35 309.322 361.35 308.7C361.357 268.747 361.357 243.18 361.35 232C361.34 222.38 362.68 213.02 374.27 211.81C383.06 210.88 389.63 218.25 389.69 227.04C389.81 247.42 389.824 274.927 389.73 309.56C389.724 310.228 389.971 310.871 390.421 311.36C394.281 315.56 397.837 320.427 401.09 325.96C403.397 329.887 404.3 334.543 403.8 339.93C403.15 346.95 398.91 353.21 393.15 356.83C386.28 361.15 376.41 360.83 368.9 357.88C368.684 357.794 368.447 357.773 368.22 357.821C367.992 357.869 367.783 357.984 367.62 358.15Z" fill="#49B5DE"/>
<path d="M260.871 329.368L248.952 329.472C242.573 329.528 237.447 334.744 237.503 341.123L237.518 342.823C237.574 349.201 242.79 354.327 249.168 354.272L261.088 354.167C267.467 354.112 272.592 348.896 272.537 342.517L272.522 340.817C272.466 334.439 267.25 329.313 260.871 329.368Z" fill="#49B5DE"/>
<path d="M563.059 437.2C562.919 436.716 562.601 436.303 562.169 436.043C561.737 435.784 561.223 435.697 560.729 435.8L502.979 448C502.569 448.087 502.185 448.268 501.857 448.528C501.529 448.789 501.266 449.121 501.089 449.5C494.356 464.027 484.179 486.04 470.559 515.54C464.409 528.86 453.769 539.68 439.229 542.43C437.903 542.683 436.416 542.777 434.769 542.71C420.389 542.13 409.419 532.27 405.599 519.21C402.973 510.237 403.783 501.323 408.029 492.47C424.983 457.11 437.149 431.87 444.529 416.75C446.383 412.95 447.873 410.037 448.999 408.01C454.339 398.39 461.896 391.173 471.669 386.36C475.296 384.58 481.956 382.713 491.649 380.76C511.809 376.707 545.066 369.837 591.419 360.15C601.926 357.95 612.619 358.917 623.499 363.05C648.499 372.557 670.296 380.627 688.889 387.26C695.489 389.613 700.046 391.623 702.559 393.29C712.399 399.81 720.039 408.65 727.519 417.73C739.339 432.07 750.999 446.82 762.229 461.94C764.569 465.1 767.479 465.4 770.499 463.01C776.946 457.93 796.363 442.76 828.749 417.5C834.416 413.08 841.513 410.877 850.039 410.89C864.769 410.91 878.329 421 882.749 435.04C887.319 449.55 881.579 463.56 869.779 473.04C825.046 508.94 797.719 530.86 787.799 538.8C772.039 551.43 750.879 550.12 737.399 534.62C731.386 527.707 722.036 516.883 709.349 502.15C704.969 497.063 700.623 492.517 696.309 488.51C693.589 485.99 689.679 484.99 687.929 489.19C674.943 520.283 662.856 548.607 651.669 574.16C646.809 585.26 653.709 589.39 662.979 595.32C689.299 612.18 712.833 627.21 733.579 640.41C738.666 643.643 743.143 647.733 747.009 652.68C755.869 664 758.716 676.943 755.549 691.51C754.769 695.117 753.139 699.757 750.659 705.43C737.633 735.31 719.583 776.51 696.509 829.03C691.799 839.75 688.689 848.47 682.399 855.34C673.906 864.62 662.963 868.747 649.569 867.72C642.209 867.16 635.456 864.053 629.309 858.4C618.589 848.547 614.996 836.16 618.529 821.24C619.149 818.633 620.409 815.07 622.309 810.55C635.869 778.303 651.726 741.51 669.879 700.17C670.926 697.783 670.299 695.8 667.999 694.22C662.159 690.2 656.309 686.397 650.449 682.81C640.676 676.817 605.709 655.82 545.549 619.82C537.196 614.82 531.569 611.01 528.669 608.39C518.019 598.77 511.459 585.94 511.079 571.49C510.853 562.743 512.429 554.603 515.809 547.07C533.329 508.077 547.379 476.707 557.959 452.96C560.053 448.26 561.599 444.65 562.599 442.13C563.326 440.31 563.479 438.667 563.059 437.2Z" fill="#49B5DE"/>
<path d="M376.446 449.435L374.867 449.383C368.933 449.186 363.963 453.836 363.767 459.77L363.426 470.025C363.23 475.958 367.88 480.928 373.814 481.125L375.393 481.177C381.327 481.374 386.297 476.724 386.494 470.79L386.834 460.535C387.031 454.602 382.38 449.632 376.446 449.435Z" fill="#49B5DE"/>
<path d="M299.91 565.64H167.45C159.618 565.64 153.27 571.989 153.27 579.82V580.64C153.27 588.471 159.618 594.82 167.45 594.82H299.91C307.741 594.82 314.09 588.471 314.09 580.64V579.82C314.09 571.989 307.741 565.64 299.91 565.64Z" fill="#49B5DE"/>
<path d="M498.731 611.11C498.931 611.557 500.904 614.11 504.651 618.77C517.481 634.74 533.051 642.66 552.511 651.83C555.391 653.183 557.854 654.5 559.901 655.78C560.219 655.978 560.456 656.282 560.57 656.638C560.684 656.993 560.666 657.377 560.521 657.72C560.221 658.453 559.641 659.56 558.781 661.04C542.787 688.733 531.544 708.237 525.051 719.55C521.751 725.31 518.667 730.063 515.801 733.81C507.994 744.023 498.581 751.893 487.561 757.42C482.754 759.833 473.441 763.013 459.621 766.96C408.514 781.573 373.954 791.487 355.941 796.7C353.141 797.513 350.001 798.033 346.521 798.26C332.727 799.147 321.824 794.207 313.811 783.44C309.411 777.54 306.971 769.66 306.971 761.96C306.961 744.04 317.531 730.63 333.071 722.72C335.811 721.32 340.894 719.613 348.321 717.6C375.301 710.267 404.527 702.067 436.001 693C442.741 691.06 448.071 688.237 451.991 684.53C454.571 682.09 458.024 677.12 462.351 669.62C466.764 661.973 475.587 647.203 488.821 625.31C494.307 616.223 497.267 611.437 497.701 610.95C497.77 610.873 497.857 610.813 497.954 610.778C498.052 610.743 498.157 610.733 498.259 610.749C498.362 610.765 498.459 610.807 498.541 610.87C498.623 610.933 498.689 611.015 498.731 611.11Z" fill="#49B5DE"/>
<path d="M363.613 630.261L227.034 630.499C218.832 630.514 212.195 637.174 212.21 645.375L212.211 645.975C212.225 654.177 218.885 660.813 227.086 660.799L363.666 660.561C371.868 660.546 378.505 653.886 378.49 645.685L378.489 645.085C378.475 636.883 371.815 630.247 363.613 630.261Z" fill="#49B5DE"/>
</svg>
