<svg width="1024" height="1024" viewBox="0 0 1024 1024" fill="none" xmlns="http://www.w3.org/2000/svg">
<path d="M670.39 685.41C666.917 686.103 663.404 686.9 659.85 687.8C658.13 688.233 655.54 688.753 652.08 689.36C647.767 690.113 645.167 690.57 644.28 690.73C637.774 691.883 629.514 692.493 619.5 692.56C607.5 692.647 597.844 692.51 590.53 692.15C586.2 691.94 583.18 691.16 578.52 690.66C571.714 689.947 559.817 687.567 542.83 683.52C541.504 683.207 540.53 682.957 539.91 682.77C529.104 679.61 517.86 675.877 506.18 671.57C500.974 669.643 491.084 665.107 476.51 657.96C470.19 654.86 465.18 650.76 459.45 647.52C451.58 643.06 443.98 636.24 436.65 630.92C430.04 626.12 426.12 622.15 418.14 614.97C414.83 611.99 412.59 609.21 409.49 606.58C403.83 601.76 397.51 593.79 393.45 589.7C391.337 587.573 389.89 585.95 389.11 584.83C385.99 580.38 382.37 576.46 379.12 571.75C377.34 569.17 374.514 565.083 370.64 559.49C360.3 544.55 352.34 528.28 347.27 511.32C346.444 508.54 345.59 505.957 344.71 503.57C343.917 501.41 343.147 498.787 342.4 495.7C338.647 480.227 337.28 465.007 338.3 450.04C339.067 438.747 341.94 427.447 346.92 416.14C349.16 411.08 352.56 407.14 355.29 402.95C365.44 387.35 381.45 377.21 398.04 369.27C400.427 368.13 404.697 366.737 410.85 365.09C423.537 361.683 435.25 359.4 445.99 358.24C456.204 357.14 468.82 357.22 483.84 358.48C487.76 358.81 490.41 359.79 494.34 360.23C496.12 360.423 498.714 361.03 502.12 362.05C505.58 363.08 509.12 363.62 513.22 364.89C528.88 369.73 543.787 375.803 557.94 383.11C559.7 384.017 561.81 385.247 564.27 386.8C565.304 387.453 567.437 388.637 570.67 390.35C573.404 391.797 577.44 394.613 582.78 398.8C585.36 400.82 587.73 403.3 590.68 405.18C591.159 405.486 591.605 405.845 592.01 406.25C594.537 408.783 596.524 410.63 597.97 411.79C604.937 417.363 611.454 423.547 617.52 430.34C618.96 431.96 621.92 435.307 626.4 440.38C629.36 443.72 630.97 446.6 634.09 450.5C637.217 454.413 639.847 458.57 641.98 462.97C644.65 468.48 648.03 473.44 649.96 477.54C652.407 482.713 654.644 489.27 656.67 497.21C657.29 499.66 657.44 502.25 658.18 504.39C659.37 507.81 659.65 511 660.2 515.5C660.734 519.833 661.047 528.313 661.14 540.94C661.15 543.11 660.77 547.91 659.84 551.29C657.247 560.643 655.607 566.087 654.92 567.62C654.16 569.32 651.627 573.98 647.32 581.6C646.657 582.767 645.825 583.825 644.85 584.74C641.21 588.16 637.97 592.73 633.88 596.13C626.334 602.403 619.044 607.103 612.01 610.23C607.624 612.183 600.934 614.653 591.94 617.64C587.63 619.08 583.96 619.19 579.19 620.42C576.297 621.16 570.18 621.85 560.84 622.49C560.774 622.495 560.71 622.514 560.652 622.547C560.594 622.58 560.545 622.625 560.508 622.679C560.47 622.733 560.445 622.794 560.435 622.858C560.426 622.923 560.431 622.988 560.45 623.05L560.47 623.11C560.518 623.268 560.617 623.406 560.751 623.501C560.885 623.595 561.047 623.641 561.21 623.63C563.77 623.457 566.22 623.753 568.56 624.52C569.005 624.666 569.465 624.757 569.93 624.79C581.457 625.59 590.157 625.657 596.03 624.99C600.717 624.463 605.517 623.853 610.43 623.16C615.4 622.46 619.37 621.13 623.42 620.25C626.44 619.597 629.617 618.603 632.95 617.27C640.684 614.19 647.874 610.333 654.52 605.7C659.77 602.05 665.53 595.9 668.99 592.24C672.357 588.673 675.854 583.863 679.48 577.81C679.739 577.385 679.944 576.925 680.09 576.44C681.65 571.29 683.2 568.06 684.01 563.54C685.18 557.01 686.43 552.09 686.74 545.72C687.24 535.473 686.29 524.803 683.89 513.71C682.97 509.45 681.34 505.73 680.32 501.61C680.02 500.377 679.08 497.973 677.5 494.4C676.474 492.087 675.657 489.653 675.05 487.1C674.957 486.708 674.816 486.332 674.63 485.98C669.257 475.88 665.95 469.933 664.71 468.14C662.13 464.407 659.947 461.003 658.16 457.93C656.9 455.763 655.544 453.773 654.09 451.96C649.78 446.58 648.3 445.07 643.65 438.81C641.844 436.383 639.734 433.97 637.32 431.57C628.19 422.51 619.76 413.9 609.4 405.86C607.26 404.2 602.944 400.69 596.45 395.33C595.117 394.23 594.05 393.47 593.25 393.05C590.12 391.4 587.89 389.29 584.93 387.76C582.43 386.473 577.807 383.777 571.06 379.67C566.73 377.03 562.41 375.53 558.85 373.42C556.697 372.147 553.53 370.733 549.35 369.18C541.91 366.42 535.05 363.24 528.37 361.29C527.177 360.937 522.194 359.44 513.42 356.8C510.96 356.06 508.61 356.01 506.5 355.14C503.51 353.9 499.73 353.57 496.99 352.33C496.333 352.038 495.641 351.833 494.93 351.72C492.364 351.327 490.624 350.967 489.71 350.64C485.87 349.25 482.4 349.34 478.46 348.07C477.067 347.617 475.074 347.15 472.48 346.67C471.62 346.51 465.53 345.587 454.21 343.9C447.98 342.97 443.72 342.94 436.26 342.45C429.374 342.01 422.21 342.177 414.77 342.95C403.077 344.17 391.75 346.43 380.79 349.73C376.69 350.97 369.507 353.823 359.24 358.29C354.367 360.417 349.997 362.973 346.13 365.96C340.544 370.28 336.66 373.537 334.48 375.73C328.1 382.19 323.307 387.637 320.1 392.07C313.41 401.34 308.62 413.06 306.22 425.02C304.98 431.207 304.274 435.223 304.1 437.07C303.734 441.103 303.537 447.023 303.51 454.83C303.497 459.25 303.75 463.187 304.27 466.64C304.89 470.82 305.614 474.703 306.44 478.29C309.147 490.057 312.65 501.417 316.95 512.37C318.38 516.01 320.28 518.51 321.45 521.93C322.07 523.757 323.157 526.167 324.71 529.16C329.55 538.5 333.21 546.01 338.33 553.28C341.01 557.1 342.57 559.74 344.56 562.66C348.06 567.773 351.574 572.823 355.1 577.81C356.95 580.42 358.89 582.23 360.63 584.75C361.604 586.15 363.007 587.933 364.84 590.1C368.74 594.707 374.384 600.917 381.77 608.73C388.82 616.19 394.37 622.35 401.66 628.49C404.69 631.05 409.25 636.32 414.35 639.51C414.936 639.876 415.491 640.287 416.01 640.74C423.49 647.28 428.13 651.157 429.93 652.37C432.564 654.15 436.167 656.71 440.74 660.05C445.73 663.69 450.52 666.11 455 669.67C457.98 672.037 461.724 674.27 466.23 676.37C466.663 676.569 467.075 676.811 467.46 677.09C470.607 679.397 474.037 681.403 477.75 683.11C484.7 686.32 490.78 690.28 498.21 693.56C509.524 698.553 516.68 701.727 519.68 703.08C520.86 703.62 522.5 703.84 523.79 704.42C528.95 706.72 532.97 707.47 538 709.39C539.487 709.957 544.31 711.55 552.47 714.17C556.56 715.48 560.54 715.67 563.79 716.78C569.55 718.74 574.17 719.19 581.84 720.92C587.03 722.09 592.38 722.27 597.6 723.19C600.934 723.777 604.88 724.25 609.44 724.61C623.307 725.703 637.577 725.963 652.25 725.39C665.31 724.89 677.21 723.61 689.17 720.62C700.33 717.84 712.68 714.62 723.82 709.43C729.454 706.817 733.984 704.797 737.41 703.37C738.43 702.95 742.267 700.697 748.92 696.61C749.196 696.439 749.426 696.202 749.59 695.92C752.51 690.733 754.374 687.15 755.18 685.17C760.454 672.237 760.45 659.34 755.17 646.48" stroke="#FFC12B" stroke-width="2"/>
<path d="M278.57 451.76C278.917 443.993 279.33 436.327 279.81 428.76C280.177 422.947 282.074 413.92 285.5 401.68C287.587 394.22 291.357 385.99 296.81 376.99C302.22 368.05 310.62 359.74 318.18 353.06C322.107 349.587 326.87 346.163 332.47 342.79C338.404 339.217 343.604 336.48 348.07 334.58C353.1 332.43 359.91 329.37 365.71 327.81C372.264 326.05 378.27 324.733 383.73 323.86C390.177 322.82 395.324 322.08 399.17 321.64C402.75 321.233 407.947 321.043 414.76 321.07C431.727 321.13 447.074 322.52 460.8 325.24C464.687 326.007 473.89 328.177 488.41 331.75C493.34 332.97 498.03 335.17 502.78 335.97C503.238 336.05 503.682 336.194 504.1 336.4C506.134 337.407 508.14 338.02 510.12 338.24C510.79 338.32 511.443 338.488 512.06 338.74C515.76 340.26 525.2 343.13 532.04 345.85C534.927 347.003 538.164 347.833 541.75 348.34C542.103 348.393 542.448 348.477 542.78 348.59C548.36 350.52 551.78 351.91 556.46 351.66C556.502 351.655 556.541 351.637 556.571 351.609C556.602 351.581 556.624 351.544 556.633 351.504C556.641 351.463 556.637 351.42 556.621 351.382C556.604 351.344 556.576 351.312 556.54 351.29C545.64 345.517 539.637 342.363 538.53 341.83C536.01 340.6 534.09 339.97 531.23 339.15C530.897 339.05 530.573 338.923 530.26 338.77C524.147 335.817 520.21 334.01 518.45 333.35C510.744 330.457 503.987 327.673 498.18 325C495.47 323.75 491.76 323.02 489.68 322.31C484.067 320.377 478.727 318.573 473.66 316.9C469.834 315.633 467.284 314.857 466.01 314.57C463.41 313.983 460.837 313.3 458.29 312.52C456.077 311.84 452.2 310.883 446.66 309.65C438.647 307.87 433.807 306.773 432.14 306.36C427.247 305.14 423.87 304.423 422.01 304.21C418.124 303.75 414.71 303.233 411.77 302.66C406.677 301.68 401.547 301.05 396.38 300.77C382.44 300.017 371.234 299.9 362.76 300.42C352.85 301.03 346.84 302.06 334.47 304.22C330.77 304.867 327.594 305.677 324.94 306.65C322.674 307.477 319.564 308.513 315.61 309.76C310.664 311.32 306.097 313.123 301.91 315.17C293.35 319.363 285.107 324.45 277.18 330.43C276.92 330.63 274.387 332.707 269.58 336.66C266.627 339.093 264.254 341.34 262.46 343.4C256.58 350.127 252.934 354.597 251.52 356.81C250.407 358.543 248.26 362.133 245.08 367.58C242.88 371.347 241.067 375.1 239.64 378.84C237.794 383.667 236.114 388.377 234.6 392.97C233.84 395.283 233.26 397.543 232.86 399.75C231.73 405.9 230.26 411.27 229.79 416.95C228.964 427.137 229.037 438 230.01 449.54C230.297 452.967 230.76 456.267 231.4 459.44C231.96 462.24 232.51 465.517 233.05 469.27C233.684 473.683 234.784 478.543 236.35 483.85C241.68 501.92 245.05 513.94 252.09 528.96C252.81 530.5 253.34 532.3 253.97 533.77C257.097 540.983 260.777 548.803 265.01 557.23C266.957 561.11 269.314 565.317 272.08 569.85C277.79 579.24 280.06 584.15 285.47 591.41C287.33 593.91 289.237 597.017 291.19 600.73C291.807 601.911 292.585 603.005 293.5 603.98C295.627 606.253 297.494 608.747 299.1 611.46C300.57 613.93 302.75 615.6 304.33 617.92C309.724 625.813 313.36 630.853 315.24 633.04C320.847 639.573 331.607 651.37 347.52 668.43C350.607 671.743 354.27 675.337 358.51 679.21C365.18 685.3 371.47 691.06 378.49 695.71C378.639 695.807 378.811 695.863 378.988 695.872C379.166 695.881 379.343 695.842 379.5 695.76C380.094 695.44 380.264 694.933 380.01 694.24" stroke="#FFC12B" stroke-width="2"/>
<path d="M647.3 400.18C646.073 400.92 645.836 401.77 646.59 402.73C649.903 406.983 653.343 411.12 656.91 415.14C659.25 417.773 660.923 419.89 661.93 421.49C666.07 428.07 669.769 433.08 672.719 438.59C675.093 443.023 677.11 446.447 678.77 448.86C681.51 452.84 682.87 457.36 684.88 460.84C686.766 464.1 688.246 467.093 689.32 469.82C692.18 477.13 696.5 484.86 699.06 492.94C699.333 493.8 700.36 496.777 702.14 501.87C702.54 503.023 703.813 508.833 705.96 519.3C707.386 526.26 708.166 532.127 708.3 536.9C708.67 550.17 707.07 564.32 701.83 576.86C700.33 580.43 699.32 583.97 697.58 587.32C690.866 600.227 681.653 611.097 669.94 619.93C669.68 620.13 667.226 621.833 662.58 625.04C658.74 627.69 654.62 629.23 651.1 631.65C650.376 632.154 649.589 632.561 648.76 632.86C637.7 636.84 631.67 638.947 630.67 639.18C616.083 642.553 603.866 644.457 594.02 644.89C583.826 645.337 571.16 644.947 556.02 643.72C552.453 643.427 542.71 641.62 526.79 638.3C526.096 638.153 524.346 637.667 521.54 636.84C520.166 636.433 518.4 635.977 516.24 635.47C510.473 634.11 505.046 632.44 499.96 630.46C492.55 627.57 485.95 625.45 479.4 621.85C475.44 619.67 471.22 618.25 467.33 616.17C464.05 614.423 456.42 610.507 444.44 604.42C443.56 603.98 442.51 602.65 441.71 602.58C441.639 602.574 441.568 602.588 441.505 602.62C441.442 602.652 441.389 602.701 441.354 602.761C441.318 602.821 441.3 602.889 441.303 602.958C441.306 603.027 441.329 603.094 441.37 603.15C442.236 604.417 442.763 605.12 442.95 605.26C445.196 606.927 449.023 610.057 454.43 614.65C457.796 617.503 461.423 620.087 465.31 622.4C470.883 625.727 477.886 629.977 486.32 635.15C493.14 639.337 499.213 642.717 504.54 645.29C512.846 649.297 519.163 652.193 523.49 653.98C533.883 658.273 545.1 661.63 557.14 664.05C563.606 665.357 570.04 666.513 576.44 667.52C591.34 669.86 605.96 670.393 620.3 669.12C623.213 668.86 625.833 668.493 628.16 668.02C635 666.61 640.48 666.01 647.57 664.11C655.37 662.03 659.44 660.923 659.78 660.79C670.733 656.59 679.886 652.247 687.24 647.76C693.04 644.22 700.64 638.15 710.04 629.55C711.106 628.577 714.956 624.087 721.59 616.08C721.816 615.814 722.01 615.526 722.17 615.22C723.71 612.247 725.376 609.483 727.17 606.93C727.696 606.183 728.983 603.72 731.03 599.54C733.92 593.64 736.31 584.67 737.92 580.62C738.065 580.27 738.143 579.893 738.15 579.51C738.17 578.883 738.69 576.143 739.71 571.29C742.03 560.25 741.38 547.55 740.56 535.25C740.44 533.543 740.1 531.27 739.54 528.43C739.186 526.603 738.936 524.31 738.79 521.55C738.716 520.15 737.556 516.207 735.31 509.72C735.21 509.427 735.133 509.129 735.08 508.83C734.606 506.043 734.003 503.593 733.27 501.48C730.53 493.58 727.5 486.24 723.44 478.71C722.186 476.383 720.683 473.45 718.93 469.91C716.91 465.82 714.64 462.54 712.92 459.34C709.8 453.51 703.85 445.8 701.49 441.69C699.15 437.61 696.63 435.23 694.01 431.21C692.516 428.93 690.593 426.383 688.24 423.57C685.71 420.56 682.45 416.62 679.6 413.8C672.306 406.587 667.573 401.81 665.4 399.47C659.12 392.69 651.64 386.38 646.4 380.88C646.149 380.616 645.846 380.408 645.51 380.27C642.01 378.83 638.26 374.41 632.05 368.77C630.656 367.503 628.8 366.843 626.48 366.79" stroke="#FFC12B" stroke-width="2"/>
<path d="M420.859 574.36C420.913 573.293 420.503 572.293 419.629 571.36C416.563 568.087 414.096 564.997 412.229 562.09C410.849 559.93 409.386 557.86 407.839 555.88C406.926 554.707 405.579 552.473 403.799 549.18C401.449 544.82 397.649 540.26 395.419 535.71C391.059 526.843 388.249 520.383 386.989 516.33C382.249 501.1 378.919 486.3 379.359 470.78C379.639 461.32 380.089 455.22 383.199 447.2C385.906 440.213 389.099 433.753 392.779 427.82C393.239 427.08 394.106 425.9 395.379 424.28C397.589 421.48 399.349 418.74 402.419 415.72C405.779 412.41 409.879 407.57 414.089 404.73C417.169 402.65 421.173 399.977 426.099 396.71C429.893 394.203 434.189 392.083 438.989 390.35C449.929 386.41 460.683 384.12 471.249 383.48C473.449 383.347 479.063 383.177 488.089 382.97C488.342 382.963 488.6 382.98 488.859 383.02C491.059 383.36 493.106 383.327 494.999 382.92C495.098 382.9 495.187 382.844 495.248 382.764C495.31 382.684 495.34 382.584 495.334 382.483C495.328 382.382 495.286 382.287 495.215 382.215C495.145 382.143 495.05 382.098 494.949 382.09C491.169 381.73 487.579 380.47 483.479 380.1C476.659 379.473 472.749 379.147 471.749 379.12C458.136 378.76 444.496 379.543 430.829 381.47C425.769 382.18 420.679 384.05 416.049 385.22C403.409 388.4 391.719 395.24 382.429 404.16C377.689 408.713 374.866 411.567 373.959 412.72C373.026 413.907 370.299 418.267 365.779 425.8C365.461 426.331 365.205 426.899 365.019 427.49C363.449 432.42 361.669 436.45 360.729 441.62C359.323 449.32 358.876 457.283 359.389 465.51C359.616 469.083 360.096 473.233 360.829 477.96C361.416 481.787 362.293 485.403 363.459 488.81C363.626 489.309 363.753 489.821 363.839 490.34C364.166 492.273 364.469 493.67 364.749 494.53C366.623 500.217 369.303 506.697 372.789 513.97C374.856 518.27 376.723 521.67 378.389 524.17C381.169 528.34 382.399 531.19 385.809 535.51C385.989 535.743 386.673 536.743 387.859 538.51C391.013 543.21 396.673 550.323 404.839 559.85C409.769 565.61 414.929 569.71 420.199 574.62C420.253 574.672 420.321 574.707 420.394 574.722C420.467 574.736 420.543 574.729 420.613 574.702C420.682 574.674 420.743 574.628 420.786 574.567C420.83 574.506 420.855 574.435 420.859 574.36Z" stroke="#FFC12B" stroke-width="2"/>
<path d="M433.501 428.99C416.641 441.83 405.211 462.81 404.231 484.46C403.181 507.75 410.281 530.61 424.391 548.82C455.851 589.45 513.401 611.3 563.561 597.67C591.761 590 617.381 568.96 623.021 539.64C625.967 524.3 625.391 509.187 621.291 494.3C613.211 464.94 590.521 439.71 563.381 425.12C540.981 413.087 517.124 407.533 491.811 408.46C469.857 409.267 450.421 416.11 433.501 428.99Z" stroke="#82641D" stroke-width="2"/>
<path d="M670.389 685.41C666.916 686.103 663.403 686.9 659.849 687.8C658.129 688.233 655.539 688.753 652.079 689.36C647.766 690.113 645.166 690.57 644.279 690.73C637.773 691.883 629.513 692.493 619.499 692.56C607.499 692.647 597.843 692.51 590.529 692.15C586.199 691.94 583.179 691.16 578.519 690.66C571.713 689.947 559.816 687.567 542.829 683.52C541.503 683.207 540.529 682.957 539.909 682.77C529.103 679.61 517.859 675.877 506.179 671.57C500.973 669.643 491.083 665.107 476.509 657.96C470.189 654.86 465.179 650.76 459.449 647.52C451.579 643.06 443.979 636.24 436.649 630.92C430.039 626.12 426.119 622.15 418.139 614.97C414.829 611.99 412.589 609.21 409.489 606.58C403.829 601.76 397.509 593.79 393.449 589.7C391.336 587.573 389.889 585.95 389.109 584.83C385.989 580.38 382.369 576.46 379.119 571.75C377.339 569.17 374.513 565.083 370.639 559.49C360.299 544.55 352.339 528.28 347.269 511.32C346.443 508.54 345.589 505.957 344.709 503.57C343.916 501.41 343.146 498.787 342.399 495.7C338.646 480.227 337.279 465.007 338.299 450.04C339.066 438.747 341.939 427.447 346.919 416.14C349.159 411.08 352.559 407.14 355.289 402.95C365.439 387.35 381.449 377.21 398.039 369.27C400.426 368.13 404.696 366.737 410.849 365.09C423.536 361.683 435.249 359.4 445.989 358.24C456.203 357.14 468.819 357.22 483.839 358.48C487.759 358.81 490.409 359.79 494.339 360.23C496.119 360.423 498.713 361.03 502.119 362.05C505.579 363.08 509.119 363.62 513.219 364.89C528.879 369.73 543.786 375.803 557.939 383.11C559.699 384.017 561.809 385.247 564.269 386.8C565.303 387.453 567.436 388.637 570.669 390.35C573.403 391.797 577.439 394.613 582.779 398.8C585.359 400.82 587.729 403.3 590.679 405.18C591.158 405.486 591.604 405.845 592.009 406.25C594.536 408.783 596.523 410.63 597.969 411.79C604.936 417.363 611.453 423.547 617.519 430.34C618.959 431.96 621.919 435.307 626.399 440.38C629.359 443.72 630.969 446.6 634.089 450.5C637.216 454.413 639.846 458.57 641.979 462.97C644.649 468.48 648.029 473.44 649.959 477.54C652.406 482.713 654.643 489.27 656.669 497.21C657.289 499.66 657.439 502.25 658.179 504.39C659.369 507.81 659.649 511 660.199 515.5C660.733 519.833 661.046 528.313 661.139 540.94C661.149 543.11 660.769 547.91 659.839 551.29C657.246 560.643 655.606 566.087 654.919 567.62C654.159 569.32 651.626 573.98 647.319 581.6C646.656 582.767 645.824 583.825 644.849 584.74C641.209 588.16 637.969 592.73 633.879 596.13C626.333 602.403 619.043 607.103 612.009 610.23C607.623 612.183 600.933 614.653 591.939 617.64C587.629 619.08 583.959 619.19 579.189 620.42C576.296 621.16 570.179 621.85 560.839 622.49C560.773 622.495 560.709 622.514 560.651 622.547C560.594 622.58 560.544 622.625 560.507 622.679C560.469 622.733 560.444 622.794 560.434 622.858C560.425 622.923 560.43 622.988 560.449 623.05L560.469 623.11C560.517 623.268 560.616 623.406 560.75 623.501C560.885 623.595 561.046 623.641 561.209 623.63C563.769 623.457 566.219 623.753 568.559 624.52C569.004 624.666 569.464 624.757 569.929 624.79C581.456 625.59 590.156 625.657 596.029 624.99C600.716 624.463 605.516 623.853 610.429 623.16C615.399 622.46 619.369 621.13 623.419 620.25C626.439 619.597 629.616 618.603 632.949 617.27C640.683 614.19 647.873 610.333 654.519 605.7C659.769 602.05 665.529 595.9 668.989 592.24C672.356 588.673 675.853 583.863 679.479 577.81C679.738 577.385 679.943 576.925 680.089 576.44C681.649 571.29 683.199 568.06 684.009 563.54C685.179 557.01 686.429 552.09 686.739 545.72C687.239 535.473 686.289 524.803 683.889 513.71C682.969 509.45 681.339 505.73 680.319 501.61C680.019 500.377 679.079 497.973 677.499 494.4C676.473 492.087 675.656 489.653 675.049 487.1C674.956 486.708 674.815 486.332 674.629 485.98C669.256 475.88 665.949 469.933 664.709 468.14C662.129 464.407 659.946 461.003 658.159 457.93C656.899 455.763 655.543 453.773 654.089 451.96C649.779 446.58 648.299 445.07 643.649 438.81C641.843 436.383 639.733 433.97 637.319 431.57C628.189 422.51 619.759 413.9 609.399 405.86C607.259 404.2 602.943 400.69 596.449 395.33C595.116 394.23 594.049 393.47 593.249 393.05C590.119 391.4 587.889 389.29 584.929 387.76C582.429 386.473 577.806 383.777 571.059 379.67C566.729 377.03 562.409 375.53 558.849 373.42C556.696 372.147 553.529 370.733 549.349 369.18C541.909 366.42 535.049 363.24 528.369 361.29C527.176 360.937 522.193 359.44 513.419 356.8C510.959 356.06 508.609 356.01 506.499 355.14C503.509 353.9 499.729 353.57 496.989 352.33C496.332 352.038 495.64 351.833 494.929 351.72C492.363 351.327 490.623 350.967 489.709 350.64C485.869 349.25 482.399 349.34 478.459 348.07C477.066 347.617 475.073 347.15 472.479 346.67C471.619 346.51 465.529 345.587 454.209 343.9C447.979 342.97 443.719 342.94 436.259 342.45C429.373 342.01 422.209 342.177 414.769 342.95C403.076 344.17 391.749 346.43 380.789 349.73C376.689 350.97 369.506 353.823 359.239 358.29C354.366 360.417 349.996 362.973 346.129 365.96C340.543 370.28 336.659 373.537 334.479 375.73C328.099 382.19 323.306 387.637 320.099 392.07C313.409 401.34 308.619 413.06 306.219 425.02C304.979 431.207 304.273 435.223 304.099 437.07C303.733 441.103 303.536 447.023 303.509 454.83C303.496 459.25 303.749 463.187 304.269 466.64C304.889 470.82 305.613 474.703 306.439 478.29C309.146 490.057 312.649 501.417 316.949 512.37C318.379 516.01 320.279 518.51 321.449 521.93C322.069 523.757 323.156 526.167 324.709 529.16C329.549 538.5 333.209 546.01 338.329 553.28C341.009 557.1 342.569 559.74 344.559 562.66C348.059 567.773 351.573 572.823 355.099 577.81C356.949 580.42 358.889 582.23 360.629 584.75C361.603 586.15 363.006 587.933 364.839 590.1C368.739 594.707 374.383 600.917 381.769 608.73C388.819 616.19 394.369 622.35 401.659 628.49C404.689 631.05 409.249 636.32 414.349 639.51C414.935 639.876 415.49 640.287 416.009 640.74C423.489 647.28 428.129 651.157 429.929 652.37C432.563 654.15 436.166 656.71 440.739 660.05C445.729 663.69 450.519 666.11 454.999 669.67C457.979 672.037 461.723 674.27 466.229 676.37C466.662 676.569 467.074 676.811 467.459 677.09C470.606 679.397 474.036 681.403 477.749 683.11C484.699 686.32 490.779 690.28 498.209 693.56C509.523 698.553 516.679 701.727 519.679 703.08C520.859 703.62 522.499 703.84 523.789 704.42C528.949 706.72 532.969 707.47 537.999 709.39C539.486 709.957 544.309 711.55 552.469 714.17C556.559 715.48 560.539 715.67 563.789 716.78C569.549 718.74 574.169 719.19 581.839 720.92C587.029 722.09 592.379 722.27 597.599 723.19C600.933 723.777 604.879 724.25 609.439 724.61C623.306 725.703 637.576 725.963 652.249 725.39C665.309 724.89 677.209 723.61 689.169 720.62C700.329 717.84 712.679 714.62 723.819 709.43C729.453 706.817 733.983 704.797 737.409 703.37C738.429 702.95 742.266 700.697 748.919 696.61C749.195 696.439 749.425 696.202 749.589 695.92C752.509 690.733 754.373 687.15 755.179 685.17C760.453 672.237 760.449 659.34 755.169 646.48C777.719 625.36 793.659 595.34 798.969 565.59C799.696 561.543 800.146 557.623 800.319 553.83C800.549 548.79 801.069 543.87 800.819 538.05C800.429 528.91 800.629 523.23 799.489 516.07C798.689 511.07 798.093 507.73 797.699 506.05C791.339 478.877 780.929 453.02 766.469 428.48C739.989 383.54 705.569 344.24 667.579 307.66C665.113 305.28 662.723 302.787 660.409 300.18C659.099 298.71 656.939 296.2 658.049 294.11C659.689 291.02 663.269 291.26 665.929 292.84C670.056 295.28 673.416 297.413 676.009 299.24C706.276 320.6 733.649 345.31 758.129 373.37C772.549 389.897 785.916 408.03 798.229 427.77C818.019 459.52 833.019 495.23 838.739 532.3C839.393 536.533 839.793 540.187 839.939 543.26C840.189 548.43 840.929 552.69 840.869 557.92C840.723 569.68 840.169 579.03 839.209 585.97C833.823 624.977 816.999 657.813 788.739 684.48C780.069 692.66 770.119 701.39 759.779 708.06C742.966 718.893 726.253 727.5 709.639 733.88C686.759 742.653 662.709 747.787 637.489 749.28C630.629 749.687 624.216 749.69 618.249 749.29C606.403 748.503 594.963 747.163 583.929 745.27C579.916 744.583 577.119 744.137 575.539 743.93C562.299 742.18 549.039 738.61 536.459 734.52C521.113 729.527 506.659 724.153 493.099 718.4C488.019 716.24 483.069 713.31 477.739 710.53C459.366 700.957 444.916 692.643 434.389 685.59C421.289 676.803 407.549 666.217 393.169 653.83C380.149 642.61 367.863 630.12 356.309 616.36C341.703 598.953 328.669 580.773 317.209 561.82C306.723 544.473 298.093 526.52 291.319 507.96C285.786 492.8 281.979 476.673 279.899 459.58C279.786 458.667 279.549 457.363 279.189 455.67C278.883 454.223 278.676 452.92 278.569 451.76C278.916 443.993 279.329 436.327 279.809 428.76C280.176 422.947 282.073 413.92 285.499 401.68C287.586 394.22 291.356 385.99 296.809 376.99C302.219 368.05 310.619 359.74 318.179 353.06C322.106 349.587 326.869 346.163 332.469 342.79C338.403 339.217 343.603 336.48 348.069 334.58C353.099 332.43 359.909 329.37 365.709 327.81C372.263 326.05 378.269 324.733 383.729 323.86C390.176 322.82 395.323 322.08 399.169 321.64C402.749 321.233 407.946 321.043 414.759 321.07C431.726 321.13 447.073 322.52 460.799 325.24C464.686 326.007 473.889 328.177 488.409 331.75C493.339 332.97 498.029 335.17 502.779 335.97C503.237 336.05 503.681 336.194 504.099 336.4C506.133 337.407 508.139 338.02 510.119 338.24C510.79 338.32 511.442 338.488 512.059 338.74C515.759 340.26 525.199 343.13 532.039 345.85C534.926 347.003 538.163 347.833 541.749 348.34C542.102 348.393 542.447 348.477 542.779 348.59C548.359 350.52 551.779 351.91 556.459 351.66C556.501 351.655 556.54 351.637 556.571 351.609C556.601 351.581 556.623 351.544 556.632 351.504C556.64 351.463 556.636 351.42 556.62 351.382C556.603 351.344 556.575 351.312 556.539 351.29C545.639 345.517 539.636 342.363 538.529 341.83C536.009 340.6 534.089 339.97 531.229 339.15C530.896 339.05 530.572 338.923 530.259 338.77C524.146 335.817 520.209 334.01 518.449 333.35C510.743 330.457 503.986 327.673 498.179 325C495.469 323.75 491.759 323.02 489.679 322.31C484.066 320.377 478.726 318.573 473.659 316.9C469.833 315.633 467.283 314.857 466.009 314.57C463.409 313.983 460.836 313.3 458.289 312.52C456.076 311.84 452.199 310.883 446.659 309.65C438.646 307.87 433.806 306.773 432.139 306.36C427.246 305.14 423.869 304.423 422.009 304.21C418.123 303.75 414.709 303.233 411.769 302.66C406.676 301.68 401.546 301.05 396.379 300.77C382.439 300.017 371.233 299.9 362.759 300.42C352.849 301.03 346.839 302.06 334.469 304.22C330.769 304.867 327.593 305.677 324.939 306.65C322.673 307.477 319.563 308.513 315.609 309.76C310.663 311.32 306.096 313.123 301.909 315.17C293.349 319.363 285.106 324.45 277.179 330.43C276.919 330.63 274.386 332.707 269.579 336.66C266.626 339.093 264.253 341.34 262.459 343.4C256.579 350.127 252.933 354.597 251.519 356.81C250.406 358.543 248.259 362.133 245.079 367.58C242.879 371.347 241.066 375.1 239.639 378.84C237.793 383.667 236.113 388.377 234.599 392.97C233.839 395.283 233.259 397.543 232.859 399.75C231.729 405.9 230.259 411.27 229.789 416.95C228.963 427.137 229.036 438 230.009 449.54C230.296 452.967 230.759 456.267 231.399 459.44C231.959 462.24 232.509 465.517 233.049 469.27C233.683 473.683 234.783 478.543 236.349 483.85C241.679 501.92 245.049 513.94 252.089 528.96C252.809 530.5 253.339 532.3 253.969 533.77C257.096 540.983 260.776 548.803 265.009 557.23C266.956 561.11 269.313 565.317 272.079 569.85C277.789 579.24 280.059 584.15 285.469 591.41C287.329 593.91 289.236 597.017 291.189 600.73C291.806 601.911 292.584 603.005 293.499 603.98C295.626 606.253 297.493 608.747 299.099 611.46C300.569 613.93 302.749 615.6 304.329 617.92C309.723 625.813 313.359 630.853 315.239 633.04C320.846 639.573 331.606 651.37 347.519 668.43C350.606 671.743 354.269 675.337 358.509 679.21C365.179 685.3 371.469 691.06 378.489 695.71C378.638 695.807 378.81 695.863 378.988 695.872C379.165 695.881 379.342 695.842 379.499 695.76C380.093 695.44 380.263 694.933 380.009 694.24C391.043 704.347 400.956 712.767 409.749 719.5C419.276 726.793 431.406 734.903 446.139 743.83C474.293 760.883 503.416 774.18 533.509 783.72C536.736 784.747 545.029 787.123 558.389 790.85C561.019 791.59 563.379 794.41 562.279 797.29C560.909 800.86 557.229 801.2 553.989 800.68C549.019 799.88 544.259 799.79 539.379 798.93C510.273 793.777 482.259 784.497 455.339 771.09C430.526 758.737 407.176 744.117 385.289 727.23C334.496 688.05 292.379 641.503 258.939 587.59C240.149 557.31 225.969 522.94 216.419 487.67C212.653 473.75 209.983 458.823 208.409 442.89C208.176 440.523 208.083 433.777 208.129 422.65C208.163 414.71 208.659 407.983 209.619 402.47C214.419 374.897 224.719 350.663 240.519 329.77C257.809 306.91 286.469 291.74 314.559 284.95C336.699 279.6 359.719 278.55 382.719 280.45C391.673 281.183 402.399 282.637 414.899 284.81C422.319 286.11 428.679 286.78 435.499 287.57C440.219 288.11 444.206 288.937 447.459 290.05C452.329 291.72 458.089 293.73 463.039 295.01C477.613 298.777 491.776 303.44 505.529 309C521.816 315.587 537.986 322.737 554.039 330.45C564.926 335.683 575.009 341.357 584.289 347.47C608.279 363.27 629.539 379.46 647.299 400.18C646.073 400.92 645.836 401.77 646.589 402.73C649.903 406.983 653.343 411.12 656.909 415.14C659.249 417.773 660.923 419.89 661.929 421.49C666.069 428.07 669.769 433.08 672.719 438.59C675.093 443.023 677.109 446.447 678.769 448.86C681.509 452.84 682.869 457.36 684.879 460.84C686.766 464.1 688.246 467.093 689.319 469.82C692.179 477.13 696.499 484.86 699.059 492.94C699.333 493.8 700.359 496.777 702.139 501.87C702.539 503.023 703.813 508.833 705.959 519.3C707.386 526.26 708.166 532.127 708.299 536.9C708.669 550.17 707.069 564.32 701.829 576.86C700.329 580.43 699.319 583.97 697.579 587.32C690.866 600.227 681.653 611.097 669.939 619.93C669.679 620.13 667.226 621.833 662.579 625.04C658.739 627.69 654.619 629.23 651.099 631.65C650.376 632.154 649.589 632.561 648.759 632.86C637.699 636.84 631.669 638.947 630.669 639.18C616.083 642.553 603.866 644.457 594.019 644.89C583.826 645.337 571.159 644.947 556.019 643.72C552.453 643.427 542.709 641.62 526.789 638.3C526.096 638.153 524.346 637.667 521.539 636.84C520.166 636.433 518.399 635.977 516.239 635.47C510.473 634.11 505.046 632.44 499.959 630.46C492.549 627.57 485.949 625.45 479.399 621.85C475.439 619.67 471.219 618.25 467.329 616.17C464.049 614.423 456.419 610.507 444.439 604.42C443.559 603.98 442.509 602.65 441.709 602.58C441.639 602.574 441.568 602.588 441.505 602.62C441.442 602.652 441.389 602.701 441.353 602.761C441.317 602.821 441.3 602.889 441.303 602.958C441.306 603.027 441.329 603.094 441.369 603.15C442.236 604.417 442.763 605.12 442.949 605.26C445.196 606.927 449.023 610.057 454.429 614.65C457.796 617.503 461.423 620.087 465.309 622.4C470.883 625.727 477.886 629.977 486.319 635.15C493.139 639.337 499.213 642.717 504.539 645.29C512.846 649.297 519.163 652.193 523.489 653.98C533.883 658.273 545.099 661.63 557.139 664.05C563.606 665.357 570.039 666.513 576.439 667.52C591.339 669.86 605.959 670.393 620.299 669.12C623.213 668.86 625.833 668.493 628.159 668.02C634.999 666.61 640.479 666.01 647.569 664.11C655.369 662.03 659.439 660.923 659.779 660.79C670.733 656.59 679.886 652.247 687.239 647.76C693.039 644.22 700.639 638.15 710.039 629.55C711.106 628.577 714.956 624.087 721.589 616.08C721.815 615.814 722.01 615.526 722.169 615.22C723.709 612.247 725.376 609.483 727.169 606.93C727.696 606.183 728.983 603.72 731.029 599.54C733.919 593.64 736.309 584.67 737.919 580.62C738.065 580.27 738.143 579.893 738.149 579.51C738.169 578.883 738.689 576.143 739.709 571.29C742.029 560.25 741.379 547.55 740.559 535.25C740.439 533.543 740.099 531.27 739.539 528.43C739.186 526.603 738.936 524.31 738.789 521.55C738.716 520.15 737.556 516.207 735.309 509.72C735.209 509.427 735.133 509.129 735.079 508.83C734.606 506.043 734.003 503.593 733.269 501.48C730.529 493.58 727.499 486.24 723.439 478.71C722.186 476.383 720.683 473.45 718.929 469.91C716.909 465.82 714.639 462.54 712.919 459.34C709.799 453.51 703.849 445.8 701.489 441.69C699.149 437.61 696.629 435.23 694.009 431.21C692.516 428.93 690.593 426.383 688.239 423.57C685.709 420.56 682.449 416.62 679.599 413.8C672.306 406.587 667.573 401.81 665.399 399.47C659.119 392.69 651.639 386.38 646.399 380.88C646.149 380.616 645.845 380.408 645.509 380.27C642.009 378.83 638.259 374.41 632.049 368.77C630.656 367.503 628.799 366.843 626.479 366.79C615.469 356.03 603.319 347.02 591.039 337.96C567.419 320.53 541.579 305.33 514.939 292.15C483.729 276.71 453.899 264.15 422.539 256.51C404.073 252.01 390.963 249.227 383.209 248.16C372.129 246.633 364.943 245.657 361.649 245.23C354.143 244.263 347.356 243.767 341.289 243.74C324.843 243.653 314.959 243.713 311.639 243.92C307.959 244.153 301.276 244.987 291.589 246.42C256.339 251.63 222.649 268.65 200.449 295.94C186.729 312.8 176.996 331.397 171.249 351.73C169.363 358.403 168.259 363.897 167.939 368.21C167.639 372.263 167.493 376.373 167.499 380.54C167.499 384.5 166.759 388.75 161.689 387.57C161.299 387.479 160.947 387.27 160.679 386.97C159.679 385.843 159.063 384.747 158.829 383.68C156.309 372.09 155.889 361.97 155.739 348.01C155.289 306.4 176.919 269.29 211.649 246.92C237.399 230.33 267.269 222.54 297.989 220.33C307.716 219.63 320.046 219.637 334.979 220.35C344.306 220.797 356.899 222.35 372.759 225.01C382.119 226.583 394.679 229.337 410.439 233.27C425.753 237.097 443.996 243.003 465.169 250.99C532.119 276.23 595.499 311.3 648.379 359.78C653.666 364.627 659.276 369.73 665.209 375.09C672.416 381.603 679.213 388.46 685.599 395.66C688.886 399.367 695.089 406.907 704.209 418.28C715.149 431.927 725.346 446.983 734.799 463.45C747.219 485.08 756.429 507.41 761.069 531.79C763.643 545.33 764.343 558.517 763.169 571.35C760.479 600.79 749.559 627.93 727.989 649.16C712.303 664.613 694.813 675.903 675.519 683.03C672.819 684.03 671.109 684.823 670.389 685.41ZM420.859 574.36C420.913 573.293 420.503 572.293 419.629 571.36C416.563 568.087 414.096 564.997 412.229 562.09C410.849 559.93 409.386 557.86 407.839 555.88C406.926 554.707 405.579 552.473 403.799 549.18C401.449 544.82 397.649 540.26 395.419 535.71C391.059 526.843 388.249 520.383 386.989 516.33C382.249 501.1 378.919 486.3 379.359 470.78C379.639 461.32 380.089 455.22 383.199 447.2C385.906 440.213 389.099 433.753 392.779 427.82C393.239 427.08 394.106 425.9 395.379 424.28C397.589 421.48 399.349 418.74 402.419 415.72C405.779 412.41 409.879 407.57 414.089 404.73C417.169 402.65 421.173 399.977 426.099 396.71C429.893 394.203 434.189 392.083 438.989 390.35C449.929 386.41 460.683 384.12 471.249 383.48C473.449 383.347 479.063 383.177 488.089 382.97C488.342 382.963 488.6 382.98 488.859 383.02C491.059 383.36 493.106 383.327 494.999 382.92C495.098 382.9 495.187 382.844 495.248 382.764C495.31 382.684 495.34 382.584 495.334 382.483C495.328 382.382 495.286 382.287 495.215 382.215C495.144 382.143 495.05 382.098 494.949 382.09C491.169 381.73 487.579 380.47 483.479 380.1C476.659 379.473 472.749 379.147 471.749 379.12C458.136 378.76 444.496 379.543 430.829 381.47C425.769 382.18 420.679 384.05 416.049 385.22C403.409 388.4 391.719 395.24 382.429 404.16C377.689 408.713 374.866 411.567 373.959 412.72C373.026 413.907 370.299 418.267 365.779 425.8C365.46 426.331 365.205 426.899 365.019 427.49C363.449 432.42 361.669 436.45 360.729 441.62C359.323 449.32 358.876 457.283 359.389 465.51C359.616 469.083 360.096 473.233 360.829 477.96C361.416 481.787 362.293 485.403 363.459 488.81C363.626 489.309 363.753 489.821 363.839 490.34C364.166 492.273 364.469 493.67 364.749 494.53C366.623 500.217 369.303 506.697 372.789 513.97C374.856 518.27 376.723 521.67 378.389 524.17C381.169 528.34 382.399 531.19 385.809 535.51C385.989 535.743 386.673 536.743 387.859 538.51C391.013 543.21 396.673 550.323 404.839 559.85C409.769 565.61 414.929 569.71 420.199 574.62C420.253 574.672 420.321 574.707 420.394 574.722C420.467 574.736 420.543 574.729 420.613 574.702C420.682 574.675 420.743 574.628 420.786 574.567C420.83 574.506 420.855 574.435 420.859 574.36ZM433.499 428.99C416.639 441.83 405.209 462.81 404.229 484.46C403.179 507.75 410.279 530.61 424.389 548.82C455.849 589.45 513.399 611.3 563.559 597.67C591.759 590 617.379 568.96 623.019 539.64C625.966 524.3 625.389 509.187 621.289 494.3C613.209 464.94 590.519 439.71 563.379 425.12C540.979 413.087 517.123 407.533 491.809 408.46C469.856 409.267 450.419 416.11 433.499 428.99Z" fill="#FFB01A"/>
<path d="M278.57 451.76C277.27 451.12 276.377 451.427 275.89 452.68C273.984 457.547 272.73 461.917 272.13 465.79C271.577 469.357 271.117 472.273 270.75 474.54C269.37 483.11 269.55 492.47 269.75 500.65C269.85 504.737 270.174 508.133 270.72 510.84C271.64 515.37 271.71 519.42 272.78 524.33C275.274 535.703 278.347 546.103 282 555.53C284.54 562.08 288.4 571.72 292.22 579.15C297.367 589.17 301.247 596.583 303.86 601.39C310.15 612.97 319.06 625.98 328.65 638.16C339.857 652.387 347.927 662.297 352.86 667.89C359.814 675.757 368.864 684.54 380.01 694.24C380.264 694.933 380.094 695.44 379.5 695.76C379.343 695.842 379.166 695.881 378.988 695.872C378.811 695.863 378.639 695.807 378.49 695.71C371.47 691.06 365.18 685.3 358.51 679.21C354.27 675.337 350.607 671.743 347.52 668.43C331.607 651.37 320.847 639.573 315.24 633.04C313.36 630.853 309.724 625.813 304.33 617.92C302.75 615.6 300.57 613.93 299.1 611.46C297.494 608.747 295.627 606.253 293.5 603.98C292.585 603.005 291.807 601.911 291.19 600.73C289.237 597.017 287.33 593.91 285.47 591.41C280.06 584.15 277.79 579.24 272.08 569.85C269.314 565.317 266.957 561.11 265.01 557.23C260.777 548.803 257.097 540.983 253.97 533.77C253.34 532.3 252.81 530.5 252.09 528.96C245.05 513.94 241.68 501.92 236.35 483.85C234.784 478.543 233.684 473.683 233.05 469.27C232.51 465.517 231.96 462.24 231.4 459.44C230.76 456.267 230.297 452.967 230.01 449.54C229.037 438 228.964 427.137 229.79 416.95C230.26 411.27 231.73 405.9 232.86 399.75C233.26 397.543 233.84 395.283 234.6 392.97C236.114 388.377 237.794 383.667 239.64 378.84C241.067 375.1 242.88 371.347 245.08 367.58C248.26 362.133 250.407 358.543 251.52 356.81C252.934 354.597 256.58 350.127 262.46 343.4C264.254 341.34 266.627 339.093 269.58 336.66C274.387 332.707 276.92 330.63 277.18 330.43C285.107 324.45 293.35 319.363 301.91 315.17C306.097 313.123 310.664 311.32 315.61 309.76C319.564 308.513 322.674 307.477 324.94 306.65C327.594 305.677 330.77 304.867 334.47 304.22C346.84 302.06 352.85 301.03 362.76 300.42C371.234 299.9 382.44 300.017 396.38 300.77C401.547 301.05 406.677 301.68 411.77 302.66C414.71 303.233 418.124 303.75 422.01 304.21C423.87 304.423 427.247 305.14 432.14 306.36C433.807 306.773 438.647 307.87 446.66 309.65C452.2 310.883 456.077 311.84 458.29 312.52C460.837 313.3 463.41 313.983 466.01 314.57C467.284 314.857 469.834 315.633 473.66 316.9C478.727 318.573 484.067 320.377 489.68 322.31C491.76 323.02 495.47 323.75 498.18 325C503.987 327.673 510.744 330.457 518.45 333.35C520.21 334.01 524.147 335.817 530.26 338.77C530.573 338.923 530.897 339.05 531.23 339.15C534.09 339.97 536.01 340.6 538.53 341.83C539.637 342.363 545.64 345.517 556.54 351.29C556.576 351.312 556.604 351.344 556.621 351.382C556.637 351.42 556.641 351.463 556.633 351.504C556.624 351.544 556.602 351.581 556.571 351.609C556.54 351.637 556.502 351.655 556.46 351.66C551.78 351.91 548.36 350.52 542.78 348.59C542.448 348.477 542.103 348.393 541.75 348.34C538.164 347.833 534.927 347.003 532.04 345.85C525.2 343.13 515.76 340.26 512.06 338.74C511.443 338.488 510.79 338.32 510.12 338.24C508.14 338.02 506.134 337.407 504.1 336.4C503.682 336.194 503.238 336.05 502.78 335.97C498.03 335.17 493.34 332.97 488.41 331.75C473.89 328.177 464.687 326.007 460.8 325.24C447.074 322.52 431.727 321.13 414.76 321.07C407.947 321.043 402.75 321.233 399.17 321.64C395.324 322.08 390.177 322.82 383.73 323.86C378.27 324.733 372.264 326.05 365.71 327.81C359.91 329.37 353.1 332.43 348.07 334.58C343.604 336.48 338.404 339.217 332.47 342.79C326.87 346.163 322.107 349.587 318.18 353.06C310.62 359.74 302.22 368.05 296.81 376.99C291.357 385.99 287.587 394.22 285.5 401.68C282.074 413.92 280.177 422.947 279.81 428.76C279.33 436.327 278.917 443.993 278.57 451.76Z" fill="#FFD23B"/>
<path d="M670.39 685.41C673.45 686.337 676.88 686.41 680.68 685.63C688.754 683.963 695.224 682.183 700.09 680.29C706.744 677.703 713.254 674.793 719.62 671.56C732.72 664.913 744.57 656.553 755.17 646.48C760.45 659.34 760.454 672.237 755.18 685.17C754.374 687.15 752.51 690.733 749.59 695.92C749.426 696.202 749.196 696.439 748.92 696.61C742.267 700.697 738.43 702.95 737.41 703.37C733.984 704.797 729.454 706.817 723.82 709.43C712.68 714.62 700.33 717.84 689.17 720.62C677.21 723.61 665.31 724.89 652.25 725.39C637.577 725.963 623.307 725.703 609.44 724.61C604.88 724.25 600.934 723.777 597.6 723.19C592.38 722.27 587.03 722.09 581.84 720.92C574.17 719.19 569.55 718.74 563.79 716.78C560.54 715.67 556.56 715.48 552.47 714.17C544.31 711.55 539.487 709.957 538 709.39C532.97 707.47 528.95 706.72 523.79 704.42C522.5 703.84 520.86 703.62 519.68 703.08C516.68 701.727 509.524 698.553 498.21 693.56C490.78 690.28 484.7 686.32 477.75 683.11C474.037 681.403 470.607 679.397 467.46 677.09C467.075 676.811 466.663 676.57 466.23 676.37C461.724 674.27 457.98 672.037 455 669.67C450.52 666.11 445.73 663.69 440.74 660.05C436.167 656.71 432.564 654.15 429.93 652.37C428.13 651.157 423.49 647.28 416.01 640.74C415.491 640.287 414.936 639.876 414.35 639.51C409.25 636.32 404.69 631.05 401.66 628.49C394.37 622.35 388.82 616.19 381.77 608.73C374.384 600.917 368.74 594.707 364.84 590.1C363.007 587.933 361.604 586.15 360.63 584.75C358.89 582.23 356.95 580.42 355.1 577.81C351.574 572.823 348.06 567.773 344.56 562.66C342.57 559.74 341.01 557.1 338.33 553.28C333.21 546.01 329.55 538.5 324.71 529.16C323.157 526.167 322.07 523.757 321.45 521.93C320.28 518.51 318.38 516.01 316.95 512.37C312.65 501.417 309.147 490.057 306.44 478.29C305.614 474.703 304.89 470.82 304.27 466.64C303.75 463.187 303.497 459.25 303.51 454.83C303.537 447.023 303.734 441.103 304.1 437.07C304.274 435.223 304.98 431.207 306.22 425.02C308.62 413.06 313.41 401.34 320.1 392.07C323.307 387.637 328.1 382.19 334.48 375.73C336.66 373.537 340.544 370.28 346.13 365.96C349.997 362.973 354.367 360.417 359.24 358.29C369.507 353.823 376.69 350.97 380.79 349.73C391.75 346.43 403.077 344.17 414.77 342.95C422.21 342.177 429.374 342.01 436.26 342.45C443.72 342.94 447.98 342.97 454.21 343.9C465.53 345.587 471.62 346.51 472.48 346.67C475.074 347.15 477.067 347.617 478.46 348.07C482.4 349.34 485.87 349.25 489.71 350.64C490.624 350.967 492.364 351.327 494.93 351.72C495.641 351.833 496.333 352.038 496.99 352.33C499.73 353.57 503.51 353.9 506.5 355.14C508.61 356.01 510.96 356.06 513.42 356.8C522.194 359.44 527.177 360.937 528.37 361.29C535.05 363.24 541.91 366.42 549.35 369.18C553.53 370.733 556.697 372.147 558.85 373.42C562.41 375.53 566.73 377.03 571.06 379.67C577.807 383.777 582.43 386.473 584.93 387.76C587.89 389.29 590.12 391.4 593.25 393.05C594.05 393.47 595.117 394.23 596.45 395.33C602.944 400.69 607.26 404.2 609.4 405.86C619.76 413.9 628.19 422.51 637.32 431.57C639.734 433.97 641.844 436.383 643.65 438.81C648.3 445.07 649.78 446.58 654.09 451.96C655.544 453.773 656.9 455.763 658.16 457.93C659.947 461.003 662.13 464.407 664.71 468.14C665.95 469.933 669.257 475.88 674.63 485.98C674.816 486.332 674.957 486.708 675.05 487.1C675.657 489.653 676.474 492.087 677.5 494.4C679.08 497.973 680.02 500.377 680.32 501.61C681.34 505.73 682.97 509.45 683.89 513.71C686.29 524.803 687.24 535.473 686.74 545.72C686.43 552.09 685.18 557.01 684.01 563.54C683.2 568.06 681.65 571.29 680.09 576.44C679.944 576.925 679.739 577.385 679.48 577.81C675.854 583.863 672.357 588.673 668.99 592.24C665.53 595.9 659.77 602.05 654.52 605.7C647.874 610.333 640.684 614.19 632.95 617.27C629.617 618.603 626.44 619.597 623.42 620.25C619.37 621.13 615.4 622.46 610.43 623.16C605.517 623.853 600.717 624.463 596.03 624.99C590.157 625.657 581.457 625.59 569.93 624.79C569.465 624.757 569.005 624.666 568.56 624.52C566.22 623.753 563.77 623.457 561.21 623.63C561.047 623.641 560.885 623.595 560.751 623.501C560.617 623.406 560.518 623.269 560.47 623.11L560.45 623.05C560.431 622.988 560.426 622.923 560.435 622.858C560.445 622.794 560.47 622.733 560.508 622.679C560.545 622.625 560.594 622.58 560.652 622.547C560.71 622.515 560.774 622.495 560.84 622.49C570.18 621.85 576.297 621.16 579.19 620.42C583.96 619.19 587.63 619.08 591.94 617.64C600.934 614.653 607.624 612.183 612.01 610.23C619.044 607.103 626.334 602.403 633.88 596.13C637.97 592.73 641.21 588.16 644.85 584.74C645.825 583.825 646.657 582.767 647.32 581.6C651.627 573.98 654.16 569.32 654.92 567.62C655.607 566.087 657.247 560.643 659.84 551.29C660.77 547.91 661.15 543.11 661.14 540.94C661.047 528.313 660.734 519.833 660.2 515.5C659.65 511 659.37 507.81 658.18 504.39C657.44 502.25 657.29 499.66 656.67 497.21C654.644 489.27 652.407 482.713 649.96 477.54C648.03 473.44 644.65 468.48 641.98 462.97C639.847 458.57 637.217 454.413 634.09 450.5C630.97 446.6 629.36 443.72 626.4 440.38C621.92 435.307 618.96 431.96 617.52 430.34C611.454 423.547 604.937 417.363 597.97 411.79C596.524 410.63 594.537 408.783 592.01 406.25C591.605 405.845 591.159 405.486 590.68 405.18C587.73 403.3 585.36 400.82 582.78 398.8C577.44 394.613 573.404 391.797 570.67 390.35C567.437 388.637 565.304 387.453 564.27 386.8C561.81 385.247 559.7 384.017 557.94 383.11C543.787 375.803 528.88 369.73 513.22 364.89C509.12 363.62 505.58 363.08 502.12 362.05C498.714 361.03 496.12 360.423 494.34 360.23C490.41 359.79 487.76 358.81 483.84 358.48C468.82 357.22 456.204 357.14 445.99 358.24C435.25 359.4 423.537 361.683 410.85 365.09C404.697 366.737 400.427 368.13 398.04 369.27C381.45 377.21 365.44 387.35 355.29 402.95C352.56 407.14 349.16 411.08 346.92 416.14C341.94 427.447 339.067 438.747 338.3 450.04C337.28 465.007 338.647 480.227 342.4 495.7C343.147 498.787 343.917 501.41 344.71 503.57C345.59 505.957 346.444 508.54 347.27 511.32C352.34 528.28 360.3 544.55 370.64 559.49C374.514 565.083 377.34 569.17 379.12 571.75C382.37 576.46 385.99 580.38 389.11 584.83C389.89 585.95 391.337 587.573 393.45 589.7C397.51 593.79 403.83 601.76 409.49 606.58C412.59 609.21 414.83 611.99 418.14 614.97C426.12 622.15 430.04 626.12 436.65 630.92C443.98 636.24 451.58 643.06 459.45 647.52C465.18 650.76 470.19 654.86 476.51 657.96C491.084 665.107 500.974 669.643 506.18 671.57C517.86 675.877 529.104 679.61 539.91 682.77C540.53 682.957 541.504 683.207 542.83 683.52C559.817 687.567 571.714 689.947 578.52 690.66C583.18 691.16 586.2 691.94 590.53 692.15C597.844 692.51 607.5 692.647 619.5 692.56C629.514 692.493 637.774 691.883 644.28 690.73C645.167 690.57 647.767 690.113 652.08 689.36C655.54 688.753 658.13 688.233 659.85 687.8C663.404 686.9 666.917 686.103 670.39 685.41Z" fill="#FFD23B"/>
<path d="M647.3 400.18C651.793 404.947 656.21 409.783 660.55 414.69C661.343 415.59 662.233 416.09 663.219 416.19C663.351 416.202 663.484 416.178 663.604 416.122C663.723 416.066 663.826 415.979 663.9 415.871C663.975 415.763 664.019 415.637 664.027 415.507C664.036 415.376 664.009 415.246 663.95 415.13C657.863 403.11 650.413 392.037 641.6 381.91C639.466 379.463 634.426 374.423 626.48 366.79C628.8 366.843 630.656 367.503 632.05 368.77C638.26 374.41 642.01 378.83 645.51 380.27C645.846 380.408 646.149 380.616 646.4 380.88C651.64 386.38 659.12 392.69 665.4 399.47C667.573 401.81 672.306 406.587 679.6 413.8C682.45 416.62 685.71 420.56 688.24 423.57C690.593 426.383 692.516 428.93 694.01 431.21C696.63 435.23 699.15 437.61 701.49 441.69C703.85 445.8 709.8 453.51 712.92 459.34C714.64 462.54 716.91 465.82 718.93 469.91C720.683 473.45 722.186 476.383 723.44 478.71C727.5 486.24 730.53 493.58 733.27 501.48C734.003 503.593 734.606 506.043 735.08 508.83C735.133 509.13 735.21 509.427 735.31 509.72C737.556 516.207 738.716 520.15 738.79 521.55C738.936 524.31 739.186 526.603 739.54 528.43C740.1 531.27 740.44 533.543 740.56 535.25C741.38 547.55 742.03 560.25 739.71 571.29C738.69 576.143 738.17 578.883 738.15 579.51C738.143 579.893 738.065 580.27 737.92 580.62C736.31 584.67 733.92 593.64 731.03 599.54C728.983 603.72 727.696 606.183 727.17 606.93C725.376 609.483 723.71 612.247 722.17 615.22C722.01 615.526 721.815 615.814 721.59 616.08C714.956 624.087 711.106 628.577 710.04 629.55C700.64 638.15 693.04 644.22 687.24 647.76C679.886 652.247 670.733 656.59 659.78 660.79C659.44 660.923 655.37 662.03 647.57 664.11C640.48 666.01 634.999 666.61 628.16 668.02C625.833 668.493 623.213 668.86 620.3 669.12C605.96 670.393 591.34 669.86 576.44 667.52C570.04 666.513 563.606 665.357 557.14 664.05C545.1 661.63 533.883 658.273 523.49 653.98C519.163 652.193 512.846 649.297 504.54 645.29C499.213 642.717 493.14 639.337 486.32 635.15C477.886 629.977 470.883 625.727 465.31 622.4C461.423 620.087 457.796 617.503 454.43 614.65C449.023 610.057 445.196 606.927 442.95 605.26C442.763 605.12 442.236 604.417 441.37 603.15C441.329 603.094 441.306 603.028 441.303 602.959C441.3 602.89 441.318 602.821 441.354 602.761C441.389 602.701 441.442 602.652 441.505 602.62C441.568 602.588 441.639 602.574 441.71 602.58C442.51 602.65 443.56 603.98 444.44 604.42C456.42 610.507 464.05 614.423 467.33 616.17C471.22 618.25 475.44 619.67 479.4 621.85C485.95 625.45 492.55 627.57 499.96 630.46C505.046 632.44 510.473 634.11 516.24 635.47C518.4 635.977 520.166 636.433 521.54 636.84C524.346 637.667 526.096 638.153 526.79 638.3C542.71 641.62 552.453 643.427 556.02 643.72C571.16 644.947 583.826 645.337 594.02 644.89C603.866 644.457 616.083 642.553 630.67 639.18C631.67 638.947 637.7 636.84 648.76 632.86C649.589 632.561 650.376 632.155 651.1 631.65C654.62 629.23 658.74 627.69 662.58 625.04C667.226 621.833 669.68 620.13 669.94 619.93C681.653 611.097 690.866 600.227 697.58 587.32C699.32 583.97 700.33 580.43 701.83 576.86C707.07 564.32 708.67 550.17 708.3 536.9C708.166 532.127 707.386 526.26 705.96 519.3C703.813 508.833 702.54 503.023 702.14 501.87C700.36 496.777 699.333 493.8 699.06 492.94C696.5 484.86 692.18 477.13 689.32 469.82C688.246 467.093 686.766 464.1 684.88 460.84C682.87 457.36 681.51 452.84 678.77 448.86C677.11 446.447 675.093 443.023 672.719 438.59C669.77 433.08 666.07 428.07 661.93 421.49C660.923 419.89 659.249 417.773 656.91 415.14C653.343 411.12 649.903 406.983 646.59 402.73C645.836 401.77 646.073 400.92 647.3 400.18Z" fill="#FFD23B"/>
<path d="M420.859 574.36C420.855 574.435 420.83 574.507 420.786 574.567C420.743 574.628 420.682 574.675 420.613 574.702C420.543 574.729 420.467 574.736 420.394 574.722C420.321 574.707 420.253 574.672 420.199 574.62C414.929 569.71 409.769 565.61 404.839 559.85C396.673 550.323 391.013 543.21 387.859 538.51C386.673 536.743 385.989 535.743 385.809 535.51C382.399 531.19 381.169 528.34 378.389 524.17C376.723 521.67 374.856 518.27 372.789 513.97C369.303 506.697 366.623 500.217 364.749 494.53C364.469 493.67 364.166 492.273 363.839 490.34C363.753 489.821 363.626 489.309 363.459 488.81C362.293 485.403 361.416 481.787 360.829 477.96C360.096 473.233 359.616 469.083 359.389 465.51C358.876 457.283 359.323 449.32 360.729 441.62C361.669 436.45 363.449 432.42 365.019 427.49C365.205 426.899 365.461 426.331 365.779 425.8C370.299 418.267 373.026 413.907 373.959 412.72C374.866 411.567 377.689 408.713 382.429 404.16C391.719 395.24 403.409 388.4 416.049 385.22C420.679 384.05 425.769 382.18 430.829 381.47C444.496 379.543 458.136 378.76 471.749 379.12C472.749 379.147 476.659 379.473 483.479 380.1C487.579 380.47 491.169 381.73 494.949 382.09C495.05 382.098 495.145 382.143 495.215 382.215C495.286 382.287 495.328 382.382 495.334 382.483C495.34 382.584 495.31 382.684 495.248 382.764C495.187 382.844 495.098 382.9 494.999 382.92C493.106 383.327 491.059 383.36 488.859 383.02C488.6 382.98 488.342 382.963 488.089 382.97C479.063 383.177 473.449 383.347 471.249 383.48C460.683 384.12 449.929 386.41 438.989 390.35C434.189 392.083 429.893 394.203 426.099 396.71C421.173 399.977 417.169 402.65 414.089 404.73C409.879 407.57 405.779 412.41 402.419 415.72C399.349 418.74 397.589 421.48 395.379 424.28C394.106 425.9 393.239 427.08 392.779 427.82C389.099 433.753 385.906 440.213 383.199 447.2C380.089 455.22 379.639 461.32 379.359 470.78C378.919 486.3 382.249 501.1 386.989 516.33C388.249 520.383 391.059 526.843 395.419 535.71C397.649 540.26 401.449 544.82 403.799 549.18C405.579 552.473 406.926 554.707 407.839 555.88C409.386 557.86 410.849 559.93 412.229 562.09C414.096 564.997 416.563 568.087 419.629 571.36C420.503 572.293 420.913 573.293 420.859 574.36Z" fill="#FFD23B"/>
<path d="M433.501 428.99C450.421 416.11 469.857 409.267 491.811 408.46C517.124 407.533 540.981 413.087 563.381 425.12C590.521 439.71 613.211 464.94 621.291 494.3C625.391 509.187 625.967 524.3 623.021 539.64C617.381 568.96 591.761 590 563.561 597.67C513.401 611.3 455.851 589.45 424.391 548.82C410.281 530.61 403.181 507.75 404.231 484.46C405.211 462.81 416.641 441.83 433.501 428.99Z" fill="#041720"/>
<path d="M865.691 650.38C869.078 649.073 871.614 650.133 873.301 653.56C874.094 655.173 874.204 657.46 873.631 660.42C869.791 680.333 863.154 698.293 853.721 714.3C833.031 749.4 796.631 775.32 758.671 788.84C745.378 793.58 732.568 797.023 720.241 799.17C713.428 800.357 704.268 801.54 692.761 802.72C682.601 803.76 672.778 803.747 663.291 802.68C658.431 802.14 655.441 797.01 659.511 793.3C660.224 792.653 661.671 792.197 663.851 791.93C670.944 791.057 677.318 790.14 682.971 789.18C712.964 784.107 741.231 774.49 767.771 760.33C804.378 740.81 832.521 713.127 852.201 677.28C856.601 669.26 860.591 659.74 863.921 652.08C864.089 651.694 864.332 651.344 864.635 651.052C864.939 650.761 865.298 650.532 865.691 650.38Z" fill="#FFB01A"/>
</svg>
