<svg width="1024" height="1024" viewBox="0 0 1024 1024" fill="none" xmlns="http://www.w3.org/2000/svg">
<path d="M563.841 165.02C550.821 158.8 539.477 151.57 529.811 143.33" stroke="#FFFAF5" stroke-width="2"/>
<path d="M529.809 143.33C517.369 131.204 508.459 122.4 503.079 116.92C499.839 113.614 494.233 107.634 486.259 98.9803C486.22 98.9389 486.168 98.9129 486.112 98.9074C486.057 98.9018 486.002 98.9171 485.959 98.9503L485.709 99.1403C485.707 99.1403 485.704 99.1414 485.702 99.1432C485.7 99.1451 485.699 99.1477 485.699 99.1503C485.699 99.153 485.7 99.1555 485.702 99.1574C485.704 99.1593 485.707 99.1603 485.709 99.1603L495.809 114.22" stroke="#FFC888" stroke-width="2"/>
<path d="M495.81 114.22C486.14 123.65 480.82 133.35 473 146.36" stroke="#FFFAF5" stroke-width="2"/>
<path d="M473 146.36C464.087 146.033 456.507 146.013 450.26 146.3C393.69 148.95 338.2 167.19 291.16 199.21" stroke="#FEC385" stroke-width="2"/>
<path d="M291.16 199.21C276.827 208.983 263.52 219.993 251.24 232.24C241.893 241.567 233.213 251.883 225.2 263.19C193.81 307.47 178.47 360.59 178.95 414.83C179.063 427.297 180.33 439.94 182.75 452.76C184.723 463.22 185.777 468.917 185.91 469.85C187.06 478.16 183.33 487.35 179.63 494.92C175.697 502.973 171.96 510.397 168.42 517.19C158.79 535.69 148.71 551.51 138.19 569.45C137.477 570.677 135.477 574.607 132.19 581.24C126.02 593.7 122.02 608.41 133.48 618.75C140.44 625.02 151.99 626.68 162.27 628.23C166.15 628.817 169.513 629.7 172.36 630.88C178.96 633.613 182.11 638.647 181.81 645.98C181.743 647.52 181.65 649.037 181.53 650.53" stroke="#FFC888" stroke-width="2"/>
<path d="M181.53 650.53C179.564 657.664 178.537 662.23 178.45 664.23C177.877 677.597 183.44 687.247 195.14 693.18C195.345 693.285 195.522 693.437 195.657 693.624C195.791 693.811 195.879 694.028 195.913 694.255C195.947 694.483 195.927 694.716 195.853 694.934C195.78 695.152 195.655 695.35 195.49 695.51C192.624 698.317 190.387 701.644 188.78 705.49C183.61 717.91 197.27 728.81 201.27 739.68C202.377 742.68 202.817 746.704 202.59 751.75C201.74 771.01 193.35 790.7 208.26 807.3C215.414 815.267 224.614 820.23 235.86 822.19" stroke="#FEC385" stroke-width="2"/>
<path d="M235.859 822.19C243.389 823.99 250.649 823.84 258.449 823.74C261.549 823.707 264.366 823.547 266.899 823.26C277.673 822.067 298.453 819.874 329.239 816.68C340.299 815.534 349.323 818.7 356.309 826.18C361.189 831.4 364.509 839.22 365.709 846.02C367.569 856.6 369.883 871.08 372.649 889.46C373.463 894.887 375.193 905.31 377.839 920.73C378.809 926.4 381.159 928.68 386.999 928.71C415.666 928.877 444.356 928.964 473.069 928.97" stroke="#FCBC83" stroke-width="2"/>
<path d="M473.07 928.97C547.437 929.117 621.83 929.04 696.25 928.74C699.67 928.727 701.87 928.444 702.85 927.89C707.624 925.184 709.417 921.134 708.23 915.74C701.044 883.18 696.91 864.497 695.83 859.69C690.084 834.004 685.84 807.55 683.1 780.33C681.09 760.36 680.56 739.44 681.81 721.74C682.61 710.38 684.904 699.107 688.69 687.92C694.357 671.174 701.464 655.867 710.01 642C718.87 627.62 727.38 615.32 735.89 600.38C743.79 586.514 748.464 578.193 749.91 575.42C765.33 545.913 775.074 515.93 779.14 485.47C783.77 450.82 777.11 414.88 757.71 385.53C755.63 382.377 753.54 379.344 751.44 376.43" stroke="#FBB881" stroke-width="2"/>
<path d="M751.439 376.43C749.999 364.11 749.849 353.22 755.159 341.85C757.806 336.197 762.123 329.847 768.109 322.8" stroke="#FFFAF5" stroke-width="2"/>
<path d="M768.111 322.8C768.958 323.3 769.878 323.79 770.871 324.27C772.721 325.15 774.171 324.97 775.461 323.42C784.488 312.58 793.138 300.71 801.411 287.81C801.487 287.693 801.536 287.56 801.554 287.421C801.571 287.283 801.558 287.142 801.513 287.009C801.469 286.877 801.396 286.756 801.298 286.655C801.201 286.555 801.082 286.478 800.951 286.43C789.001 282.03 776.761 274.07 767.481 268.03C765.954 267.037 764.338 267.153 762.631 268.38C760.064 270.22 758.451 271.417 757.791 271.97" stroke="#FBB881" stroke-width="2"/>
<path d="M757.789 271.97C742.369 261.9 729.709 249.87 722.599 232.54C720.826 228.234 719.193 222.424 717.699 215.11" stroke="#FFFAF5" stroke-width="2"/>
<path d="M717.699 215.11L772.679 169.96C772.704 169.934 772.718 169.9 772.721 169.865C772.725 169.829 772.716 169.793 772.696 169.763C772.676 169.733 772.647 169.711 772.614 169.699C772.58 169.688 772.543 169.688 772.509 169.7L736.039 187.97" stroke="#FCBC83" stroke-width="2"/>
<path d="M736.039 187.97C727.229 174.1 719.319 160.02 708.189 147.81" stroke="#FFFAF5" stroke-width="2"/>
<path d="M708.19 147.81C709.183 142.577 709.706 137.307 709.76 132C709.84 124.707 709.73 116.367 709.43 106.98C709.421 106.744 709.359 106.512 709.249 106.303C709.139 106.093 708.983 105.911 708.793 105.77C708.602 105.629 708.383 105.532 708.151 105.487C707.918 105.442 707.679 105.45 707.45 105.51C699.036 107.69 690.173 109.187 680.86 110C675.8 110.447 670.746 110.904 665.7 111.37C665.166 111.42 664.65 111.593 664.194 111.878C663.737 112.163 663.352 112.55 663.07 113.01C661.996 114.75 661.203 116.56 660.69 118.44C658.236 127.48 656.09 139.504 654.25 154.51C653.983 156.717 654.086 158.534 654.56 159.96C655.433 162.56 657.333 163.734 660.26 163.48C664.053 163.16 667.763 162.54 671.39 161.62" stroke="#FBB881" stroke-width="2"/>
<path d="M671.391 161.62L693.431 208.81" stroke="#FFFAF5" stroke-width="2"/>
<path d="M693.429 208.81C682.476 214.203 666.899 222.08 646.699 232.44C643.489 234.08 639.079 236.18 637.559 239.69C636.613 241.877 635.986 243.55 635.679 244.71C631.579 260.16 626.669 276.13 623.009 292.43C622.951 292.693 622.827 292.936 622.649 293.137C622.47 293.339 622.243 293.491 621.989 293.58C602.889 300.32 587.279 305.853 575.159 310.18C565.199 313.73 557.319 317.29 548.579 321.39C548.473 321.44 548.357 321.468 548.239 321.472C548.122 321.476 548.004 321.457 547.894 321.415C547.784 321.373 547.684 321.309 547.599 321.228C547.514 321.146 547.446 321.048 547.399 320.94C545.946 317.613 544.086 314.187 541.819 310.66C540.959 309.32 539.176 307.557 536.469 305.37C536.405 305.318 536.353 305.254 536.314 305.18C536.276 305.107 536.253 305.027 536.246 304.945C536.24 304.863 536.25 304.78 536.276 304.702C536.302 304.624 536.344 304.552 536.399 304.49C546.739 292.943 555.476 283.487 562.609 276.12C564.869 273.79 567.759 269.66 566.949 266.28C565.829 261.65 564.929 256.46 563.239 252.16C563.013 251.573 560.099 241.997 554.499 223.43C553.666 220.683 554.036 218.17 555.609 215.89C565.623 201.357 576.676 187.54 588.769 174.44C589.1 174.084 589.301 173.626 589.339 173.14C589.489 171.44 588.979 169.67 588.759 167.1C585.999 133.613 583.756 100.913 582.029 69.0001C581.883 66.3468 581.753 63.5301 581.639 60.5501C581.626 60.2101 581.536 59.9834 581.369 59.8701C581.28 59.8083 581.178 59.7693 581.07 59.7566C580.962 59.7438 580.852 59.7576 580.749 59.7967C580.647 59.8358 580.554 59.8992 580.479 59.9816C580.404 60.0639 580.35 60.1628 580.319 60.2701C579.699 62.4701 579.156 65.0634 578.689 68.0501C573.656 100.33 568.706 132.653 563.839 165.02" stroke="#FCBC83" stroke-width="2"/>
<path d="M693.43 208.81L736.04 187.97" stroke="#FCB779" stroke-width="2"/>
<path d="M717.7 215.11C708.59 222.85 699.72 230.84 690.78 238.78C688.52 240.787 684.233 243.684 677.92 247.47" stroke="#FCB779" stroke-width="2"/>
<path d="M677.92 247.47C671.714 251.17 665.55 255.017 659.43 259.01C656.74 260.76 656.07 262.25 655.09 265.08C653.97 268.33 652.47 271.99 651.66 275.53C648.874 287.737 645.56 299.807 641.72 311.74C640.22 316.387 637.194 319.604 632.64 321.39C623.767 324.877 613.804 328.25 602.75 331.51C585.18 336.7 571.41 341.22 555.81 345.82C554.717 346.14 553.037 346.714 550.77 347.54C550.379 347.685 550.023 347.91 549.723 348.199C549.424 348.488 549.188 348.836 549.03 349.22C543.804 361.987 537.79 374.897 530.99 387.95C530.853 388.217 530.793 388.516 530.818 388.814C530.843 389.111 530.951 389.394 531.13 389.63L563.05 432.42C563.328 432.795 563.502 433.235 563.556 433.697C563.611 434.158 563.543 434.625 563.36 435.05L546.97 473.47C546.949 473.517 546.942 473.569 546.95 473.62C546.957 473.671 546.979 473.718 547.013 473.757C547.046 473.796 547.09 473.824 547.139 473.839C547.189 473.854 547.241 473.854 547.29 473.84C547.437 473.807 547.66 473.6 547.96 473.22C559.487 458.76 567.094 448.707 570.78 443.06C571.547 441.9 572.62 441.444 574 441.69C583.274 443.337 593.4 444.417 604.38 444.93C605.074 444.965 605.738 445.222 606.275 445.663C606.811 446.104 607.192 446.706 607.36 447.38C608.18 450.654 609.527 455.654 611.4 462.38C612.37 465.9 612.21 468.05 610.65 471.14C606.67 479.054 602.557 486.747 598.31 494.22C598.187 494.439 598.137 494.692 598.17 494.94C598.202 495.187 598.315 495.416 598.49 495.59C599.644 496.75 601.914 499.277 605.3 503.17C607.9 506.15 610.17 502.41 611.59 500.35C616.95 492.577 621.587 484.647 625.5 476.56C627.92 471.56 629.264 468.57 629.53 467.59C630.217 465.057 630.27 461.777 629.69 457.75C629.084 453.53 628.134 447.994 626.84 441.14C625.967 436.507 624.44 431.907 622.26 427.34C622.151 427.105 621.991 426.895 621.793 426.724C621.595 426.553 621.362 426.426 621.11 426.35C608.19 422.584 595.247 419.984 582.28 418.55C580.4 418.344 578.83 417.417 577.57 415.77C575.19 412.677 573.304 409.997 571.91 407.73C568.17 401.69 564.62 397.87 560.56 391.95C559.13 389.87 558.6 388.12 559.43 385.94C561.204 381.28 563.42 375.864 566.08 369.69C567.32 366.81 567.84 365.09 570.42 364.36C590.2 358.794 609.897 352.83 629.51 346.47C629.663 346.421 629.824 346.404 629.983 346.422C630.143 346.44 630.296 346.492 630.434 346.575C630.571 346.657 630.689 346.768 630.78 346.9C630.871 347.032 630.933 347.182 630.96 347.34C632.414 355.654 633.457 363.034 634.09 369.48C634.5 373.67 636.34 374.72 639.91 376.1C641.924 376.88 647.007 378.794 655.16 381.84C658.77 383.18 660.64 386.66 662.54 389.97C665.374 394.89 668.08 399.34 670.66 403.32C670.702 403.385 670.766 403.433 670.84 403.453C670.915 403.473 670.994 403.465 671.063 403.43C671.131 403.395 671.185 403.336 671.212 403.264C671.239 403.192 671.239 403.112 671.21 403.04C666.48 390.91 663.28 381.26 660.52 369.77C660.443 369.451 660.292 369.156 660.078 368.907C659.864 368.658 659.594 368.464 659.29 368.34C657.09 367.434 655.214 366.657 653.66 366.01C651.52 365.11 650.92 364.05 650.49 361.77C649.484 356.517 648.787 352.427 648.4 349.5C648.234 348.227 648.72 346.85 649.86 345.37C656.374 336.924 662.55 327.6 668.39 317.4C669.07 316.207 669.917 315.3 670.93 314.68C671.259 314.481 671.65 314.406 672.03 314.47C681.897 316.21 691.624 318.467 701.21 321.24" stroke="#FCBC83" stroke-width="2"/>
<path d="M701.211 321.24C706.531 323.167 711.061 326.487 714.801 331.2C724.461 343.38 728.291 359.09 723.071 373.89C722.678 375.017 720.878 379.53 717.671 387.43C717.124 388.77 717.411 390.204 718.531 391.73C723.901 399.07 729.861 406.17 733.211 416.26" stroke="#FCB779" stroke-width="2"/>
<path d="M733.209 416.26C735.763 423.52 736.349 431.097 734.969 438.99C732.539 452.87 724.459 465.96 711.849 472.13C705.379 475.29 700.039 475.31 690.069 476.37C688.249 476.564 687.436 477.524 687.629 479.25C688.343 485.397 688.456 491.304 687.969 496.97C686.556 513.617 679.613 527.494 667.139 538.6C654.866 549.527 640.613 554.277 624.379 552.85C622.906 552.717 621.119 552.36 619.019 551.78C613.613 550.28 607.113 548.26 599.519 545.72C599.326 545.656 599.117 545.653 598.923 545.71C598.728 545.767 598.556 545.882 598.429 546.04C595.759 549.42 593.609 553.92 595.619 558.42C597.933 563.567 599.446 568.564 600.159 573.41C603.926 599.157 605.866 612.687 605.979 614C606.509 620.01 601.269 625.24 596.149 627.64C595.891 627.76 595.615 627.84 595.329 627.88C587.139 629.04 581.969 624.42 577.789 617.74C567.289 600.94 556.803 584.07 546.329 567.13C541.699 559.64 535.209 550.36 530.759 541.66C530.529 541.201 530.174 540.816 529.736 540.547C529.298 540.279 528.793 540.138 528.279 540.14C521.999 540.16 517.743 540.137 515.509 540.07C499.009 539.6 482.519 526.11 476.869 510.87C476.709 510.444 475.923 508.427 474.509 504.82C474.438 504.635 474.33 504.466 474.192 504.323C474.054 504.18 473.889 504.066 473.706 503.987C473.524 503.909 473.327 503.868 473.129 503.867C472.93 503.866 472.733 503.904 472.549 503.98C469.259 505.33 465.869 506.89 462.919 508.47C451.706 514.484 439.769 517.907 427.109 518.74" stroke="#FCBC83" stroke-width="2"/>
<path d="M427.11 518.74C423.05 510.03 423.42 502.48 427.45 493.76C430.116 487.994 432.82 482.327 435.56 476.76" stroke="#FB8009" stroke-width="2"/>
<path d="M435.561 476.76C438.107 472.367 440.731 468.07 443.431 463.87C451.141 451.84 456.431 442.96 463.141 431.89C463.734 430.91 464.574 430.087 465.661 429.42C480.654 420.174 493.687 412.25 504.761 405.65C505.136 405.424 505.419 405.073 505.561 404.66L525.961 342.71C526.102 342.28 526.134 341.82 526.053 341.374C525.973 340.927 525.783 340.507 525.501 340.15C518.947 331.957 512.607 322.897 506.481 312.97C506.313 312.698 506.234 312.382 506.254 312.063C506.274 311.744 506.391 311.44 506.591 311.19C516.031 299.317 525.571 286.48 535.211 272.68C536.211 271.24 537.341 269.9 536.871 268.11C534.751 260.21 532.061 252.54 530.031 243.22C527.277 230.614 524.354 218.42 521.261 206.64C521.212 206.463 521.215 206.274 521.268 206.096C521.321 205.918 521.422 205.757 521.561 205.63L530.421 197.59" stroke="#FCBC83" stroke-width="2"/>
<path d="M530.42 197.59C540.78 188.41 551.023 179.097 561.15 169.65C562.51 168.383 563.407 166.84 563.84 165.02" stroke="#FCB779" stroke-width="2"/>
<path d="M757.791 271.97C748.537 280.07 738.771 287.817 728.491 295.21C728.347 295.314 728.229 295.449 728.146 295.605C728.063 295.762 728.017 295.936 728.012 296.113C728.007 296.29 728.043 296.466 728.118 296.627C728.192 296.788 728.303 296.929 728.441 297.04C734.907 302.307 741.837 307.194 749.231 311.7C755.391 315.467 761.684 319.167 768.111 322.8" stroke="#FBB277" stroke-width="2"/>
<path d="M751.441 376.43L748.711 373.08C748.694 373.059 748.671 373.043 748.646 373.034C748.62 373.024 748.593 373.022 748.566 373.027C748.539 373.032 748.514 373.045 748.494 373.063C748.474 373.081 748.459 373.104 748.451 373.13L744.651 384.66C744.389 385.468 744.453 386.347 744.831 387.11C748.111 393.69 752.371 400.56 754.591 408.34" stroke="#FBB277" stroke-width="2"/>
<path d="M701.21 321.24C704.59 315.927 706.717 312.107 707.59 309.78C712.383 297.06 712.333 284.544 707.44 272.23C701.89 258.26 691.38 252.23 677.92 247.47" stroke="#FFFAF5" stroke-width="2"/>
<path d="M360.42 472.01C354.167 471.217 347.864 470.923 341.51 471.13C341.359 471.133 341.208 471.105 341.067 471.049C340.926 470.992 340.798 470.907 340.69 470.8C336.3 466.43 336.35 463.04 340.26 458.21C341.067 457.21 346.134 451.503 355.46 441.09C359.194 436.917 363.31 433.093 367.81 429.62" stroke="#FD8C0E" stroke-width="2"/>
<path d="M367.811 429.62C376.011 436.4 385.401 440.157 395.981 440.89C400.311 441.19 406.211 440.68 409.061 437.33C409.687 436.583 409.984 435.327 409.951 433.56C409.904 430.9 410.004 426.493 410.251 420.34C410.256 420.209 410.235 420.079 410.19 419.956C410.144 419.833 410.075 419.721 409.986 419.625C409.896 419.529 409.789 419.452 409.67 419.398C409.55 419.344 409.421 419.314 409.291 419.31C401.971 419.09 397.521 418.86 390.961 416.55C380.041 412.69 373.651 402.51 372.151 391.24C371.317 385.007 372.441 378.93 375.521 373.01C380.741 362.98 392.631 356.44 403.981 359.29C404.647 359.457 406.847 360.043 410.581 361.05C410.911 361.14 411.262 361.103 411.566 360.947C411.87 360.792 412.103 360.529 412.221 360.21C414.127 355.097 415.601 349.137 416.641 342.33C416.663 342.173 416.636 342.014 416.562 341.874C416.489 341.733 416.372 341.62 416.231 341.55C410.501 338.83 406.831 336.57 402.341 336.11C393.234 335.17 384.567 336.58 376.341 340.34" stroke="#FEC385" stroke-width="2"/>
<path d="M376.341 340.34C373.614 333.993 371.868 328.963 371.101 325.25C368.851 314.38 367.571 306.34 363.771 298.44C361.258 293.22 358.108 286.383 354.321 277.93C350.821 270.12 346.431 268.13 339.131 265.21" stroke="#FD8C0E" stroke-width="2"/>
<path d="M435.561 476.76C439.588 467.187 442.808 457.934 445.221 449C448.234 437.84 450.644 427.277 452.451 417.31C452.804 415.377 453.411 414.11 454.271 413.51C467.904 404.004 478.211 396.897 485.191 392.19C486.391 391.384 487.174 390.417 487.541 389.29C491.894 375.884 496.431 362.347 501.151 348.68C501.584 347.42 501.354 346.217 500.461 345.07C493.694 336.457 487.291 327.22 481.251 317.36C479.678 314.787 478.358 313.32 477.291 312.96C468.511 310.02 460.111 306.867 452.091 303.5C452.016 303.468 451.955 303.412 451.917 303.341C451.878 303.27 451.865 303.188 451.878 303.108C451.892 303.028 451.933 302.955 451.993 302.901C452.053 302.847 452.13 302.815 452.211 302.81C456.604 302.584 463.281 302.377 472.241 302.19C473.861 302.157 474.991 301.8 475.631 301.12C477.311 299.36 478.931 296.97 480.951 294.77C483.458 292.044 489.141 285.96 498.001 276.52C499.714 274.7 500.384 272.774 500.011 270.74C496.111 249.78 493.444 235.61 492.011 228.23C491.916 227.745 491.701 227.293 491.386 226.914C491.072 226.534 490.668 226.241 490.211 226.06C482.598 223.04 475.121 221.23 467.781 220.63C463.534 220.277 458.301 220.714 452.081 221.94C447.314 222.88 442.481 224.884 437.581 227.95C429.211 233.18 422.511 238.61 417.471 246.48C416.711 247.667 414.974 250.67 412.261 255.49C412.008 255.937 411.184 256.75 409.791 257.93C408.301 259.19 406.731 258.86 405.151 258.11C404.338 257.724 400.458 255.72 393.511 252.1C387.741 249.09 378.421 247.42 371.011 248.48C358.431 250.3 347.221 255.28 339.131 265.21" stroke="#FEC385" stroke-width="2"/>
<path d="M339.129 265.21C331.819 274.38 326.919 286.2 327.719 297.82C328.119 303.62 329.643 309.107 332.289 314.28C334.129 317.887 335.196 320.11 335.489 320.95C335.587 321.237 335.601 321.549 335.529 321.85C334.256 327.323 330.876 331.487 325.389 334.34C324.857 334.615 324.27 334.772 323.671 334.797C323.072 334.823 322.474 334.718 321.919 334.49C316.179 332.14 312.459 327.62 310.019 321.73C307.839 316.483 306.363 311.273 305.589 306.1C305.575 306.007 305.542 305.918 305.492 305.839C305.442 305.759 305.377 305.691 305.3 305.638C305.223 305.586 305.136 305.55 305.044 305.533C304.953 305.516 304.86 305.518 304.769 305.54C290.669 308.96 280.869 321.5 275.179 334.19C269.629 346.56 270.549 360.31 278.369 371.49C285.699 381.98 299.069 387.66 311.979 387.94C312.343 387.947 312.69 388.092 312.951 388.346C313.213 388.6 313.369 388.945 313.389 389.31C313.609 393.523 313.109 398.05 311.889 402.89C311.169 405.71 309.569 406.87 306.849 407.35C301.479 408.29 296.739 409.7 291.449 407.81C285.696 405.743 279.473 402.363 272.779 397.67C272.593 397.537 270.473 395.967 266.419 392.96C266.347 392.907 266.264 392.87 266.175 392.852C266.087 392.834 265.996 392.836 265.909 392.857C265.821 392.878 265.739 392.918 265.668 392.973C265.598 393.029 265.54 393.1 265.499 393.18C260.226 403.633 258.029 414.727 258.909 426.46C259.169 429.9 260.166 433.797 261.899 438.15C271.409 462.08 292.479 472.02 317.249 472.1C331.676 472.153 346.066 472.123 360.419 472.01" stroke="#FFC888" stroke-width="2"/>
<path d="M360.42 472.01C361.553 472.51 362.177 473.09 362.29 473.75C363.177 478.75 363.94 481.967 364.58 483.4C376.09 509.33 399.72 520.29 427.11 518.74" stroke="#FEC385" stroke-width="2"/>
<path d="M733.211 416.26C736.001 404.92 745.711 404.35 754.591 408.34" stroke="#FFFAF5" stroke-width="2"/>
<path d="M754.59 408.34C760.563 427.327 759.37 445.377 751.01 462.49C744.916 474.95 735.946 484.737 724.1 491.85C721.413 493.464 718.79 494.714 716.23 495.6C713.06 496.7 711.63 498.03 710.85 501.11C710.77 501.43 710.18 504.38 709.08 509.96C704.45 533.35 690.63 552.37 670.29 564.8C662.036 569.84 652.86 573.167 642.76 574.78C637.353 575.647 631.313 576.047 624.64 575.98C624.518 575.981 624.399 576.007 624.288 576.057C624.178 576.107 624.08 576.181 624.001 576.272C623.922 576.363 623.865 576.47 623.831 576.585C623.798 576.701 623.791 576.822 623.81 576.94C625.796 589.227 627.433 600.324 628.72 610.23C629.68 617.59 628.453 624.447 625.04 630.8C616.873 646.02 604.336 652.817 587.43 651.19" stroke="#FBB881" stroke-width="2"/>
<path d="M587.429 651.19C575.596 649.11 566.753 643.167 560.899 633.36C559.309 630.7 557.459 627.36 556.079 625.22C543.499 605.747 530.943 585.797 518.409 565.37C517.516 563.917 516.439 563.167 515.179 563.12C494.389 562.26 475.379 552.03 463.929 534.59C463.701 534.239 463.355 533.98 462.954 533.861C462.553 533.742 462.122 533.77 461.739 533.94C448.279 539.927 434.243 542.487 419.629 541.62C411.036 541.113 403.586 540.12 397.279 538.64" stroke="#FCBC83" stroke-width="2"/>
<path d="M397.28 538.64C375.88 532.77 355.93 518.5 346.28 498.01C345.3 495.924 343.877 494.894 342.01 494.92C332.884 495.054 323.884 495.14 315.01 495.18C301.657 495.247 289.064 492.364 277.23 486.53" stroke="#FEC385" stroke-width="2"/>
<path d="M277.231 486.53C235.311 464.13 223.681 414.13 250.541 375.04C251.891 373.08 252.251 371.81 251.631 369.61C248.441 358.23 247.311 348.26 249.771 336.48C253.297 319.607 261.894 305.81 275.561 295.09C284.681 287.94 294.011 284.21 305.041 281.76C305.249 281.715 305.441 281.614 305.596 281.468C305.751 281.321 305.864 281.135 305.921 280.93C307.851 274.18 310.101 267.33 313.461 261.41C318.021 253.357 324.054 246.47 331.561 240.75" stroke="#FFC888" stroke-width="2"/>
<path d="M530.42 197.59C522.947 190.163 515.89 182.49 509.25 174.57C501.744 165.617 492.794 158.413 482.4 152.96" stroke="#FFFAF5" stroke-width="2"/>
<path d="M482.4 152.96L483.53 148.41C483.548 148.343 483.551 148.272 483.539 148.203C483.528 148.133 483.502 148.068 483.463 148.009C483.424 147.951 483.374 147.901 483.315 147.863C483.256 147.826 483.189 147.801 483.12 147.79L473 146.36" stroke="#FDBE7B" stroke-width="2"/>
<path d="M473.069 928.97C469.519 912.03 473.019 894.4 479.739 878.19C480.919 875.35 483.269 870.14 486.789 862.56C491.289 852.89 493.629 845.28 497.729 834.75C499.523 830.157 501.793 825.703 504.539 821.39C510.759 811.6 520.489 800.93 526.159 789.5C534.679 772.36 545.329 753.09 558.029 738.54C560.716 735.453 562.629 733.13 563.769 731.57C572.839 719.12 578.009 708.33 585.159 697.95C592.209 687.73 599.019 678.43 603.619 666.6C603.899 665.873 604.229 664.547 604.609 662.62C605.569 657.72 604.329 654.59 599.369 653.07C598.463 652.79 597.033 652.65 595.079 652.65C592.266 652.657 589.716 652.17 587.429 651.19" stroke="#F87505" stroke-width="2"/>
<path d="M376.34 340.34C366.58 345.294 359.451 352.244 354.951 361.19C351.081 368.88 346.81 382.45 348.38 392.17C350.75 406.92 355.78 420.08 367.81 429.62" stroke="#FFC888" stroke-width="2"/>
<path d="M277.229 486.53C276.089 493.88 273.409 500.69 268.579 506.32C265.019 510.48 261.689 514.16 258.729 518.41C252.236 527.717 246.323 537.074 240.989 546.48C238.709 550.49 237.119 554.56 235.219 558.8C234.533 560.334 230.709 570.36 223.749 588.88C222.209 592.967 218.066 602.194 211.319 616.56C206.839 626.1 204.419 632.49 201.079 642.43C198.619 649.77 192.789 658.99 183.969 652.41C183.143 651.79 182.329 651.164 181.529 650.53" stroke="#FD8C0E" stroke-width="2"/>
<path d="M397.279 538.64C402.999 544.86 404.239 548.8 402.669 557.09C399.869 571.89 394.523 585.273 386.629 597.24C379.236 608.44 371.659 619.963 363.899 631.81C358.029 640.76 349.179 651.32 345.249 660.2C342.096 667.32 339.499 672.613 337.459 676.08C331.109 686.88 322.099 699.32 312.399 711.8C304.819 721.56 298.509 731.43 291.809 741.09C286.209 749.17 273.349 761.15 267.649 772.25C263.219 780.85 260.339 788.77 254.419 793.46C250.626 796.467 247.576 799.23 245.269 801.75C240.389 807.07 237.599 814.86 235.859 822.19" stroke="#FB8009" stroke-width="2"/>
<path d="M482.401 152.96L467.231 196.14C467.125 196.434 466.93 196.687 466.673 196.863C466.416 197.039 466.111 197.129 465.801 197.12C445.811 196.56 425.711 205.19 411.301 218.63C407.821 221.87 404.601 225.033 401.641 228.12C401.152 228.633 400.526 228.993 399.838 229.158C399.15 229.323 398.428 229.286 397.761 229.05C375.301 221.17 350.231 226.32 331.561 240.75" stroke="#FEC385" stroke-width="2"/>
<path d="M331.56 240.75C321.667 230.05 311.873 219.307 302.18 208.52C299.327 205.347 295.653 202.243 291.16 199.21" stroke="#FD8C0E" stroke-width="2"/>
<path d="M708.191 147.81C706.871 152.84 702.601 154.44 698.031 155.58C689.237 157.773 680.357 159.787 671.391 161.62" stroke="#FBB277" stroke-width="2"/>
<path d="M529.811 143.33L509.431 162.55C509.374 162.603 509.301 162.635 509.223 162.643C509.146 162.651 509.068 162.633 509.003 162.593C508.937 162.553 508.888 162.493 508.862 162.421C508.836 162.35 508.836 162.272 508.861 162.2C510.087 158.307 510.981 154.09 511.541 149.55C511.951 146.25 511.451 144.51 510.151 141.58C505.711 131.547 500.931 122.427 495.811 114.22" stroke="#FEC27E" stroke-width="2"/>
<path d="M531.44 488.4C531.087 487.993 530.703 487.67 530.29 487.43C527.06 485.56 519.99 482.23 518.84 478.73C518.761 478.474 518.74 478.207 518.78 477.95L519.45 473.28C519.542 472.636 519.48 471.98 519.268 471.366C519.055 470.752 518.7 470.198 518.23 469.75C513.39 465.16 507.66 466.3 503.47 471.18C500.53 474.593 499.33 478.713 499.87 483.54C501.1 494.46 513.76 498.5 523.11 500.93C523.374 500.999 523.654 500.984 523.909 500.885C524.164 500.786 524.381 500.609 524.53 500.38L531.52 489.57C531.637 489.392 531.692 489.181 531.678 488.97C531.663 488.758 531.58 488.558 531.44 488.4Z" stroke="#FCBC83" stroke-width="2"/>
<path d="M693.43 208.81L736.04 187.97L772.51 169.7C772.544 169.688 772.58 169.688 772.614 169.7C772.648 169.711 772.677 169.734 772.697 169.764C772.716 169.793 772.725 169.829 772.722 169.865C772.719 169.9 772.704 169.934 772.68 169.96L717.7 215.11C708.59 222.85 699.72 230.84 690.78 238.78C688.52 240.787 684.233 243.683 677.92 247.47C671.713 251.17 665.55 255.017 659.43 259.01C656.74 260.76 656.07 262.25 655.09 265.08C653.97 268.33 652.47 271.99 651.66 275.53C648.873 287.737 645.56 299.807 641.72 311.74C640.22 316.387 637.193 319.603 632.64 321.39C623.766 324.877 613.803 328.25 602.75 331.51C585.18 336.7 571.41 341.22 555.81 345.82C554.716 346.14 553.036 346.713 550.77 347.54C550.379 347.685 550.022 347.91 549.722 348.199C549.423 348.488 549.187 348.836 549.03 349.22C543.803 361.987 537.79 374.897 530.99 387.95C530.852 388.217 530.793 388.516 530.817 388.813C530.842 389.111 530.95 389.394 531.13 389.63L563.05 432.42C563.327 432.795 563.501 433.235 563.556 433.696C563.61 434.158 563.543 434.625 563.36 435.05L546.97 473.47C546.949 473.517 546.942 473.569 546.949 473.62C546.957 473.671 546.978 473.718 547.012 473.757C547.046 473.796 547.09 473.824 547.139 473.839C547.188 473.854 547.24 473.854 547.29 473.84C547.436 473.807 547.66 473.6 547.96 473.22C559.487 458.76 567.093 448.707 570.78 443.06C571.547 441.9 572.62 441.443 574 441.69C583.273 443.337 593.4 444.417 604.38 444.93C605.074 444.965 605.738 445.222 606.274 445.663C606.811 446.104 607.191 446.706 607.36 447.38C608.18 450.653 609.527 455.653 611.4 462.38C612.37 465.9 612.21 468.05 610.65 471.14C606.67 479.053 602.556 486.747 598.31 494.22C598.186 494.439 598.137 494.692 598.169 494.94C598.202 495.187 598.314 495.416 598.49 495.59C599.643 496.75 601.913 499.277 605.3 503.17C607.9 506.15 610.17 502.41 611.59 500.35C616.95 492.577 621.586 484.647 625.5 476.56C627.92 471.56 629.263 468.57 629.53 467.59C630.217 465.057 630.27 461.777 629.69 457.75C629.083 453.53 628.133 447.993 626.84 441.14C625.967 436.507 624.44 431.907 622.26 427.34C622.15 427.104 621.991 426.895 621.793 426.724C621.594 426.553 621.362 426.426 621.11 426.35C608.19 422.583 595.247 419.983 582.28 418.55C580.4 418.343 578.83 417.417 577.57 415.77C575.19 412.677 573.303 409.997 571.91 407.73C568.17 401.69 564.62 397.87 560.56 391.95C559.13 389.87 558.6 388.12 559.43 385.94C561.203 381.28 563.42 375.863 566.08 369.69C567.32 366.81 567.84 365.09 570.42 364.36C590.2 358.793 609.896 352.83 629.51 346.47C629.662 346.42 629.824 346.404 629.983 346.422C630.142 346.44 630.296 346.492 630.433 346.575C630.571 346.657 630.689 346.768 630.78 346.9C630.87 347.032 630.932 347.182 630.96 347.34C632.413 355.653 633.457 363.033 634.09 369.48C634.5 373.67 636.34 374.72 639.91 376.1C641.923 376.88 647.006 378.793 655.16 381.84C658.77 383.18 660.64 386.66 662.54 389.97C665.373 394.89 668.08 399.34 670.66 403.32C670.701 403.385 670.765 403.432 670.84 403.453C670.914 403.473 670.993 403.465 671.062 403.43C671.131 403.395 671.184 403.336 671.211 403.264C671.239 403.192 671.238 403.112 671.21 403.04C666.48 390.91 663.28 381.26 660.52 369.77C660.443 369.451 660.291 369.156 660.077 368.907C659.863 368.658 659.593 368.464 659.29 368.34C657.09 367.433 655.213 366.657 653.66 366.01C651.52 365.11 650.92 364.05 650.49 361.77C649.483 356.517 648.787 352.427 648.4 349.5C648.233 348.227 648.72 346.85 649.86 345.37C656.373 336.923 662.55 327.6 668.39 317.4C669.07 316.207 669.916 315.3 670.93 314.68C671.259 314.48 671.649 314.406 672.03 314.47C681.897 316.21 691.623 318.467 701.21 321.24C706.53 323.167 711.06 326.487 714.8 331.2C724.46 343.38 728.29 359.09 723.07 373.89C722.676 375.017 720.876 379.53 717.67 387.43C717.123 388.77 717.41 390.203 718.53 391.73C723.9 399.07 729.86 406.17 733.21 416.26C735.763 423.52 736.35 431.097 734.97 438.99C732.54 452.87 724.46 465.96 711.85 472.13C705.38 475.29 700.04 475.31 690.07 476.37C688.25 476.563 687.436 477.523 687.63 479.25C688.343 485.397 688.456 491.303 687.97 496.97C686.556 513.617 679.613 527.493 667.14 538.6C654.867 549.527 640.613 554.277 624.38 552.85C622.906 552.717 621.12 552.36 619.02 551.78C613.613 550.28 607.113 548.26 599.52 545.72C599.326 545.656 599.118 545.653 598.923 545.71C598.728 545.767 598.556 545.882 598.43 546.04C595.76 549.42 593.61 553.92 595.62 558.42C597.933 563.567 599.446 568.563 600.16 573.41C603.926 599.157 605.866 612.687 605.98 614C606.51 620.01 601.27 625.24 596.15 627.64C595.891 627.76 595.615 627.84 595.33 627.88C587.14 629.04 581.97 624.42 577.79 617.74C567.29 600.94 556.803 584.07 546.33 567.13C541.7 559.64 535.21 550.36 530.76 541.66C530.529 541.201 530.174 540.815 529.736 540.547C529.298 540.278 528.794 540.137 528.28 540.14C522 540.16 517.743 540.137 515.51 540.07C499.01 539.6 482.52 526.11 476.87 510.87C476.71 510.443 475.923 508.427 474.51 504.82C474.438 504.635 474.33 504.466 474.192 504.323C474.055 504.18 473.889 504.066 473.707 503.987C473.524 503.909 473.328 503.868 473.129 503.867C472.93 503.866 472.733 503.904 472.55 503.98C469.26 505.33 465.87 506.89 462.92 508.47C451.707 514.483 439.77 517.907 427.11 518.74C423.05 510.03 423.42 502.48 427.45 493.76C430.116 487.993 432.82 482.327 435.56 476.76C438.106 472.367 440.73 468.07 443.43 463.87C451.14 451.84 456.43 442.96 463.14 431.89C463.733 430.91 464.573 430.087 465.66 429.42C480.653 420.173 493.686 412.25 504.76 405.65C505.135 405.424 505.418 405.073 505.56 404.66L525.96 342.71C526.101 342.279 526.133 341.82 526.052 341.373C525.972 340.927 525.782 340.506 525.5 340.15C518.946 331.957 512.606 322.897 506.48 312.97C506.313 312.698 506.233 312.381 506.253 312.063C506.273 311.744 506.39 311.439 506.59 311.19C516.03 299.317 525.57 286.48 535.21 272.68C536.21 271.24 537.34 269.9 536.87 268.11C534.75 260.21 532.06 252.54 530.03 243.22C527.277 230.613 524.353 218.42 521.26 206.64C521.212 206.462 521.214 206.274 521.267 206.096C521.32 205.918 521.421 205.756 521.56 205.63L530.42 197.59C540.78 188.41 551.023 179.097 561.15 169.65C562.51 168.383 563.407 166.84 563.84 165.02C568.707 132.653 573.656 100.33 578.69 68.0501C579.156 65.0634 579.7 62.4701 580.32 60.2701C580.35 60.1628 580.405 60.0639 580.48 59.9816C580.554 59.8992 580.647 59.8358 580.75 59.7967C580.852 59.7576 580.962 59.7438 581.07 59.7566C581.178 59.7693 581.281 59.8083 581.37 59.8701C581.536 59.9834 581.626 60.2101 581.64 60.5501C581.753 63.5301 581.883 66.3468 582.03 69.0001C583.757 100.913 586 133.613 588.76 167.1C588.98 169.67 589.49 171.44 589.34 173.14C589.301 173.626 589.1 174.084 588.77 174.44C576.676 187.54 565.623 201.357 555.61 215.89C554.036 218.17 553.666 220.683 554.5 223.43C560.1 241.997 563.013 251.573 563.24 252.16C564.93 256.46 565.83 261.65 566.95 266.28C567.76 269.66 564.87 273.79 562.61 276.12C555.476 283.487 546.74 292.943 536.4 304.49C536.345 304.552 536.303 304.624 536.276 304.702C536.25 304.78 536.24 304.863 536.246 304.945C536.253 305.027 536.276 305.107 536.315 305.18C536.353 305.254 536.406 305.318 536.47 305.37C539.176 307.557 540.96 309.32 541.82 310.66C544.086 314.187 545.947 317.613 547.4 320.94C547.446 321.048 547.514 321.146 547.599 321.228C547.684 321.309 547.785 321.373 547.895 321.415C548.005 321.457 548.122 321.476 548.24 321.472C548.357 321.468 548.473 321.44 548.58 321.39C557.32 317.29 565.2 313.73 575.16 310.18C587.28 305.853 602.89 300.32 621.99 293.58C622.244 293.491 622.471 293.339 622.649 293.137C622.828 292.936 622.952 292.693 623.01 292.43C626.67 276.13 631.58 260.16 635.68 244.71C635.986 243.55 636.613 241.877 637.56 239.69C639.08 236.18 643.49 234.08 646.7 232.44C666.9 222.08 682.476 214.203 693.43 208.81ZM531.44 488.4C531.086 487.993 530.703 487.67 530.29 487.43C527.06 485.56 519.99 482.23 518.84 478.73C518.761 478.474 518.74 478.207 518.78 477.95L519.45 473.28C519.542 472.636 519.48 471.98 519.268 471.366C519.055 470.752 518.7 470.198 518.23 469.75C513.39 465.16 507.66 466.3 503.47 471.18C500.53 474.593 499.33 478.713 499.87 483.54C501.1 494.46 513.76 498.5 523.11 500.93C523.374 500.999 523.654 500.984 523.909 500.885C524.164 500.786 524.381 500.609 524.53 500.38L531.52 489.57C531.637 489.392 531.692 489.181 531.678 488.97C531.663 488.758 531.58 488.558 531.44 488.4Z" fill="#F97906"/>
<path d="M529.809 143.33L509.429 162.55C509.372 162.603 509.299 162.636 509.222 162.643C509.144 162.651 509.067 162.634 509.001 162.593C508.936 162.553 508.886 162.493 508.861 162.422C508.835 162.35 508.834 162.272 508.859 162.2C510.086 158.307 510.979 154.09 511.539 149.55C511.949 146.25 511.449 144.51 510.149 141.58C505.709 131.547 500.929 122.427 495.809 114.22L485.709 99.1603C485.707 99.1603 485.704 99.1593 485.702 99.1574C485.7 99.1555 485.699 99.153 485.699 99.1503C485.699 99.1477 485.7 99.1451 485.702 99.1432C485.704 99.1414 485.707 99.1403 485.709 99.1403L485.959 98.9503C486.002 98.9171 486.057 98.9018 486.112 98.9074C486.168 98.9129 486.22 98.9389 486.259 98.9803C494.233 107.634 499.839 113.614 503.079 116.92C508.459 122.4 517.369 131.204 529.809 143.33Z" fill="#FE9010"/>
<path d="M708.19 147.81C706.87 152.84 702.6 154.44 698.03 155.58C689.236 157.774 680.356 159.787 671.39 161.62C667.763 162.54 664.053 163.16 660.26 163.48C657.333 163.734 655.433 162.56 654.56 159.96C654.086 158.534 653.983 156.717 654.25 154.51C656.09 139.504 658.236 127.48 660.69 118.44C661.203 116.56 661.996 114.75 663.07 113.01C663.352 112.55 663.737 112.163 664.194 111.878C664.65 111.593 665.166 111.42 665.7 111.37C670.746 110.904 675.8 110.447 680.86 110C690.173 109.187 699.036 107.69 707.45 105.51C707.679 105.45 707.918 105.442 708.151 105.487C708.383 105.532 708.602 105.629 708.793 105.77C708.983 105.911 709.139 106.093 709.249 106.303C709.359 106.512 709.421 106.744 709.43 106.98C709.73 116.367 709.84 124.707 709.76 132C709.706 137.307 709.183 142.577 708.19 147.81Z" fill="#F77003"/>
<path d="M495.81 114.22C500.93 122.427 505.71 131.547 510.15 141.58C511.45 144.51 511.95 146.25 511.54 149.55C510.98 154.09 510.087 158.307 508.86 162.2C508.835 162.272 508.836 162.35 508.862 162.421C508.887 162.493 508.937 162.553 509.002 162.593C509.068 162.633 509.145 162.651 509.223 162.643C509.3 162.635 509.373 162.603 509.43 162.55L529.81 143.33C539.477 151.57 550.82 158.8 563.84 165.02C563.407 166.84 562.51 168.384 561.15 169.65C551.023 179.097 540.78 188.41 530.42 197.59C522.947 190.164 515.89 182.49 509.25 174.57C501.743 165.617 492.793 158.414 482.4 152.96L483.53 148.41C483.548 148.342 483.551 148.272 483.539 148.202C483.528 148.133 483.502 148.067 483.463 148.009C483.424 147.95 483.374 147.901 483.315 147.863C483.256 147.825 483.189 147.801 483.12 147.79L473 146.36C480.82 133.35 486.14 123.65 495.81 114.22Z" fill="#FEF4EB"/>
<path d="M473 146.36L483.12 147.79C483.189 147.8 483.256 147.825 483.315 147.863C483.374 147.901 483.425 147.95 483.463 148.009C483.502 148.067 483.528 148.133 483.539 148.202C483.551 148.271 483.548 148.342 483.53 148.41L482.4 152.96L467.23 196.14C467.125 196.434 466.93 196.687 466.673 196.863C466.416 197.039 466.11 197.129 465.8 197.12C445.81 196.56 425.71 205.19 411.3 218.63C407.82 221.87 404.6 225.033 401.64 228.12C401.152 228.633 400.526 228.993 399.838 229.158C399.149 229.323 398.428 229.286 397.76 229.05C375.3 221.17 350.23 226.32 331.56 240.75C321.667 230.05 311.873 219.307 302.18 208.52C299.327 205.347 295.653 202.243 291.16 199.21C338.2 167.19 393.69 148.95 450.26 146.3C456.507 146.013 464.087 146.033 473 146.36Z" fill="#FC870B"/>
<path d="M708.191 147.81C719.321 160.02 727.231 174.1 736.041 187.97L693.431 208.81L671.391 161.62C680.357 159.787 689.237 157.773 698.031 155.58C702.601 154.44 706.871 152.84 708.191 147.81Z" fill="#FEF4EB"/>
<path d="M530.421 197.59L521.561 205.63C521.422 205.756 521.321 205.917 521.268 206.096C521.215 206.274 521.212 206.462 521.261 206.64C524.354 218.42 527.277 230.613 530.031 243.22C532.061 252.54 534.751 260.21 536.871 268.11C537.341 269.9 536.211 271.24 535.211 272.68C525.571 286.48 516.031 299.317 506.591 311.19C506.391 311.439 506.274 311.744 506.254 312.063C506.234 312.381 506.314 312.698 506.481 312.97C512.607 322.897 518.947 331.957 525.501 340.15C525.783 340.506 525.973 340.926 526.053 341.373C526.134 341.82 526.102 342.279 525.961 342.71L505.561 404.66C505.419 405.073 505.136 405.423 504.761 405.65C493.687 412.25 480.654 420.173 465.661 429.42C464.574 430.087 463.734 430.91 463.141 431.89C456.431 442.96 451.141 451.84 443.431 463.87C440.731 468.07 438.107 472.367 435.561 476.76C439.587 467.187 442.807 457.933 445.221 449C448.234 437.84 450.644 427.277 452.451 417.31C452.804 415.377 453.411 414.11 454.271 413.51C467.904 404.003 478.211 396.897 485.191 392.19C486.391 391.383 487.174 390.417 487.541 389.29C491.894 375.883 496.431 362.347 501.151 348.68C501.584 347.42 501.354 346.217 500.461 345.07C493.694 336.457 487.291 327.22 481.251 317.36C479.677 314.787 478.357 313.32 477.291 312.96C468.511 310.02 460.111 306.867 452.091 303.5C452.016 303.468 451.955 303.412 451.916 303.341C451.878 303.269 451.864 303.187 451.878 303.108C451.892 303.028 451.932 302.955 451.993 302.901C452.053 302.847 452.13 302.815 452.211 302.81C456.604 302.583 463.281 302.377 472.241 302.19C473.861 302.157 474.991 301.8 475.631 301.12C477.311 299.36 478.931 296.97 480.951 294.77C483.457 292.043 489.141 285.96 498.001 276.52C499.714 274.7 500.384 272.773 500.011 270.74C496.111 249.78 493.444 235.61 492.011 228.23C491.915 227.745 491.701 227.292 491.386 226.913C491.072 226.534 490.667 226.241 490.211 226.06C482.597 223.04 475.121 221.23 467.781 220.63C463.534 220.277 458.301 220.713 452.081 221.94C447.314 222.88 442.481 224.883 437.581 227.95C429.211 233.18 422.511 238.61 417.471 246.48C416.711 247.667 414.974 250.67 412.261 255.49C412.007 255.937 411.184 256.75 409.791 257.93C408.301 259.19 406.731 258.86 405.151 258.11C404.337 257.723 400.457 255.72 393.511 252.1C387.741 249.09 378.421 247.42 371.011 248.48C358.431 250.3 347.221 255.28 339.131 265.21C331.821 274.38 326.921 286.2 327.721 297.82C328.121 303.62 329.644 309.107 332.291 314.28C334.131 317.887 335.197 320.11 335.491 320.95C335.589 321.237 335.603 321.549 335.531 321.85C334.257 327.323 330.877 331.487 325.391 334.34C324.858 334.615 324.271 334.772 323.672 334.797C323.073 334.823 322.475 334.718 321.921 334.49C316.181 332.14 312.461 327.62 310.021 321.73C307.841 316.483 306.364 311.273 305.591 306.1C305.576 306.007 305.543 305.918 305.493 305.839C305.443 305.759 305.378 305.691 305.301 305.638C305.224 305.586 305.137 305.55 305.046 305.533C304.954 305.516 304.861 305.518 304.771 305.54C290.671 308.96 280.871 321.5 275.181 334.19C269.631 346.56 270.551 360.31 278.371 371.49C285.701 381.98 299.071 387.66 311.981 387.94C312.344 387.947 312.691 388.092 312.953 388.346C313.214 388.6 313.371 388.945 313.391 389.31C313.611 393.523 313.111 398.05 311.891 402.89C311.171 405.71 309.571 406.87 306.851 407.35C301.481 408.29 296.741 409.7 291.451 407.81C285.697 405.743 279.474 402.363 272.781 397.67C272.594 397.537 270.474 395.967 266.421 392.96C266.348 392.907 266.265 392.87 266.177 392.852C266.088 392.834 265.997 392.836 265.91 392.857C265.822 392.878 265.74 392.918 265.67 392.973C265.599 393.029 265.541 393.1 265.501 393.18C260.227 403.633 258.031 414.727 258.911 426.46C259.171 429.9 260.167 433.797 261.901 438.15C271.411 462.08 292.481 472.02 317.251 472.1C331.677 472.153 346.067 472.123 360.421 472.01C361.554 472.51 362.177 473.09 362.291 473.75C363.177 478.75 363.941 481.967 364.581 483.4C376.091 509.33 399.721 520.29 427.111 518.74C439.771 517.907 451.707 514.483 462.921 508.47C465.871 506.89 469.261 505.33 472.551 503.98C472.734 503.904 472.931 503.865 473.13 503.867C473.329 503.868 473.525 503.909 473.708 503.987C473.89 504.065 474.055 504.179 474.193 504.322C474.331 504.465 474.439 504.635 474.511 504.82C475.924 508.427 476.711 510.443 476.871 510.87C482.521 526.11 499.011 539.6 515.511 540.07C517.744 540.137 522.001 540.16 528.281 540.14C528.795 540.137 529.299 540.278 529.737 540.547C530.175 540.815 530.53 541.201 530.761 541.66C535.211 550.36 541.701 559.64 546.331 567.13C556.804 584.07 567.291 600.94 577.791 617.74C581.971 624.42 587.141 629.04 595.331 627.88C595.616 627.84 595.892 627.759 596.151 627.64C601.271 625.24 606.511 620.01 605.981 614C605.867 612.687 603.927 599.157 600.161 573.41C599.447 568.563 597.934 563.567 595.621 558.42C593.611 553.92 595.761 549.42 598.431 546.04C598.557 545.882 598.729 545.767 598.924 545.71C599.119 545.652 599.327 545.656 599.521 545.72C607.114 548.26 613.614 550.28 619.021 551.78C621.121 552.36 622.907 552.717 624.381 552.85C640.614 554.277 654.867 549.527 667.141 538.6C679.614 527.493 686.557 513.617 687.971 496.97C688.457 491.303 688.344 485.397 687.631 479.25C687.437 477.523 688.251 476.563 690.071 476.37C700.041 475.31 705.381 475.29 711.851 472.13C724.461 465.96 732.541 452.87 734.971 438.99C736.351 431.097 735.764 423.52 733.211 416.26C736.001 404.92 745.711 404.35 754.591 408.34C760.564 427.327 759.371 445.377 751.011 462.49C744.917 474.95 735.947 484.737 724.101 491.85C721.414 493.463 718.791 494.713 716.231 495.6C713.061 496.7 711.631 498.03 710.851 501.11C710.771 501.43 710.181 504.38 709.081 509.96C704.451 533.35 690.631 552.37 670.291 564.8C662.037 569.84 652.861 573.167 642.761 574.78C637.354 575.647 631.314 576.047 624.641 575.98C624.519 575.98 624.4 576.006 624.289 576.057C624.179 576.107 624.081 576.18 624.002 576.271C623.923 576.363 623.865 576.47 623.832 576.585C623.799 576.7 623.792 576.822 623.811 576.94C625.797 589.227 627.434 600.323 628.721 610.23C629.681 617.59 628.454 624.447 625.041 630.8C616.874 646.02 604.337 652.817 587.431 651.19C575.597 649.11 566.754 643.167 560.901 633.36C559.311 630.7 557.461 627.36 556.081 625.22C543.501 605.747 530.944 585.797 518.411 565.37C517.517 563.917 516.441 563.167 515.181 563.12C494.391 562.26 475.381 552.03 463.931 534.59C463.703 534.239 463.357 533.98 462.955 533.861C462.554 533.742 462.123 533.77 461.741 533.94C448.281 539.927 434.244 542.487 419.631 541.62C411.037 541.113 403.587 540.12 397.281 538.64C375.881 532.77 355.931 518.5 346.281 498.01C345.301 495.923 343.877 494.893 342.011 494.92C332.884 495.053 323.884 495.14 315.011 495.18C301.657 495.247 289.064 492.363 277.231 486.53C235.311 464.13 223.681 414.13 250.541 375.04C251.891 373.08 252.251 371.81 251.631 369.61C248.441 358.23 247.311 348.26 249.771 336.48C253.297 319.607 261.894 305.81 275.561 295.09C284.681 287.94 294.011 284.21 305.041 281.76C305.249 281.715 305.441 281.614 305.596 281.468C305.751 281.321 305.864 281.135 305.921 280.93C307.851 274.18 310.101 267.33 313.461 261.41C318.021 253.357 324.054 246.47 331.561 240.75C350.231 226.32 375.301 221.17 397.761 229.05C398.428 229.286 399.15 229.323 399.838 229.158C400.527 228.993 401.153 228.633 401.641 228.12C404.601 225.033 407.821 221.87 411.301 218.63C425.711 205.19 445.811 196.56 465.801 197.12C466.111 197.129 466.416 197.039 466.673 196.863C466.93 196.687 467.125 196.434 467.231 196.14L482.401 152.96C492.794 158.413 501.744 165.617 509.251 174.57C515.891 182.49 522.947 190.163 530.421 197.59Z" fill="white"/>
<path d="M331.56 240.75C324.053 246.47 318.02 253.357 313.46 261.41C310.1 267.33 307.85 274.18 305.92 280.93C305.863 281.135 305.751 281.321 305.596 281.468C305.441 281.614 305.249 281.715 305.04 281.76C294.01 284.21 284.68 287.94 275.56 295.09C261.893 305.81 253.297 319.607 249.77 336.48C247.31 348.26 248.44 358.23 251.63 369.61C252.25 371.81 251.89 373.08 250.54 375.04C223.68 414.13 235.31 464.13 277.23 486.53C276.09 493.88 273.41 500.69 268.58 506.32C265.02 510.48 261.69 514.16 258.73 518.41C252.237 527.717 246.323 537.073 240.99 546.48C238.71 550.49 237.12 554.56 235.22 558.8C234.533 560.333 230.71 570.36 223.75 588.88C222.21 592.967 218.067 602.193 211.32 616.56C206.84 626.1 204.42 632.49 201.08 642.43C198.62 649.77 192.79 658.99 183.97 652.41C183.143 651.79 182.33 651.163 181.53 650.53C181.65 649.037 181.743 647.52 181.81 645.98C182.11 638.647 178.96 633.613 172.36 630.88C169.513 629.7 166.15 628.817 162.27 628.23C151.99 626.68 140.44 625.02 133.48 618.75C122.02 608.41 126.02 593.7 132.19 581.24C135.477 574.607 137.477 570.677 138.19 569.45C148.71 551.51 158.79 535.69 168.42 517.19C171.96 510.397 175.697 502.973 179.63 494.92C183.33 487.35 187.06 478.16 185.91 469.85C185.777 468.917 184.723 463.22 182.75 452.76C180.33 439.94 179.063 427.297 178.95 414.83C178.47 360.59 193.81 307.47 225.2 263.19C233.213 251.883 241.893 241.567 251.24 232.24C263.52 219.993 276.827 208.983 291.16 199.21C295.653 202.243 299.327 205.347 302.18 208.52C311.873 219.307 321.667 230.05 331.56 240.75Z" fill="#FE9010"/>
<path d="M717.7 215.11C719.193 222.424 720.827 228.234 722.6 232.54C729.71 249.87 742.37 261.9 757.79 271.97C748.537 280.07 738.77 287.817 728.49 295.21C728.346 295.314 728.228 295.449 728.145 295.606C728.062 295.762 728.016 295.936 728.011 296.113C728.006 296.29 728.043 296.466 728.117 296.627C728.191 296.788 728.302 296.929 728.44 297.04C734.907 302.307 741.837 307.194 749.23 311.7C755.39 315.467 761.683 319.167 768.11 322.8C762.123 329.847 757.807 336.197 755.16 341.85C749.85 353.22 750 364.11 751.44 376.43L748.71 373.08C748.693 373.059 748.67 373.043 748.645 373.034C748.619 373.024 748.592 373.022 748.565 373.027C748.538 373.032 748.513 373.045 748.493 373.063C748.473 373.081 748.458 373.104 748.45 373.13L744.65 384.66C744.388 385.468 744.452 386.348 744.83 387.11C748.11 393.69 752.37 400.56 754.59 408.34C745.71 404.35 736 404.92 733.21 416.26C729.86 406.17 723.9 399.07 718.53 391.73C717.41 390.204 717.123 388.77 717.67 387.43C720.877 379.53 722.677 375.017 723.07 373.89C728.29 359.09 724.46 343.38 714.8 331.2C711.06 326.487 706.53 323.167 701.21 321.24C704.59 315.927 706.717 312.107 707.59 309.78C712.383 297.06 712.333 284.544 707.44 272.23C701.89 258.26 691.38 252.23 677.92 247.47C684.233 243.684 688.52 240.787 690.78 238.78C699.72 230.84 708.59 222.85 717.7 215.11Z" fill="#FEF4EB"/>
<path d="M435.56 476.76C432.82 482.327 430.117 487.994 427.45 493.76C423.42 502.48 423.05 510.03 427.11 518.74C399.72 520.29 376.09 509.33 364.58 483.4C363.94 481.967 363.177 478.75 362.29 473.75C362.177 473.09 361.554 472.51 360.42 472.01C354.167 471.217 347.864 470.924 341.51 471.13C341.359 471.133 341.208 471.105 341.067 471.049C340.926 470.992 340.798 470.908 340.69 470.8C336.3 466.43 336.35 463.04 340.26 458.21C341.067 457.21 346.134 451.504 355.46 441.09C359.194 436.917 363.31 433.094 367.81 429.62C376.01 436.4 385.4 440.157 395.98 440.89C400.31 441.19 406.21 440.68 409.06 437.33C409.687 436.584 409.984 435.327 409.95 433.56C409.904 430.9 410.004 426.494 410.25 420.34C410.256 420.209 410.235 420.079 410.19 419.956C410.144 419.833 410.075 419.721 409.985 419.625C409.896 419.529 409.789 419.452 409.669 419.398C409.55 419.344 409.421 419.314 409.29 419.31C401.97 419.09 397.52 418.86 390.96 416.55C380.04 412.69 373.65 402.51 372.15 391.24C371.317 385.007 372.44 378.93 375.52 373.01C380.74 362.98 392.63 356.44 403.98 359.29C404.647 359.457 406.847 360.044 410.58 361.05C410.911 361.14 411.262 361.103 411.566 360.948C411.869 360.792 412.103 360.529 412.22 360.21C414.127 355.097 415.6 349.137 416.64 342.33C416.663 342.174 416.636 342.014 416.562 341.874C416.488 341.734 416.372 341.62 416.23 341.55C410.5 338.83 406.83 336.57 402.34 336.11C393.234 335.17 384.567 336.58 376.34 340.34C373.614 333.994 371.867 328.964 371.1 325.25C368.85 314.38 367.57 306.34 363.77 298.44C361.257 293.22 358.107 286.384 354.32 277.93C350.82 270.12 346.43 268.13 339.13 265.21C347.22 255.28 358.43 250.3 371.01 248.48C378.42 247.42 387.74 249.09 393.51 252.1C400.457 255.72 404.337 257.724 405.15 258.11C406.73 258.86 408.3 259.19 409.79 257.93C411.184 256.75 412.007 255.937 412.26 255.49C414.974 250.67 416.71 247.667 417.47 246.48C422.51 238.61 429.21 233.18 437.58 227.95C442.48 224.884 447.314 222.88 452.08 221.94C458.3 220.714 463.534 220.277 467.78 220.63C475.12 221.23 482.597 223.04 490.21 226.06C490.667 226.241 491.071 226.534 491.386 226.914C491.701 227.293 491.915 227.745 492.01 228.23C493.444 235.61 496.11 249.78 500.01 270.74C500.384 272.774 499.714 274.7 498 276.52C489.14 285.96 483.457 292.044 480.95 294.77C478.93 296.97 477.31 299.36 475.63 301.12C474.99 301.8 473.86 302.157 472.24 302.19C463.28 302.377 456.604 302.584 452.21 302.81C452.13 302.815 452.053 302.847 451.993 302.901C451.932 302.955 451.892 303.028 451.878 303.108C451.864 303.188 451.878 303.27 451.916 303.341C451.955 303.412 452.016 303.468 452.09 303.5C460.11 306.867 468.51 310.02 477.29 312.96C478.357 313.32 479.677 314.787 481.25 317.36C487.29 327.22 493.694 336.457 500.46 345.07C501.354 346.217 501.584 347.42 501.15 348.68C496.43 362.347 491.894 375.884 487.54 389.29C487.174 390.417 486.39 391.384 485.19 392.19C478.21 396.897 467.904 404.004 454.27 413.51C453.41 414.11 452.804 415.377 452.45 417.31C450.644 427.277 448.234 437.84 445.22 449C442.807 457.934 439.587 467.187 435.56 476.76Z" fill="#FC870B"/>
<path d="M701.21 321.24C691.624 318.467 681.897 316.21 672.03 314.47C671.65 314.406 671.259 314.481 670.93 314.68C669.917 315.3 669.07 316.207 668.39 317.4C662.55 327.6 656.374 336.924 649.86 345.37C648.72 346.85 648.234 348.227 648.4 349.5C648.787 352.427 649.484 356.517 650.49 361.77C650.92 364.05 651.52 365.11 653.66 366.01C655.214 366.657 657.09 367.434 659.29 368.34C659.594 368.464 659.864 368.658 660.078 368.907C660.292 369.156 660.443 369.451 660.52 369.77C663.28 381.26 666.48 390.91 671.21 403.04C671.239 403.112 671.239 403.192 671.212 403.264C671.185 403.336 671.131 403.395 671.063 403.43C670.994 403.465 670.915 403.473 670.84 403.453C670.766 403.433 670.702 403.385 670.66 403.32C668.08 399.34 665.374 394.89 662.54 389.97C660.64 386.66 658.77 383.18 655.16 381.84C647.007 378.794 641.924 376.88 639.91 376.1C636.34 374.72 634.5 373.67 634.09 369.48C633.457 363.034 632.414 355.654 630.96 347.34C630.933 347.182 630.871 347.032 630.78 346.9C630.689 346.768 630.571 346.657 630.434 346.575C630.296 346.492 630.143 346.44 629.983 346.422C629.824 346.404 629.663 346.421 629.51 346.47C609.897 352.83 590.2 358.794 570.42 364.36C567.84 365.09 567.32 366.81 566.08 369.69C563.42 375.864 561.204 381.28 559.43 385.94C558.6 388.12 559.13 389.87 560.56 391.95C564.62 397.87 568.17 401.69 571.91 407.73C573.304 409.997 575.19 412.677 577.57 415.77C578.83 417.417 580.4 418.344 582.28 418.55C595.247 419.984 608.19 422.584 621.11 426.35C621.362 426.426 621.595 426.553 621.793 426.724C621.991 426.895 622.151 427.105 622.26 427.34C624.44 431.907 625.967 436.507 626.84 441.14C628.134 447.994 629.084 453.53 629.69 457.75C630.27 461.777 630.217 465.057 629.53 467.59C629.264 468.57 627.92 471.56 625.5 476.56C621.587 484.647 616.95 492.577 611.59 500.35C610.17 502.41 607.9 506.15 605.3 503.17C601.914 499.277 599.644 496.75 598.49 495.59C598.315 495.416 598.202 495.187 598.17 494.94C598.137 494.692 598.187 494.439 598.31 494.22C602.557 486.747 606.67 479.054 610.65 471.14C612.21 468.05 612.37 465.9 611.4 462.38C609.527 455.654 608.18 450.654 607.36 447.38C607.192 446.706 606.811 446.104 606.275 445.663C605.738 445.222 605.074 444.965 604.38 444.93C593.4 444.417 583.274 443.337 574 441.69C572.62 441.444 571.547 441.9 570.78 443.06C567.094 448.707 559.487 458.76 547.96 473.22C547.66 473.6 547.437 473.807 547.29 473.84C547.241 473.854 547.189 473.854 547.139 473.839C547.09 473.824 547.046 473.796 547.013 473.757C546.979 473.718 546.957 473.671 546.95 473.62C546.942 473.569 546.949 473.517 546.97 473.47L563.36 435.05C563.543 434.625 563.611 434.158 563.556 433.697C563.502 433.235 563.328 432.795 563.05 432.42L531.13 389.63C530.951 389.394 530.843 389.111 530.818 388.814C530.793 388.516 530.853 388.217 530.99 387.95C537.79 374.897 543.804 361.987 549.03 349.22C549.188 348.836 549.424 348.488 549.723 348.199C550.023 347.91 550.379 347.685 550.77 347.54C553.037 346.714 554.717 346.14 555.81 345.82C571.41 341.22 585.18 336.7 602.75 331.51C613.804 328.25 623.767 324.877 632.64 321.39C637.194 319.604 640.22 316.387 641.72 311.74C645.56 299.807 648.874 287.737 651.66 275.53C652.47 271.99 653.97 268.33 655.09 265.08C656.07 262.25 656.74 260.76 659.43 259.01C665.55 255.017 671.714 251.17 677.92 247.47C691.38 252.23 701.89 258.26 707.44 272.23C712.334 284.544 712.384 297.06 707.59 309.78C706.717 312.107 704.59 315.927 701.21 321.24Z" fill="white"/>
<path d="M376.339 340.34C366.579 345.293 359.449 352.243 354.949 361.19C351.079 368.88 346.809 382.45 348.379 392.17C350.749 406.92 355.779 420.08 367.809 429.62C363.309 433.093 359.193 436.917 355.459 441.09C346.133 451.503 341.066 457.21 340.259 458.21C336.349 463.04 336.299 466.43 340.689 470.8C340.797 470.907 340.925 470.992 341.066 471.048C341.207 471.105 341.358 471.133 341.509 471.13C347.863 470.923 354.166 471.217 360.419 472.01C346.066 472.123 331.676 472.153 317.249 472.1C292.479 472.02 271.409 462.08 261.899 438.15C260.166 433.797 259.169 429.9 258.909 426.46C258.029 414.727 260.226 403.633 265.499 393.18C265.54 393.1 265.598 393.029 265.668 392.973C265.739 392.918 265.821 392.878 265.909 392.857C265.996 392.836 266.087 392.834 266.175 392.852C266.264 392.87 266.347 392.907 266.419 392.96C270.473 395.967 272.593 397.537 272.779 397.67C279.473 402.363 285.696 405.743 291.449 407.81C296.739 409.7 301.479 408.29 306.849 407.35C309.569 406.87 311.169 405.71 311.889 402.89C313.109 398.05 313.609 393.523 313.389 389.31C313.369 388.945 313.213 388.6 312.951 388.346C312.69 388.092 312.343 387.947 311.979 387.94C299.069 387.66 285.699 381.98 278.369 371.49C270.549 360.31 269.629 346.56 275.179 334.19C280.869 321.5 290.669 308.96 304.769 305.54C304.86 305.518 304.953 305.516 305.044 305.533C305.136 305.55 305.223 305.586 305.3 305.638C305.377 305.691 305.442 305.759 305.492 305.839C305.542 305.918 305.575 306.007 305.589 306.1C306.363 311.273 307.839 316.483 310.019 321.73C312.459 327.62 316.179 332.14 321.919 334.49C322.474 334.718 323.072 334.823 323.671 334.797C324.27 334.772 324.857 334.615 325.389 334.34C330.876 331.487 334.256 327.323 335.529 321.85C335.601 321.549 335.587 321.237 335.489 320.95C335.196 320.11 334.129 317.887 332.289 314.28C329.643 309.107 328.119 303.62 327.719 297.82C326.919 286.2 331.819 274.38 339.129 265.21C346.429 268.13 350.819 270.12 354.319 277.93C358.106 286.383 361.256 293.22 363.769 298.44C367.569 306.34 368.849 314.38 371.099 325.25C371.866 328.963 373.613 333.993 376.339 340.34Z" fill="#FE9010"/>
<path d="M768.111 322.8C761.684 319.167 755.391 315.467 749.231 311.7C741.837 307.193 734.907 302.307 728.441 297.04C728.303 296.929 728.192 296.787 728.118 296.627C728.043 296.466 728.007 296.29 728.012 296.113C728.017 295.935 728.063 295.762 728.146 295.605C728.229 295.449 728.347 295.313 728.491 295.21C738.771 287.817 748.537 280.07 757.791 271.97C758.451 271.417 760.064 270.22 762.631 268.38C764.337 267.153 765.954 267.037 767.481 268.03C776.761 274.07 789.001 282.03 800.951 286.43C801.082 286.478 801.201 286.555 801.298 286.655C801.396 286.756 801.469 286.877 801.513 287.009C801.557 287.142 801.571 287.283 801.553 287.421C801.536 287.56 801.487 287.693 801.411 287.81C793.137 300.71 784.487 312.58 775.461 323.42C774.171 324.97 772.721 325.15 770.871 324.27C769.877 323.79 768.957 323.3 768.111 322.8Z" fill="#F77003"/>
<path d="M367.81 429.62C355.78 420.08 350.75 406.92 348.38 392.17C346.81 382.45 351.081 368.88 354.951 361.19C359.451 352.243 366.58 345.293 376.34 340.34C384.567 336.58 393.234 335.17 402.34 336.11C406.83 336.57 410.501 338.83 416.231 341.55C416.372 341.62 416.488 341.733 416.562 341.874C416.636 342.014 416.663 342.173 416.641 342.33C415.601 349.137 414.127 355.097 412.22 360.21C412.103 360.529 411.869 360.792 411.566 360.947C411.262 361.103 410.911 361.14 410.58 361.05C406.847 360.043 404.647 359.457 403.981 359.29C392.631 356.44 380.74 362.98 375.52 373.01C372.44 378.93 371.317 385.007 372.15 391.24C373.65 402.51 380.04 412.69 390.96 416.55C397.52 418.86 401.971 419.09 409.291 419.31C409.421 419.314 409.55 419.344 409.67 419.398C409.789 419.452 409.896 419.529 409.986 419.625C410.075 419.721 410.144 419.833 410.19 419.956C410.235 420.079 410.256 420.209 410.25 420.34C410.004 426.493 409.904 430.9 409.951 433.56C409.984 435.327 409.687 436.583 409.06 437.33C406.21 440.68 400.311 441.19 395.981 440.89C385.401 440.157 376.01 436.4 367.81 429.62Z" fill="white"/>
<path d="M751.439 376.43C753.539 379.343 755.629 382.377 757.709 385.53C777.109 414.88 783.769 450.82 779.139 485.47C775.073 515.93 765.329 545.913 749.909 575.42C748.463 578.193 743.789 586.513 735.889 600.38C727.379 615.32 718.869 627.62 710.009 642C701.463 655.867 694.356 671.173 688.689 687.92C684.903 699.107 682.609 710.38 681.809 721.74C680.559 739.44 681.089 760.36 683.099 780.33C685.839 807.55 690.083 834.003 695.829 859.69C696.909 864.497 701.043 883.18 708.229 915.74C709.416 921.133 707.623 925.183 702.849 927.89C701.869 928.443 699.669 928.727 696.249 928.74C621.829 929.04 547.436 929.117 473.069 928.97C469.519 912.03 473.019 894.4 479.739 878.19C480.919 875.35 483.269 870.14 486.789 862.56C491.289 852.89 493.629 845.28 497.729 834.75C499.523 830.157 501.793 825.703 504.539 821.39C510.759 811.6 520.489 800.93 526.159 789.5C534.679 772.36 545.329 753.09 558.029 738.54C560.716 735.453 562.629 733.13 563.769 731.57C572.839 719.12 578.009 708.33 585.159 697.95C592.209 687.73 599.019 678.43 603.619 666.6C603.899 665.873 604.229 664.547 604.609 662.62C605.569 657.72 604.329 654.59 599.369 653.07C598.463 652.79 597.033 652.65 595.079 652.65C592.266 652.657 589.716 652.17 587.429 651.19C604.336 652.817 616.873 646.02 625.039 630.8C628.453 624.447 629.679 617.59 628.719 610.23C627.433 600.323 625.796 589.227 623.809 576.94C623.79 576.822 623.798 576.701 623.831 576.585C623.864 576.47 623.922 576.363 624.001 576.272C624.08 576.18 624.178 576.107 624.288 576.057C624.398 576.007 624.518 575.98 624.639 575.98C631.313 576.047 637.353 575.647 642.759 574.78C652.859 573.167 662.036 569.84 670.289 564.8C690.629 552.37 704.449 533.35 709.079 509.96C710.179 504.38 710.769 501.43 710.849 501.11C711.629 498.03 713.059 496.7 716.229 495.6C718.789 494.713 721.413 493.463 724.099 491.85C735.946 484.737 744.916 474.95 751.009 462.49C759.369 445.377 760.563 427.327 754.589 408.34C752.369 400.56 748.109 393.69 744.829 387.11C744.452 386.347 744.387 385.468 744.649 384.66L748.449 373.13C748.457 373.104 748.472 373.081 748.492 373.063C748.513 373.045 748.538 373.032 748.564 373.027C748.591 373.022 748.619 373.024 748.644 373.034C748.67 373.043 748.692 373.059 748.709 373.08L751.439 376.43Z" fill="#F77003"/>
<path d="M531.44 488.4C531.58 488.558 531.663 488.758 531.678 488.97C531.692 489.181 531.637 489.392 531.52 489.57L524.53 500.38C524.381 500.61 524.164 500.786 523.909 500.885C523.654 500.984 523.374 500.999 523.11 500.93C513.76 498.5 501.1 494.46 499.87 483.54C499.33 478.713 500.53 474.593 503.47 471.18C507.66 466.3 513.39 465.16 518.23 469.75C518.7 470.198 519.055 470.752 519.268 471.366C519.48 471.98 519.542 472.636 519.45 473.28L518.78 477.95C518.74 478.207 518.761 478.474 518.84 478.73C519.99 482.23 527.06 485.56 530.29 487.43C530.703 487.67 531.087 487.993 531.44 488.4Z" fill="white"/>
<path d="M397.28 538.64C403 544.86 404.24 548.8 402.67 557.09C399.87 571.89 394.524 585.274 386.63 597.24C379.237 608.44 371.66 619.964 363.9 631.81C358.03 640.76 349.18 651.32 345.25 660.2C342.097 667.32 339.5 672.614 337.46 676.08C331.11 686.88 322.1 699.32 312.4 711.8C304.82 721.56 298.51 731.43 291.81 741.09C286.21 749.17 273.35 761.15 267.65 772.25C263.22 780.85 260.34 788.77 254.42 793.46C250.627 796.467 247.577 799.23 245.27 801.75C240.39 807.07 237.6 814.86 235.86 822.19C224.614 820.23 215.414 815.267 208.26 807.3C193.35 790.7 201.74 771.01 202.59 751.75C202.817 746.704 202.377 742.68 201.27 739.68C197.27 728.81 183.61 717.91 188.78 705.49C190.387 701.644 192.624 698.317 195.49 695.51C195.655 695.35 195.78 695.152 195.853 694.934C195.927 694.716 195.947 694.483 195.913 694.255C195.879 694.028 195.791 693.811 195.657 693.624C195.522 693.438 195.345 693.285 195.14 693.18C183.44 687.247 177.877 677.597 178.45 664.23C178.537 662.23 179.564 657.664 181.53 650.53C182.33 651.164 183.144 651.79 183.97 652.41C192.79 658.99 198.62 649.77 201.08 642.43C204.42 632.49 206.84 626.1 211.32 616.56C218.067 602.194 222.21 592.967 223.75 588.88C230.71 570.36 234.534 560.334 235.22 558.8C237.12 554.56 238.71 550.49 240.99 546.48C246.324 537.074 252.237 527.717 258.73 518.41C261.69 514.16 265.02 510.48 268.58 506.32C273.41 500.69 276.09 493.88 277.23 486.53C289.064 492.364 301.657 495.247 315.01 495.18C323.884 495.14 332.884 495.054 342.01 494.92C343.877 494.894 345.3 495.924 346.28 498.01C355.93 518.5 375.88 532.77 397.28 538.64Z" fill="#FC870B"/>
<path d="M587.429 651.19C589.716 652.17 592.266 652.657 595.079 652.65C597.033 652.65 598.463 652.79 599.369 653.07C604.329 654.59 605.569 657.72 604.609 662.62C604.229 664.547 603.899 665.873 603.619 666.6C599.019 678.43 592.209 687.73 585.159 697.95C578.009 708.33 572.839 719.12 563.769 731.57C562.629 733.13 560.716 735.453 558.029 738.54C545.329 753.09 534.679 772.36 526.159 789.5C520.489 800.93 510.759 811.6 504.539 821.39C501.793 825.703 499.523 830.157 497.729 834.75C493.629 845.28 491.289 852.89 486.789 862.56C483.269 870.14 480.919 875.35 479.739 878.19C473.019 894.4 469.519 912.03 473.069 928.97C444.356 928.963 415.666 928.877 386.999 928.71C381.159 928.68 378.809 926.4 377.839 920.73C375.193 905.31 373.463 894.887 372.649 889.46C369.883 871.08 367.569 856.6 365.709 846.02C364.509 839.22 361.189 831.4 356.309 826.18C349.323 818.7 340.299 815.533 329.239 816.68C298.453 819.873 277.673 822.067 266.899 823.26C264.366 823.547 261.549 823.707 258.449 823.74C250.649 823.84 243.389 823.99 235.859 822.19C237.599 814.86 240.389 807.07 245.269 801.75C247.576 799.23 250.626 796.467 254.419 793.46C260.339 788.77 263.219 780.85 267.649 772.25C273.349 761.15 286.209 749.17 291.809 741.09C298.509 731.43 304.819 721.56 312.399 711.8C322.099 699.32 331.109 686.88 337.459 676.08C339.499 672.613 342.096 667.32 345.249 660.2C349.179 651.32 358.029 640.76 363.899 631.81C371.659 619.963 379.236 608.44 386.629 597.24C394.523 585.273 399.869 571.89 402.669 557.09C404.239 548.8 402.999 544.86 397.279 538.64C403.586 540.12 411.036 541.113 419.629 541.62C434.243 542.487 448.279 539.927 461.739 533.94C462.122 533.77 462.553 533.742 462.954 533.861C463.356 533.98 463.701 534.239 463.929 534.59C475.379 552.03 494.389 562.26 515.179 563.12C516.439 563.167 517.516 563.917 518.409 565.37C530.943 585.797 543.499 605.747 556.079 625.22C557.459 627.36 559.309 630.7 560.899 633.36C566.753 643.167 575.596 649.11 587.429 651.19Z" fill="#F97906"/>
</svg>
