<svg width="97" height="113" viewBox="0 0 97 113" fill="none" xmlns="http://www.w3.org/2000/svg">
<path d="M96.75 4.82812V94.8594H13.4375V2.14062H94.0625C95.5406 2.14062 96.75 3.35 96.75 4.82812Z" fill="#AF7DD6"/>
<path d="M88.6875 91.375V110.187H16.125V112.875H94.0625C95.546 112.875 96.75 111.671 96.75 110.187V91.375H88.6875Z" fill="url(#paint0_linear_690_12600)"/>
<path d="M12.0938 0.341313C11.2633 0.739063 10.5189 1.34375 10.0781 1.34375C9.40625 1.34375 8.0625 0 6.71875 0H5.375C2.40531 0 0 2.40531 0 5.375V98.0937H1.34106V96.75C1.34106 94.5247 3.14706 92.7187 5.37231 92.7187H16.1223V0H13.4348C12.9779 0 12.5264 0.134375 12.0938 0.341313Z" fill="#9551C8"/>
<path d="M10.0781 1.34375C9.63737 1.34375 8.89294 0.747121 8.0625 0.349371V92.7187H12.0938V0.341309C11.2633 0.739059 10.5189 1.34375 10.0781 1.34375Z" fill="#703D96"/>
<path d="M8.24255 0.443363V92.7133C8.25599 92.716 10.062 92.7187 10.0781 92.7187C10.0942 92.7187 11.9002 92.716 11.9137 92.716V0.437988C11.1585 0.798113 10.4839 1.34368 10.0781 1.34368C9.6723 1.34368 8.99774 0.803488 8.24255 0.443363Z" fill="#703D96"/>
<path d="M8.41992 0.540287V92.7108C8.44948 92.7135 10.0432 92.7188 10.0781 92.7188C10.113 92.7188 11.7067 92.7135 11.7363 92.7108V0.534912C11.0564 0.857412 10.4463 1.34385 10.0781 1.34385C9.70992 1.34385 9.09986 0.862787 8.41992 0.540287Z" fill="#703D96"/>
<path d="M8.59998 0.634282V92.7053C8.64298 92.7107 10.027 92.7188 10.0781 92.7188C10.1292 92.7188 11.5132 92.7107 11.5562 92.708V0.628906C10.9542 0.913781 10.4087 1.34378 10.0781 1.34378C9.74754 1.34378 9.20198 0.919156 8.59998 0.634282Z" fill="#703D96"/>
<path d="M8.78003 0.730961V92.7026C8.83647 92.7106 10.0109 92.7187 10.0781 92.7187C10.1453 92.7187 11.3197 92.7106 11.3762 92.7026V0.725586C10.8521 0.972836 10.371 1.34371 10.0781 1.34371C9.78515 1.34371 9.30409 0.978211 8.78003 0.730961Z" fill="#703D96"/>
<path d="M8.9574 0.824953V92.6971C9.02996 92.7079 9.99208 92.7186 10.0781 92.7186C10.1641 92.7186 11.1262 92.7079 11.1988 92.6998V0.822266C10.75 1.03189 10.3361 1.34364 10.0781 1.34364C9.82008 1.34364 9.40621 1.03458 8.9574 0.824953Z" fill="#703D96"/>
<path d="M9.13745 0.921877V92.6973C9.22345 92.7054 9.97595 92.7188 10.0781 92.7188C10.1802 92.7188 10.9327 92.7054 11.0187 92.6946V0.919189C10.6478 1.09119 10.2985 1.34381 10.0781 1.34381C9.8577 1.34381 9.50833 1.09388 9.13745 0.921877Z" fill="#703D96"/>
<path d="M9.3175 1.01587V92.6919C9.41963 92.7026 9.95982 92.7188 10.0781 92.7188C10.1963 92.7188 10.7392 92.7026 10.8386 92.6919V1.01587C10.543 1.15024 10.2608 1.34374 10.0781 1.34374C9.89532 1.34374 9.61313 1.15024 9.3175 1.01587Z" fill="#703D96"/>
<path d="M9.495 1.11255V92.6891C9.61056 92.6999 9.94112 92.7187 10.0782 92.7187C10.2152 92.7187 10.5458 92.6999 10.6614 92.6864V1.10986C10.441 1.2093 10.2233 1.34368 10.0782 1.34368C9.93306 1.34368 9.71537 1.2093 9.495 1.11255Z" fill="#703D96"/>
<path d="M10.0782 1.34385C9.96799 1.34385 9.81749 1.26591 9.67505 1.20679V92.6839C9.80405 92.6973 9.92499 92.7188 10.0782 92.7188C10.2314 92.7188 10.3523 92.6973 10.4813 92.6839V1.20679C10.3389 1.26591 10.1884 1.34385 10.0782 1.34385Z" fill="#703D96"/>
<path d="M94.0625 91.375H16.125V94.0625H94.7344C95.847 94.0625 96.75 93.1595 96.75 92.0469V88.6875C96.75 90.171 95.546 91.375 94.0625 91.375Z" fill="#9551C8"/>
<path d="M8.0625 92.7188H5.375C3.14975 92.7188 1.34375 94.5247 1.34375 96.75V107.5C1.34375 109.725 3.14975 111.531 5.375 111.531H8.0625V92.7188Z" fill="#101030"/>
<path d="M94.0625 94.0625H8.0625C6.58169 94.0625 5.375 95.8712 5.375 98.0938V106.156C5.375 108.379 6.58169 110.188 8.0625 110.188H94.0625C94.0625 110.188 92.7188 108.172 92.7188 102.125C92.7188 96.0781 94.0625 94.0625 94.0625 94.0625Z" fill="#B8B7AA"/>
<path d="M93.9066 94.6377H8.83112C7.34762 94.6377 6.14362 96.4464 6.14362 98.6689V105.579C6.14362 107.801 7.34762 109.61 8.83112 109.61H93.9066C93.8851 109.457 92.7187 107.54 92.7187 102.125C92.7187 96.7098 93.8851 94.7936 93.9066 94.6377Z" fill="#BEBDAF"/>
<path d="M93.748 95.2153H9.59705C8.11355 95.2153 6.90955 97.024 6.90955 99.2466V105.006C6.90955 107.228 8.11355 109.037 9.59705 109.037H93.748C93.7077 108.725 92.7187 106.911 92.7187 102.125C92.7187 97.3385 93.7077 95.5244 93.748 95.2153Z" fill="#C3C2B5"/>
<path d="M93.5922 95.7905H10.3657C8.88216 95.7905 7.67816 97.5965 7.67816 99.8218V104.428C7.67816 106.653 8.88216 108.459 10.3657 108.459H93.5895C93.5303 107.994 92.7187 106.28 92.7187 102.125C92.7187 97.9701 93.5303 96.2555 93.5922 95.7905Z" fill="#C9C8BA"/>
<path d="M93.4336 96.3657H11.1343C9.65084 96.3657 8.44684 98.1717 8.44684 100.397V103.853C8.44684 106.078 9.65084 107.884 11.1343 107.884H93.4336C93.353 107.264 92.7188 105.648 92.7188 102.125C92.7188 98.6017 93.353 96.9865 93.4336 96.3657Z" fill="#CFCDBF"/>
<path d="M93.2778 96.9409H11.903C10.4195 96.9409 9.21545 98.7469 9.21545 100.972V103.275C9.21545 105.501 10.4195 107.307 11.903 107.307H93.2778C93.1756 106.535 92.7188 105.017 92.7188 102.125C92.7188 99.2334 93.1756 97.7149 93.2778 96.9409Z" fill="#D5D3C4"/>
<path d="M93.1192 97.5186H12.6689C11.1854 97.5186 9.98138 99.3246 9.98138 101.55V102.703C9.98138 104.928 11.1854 106.734 12.6689 106.734H93.1192C92.9982 105.804 92.7187 104.388 92.7187 102.125C92.7187 99.8621 92.9982 98.4457 93.1192 97.5186Z" fill="#DAD8CA"/>
<path d="M92.7187 102.125C92.7187 100.494 92.8209 99.1768 92.9633 98.0938H13.4375C11.954 98.0938 10.75 99.8997 10.75 102.125C10.75 104.35 11.954 106.156 13.4375 106.156H92.9633C92.8209 105.073 92.7187 103.756 92.7187 102.125Z" fill="#E0DECF"/>
<path d="M5.375 94.0625C5.375 94.0625 5.375 94.0625 6.71875 94.0625C8.0625 94.0625 9.40625 95.4062 10.0781 95.4062C10.75 95.4062 12.0938 94.0625 13.4375 94.0625C13.7009 94.0625 14.706 94.0625 16.125 94.0625V91.375C14.5474 91.375 13.5746 91.375 13.4375 91.375C12.0938 91.375 10.75 92.7187 10.0781 92.7187C9.40625 92.7187 8.0625 91.375 6.71875 91.375C5.375 91.375 5.375 91.375 5.375 91.375C2.40531 91.375 0 93.7803 0 96.75V107.5C0 110.47 2.40531 112.875 5.375 112.875H6.71875C8.0625 112.875 9.40625 111.531 10.0781 111.531C10.75 111.531 12.0938 112.875 13.4375 112.875H16.125V110.187H13.4375C12.0938 110.187 10.75 108.844 10.0781 108.844C9.40625 108.844 8.0625 110.187 6.71875 110.187H5.375C3.8915 110.187 2.6875 108.983 2.6875 107.5V96.75C2.6875 95.2665 3.8915 94.0625 5.375 94.0625Z" fill="#703D96"/>
<defs>
<linearGradient id="paint0_linear_690_12600" x1="16.125" y1="102.125" x2="96.75" y2="102.125" gradientUnits="userSpaceOnUse">
<stop stop-color="#AF7DD6"/>
<stop offset="1" stop-color="#9551C8"/>
</linearGradient>
</defs>
</svg>
