<?xml version="1.0" encoding="UTF-8"?>
<!DOCTYPE svg PUBLIC "-//W3C//DTD SVG 1.1//EN" "http://www.w3.org/Graphics/SVG/1.1/DTD/svg11.dtd">
<svg xmlns="http://www.w3.org/2000/svg" version="1.1" width="500px" height="500px" style="shape-rendering:geometricPrecision; text-rendering:geometricPrecision; image-rendering:optimizeQuality; fill-rule:evenodd; clip-rule:evenodd" xmlns:xlink="http://www.w3.org/1999/xlink">
<g><path style="opacity:0.847" fill="#a288d5" d="M 367.5,91.5 C 293.833,91.5 220.167,91.5 146.5,91.5C 150.231,90.8045 154.065,90.1378 158,89.5C 227.778,90.1243 297.611,90.791 367.5,91.5 Z"/></g>
<g><path style="opacity:0.988" fill="#6c44c2" d="M 146.5,92.5 C 146.5,92.1667 146.5,91.8333 146.5,91.5C 220.167,91.5 293.833,91.5 367.5,91.5C 369.153,91.6596 370.486,92.3263 371.5,93.5C 371.5,94.1667 371.5,94.8333 371.5,95.5C 369.86,94.6799 368.193,93.8466 366.5,93C 293.167,92.5 219.834,92.3333 146.5,92.5 Z"/></g>
<g><path style="opacity:0.808" fill="#c6a9e8" d="M 146.5,91.5 C 146.5,91.8333 146.5,92.1667 146.5,92.5C 143.833,92.8333 141.167,93.1667 138.5,93.5C 140.838,91.9605 143.505,91.2938 146.5,91.5 Z"/></g>
<g><path style="opacity:1" fill="#713ad6" d="M 146.5,92.5 C 219.834,92.3333 293.167,92.5 366.5,93C 368.193,93.8466 369.86,94.6799 371.5,95.5C 372.167,95.8333 372.833,96.1667 373.5,96.5C 374.176,170.825 374.843,245.158 375.5,319.5C 375.262,321.404 374.262,322.738 372.5,323.5C 371.167,323.833 369.833,324.167 368.5,324.5C 293.497,324.167 218.497,324.5 143.5,325.5C 142.271,326.281 140.938,326.781 139.5,327C 139.833,327.333 140.167,327.667 140.5,328C 139.207,328.49 137.873,328.657 136.5,328.5C 136.5,329.5 136.5,330.5 136.5,331.5C 136.167,332.167 135.833,332.833 135.5,333.5C 131.935,334.324 129.935,336.657 129.5,340.5C 128.184,346.32 128.184,351.987 129.5,357.5C 129.586,361.509 130.752,365.176 133,368.5C 133.671,369.252 134.504,369.586 135.5,369.5C 136.585,371.587 138.251,372.92 140.5,373.5C 141.167,373.833 141.833,374.167 142.5,374.5C 143.287,376.104 144.62,376.771 146.5,376.5C 148.028,377.309 149.694,377.976 151.5,378.5C 153.292,379.309 155.292,379.809 157.5,380C 185.686,380.187 213.853,380.687 242,381.5C 273.38,380.452 305.213,380.285 337.5,381C 335.405,381.556 335.238,382.056 337,382.5C 339.556,379.929 342.056,379.929 344.5,382.5C 346.367,379.771 347.367,380.104 347.5,383.5C 349.5,383.5 351.5,383.5 353.5,383.5C 352.459,370.852 352.292,358.185 353,345.5C 355.984,342.9 359.484,341.9 363.5,342.5C 364.293,354.455 364.793,366.455 365,378.5C 367.835,380.275 371.001,381.275 374.5,381.5C 375.167,381.833 375.833,382.167 376.5,382.5C 377.219,384.764 377.552,387.097 377.5,389.5C 375.824,390.183 375.157,391.517 375.5,393.5C 375.167,393.5 374.833,393.5 374.5,393.5C 373.833,393.833 373.167,394.167 372.5,394.5C 296.815,394.818 221.148,394.485 145.5,393.5C 144.167,393.5 142.833,393.5 141.5,393.5C 140.833,393.5 140.167,393.5 139.5,393.5C 139.027,392.094 138.027,391.427 136.5,391.5C 136.167,391.5 135.833,391.5 135.5,391.5C 135.167,390.5 134.5,389.833 133.5,389.5C 133.167,389.5 132.833,389.5 132.5,389.5C 131.738,387.738 130.404,386.738 128.5,386.5C 128.167,385.5 127.5,384.833 126.5,384.5C 125.348,380.767 123.014,378.1 119.5,376.5C 117.707,374.574 116.707,372.241 116.5,369.5C 116.905,365.952 116.405,362.619 115,359.5C 114.333,281.833 114.333,204.167 115,126.5C 116.405,123.381 116.905,120.048 116.5,116.5C 118.201,116.966 119.701,116.966 121,116.5C 121.48,111.907 122.647,107.573 124.5,103.5C 126.167,102.5 127.5,101.167 128.5,99.5C 130.482,99.0046 132.482,98.5046 134.5,98C 135.823,97.1841 136.489,96.0174 136.5,94.5C 136.842,93.6618 137.508,93.3284 138.5,93.5C 141.167,93.1667 143.833,92.8333 146.5,92.5 Z M 316.5,145.5 C 316.833,145.5 317.167,145.5 317.5,145.5C 317.973,146.906 318.973,147.573 320.5,147.5C 321.026,149.23 322.026,150.564 323.5,151.5C 323.808,170.546 323.475,189.546 322.5,208.5C 320.887,210.27 318.887,211.436 316.5,212C 274.125,212.822 231.792,212.656 189.5,211.5C 189.027,210.094 188.027,209.427 186.5,209.5C 186.573,207.973 185.906,206.973 184.5,206.5C 184.5,206.167 184.5,205.833 184.5,205.5C 184.333,187.497 184.5,169.497 185,151.5C 186.039,150.756 186.539,149.756 186.5,148.5C 187.167,148.5 187.5,148.167 187.5,147.5C 188.756,147.539 189.756,147.039 190.5,146C 232.499,145.5 274.499,145.333 316.5,145.5 Z"/></g>
<g><path style="opacity:0.447" fill="#cab5e8" d="M 371.5,93.5 C 372.906,93.9731 373.573,94.9731 373.5,96.5C 372.833,96.1667 372.167,95.8333 371.5,95.5C 371.5,94.8333 371.5,94.1667 371.5,93.5 Z"/></g>
<g><path style="opacity:1" fill="#8a65cd" d="M 136.5,94.5 C 136.489,96.0174 135.823,97.1841 134.5,98C 132.482,98.5046 130.482,99.0046 128.5,99.5C 130.629,97.0499 133.296,95.3833 136.5,94.5 Z"/></g>
<g><path style="opacity:0.361" fill="#d8c2f7" d="M 128.5,99.5 C 127.5,101.167 126.167,102.5 124.5,103.5C 124.833,101.167 126.167,99.8333 128.5,99.5 Z"/></g>
<g><path style="opacity:0.184" fill="#e5d0fb" d="M 120.5,107.5 C 120.573,109.027 119.906,110.027 118.5,110.5C 118.427,108.973 119.094,107.973 120.5,107.5 Z"/></g>
<g><path style="opacity:0.071" fill="#f4e6ff" d="M 118.5,110.5 C 118.573,112.027 117.906,113.027 116.5,113.5C 116.427,111.973 117.094,110.973 118.5,110.5 Z"/></g>
<g><path style="opacity:0.877" fill="#946dc4" d="M 373.5,96.5 C 374.558,97.6002 375.392,98.9336 376,100.5C 376.832,173.668 376.666,246.668 375.5,319.5C 374.843,245.158 374.176,170.825 373.5,96.5 Z"/></g>
<g><path style="opacity:0.499" fill="#b592f0" d="M 316.5,145.5 C 274.499,145.333 232.499,145.5 190.5,146C 189.756,147.039 188.756,147.539 187.5,147.5C 187.804,146.85 188.137,146.183 188.5,145.5C 231.331,144.169 273.998,144.169 316.5,145.5 Z"/></g>
<g><path style="opacity:0.173" fill="#eddaf7" d="M 317.5,145.5 C 319.027,145.427 320.027,146.094 320.5,147.5C 318.973,147.573 317.973,146.906 317.5,145.5 Z"/></g>
<g><path style="opacity:0.722" fill="#c7ace8" d="M 320.5,147.5 C 322.446,148.035 323.446,149.368 323.5,151.5C 322.026,150.564 321.026,149.23 320.5,147.5 Z"/></g>
<g><path style="opacity:0.71" fill="#9377c9" d="M 186.5,148.5 C 186.539,149.756 186.039,150.756 185,151.5C 184.5,169.497 184.333,187.497 184.5,205.5C 183.503,187.674 183.17,169.674 183.5,151.5C 183.81,149.856 184.81,148.856 186.5,148.5 Z"/></g>
<g><path style="opacity:0.984" fill="#6a40be" d="M 183.5,151.5 C 183.17,169.674 183.503,187.674 184.5,205.5C 184.5,205.833 184.5,206.167 184.5,206.5C 184.427,208.027 185.094,209.027 186.5,209.5C 186.973,210.906 187.973,211.573 189.5,211.5C 189.611,212.117 189.944,212.617 190.5,213C 233.837,213.833 277.171,213.667 320.5,212.5C 321.63,211.378 322.297,210.044 322.5,208.5C 323.475,189.546 323.808,170.546 323.5,151.5C 324.832,160.475 325.498,169.809 325.5,179.5C 325.333,188.833 325.167,198.167 325,207.5C 323.927,209.547 322.761,211.547 321.5,213.5C 277.504,214.667 233.504,214.833 189.5,214C 187.783,212.441 185.783,211.608 183.5,211.5C 182.209,191.354 182.209,171.354 183.5,151.5 Z"/></g>
<g><path style="opacity:0.417" fill="#d0b8f9" d="M 322.5,208.5 C 322.297,210.044 321.63,211.378 320.5,212.5C 277.171,213.667 233.837,213.833 190.5,213C 189.944,212.617 189.611,212.117 189.5,211.5C 231.792,212.656 274.125,212.822 316.5,212C 318.887,211.436 320.887,210.27 322.5,208.5 Z"/></g>
<g><path style="opacity:0.004" fill="#fcf0ff" d="M 186.5,209.5 C 188.027,209.427 189.027,210.094 189.5,211.5C 187.973,211.573 186.973,210.906 186.5,209.5 Z"/></g>
<g><path style="opacity:0.318" fill="#e5cff8" d="M 184.5,206.5 C 185.906,206.973 186.573,207.973 186.5,209.5C 185.094,209.027 184.427,208.027 184.5,206.5 Z"/></g>
<g><path style="opacity:0.94" fill="#714abd" d="M 307.5,160.5 C 307.5,172.833 307.5,185.167 307.5,197.5C 271.663,197.832 235.996,197.498 200.5,196.5C 235.833,196.5 271.167,196.5 306.5,196.5C 306.5,185.167 306.5,173.833 306.5,162.5C 271.5,162.5 236.5,162.5 201.5,162.5C 201.827,172.348 201.494,182.014 200.5,191.5C 200.5,181.167 200.5,170.833 200.5,160.5C 236.167,160.5 271.833,160.5 307.5,160.5 Z"/></g>
<g><path style="opacity:0.447" fill="#e1cbf9" d="M 308.5,160.5 C 308.167,160.5 307.833,160.5 307.5,160.5C 271.833,160.5 236.167,160.5 200.5,160.5C 200.5,170.833 200.5,181.167 200.5,191.5C 200.5,193.167 200.5,194.833 200.5,196.5C 235.996,197.498 271.663,197.832 307.5,197.5C 307.833,197.5 308.167,197.5 308.5,197.5C 272.337,198.498 236.004,198.832 199.5,198.5C 199.5,185.5 199.5,172.5 199.5,159.5C 236.004,159.168 272.337,159.502 308.5,160.5 Z"/></g>
<g><path style="opacity:0.603" fill="#bca8df" d="M 307.5,160.5 C 307.833,160.5 308.167,160.5 308.5,160.5C 309.741,173.025 309.741,185.359 308.5,197.5C 308.167,197.5 307.833,197.5 307.5,197.5C 307.5,185.167 307.5,172.833 307.5,160.5 Z"/></g>
<g><path style="opacity:1" fill="#713ad6" d="M 200.5,196.5 C 200.5,194.833 200.5,193.167 200.5,191.5C 201.494,182.014 201.827,172.348 201.5,162.5C 236.5,162.5 271.5,162.5 306.5,162.5C 306.5,173.833 306.5,185.167 306.5,196.5C 271.167,196.5 235.833,196.5 200.5,196.5 Z"/></g>
<g><path style="opacity:0.928" fill="#9f79d3" d="M 124.5,103.5 C 122.647,107.573 121.48,111.907 121,116.5C 119.701,116.966 118.201,116.966 116.5,116.5C 116.905,120.048 116.405,123.381 115,126.5C 114.333,204.167 114.333,281.833 115,359.5C 116.405,362.619 116.905,365.952 116.5,369.5C 114.738,366.497 113.572,363.163 113,359.5C 112.333,280.5 112.333,201.5 113,122.5C 114.018,119.412 115.185,116.412 116.5,113.5C 117.906,113.027 118.573,112.027 118.5,110.5C 119.906,110.027 120.573,109.027 120.5,107.5C 121.167,105.5 122.5,104.167 124.5,103.5 Z"/></g>
<g><path style="opacity:0.88" fill="#6a40b5" d="M 368.5,324.5 C 368.5,324.833 368.5,325.167 368.5,325.5C 368.167,325.5 367.833,325.5 367.5,325.5C 293.833,325.333 220.166,325.5 146.5,326C 145.584,326.278 144.918,326.778 144.5,327.5C 142.192,328.793 139.858,330.126 137.5,331.5C 137.167,331.5 136.833,331.5 136.5,331.5C 136.5,330.5 136.5,329.5 136.5,328.5C 137.873,328.657 139.207,328.49 140.5,328C 140.167,327.667 139.833,327.333 139.5,327C 140.938,326.781 142.271,326.281 143.5,325.5C 218.497,324.5 293.497,324.167 368.5,324.5 Z"/></g>
<g><path style="opacity:0.141" fill="#f5e7fd" d="M 372.5,323.5 C 371.713,325.104 370.38,325.771 368.5,325.5C 368.5,325.167 368.5,324.833 368.5,324.5C 369.833,324.167 371.167,323.833 372.5,323.5 Z"/></g>
<g><path style="opacity:0.15" fill="#fef5fe" d="M 367.5,325.5 C 293.306,326.176 218.973,326.842 144.5,327.5C 144.918,326.778 145.584,326.278 146.5,326C 220.166,325.5 293.833,325.333 367.5,325.5 Z"/></g>
<g><path style="opacity:0.024" fill="#f8edff" d="M 136.5,331.5 C 136.833,331.5 137.167,331.5 137.5,331.5C 137.573,333.027 136.906,334.027 135.5,334.5C 135.5,334.167 135.5,333.833 135.5,333.5C 135.833,332.833 136.167,332.167 136.5,331.5 Z"/></g>
<g><path style="opacity:0.012" fill="#efe3fe" d="M 363.5,342.5 C 363.5,342.167 363.5,341.833 363.5,341.5C 365.5,341.5 366.5,342.5 366.5,344.5C 365.5,343.833 364.5,343.167 363.5,342.5 Z"/></g>
<g><path style="opacity:0.706" fill="#c7afe8" d="M 355.5,341.5 C 355.027,342.906 354.027,343.573 352.5,343.5C 352.973,342.094 353.973,341.427 355.5,341.5 Z"/></g>
<g><path style="opacity:0.859" fill="#7f58c7" d="M 135.5,333.5 C 135.5,333.833 135.5,334.167 135.5,334.5C 133.638,337.448 131.971,340.448 130.5,343.5C 129.514,347.97 129.181,352.637 129.5,357.5C 128.184,351.987 128.184,346.32 129.5,340.5C 129.935,336.657 131.935,334.324 135.5,333.5 Z"/></g>
<g><path style="opacity:1" fill="#ad8fd7" d="M 130.5,343.5 C 129.237,352.55 130.903,360.883 135.5,368.5C 135.5,368.833 135.5,369.167 135.5,369.5C 134.504,369.586 133.671,369.252 133,368.5C 130.752,365.176 129.586,361.509 129.5,357.5C 129.181,352.637 129.514,347.97 130.5,343.5 Z"/></g>
<g><path style="opacity:0.361" fill="#ecdbfd" d="M 135.5,368.5 C 137.5,369.833 139.167,371.5 140.5,373.5C 138.251,372.92 136.585,371.587 135.5,369.5C 135.5,369.167 135.5,368.833 135.5,368.5 Z"/></g>
<g><path style="opacity:0.461" fill="#eaccff" d="M 366.5,344.5 C 367.495,355.321 367.828,366.321 367.5,377.5C 369.099,377.232 370.432,377.566 371.5,378.5C 369.833,378.5 368.167,378.5 366.5,378.5C 366.5,367.167 366.5,355.833 366.5,344.5 Z"/></g>
<g><path style="opacity:0.204" fill="#e9dbfa" d="M 142.5,374.5 C 144.153,374.66 145.486,375.326 146.5,376.5C 144.62,376.771 143.287,376.104 142.5,374.5 Z"/></g>
<g><path style="opacity:0.732" fill="#cdb3f5" d="M 350.5,346.5 C 350.5,357.167 350.5,367.833 350.5,378.5C 284.167,378.5 217.833,378.5 151.5,378.5C 149.694,377.976 148.028,377.309 146.5,376.5C 213.902,376.767 281.568,377.1 349.5,377.5C 349.172,366.986 349.506,356.653 350.5,346.5 Z"/></g>
<g><path style="opacity:0.173" fill="#e7d8fb" d="M 371.5,378.5 C 374.367,378.369 376.033,379.703 376.5,382.5C 375.833,382.167 375.167,381.833 374.5,381.5C 373.694,380.272 372.694,379.272 371.5,378.5 Z"/></g>
<g><path style="opacity:1" fill="#6f3ec8" d="M 363.5,341.5 C 363.5,341.833 363.5,342.167 363.5,342.5C 359.484,341.9 355.984,342.9 353,345.5C 352.292,358.185 352.459,370.852 353.5,383.5C 351.5,383.5 349.5,383.5 347.5,383.5C 347.367,380.104 346.367,379.771 344.5,382.5C 342.056,379.929 339.556,379.929 337,382.5C 335.238,382.056 335.405,381.556 337.5,381C 305.213,380.285 273.38,380.452 242,381.5C 213.853,380.687 185.686,380.187 157.5,380C 155.292,379.809 153.292,379.309 151.5,378.5C 217.833,378.5 284.167,378.5 350.5,378.5C 350.5,367.833 350.5,357.167 350.5,346.5C 350.932,345.29 351.599,344.29 352.5,343.5C 354.027,343.573 355.027,342.906 355.5,341.5C 358.167,340.167 360.833,340.167 363.5,341.5 Z"/></g>
<g><path style="opacity:1" fill="#6539b9" d="M 363.5,342.5 C 364.5,343.167 365.5,343.833 366.5,344.5C 366.5,355.833 366.5,367.167 366.5,378.5C 368.167,378.5 369.833,378.5 371.5,378.5C 372.694,379.272 373.694,380.272 374.5,381.5C 371.001,381.275 367.835,380.275 365,378.5C 364.793,366.455 364.293,354.455 363.5,342.5 Z"/></g>
<g><path style="opacity:1" fill="#a98ad6" d="M 119.5,376.5 C 123.014,378.1 125.348,380.767 126.5,384.5C 123.502,382.497 121.169,379.83 119.5,376.5 Z"/></g>
<g><path style="opacity:0.098" fill="#f6e7fc" d="M 376.5,382.5 C 377.993,383.312 378.66,384.645 378.5,386.5C 378.48,387.726 378.147,388.726 377.5,389.5C 377.552,387.097 377.219,384.764 376.5,382.5 Z"/></g>
<g><path style="opacity:0.004" fill="#f6efff" d="M 126.5,384.5 C 127.5,384.833 128.167,385.5 128.5,386.5C 127.167,386.5 126.5,385.833 126.5,384.5 Z"/></g>
<g><path style="opacity:0.282" fill="#ebdcfc" d="M 128.5,386.5 C 130.404,386.738 131.738,387.738 132.5,389.5C 130.596,389.262 129.262,388.262 128.5,386.5 Z"/></g>
<g><path style="opacity:0.004" fill="#f6eaff" d="M 133.5,389.5 C 134.5,389.833 135.167,390.5 135.5,391.5C 134.167,391.5 133.5,390.833 133.5,389.5 Z"/></g>
<g><path style="opacity:0.871" fill="#a487cd" d="M 377.5,389.5 C 377.34,391.153 376.674,392.486 375.5,393.5C 375.157,391.517 375.824,390.183 377.5,389.5 Z"/></g>
<g><path style="opacity:0.129" fill="#ecd6f6" d="M 136.5,391.5 C 138.027,391.427 139.027,392.094 139.5,393.5C 137.973,393.573 136.973,392.906 136.5,391.5 Z"/></g>
<g><path style="opacity:0.451" fill="#c5aaeb" d="M 141.5,393.5 C 142.833,393.5 144.167,393.5 145.5,393.5C 146.5,394.167 147.5,394.833 148.5,395.5C 145.772,395.829 143.438,395.163 141.5,393.5 Z"/></g>
<g><path style="opacity:0.831" fill="#572ba7" d="M 145.5,393.5 C 221.148,394.485 296.815,394.818 372.5,394.5C 372.5,394.833 372.5,395.167 372.5,395.5C 297.832,395.667 223.166,395.667 148.5,395.5C 147.5,394.833 146.5,394.167 145.5,393.5 Z"/></g>
<g><path style="opacity:0.016" fill="#f3e8fc" d="M 374.5,393.5 C 374.5,394.833 373.833,395.5 372.5,395.5C 372.5,395.167 372.5,394.833 372.5,394.5C 373.167,394.167 373.833,393.833 374.5,393.5 Z"/></g>
</svg>
