<svg width="1024" height="1024" viewBox="0 0 1024 1024" fill="none" xmlns="http://www.w3.org/2000/svg">
<path d="M581.949 504.99C568.756 504.237 555.549 502.077 542.329 498.51C532.656 495.897 520.386 492.7 505.519 488.92C495.219 486.3 483.769 483.81 474.799 482.68C460.473 480.88 446.243 478.677 432.109 476.07" stroke="#5FCAB2" stroke-width="2"/>
<path d="M230.46 557.66C224.353 558.647 218.247 559.33 212.14 559.71C203.54 560.25 195.963 557.847 189.41 552.5" stroke="#5FCAB2" stroke-width="2"/>
<path d="M809.85 496.23C803.33 496.77 796.913 497.21 790.6 497.55C783.87 497.9 778.04 497.12 773.56 491.64C772.56 490.413 771.02 488.453 768.94 485.76C768.873 485.671 768.776 485.609 768.666 485.586C768.556 485.562 768.44 485.577 768.34 485.63C768.166 485.723 768.056 485.863 768.01 486.05" stroke="#5FCAB2" stroke-width="2"/>
<path d="M514.401 164.27C538.261 165.29 558.951 176.58 573.191 195.31C613.421 248.2 574.191 325.03 507.691 322.2C441.191 319.37 408.621 239.5 453.191 190.21C468.971 172.76 490.541 163.26 514.401 164.27Z" fill="#6CCDB4"/>
<path d="M581.95 504.99C568.757 504.237 555.55 502.077 542.33 498.51C532.657 495.897 520.387 492.7 505.52 488.92C495.22 486.3 483.77 483.81 474.8 482.68C460.474 480.88 446.244 478.677 432.11 476.07C426.577 455.677 418.03 437.08 406.47 420.28C401.057 412.413 394.827 404.143 387.78 395.47C368.647 371.923 347.19 345.797 323.41 317.09C320.03 313.017 303.904 293.31 275.03 257.97C267.69 248.98 259.19 240 262.2 228.13C265.87 213.67 278.46 205.34 293.5 210.01C295.494 210.63 298.45 212.68 302.37 216.16C335.97 245.98 368.387 274.647 399.62 302.16C408.674 310.147 419.214 318.597 431.24 327.51C437.947 332.477 443.627 336.3 448.28 338.98C469.78 351.36 492.53 355.95 517.21 355.17C541.277 354.41 564.037 346.427 585.49 331.22C598.324 322.133 608.654 314.217 616.48 307.47C652.574 276.35 687.464 245.91 721.15 216.15C725.91 211.94 732.77 207.24 739.17 207.37C753.36 207.65 761.73 219.33 761.45 232.85C761.424 234.243 760.554 236.837 758.84 240.63C757.78 242.963 755.187 246.773 751.06 252.06C746.854 257.447 712.007 299.85 646.52 379.27C639.8 387.423 632.63 396.333 625.01 406C606.52 429.45 593.03 455.27 586.11 484.82C585.044 489.36 583.657 496.083 581.95 504.99Z" fill="#6CCDB4"/>
<path d="M230.46 557.66C224.354 558.647 218.247 559.33 212.14 559.71C203.54 560.25 195.964 557.847 189.41 552.5C188.077 538.173 187.82 524.4 188.64 511.18C189.414 498.653 190.77 486.487 192.71 474.68C201.46 421.5 225.69 371.63 259.87 329.89C270.88 316.44 291.75 326.36 294.56 341.42C295.58 346.893 294.5 351.81 291.32 356.17C290.654 357.083 287.764 360.827 282.65 367.4C251.07 407.98 232.62 457.23 229.45 508.24C228.45 524.327 228.787 540.8 230.46 557.66Z" fill="#6CCDB4"/>
<path d="M809.85 496.23C803.33 496.77 796.914 497.21 790.6 497.55C783.87 497.9 778.04 497.12 773.56 491.64C772.56 490.413 771.02 488.453 768.94 485.76C768.873 485.671 768.776 485.609 768.667 485.586C768.557 485.562 768.441 485.577 768.34 485.63C768.167 485.723 768.057 485.863 768.01 486.05C746.104 491.017 731.517 494.24 724.25 495.72C722.524 496.067 720.53 495.97 718.27 495.43C709.03 493.2 711.18 482.96 712.44 476.39C715.207 461.93 720.59 434.307 728.59 393.52C730.897 381.78 732.96 371.783 734.78 363.53C736.21 357.06 738.61 348.03 744.46 344.51C751.53 340.26 761.71 346.82 766.14 352.12C808.487 402.76 834.947 434.38 845.52 446.98C846.43 448.06 847.57 449.58 847.85 451.16C849.51 460.18 843.49 467.11 835.11 469.11C823.75 471.823 814.87 474.08 808.47 475.88C808.223 475.948 808.008 476.102 807.865 476.315C807.722 476.528 807.66 476.785 807.69 477.04L809.85 496.23Z" fill="#6CCDB4"/>
<path d="M581.95 504.99C578.87 522.27 576.15 535.613 573.79 545.02C566.04 575.93 552.04 603.2 532.34 627.6C524.106 637.8 516.733 646.84 510.22 654.72C506.233 659.54 498.443 669.757 486.85 685.37C485.876 686.677 483.703 690.077 480.33 695.57C470.53 711.49 465.27 729.68 467.41 748.32C467.86 752.21 469.56 755.87 470.59 758.43C470.714 758.742 470.725 759.088 470.621 759.408C470.517 759.728 470.304 760.001 470.02 760.18C467.2 761.99 457.63 757.22 453.9 755.08C425.47 738.76 412.97 706.4 415.41 674.54C416.19 664.44 417.283 655.323 418.69 647.19C422.96 622.58 428.65 598.81 433.61 574.64C438.303 551.8 439.763 529.84 437.99 508.76C437.156 498.8 435.196 487.903 432.11 476.07C446.243 478.677 460.473 480.88 474.8 482.68C483.77 483.81 495.22 486.3 505.52 488.92C520.386 492.7 532.656 495.897 542.33 498.51C555.55 502.077 568.756 504.237 581.95 504.99Z" fill="#52C6AF"/>
<path d="M809.85 496.23C811.65 512.357 812.133 528.52 811.3 544.72C807.813 613.14 784.507 673.453 741.38 725.66C710.927 762.533 673.91 791.06 630.33 811.24C583.07 833.13 531.84 842.55 480.5 839.22C440.71 836.63 402 826.74 365.84 809.31C266.7 761.53 197.37 663.65 189.41 552.5C195.963 557.847 203.54 560.25 212.14 559.71C218.247 559.33 224.353 558.647 230.46 557.66C230.967 560.567 231.42 563.44 231.82 566.28C235.433 591.753 242.66 616.313 253.5 639.96C280.47 698.78 327.97 746.44 386.48 773.7C424.92 791.613 465.59 799.947 508.49 798.7C551.98 797.44 592.95 786.78 630.84 765.68C666.207 745.98 695.607 720.2 719.04 688.34C750.95 644.98 769.57 592.08 771.26 537.51C771.713 522.677 771.147 507.683 769.56 492.53C769.28 489.81 769.08 487.883 768.96 486.75C768.9 486.183 768.583 485.95 768.01 486.05C768.057 485.863 768.167 485.723 768.34 485.63C768.441 485.577 768.556 485.562 768.666 485.586C768.776 485.609 768.873 485.671 768.94 485.76C771.02 488.453 772.56 490.413 773.56 491.64C778.04 497.12 783.87 497.9 790.6 497.55C796.913 497.21 803.33 496.77 809.85 496.23Z" fill="#52C6AF"/>
</svg>
