<svg width="1024" height="1024" viewBox="0 0 1024 1024" fill="none" xmlns="http://www.w3.org/2000/svg">
<path d="M832.039 601.98C827.333 601.393 823.939 600.53 821.859 599.39C811.629 593.76 802.199 580.92 807.999 569.15" stroke="#FF640B" stroke-width="2"/>
<path d="M704.018 549.7C686.285 546.287 670.145 539.427 655.598 529.12C655.488 529.042 655.352 529.008 655.218 529.027C655.085 529.046 654.963 529.115 654.878 529.22C649.912 535.68 644.745 541.15 639.378 545.63C636.865 547.723 633.735 549.33 629.988 550.45" stroke="#FF640B" stroke-width="2"/>
<path d="M361.139 362.04C351.433 360.567 342.786 356.583 335.199 350.09" stroke="#FF640B" stroke-width="2"/>
<path d="M472.129 515.5L472.309 566.8C472.309 566.845 472.318 566.889 472.336 566.93C472.354 566.971 472.38 567.007 472.413 567.038C472.446 567.068 472.485 567.091 472.527 567.105C472.57 567.119 472.614 567.124 472.659 567.12C476.492 566.8 480.302 566.247 484.089 565.46C492.189 563.79 495.819 557.52 498.909 550.2" stroke="#FF640B" stroke-width="2"/>
<path d="M526.35 589.04C526.54 592.36 526.66 601.81 531.84 601.09C535.833 600.537 540.166 599.747 544.84 598.72C552.7 597 553.03 601.93 553.99 608.02" stroke="#FF640B" stroke-width="2"/>
<path d="M389.888 551.362C389.839 551.427 389.822 551.515 389.837 551.62C389.853 551.724 389.9 551.844 389.976 551.972C390.053 552.1 390.157 552.233 390.283 552.365C390.409 552.497 390.554 552.624 390.711 552.739C391.027 552.972 391.369 553.143 391.661 553.214C391.953 553.285 392.172 553.251 392.27 553.118C392.318 553.053 392.335 552.965 392.32 552.861C392.305 552.756 392.258 552.636 392.181 552.508C392.105 552.38 392.001 552.247 391.875 552.115C391.749 551.984 391.603 551.856 391.447 551.741C391.131 551.508 390.789 551.337 390.497 551.266C390.204 551.195 389.985 551.229 389.888 551.362Z" stroke="#FF640B" stroke-width="2"/>
<path d="M512.15 110.47H511.37C503.931 110.47 497.9 116.501 497.9 123.94V194.56C497.9 201.999 503.931 208.03 511.37 208.03H512.15C519.59 208.03 525.62 201.999 525.62 194.56V123.94C525.62 116.501 519.59 110.47 512.15 110.47Z" fill="#FF6C0A"/>
<path d="M739.221 188.384L738.809 187.976C733.303 182.508 724.407 182.539 718.94 188.045L669.108 238.226C663.64 243.732 663.671 252.628 669.177 258.096L669.589 258.504C675.095 263.972 683.991 263.941 689.458 258.435L739.29 208.254C744.758 202.748 744.727 193.852 739.221 188.384Z" fill="#FF6C0A"/>
<path d="M287.006 188.105L286.624 188.487C281.333 193.779 281.333 202.358 286.624 207.65L337.89 258.915C343.181 264.207 351.76 264.207 357.052 258.915L357.434 258.533C362.726 253.241 362.726 244.662 357.434 239.37L306.169 188.105C300.877 182.814 292.298 182.814 287.006 188.105Z" fill="#FF5C0B"/>
<path d="M832.039 601.98C827.333 601.393 823.939 600.53 821.859 599.39C811.629 593.76 802.199 580.92 807.999 569.15C821.239 568.27 831.373 562.263 838.399 551.13C843.899 542.42 844.129 534.27 844.019 524.26C843.826 506.987 843.753 479.233 843.799 441C843.813 433.1 841.886 426.01 838.019 419.73C831.379 408.95 819.809 399.99 807.239 400.01C767.699 400.063 734.733 400.04 708.339 399.94C708.215 399.94 708.092 399.965 707.978 400.014C707.863 400.064 707.76 400.136 707.674 400.226C707.588 400.317 707.521 400.424 707.477 400.542C707.434 400.659 707.414 400.785 707.419 400.91C707.729 408.29 709.219 415.68 709.669 424C710.449 438.24 709.689 452.113 707.389 465.62C704.603 481.947 700.203 497.727 694.189 512.96C694.137 513.093 694.119 513.236 694.134 513.377C694.15 513.519 694.2 513.655 694.28 513.773C694.359 513.891 694.466 513.987 694.592 514.055C694.717 514.122 694.857 514.159 694.999 514.16C706.126 514.187 714.389 514.163 719.789 514.09C724.569 514.017 728.133 514.543 730.479 515.67C736.509 518.56 738.729 523.08 739.879 529.41C740.493 532.837 740.736 534.963 740.609 535.79C739.029 545.82 730.869 549.68 721.499 549.76C713.579 549.827 707.753 549.807 704.019 549.7C686.286 546.287 670.146 539.427 655.599 529.12C655.489 529.042 655.353 529.009 655.219 529.027C655.086 529.046 654.964 529.115 654.879 529.22C649.913 535.68 644.746 541.15 639.379 545.63C636.866 547.723 633.736 549.33 629.989 550.45C621.959 551.89 614.019 550.5 608.899 543.61C601.559 533.69 606.079 519.85 617.149 515.1C618.669 514.453 621.113 514.13 624.479 514.13C636.619 514.137 648.486 514.15 660.079 514.17C660.578 514.17 661.067 514.026 661.487 513.757C661.907 513.488 662.241 513.104 662.449 512.65C672.789 490.18 679.669 466.09 681.109 441.41C682.539 416.98 676.479 391.85 667.569 369.29C660.259 350.79 646.989 332.46 633.409 318.18C629.876 314.46 625.373 310.417 619.899 306.05C612.533 300.177 607.723 296.503 605.469 295.03C573.529 274.09 533.069 263.29 495.009 267.84C470.136 270.813 446.959 278.947 425.479 292.24C401.526 307.06 382.263 326.213 367.689 349.7C366.523 351.593 364.339 355.707 361.139 362.04C351.433 360.567 342.786 356.583 335.199 350.09C339.979 340.043 345.469 330.567 351.669 321.66C360.359 309.2 371.689 298.26 383.529 287.53C398.329 274.11 417.399 261.6 436.539 253.82C459.339 244.55 483.629 238.8 508.079 238.26C514.839 238.107 519.896 238.223 523.249 238.61C531.829 239.58 540.979 240.13 549.179 241.64C559.119 243.48 569.703 246.377 580.929 250.33C605.119 258.84 626.729 272.98 644.959 290.05C650.506 295.25 656.889 301.867 664.109 309.9C677.779 325.11 687.509 342.63 695.599 361.37C695.711 361.631 695.898 361.852 696.134 362.007C696.371 362.162 696.647 362.243 696.929 362.24C765.863 362.1 803.719 362.073 810.499 362.16C815.879 362.23 823.199 364.31 828.549 366.48C852.649 376.207 869.259 393.497 878.379 418.35C879.593 421.663 880.503 425.513 881.109 429.9C881.529 432.953 881.739 436.903 881.739 441.75C881.766 471.197 881.796 502.53 881.829 535.75C881.829 539.54 881.459 543.31 880.409 547.07C873.499 571.59 856.439 593.29 832.039 601.98Z" fill="#FF6C0A"/>
<path d="M335.2 350.09C342.787 356.583 351.433 360.567 361.14 362.04C350.92 383.01 346.28 403.88 344.7 427.14C342.83 454.76 350.57 484.26 362.02 510.3C362.667 511.773 363.737 512.52 365.23 512.54C371.917 512.613 379.31 512.547 387.41 512.34C395.137 512.147 400.713 512.563 404.14 513.59C416.58 517.33 423.91 526.58 427 539.24C430.21 552.39 421.54 568.13 414.11 578.58C413.862 578.932 413.724 579.35 413.713 579.781C413.703 580.211 413.82 580.636 414.05 581C422.097 593.753 427.78 607.37 431.1 621.85C434.68 637.44 437.61 650.27 437.93 666C438.117 674.933 438.197 679.977 438.17 681.13C438.167 681.276 438.194 681.421 438.248 681.557C438.302 681.693 438.383 681.816 438.485 681.921C438.587 682.025 438.71 682.108 438.844 682.164C438.979 682.221 439.124 682.25 439.27 682.25H470.87C471.194 682.25 471.504 682.121 471.733 681.893C471.961 681.664 472.09 681.353 472.09 681.03L472.13 515.5L472.31 566.8C472.31 566.845 472.319 566.889 472.337 566.93C472.355 566.971 472.381 567.007 472.414 567.037C472.447 567.068 472.486 567.09 472.528 567.105C472.571 567.119 472.616 567.124 472.66 567.12C476.493 566.8 480.303 566.247 484.09 565.46C492.19 563.79 495.82 557.52 498.91 550.2L499.08 681.13C499.08 681.424 499.198 681.707 499.408 681.915C499.618 682.123 499.903 682.24 500.2 682.24H525.23C525.385 682.24 525.538 682.209 525.682 682.15C525.825 682.091 525.955 682.004 526.064 681.894C526.174 681.785 526.261 681.655 526.32 681.511C526.379 681.368 526.41 681.215 526.41 681.06L526.35 589.04C526.54 592.36 526.66 601.81 531.84 601.09C535.833 600.537 540.167 599.746 544.84 598.72C552.7 597 553.03 601.93 553.99 608.02L554.03 680.99C554.03 681.147 554.061 681.303 554.121 681.449C554.182 681.595 554.27 681.727 554.381 681.838C554.493 681.95 554.625 682.038 554.771 682.098C554.916 682.159 555.072 682.19 555.23 682.19H585.07C585.383 682.19 585.684 682.068 585.908 681.849C586.132 681.63 586.262 681.333 586.27 681.02C586.597 664.42 588.097 648.333 590.77 632.76C593.33 617.887 598.237 603.963 605.49 590.99C605.836 590.378 606.245 589.802 606.71 589.27C608.097 587.683 610.333 584.64 613.42 580.14C614.46 578.627 615.94 575.673 617.86 571.28C620.84 564.46 625.383 558.213 631.49 552.54C631.632 552.408 631.744 552.248 631.818 552.069C631.893 551.89 631.928 551.697 631.921 551.504C631.914 551.31 631.866 551.121 631.78 550.947C631.693 550.774 631.571 550.621 631.42 550.5C631.287 550.393 630.81 550.377 629.99 550.45C633.737 549.33 636.867 547.723 639.38 545.63C644.747 541.15 649.913 535.68 654.88 529.22C654.965 529.115 655.086 529.046 655.22 529.027C655.354 529.008 655.49 529.042 655.6 529.12C670.147 539.427 686.287 546.287 704.02 549.7L670.67 549.77C669.723 549.77 668.816 550.144 668.15 550.81L654.16 564.8C653.982 564.976 653.856 565.197 653.795 565.439C653.734 565.681 653.741 565.936 653.814 566.174C653.887 566.413 654.024 566.628 654.21 566.794C654.396 566.961 654.624 567.074 654.87 567.12C661.077 568.327 668.223 568.94 676.31 568.96C720.17 569.067 764.067 569.13 808 569.15C802.2 580.92 811.63 593.76 821.86 599.39C823.94 600.53 827.333 601.393 832.04 601.98C823.46 605.293 815.53 606.987 808.25 607.06C785.85 607.273 735.137 607.167 656.11 606.74C647.97 606.69 637.82 605.8 631.46 605.05C631.215 605.022 630.968 605.079 630.762 605.213C630.555 605.346 630.403 605.547 630.33 605.78C629.523 608.373 628.693 610.96 627.84 613.54C623.167 627.686 620.213 642.483 618.98 657.93C618.1 668.96 619.11 682.77 618.28 693.24C617.43 703.92 607.73 709.63 597.74 709.65C521.98 709.85 464.987 709.85 426.76 709.65C422.927 709.63 419.273 708.553 415.8 706.42C410.133 702.94 407.353 697.8 407.46 691C407.533 686.747 407.463 676.437 407.25 660.07C407.203 656.323 406.023 648.223 403.71 635.77C401.443 623.557 397.587 611.83 392.14 600.59C391.966 600.236 391.668 599.96 391.302 599.814C390.936 599.668 390.529 599.663 390.16 599.8C383.273 602.34 376.223 604.293 369.01 605.66C364.717 606.473 358.6 606.876 350.66 606.87C285.033 606.816 242.98 606.793 224.5 606.8C218.46 606.8 210.92 606.97 204.87 605.93C191.557 603.63 180.057 598.137 170.37 589.45C158.01 578.36 147.37 564.43 143.58 547.72C142.807 544.326 142.42 539.65 142.42 533.69C142.413 499.537 142.423 467.223 142.45 436.75C142.457 429.457 143.667 422.643 146.08 416.31C155.29 392.1 174.33 372.97 198.92 364.69C204.36 362.86 209.61 362.1 215.78 362.12C244.02 362.18 280.677 362.253 325.75 362.34C326.803 362.34 327.787 362.39 328.7 362.49C328.967 362.522 329.238 362.467 329.472 362.334C329.706 362.2 329.891 361.996 330 361.75L335.2 350.09ZM369.59 565.31C354.86 551.82 341.63 537.02 333.64 519.34C326.393 503.307 321.477 486.927 318.89 470.2C317.86 463.57 316.57 457.25 316.11 451.93C314.657 435.01 315.433 418.103 318.44 401.21C318.487 400.952 318.436 400.687 318.297 400.465C318.159 400.243 317.942 400.08 317.69 400.01C317.55 399.97 317.32 399.95 317 399.95C273.073 400.05 241.063 400.033 220.97 399.9C216.637 399.873 213.04 400.297 210.18 401.17C196.94 405.21 186.49 415.09 182.54 428.17C181.467 431.737 180.94 437.673 180.96 445.98C181.007 462.193 181.033 490.64 181.04 531.32C181.04 535.987 181.393 539.573 182.1 542.08C185.66 554.78 196.47 564.5 208.76 567.98C211.867 568.853 216.653 569.277 223.12 569.25C264.827 569.057 306.703 569.063 348.75 569.27C355.517 569.303 362.32 568.527 369.16 566.94C369.33 566.902 369.485 566.818 369.611 566.697C369.736 566.576 369.825 566.424 369.87 566.255C369.914 566.087 369.912 565.91 369.862 565.743C369.813 565.577 369.719 565.427 369.59 565.31ZM389.889 551.362C389.84 551.427 389.823 551.515 389.839 551.619C389.854 551.724 389.901 551.844 389.978 551.972C390.054 552.1 390.158 552.233 390.284 552.365C390.41 552.496 390.556 552.624 390.712 552.739C391.028 552.972 391.37 553.143 391.662 553.214C391.954 553.285 392.174 553.25 392.271 553.118C392.32 553.053 392.337 552.965 392.321 552.86C392.306 552.756 392.259 552.636 392.182 552.508C392.106 552.38 392.002 552.247 391.876 552.115C391.75 551.983 391.604 551.856 391.448 551.741C391.132 551.508 390.79 551.337 390.498 551.266C390.205 551.195 389.986 551.229 389.889 551.362Z" fill="#FF5C0B"/>
<path d="M553.99 608.02C553.03 601.93 552.7 597 544.84 598.72C540.167 599.747 535.833 600.537 531.84 601.09C526.66 601.81 526.54 592.36 526.35 589.04L526.19 483.1C526.19 482.798 526.07 482.508 525.856 482.294C525.642 482.08 525.352 481.96 525.05 481.96H500.01C499.705 481.96 499.412 482.081 499.197 482.297C498.981 482.513 498.86 482.805 498.86 483.11L498.91 550.2C495.82 557.52 492.19 563.79 484.09 565.46C480.303 566.247 476.493 566.8 472.66 567.12C472.615 567.124 472.571 567.119 472.528 567.105C472.486 567.091 472.447 567.068 472.414 567.038C472.381 567.008 472.355 566.971 472.337 566.93C472.319 566.889 472.31 566.845 472.31 566.8L472.13 515.5L472.05 483.31C472.05 482.955 471.908 482.614 471.655 482.363C471.401 482.111 471.058 481.97 470.7 481.97C465.807 481.99 460.41 481.964 454.51 481.89C436.6 481.68 415.93 467.15 412.7 448.56C411.26 440.32 412.13 430.61 415.95 422.19C424.56 403.18 445.06 391.48 465.77 396.8C474.51 399.04 482.03 403.987 488.33 411.64C497.92 423.29 499.64 437.39 498.88 452.2C498.87 452.385 498.899 452.569 498.963 452.742C499.027 452.915 499.125 453.074 499.253 453.207C499.38 453.341 499.533 453.448 499.703 453.52C499.873 453.593 500.055 453.63 500.24 453.63H525.01C525.197 453.63 525.383 453.593 525.555 453.52C525.728 453.447 525.884 453.34 526.014 453.206C526.145 453.072 526.247 452.913 526.315 452.738C526.383 452.564 526.415 452.377 526.41 452.19C526.05 438.69 527.66 426.51 534.87 415.12C543.71 401.18 558.03 394.11 574.53 395.94C602.34 399.03 620.67 430.85 608.92 455.99C606.987 460.13 604.073 464.093 600.18 467.88C591.34 476.46 582.61 481.85 570.49 481.9C565.79 481.92 560.627 481.913 555 481.88C554.869 481.879 554.739 481.903 554.618 481.953C554.497 482.002 554.386 482.075 554.293 482.167C554.2 482.259 554.127 482.368 554.076 482.489C554.026 482.61 554 482.739 554 482.87L553.99 608.02ZM472.01 454.83C472.15 454.657 472.223 454.463 472.23 454.25C472.303 444.363 472.35 439.113 472.37 438.5C472.563 433.64 470.893 429.513 467.36 426.12C462.03 421.01 453.94 419.43 447.72 423.76C443.31 426.84 439.83 430.93 439.23 436.35C438.33 444.38 442.5 451.64 449.92 454.74C451.48 455.393 454.23 455.617 458.17 455.41C462.01 455.203 466.29 455.167 471.01 455.3C471.417 455.307 471.75 455.15 472.01 454.83ZM554.06 454.6C554.059 454.733 554.084 454.864 554.134 454.987C554.183 455.109 554.257 455.221 554.35 455.314C554.444 455.407 554.555 455.481 554.676 455.53C554.798 455.579 554.929 455.603 555.06 455.6C556.407 455.58 561.13 455.557 569.23 455.53C578.69 455.49 586.12 448.17 586.05 438.75C585.98 428.46 576.25 419.73 566.03 422.62C558.56 424.73 554.33 431.35 554.23 439.01C554.203 440.683 554.147 445.88 554.06 454.6Z" fill="#FF6C0A"/>
<path d="M391.447 551.741C390.789 551.256 390.091 551.086 389.888 551.362C389.685 551.637 390.053 552.254 390.711 552.739C391.369 553.224 392.067 553.394 392.27 553.118C392.473 552.843 392.105 552.226 391.447 551.741Z" fill="#FF6C0A"/>
<path d="M591.13 729.61H437.91C428.902 729.61 421.6 736.912 421.6 745.92V746.82C421.6 755.828 428.902 763.13 437.91 763.13H591.13C600.137 763.13 607.44 755.828 607.44 746.82V745.92C607.44 736.912 600.137 729.61 591.13 729.61Z" fill="#FF5C0B"/>
<path d="M573.67 816.93C574.057 829.077 569.677 839.12 560.53 847.06C556.084 850.92 552.697 853.527 550.37 854.88C543.19 859.08 535.894 861.437 528.48 861.95C525.094 862.184 517.924 862.277 506.97 862.23C498.004 862.19 489.574 860.544 481.68 857.29C473.607 853.957 466.72 848.774 461.02 841.74C454.93 834.22 452.91 826.1 453.63 816.69C453.637 816.578 453.621 816.467 453.582 816.362C453.543 816.257 453.483 816.161 453.404 816.081C453.326 816.001 453.232 815.938 453.128 815.896C453.024 815.855 452.912 815.836 452.8 815.84C448.48 816.034 445.147 816.017 442.8 815.79C440.84 815.604 438.347 814.394 435.32 812.16C431.68 809.467 429.714 805.804 429.42 801.17C428.787 790.924 433.254 784.664 442.82 782.39C443.026 782.344 443.241 782.32 443.46 782.32C496.314 782.294 540.647 782.28 576.46 782.28C581.84 782.28 585.654 782.77 587.9 783.75C594.83 786.79 598.72 794.37 597 801.91C596.174 805.504 594.73 808.404 592.67 810.61C587.25 816.42 581.71 816.97 574.28 816.34C574.2 816.335 574.12 816.346 574.045 816.373C573.97 816.401 573.901 816.443 573.844 816.499C573.786 816.555 573.741 816.622 573.711 816.696C573.681 816.771 573.667 816.85 573.67 816.93ZM513.55 834.59C521.297 834.604 528.22 833.474 534.32 831.2C540.947 828.727 545.317 824.044 547.43 817.15C547.47 817.019 547.478 816.88 547.453 816.745C547.429 816.61 547.373 816.483 547.29 816.374C547.207 816.265 547.1 816.177 546.976 816.117C546.853 816.057 546.717 816.028 546.58 816.03C543.04 816.11 532.044 816.13 513.59 816.09C495.13 816.05 484.13 815.984 480.59 815.89C480.454 815.888 480.32 815.918 480.198 815.977C480.075 816.036 479.968 816.123 479.886 816.231C479.803 816.339 479.747 816.465 479.722 816.598C479.696 816.732 479.703 816.87 479.74 817C481.82 823.907 486.167 828.61 492.78 831.11C498.874 833.41 505.797 834.57 513.55 834.59Z" fill="#FF5C0B"/>
</svg>
