<svg width="1024" height="1024" viewBox="0 0 1024 1024" fill="none" xmlns="http://www.w3.org/2000/svg">
<path d="M665.38 445.2C623.7 451.14 586.9 474.27 562.34 508.25C543.993 533.63 534.993 563.053 535.34 596.52C535.526 614.92 539.15 633.337 546.21 651.77C552.763 668.897 562.303 683.857 574.83 696.65C579.723 701.657 584.786 706.433 590.02 710.98C603.306 722.533 618.1 731.34 634.4 737.4C655.54 745.26 679.3 747.63 702.22 745.36C710.62 744.527 717.11 743.633 721.69 742.68C743.103 738.233 762.343 729.447 779.41 716.32C799.81 700.62 816.46 676.77 826.78 653.03C844.88 611.41 841.43 561.24 819.66 521.47C797.35 480.69 759.7 453.72 713.61 445.92C697.363 443.173 681.286 442.933 665.38 445.2Z" stroke="#8FE9D5" stroke-width="2"/>
<path d="M351.209 524.07C335.149 523.53 316.589 523.967 295.529 525.38C272.883 526.893 252.216 530.703 233.529 536.81C226.123 539.23 218.966 542.31 212.059 546.05C201.479 551.78 183.659 563.66 197.899 577.09C205.953 584.677 215.226 590.567 225.719 594.76C234.893 598.427 242.729 601.01 249.229 602.51C289.799 611.88 331.999 613 374.019 609.89C389.146 608.77 403.966 606.527 418.479 603.16C435.299 599.27 451.709 592.77 465.449 582.69C469.819 579.49 474.839 573.92 474.929 568.39C475.249 547.64 424.289 533.29 408.599 530.22C399.513 528.44 388.146 526.853 374.499 525.46C370.159 525.02 365.779 524.96 361.209 524.6C358.323 524.373 354.989 524.197 351.209 524.07Z" stroke="#8AE8D2" stroke-width="2"/>
<path d="M485.95 603.3C485.952 603.254 485.94 603.208 485.915 603.169C485.889 603.13 485.853 603.101 485.809 603.084C485.766 603.067 485.719 603.065 485.674 603.077C485.629 603.089 485.589 603.114 485.56 603.15C483.3 605.65 480.777 607.773 477.99 609.52C461.96 619.57 444.16 625.58 424.86 630.47C406.907 635.01 389.217 637.753 371.79 638.7C347.6 640.02 324.59 640.9 306.27 639.49C291.977 638.39 275.72 636.22 257.5 632.98C243.97 630.57 230.29 626.53 217.56 621.95C208.28 618.61 199.7 614.293 191.82 609C191.757 608.956 191.683 608.931 191.607 608.928C191.53 608.924 191.454 608.941 191.386 608.978C191.318 609.015 191.261 609.071 191.222 609.138C191.182 609.205 191.16 609.282 191.16 609.36C191.233 614.28 191.27 623.39 191.27 636.69C191.28 645 190.9 648.7 196.12 653.6C199.613 656.88 203.15 659.607 206.73 661.78C216.77 667.867 227.717 672.747 239.57 676.42C278.79 688.59 320.32 692.28 361.29 690.85C375.55 690.357 389.533 688.503 403.24 685.29C404.25 685.051 405.149 684.476 405.79 683.66C407.56 681.37 409.35 678.63 411.38 676.38C430.24 655.5 457.76 642.31 484.98 635.37C485.258 635.299 485.504 635.138 485.679 634.911C485.855 634.685 485.95 634.406 485.95 634.12V603.3Z" stroke="#8AE8D2" stroke-width="2"/>
<path d="M599.66 752.21C599.744 752.193 599.821 752.151 599.879 752.088C599.937 752.025 599.975 751.946 599.986 751.861C599.997 751.776 599.981 751.69 599.941 751.614C599.9 751.539 599.837 751.478 599.76 751.44C587.33 745.19 574.74 735.52 564.48 726.37C543.893 708.037 528.507 685.713 518.32 659.4C518.234 659.181 518.077 658.998 517.873 658.88C517.67 658.761 517.433 658.716 517.2 658.75C495.33 661.95 474.05 667.84 454.15 678.88C446.217 683.287 439.407 688.64 433.72 694.94C429.05 700.11 428.12 708.16 432.32 714.13C433.98 716.49 435.587 718.347 437.14 719.7C444.04 725.727 451.943 730.653 460.85 734.48C472.977 739.693 485.233 743.573 497.62 746.12C516.927 750.087 536.493 752.247 556.32 752.6C568.94 752.827 582.337 752.783 596.51 752.47C597.937 752.443 598.987 752.357 599.66 752.21Z" stroke="#8AE8D2" stroke-width="2"/>
<path d="M191.811 686.69C191.684 701.15 191.691 714.217 191.831 725.89C191.911 732.41 205.551 741.07 210.861 743.9C219.808 748.653 229.338 752.553 239.451 755.6C255.091 760.307 271.521 763.623 288.741 765.55C299.668 766.77 308.591 767.497 315.511 767.73C320.931 767.917 330.124 768.053 343.091 768.14C354.138 768.213 363.324 767.983 370.651 767.45C381.264 766.683 390.668 765.817 398.861 764.85C399.155 764.815 399.425 764.669 399.616 764.443C399.808 764.217 399.906 763.926 399.891 763.63C399.198 746.47 399.008 730.517 399.321 715.77C399.324 715.676 399.305 715.582 399.267 715.495C399.229 715.409 399.173 715.332 399.101 715.269C399.03 715.206 398.946 715.159 398.854 715.132C398.762 715.104 398.666 715.097 398.571 715.11C378.571 718.017 358.548 719.597 338.501 719.85C328.508 719.977 318.751 719.543 309.231 718.55C282.464 715.75 256.141 710.547 230.261 702.94C218.448 699.473 207.768 695.183 198.221 690.07C195.994 688.877 194.108 687.633 192.561 686.34C192.494 686.286 192.413 686.251 192.327 686.241C192.242 686.23 192.155 686.244 192.076 686.28C191.998 686.317 191.932 686.375 191.885 686.447C191.838 686.519 191.812 686.604 191.811 686.69Z" stroke="#7CE4CD" stroke-width="2"/>
<path d="M428.24 749.2C427.827 753.6 427.72 760.467 427.92 769.8C428.21 783.33 428.27 794.91 431.21 805.41C432.237 809.063 433.457 811.693 434.87 813.3C443.84 823.5 457.51 830.79 469.78 835.7C485.42 841.953 502.163 846.457 520.01 849.21C533.89 851.35 546.057 852.523 556.51 852.73C561.43 852.823 570.153 852.9 582.68 852.96C592.013 853 600.727 852.613 608.82 851.8C635.35 849.15 658.82 844.84 682.37 835.9C695.1 831.07 722.8 817.47 723.12 801.75C723.207 797.41 723.237 786.767 723.21 769.82C723.209 769.756 723.195 769.692 723.168 769.634C723.141 769.576 723.101 769.525 723.053 769.484C723.004 769.443 722.947 769.413 722.886 769.397C722.826 769.381 722.762 769.378 722.7 769.39C709.073 771.677 695.257 772.583 681.25 772.11C678.517 772.017 673.543 771.833 666.33 771.56C663.85 771.46 659.87 771.6 658.05 772.01C628.13 778.783 595.283 781.767 559.51 780.96C531.29 780.32 503.717 776.557 476.79 769.67C463.037 766.15 450.183 761.26 438.23 755C434.543 753.067 431.373 751.067 428.72 749C428.677 748.967 428.626 748.946 428.573 748.938C428.519 748.931 428.465 748.938 428.415 748.959C428.366 748.979 428.324 749.012 428.293 749.055C428.262 749.097 428.244 749.148 428.24 749.2Z" stroke="#8AE8D2" stroke-width="2"/>
<path d="M414.741 833.57C407.974 825.15 404.084 815.54 403.071 804.74C402.677 800.527 402.381 796.517 402.181 792.71C402.173 792.584 402.138 792.46 402.08 792.348C402.021 792.236 401.94 792.137 401.841 792.058C401.742 791.979 401.628 791.922 401.506 791.889C401.383 791.857 401.256 791.85 401.131 791.87C384.757 794.517 369.807 795.847 356.281 795.86C348.761 795.867 340.927 795.877 332.781 795.89C318.794 795.917 302.787 794.95 284.761 792.99C270.547 791.45 257.261 788.977 244.901 785.57C230.461 781.59 219.127 778.087 210.901 775.06C204.221 772.593 197.967 769.567 192.141 765.98C192.074 765.939 191.998 765.917 191.921 765.915C191.843 765.913 191.766 765.932 191.698 765.97C191.63 766.007 191.573 766.062 191.533 766.129C191.493 766.196 191.472 766.272 191.471 766.35C191.504 772.537 191.624 778.99 191.831 785.71C192.101 794.63 193.401 800.03 199.491 805.77C202.511 808.617 204.887 810.597 206.621 811.71C222.261 821.75 239.144 829.177 257.271 833.99C273.457 838.297 288.181 840.897 301.441 841.79C315.461 842.73 330.817 843.123 347.511 842.97C370.024 842.763 392.347 839.887 414.481 834.34C414.56 834.321 414.633 834.282 414.692 834.228C414.752 834.173 414.797 834.104 414.823 834.027C414.849 833.95 414.855 833.868 414.841 833.788C414.827 833.708 414.792 833.633 414.741 833.57Z" stroke="#7CE4CD" stroke-width="2"/>
<path d="M701.411 505.36C701.378 504.88 701.284 502.68 701.131 498.76C700.981 494.87 699.691 486.23 696.811 482.93C692.561 478.07 686.161 477.7 680.421 479.68C677.621 480.65 675.021 483.4 674.411 485.95C672.718 493.037 671.944 500.06 672.091 507.02C672.096 507.2 672.036 507.376 671.922 507.515C671.809 507.655 671.648 507.749 671.471 507.78C658.138 509.967 646.751 515.713 637.311 525.02C627.491 534.71 622.931 548.68 623.681 562.13C624.421 575.55 633.461 589.2 644.341 596.5C652.668 602.093 661.981 606.247 672.281 608.96C676.154 609.98 682.608 611.377 691.641 613.15C703.211 615.43 719.821 620.39 720.641 634.76C721.571 651.24 709.481 657.74 695.511 660.9C688.051 662.59 680.051 661.47 672.451 659.58C664.761 657.67 658.311 653.64 654.501 647.15C652.021 642.94 649.591 638.65 645.231 637.28C641.601 636.13 636.341 634.14 633.891 635.24C631.118 636.493 628.604 638.62 626.351 641.62C624.501 644.08 624.551 647.55 625.061 650.23C626.961 660.317 632.041 668.467 640.301 674.68C649.674 681.733 660.058 685.943 671.451 687.31C671.635 687.332 671.803 687.423 671.924 687.564C672.044 687.704 672.107 687.885 672.101 688.07C671.954 693.037 672.474 697.713 673.661 702.1C674.668 705.8 675.734 708.243 676.861 709.43C680.741 713.523 685.281 715 690.481 713.86C695.291 712.8 699.441 709.3 700.501 704.29C701.661 698.84 701.101 693.93 701.131 688.63C701.134 688.336 701.237 688.05 701.424 687.822C701.611 687.593 701.871 687.433 702.161 687.37C708.981 685.923 715.374 683.593 721.341 680.38C738.541 671.11 752.601 653.4 752.121 633.24C751.814 620.013 746.188 609.507 735.241 601.72C731.728 599.22 728.228 597.22 724.741 595.72C718.128 592.88 711.674 590.697 705.381 589.17C698.101 587.403 690.368 585.527 682.181 583.54C674.928 581.787 668.624 578.96 663.271 575.06C656.944 570.447 654.334 564.07 655.441 555.93C658.461 533.74 684.171 529.97 701.661 534.59C709.741 536.72 715.891 541.9 719.401 549.46C721.151 553.21 722.381 556.16 725.531 557.54C731.951 560.367 738.068 559.457 743.881 554.81C745.188 553.763 745.921 552.237 746.081 550.23C747.691 529.85 726.281 510.99 707.711 507.3C703.978 506.56 702.078 506.177 702.011 506.15C701.845 506.093 701.699 505.988 701.593 505.847C701.486 505.707 701.423 505.537 701.411 505.36Z" stroke="#8FE9D5" stroke-width="2"/>
<path d="M745.85 187.32C745.87 187.246 745.871 187.168 745.853 187.093C745.835 187.019 745.799 186.95 745.748 186.894C745.697 186.838 745.632 186.796 745.561 186.773C745.49 186.749 745.413 186.745 745.34 186.76C727.073 190.433 710.366 194.08 695.22 197.7C689.326 199.107 683.006 199.85 676.26 199.93C671.05 199.99 666.84 196 664.69 191.6C660.93 183.9 665.54 177.59 673.06 175.55C680.186 173.623 685.053 172.327 687.66 171.66C730.22 160.807 760.006 153.263 777.02 149.03C779.233 148.477 781.093 147.98 782.6 147.54C786.54 146.38 790.92 144.76 794.78 146.2C799.14 147.81 801.7 152 802.4 156.43C802.62 157.837 802.503 160.043 802.05 163.05C799.903 177.303 797.306 194.05 794.26 213.29C791.68 229.56 788.07 255.6 786.38 267.98C785.01 278.07 782.61 286.26 771.58 286.28C762.78 286.29 756.68 280.35 757.92 271.24C761.293 246.353 763.953 226.33 765.9 211.17C765.909 211.09 765.901 211.009 765.875 210.933C765.848 210.857 765.805 210.788 765.748 210.731C765.692 210.674 765.623 210.631 765.547 210.605C765.471 210.579 765.39 210.57 765.31 210.58C764.703 210.667 764.12 210.993 763.56 211.56C754.5 220.8 698.14 277.797 594.48 382.55C590.02 387.06 585.59 392.52 580.89 396.62C578.85 398.393 576.553 399.44 574 399.76C568.44 400.46 563.753 398.89 559.94 395.05C535.146 370.097 505.666 340.513 471.5 306.3C470.64 305.433 469.773 304.643 468.9 303.93C468.564 303.658 468.14 303.519 467.709 303.539C467.277 303.559 466.868 303.738 466.56 304.04C439.553 330.6 413.543 356.543 388.53 381.87C352.83 418.01 326.49 443.95 296.63 474.63C290.18 481.26 281.85 484.41 273.83 478.46C267.46 473.72 265.13 465.68 271.17 459.67C299.703 431.303 326.913 404.013 352.8 377.8C383.59 346.61 419.44 311.36 453.77 276.77C455.123 275.403 456.89 273.82 459.07 272.02C465.39 266.79 475.01 268.38 480.58 273.93C511.106 304.377 541.41 334.567 571.49 364.5C571.6 364.609 571.731 364.695 571.874 364.754C572.018 364.812 572.172 364.842 572.327 364.841C572.482 364.84 572.635 364.809 572.778 364.749C572.921 364.688 573.051 364.6 573.16 364.49C577.473 360.143 582.723 354.863 588.91 348.65C608.95 328.51 628.86 308.4 648.64 288.32C659.293 277.5 667.676 269.103 673.79 263.13C691.15 246.17 706.22 230.09 722.91 213.65C730.95 205.73 737.68 196.71 745.21 188.47C745.503 188.15 745.716 187.767 745.85 187.32Z" fill="#55D2B8"/>
<path d="M510.03 559.18C512.356 546.007 515.9 533.73 520.66 522.35C543.75 467.12 597.34 427.88 655.04 417.11C669.02 414.503 682.503 413.7 695.49 414.7C735.21 417.76 774.05 430.48 804.69 456.54C845.41 491.18 867.72 542.62 867.33 595.78C867.276 603.487 866.44 612.58 864.82 623.06C856.77 675.07 827.85 717.45 783.85 745.62C774.12 751.85 763.59 756.25 752.33 760.83C751.99 760.968 751.7 761.205 751.497 761.51C751.294 761.815 751.187 762.174 751.19 762.54C751.23 769.093 751.18 781.177 751.04 798.79C750.75 835.07 707.24 856.74 678.27 865.8C657.376 872.333 635.196 876.903 611.73 879.51C591.79 881.73 572.403 882.327 553.57 881.3C547.637 880.98 539.056 880.073 527.83 878.58C505.11 875.553 483.503 870.26 463.01 862.7C457.01 860.48 451.323 857.97 445.95 855.17C444.943 854.651 443.773 854.547 442.69 854.88C419.38 862.1 395.22 866.22 370.98 868.84C366.313 869.347 362.32 869.613 359 869.64C353.78 869.68 348.48 870.34 343 870.42C302.44 871.07 262.93 865.91 223.97 852.82C209.256 847.873 196.273 840.917 185.02 831.95C173.053 822.403 166.263 809.903 164.65 794.45C163.883 787.077 163.493 778.927 163.48 770C163.4 706.887 163.366 642.97 163.38 578.25C163.38 570.02 163.31 561.74 165.78 554.78C172.29 536.43 190.77 524.45 208.3 517.29C223.786 510.957 239.4 506.33 255.14 503.41C276.8 499.397 296.013 497.14 312.78 496.64C331.026 496.1 347.266 496.067 361.5 496.54C364.126 496.627 371.323 497.26 383.09 498.44C402.57 500.407 422.723 504.74 443.55 511.44C470.8 520.22 494.85 534.39 508.77 559.4C508.839 559.521 508.944 559.618 509.071 559.678C509.198 559.737 509.339 559.756 509.477 559.732C509.615 559.708 509.742 559.642 509.841 559.544C509.94 559.445 510.006 559.318 510.03 559.18ZM665.38 445.2C623.7 451.14 586.9 474.27 562.34 508.25C543.993 533.63 534.993 563.053 535.34 596.52C535.527 614.92 539.15 633.337 546.21 651.77C552.763 668.897 562.303 683.857 574.83 696.65C579.723 701.657 584.786 706.433 590.02 710.98C603.307 722.533 618.1 731.34 634.4 737.4C655.54 745.26 679.3 747.63 702.22 745.36C710.62 744.527 717.11 743.633 721.69 742.68C743.103 738.233 762.343 729.447 779.41 716.32C799.81 700.62 816.46 676.77 826.78 653.03C844.88 611.41 841.43 561.24 819.66 521.47C797.35 480.69 759.7 453.72 713.61 445.92C697.363 443.173 681.286 442.933 665.38 445.2ZM351.21 524.07C335.15 523.53 316.59 523.967 295.53 525.38C272.883 526.893 252.216 530.703 233.53 536.81C226.123 539.23 218.966 542.31 212.06 546.05C201.48 551.78 183.66 563.66 197.9 577.09C205.953 584.677 215.226 590.567 225.72 594.76C234.893 598.427 242.73 601.01 249.23 602.51C289.8 611.88 332 613 374.02 609.89C389.146 608.77 403.966 606.527 418.48 603.16C435.3 599.27 451.71 592.77 465.45 582.69C469.82 579.49 474.84 573.92 474.93 568.39C475.25 547.64 424.29 533.29 408.6 530.22C399.513 528.44 388.146 526.853 374.5 525.46C370.16 525.02 365.78 524.96 361.21 524.6C358.323 524.373 354.99 524.197 351.21 524.07ZM485.95 603.3C485.952 603.254 485.94 603.208 485.914 603.169C485.889 603.13 485.852 603.101 485.809 603.084C485.766 603.067 485.718 603.065 485.674 603.077C485.629 603.089 485.589 603.114 485.56 603.15C483.3 605.65 480.776 607.773 477.99 609.52C461.96 619.57 444.16 625.58 424.86 630.47C406.906 635.01 389.216 637.753 371.79 638.7C347.6 640.02 324.59 640.9 306.27 639.49C291.976 638.39 275.72 636.22 257.5 632.98C243.97 630.57 230.29 626.53 217.56 621.95C208.28 618.61 199.7 614.293 191.82 609C191.757 608.956 191.683 608.931 191.607 608.928C191.53 608.924 191.454 608.941 191.386 608.978C191.318 609.015 191.261 609.071 191.221 609.138C191.181 609.205 191.16 609.282 191.16 609.36C191.233 614.28 191.27 623.39 191.27 636.69C191.28 645 190.9 648.7 196.12 653.6C199.613 656.88 203.15 659.607 206.73 661.78C216.77 667.867 227.716 672.747 239.57 676.42C278.79 688.59 320.32 692.28 361.29 690.85C375.55 690.357 389.533 688.503 403.24 685.29C404.25 685.051 405.149 684.476 405.79 683.66C407.56 681.37 409.35 678.63 411.38 676.38C430.24 655.5 457.76 642.31 484.98 635.37C485.257 635.299 485.503 635.138 485.679 634.911C485.855 634.685 485.95 634.407 485.95 634.12V603.3ZM599.66 752.21C599.744 752.193 599.82 752.15 599.879 752.088C599.937 752.025 599.975 751.946 599.986 751.861C599.997 751.776 599.981 751.69 599.94 751.614C599.9 751.539 599.837 751.478 599.76 751.44C587.33 745.19 574.74 735.52 564.48 726.37C543.893 708.037 528.507 685.713 518.32 659.4C518.234 659.181 518.077 658.998 517.873 658.879C517.67 658.761 517.432 658.716 517.2 658.75C495.33 661.95 474.05 667.84 454.15 678.88C446.216 683.287 439.406 688.64 433.72 694.94C429.05 700.11 428.12 708.16 432.32 714.13C433.98 716.49 435.586 718.347 437.14 719.7C444.04 725.727 451.943 730.653 460.85 734.48C472.977 739.693 485.233 743.573 497.62 746.12C516.926 750.087 536.493 752.247 556.32 752.6C568.94 752.827 582.336 752.783 596.51 752.47C597.936 752.443 598.986 752.357 599.66 752.21ZM191.81 686.69C191.683 701.15 191.69 714.217 191.83 725.89C191.91 732.41 205.55 741.07 210.86 743.9C219.806 748.653 229.336 752.553 239.45 755.6C255.09 760.307 271.52 763.623 288.74 765.55C299.666 766.77 308.59 767.497 315.51 767.73C320.93 767.917 330.123 768.053 343.09 768.14C354.136 768.213 363.323 767.983 370.65 767.45C381.263 766.683 390.666 765.817 398.86 764.85C399.154 764.815 399.424 764.669 399.615 764.443C399.806 764.217 399.905 763.926 399.89 763.63C399.196 746.47 399.006 730.517 399.32 715.77C399.322 715.676 399.304 715.582 399.266 715.495C399.228 715.409 399.172 715.332 399.1 715.269C399.029 715.206 398.944 715.159 398.853 715.132C398.761 715.104 398.665 715.097 398.57 715.11C378.57 718.017 358.546 719.597 338.5 719.85C328.506 719.977 318.75 719.543 309.23 718.55C282.463 715.75 256.14 710.547 230.26 702.94C218.446 699.473 207.766 695.183 198.22 690.07C195.993 688.877 194.106 687.633 192.56 686.34C192.493 686.286 192.412 686.251 192.326 686.241C192.24 686.23 192.153 686.244 192.075 686.28C191.997 686.317 191.931 686.375 191.884 686.447C191.837 686.52 191.811 686.604 191.81 686.69ZM428.24 749.2C427.826 753.6 427.72 760.467 427.92 769.8C428.21 783.33 428.27 794.91 431.21 805.41C432.236 809.063 433.456 811.693 434.87 813.3C443.84 823.5 457.51 830.79 469.78 835.7C485.42 841.953 502.163 846.457 520.01 849.21C533.89 851.35 546.056 852.523 556.51 852.73C561.43 852.823 570.153 852.9 582.68 852.96C592.013 853 600.727 852.613 608.82 851.8C635.35 849.15 658.82 844.84 682.37 835.9C695.1 831.07 722.8 817.47 723.12 801.75C723.206 797.41 723.237 786.767 723.21 769.82C723.209 769.756 723.195 769.692 723.168 769.634C723.14 769.576 723.101 769.525 723.052 769.484C723.004 769.443 722.947 769.413 722.886 769.397C722.825 769.381 722.762 769.378 722.7 769.39C709.073 771.677 695.256 772.583 681.25 772.11C678.516 772.017 673.543 771.833 666.33 771.56C663.85 771.46 659.87 771.6 658.05 772.01C628.13 778.783 595.283 781.767 559.51 780.96C531.29 780.32 503.716 776.557 476.79 769.67C463.036 766.15 450.183 761.26 438.23 755C434.543 753.067 431.373 751.067 428.72 749C428.677 748.967 428.626 748.946 428.572 748.938C428.519 748.931 428.464 748.938 428.415 748.958C428.366 748.979 428.323 749.012 428.293 749.055C428.262 749.097 428.243 749.148 428.24 749.2ZM414.74 833.57C407.973 825.15 404.083 815.54 403.07 804.74C402.676 800.527 402.38 796.517 402.18 792.71C402.172 792.584 402.137 792.461 402.079 792.348C402.02 792.236 401.939 792.137 401.84 792.058C401.741 791.979 401.627 791.922 401.505 791.889C401.383 791.857 401.255 791.85 401.13 791.87C384.756 794.517 369.806 795.847 356.28 795.86C348.76 795.867 340.926 795.877 332.78 795.89C318.793 795.917 302.786 794.95 284.76 792.99C270.546 791.45 257.26 788.977 244.9 785.57C230.46 781.59 219.126 778.087 210.9 775.06C204.22 772.593 197.966 769.567 192.14 765.98C192.073 765.939 191.998 765.917 191.92 765.915C191.842 765.914 191.765 765.932 191.697 765.97C191.629 766.008 191.572 766.063 191.532 766.129C191.492 766.196 191.471 766.272 191.47 766.35C191.503 772.537 191.623 778.99 191.83 785.71C192.1 794.63 193.4 800.03 199.49 805.77C202.51 808.617 204.886 810.597 206.62 811.71C222.26 821.75 239.143 829.177 257.27 833.99C273.456 838.297 288.18 840.897 301.44 841.79C315.46 842.73 330.816 843.123 347.51 842.97C370.023 842.763 392.346 839.887 414.48 834.34C414.559 834.321 414.632 834.282 414.692 834.228C414.751 834.173 414.797 834.104 414.823 834.027C414.848 833.95 414.855 833.868 414.84 833.788C414.826 833.708 414.791 833.633 414.74 833.57Z" fill="#55D2B8"/>
<path d="M665.38 445.2C681.286 442.933 697.363 443.173 713.61 445.92C759.7 453.72 797.35 480.69 819.66 521.47C841.43 561.24 844.88 611.41 826.78 653.03C816.46 676.77 799.81 700.62 779.41 716.32C762.343 729.447 743.103 738.233 721.69 742.68C717.11 743.633 710.62 744.527 702.22 745.36C679.3 747.63 655.54 745.26 634.4 737.4C618.1 731.34 603.306 722.533 590.02 710.98C584.786 706.433 579.723 701.657 574.83 696.65C562.303 683.857 552.763 668.897 546.21 651.77C539.15 633.337 535.526 614.92 535.34 596.52C534.993 563.053 543.993 533.63 562.34 508.25C586.9 474.27 623.7 451.14 665.38 445.2ZM701.41 505.36C701.376 504.88 701.283 502.68 701.13 498.76C700.98 494.87 699.69 486.23 696.81 482.93C692.56 478.07 686.16 477.7 680.42 479.68C677.62 480.65 675.02 483.4 674.41 485.95C672.716 493.037 671.943 500.06 672.09 507.02C672.095 507.2 672.035 507.376 671.921 507.515C671.807 507.655 671.647 507.749 671.47 507.78C658.136 509.967 646.75 515.713 637.31 525.02C627.49 534.71 622.93 548.68 623.68 562.13C624.42 575.55 633.46 589.2 644.34 596.5C652.666 602.093 661.98 606.247 672.28 608.96C676.153 609.98 682.606 611.377 691.64 613.15C703.21 615.43 719.82 620.39 720.64 634.76C721.57 651.24 709.48 657.74 695.51 660.9C688.05 662.59 680.05 661.47 672.45 659.58C664.76 657.67 658.31 653.64 654.5 647.15C652.02 642.94 649.59 638.65 645.23 637.28C641.6 636.13 636.34 634.14 633.89 635.24C631.116 636.493 628.603 638.62 626.35 641.62C624.5 644.08 624.55 647.55 625.06 650.23C626.96 660.317 632.04 668.467 640.3 674.68C649.673 681.733 660.056 685.943 671.45 687.31C671.633 687.332 671.802 687.423 671.922 687.564C672.043 687.704 672.106 687.885 672.1 688.07C671.953 693.037 672.473 697.713 673.66 702.1C674.666 705.8 675.733 708.243 676.86 709.43C680.74 713.523 685.28 715 690.48 713.86C695.29 712.8 699.44 709.3 700.5 704.29C701.66 698.84 701.1 693.93 701.13 688.63C701.132 688.336 701.236 688.05 701.423 687.822C701.61 687.593 701.87 687.433 702.16 687.37C708.98 685.923 715.373 683.593 721.34 680.38C738.54 671.11 752.6 653.4 752.12 633.24C751.813 620.013 746.186 609.507 735.24 601.72C731.726 599.22 728.226 597.22 724.74 595.72C718.126 592.88 711.673 590.697 705.38 589.17C698.1 587.403 690.366 585.527 682.18 583.54C674.926 581.787 668.623 578.96 663.27 575.06C656.943 570.447 654.333 564.07 655.44 555.93C658.46 533.74 684.17 529.97 701.66 534.59C709.74 536.72 715.89 541.9 719.4 549.46C721.15 553.21 722.38 556.16 725.53 557.54C731.95 560.367 738.066 559.457 743.88 554.81C745.186 553.763 745.92 552.237 746.08 550.23C747.69 529.85 726.28 510.99 707.71 507.3C703.976 506.56 702.076 506.177 702.01 506.15C701.844 506.093 701.698 505.988 701.591 505.847C701.484 505.707 701.421 505.537 701.41 505.36Z" fill="#C9FFF2"/>
<path d="M702.009 506.15C702.076 506.177 703.976 506.56 707.709 507.3C726.279 510.99 747.689 529.85 746.079 550.23C745.919 552.237 745.186 553.763 743.879 554.81C738.066 559.457 731.949 560.367 725.529 557.54C722.379 556.16 721.149 553.21 719.399 549.46C715.889 541.9 709.739 536.72 701.659 534.59C684.169 529.97 658.459 533.74 655.439 555.93C654.332 564.07 656.942 570.447 663.269 575.06C668.622 578.96 674.926 581.787 682.179 583.54C690.366 585.527 698.099 587.403 705.379 589.17C711.672 590.697 718.126 592.88 724.739 595.72C728.226 597.22 731.726 599.22 735.239 601.72C746.186 609.507 751.812 620.013 752.119 633.24C752.599 653.4 738.539 671.11 721.339 680.38C715.372 683.593 708.979 685.923 702.159 687.37C701.869 687.433 701.609 687.593 701.422 687.822C701.235 688.05 701.132 688.336 701.129 688.63C701.099 693.93 701.659 698.84 700.499 704.29C699.439 709.3 695.289 712.8 690.479 713.86C685.279 715 680.739 713.523 676.859 709.43C675.732 708.243 674.666 705.8 673.659 702.1C672.472 697.713 671.952 693.037 672.099 688.07C672.105 687.885 672.042 687.704 671.922 687.564C671.802 687.423 671.633 687.332 671.449 687.31C660.056 685.943 649.672 681.733 640.299 674.68C632.039 668.467 626.959 660.317 625.059 650.23C624.549 647.55 624.499 644.08 626.349 641.62C628.602 638.62 631.116 636.493 633.889 635.24C636.339 634.14 641.599 636.13 645.229 637.28C649.589 638.65 652.019 642.94 654.499 647.15C658.309 653.64 664.759 657.67 672.449 659.58C680.049 661.47 688.049 662.59 695.509 660.9C709.479 657.74 721.569 651.24 720.639 634.76C719.819 620.39 703.209 615.43 691.639 613.15C682.606 611.377 676.152 609.98 672.279 608.96C661.979 606.247 652.666 602.093 644.339 596.5C633.459 589.2 624.419 575.55 623.679 562.13C622.929 548.68 627.489 534.71 637.309 525.02C646.749 515.713 658.136 509.967 671.469 507.78C671.646 507.749 671.807 507.655 671.921 507.515C672.034 507.376 672.094 507.2 672.089 507.02C671.942 500.06 672.716 493.037 674.409 485.95C675.019 483.4 677.619 480.65 680.419 479.68C686.159 477.7 692.559 478.07 696.809 482.93C699.689 486.23 700.979 494.87 701.129 498.76C701.282 502.68 701.376 504.88 701.409 505.36C701.421 505.537 701.484 505.707 701.591 505.847C701.697 505.988 701.843 506.093 702.009 506.15Z" fill="#55D2B8"/>
<path d="M361.209 524.6C365.779 524.96 370.159 525.02 374.499 525.46C388.146 526.853 399.513 528.44 408.599 530.22C424.289 533.29 475.249 547.64 474.929 568.39C474.839 573.92 469.819 579.49 465.449 582.69C451.71 592.77 435.299 599.27 418.479 603.16C403.966 606.527 389.146 608.77 374.019 609.89C331.999 613 289.799 611.88 249.229 602.51C242.729 601.01 234.893 598.427 225.719 594.76C215.226 590.567 205.953 584.677 197.899 577.09C183.659 563.66 201.479 551.78 212.059 546.05C218.966 542.31 226.123 539.23 233.529 536.81C252.216 530.703 272.883 526.893 295.529 525.38C316.589 523.967 335.149 523.53 351.209 524.07C354.989 524.197 358.323 524.373 361.209 524.6Z" fill="#BEFEEB"/>
<path d="M485.95 603.3V634.12C485.95 634.406 485.855 634.685 485.679 634.911C485.504 635.138 485.258 635.299 484.98 635.37C457.76 642.31 430.24 655.5 411.38 676.38C409.35 678.63 407.56 681.37 405.79 683.66C405.149 684.476 404.25 685.051 403.24 685.29C389.533 688.503 375.55 690.357 361.29 690.85C320.32 692.28 278.79 688.59 239.57 676.42C227.717 672.747 216.77 667.867 206.73 661.78C203.15 659.607 199.613 656.88 196.12 653.6C190.9 648.7 191.28 645 191.27 636.69C191.27 623.39 191.233 614.28 191.16 609.36C191.16 609.282 191.182 609.205 191.222 609.138C191.261 609.071 191.318 609.015 191.386 608.978C191.454 608.941 191.53 608.924 191.607 608.928C191.683 608.931 191.757 608.956 191.82 609C199.7 614.293 208.28 618.61 217.56 621.95C230.29 626.53 243.97 630.57 257.5 632.98C275.72 636.22 291.977 638.39 306.27 639.49C324.59 640.9 347.6 640.02 371.79 638.7C389.217 637.753 406.907 635.01 424.86 630.47C444.16 625.58 461.96 619.57 477.99 609.52C480.777 607.773 483.3 605.65 485.56 603.15C485.589 603.114 485.629 603.089 485.674 603.077C485.719 603.065 485.766 603.067 485.809 603.084C485.853 603.101 485.889 603.13 485.915 603.169C485.94 603.208 485.952 603.254 485.95 603.3Z" fill="#BEFEEB"/>
<path d="M599.66 752.21C598.987 752.357 597.937 752.443 596.51 752.47C582.337 752.783 568.94 752.827 556.32 752.6C536.493 752.247 516.927 750.087 497.62 746.12C485.233 743.573 472.977 739.693 460.85 734.48C451.943 730.653 444.04 725.727 437.14 719.7C435.587 718.347 433.98 716.49 432.32 714.13C428.12 708.16 429.05 700.11 433.72 694.94C439.407 688.64 446.217 683.287 454.15 678.88C474.05 667.84 495.33 661.95 517.2 658.75C517.433 658.716 517.67 658.761 517.873 658.879C518.077 658.997 518.234 659.181 518.32 659.4C528.507 685.713 543.893 708.037 564.48 726.37C574.74 735.52 587.33 745.19 599.76 751.44C599.837 751.478 599.9 751.539 599.941 751.614C599.981 751.689 599.997 751.776 599.986 751.861C599.975 751.946 599.937 752.025 599.879 752.088C599.821 752.15 599.744 752.193 599.66 752.21Z" fill="#BEFEEB"/>
<path d="M191.811 686.69C191.812 686.604 191.838 686.519 191.885 686.447C191.932 686.375 191.998 686.317 192.076 686.28C192.155 686.244 192.242 686.23 192.327 686.241C192.413 686.251 192.494 686.286 192.561 686.34C194.108 687.633 195.994 688.877 198.221 690.07C207.768 695.183 218.448 699.473 230.261 702.94C256.141 710.547 282.464 715.75 309.231 718.55C318.751 719.543 328.508 719.977 338.501 719.85C358.548 719.597 378.571 718.017 398.571 715.11C398.666 715.097 398.762 715.104 398.854 715.132C398.946 715.159 399.03 715.206 399.101 715.269C399.173 715.332 399.229 715.409 399.267 715.495C399.305 715.582 399.324 715.676 399.321 715.77C399.008 730.517 399.198 746.47 399.891 763.63C399.906 763.926 399.808 764.217 399.616 764.443C399.425 764.669 399.155 764.815 398.861 764.85C390.668 765.817 381.264 766.683 370.651 767.45C363.324 767.983 354.138 768.213 343.091 768.14C330.124 768.053 320.931 767.917 315.511 767.73C308.591 767.497 299.668 766.77 288.741 765.55C271.521 763.623 255.091 760.307 239.451 755.6C229.338 752.553 219.808 748.653 210.861 743.9C205.551 741.07 191.911 732.41 191.831 725.89C191.691 714.217 191.684 701.15 191.811 686.69Z" fill="#A3F5E1"/>
<path d="M428.24 749.2C428.244 749.148 428.262 749.097 428.293 749.055C428.324 749.012 428.366 748.979 428.415 748.959C428.465 748.938 428.519 748.931 428.573 748.938C428.626 748.946 428.677 748.967 428.72 749C431.373 751.067 434.543 753.067 438.23 755C450.183 761.26 463.037 766.15 476.79 769.67C503.717 776.557 531.29 780.32 559.51 780.96C595.283 781.767 628.13 778.783 658.05 772.01C659.87 771.6 663.85 771.46 666.33 771.56C673.543 771.833 678.517 772.017 681.25 772.11C695.257 772.583 709.073 771.677 722.7 769.39C722.762 769.378 722.826 769.381 722.886 769.397C722.947 769.413 723.004 769.443 723.053 769.484C723.101 769.525 723.141 769.576 723.168 769.634C723.195 769.692 723.21 769.756 723.21 769.82C723.237 786.767 723.207 797.41 723.12 801.75C722.8 817.47 695.1 831.07 682.37 835.9C658.82 844.84 635.35 849.15 608.82 851.8C600.727 852.613 592.013 853 582.68 852.96C570.153 852.9 561.43 852.823 556.51 852.73C546.057 852.523 533.89 851.35 520.01 849.21C502.163 846.457 485.42 841.953 469.78 835.7C457.51 830.79 443.84 823.5 434.87 813.3C433.457 811.693 432.237 809.063 431.21 805.41C428.27 794.91 428.21 783.33 427.92 769.8C427.72 760.467 427.827 753.6 428.24 749.2Z" fill="#BEFEEB"/>
<path d="M414.741 833.57C414.792 833.633 414.827 833.708 414.841 833.788C414.855 833.868 414.849 833.95 414.823 834.027C414.797 834.104 414.752 834.173 414.692 834.228C414.633 834.282 414.56 834.321 414.481 834.34C392.347 839.887 370.024 842.763 347.511 842.97C330.817 843.123 315.461 842.73 301.441 841.79C288.181 840.897 273.457 838.297 257.271 833.99C239.144 829.177 222.261 821.75 206.621 811.71C204.887 810.597 202.511 808.617 199.491 805.77C193.401 800.03 192.101 794.63 191.831 785.71C191.624 778.99 191.504 772.537 191.471 766.35C191.472 766.272 191.493 766.196 191.533 766.129C191.573 766.062 191.63 766.007 191.698 765.97C191.766 765.932 191.843 765.913 191.921 765.915C191.998 765.917 192.074 765.939 192.141 765.98C197.967 769.567 204.221 772.593 210.901 775.06C219.127 778.087 230.461 781.59 244.901 785.57C257.261 788.977 270.547 791.45 284.761 792.99C302.787 794.95 318.794 795.917 332.781 795.89C340.927 795.877 348.761 795.867 356.281 795.86C369.807 795.847 384.757 794.517 401.131 791.87C401.256 791.85 401.383 791.857 401.506 791.889C401.628 791.922 401.742 791.979 401.841 792.058C401.94 792.137 402.021 792.236 402.08 792.348C402.138 792.46 402.173 792.584 402.181 792.71C402.381 796.517 402.677 800.527 403.071 804.74C404.084 815.54 407.974 825.15 414.741 833.57Z" fill="#A3F5E1"/>
</svg>
