<svg width="1024" height="1024" viewBox="0 0 1024 1024" fill="none" xmlns="http://www.w3.org/2000/svg">
<path d="M720.18 805.2C691.74 805.24 663.264 805.357 634.75 805.55C633.717 805.557 632.767 805.31 631.9 804.81" stroke="#FDCC30" stroke-width="2"/>
<path d="M540.47 805.03C538.37 805.337 536.547 805.493 535 805.5C510.62 805.673 480.453 805.71 444.5 805.61C422.307 805.557 410.307 805.527 408.5 805.52C346.96 805.38 310.793 805.303 300 805.29C296.14 805.29 291.44 806.61 290.05 810.46C288.75 814.053 289.097 817.25 291.09 820.05C294.64 825.04 299.59 823.86 305.75 823.86C542.657 823.833 685.99 823.823 735.75 823.83C736.837 823.83 738.49 823.577 740.71 823.07" stroke="#FDCC30" stroke-width="2"/>
<path d="M445.94 211.58C445.94 208.299 444.637 205.153 442.317 202.833C439.997 200.513 436.851 199.21 433.57 199.21H326.91C323.629 199.21 320.483 200.513 318.163 202.833C315.843 205.153 314.54 208.299 314.54 211.58V413.6C314.54 416.881 315.843 420.027 318.163 422.347C320.483 424.667 323.629 425.97 326.91 425.97H433.57C436.851 425.97 439.997 424.667 442.317 422.347C444.637 420.027 445.94 416.881 445.94 413.6V211.58Z" stroke="#FDD451" stroke-width="2"/>
<path d="M396.669 216.611C396.668 215.955 396.537 215.305 396.285 214.698C396.033 214.092 395.663 213.542 395.198 213.078C394.733 212.615 394.181 212.247 393.574 211.997C392.967 211.747 392.317 211.619 391.66 211.62L368.62 211.66C367.964 211.661 367.314 211.792 366.707 212.044C366.101 212.296 365.551 212.666 365.087 213.131C364.624 213.596 364.256 214.148 364.006 214.755C363.756 215.362 363.628 216.012 363.629 216.669L363.631 218.069C363.632 218.725 363.763 219.375 364.015 219.982C364.268 220.588 364.637 221.138 365.102 221.602C365.567 222.065 366.119 222.433 366.726 222.683C367.333 222.933 367.983 223.061 368.64 223.06L391.68 223.02C392.337 223.019 392.987 222.888 393.593 222.636C394.199 222.384 394.75 222.014 395.213 221.549C395.676 221.084 396.044 220.532 396.294 219.925C396.544 219.318 396.672 218.668 396.671 218.011L396.669 216.611Z" stroke="#FDD451" stroke-width="2"/>
<path d="M370.287 556.637C357.197 559.11 345.629 566.703 338.129 577.745C330.629 588.787 327.81 602.374 330.294 615.516C331.523 622.023 334.017 628.226 337.634 633.769C341.25 639.313 345.918 644.088 351.371 647.824C356.823 651.559 362.954 654.181 369.413 655.54C375.871 656.899 382.532 656.968 389.013 655.743C402.104 653.27 413.671 645.677 421.171 634.635C428.672 623.593 431.49 610.006 429.007 596.864C427.777 590.357 425.283 584.154 421.667 578.611C418.05 573.067 413.382 568.292 407.93 564.556C402.477 560.821 396.346 558.199 389.888 556.84C383.429 555.481 376.769 555.412 370.287 556.637Z" stroke="#FDD451" stroke-width="2"/>
<path d="M388.36 574.75C388.36 573.671 388.147 572.602 387.734 571.604C387.321 570.607 386.716 569.701 385.952 568.938C385.189 568.174 384.283 567.569 383.286 567.156C382.288 566.743 381.219 566.53 380.14 566.53C377.96 566.53 375.869 567.396 374.327 568.938C372.786 570.479 371.92 572.57 371.92 574.75C371.92 576.93 372.786 579.021 374.327 580.562C375.869 582.104 377.96 582.97 380.14 582.97C381.219 582.97 382.288 582.757 383.286 582.344C384.283 581.931 385.189 581.326 385.952 580.562C386.716 579.799 387.321 578.893 387.734 577.896C388.147 576.898 388.36 575.829 388.36 574.75Z" stroke="#FDD451" stroke-width="2"/>
<path d="M411.88 585.29C411.88 583.097 411.009 580.993 409.458 579.442C407.907 577.891 405.803 577.02 403.61 577.02C402.524 577.02 401.448 577.234 400.445 577.65C399.442 578.065 398.53 578.674 397.762 579.442C396.994 580.21 396.385 581.122 395.969 582.125C395.554 583.129 395.34 584.204 395.34 585.29C395.34 586.376 395.554 587.451 395.969 588.455C396.385 589.458 396.994 590.37 397.762 591.138C398.53 591.906 399.442 592.515 400.445 592.93C401.448 593.346 402.524 593.56 403.61 593.56C405.803 593.56 407.907 592.689 409.458 591.138C411.009 589.587 411.88 587.483 411.88 585.29Z" stroke="#FDD451" stroke-width="2"/>
<path d="M364.94 585.41C364.94 583.227 364.073 581.134 362.53 579.591C360.987 578.047 358.893 577.18 356.71 577.18C354.528 577.18 352.434 578.047 350.891 579.591C349.348 581.134 348.48 583.227 348.48 585.41C348.48 587.593 349.348 589.686 350.891 591.229C352.434 592.773 354.528 593.64 356.71 593.64C358.893 593.64 360.987 592.773 362.53 591.229C364.073 589.686 364.94 587.593 364.94 585.41Z" stroke="#FDD451" stroke-width="2"/>
<path d="M356.31 609.86C356.31 607.685 355.446 605.6 353.908 604.062C352.371 602.524 350.285 601.66 348.11 601.66C345.935 601.66 343.85 602.524 342.312 604.062C340.774 605.6 339.91 607.685 339.91 609.86C339.91 612.035 340.774 614.12 342.312 615.658C343.85 617.196 345.935 618.06 348.11 618.06C350.285 618.06 352.371 617.196 353.908 615.658C355.446 614.12 356.31 612.035 356.31 609.86Z" stroke="#FDD451" stroke-width="2"/>
<path d="M419.81 609.81C419.81 607.63 418.944 605.539 417.403 603.998C415.861 602.456 413.77 601.59 411.59 601.59C409.41 601.59 407.319 602.456 405.778 603.998C404.236 605.539 403.37 607.63 403.37 609.81C403.37 611.99 404.236 614.081 405.778 615.622C407.319 617.164 409.41 618.03 411.59 618.03C413.77 618.03 415.861 617.164 417.403 615.622C418.944 614.081 419.81 611.99 419.81 609.81Z" stroke="#FDD451" stroke-width="2"/>
<path d="M368.74 630.67C368.74 628.485 367.872 626.389 366.326 624.843C364.781 623.298 362.685 622.43 360.5 622.43C358.314 622.43 356.218 623.298 354.673 624.843C353.128 626.389 352.26 628.485 352.26 630.67C352.26 632.855 353.128 634.951 354.673 636.497C356.218 638.042 358.314 638.91 360.5 638.91C362.685 638.91 364.781 638.042 366.326 636.497C367.872 634.951 368.74 632.855 368.74 630.67Z" stroke="#FDD451" stroke-width="2"/>
<path d="M391.64 637.27C391.64 635.082 390.77 632.984 389.223 631.436C387.676 629.889 385.578 629.02 383.39 629.02C381.202 629.02 379.103 629.889 377.556 631.436C376.009 632.984 375.14 635.082 375.14 637.27C375.14 639.458 376.009 641.556 377.556 643.104C379.103 644.651 381.202 645.52 383.39 645.52C385.578 645.52 387.676 644.651 389.223 643.104C390.77 641.556 391.64 639.458 391.64 637.27Z" stroke="#FDD451" stroke-width="2"/>
<path d="M465.83 416.04C465.83 423.991 462.671 431.617 457.049 437.239C451.426 442.861 443.801 446.02 435.85 446.02H324.29C316.338 446.02 308.713 442.861 303.091 437.239C297.468 431.617 294.31 423.991 294.31 416.04V208.2C294.31 200.249 297.468 192.623 303.091 187.001C308.713 181.379 316.338 178.22 324.29 178.22H435.85C443.801 178.22 451.426 181.379 457.049 187.001C462.671 192.623 465.83 200.249 465.83 208.2V416.04ZM445.94 211.58C445.94 208.299 444.636 205.153 442.316 202.833C439.997 200.513 436.85 199.21 433.57 199.21H326.91C323.629 199.21 320.482 200.513 318.163 202.833C315.843 205.153 314.54 208.299 314.54 211.58V413.6C314.54 416.881 315.843 420.027 318.163 422.347C320.482 424.667 323.629 425.97 326.91 425.97H433.57C436.85 425.97 439.997 424.667 442.316 422.347C444.636 420.027 445.94 416.881 445.94 413.6V211.58Z" fill="#FBBE13"/>
<path d="M445.94 413.6C445.94 416.881 444.637 420.027 442.317 422.347C439.997 424.667 436.851 425.97 433.57 425.97H326.91C323.629 425.97 320.483 424.667 318.163 422.347C315.843 420.027 314.54 416.881 314.54 413.6V211.58C314.54 208.299 315.843 205.153 318.163 202.833C320.483 200.513 323.629 199.21 326.91 199.21H433.57C436.851 199.21 439.997 200.513 442.317 202.833C444.637 205.153 445.94 208.299 445.94 211.58V413.6ZM396.669 216.611C396.668 215.955 396.537 215.305 396.285 214.698C396.033 214.092 395.663 213.542 395.198 213.078C394.733 212.615 394.181 212.247 393.574 211.997C392.967 211.747 392.317 211.619 391.66 211.62L368.62 211.66C367.964 211.661 367.314 211.792 366.707 212.044C366.101 212.296 365.551 212.666 365.087 213.131C364.624 213.596 364.256 214.148 364.006 214.755C363.756 215.362 363.628 216.012 363.629 216.669L363.631 218.069C363.632 218.725 363.763 219.375 364.015 219.982C364.268 220.588 364.637 221.138 365.102 221.602C365.567 222.065 366.119 222.433 366.726 222.683C367.333 222.933 367.983 223.061 368.64 223.06L391.68 223.02C392.337 223.019 392.986 222.888 393.593 222.636C394.199 222.384 394.749 222.014 395.213 221.549C395.676 221.084 396.044 220.532 396.294 219.925C396.544 219.318 396.672 218.668 396.671 218.011L396.669 216.611Z" fill="#FFE98F"/>
<path d="M796.96 291.83C796.98 301.49 795.65 311.13 793.38 320.76C788.24 342.527 777.696 360.907 761.75 375.9C760.636 376.953 759.473 377.923 758.26 378.81C750.47 384.52 741.91 376.62 744.95 368.24C745.356 367.12 746.97 365.337 749.79 362.89C756.223 357.303 761.93 349.99 766.91 340.95C775.33 325.67 779.3 309.2 779.27 291.86C779.23 274.53 775.2 258.07 766.72 242.83C761.7 233.81 755.963 226.517 749.51 220.95C746.683 218.517 745.063 216.74 744.65 215.62C741.58 207.26 750.1 199.32 757.92 205C759.133 205.88 760.3 206.847 761.42 207.9C777.426 222.827 788.043 241.163 793.27 262.91C795.58 272.54 796.94 282.17 796.96 291.83Z" fill="#FBBE13"/>
<path d="M571.85 291.85C571.84 298.78 572.82 305.79 574.11 312.48C577.86 332.01 587.82 350.59 603.05 363.91C608.476 368.663 608.88 373.563 604.26 378.61C604.008 378.881 603.71 379.105 603.38 379.27C596.77 382.67 592.25 378.46 587.86 374.08C567.83 354.1 556.99 328.68 554.71 300.83C554.443 297.643 554.313 294.643 554.32 291.83C554.32 289.017 554.453 286.013 554.72 282.82C557.07 254.98 567.96 229.58 588.04 209.65C592.44 205.27 596.96 201.07 603.57 204.49C603.9 204.655 604.198 204.879 604.45 205.15C609.056 210.21 608.64 215.11 603.2 219.85C587.95 233.14 577.95 251.69 574.15 271.21C572.85 277.9 571.86 284.91 571.85 291.85Z" fill="#FBBE13"/>
<path d="M391.66 211.62L368.62 211.66C365.859 211.665 363.624 213.907 363.629 216.669L363.631 218.069C363.636 220.83 365.879 223.065 368.64 223.06L391.68 223.02C394.441 223.015 396.676 220.773 396.671 218.011L396.669 216.611C396.664 213.85 394.421 211.615 391.66 211.62Z" fill="#FBBE13"/>
<path d="M609.53 291.69C609.53 291.817 609.53 291.92 609.53 292C609.49 306.873 614.126 319.947 623.44 331.22C624.686 332.733 626.106 334.247 627.7 335.76C631.25 339.15 634.59 341.74 634.33 346.46C633.94 353.7 626.16 357.85 620.21 352.77C602.52 337.64 591.94 315.66 592.05 291.61C592.15 267.56 602.93 245.68 620.76 230.71C626.75 225.68 634.5 229.9 634.82 237.15C635.04 241.87 631.67 244.43 628.09 247.79C626.483 249.29 625.05 250.79 623.79 252.29C614.376 263.477 609.626 276.507 609.54 291.38C609.54 291.46 609.536 291.563 609.53 291.69Z" fill="#FBBE13"/>
<path d="M759.56 291.68C759.63 315.62 749.06 337.47 731.43 352.5C725.5 357.55 717.77 353.41 717.39 346.2C717.14 341.5 720.47 338.93 724.01 335.56C725.596 334.06 727.01 332.557 728.25 331.05C737.536 319.843 742.173 306.84 742.16 292.04C742.16 291.96 742.16 291.857 742.16 291.73C742.16 291.603 742.156 291.503 742.15 291.43C742.083 276.623 737.376 263.643 728.03 252.49C726.776 250.997 725.35 249.503 723.75 248.01C720.2 244.66 716.85 242.11 717.08 237.41C717.41 230.2 725.12 226.01 731.08 231.03C748.8 245.95 759.49 267.74 759.56 291.68Z" fill="#FBBE13"/>
<path d="M675.9 381.35C675.865 381.28 675.809 381.224 675.739 381.189C675.67 381.154 675.591 381.142 675.515 381.156C675.438 381.169 675.368 381.207 675.315 381.264C675.262 381.32 675.228 381.393 675.219 381.47L664.78 456.16C664.722 456.573 664.517 456.951 664.203 457.224C663.889 457.498 663.486 457.649 663.07 457.65H647.659C647.559 457.649 647.46 457.627 647.368 457.586C647.277 457.545 647.196 457.485 647.129 457.41C647.063 457.335 647.014 457.248 646.985 457.153C646.955 457.058 646.947 456.958 646.96 456.86C647.94 448.567 649.41 438.093 651.37 425.44C652.923 415.4 655.863 395.923 660.19 367.01C661.47 358.47 662.45 351.19 663.13 345.17C663.81 339.123 664.533 331.807 665.3 323.22C665.34 322.763 665.233 322.306 664.993 321.917C664.753 321.527 664.394 321.227 663.969 321.06C660.096 319.527 656.593 317.123 653.46 313.85C641.95 301.86 642.07 283.04 653.39 270.97C668.91 254.44 696.71 260.22 704.32 281.68C709.92 297.49 702.95 315.17 686.79 321.47C686.481 321.589 686.227 321.816 686.072 322.108C685.918 322.4 685.874 322.738 685.95 323.06C687.61 330.2 687.499 339.26 688.719 345.8C689.609 350.6 689.75 354.62 690.71 360.64C695.696 392.067 699.796 419.37 703.01 442.55C703.65 447.17 704.313 451.843 705 456.57C705.017 456.676 705.011 456.784 704.982 456.888C704.954 456.992 704.903 457.088 704.834 457.171C704.765 457.254 704.679 457.322 704.582 457.37C704.485 457.418 704.378 457.446 704.27 457.45C700.116 457.623 696.223 457.683 692.59 457.63C688.3 457.57 687.45 458.13 686.82 453.76C683.153 428.18 679.713 404.68 676.5 383.26C676.393 382.533 676.193 381.897 675.9 381.35Z" fill="#FBBE13"/>
<path d="M380.16 476C389.98 476.007 397.173 476.15 401.74 476.43C417.207 477.39 432.89 479.593 448.79 483.04C464.677 486.48 479.327 491.63 492.74 498.49C499.947 502.183 506.21 507.67 511.53 514.95C520.284 526.93 522.17 540.11 517.19 554.49C515.1 560.54 512.26 566.03 505.22 565.97C502.194 565.943 498.964 565.453 495.53 564.5C480.083 560.227 469.264 557.107 463.07 555.14C456.15 552.94 450.95 551.18 446.56 545.73C441.32 539.22 443.87 532.78 444.87 526.19C445.883 519.563 443.284 514.983 437.07 512.45C432.51 510.583 427.23 509.21 421.23 508.33C416.204 507.583 409.883 506.82 402.27 506.04C398.337 505.633 390.96 505.427 380.14 505.42C369.32 505.413 361.944 505.61 358.01 506.01C350.397 506.783 344.077 507.54 339.05 508.28C333.043 509.153 327.76 510.523 323.2 512.39C316.987 514.917 314.384 519.493 315.39 526.12C316.38 532.71 318.92 539.15 313.67 545.66C309.28 551.1 304.08 552.86 297.15 555.05C290.957 557.01 280.133 560.117 264.68 564.37C261.247 565.323 258.017 565.81 254.99 565.83C247.95 565.88 245.12 560.39 243.03 554.34C238.07 539.953 239.974 526.773 248.74 514.8C254.067 507.527 260.337 502.05 267.55 498.37C280.97 491.523 295.624 486.387 311.51 482.96C327.417 479.533 343.104 477.35 358.57 476.41C363.137 476.13 370.334 475.993 380.16 476Z" fill="#FBBE13"/>
<path d="M779.54 521.28H757.95C757.47 521.28 757.002 521.134 756.607 520.863C756.213 520.591 755.91 520.207 755.74 519.76C753.24 513.21 750.39 507.59 743.71 504.58C732.18 499.39 719.07 501.74 710.6 511.45C705.2 517.63 702.303 525 701.91 533.56C701.81 535.713 701.767 541.39 701.78 550.59C701.81 565.03 709.82 580.21 725.25 582.84C743.05 585.88 757.31 577.43 758.19 558.17C758.198 558 758.171 557.829 758.111 557.669C758.051 557.51 757.959 557.364 757.84 557.24C757.721 557.117 757.578 557.019 757.42 556.951C757.262 556.884 757.092 556.85 756.92 556.85H734.32C733.986 556.85 733.665 556.717 733.429 556.481C733.193 556.245 733.06 555.924 733.06 555.59V539.49C733.06 539.311 733.096 539.135 733.164 538.97C733.233 538.805 733.334 538.655 733.461 538.528C733.589 538.402 733.74 538.302 733.906 538.233C734.072 538.165 734.25 538.13 734.43 538.13H779.68C780.009 538.13 780.324 538.261 780.557 538.493C780.789 538.726 780.92 539.041 780.92 539.37V600.39C780.92 600.761 780.773 601.117 780.51 601.38C780.247 601.642 779.891 601.79 779.52 601.79H763.14C762.719 601.789 762.315 601.632 762.005 601.348C761.696 601.065 761.505 600.677 761.47 600.26L760.59 589.92C760.582 589.825 760.549 589.734 760.496 589.655C760.442 589.576 760.369 589.512 760.284 589.468C760.198 589.424 760.103 589.402 760.006 589.404C759.909 589.406 759.814 589.432 759.73 589.48C759.197 589.787 758.813 590.077 758.58 590.35C752.26 597.677 744.463 602.097 735.19 603.61C733.61 603.87 730.263 603.973 725.15 603.92C721.677 603.88 718.37 603.423 715.23 602.55C693.6 596.53 681.97 580.61 678.13 558.76C673.84 534.38 678.47 505.61 700.18 490.24C708.073 484.653 717.17 481.557 727.47 480.95C746.29 479.83 763.53 486.62 774 502.77C777.413 508.043 779.527 513.913 780.34 520.38C780.354 520.492 780.344 520.606 780.31 520.714C780.277 520.822 780.22 520.922 780.145 521.007C780.069 521.092 779.976 521.161 779.872 521.208C779.768 521.255 779.655 521.279 779.54 521.28Z" fill="#FBBE13"/>
<path d="M607.91 529.32C607.952 529.411 608.014 529.492 608.09 529.557C608.167 529.623 608.256 529.671 608.352 529.7C608.449 529.728 608.55 529.736 608.65 529.722C608.749 529.708 608.845 529.673 608.93 529.62C617.63 524.26 628.98 524.14 638.65 526.66C652.27 530.19 660.53 540.99 663.04 554.63C665.086 565.703 663.146 576.237 657.22 586.23C649.93 598.52 633.41 604.21 619.26 603.95C614.786 603.87 611.15 603.477 608.35 602.77C594.93 599.37 585.97 591.38 581.47 578.8C580.81 576.96 580.43 575.117 580.33 573.27C580.322 573.129 580.343 572.987 580.392 572.854C580.441 572.721 580.517 572.599 580.615 572.496C580.714 572.393 580.832 572.311 580.964 572.255C581.095 572.199 581.237 572.17 581.38 572.17H602.06C602.36 572.169 602.651 572.271 602.886 572.458C603.12 572.646 603.284 572.907 603.35 573.2C604.516 578.507 607.686 582.093 612.86 583.96C615.006 584.733 617.89 585.01 621.51 584.79C635.74 583.92 641.8 571.66 639.94 558.76C638.533 548.993 632.883 543.697 622.99 542.87C618.136 542.47 613.747 543.403 609.82 545.67C608.17 546.63 606.31 548.38 604.89 549.31C604.473 549.609 603.974 549.773 603.46 549.78L585.02 549.87C584.832 549.869 584.651 549.801 584.511 549.677C584.371 549.554 584.282 549.384 584.26 549.2C584.093 547.807 584.09 546.573 584.25 545.5C587.576 523.053 590.01 506.683 591.55 496.39C592.19 492.15 592.25 488.52 593.2 484.78C593.248 484.594 593.357 484.43 593.509 484.312C593.661 484.194 593.848 484.13 594.04 484.13H656.69C656.976 484.13 657.251 484.244 657.453 484.446C657.656 484.649 657.77 484.924 657.77 485.21V504.38C657.77 504.754 657.621 505.113 657.357 505.377C657.092 505.641 656.734 505.79 656.36 505.79H612.94C612.704 505.789 612.475 505.869 612.292 506.016C612.108 506.164 611.98 506.37 611.93 506.6C610.44 513.52 609.53 521.09 607.92 528.54C607.84 528.9 607.836 529.16 607.91 529.32Z" fill="#FBBE13"/>
<path d="M332.56 531.18C333.6 529.147 335.006 528.13 336.78 528.13C386.2 528.037 415.023 528.047 423.25 528.16C427.22 528.22 427.78 531.04 428.01 534.8C428.75 547.02 434.61 559.9 444.61 566.89C452.87 572.663 457.283 575.75 457.85 576.15C477.16 589.81 489.84 610.18 489.8 634.25C489.773 651.59 489.776 662.43 489.81 666.77C489.9 676.89 482.74 683.9 472.76 683.9C397.193 683.853 335.356 683.847 287.25 683.88C282.89 683.887 279.153 682.483 276.04 679.67C271.75 675.8 271.1 671.66 271.08 665.66C271.02 647.22 271.056 635.423 271.19 630.27C271.71 609.42 283.78 589.58 300.27 577.28C303.156 575.127 307.333 572.13 312.8 568.29C319.613 563.51 324.716 557.633 328.11 550.66C330.59 545.567 332.003 539.337 332.35 531.97C332.363 531.7 332.434 531.431 332.56 531.18ZM370.287 556.637C357.196 559.11 345.629 566.703 338.129 577.745C330.628 588.787 327.81 602.374 330.293 615.516C331.523 622.023 334.017 628.226 337.633 633.769C341.25 639.313 345.917 644.088 351.37 647.824C356.823 651.559 362.953 654.181 369.412 655.54C375.871 656.899 382.531 656.968 389.013 655.743C402.103 653.27 413.671 645.677 421.171 634.635C428.671 623.593 431.49 610.006 429.006 596.864C427.777 590.357 425.283 584.154 421.666 578.611C418.05 573.067 413.382 568.292 407.929 564.556C402.477 560.821 396.346 558.199 389.887 556.84C383.428 555.481 376.768 555.412 370.287 556.637Z" fill="#FBBE13"/>
<path d="M370.287 556.637C376.769 555.412 383.429 555.481 389.888 556.84C396.346 558.199 402.477 560.821 407.93 564.556C413.382 568.292 418.05 573.067 421.667 578.611C425.283 584.154 427.777 590.357 429.007 596.864C431.49 610.006 428.672 623.593 421.171 634.635C413.671 645.677 402.104 653.27 389.013 655.743C382.532 656.968 375.871 656.899 369.413 655.54C362.954 654.181 356.823 651.559 351.371 647.824C345.918 644.088 341.25 639.313 337.634 633.769C334.017 628.226 331.523 622.023 330.294 615.516C327.81 602.374 330.629 588.787 338.129 577.745C345.629 566.703 357.197 559.11 370.287 556.637ZM388.36 574.75C388.36 573.671 388.148 572.602 387.734 571.604C387.321 570.607 386.716 569.701 385.953 568.938C385.189 568.174 384.283 567.569 383.286 567.156C382.289 566.743 381.22 566.53 380.14 566.53C377.96 566.53 375.869 567.396 374.328 568.938C372.786 570.479 371.92 572.57 371.92 574.75C371.92 576.93 372.786 579.021 374.328 580.562C375.869 582.104 377.96 582.97 380.14 582.97C381.22 582.97 382.289 582.757 383.286 582.344C384.283 581.931 385.189 581.326 385.953 580.562C386.716 579.799 387.321 578.893 387.734 577.896C388.148 576.898 388.36 575.829 388.36 574.75ZM411.88 585.29C411.88 583.097 411.009 580.993 409.458 579.442C407.907 577.891 405.803 577.02 403.61 577.02C402.524 577.02 401.449 577.234 400.445 577.65C399.442 578.065 398.53 578.674 397.762 579.442C396.994 580.21 396.385 581.122 395.97 582.125C395.554 583.129 395.34 584.204 395.34 585.29C395.34 586.376 395.554 587.451 395.97 588.455C396.385 589.458 396.994 590.37 397.762 591.138C398.53 591.906 399.442 592.515 400.445 592.93C401.449 593.346 402.524 593.56 403.61 593.56C405.803 593.56 407.907 592.689 409.458 591.138C411.009 589.587 411.88 587.483 411.88 585.29ZM364.94 585.41C364.94 583.227 364.073 581.134 362.53 579.591C360.986 578.047 358.893 577.18 356.71 577.18C354.527 577.18 352.434 578.047 350.891 579.591C349.347 581.134 348.48 583.227 348.48 585.41C348.48 587.593 349.347 589.686 350.891 591.229C352.434 592.773 354.527 593.64 356.71 593.64C358.893 593.64 360.986 592.773 362.53 591.229C364.073 589.686 364.94 587.593 364.94 585.41ZM356.31 609.86C356.31 607.685 355.446 605.6 353.908 604.062C352.371 602.524 350.285 601.66 348.11 601.66C345.935 601.66 343.85 602.524 342.312 604.062C340.774 605.6 339.91 607.685 339.91 609.86C339.91 612.035 340.774 614.12 342.312 615.658C343.85 617.196 345.935 618.06 348.11 618.06C350.285 618.06 352.371 617.196 353.908 615.658C355.446 614.12 356.31 612.035 356.31 609.86ZM419.81 609.81C419.81 607.63 418.944 605.539 417.403 603.998C415.861 602.456 413.77 601.59 411.59 601.59C409.41 601.59 407.319 602.456 405.778 603.998C404.236 605.539 403.37 607.63 403.37 609.81C403.37 611.99 404.236 614.081 405.778 615.622C407.319 617.164 409.41 618.03 411.59 618.03C413.77 618.03 415.861 617.164 417.403 615.622C418.944 614.081 419.81 611.99 419.81 609.81ZM368.74 630.67C368.74 628.485 367.872 626.389 366.327 624.843C364.781 623.298 362.686 622.43 360.5 622.43C358.315 622.43 356.219 623.298 354.674 624.843C353.128 626.389 352.26 628.485 352.26 630.67C352.26 632.855 353.128 634.951 354.674 636.497C356.219 638.042 358.315 638.91 360.5 638.91C362.686 638.91 364.781 638.042 366.327 636.497C367.872 634.951 368.74 632.855 368.74 630.67ZM391.64 637.27C391.64 635.082 390.771 632.984 389.224 631.436C387.677 629.889 385.578 629.02 383.39 629.02C381.202 629.02 379.104 629.889 377.557 631.436C376.009 632.984 375.14 635.082 375.14 637.27C375.14 639.458 376.009 641.556 377.557 643.104C379.104 644.651 381.202 645.52 383.39 645.52C385.578 645.52 387.677 644.651 389.224 643.104C390.771 641.556 391.64 639.458 391.64 637.27Z" fill="#FFE98F"/>
<path d="M380.14 582.97C384.68 582.97 388.36 579.29 388.36 574.75C388.36 570.21 384.68 566.53 380.14 566.53C375.6 566.53 371.92 570.21 371.92 574.75C371.92 579.29 375.6 582.97 380.14 582.97Z" fill="#FBBE13"/>
<path d="M403.61 593.56C408.177 593.56 411.88 589.857 411.88 585.29C411.88 580.723 408.177 577.02 403.61 577.02C399.042 577.02 395.34 580.723 395.34 585.29C395.34 589.857 399.042 593.56 403.61 593.56Z" fill="#FBBE13"/>
<path d="M356.71 593.64C361.256 593.64 364.94 589.955 364.94 585.41C364.94 580.865 361.256 577.18 356.71 577.18C352.165 577.18 348.48 580.865 348.48 585.41C348.48 589.955 352.165 593.64 356.71 593.64Z" fill="#FBBE13"/>
<path d="M348.11 618.06C352.639 618.06 356.31 614.389 356.31 609.86C356.31 605.331 352.639 601.66 348.11 601.66C343.581 601.66 339.91 605.331 339.91 609.86C339.91 614.389 343.581 618.06 348.11 618.06Z" fill="#FBBE13"/>
<path d="M411.59 618.03C416.13 618.03 419.81 614.35 419.81 609.81C419.81 605.27 416.13 601.59 411.59 601.59C407.05 601.59 403.37 605.27 403.37 609.81C403.37 614.35 407.05 618.03 411.59 618.03Z" fill="#FBBE13"/>
<path d="M360.5 638.91C365.051 638.91 368.74 635.221 368.74 630.67C368.74 626.119 365.051 622.43 360.5 622.43C355.949 622.43 352.26 626.119 352.26 630.67C352.26 635.221 355.949 638.91 360.5 638.91Z" fill="#FBBE13"/>
<path d="M720.18 805.2C691.74 805.24 663.264 805.357 634.75 805.55C633.717 805.557 632.767 805.31 631.9 804.81C633.967 794.05 636.07 783.303 638.21 772.57C639.917 764.01 641.484 758.403 642.91 755.75C646.97 748.22 653.89 742.03 661.86 738.45C662.301 738.253 662.676 737.932 662.938 737.525C663.201 737.119 663.341 736.645 663.34 736.16C663.227 697.693 663.214 662.63 663.3 630.97C663.307 628.917 664.104 627.9 665.69 627.92C671.004 627.967 677.97 627.98 686.59 627.96C686.887 627.96 687.172 628.079 687.382 628.291C687.592 628.503 687.71 628.79 687.71 629.09V736.92C687.711 737.122 687.774 737.318 687.89 737.483C688.006 737.647 688.171 737.772 688.36 737.84C698.074 741.28 705.144 747.62 709.57 756.86C711.104 760.067 712.39 764.43 713.43 769.95C715.644 781.71 717.894 793.46 720.18 805.2Z" fill="#FBBE13"/>
<path d="M383.39 645.52C387.946 645.52 391.64 641.826 391.64 637.27C391.64 632.714 387.946 629.02 383.39 629.02C378.833 629.02 375.14 632.714 375.14 637.27C375.14 641.826 378.833 645.52 383.39 645.52Z" fill="#FBBE13"/>
<path d="M540.47 805.03C538.37 805.337 536.547 805.493 535 805.5C510.62 805.673 480.454 805.71 444.5 805.61C422.307 805.557 410.307 805.527 408.5 805.52C346.96 805.38 310.794 805.303 300 805.29C296.14 805.29 291.44 806.61 290.05 810.46C288.75 814.053 289.097 817.25 291.09 820.05C294.64 825.04 299.59 823.86 305.75 823.86C542.657 823.833 685.99 823.823 735.75 823.83C736.837 823.83 738.49 823.577 740.71 823.07C740.504 833.57 736.357 840.283 728.27 843.21C725.357 844.263 720.12 844.787 712.56 844.78C521.127 844.687 381.107 844.677 292.5 844.75C288.08 844.75 281.56 845.93 275.79 845.67C264.76 845.16 255.97 835.71 256.15 824.54C256.184 822.427 256.194 816.583 256.18 807.01C256.174 802.957 257.204 798.867 259.27 794.74C263.55 786.173 270.257 780.417 279.39 777.47C282.477 776.477 286.757 776.03 292.23 776.13C295.757 776.197 305.057 776.197 320.13 776.13C320.513 776.127 320.879 775.975 321.149 775.705C321.419 775.435 321.57 775.07 321.57 774.69V745.7C321.57 745.577 321.546 745.455 321.497 745.341C321.449 745.227 321.379 745.125 321.29 745.039C321.202 744.953 321.097 744.886 320.981 744.841C320.866 744.797 320.743 744.776 320.62 744.78C314.13 744.97 306.23 745.54 303.22 738.82C300.41 732.57 304.33 726.37 310.19 724.1C311.984 723.407 314.72 723.063 318.4 723.07C327.14 723.08 336.34 722.57 344.79 723.46C351.35 724.16 356.97 729.65 354.51 736.5C351.77 744.11 346.03 744.79 338.97 744.86C338.61 744.865 338.267 745.012 338.014 745.268C337.762 745.525 337.62 745.87 337.62 746.23V775.79C337.62 775.899 337.663 776.003 337.74 776.08C337.817 776.157 337.921 776.2 338.03 776.2H391.2C391.465 776.2 391.72 776.095 391.907 775.907C392.095 775.72 392.2 775.465 392.2 775.2V759.6C392.2 759.04 391.99 758.498 391.61 758.08C391.377 757.82 390.374 757.027 388.6 755.7C378.53 748.17 379.32 732.8 389.43 725.98C393.384 723.32 398.137 722.367 403.69 723.12C414.9 724.66 422.99 736.8 418.02 748.12C416.267 752.12 413.47 755.383 409.63 757.91C409.252 758.158 408.942 758.497 408.728 758.895C408.513 759.293 408.4 759.738 408.4 760.19V774.88C408.4 775.217 408.535 775.54 408.775 775.778C409.015 776.016 409.341 776.15 409.68 776.15H451.09C451.366 776.15 451.631 776.04 451.826 775.845C452.021 775.65 452.13 775.386 452.13 775.11V759.67C452.13 759.281 452.035 758.898 451.854 758.555C451.673 758.212 451.41 757.918 451.09 757.7C446.5 754.54 443.22 752.26 441.1 746.7C437.61 737.55 444 727.96 452.6 724.33C459.2 721.54 467.09 722.52 472.15 727.55C478.177 733.537 479.883 740.287 477.27 747.8C475.9 751.72 472.13 755.35 468.76 757.88C468.466 758.101 468.226 758.387 468.061 758.717C467.897 759.047 467.81 759.411 467.81 759.78V775.08C467.81 775.365 467.921 775.638 468.12 775.84C468.318 776.042 468.588 776.157 468.87 776.16C474.857 776.2 485.907 776.17 502.02 776.07C507.007 776.037 511.127 776.473 514.38 777.38C527.82 781.113 536.517 790.33 540.47 805.03Z" fill="#FBBE13"/>
<path d="M540.47 805.03C570.35 805.23 600.277 805.327 630.25 805.32C630.923 805.32 631.473 805.15 631.9 804.81C632.767 805.31 633.717 805.557 634.75 805.55C663.263 805.357 691.74 805.24 720.18 805.2C721.6 805.673 723.073 805.997 724.6 806.17C726.62 806.397 728.067 806.733 728.94 807.18C733.89 809.74 738.43 814.23 739.66 819.84C739.9 820.94 740.25 822.017 740.71 823.07C738.49 823.577 736.837 823.83 735.75 823.83C685.99 823.823 542.657 823.833 305.75 823.86C299.59 823.86 294.64 825.04 291.09 820.05C289.097 817.25 288.75 814.053 290.05 810.46C291.44 806.61 296.14 805.29 300 805.29C310.793 805.303 346.96 805.38 408.5 805.52C410.307 805.527 422.307 805.557 444.5 805.61C480.453 805.71 510.62 805.673 535 805.5C536.547 805.493 538.37 805.337 540.47 805.03Z" fill="#FFD94C"/>
</svg>
