<svg width="1024" height="1024" viewBox="0 0 1024 1024" fill="none" xmlns="http://www.w3.org/2000/svg">
<path d="M636.02 642.37C636.713 641.61 637.757 641.073 639.15 640.76C661.437 635.713 681.903 627.72 700.55 616.78C711.757 610.2 721.563 602.423 729.97 593.45C744.563 577.863 753.417 559.137 756.53 537.27C757.103 533.257 757.68 527.917 758.26 521.25C758.4 519.677 759.093 518.79 760.34 518.59C772.28 516.67 783.23 513.79 792.79 506.33C814.82 489.13 825.09 454.35 819.89 427.42C817.23 413.68 808.41 401.14 795.08 396.42C782.433 391.94 770.353 393.11 758.84 399.93C752.98 403.41 748.457 407.28 745.27 411.54C739.99 418.63 735.97 427.08 726.15 430.14C718.67 432.48 709.9 429.25 706.56 421.94C705.1 418.733 704.277 415.573 704.09 412.46C703.877 408.907 703.83 402.337 703.95 392.75C704.183 374.237 704.33 359.323 704.39 348.01C704.437 338.523 703.643 330.557 702.01 324.11C696.763 303.363 684.303 289.083 664.63 281.27C651.28 275.96 637.39 274.75 623.38 274.16C614.507 273.787 604.38 275.017 593 277.85" stroke="#92D6EB" stroke-width="2"/>
<path d="M371.031 325.15C371.031 319.042 368.604 313.184 364.285 308.865C359.966 304.546 354.109 302.12 348.001 302.12C341.893 302.12 336.035 304.546 331.716 308.865C327.397 313.184 324.971 319.042 324.971 325.15C324.971 331.258 327.397 337.116 331.716 341.435C336.035 345.754 341.893 348.18 348.001 348.18C354.109 348.18 359.966 345.754 364.285 341.435C368.604 337.116 371.031 331.258 371.031 325.15Z" stroke="#6EBEDF" stroke-width="2"/>
<path d="M452.941 325.14C452.941 319 450.502 313.112 446.16 308.77C441.819 304.429 435.93 301.99 429.791 301.99C426.751 301.99 423.74 302.589 420.931 303.752C418.123 304.916 415.571 306.621 413.421 308.77C411.271 310.92 409.566 313.472 408.403 316.281C407.239 319.09 406.641 322.1 406.641 325.14C406.641 328.18 407.239 331.19 408.403 333.999C409.566 336.808 411.271 339.36 413.421 341.51C415.571 343.659 418.123 345.364 420.931 346.528C423.74 347.691 426.751 348.29 429.791 348.29C435.93 348.29 441.819 345.851 446.16 341.51C450.502 337.168 452.941 331.28 452.941 325.14Z" stroke="#6EBEDF" stroke-width="2"/>
<path d="M288.75 325.18C288.75 319.059 286.318 313.188 281.99 308.86C277.662 304.532 271.791 302.1 265.67 302.1C259.549 302.1 253.678 304.532 249.35 308.86C245.021 313.188 242.59 319.059 242.59 325.18C242.59 331.301 245.021 337.172 249.35 341.5C253.678 345.828 259.549 348.26 265.67 348.26C271.791 348.26 277.662 345.828 281.99 341.5C286.318 337.172 288.75 331.301 288.75 325.18Z" stroke="#6EBEDF" stroke-width="2"/>
<path d="M797.951 438.12C796.841 431.38 793.231 425.29 786.731 422.59C781.064 420.223 775.931 420.603 771.331 423.73C757.551 433.08 763.991 450.56 764.191 463.28C764.241 465.87 763.781 468.84 762.681 470.66C759.401 476.12 755.411 481.53 759.701 486.27C764.181 491.21 771.231 489.84 776.551 486.79C792.451 477.7 800.841 455.66 797.951 438.12Z" stroke="#92D6EB" stroke-width="2"/>
<path d="M453.949 450.28C453.609 450.525 453.331 450.847 453.14 451.221C452.949 451.595 452.849 452.009 452.849 452.43C452.916 467.037 452.923 480.557 452.869 492.99C452.859 496.2 451.099 499.71 448.169 501.43C444.649 503.497 441.126 503.017 437.599 499.99C427.206 491.063 412.483 478.283 393.429 461.65C390.289 458.917 387.109 456.23 383.889 453.59C381.836 451.903 379.533 451.077 376.979 451.11C345.273 451.503 311.619 451.667 276.019 451.6C263.193 451.573 256.346 451.537 255.479 451.49C239.519 450.61 224.279 446.8 210.619 438.4C188.959 425.07 174.929 404.89 169.689 380.27C168.823 376.19 168.376 370.15 168.349 362.15C168.203 319.39 168.146 294.923 168.179 288.75C168.199 284.83 168.019 277.81 168.859 273.06C172.986 249.76 183.729 231.2 201.089 217.38C212.336 208.433 225.233 202.583 239.779 199.83C245.733 198.697 254.756 198.137 266.849 198.15C316.549 198.19 384.109 197.34 440.739 197.71C450.199 197.77 460.083 199.83 470.389 203.89C498.629 215 520.229 239.71 526.279 269.56C527.253 274.34 527.729 280.997 527.709 289.53C527.629 319.61 527.622 341.403 527.689 354.91C527.736 365.077 527.272 372.78 526.299 378.02C524.919 385.42 522.483 392.743 518.989 399.99C506.389 426.13 482.989 443.23 454.659 449.92C454.459 449.967 454.223 450.087 453.949 450.28ZM371.029 325.15C371.029 319.042 368.603 313.184 364.284 308.865C359.965 304.546 354.107 302.12 347.999 302.12C341.891 302.12 336.033 304.546 331.715 308.865C327.396 313.184 324.969 319.042 324.969 325.15C324.969 331.258 327.396 337.116 331.715 341.435C336.033 345.754 341.891 348.18 347.999 348.18C354.107 348.18 359.965 345.754 364.284 341.435C368.603 337.116 371.029 331.258 371.029 325.15ZM452.939 325.14C452.939 319 450.5 313.112 446.159 308.77C441.817 304.429 435.929 301.99 429.789 301.99C426.749 301.99 423.739 302.589 420.93 303.752C418.121 304.916 415.569 306.621 413.42 308.77C411.27 310.92 409.565 313.472 408.401 316.281C407.238 319.09 406.639 322.1 406.639 325.14C406.639 328.18 407.238 331.19 408.401 333.999C409.565 336.808 411.27 339.36 413.42 341.509C415.569 343.659 418.121 345.364 420.93 346.528C423.739 347.691 426.749 348.29 429.789 348.29C435.929 348.29 441.817 345.851 446.159 341.509C450.5 337.168 452.939 331.28 452.939 325.14ZM288.749 325.18C288.749 319.059 286.318 313.188 281.989 308.86C277.661 304.532 271.79 302.1 265.669 302.1C259.548 302.1 253.677 304.532 249.349 308.86C245.021 313.188 242.589 319.059 242.589 325.18C242.589 331.301 245.021 337.172 249.349 341.5C253.677 345.828 259.548 348.26 265.669 348.26C271.79 348.26 277.661 345.828 281.989 341.5C286.318 337.172 288.749 331.301 288.749 325.18Z" fill="#8DD7EC"/>
<path d="M636.02 642.37C636.713 641.61 637.757 641.073 639.15 640.76C661.437 635.713 681.903 627.72 700.55 616.78C711.757 610.2 721.563 602.423 729.97 593.45C744.563 577.863 753.417 559.137 756.53 537.27C757.103 533.257 757.68 527.917 758.26 521.25C758.4 519.677 759.093 518.79 760.34 518.59C772.28 516.67 783.23 513.79 792.79 506.33C814.82 489.13 825.09 454.35 819.89 427.42C817.23 413.68 808.41 401.14 795.08 396.42C782.433 391.94 770.353 393.11 758.84 399.93C752.98 403.41 748.457 407.28 745.27 411.54C739.99 418.63 735.97 427.08 726.15 430.14C718.67 432.48 709.9 429.25 706.56 421.94C705.1 418.733 704.277 415.573 704.09 412.46C703.877 408.907 703.83 402.337 703.95 392.75C704.183 374.237 704.33 359.323 704.39 348.01C704.437 338.523 703.643 330.557 702.01 324.11C696.763 303.363 684.303 289.083 664.63 281.27C651.28 275.96 637.39 274.75 623.38 274.16C614.507 273.787 604.38 275.017 593 277.85C611.093 260.39 632.167 248.213 656.22 241.32C670 237.367 682.973 235.09 695.14 234.49C713.05 233.62 729.99 233.76 747.62 236.66C786.69 243.11 822.12 261.89 847.08 292.4C865.187 314.533 876.353 339.77 880.58 368.11C886.12 405.21 879.57 442.86 863.62 476.88C856.21 492.68 846.67 509.41 839.2 525.42C835 534.427 832.147 542.457 830.64 549.51C828.173 561.05 827.24 571.883 827.84 582.01C829.43 608.8 835.35 632.94 844.88 657.36C846.927 662.593 845.493 666.497 840.58 669.07C835.567 671.703 830.21 674.337 824.51 676.97C777.43 698.73 724.52 723.77 689.57 739.84C688.57 740.293 685.623 741.627 680.73 743.84C677.797 745.16 674.89 745.867 672.01 745.96C663.11 746.25 665.32 734.78 665.9 729.08C666.293 725.213 666.923 720.023 667.79 713.51C668.577 707.577 668.63 700.33 667.95 691.77C667.29 683.497 665.893 674.407 663.76 664.5C662.03 656.49 658.79 648.13 651.66 644.09C647.527 641.743 642.313 641.17 636.02 642.37Z" fill="#64BCDE"/>
<path d="M636.021 642.37C622.314 644.537 608.311 645.757 594.011 646.03C586.044 646.183 579.181 643.707 573.421 638.6C567.301 633.18 565.701 626.83 565.441 618.07C565.347 614.857 565.327 610.19 565.381 604.07C565.411 601.01 565.001 599.1 563.191 596.53C560.217 592.31 558.477 589.3 557.971 587.5C556.117 580.887 558.211 576.303 564.251 573.75C571.431 570.72 582.831 567.14 578.171 557.63C576.697 554.63 574.157 552.653 570.551 551.7C570.117 551.587 566.914 550.623 560.941 548.81C553.951 546.69 547.711 542.56 548.101 534.31C548.314 529.99 548.917 525.87 549.911 521.95C550.057 521.37 550.174 520.143 550.261 518.27C550.751 507.16 539.501 506.52 530.641 504.37C528.901 503.943 526.497 502.837 523.431 501.05C517.631 497.657 514.984 492.487 515.491 485.54C515.604 483.953 516.737 481.48 518.891 478.12C526.317 466.567 532.197 456.79 536.531 448.79C541.211 440.15 545.531 432.297 549.491 425.23C553.337 418.377 554.911 410.97 554.211 403.01C553.744 397.677 553.424 393.677 553.251 391.01C551.797 368.237 554.381 347.313 561.001 328.24C567.581 309.293 578.247 292.497 593.001 277.85C604.381 275.017 614.507 273.787 623.381 274.16C637.391 274.75 651.281 275.96 664.631 281.27C684.304 289.083 696.764 303.363 702.011 324.11C703.644 330.557 704.437 338.523 704.391 348.01C704.331 359.323 704.184 374.237 703.951 392.75C703.831 402.337 703.877 408.907 704.091 412.46C704.277 415.573 705.101 418.733 706.561 421.94C709.901 429.25 718.671 432.48 726.151 430.14C735.971 427.08 739.991 418.63 745.271 411.54C748.457 407.28 752.981 403.41 758.841 399.93C770.354 393.11 782.434 391.94 795.081 396.42C808.411 401.14 817.231 413.68 819.891 427.42C825.091 454.35 814.821 489.13 792.791 506.33C783.231 513.79 772.281 516.67 760.341 518.59C759.094 518.79 758.401 519.677 758.261 521.25C757.681 527.917 757.104 533.257 756.531 537.27C753.417 559.137 744.564 577.863 729.971 593.45C721.564 602.423 711.757 610.2 700.551 616.78C681.904 627.72 661.437 635.713 639.151 640.76C637.757 641.073 636.714 641.61 636.021 642.37ZM797.951 438.12C796.841 431.38 793.231 425.29 786.731 422.59C781.064 420.223 775.931 420.603 771.331 423.73C757.551 433.08 763.991 450.56 764.191 463.28C764.241 465.87 763.781 468.84 762.681 470.66C759.401 476.12 755.411 481.53 759.701 486.27C764.181 491.21 771.231 489.84 776.551 486.79C792.451 477.7 800.841 455.66 797.951 438.12Z" fill="#BFEFF8"/>
<path d="M348.001 348.18C360.72 348.18 371.031 337.869 371.031 325.15C371.031 312.431 360.72 302.12 348.001 302.12C335.282 302.12 324.971 312.431 324.971 325.15C324.971 337.869 335.282 348.18 348.001 348.18Z" fill="#4FA5D1"/>
<path d="M429.791 348.29C442.576 348.29 452.941 337.925 452.941 325.14C452.941 312.355 442.576 301.99 429.791 301.99C417.005 301.99 406.641 312.355 406.641 325.14C406.641 337.925 417.005 348.29 429.791 348.29Z" fill="#4FA5D1"/>
<path d="M265.67 348.26C278.417 348.26 288.75 337.927 288.75 325.18C288.75 312.433 278.417 302.1 265.67 302.1C252.923 302.1 242.59 312.433 242.59 325.18C242.59 337.927 252.923 348.26 265.67 348.26Z" fill="#4FA5D1"/>
<path d="M797.951 438.12C800.841 455.66 792.451 477.7 776.551 486.79C771.231 489.84 764.181 491.21 759.701 486.27C755.411 481.53 759.401 476.12 762.681 470.66C763.781 468.84 764.241 465.87 764.191 463.28C763.991 450.56 757.551 433.08 771.331 423.73C775.931 420.603 781.064 420.223 786.731 422.59C793.231 425.29 796.841 431.38 797.951 438.12Z" fill="#64BCDE"/>
<path d="M338.581 673.13C338.026 673.325 337.547 673.688 337.208 674.168C336.869 674.649 336.688 675.222 336.691 675.81C336.744 694.63 336.694 706.85 336.541 712.47C336.401 717.48 333.901 722.3 328.871 723.34C326.724 723.787 324.531 723.04 322.291 721.1C292.817 695.54 276.751 681.557 274.091 679.15C268.801 674.37 265.361 674.72 257.281 674.87C246.381 675.07 238.731 675.68 230.431 674.62C193.391 669.89 162.111 636.02 162.161 598.01C162.187 577.41 162.174 563.073 162.121 555C162.094 550.447 162.441 546.517 163.161 543.21C168.101 520.577 180.727 503.173 201.041 491C214.201 483.12 229.281 480.53 244.501 480.45C252.641 480.41 271.191 480.367 300.151 480.32C311.444 480.3 318.011 480.357 319.851 480.49C334.551 481.6 346.541 484.88 358.941 492.79C367.374 498.17 374.621 504.907 380.681 513C390.941 526.68 395.964 542.26 395.751 559.74C395.617 570.407 395.617 579.597 395.751 587.31C395.951 598.757 395.257 607.833 393.671 614.54C390.064 629.787 382.817 642.493 371.931 652.66C361.937 661.993 350.821 668.817 338.581 673.13Z" fill="#4FA5D1"/>
<path d="M463.15 585.43C463.136 603.357 469.223 620.207 481.41 635.98C484.21 639.6 485.74 641.93 486 642.97C487.61 649.33 483.51 654.68 477.04 655.5C472.23 656.12 469.52 653.11 466.17 648.95C452.69 632.24 444.27 613.97 442.37 593.49C442.25 592.217 442.193 589.527 442.2 585.42C442.2 581.307 442.26 578.613 442.38 577.34C444.31 556.87 452.76 538.61 466.27 521.92C469.62 517.77 472.34 514.76 477.15 515.39C483.61 516.22 487.71 521.57 486.09 527.93C485.823 528.97 484.29 531.297 481.49 534.91C469.276 550.663 463.163 567.503 463.15 585.43Z" fill="#64BCDE"/>
<path d="M505.679 585.57C505.699 595.077 509.566 604.123 517.279 612.71C519.933 615.663 520.576 618.94 519.209 622.54C516.659 629.25 507.739 631.34 502.699 626.11C493.533 616.59 487.756 605.483 485.369 592.79C485.216 591.977 485.136 589.58 485.129 585.6C485.123 581.62 485.196 579.223 485.349 578.41C487.689 565.71 493.426 554.583 502.559 545.03C507.589 539.78 516.509 541.84 519.089 548.55C520.463 552.143 519.829 555.42 517.189 558.38C509.503 566.993 505.666 576.057 505.679 585.57Z" fill="#64BCDE"/>
</svg>
