<svg width="1024" height="1024" viewBox="0 0 1024 1024" fill="none" xmlns="http://www.w3.org/2000/svg">
<path d="M400.339 362.97C410.359 374.11 421.889 383.94 435.609 390.93C454.456 400.53 473.929 404.397 494.029 402.53C521.839 399.94 545.499 386.28 565.179 365.9C585.889 344.44 596.709 315.32 597.099 285.25C597.469 257.89 588.539 229.66 570.849 209.08C563.776 200.847 555.493 193.743 545.999 187.77C540.819 184.503 534.166 181.067 526.039 177.46C520.479 174.993 514.589 173.133 508.369 171.88C500.196 170.233 494.073 169.337 489.999 169.19C476.949 168.71 464.359 169.65 452.119 173.36C408.919 186.45 378.179 223.44 372.799 268.33C371.433 279.737 371.383 290.537 372.649 300.73C375.419 323.15 385.019 345.94 400.339 362.97Z" stroke="#8BE7CA" stroke-width="2"/>
<path d="M635.9 497.19C635.673 496.89 635.326 496.617 634.86 496.37C618.54 487.71 601.213 480.887 582.88 475.9C582.525 475.802 582.151 475.79 581.791 475.867C581.431 475.943 581.094 476.106 580.81 476.34C566.223 488.414 549.38 496.98 530.28 502.04C523.3 503.894 517.206 505.204 512 505.97C469.86 512.22 420.52 504.21 387 476.21C386.633 475.905 386.195 475.699 385.727 475.611C385.26 475.524 384.779 475.558 384.33 475.71C351.78 486.64 320.13 499.78 291.38 517.35C280.72 523.863 270.836 531.567 261.73 540.46C245.76 556.05 236.43 574.57 232.03 596.52C229.95 606.9 228.716 613.74 228.33 617.04C227.67 622.647 227.266 625.49 227.12 625.57C227.06 625.597 224.41 641.684 219.17 673.83C214.53 702.317 209.513 732.32 204.12 763.84C204.089 764.017 204.127 764.199 204.225 764.351C204.323 764.502 204.474 764.613 204.65 764.66C233.39 772.507 262.596 778.794 292.27 783.52C292.408 783.541 292.55 783.508 292.665 783.428C292.78 783.348 292.861 783.227 292.89 783.09C293.083 782.117 293.176 781.087 293.17 780C292.903 755.06 292.923 723.73 293.23 686.01C293.283 679.817 293.983 674.674 295.33 670.58C297.1 665.21 301.95 661.87 307.9 661.89C315.173 661.917 319.733 665.87 321.58 673.75C322.546 677.89 323.043 682.564 323.07 687.77C323.243 722.05 323.186 755.114 322.9 786.96C322.899 787.205 322.986 787.442 323.144 787.627C323.301 787.812 323.52 787.934 323.76 787.97C349.566 791.837 376.066 794.377 403.26 795.59C425.833 796.597 451.496 796.997 480.25 796.79C486.003 796.75 491.223 796.643 495.91 796.47C503.996 796.17 508.056 796.02 508.09 796.02C534.743 795.36 562.22 793.533 590.52 790.54C590.618 790.53 590.712 790.492 590.789 790.431C590.867 790.37 590.926 790.287 590.958 790.194C590.991 790.1 590.996 790 590.973 789.903C590.95 789.807 590.901 789.719 590.83 789.65C554.14 753.3 531.19 704.43 528.31 652.72C527.07 630.34 526.426 601.6 526.38 566.5C526.366 561.28 526.453 557.054 526.64 553.82C526.946 548.494 527.84 544.577 529.32 542.07C534.19 533.8 541.03 530.49 550.06 528.05C563.133 524.517 575.38 520.913 586.8 517.24C603.92 511.75 619.11 505.38 635.74 497.83C635.798 497.804 635.849 497.765 635.89 497.717C635.93 497.668 635.96 497.611 635.975 497.549C635.99 497.487 635.992 497.423 635.979 497.361C635.966 497.299 635.939 497.24 635.9 497.19Z" stroke="#8BE7CA" stroke-width="2"/>
<path d="M851.33 551.82C850.33 551.813 849.44 551.74 848.66 551.6C839.613 549.913 830.897 548.127 822.51 546.24C794.27 539.887 768.28 530.683 744.54 518.63C741.66 517.17 738.714 515.687 735.7 514.18C722.25 507.46 708.24 499.04 701.43 495.28C701.128 495.112 700.784 495.034 700.439 495.053C700.094 495.073 699.762 495.189 699.48 495.39C674.51 513.46 646.21 527.58 616.86 539.05C597.533 546.603 577.544 552.68 556.89 557.28C556.649 557.334 556.434 557.469 556.28 557.661C556.125 557.854 556.041 558.093 556.04 558.34C556.027 573.24 556.04 591.26 556.08 612.4C556.1 625.2 556.84 639.57 557.5 649.76C559.674 683.42 570.517 714.407 590.03 742.72C607.77 768.46 631.04 790.54 656.87 808.67C660.19 810.997 665.674 814.417 673.32 818.93C682.627 824.423 691.093 828.63 698.72 831.55C700.77 832.33 702.11 832.23 704.11 831.58C709.67 829.773 715.667 827.27 722.1 824.07C733.153 818.577 744.19 811.87 755.21 803.95C774.5 790.09 791.94 774.22 806.93 755.19C826.26 730.65 839.81 703.52 846.46 673.49C850.12 657 851.53 639.22 851.59 620.77C851.737 578.25 851.794 555.41 851.76 552.25C851.758 552.135 851.711 552.026 851.631 551.945C851.55 551.865 851.443 551.82 851.33 551.82Z" stroke="#8BE7CA" stroke-width="2"/>
<path d="M804.249 601.81C804.619 587.39 792.059 579.08 778.659 584.36C774.029 586.18 769.299 591.31 765.709 595.21C744.619 618.16 714.739 651.18 688.509 678.75C684.909 682.537 681.223 682.727 677.449 679.32C675.376 677.453 673.276 675.383 671.149 673.11C664.949 666.49 656.823 657.947 646.769 647.48C642.949 643.5 638.979 641.303 634.859 640.89C621.619 639.56 611.899 652.51 616.049 665.13C617.123 668.39 618.429 670.863 619.969 672.55C640.029 694.47 655.886 711.687 667.539 724.2C674.699 731.89 686.089 733.17 694.209 726.17C696.269 724.397 697.696 723.087 698.489 722.24C736.509 681.933 760.039 656.88 769.079 647.08C778.893 636.46 787.793 626.993 795.779 618.68C801.159 613.09 804.069 609.07 804.249 601.81Z" stroke="#8BE7CA" stroke-width="2"/>
<path d="M598.7 369.94C572.96 406.27 532.2 429.46 487.39 431.33C470.08 432.06 451.37 428.44 435.08 421.94C403.98 409.533 379.64 388.607 362.06 359.16C341.91 325.41 337.56 282.64 347.45 245.23C353.824 221.117 365.85 200.15 383.53 182.33C420.01 145.57 471.71 130.25 521.84 144.23C553.99 153.2 581.51 172.91 600.71 200.36C636.09 250.97 633.87 320.3 598.7 369.94ZM400.34 362.97C410.36 374.11 421.89 383.94 435.61 390.93C454.457 400.53 473.93 404.397 494.03 402.53C521.84 399.94 545.5 386.28 565.18 365.9C585.89 344.44 596.71 315.32 597.1 285.25C597.47 257.89 588.54 229.66 570.85 209.08C563.777 200.847 555.494 193.743 546 187.77C540.82 184.503 534.167 181.067 526.04 177.46C520.48 174.993 514.59 173.133 508.37 171.88C500.197 170.233 494.074 169.337 490 169.19C476.95 168.71 464.36 169.65 452.12 173.36C408.92 186.45 378.18 223.44 372.8 268.33C371.434 279.737 371.384 290.537 372.65 300.73C375.42 323.15 385.02 345.94 400.34 362.97Z" fill="#61CEB0"/>
<path d="M435.61 390.93C421.89 383.94 410.36 374.11 400.34 362.97C385.02 345.94 375.42 323.15 372.65 300.73C371.384 290.537 371.434 279.737 372.8 268.33C378.18 223.44 408.92 186.45 452.12 173.36C464.36 169.65 476.95 168.71 490 169.19C494.074 169.337 500.197 170.233 508.37 171.88C514.59 173.133 520.48 174.993 526.04 177.46C534.167 181.067 540.82 184.503 546 187.77C555.494 193.743 563.777 200.847 570.85 209.08C588.54 229.66 597.47 257.89 597.1 285.25C596.71 315.32 585.89 344.44 565.18 365.9C545.5 386.28 521.84 399.94 494.03 402.53C473.93 404.397 454.457 400.53 435.61 390.93Z" fill="#B4FFE4"/>
<path d="M666.56 480.57C666.792 480.708 667.056 480.78 667.325 480.776C667.593 480.773 667.855 480.694 668.08 480.55C672.26 477.87 676.004 475.397 679.31 473.13C689 466.49 693.35 462.92 703.34 464.69C705.76 465.123 709.654 466.903 715.02 470.03C727.287 477.17 736.854 482.59 743.72 486.29C764.947 497.717 786.334 506.497 807.88 512.63C820.247 516.15 835.187 519.607 852.7 523C860.7 524.55 867.21 526.36 872.62 531.59C879.09 537.84 880.54 544.82 880.54 553.5C880.554 579.233 880.56 602.4 880.56 623C880.554 635.62 880.047 646.453 879.04 655.5C874.56 695.53 860.02 731.38 836.85 764.36C824.35 782.167 809.977 797.787 793.73 811.22C777.484 824.66 760.374 836.213 742.4 845.88C732.814 851.04 724.014 855.157 716 858.23C709.17 860.84 702.76 862.21 695.54 860.43C690.714 859.243 685.46 857.337 679.78 854.71C661.354 846.177 644.214 835.893 628.36 823.86C622.474 819.393 619.074 816.777 618.16 816.01C617.911 815.794 617.608 815.646 617.28 815.58C616.047 815.32 614.35 815.347 612.19 815.66C598.464 817.673 584.234 819.34 569.5 820.66C528.82 824.3 488.184 825.943 447.59 825.59C437.157 825.497 428.26 825.263 420.9 824.89C405.607 824.117 396.717 823.69 394.23 823.61C393.197 823.57 384.454 822.84 368 821.42C356.58 820.433 346.29 819.283 337.13 817.97C334.324 817.57 324.05 816.227 306.31 813.94C271.45 809.44 236.054 802.583 200.12 793.37C193.734 791.737 189.45 790.203 187.27 788.77C181.26 784.84 176.48 777.92 176.01 770.5C175.744 766.28 176.03 761.647 176.87 756.6C184.637 709.733 192.65 659.847 200.91 606.94C202.58 596.23 204.82 583.39 208.04 573.21C212.234 559.95 218.17 547.873 225.85 536.98C242.58 513.25 269.62 494.8 296.19 481.17C322.197 467.83 349.384 456.687 377.75 447.74C386.14 445.09 390.18 444.62 397.28 447.5C398.354 447.933 400.534 449.473 403.82 452.12C411.94 458.653 420.35 463.623 429.05 467.03C460.25 479.25 492.214 480.95 524.94 472.13C538.76 468.41 551.08 462.213 561.9 453.54C565.94 450.3 568.95 448.303 570.93 447.55C575.63 445.757 580.617 445.537 585.89 446.89C614.01 454.11 640.9 465.337 666.56 480.57ZM635.9 497.19C635.674 496.89 635.327 496.617 634.86 496.37C618.54 487.71 601.214 480.887 582.88 475.9C582.525 475.802 582.152 475.79 581.792 475.867C581.431 475.943 581.095 476.106 580.81 476.34C566.224 488.413 549.38 496.98 530.28 502.04C523.3 503.893 517.207 505.203 512 505.97C469.86 512.22 420.52 504.21 387 476.21C386.634 475.905 386.196 475.699 385.728 475.611C385.261 475.524 384.779 475.558 384.33 475.71C351.78 486.64 320.13 499.78 291.38 517.35C280.72 523.863 270.837 531.567 261.73 540.46C245.76 556.05 236.43 574.57 232.03 596.52C229.95 606.9 228.717 613.74 228.33 617.04C227.67 622.647 227.267 625.49 227.12 625.57C227.06 625.597 224.41 641.683 219.17 673.83C214.53 702.317 209.514 732.32 204.12 763.84C204.09 764.017 204.127 764.199 204.225 764.35C204.323 764.502 204.475 764.613 204.65 764.66C233.39 772.507 262.597 778.793 292.27 783.52C292.409 783.541 292.551 783.508 292.666 783.428C292.781 783.348 292.861 783.227 292.89 783.09C293.084 782.117 293.177 781.087 293.17 780C292.904 755.06 292.924 723.73 293.23 686.01C293.284 679.817 293.984 674.673 295.33 670.58C297.1 665.21 301.95 661.87 307.9 661.89C315.174 661.917 319.734 665.87 321.58 673.75C322.547 677.89 323.044 682.563 323.07 687.77C323.244 722.05 323.187 755.113 322.9 786.96C322.9 787.205 322.986 787.441 323.144 787.627C323.302 787.812 323.521 787.934 323.76 787.97C349.567 791.837 376.067 794.377 403.26 795.59C425.834 796.597 451.497 796.997 480.25 796.79C486.004 796.75 491.224 796.643 495.91 796.47C503.997 796.17 508.057 796.02 508.09 796.02C534.744 795.36 562.22 793.533 590.52 790.54C590.619 790.53 590.712 790.492 590.79 790.431C590.868 790.369 590.926 790.287 590.959 790.194C590.991 790.1 590.997 790 590.974 789.903C590.951 789.807 590.901 789.719 590.83 789.65C554.14 753.3 531.19 704.43 528.31 652.72C527.07 630.34 526.427 601.6 526.38 566.5C526.367 561.28 526.454 557.053 526.64 553.82C526.947 548.493 527.84 544.577 529.32 542.07C534.19 533.8 541.03 530.49 550.06 528.05C563.134 524.517 575.38 520.913 586.8 517.24C603.92 511.75 619.11 505.38 635.74 497.83C635.798 497.804 635.85 497.765 635.89 497.717C635.931 497.668 635.96 497.611 635.976 497.549C635.991 497.487 635.992 497.423 635.979 497.361C635.966 497.299 635.939 497.24 635.9 497.19ZM851.33 551.82C850.33 551.813 849.44 551.74 848.66 551.6C839.614 549.913 830.897 548.127 822.51 546.24C794.27 539.887 768.28 530.683 744.54 518.63C741.66 517.17 738.714 515.687 735.7 514.18C722.25 507.46 708.24 499.04 701.43 495.28C701.128 495.112 700.785 495.034 700.44 495.053C700.094 495.073 699.762 495.189 699.48 495.39C674.51 513.46 646.21 527.58 616.86 539.05C597.534 546.603 577.544 552.68 556.89 557.28C556.65 557.334 556.434 557.469 556.28 557.661C556.126 557.854 556.041 558.093 556.04 558.34C556.027 573.24 556.04 591.26 556.08 612.4C556.1 625.2 556.84 639.57 557.5 649.76C559.674 683.42 570.517 714.407 590.03 742.72C607.77 768.46 631.04 790.54 656.87 808.67C660.19 810.997 665.674 814.417 673.32 818.93C682.627 824.423 691.094 828.63 698.72 831.55C700.77 832.33 702.11 832.23 704.11 831.58C709.67 829.773 715.667 827.27 722.1 824.07C733.154 818.577 744.19 811.87 755.21 803.95C774.5 790.09 791.94 774.22 806.93 755.19C826.26 730.65 839.81 703.52 846.46 673.49C850.12 657 851.53 639.22 851.59 620.77C851.737 578.25 851.794 555.41 851.76 552.25C851.758 552.135 851.711 552.026 851.631 551.945C851.551 551.865 851.443 551.82 851.33 551.82Z" fill="#61CEB0"/>
<path d="M635.9 497.19C635.939 497.24 635.966 497.299 635.979 497.361C635.992 497.423 635.99 497.487 635.975 497.549C635.96 497.61 635.93 497.668 635.89 497.716C635.849 497.765 635.798 497.804 635.74 497.83C619.11 505.38 603.92 511.75 586.8 517.24C575.38 520.913 563.133 524.517 550.06 528.05C541.03 530.49 534.19 533.8 529.32 542.07C527.84 544.577 526.946 548.493 526.64 553.82C526.453 557.053 526.366 561.28 526.38 566.5C526.426 601.6 527.07 630.34 528.31 652.72C531.19 704.43 554.14 753.3 590.83 789.65C590.901 789.719 590.951 789.807 590.973 789.903C590.996 789.999 590.991 790.1 590.958 790.194C590.926 790.287 590.867 790.369 590.789 790.431C590.712 790.492 590.618 790.53 590.52 790.54C562.22 793.533 534.743 795.36 508.09 796.02C508.056 796.02 503.996 796.17 495.91 796.47C491.223 796.643 486.003 796.75 480.25 796.79C451.496 796.997 425.833 796.597 403.26 795.59C376.066 794.377 349.566 791.837 323.76 787.97C323.52 787.934 323.301 787.812 323.144 787.627C322.986 787.441 322.899 787.205 322.9 786.96C323.186 755.113 323.243 722.05 323.07 687.77C323.043 682.563 322.546 677.89 321.58 673.75C319.733 665.87 315.173 661.917 307.9 661.89C301.95 661.87 297.1 665.21 295.33 670.58C293.983 674.673 293.283 679.817 293.23 686.01C292.923 723.73 292.903 755.06 293.17 780C293.176 781.087 293.083 782.117 292.89 783.09C292.861 783.227 292.78 783.348 292.665 783.428C292.55 783.508 292.408 783.541 292.27 783.52C262.596 778.793 233.39 772.507 204.65 764.66C204.474 764.612 204.323 764.502 204.225 764.35C204.127 764.199 204.089 764.017 204.12 763.84C209.513 732.32 214.53 702.317 219.17 673.83C224.41 641.683 227.06 625.597 227.12 625.57C227.266 625.49 227.67 622.647 228.33 617.04C228.716 613.74 229.95 606.9 232.03 596.52C236.43 574.57 245.76 556.05 261.73 540.46C270.836 531.567 280.72 523.863 291.38 517.35C320.13 499.78 351.78 486.64 384.33 475.71C384.779 475.558 385.26 475.524 385.727 475.611C386.195 475.699 386.633 475.905 387 476.21C420.52 504.21 469.86 512.22 512 505.97C517.206 505.203 523.3 503.893 530.28 502.04C549.38 496.98 566.223 488.413 580.81 476.34C581.094 476.105 581.431 475.943 581.791 475.866C582.151 475.79 582.525 475.801 582.88 475.9C601.213 480.887 618.54 487.71 634.86 496.37C635.326 496.617 635.673 496.89 635.9 497.19Z" fill="#B4FFE4"/>
<path d="M851.33 551.82C851.443 551.82 851.55 551.865 851.631 551.945C851.711 552.026 851.758 552.135 851.76 552.25C851.794 555.41 851.737 578.25 851.59 620.77C851.53 639.22 850.12 657 846.46 673.49C839.81 703.52 826.26 730.65 806.93 755.19C791.94 774.22 774.5 790.09 755.21 803.95C744.19 811.87 733.153 818.577 722.1 824.07C715.667 827.27 709.67 829.773 704.11 831.58C702.11 832.23 700.77 832.33 698.72 831.55C691.093 828.63 682.627 824.423 673.32 818.93C665.674 814.417 660.19 810.997 656.87 808.67C631.04 790.54 607.77 768.46 590.03 742.72C570.517 714.407 559.674 683.42 557.5 649.76C556.84 639.57 556.1 625.2 556.08 612.4C556.04 591.26 556.027 573.24 556.04 558.34C556.041 558.093 556.125 557.854 556.28 557.661C556.434 557.469 556.649 557.334 556.89 557.28C577.544 552.68 597.533 546.603 616.86 539.05C646.21 527.58 674.51 513.46 699.48 495.39C699.762 495.189 700.094 495.073 700.439 495.053C700.784 495.034 701.128 495.112 701.43 495.28C708.24 499.04 722.25 507.46 735.7 514.18C738.714 515.687 741.66 517.17 744.54 518.63C768.28 530.683 794.27 539.887 822.51 546.24C830.897 548.127 839.613 549.913 848.66 551.6C849.44 551.74 850.33 551.813 851.33 551.82ZM804.25 601.81C804.62 587.39 792.06 579.08 778.66 584.36C774.03 586.18 769.3 591.31 765.71 595.21C744.62 618.16 714.74 651.18 688.51 678.75C684.91 682.537 681.224 682.727 677.45 679.32C675.377 677.453 673.277 675.383 671.15 673.11C664.95 666.49 656.824 657.947 646.77 647.48C642.95 643.5 638.98 641.303 634.86 640.89C621.62 639.56 611.9 652.51 616.05 665.13C617.123 668.39 618.43 670.863 619.97 672.55C640.03 694.47 655.887 711.687 667.54 724.2C674.7 731.89 686.09 733.17 694.21 726.17C696.27 724.397 697.697 723.087 698.49 722.24C736.51 681.933 760.04 656.88 769.08 647.08C778.894 636.46 787.794 626.993 795.78 618.68C801.16 613.09 804.07 609.07 804.25 601.81Z" fill="#B4FFE4"/>
<path d="M778.66 584.36C792.06 579.08 804.62 587.39 804.25 601.81C804.07 609.07 801.16 613.09 795.78 618.68C787.794 626.993 778.894 636.46 769.08 647.08C760.04 656.88 736.51 681.933 698.49 722.24C697.697 723.087 696.27 724.397 694.21 726.17C686.09 733.17 674.7 731.89 667.54 724.2C655.887 711.687 640.03 694.47 619.97 672.55C618.43 670.863 617.124 668.39 616.05 665.13C611.9 652.51 621.62 639.56 634.86 640.89C638.98 641.303 642.95 643.5 646.77 647.48C656.824 657.947 664.95 666.49 671.15 673.11C673.277 675.383 675.377 677.453 677.45 679.32C681.224 682.727 684.91 682.537 688.51 678.75C714.74 651.18 744.62 618.16 765.71 595.21C769.3 591.31 774.03 586.18 778.66 584.36Z" fill="#61CEB0"/>
</svg>
