<svg width="1024" height="1024" viewBox="0 0 1024 1024" fill="none" xmlns="http://www.w3.org/2000/svg">
<path d="M497.301 289.98C497.901 289.14 498.197 288.157 498.191 287.03C498.037 257.077 498.124 237.097 498.451 227.09C498.851 214.977 498.847 201.917 498.441 187.91C498.194 179.303 498.044 162.057 497.991 136.17C497.991 136.018 497.964 135.869 497.911 135.73L497.651 135.05C497.619 134.963 497.567 134.884 497.498 134.822C497.429 134.76 497.345 134.716 497.255 134.694C497.165 134.673 497.071 134.674 496.981 134.697C496.891 134.721 496.809 134.767 496.741 134.83C488.081 143.05 481.164 149.687 475.991 154.74C467.621 162.9 456.501 174.89 445.081 162.47C440.361 157.34 440.871 150.61 445.441 145.44C450.901 139.28 456.181 134.76 462.851 128.14C478.417 112.687 490.807 100.15 500.021 90.53C504.341 86.01 509.671 82.39 516.061 85.17C518.941 86.4167 521.751 88.3633 524.491 91.01C532.104 98.3633 539.194 105.503 545.761 112.43C555.591 122.82 564.841 131.41 573.591 140.41C574.231 141.063 575.984 143.08 578.851 146.46C581.964 150.133 582.844 154.377 581.491 159.19C581.211 160.177 580.011 161.647 577.891 163.6C573.451 167.687 568.597 168.917 563.331 167.29C561.197 166.63 558.304 164.55 554.651 161.05C541.757 148.683 532.527 139.677 526.961 134.03C526.906 133.973 526.839 133.928 526.765 133.899C526.691 133.871 526.611 133.859 526.532 133.865C526.452 133.87 526.375 133.894 526.306 133.933C526.237 133.971 526.177 134.025 526.131 134.09C525.897 134.417 525.781 134.97 525.781 135.75C525.814 188.083 525.867 240.417 525.941 292.75C525.941 293.283 526.044 293.667 526.251 293.9C526.329 293.991 526.43 294.06 526.544 294.101C526.657 294.141 526.779 294.152 526.897 294.132C527.016 294.112 527.127 294.062 527.221 293.986C527.314 293.91 527.386 293.812 527.431 293.7C532.484 281.06 539.161 269.573 547.461 259.24C559.311 244.49 574.031 234.38 591.951 228.99C602.101 225.93 610.451 224.14 620.791 224.14C644.431 224.14 654.231 224.69 668.111 223.45C673.391 222.977 677.984 222.72 681.891 222.68C682.737 222.673 683.961 222.513 685.561 222.2C685.71 222.17 685.849 222.099 685.961 221.996C686.074 221.893 686.156 221.761 686.198 221.615C686.241 221.469 686.242 221.315 686.202 221.17C686.162 221.024 686.082 220.893 685.971 220.79C678.184 213.51 670.874 206.16 664.041 198.74C660.531 194.93 658.751 191.46 659.401 186.43C659.791 183.4 663.181 177.8 665.941 176.02C673.851 170.93 680.611 177.73 686.751 183.62C692.351 188.98 697.941 193.31 702.911 198.36C713.844 209.467 720.271 215.903 722.191 217.67C726.244 221.403 729.391 224.573 731.631 227.18C736.744 233.12 737.394 239.51 733.581 246.35C731.301 250.44 725.091 255.77 721.751 259.19C709.311 271.943 697.227 283.88 685.501 295C679.551 300.64 670.631 305.88 663.571 298.72C658.131 293.2 657.751 284.25 663.291 278.51C674.764 266.617 682.997 258.04 687.991 252.78C688.09 252.674 688.156 252.542 688.18 252.399C688.203 252.256 688.184 252.109 688.124 251.977C688.064 251.845 687.966 251.734 687.842 251.658C687.719 251.582 687.576 251.544 687.431 251.55C670.971 252.34 652.561 251.68 633.451 252.41C621.691 252.863 612.854 253.487 606.941 254.28C600.901 255.093 594.531 257.447 587.831 261.34C576.651 267.84 567.751 276.937 561.131 288.63C558.737 292.857 555.571 298.47 551.631 305.47C551.555 305.604 551.512 305.754 551.506 305.908C551.5 306.062 551.532 306.215 551.597 306.354C551.663 306.493 551.761 306.614 551.884 306.708C552.006 306.801 552.149 306.864 552.301 306.89C555.931 307.54 559.571 307.96 563.871 308.86C570.631 310.28 578.924 312.253 588.751 314.78C600.997 317.92 613.754 323.083 627.021 330.27C636.434 335.37 641.337 338.033 641.731 338.26C671.931 355.65 697.691 378.37 717.021 407.21C722.341 415.143 726.994 422.557 730.981 429.45C737.781 441.197 743.244 454.47 747.371 469.27C750.364 480.003 752.887 492.463 754.941 506.65C758.821 533.43 756.561 560.17 750.971 586.99C746.084 610.463 737.737 631.863 725.931 651.19C720.571 659.97 714.781 668.81 707.991 678.34C699.477 690.3 693.697 698.897 690.651 704.13C686.977 710.443 683.957 718.457 681.591 728.17C680.191 733.917 679.511 741.297 679.551 750.31C679.601 762.24 679.421 774.59 680.741 786.84C681.247 791.573 681.591 796.313 681.771 801.06C682.011 807.68 682.324 812.463 682.711 815.41C683.651 822.49 683.631 827.92 684.741 834.51C685.811 840.82 687.171 852.09 688.091 861.6C688.877 869.813 689.367 874.523 689.561 875.73C690.481 881.39 689.158 886.413 685.591 890.8C678.871 899.08 670.171 901.87 659.571 901.89C571.857 902.07 502.397 901.907 451.191 901.4C438.501 901.27 427.161 893.21 425.621 879.93C424.321 868.78 424.501 855.78 423.361 844.35C422.514 835.863 421.801 828.817 421.221 823.21C421.186 822.85 421.017 822.516 420.747 822.274C420.477 822.031 420.125 821.898 419.761 821.9C395.041 822.18 369.034 822.183 341.741 821.91C329.651 821.8 317.561 819.28 308.571 810.78C296.944 799.807 291.261 786.257 291.521 770.13C291.614 764.397 291.837 758.433 292.191 752.24C292.477 747.28 291.791 742.837 290.131 738.91C288.071 734.063 286.334 729.807 284.921 726.14C283.094 721.413 282.117 715.953 281.991 709.76C281.837 702.447 281.721 695.043 281.641 687.55C281.638 687.114 281.482 686.693 281.201 686.361C280.919 686.028 280.53 685.805 280.101 685.73C274.274 684.683 269.001 683.983 264.281 683.63C259.634 683.277 255.147 682.393 250.821 680.98C245.801 679.333 241.811 675.953 238.851 670.84C234.431 663.22 232.181 657.64 232.091 649.81C232.044 645.263 232.184 642.167 232.511 640.52C233.084 637.633 234.341 634.223 236.281 630.29C243.281 616.06 252.691 601.89 259.421 589.01C263.967 580.317 269.517 570.44 276.071 559.38C278.971 554.49 281.681 549.22 283.671 544.19C284.941 541.01 285.211 536.56 285.221 532.86C285.301 514.87 285.581 499.41 290.321 482C294.471 466.76 296.831 456.02 302.261 444.02C313.227 419.747 327.317 397.413 344.531 377.02C347.797 373.153 352.934 367.877 359.941 361.19C369.187 352.377 379.207 344.817 390.001 338.51C400.291 332.5 412.591 325.27 424.321 320.53C440.187 314.11 456.051 309.44 471.911 306.52C472.111 306.485 472.301 306.405 472.467 306.286C472.632 306.167 472.769 306.013 472.867 305.835C472.965 305.656 473.021 305.458 473.032 305.255C473.043 305.051 473.009 304.848 472.931 304.66C468.957 295.073 463.964 286.557 457.951 279.11C453.264 273.317 446.981 267.763 439.101 262.45C430.447 256.623 420.417 253.49 409.011 253.05C401.597 252.763 394.011 252.69 386.251 252.83C372.477 253.083 356.894 253.44 339.501 253.9C338.934 253.913 338.507 254.027 338.221 254.24C338.142 254.298 338.078 254.372 338.031 254.457C337.984 254.542 337.956 254.637 337.949 254.734C337.943 254.831 337.957 254.928 337.992 255.019C338.027 255.11 338.081 255.192 338.151 255.26C342.851 259.88 346.931 264.81 352.181 270.03C354.654 272.49 357.674 275.803 361.241 279.97C365.841 285.34 364.291 293.38 360.071 298.29C355.461 303.66 347.621 303.09 342.431 299.08C339.077 296.487 335.141 292.747 330.621 287.86C321.087 277.56 314.901 271.08 312.061 268.42C304.934 261.753 298.671 255.46 293.271 249.54C288.111 243.893 286.717 238.11 289.091 232.19C290.011 229.877 293.117 226.173 298.411 221.08C310.697 209.273 324.071 195.673 338.531 180.28C341.141 177.5 344.551 174.71 348.301 174.27C353.307 173.683 357.534 175.687 360.981 180.28C362.727 182.607 363.714 184.853 363.941 187.02C364.427 191.773 363.034 195.767 359.761 199C346.854 211.753 338.854 219.71 335.761 222.87C335.648 222.984 335.572 223.129 335.541 223.286C335.511 223.443 335.527 223.606 335.59 223.754C335.652 223.902 335.756 224.028 335.89 224.116C336.024 224.204 336.181 224.251 336.341 224.25C367.221 224.103 389.524 224.063 403.251 224.13C406.597 224.143 411.344 224.47 417.491 225.11C432.351 226.66 447.511 233.44 459.101 242.13C476.021 254.817 488.641 270.753 496.961 289.94C496.975 289.973 496.998 290.001 497.027 290.023C497.056 290.044 497.089 290.058 497.124 290.062C497.159 290.066 497.194 290.06 497.225 290.046C497.256 290.032 497.282 290.009 497.301 289.98ZM454.651 872.29H659.741C659.87 872.291 659.998 872.264 660.116 872.211C660.235 872.159 660.341 872.082 660.428 871.985C660.516 871.888 660.583 871.773 660.624 871.649C660.666 871.524 660.682 871.391 660.671 871.26C660.077 864.933 659.334 858.67 658.441 852.47C658.254 851.17 658.077 849.853 657.911 848.52C656.524 837.62 654.951 824.55 653.191 809.31C651.951 798.57 651.491 789.05 650.411 776.01C650.077 772.003 650.007 760.107 650.201 740.32C650.251 736.12 651.361 731.81 651.801 727.92C652.127 725.007 652.781 721.95 653.761 718.75C656.441 710.023 659.991 701.247 664.411 692.42C666.744 687.773 671.827 679.917 679.661 668.85C686.914 658.623 692.277 650.923 695.751 645.75C704.071 633.363 710.814 620.52 715.981 607.22C718.287 601.273 720.434 593.847 722.421 584.94C724.721 574.62 726.354 565.553 727.321 557.74C728.601 547.35 728.061 535.97 728.171 526.67C728.241 521 727.181 514.59 726.711 509.08C726.317 504.533 725.671 500.167 724.771 495.98C721.257 479.573 717.077 465.833 712.231 454.76C709.284 448.027 704.667 439.53 698.381 429.27C693.467 421.25 687.954 413.803 681.841 406.93C671.121 394.88 659.781 383.4 646.621 374.63C630.901 364.143 614.491 355.107 597.391 347.52C583.851 341.51 569.221 338.77 554.291 336.49C549.211 335.71 544.751 335.48 539.751 334.24C539.187 334.1 538.592 334.155 538.062 334.394C537.533 334.634 537.099 335.044 536.831 335.56C534.337 340.367 532.304 344.1 530.731 346.76C525.371 355.79 515.901 362.03 505.521 356.97C501.261 354.89 498.184 352.22 496.291 348.96C494.757 346.327 492.041 341.497 488.141 334.47C487.936 334.1 487.626 333.799 487.251 333.605C486.875 333.411 486.451 333.333 486.031 333.38C483.244 333.693 480.961 334.04 479.181 334.42C461.841 338.15 446.281 341.81 431.961 348.04C414.851 355.48 400.151 365.3 385.511 376.91C378.377 382.57 372.494 387.937 367.861 393.01C355.521 406.55 345.851 421.84 336.841 438.31C326.101 457.98 318.541 479.38 315.181 501.58C313.651 511.68 313.821 519.08 313.881 529.83C313.914 536.73 313.541 541.983 312.761 545.59C310.061 558.02 305.331 566.05 297.731 578.94C293.104 586.793 281.574 607.287 263.141 640.42C262.414 641.733 261.421 644.257 260.161 647.99C260.075 648.255 260.031 648.532 260.031 648.81C260.071 651.597 261.257 653.377 263.591 654.15C266.171 654.997 269.164 655.56 272.571 655.84C277.364 656.227 282.907 656.853 289.201 657.72C292.714 658.2 295.387 658.93 297.221 659.91C306.961 665.12 309.811 674.6 309.701 685.11C309.681 687.477 309.717 694.597 309.811 706.47C309.841 710.08 310.501 714.41 311.991 717.36C315.331 723.953 317.284 727.96 317.851 729.38C320.191 735.2 321.094 741.573 320.561 748.5C319.941 756.473 319.704 764.293 319.851 771.96C319.921 775.51 321.261 781.38 322.611 783.65C327.181 791.28 334.981 792.81 343.481 793.61C346.454 793.89 353.044 793.95 363.251 793.79C390.871 793.343 408.621 792.98 416.501 792.7C432.241 792.14 446.871 799.5 449.081 816.45C450.521 827.523 451.427 838.1 451.801 848.18C452.081 855.91 453.341 862.8 453.661 871.34C453.671 871.596 453.78 871.837 453.965 872.014C454.149 872.191 454.395 872.29 454.651 872.29Z" fill="#FFC210"/>
<path d="M497.361 594.52C497.108 594.345 496.81 594.245 496.503 594.235C496.196 594.224 495.893 594.302 495.631 594.46C491.931 596.69 488.461 598.7 484.011 599.62C478.638 600.733 473.571 601.127 468.811 600.8C459.601 600.17 451.731 597.88 444.251 593.35C432.971 586.51 424.464 577.15 418.731 565.27C418.582 564.962 418.364 564.693 418.093 564.483C417.823 564.273 417.507 564.128 417.171 564.06C398.898 560.4 384.131 551.803 372.871 538.27C361.581 524.71 355.001 510.66 355.521 492.99C355.601 490.443 355.771 487.117 356.031 483.01C356.981 468.19 366.341 451.9 375.901 441.24C386.861 429.02 400.021 422.01 416.101 420.88C416.559 420.848 416.998 420.682 417.364 420.403C417.73 420.124 418.007 419.744 418.161 419.31C426.201 396.55 447.381 382.99 471.261 382.08C477.328 381.847 482.581 382.067 487.021 382.74C496.381 384.16 504.654 387.687 511.841 393.32C512.048 393.482 512.301 393.572 512.563 393.578C512.824 393.583 513.08 393.503 513.291 393.35C526.571 383.79 541.648 379.96 558.521 381.86C573.521 383.547 585.451 390.583 594.311 402.97C595.171 404.177 596.234 404.853 597.501 405C604.054 405.76 610.401 406.92 616.541 408.48C630.248 411.96 641.661 419.11 650.781 429.93C658.521 439.11 662.601 449.71 663.021 461.73C663.121 464.88 663.191 465.9 665.771 468C684.051 482.88 696.801 499.13 697.271 523.52C697.618 541.533 690.624 555.87 676.291 566.53C672.551 569.31 670.041 571.207 668.761 572.22C668.429 572.483 668.171 572.827 668.013 573.22C667.855 573.613 667.803 574.041 667.861 574.46C669.811 588.55 666.771 603.81 656.811 614.36C651.711 619.773 646.321 624.63 640.641 628.93C637.101 631.6 633.161 633.31 628.781 635.42C628.428 635.589 628.132 635.857 627.929 636.191C627.727 636.525 627.627 636.911 627.641 637.3C627.861 643.953 627.831 649.737 627.551 654.65C627.231 660.29 625.694 666.547 622.941 673.42C618.401 684.73 607.711 690.66 595.601 690.67C579.411 690.69 564.211 680.17 560.411 664.08C557.551 651.98 556.381 642.53 547.811 634.2C541.911 628.47 536.991 623.94 533.111 617.69C529.731 612.25 527.258 606.473 525.691 600.36C525.62 600.072 525.443 599.822 525.195 599.657C524.947 599.493 524.646 599.426 524.351 599.47C521.784 599.857 518.818 600.073 515.451 600.12C508.771 600.21 502.721 598.21 497.361 594.52ZM445.781 556.18C445.519 556.407 445.348 556.72 445.299 557.062C445.249 557.404 445.324 557.751 445.511 558.04C452.744 569.227 463.034 574.087 476.381 572.62C482.261 571.97 485.351 568.63 491.111 564.37C492.911 563.043 494.554 562.29 496.041 562.11C505.521 560.94 507.631 568.57 514.841 571.47C520.461 573.73 528.121 569.45 534.111 566.89C538.131 565.18 545.881 565.1 549.601 568.42C551.734 570.327 553.051 572.643 553.551 575.37C554.458 580.283 554.681 584.893 554.221 589.2C553.914 592.04 554.014 594.23 554.521 595.77C557.471 604.77 562.941 608.69 571.341 617.13C577.681 623.5 582.171 632.02 583.901 641.38C584.001 641.92 584.531 644.713 585.491 649.76C586.138 653.167 586.901 655.55 587.781 656.91C589.581 659.69 593.261 662.49 596.801 661.81C596.971 661.775 597.132 661.706 597.273 661.606C597.414 661.506 597.532 661.378 597.621 661.23C600.511 656.52 600.951 650.93 600.791 645.5C600.584 638.82 599.804 632 598.451 625.04C597.331 619.24 600.471 613.79 605.951 611.04C608.838 609.593 611.411 608.71 613.671 608.39C624.071 606.91 631.861 601.793 637.041 593.04C639.614 588.693 640.641 584.11 640.121 579.29C640.086 578.976 639.943 578.685 639.716 578.467C639.489 578.25 639.194 578.119 638.881 578.1C636.474 577.973 634.484 577.793 632.911 577.56C629.791 577.1 624.474 575.613 616.961 573.1C612.368 571.56 609.048 568.727 607.001 564.6C604.571 559.71 605.851 553.19 610.231 549.37C614.058 546.03 618.421 544.8 623.321 545.68C626.871 546.32 631.841 548.72 635.051 549.48C639.861 550.62 646.081 550.92 651.091 548.84C661.551 544.47 669.871 535.48 669.441 523.48C669.061 512.76 664.021 502.48 655.021 496.35C654.645 496.092 654.201 495.952 653.744 495.947C653.286 495.941 652.837 496.071 652.451 496.32C648.111 499.13 642.251 501.13 637.331 498.65C633.951 496.94 630.751 494.22 630.231 490.37C629.941 488.17 629.861 484.01 630.961 481.95C634.154 475.963 635.468 469.597 634.901 462.85C633.761 449.43 625.141 439.7 612.431 436.59C607.564 435.403 603.531 434.473 600.331 433.8C599.758 433.68 599.163 433.738 598.625 433.967C598.087 434.196 597.632 434.584 597.321 435.08C591.928 443.667 586.641 452.947 581.461 462.92C576.511 472.45 565.861 472.49 559.151 465.25C555.878 461.723 555.111 457.107 556.851 451.4C557.491 449.33 558.731 447.47 560.031 445.24C562.024 441.813 565.658 435.803 570.931 427.21C572.541 424.58 573.931 420.45 571.441 418.39C568.868 416.27 565.738 414.143 562.051 412.01C557.471 409.36 553.341 409.71 547.951 409.7C541.361 409.69 535.571 412.32 530.591 416.25C530.328 416.46 530.122 416.732 529.991 417.04C529.744 417.607 529.654 418.597 529.721 420.01C529.861 423.18 530.531 426.32 530.431 429.69C529.861 450 529.581 468.73 529.791 483.43C529.804 484.087 529.908 484.736 530.101 485.36C533.011 494.63 539.621 502.46 549.421 504.64C551.588 505.127 555.614 505.417 561.501 505.51C570.001 505.65 575.361 503.02 581.611 498.37C583.638 496.863 585.151 495.897 586.151 495.47C592.158 492.923 597.324 494.04 601.651 498.82C605.678 503.26 606.451 508.09 603.971 513.31C602.211 517.01 597.391 520.76 593.611 523.88C587.204 529.16 579.924 532.123 571.771 532.77C565.791 533.24 556.151 533.35 548.661 532.62C530.901 530.9 515.731 519.58 507.761 503.97C504.551 497.69 502.351 492.18 502.091 486.38C501.931 482.91 501.631 478.56 501.721 474.42C502.161 454.927 502.411 439.883 502.471 429.29C502.521 419.89 496.691 414.04 487.491 411.75C483.231 410.69 479.251 410.057 475.551 409.85C465.551 409.31 453.421 413.17 447.651 422.12C444.721 426.65 441.781 432.28 441.831 437.52C441.858 440 441.961 441.52 442.141 442.08C444.951 450.92 451.631 460.4 460.541 463.47C464.321 464.78 470.131 465.27 473.401 468.05C475.614 469.917 476.958 471.82 477.431 473.76C479.104 480.6 477.231 486.097 471.811 490.25C467.911 493.237 464.034 494.34 460.181 493.56C440.741 489.6 424.521 472.25 416.511 454.77C416.138 453.943 415.828 452.937 415.581 451.75C415.503 451.375 415.285 451.045 414.97 450.827C414.655 450.609 414.269 450.521 413.891 450.58C394.111 453.56 381.901 479.7 383.551 497.29C384.821 510.82 394.291 522.29 405.791 529.39C410.201 532.1 413.451 533.69 418.021 534.7C428.431 537.01 433.381 530.66 440.501 524.27C447.631 517.87 455.511 515.57 462.951 523.52C464.958 525.667 466.118 528.32 466.431 531.48C466.971 536.97 462.271 542.6 458.171 545.93C452.338 550.657 448.208 554.073 445.781 556.18Z" fill="#FFC210"/>
</svg>
