<svg width="25" height="25" viewBox="0 0 25 25" fill="none" xmlns="http://www.w3.org/2000/svg">
<path fill-rule="evenodd" clip-rule="evenodd" d="M13.6719 16.4062V3.125C13.6719 2.47812 13.1469 1.95312 12.5 1.95312C11.8531 1.95312 11.3281 2.47812 11.3281 3.125V16.4062C11.3281 17.0531 11.8531 17.5781 12.5 17.5781C13.1469 17.5781 13.6719 17.0531 13.6719 16.4062Z" fill="#FE7101"/>
<path fill-rule="evenodd" clip-rule="evenodd" d="M6.20322 12.547L11.672 18.0157C12.1298 18.4735 12.8704 18.4735 13.3282 18.0157L18.797 12.547C19.2548 12.0907 19.2548 11.347 18.797 10.8907C18.3407 10.4329 17.597 10.4329 17.1407 10.8907L12.5001 15.5298L7.85947 10.8907C7.40322 10.4329 6.65947 10.4329 6.20322 10.8907C5.74541 11.347 5.74541 12.0907 6.20322 12.547Z" fill="#FE7101"/>
<path fill-rule="evenodd" clip-rule="evenodd" d="M4.6875 23.0469H20.3125C20.9594 23.0469 21.4844 22.5219 21.4844 21.875C21.4844 21.2281 20.9594 20.7031 20.3125 20.7031H4.6875C4.04062 20.7031 3.51562 21.2281 3.51562 21.875C3.51562 22.5219 4.04062 23.0469 4.6875 23.0469Z" fill="#FE7101"/>
</svg>
