<svg width="1024" height="1024" viewBox="0 0 1024 1024" fill="none" xmlns="http://www.w3.org/2000/svg">
<path d="M594.8 264.83L589.25 268.93C589.21 268.956 589.162 268.967 589.115 268.962C589.067 268.957 589.023 268.935 588.989 268.902C588.955 268.868 588.934 268.823 588.929 268.776C588.923 268.728 588.935 268.68 588.96 268.64C590.534 266.413 592.37 264.38 594.47 262.54C594.486 262.526 594.5 262.508 594.509 262.489C594.518 262.47 594.523 262.449 594.524 262.427C594.525 262.406 594.522 262.384 594.514 262.364C594.507 262.344 594.495 262.326 594.48 262.31L594.24 262.07C594.233 262.062 594.224 262.055 594.213 262.05C594.203 262.045 594.192 262.043 594.18 262.043C594.169 262.043 594.158 262.045 594.147 262.05C594.137 262.055 594.128 262.062 594.12 262.07L587.98 268.75C587.975 268.756 587.967 268.761 587.959 268.763C587.951 268.765 587.942 268.764 587.934 268.761C587.927 268.757 587.92 268.751 587.916 268.744C587.911 268.737 587.91 268.728 587.91 268.72C588.07 266.513 588.564 264.453 589.39 262.54C590.73 259.44 595.35 255.99 596.85 252.54C599.69 246.03 603.18 239.61 609.49 236.9C611.8 235.91 613.17 233.77 615.93 233.5C615.971 233.498 616.011 233.483 616.044 233.458C616.076 233.433 616.1 233.398 616.112 233.359C616.124 233.319 616.124 233.277 616.111 233.238C616.098 233.199 616.073 233.165 616.04 233.14L604.74 223.29" stroke="#6BCBBD" stroke-width="2"/>
<path d="M604.74 223.29C597.82 217.71 590.584 212.563 583.03 207.85" stroke="#92D4CD" stroke-width="2"/>
<path d="M583.031 207.85C553.711 190.31 521.57 180.02 487.74 177.34C426.74 172.52 365.16 192.12 317.27 230.29C296.88 246.54 279.6 266.33 266.85 288.36C251.66 314.62 244.01 343.84 241.69 374.56C241.304 379.74 241.067 386.037 240.98 393.45C240.83 406.79 239.57 417.41 236.28 428.01C232.914 438.843 228.314 450.167 222.48 461.98" stroke="#9ED5D0" stroke-width="2"/>
<path d="M222.48 461.98C213.207 479.907 203.913 497.83 194.6 515.75C191.413 521.883 189.18 526.267 187.9 528.9C184.65 535.6 183.15 543.48 190.12 548.51C191.087 549.203 192.231 549.608 193.42 549.68C202.367 550.213 210.45 550.707 217.67 551.16C226.09 551.68 237.8 554.99 237.49 565.76C237.03 581.31 236.74 596.28 238.08 611.59C238.092 611.698 238.141 611.799 238.219 611.872C238.296 611.946 238.396 611.988 238.5 611.99C244.453 612.23 250.157 612.16 255.61 611.78C262.24 611.32 266.74 612.51 270.01 618.23" stroke="#97D4CE" stroke-width="2"/>
<path d="M270.01 618.23C272.53 624.57 269.67 630.91 263.75 633.93C262.316 634.657 260.183 635.03 257.35 635.05C255.336 635.063 249.863 635.407 240.93 636.08C240.876 636.084 240.824 636.098 240.776 636.122C240.728 636.147 240.686 636.181 240.651 636.222C240.617 636.263 240.591 636.31 240.575 636.361C240.56 636.413 240.554 636.467 240.56 636.52C241.46 645.787 242.666 655.507 244.18 665.68C244.866 670.24 245.47 673.423 245.99 675.23C248.843 685.11 253.986 692.88 261.42 698.54C267.6 703.24 277.83 708.67 286.38 708.9C294.206 709.113 305.25 709.053 319.51 708.72C324.83 708.6 329.52 708.01 334.21 707.94C337.33 707.893 341.006 707.647 345.24 707.2C381.98 703.34 417.59 690.87 446.46 667.91C449.626 665.39 451.77 663.983 452.89 663.69C462.96 661.06 472.54 673.65 467.45 682.65C467.27 682.969 467.059 683.267 466.82 683.54C466.3 684.133 464.193 685.87 460.5 688.75C445.59 700.38 429.58 709.62 411.53 716.52C400.463 720.753 389.586 724.253 378.9 727.02C378.675 727.077 378.481 727.218 378.356 727.415C378.232 727.612 378.186 727.85 378.23 728.08C380.91 742.473 382.48 757.107 382.94 771.98C383.386 786.413 381.603 800.027 377.59 812.82C376.076 817.627 374.063 823.17 371.55 829.45C371.527 829.504 371.518 829.563 371.524 829.622C371.53 829.681 371.551 829.737 371.584 829.787C371.618 829.836 371.663 829.877 371.717 829.905C371.77 829.934 371.829 829.949 371.89 829.95H619.16C619.279 829.95 619.397 829.92 619.503 829.863C619.608 829.806 619.698 829.724 619.763 829.625C619.829 829.526 619.868 829.412 619.878 829.294C619.888 829.176 619.868 829.058 619.82 828.95C600.99 786.56 588.69 742.09 587.08 694.9" stroke="#92D4CD" stroke-width="2"/>
<path d="M587.08 694.9C586.926 682.827 587.28 670.717 588.14 658.57C588.59 652.16 592.43 647.55 598.82 646.93C600.333 646.783 601.76 646.673 603.1 646.6" stroke="#97D4CE" stroke-width="2"/>
<path d="M526.75 488.97C527.02 493.92 526.2 499.63 526.4 503.64C526.62 507.97 527.04 513.23 529.13 516.43C530.363 518.33 532.63 521.044 535.93 524.57C539.69 528.6 544.54 529.19 550.19 529.71C553.87 530.057 557.58 529.954 561.32 529.4" stroke="#E7FEF9" stroke-width="2"/>
<path d="M561.32 529.4C561.614 532.313 561.93 535.247 562.27 538.2C563.404 548.02 565.85 557.27 569.61 565.95C573.557 575.07 578.434 583.613 584.24 591.58C590.7 600.44 600.57 610.02 609.17 618.74" stroke="#97D4CE" stroke-width="2"/>
<path d="M587.08 694.9C574.34 695.31 565.33 694.57 555.28 686.31C549.04 681.19 543.81 677.38 536.97 676.13C533.35 675.47 529.13 674.807 524.31 674.14C509.91 672.14 498.07 667.95 483.62 662.26C477.91 660.02 471.31 658.03 465.94 657.39C459.326 656.61 455.323 656.09 453.93 655.83C444.56 654.12 435.69 649.78 427 645.26C417.69 640.4 407.43 638.06 397.72 634.75C387.82 631.377 381.896 629.453 379.95 628.98C369.31 626.373 358.263 625.07 346.81 625.07C332.93 625.063 321.106 624.963 311.34 624.77C297.186 624.497 283.41 622.317 270.01 618.23" stroke="#E7FEF9" stroke-width="2"/>
<path d="M267.7 451.71C273.034 460.123 279.874 466.55 288.22 470.99C307.3 481.14 330.22 478.85 348.35 467.1C353.76 463.6 358.25 457.49 357.24 450.42" stroke="#97D4CE" stroke-width="2"/>
<path d="M604.74 223.29C603.47 227.41 601.69 229.17 598.3 232.21C592.78 237.18 589.97 243.85 586.42 250.8C585.64 252.313 584.987 253.967 584.46 255.76C584.427 255.886 584.353 255.997 584.25 256.076C584.147 256.155 584.02 256.198 583.89 256.198C583.76 256.198 583.634 256.155 583.531 256.076C583.428 255.997 583.354 255.886 583.32 255.76C582.467 252.853 580.94 250.383 578.74 248.35" stroke="#BBF5E7" stroke-width="2"/>
<path d="M578.741 248.35L576.101 244.63" stroke="#92D4CD" stroke-width="2"/>
<path d="M583.031 207.85C582.651 210.49 582.461 213.47 581.751 215.82C579.624 222.82 578.237 229.963 577.591 237.25C577.391 239.57 576.651 242.25 576.101 244.63" stroke="#EEFFFB" stroke-width="2"/>
<path d="M576.1 244.63C568.38 235.604 559.19 229.334 548.53 225.82C525.37 218.17 499.98 224.22 480.91 239.64C480.699 239.813 480.436 239.91 480.163 239.913C479.891 239.917 479.625 239.828 479.41 239.66C459.85 224.37 431.16 215.9 407.2 225.71C394.34 230.977 384.857 240.377 378.75 253.91C378.05 255.45 377.72 257.04 376.9 258.52C376.827 258.646 376.729 258.755 376.612 258.842C376.495 258.928 376.362 258.988 376.22 259.02C373.15 259.68 370.02 259.88 367.01 260.5C350.3 263.97 334.67 272.91 323.41 286.17C312.78 298.69 305.39 313.49 304.59 329.83C304.06 340.57 306.33 349.67 311.44 359.18C318.98 373.23 334.25 383.6 349.23 388.92C349.583 389.044 349.902 389.25 350.161 389.521C350.419 389.792 350.611 390.121 350.72 390.48C354.77 403.82 364.59 414.39 376.46 421.29" stroke="#9ED5D0" stroke-width="2"/>
<path d="M376.46 421.29C374.807 425.983 372.937 430.52 370.85 434.9C367.72 441.49 363.97 447.46 357.24 450.42" stroke="#F3FFFC" stroke-width="2"/>
<path d="M357.24 450.42C355.31 445.25 349.57 441.54 343.92 441.9C342.48 441.993 340.64 442.667 338.4 443.92C331.94 447.547 325.96 449.887 320.46 450.94C308.346 453.26 298.443 449.617 290.75 440.01C289.56 438.53 287.56 435.34 285.75 434.25C283.33 432.797 280.41 432.373 276.99 432.98C267.8 434.61 265.39 443.46 267.7 451.71" stroke="#9ED5D0" stroke-width="2"/>
<path d="M267.7 451.71C266.56 455.25 265.544 457.637 264.65 458.87C261.157 463.697 256.324 465.833 250.15 465.28C240.28 464.39 231.72 463.03 222.48 461.98" stroke="#F3FFFC" stroke-width="2"/>
<path d="M561.32 529.4L561 524.93" stroke="#92D4CD" stroke-width="2"/>
<path d="M561 524.93L561.96 511.28C561.98 511.021 561.963 510.762 561.91 510.51C561.717 509.617 561.61 508.703 561.59 507.77C561.59 507.657 561.514 507.523 561.36 507.37C561.227 507.23 561.147 507.077 561.12 506.91C561.414 507.383 561.55 507.737 561.53 507.97C561.524 508.034 561.501 508.096 561.463 508.148C561.425 508.2 561.374 508.241 561.314 508.267C561.255 508.293 561.19 508.302 561.126 508.293C561.062 508.285 561.001 508.26 560.95 508.22C559.704 507.267 558.687 506.647 557.9 506.36C553.71 504.82 548.73 502.66 547.28 499.13C545.19 494.04 544.78 492.5 541.83 489.08C541.794 489.04 541.775 488.987 541.777 488.933C541.779 488.879 541.802 488.828 541.84 488.79L541.85 488.78C541.891 488.742 541.945 488.721 542 488.721C542.056 488.721 542.11 488.742 542.15 488.78C544.224 490.807 545.657 492.673 546.45 494.38C548.29 498.313 550.02 501.163 551.64 502.93C551.642 502.932 551.644 502.934 551.647 502.935C551.65 502.936 551.652 502.937 551.655 502.937C551.658 502.937 551.661 502.936 551.663 502.935C551.666 502.934 551.668 502.932 551.67 502.93L551.92 502.69C551.962 502.648 551.987 502.592 551.991 502.531C551.994 502.471 551.976 502.41 551.94 502.36C550.407 500.18 549.494 498.72 549.2 497.98C547.6 493.96 545.204 490.747 542.01 488.34C541.781 488.163 541.509 488.05 541.22 488.01L539.01 487.67C539.001 487.668 538.994 487.663 538.988 487.655C538.983 487.648 538.98 487.639 538.98 487.63L538.96 487.32C538.958 487.283 538.965 487.245 538.979 487.211C538.993 487.176 539.014 487.145 539.041 487.12C539.068 487.095 539.099 487.077 539.134 487.067C539.168 487.056 539.205 487.054 539.24 487.06L540.9 487.32C540.946 487.327 540.992 487.318 541.031 487.294C541.07 487.27 541.099 487.232 541.112 487.188C541.126 487.144 541.123 487.097 541.104 487.055C541.085 487.013 541.052 486.979 541.01 486.96C540.77 486.847 540.647 486.79 540.64 486.79C540.575 486.724 540.537 486.636 540.532 486.544C540.527 486.451 540.557 486.36 540.614 486.287C540.672 486.215 540.754 486.166 540.846 486.15C540.937 486.134 541.031 486.152 541.11 486.2C542.984 487.413 544.987 489.033 547.12 491.06C550.33 494.1 551.19 498.71 554.44 502.2C554.472 502.234 554.517 502.254 554.563 502.256C554.61 502.258 554.655 502.241 554.69 502.21H554.7C554.737 502.173 554.757 502.123 554.757 502.07C554.757 502.018 554.737 501.968 554.7 501.93C553.027 500.23 552.084 499.03 551.87 498.33C550.537 493.95 547.887 490.393 543.92 487.66C543.865 487.622 543.822 487.568 543.798 487.505C543.775 487.442 543.771 487.373 543.787 487.308C543.803 487.243 543.839 487.184 543.89 487.14C543.94 487.095 544.003 487.068 544.07 487.06C544.33 487.027 544.627 487.197 544.96 487.57C545.104 487.727 545.288 487.838 545.49 487.89L548.48 488.6" stroke="#6BCBBD" stroke-width="2"/>
<path d="M578.74 248.35C581.454 252.757 583.71 257.347 585.51 262.12C585.51 262.123 585.511 262.125 585.513 262.127C585.515 262.129 585.518 262.13 585.52 262.13L587.21 269.22C587.234 269.312 587.277 269.398 587.338 269.472C587.398 269.545 587.474 269.604 587.56 269.645C587.646 269.686 587.739 269.708 587.834 269.709C587.93 269.71 588.024 269.69 588.11 269.65C588.404 269.51 588.75 269.47 589.15 269.53" stroke="#6BCBBD" stroke-width="2"/>
<path d="M540.27 485.15C538.403 485.73 536.82 486.84 535.52 488.48C535.323 488.729 535.06 488.916 534.76 489.02C533.373 489.493 531.943 489.703 530.47 489.65" stroke="#6BCBBD" stroke-width="2"/>
<path d="M530.47 489.65L526.75 488.97" stroke="#92D4CD" stroke-width="2"/>
<path d="M526.75 488.97C515.25 484.58 507.14 471.39 502.8 460.45C502.71 460.229 502.553 460.042 502.351 459.914C502.148 459.787 501.91 459.726 501.67 459.74C492.92 460.27 485.34 460.62 477.05 458.51C459.66 454.1 443.4 443.81 434.19 428.37C434.065 428.161 433.876 427.996 433.65 427.901C433.423 427.806 433.171 427.785 432.93 427.84C413.87 432.24 393.87 430.61 376.46 421.29" stroke="#97D4CE" stroke-width="2"/>
<path d="M561 524.93L549.97 522.73C549.814 522.698 549.674 522.615 549.572 522.493C549.471 522.371 549.413 522.219 549.41 522.06C549.383 519.813 548.853 517.74 547.82 515.84C546.65 513.7 543.48 511.82 542.24 510.72C541.635 510.182 541.085 509.582 540.6 508.93C536.873 503.87 534.5 498.27 533.48 492.13C533.465 492.073 533.474 492.013 533.504 491.962C533.534 491.911 533.583 491.875 533.64 491.86C533.697 491.846 533.757 491.854 533.808 491.884C533.859 491.914 533.895 491.963 533.91 492.02C535.35 496.153 536.543 499.417 537.49 501.81C538.963 505.537 541.28 508.5 544.44 510.7C549.72 514.38 551.01 515.78 550.9 521.64C550.897 521.854 550.971 522.061 551.109 522.225C551.247 522.388 551.439 522.497 551.65 522.53L560.49 523.89C560.495 523.892 560.501 523.892 560.506 523.891C560.511 523.891 560.517 523.889 560.521 523.886C560.526 523.883 560.53 523.879 560.533 523.875C560.536 523.871 560.539 523.865 560.54 523.86L560.61 523.37C560.615 523.332 560.613 523.294 560.603 523.257C560.592 523.22 560.574 523.186 560.55 523.157C560.525 523.127 560.494 523.104 560.46 523.087C560.426 523.07 560.388 523.061 560.35 523.06C558.49 522.98 556.86 522.627 555.46 522C554.929 521.762 554.468 521.391 554.123 520.923C553.778 520.455 553.56 519.907 553.49 519.33L553.11 516.24C553.097 516.101 553.063 515.963 553.01 515.83C552.403 514.324 551.633 513.29 550.7 512.73C545.46 509.59 542.8 508.29 539.76 503.77C536.83 499.4 536.29 494.44 533.04 490.33C532.841 490.08 532.553 489.918 532.24 489.88L530.47 489.65" stroke="#BBF5E7" stroke-width="2"/>
<path d="M584.97 297.45C574.65 320.74 554.14 325.97 530.47 323.7C524.62 323.13 519.54 320.97 517.36 315.95C512.99 305.94 520.36 298.01 530.27 298.22C537.63 298.374 541.627 298.44 542.26 298.42C547.28 298.25 554.49 297.05 557.7 293.18C563.153 286.634 564.523 279.12 561.81 270.64C554.87 248.9 530.23 243.42 511.05 251.04C503.29 254.12 494.95 260.01 491.59 267.61C490.34 270.45 489.48 274.41 487.49 276.96C483.04 282.63 474.31 283.23 469.08 278.61C464.74 274.77 465.09 269.28 465.45 263.92C465.478 263.455 465.414 262.987 465.259 262.546C465.104 262.105 464.863 261.698 464.55 261.35C454.53 250.31 432.1 243.18 418.35 248.29C408.197 252.064 402.063 259.417 399.95 270.35C396.73 287.02 413.18 296.1 427.26 297.44C435.77 298.25 446.19 298.11 449.23 306.87C451.37 313.04 448.04 319.63 442.21 322.33C440.03 323.344 436.537 323.644 431.73 323.23C426.517 322.79 421.76 322.07 417.46 321.07C400.6 317.14 385.02 306.93 378.17 290.62C376.897 287.58 376.21 285.957 376.11 285.75C375.977 285.472 375.758 285.243 375.484 285.097C375.211 284.951 374.898 284.896 374.59 284.94C365.777 286.22 357.813 289.624 350.7 295.15C339.62 303.76 331.09 316.29 330.12 330.25C329.8 334.83 330.137 338.56 331.13 341.44C334.43 351 340.727 358.26 350.02 363.22C350.195 363.315 350.389 363.37 350.587 363.382C350.786 363.394 350.985 363.362 351.17 363.289C351.355 363.215 351.522 363.102 351.658 362.957C351.795 362.812 351.898 362.639 351.96 362.45C354.853 353.777 359.633 346.164 366.3 339.61C377.92 328.19 395.43 344.67 384.82 355.78C377.5 363.44 373.29 373.84 375.71 384.12C376.357 386.874 377.187 388.857 378.2 390.07C385.93 399.36 395.41 404.21 407.76 404.64C419.69 405.06 432.99 403.03 442.68 396.34C449.92 391.33 461.15 392.64 462.75 403.03C463.49 407.83 461.96 411.73 459.16 415.46C458.831 415.894 458.654 416.425 458.654 416.971C458.654 417.518 458.831 418.051 459.16 418.49C464.87 426.06 474.84 432.67 484.24 434.3C499.92 437.01 514.24 430.46 522.14 416.64C524.593 412.34 526.173 408.844 526.88 406.15C529.86 394.784 527.327 384.85 519.28 376.35C510.01 366.56 497.06 362.51 483.89 361.33C478.1 360.81 473.36 359.24 471.81 353.94C468.82 343.73 473.43 336.35 484.37 336.65C509.64 337.33 532.23 348.53 545.87 370.14C546.97 371.88 548.287 372.917 549.82 373.25C557.933 375.01 566.58 375.667 575.76 375.22C586.707 374.687 595.73 370.977 602.83 364.09C615.26 352.04 618.63 334.68 612.37 318.85C607.81 307.33 597.56 300.17 586.04 296.95C585.831 296.893 585.609 296.911 585.413 297.003C585.217 297.095 585.06 297.253 584.97 297.45Z" stroke="#6BCBBD" stroke-width="2"/>
<path d="M536.52 536.07C536.12 531.71 532.41 529.02 528.46 528.05C513.82 524.463 500.373 518.647 488.12 510.6C484.42 508.173 481.407 506.127 479.08 504.46C473.97 500.8 469.89 499.04 464.29 501.79C457.4 505.18 455.23 513.86 459.48 520.06C460.587 521.687 463.227 524.02 467.4 527.06C475.147 532.713 483.173 537.607 491.48 541.74C498.58 545.273 506.377 548.11 514.87 550.25C526.04 553.06 537.79 549.82 536.52 536.07Z" stroke="#97D4CE" stroke-width="2"/>
<path d="M776.62 460.85C764.987 463.81 754.99 469.577 746.63 478.15C740.47 484.483 735.463 490.46 731.61 496.08C728.917 500 726.977 502.273 725.79 502.9C719.33 506.32 711.87 505.04 707.63 498.82C701.223 489.393 693.803 481.01 685.37 473.67C680.877 469.757 677.027 466.99 673.82 465.37C659.34 458.04 641.24 457.04 626.11 462.95C611.35 468.71 600.313 478.403 593 492.03C586.4 504.31 585.78 520.36 587.27 535.24C590.18 564.45 613 586.97 633.02 606.24C648.18 620.833 664.907 636.937 683.2 654.55C695.293 666.183 704.103 674.853 709.63 680.56C710.71 681.68 712.13 682.94 713.89 684.34C717.19 686.98 721.34 686.51 724.06 683.81C746.813 661.243 770.657 637.92 795.59 613.84C808.85 601.033 817.61 592.29 821.87 587.61C833.55 574.79 843.56 560.3 848.1 543.62C849.253 539.387 849.947 533.587 850.18 526.22C850.82 505.8 846.23 487.83 829.78 473.97C814.68 461.25 795.65 456 776.62 460.85Z" stroke="#6BCBBD" stroke-width="2"/>
<path d="M594.8 264.83L589.25 268.93C589.21 268.956 589.162 268.967 589.114 268.962C589.067 268.956 589.022 268.935 588.988 268.901C588.955 268.868 588.933 268.823 588.928 268.776C588.923 268.728 588.934 268.68 588.96 268.64C590.533 266.413 592.37 264.38 594.47 262.54C594.486 262.526 594.499 262.508 594.508 262.489C594.518 262.47 594.523 262.448 594.524 262.427C594.525 262.406 594.521 262.384 594.514 262.364C594.506 262.344 594.495 262.325 594.48 262.31L594.24 262.07C594.232 262.061 594.223 262.055 594.213 262.05C594.202 262.045 594.191 262.043 594.18 262.043C594.169 262.043 594.157 262.045 594.147 262.05C594.137 262.055 594.127 262.061 594.12 262.07L587.98 268.75C587.974 268.756 587.967 268.761 587.959 268.763C587.95 268.765 587.942 268.764 587.934 268.76C587.926 268.757 587.92 268.751 587.915 268.744C587.911 268.737 587.909 268.728 587.91 268.72C588.07 266.513 588.563 264.453 589.39 262.54C590.73 259.44 595.35 255.99 596.85 252.54C599.69 246.03 603.18 239.61 609.49 236.9C611.8 235.91 613.17 233.77 615.93 233.5C615.971 233.498 616.011 233.483 616.043 233.458C616.076 233.433 616.099 233.398 616.112 233.359C616.124 233.319 616.123 233.277 616.11 233.238C616.098 233.199 616.073 233.165 616.04 233.14L604.74 223.29C597.82 217.71 590.583 212.563 583.03 207.85C553.71 190.31 521.57 180.02 487.74 177.34C426.74 172.52 365.16 192.12 317.27 230.29C296.88 246.54 279.6 266.33 266.85 288.36C251.66 314.62 244.01 343.84 241.69 374.56C241.303 379.74 241.067 386.037 240.98 393.45C240.83 406.79 239.57 417.41 236.28 428.01C232.913 438.843 228.313 450.167 222.48 461.98C213.207 479.907 203.913 497.83 194.6 515.75C191.413 521.883 189.18 526.267 187.9 528.9C184.65 535.6 183.15 543.48 190.12 548.51C191.087 549.203 192.231 549.608 193.42 549.68C202.367 550.213 210.45 550.707 217.67 551.16C226.09 551.68 237.8 554.99 237.49 565.76C237.03 581.31 236.74 596.28 238.08 611.59C238.092 611.698 238.141 611.799 238.218 611.872C238.296 611.946 238.396 611.988 238.5 611.99C244.453 612.23 250.157 612.16 255.61 611.78C262.24 611.32 266.74 612.51 270.01 618.23C272.53 624.57 269.67 630.91 263.75 633.93C262.317 634.657 260.183 635.03 257.35 635.05C255.337 635.063 249.863 635.407 240.93 636.08C240.876 636.084 240.824 636.098 240.776 636.122C240.729 636.147 240.686 636.18 240.652 636.221C240.617 636.263 240.591 636.31 240.575 636.361C240.56 636.413 240.554 636.467 240.56 636.52C241.46 645.787 242.667 655.507 244.18 665.68C244.867 670.24 245.47 673.423 245.99 675.23C248.843 685.11 253.987 692.88 261.42 698.54C267.6 703.24 277.83 708.67 286.38 708.9C294.207 709.113 305.25 709.053 319.51 708.72C324.83 708.6 329.52 708.01 334.21 707.94C337.33 707.893 341.007 707.647 345.24 707.2C381.98 703.34 417.59 690.87 446.46 667.91C449.627 665.39 451.77 663.983 452.89 663.69C462.96 661.06 472.54 673.65 467.45 682.65C467.27 682.969 467.059 683.267 466.82 683.54C466.3 684.133 464.193 685.87 460.5 688.75C445.59 700.38 429.58 709.62 411.53 716.52C400.463 720.753 389.587 724.253 378.9 727.02C378.675 727.077 378.481 727.218 378.356 727.415C378.232 727.612 378.187 727.85 378.23 728.08C380.91 742.473 382.48 757.107 382.94 771.98C383.387 786.413 381.603 800.027 377.59 812.82C376.077 817.627 374.063 823.17 371.55 829.45C371.527 829.504 371.518 829.563 371.524 829.622C371.53 829.681 371.551 829.737 371.585 829.787C371.618 829.836 371.664 829.877 371.717 829.905C371.77 829.934 371.829 829.949 371.89 829.95H619.16C619.28 829.949 619.398 829.919 619.503 829.863C619.608 829.806 619.698 829.724 619.763 829.625C619.829 829.526 619.868 829.412 619.878 829.294C619.888 829.176 619.868 829.058 619.82 828.95C600.99 786.56 588.69 742.09 587.08 694.9C586.927 682.827 587.28 670.717 588.14 658.57C588.59 652.16 592.43 647.55 598.82 646.93C600.333 646.783 601.76 646.673 603.1 646.6C604.693 648.113 605.933 649.553 606.82 650.92C609.987 655.773 611.567 661.133 611.56 667C611.553 671.9 611.553 680.286 611.56 692.16C611.6 742.45 628.4 790.24 648.61 835.17C650.47 839.29 649.43 844.93 646.7 848.52C644.053 852.013 640.07 853.767 634.75 853.78C532.27 854.13 443.22 854.85 354.03 854.18C349.73 854.147 346.2 852.707 343.44 849.86C339.69 845.99 340 842.04 342.36 837.14C343.787 834.18 346.003 828.987 349.01 821.56C353.67 810.053 356.713 798.917 358.14 788.15C358.447 785.863 358.58 780.777 358.54 772.89C358.52 768.19 358.217 763.107 357.63 757.64C356.583 747.907 355.487 739.653 354.34 732.88C354.271 732.455 354.039 732.073 353.694 731.816C353.349 731.558 352.917 731.445 352.49 731.5C342.83 732.71 333.71 733.55 322.83 733.61C302.823 733.723 289.727 733.663 283.54 733.43C280.467 733.31 276.353 732.443 271.2 730.83C255 725.763 242.017 716.663 232.25 703.53C227.597 697.277 224.447 691.013 222.8 684.74C220.9 677.49 219.03 667.88 217.87 659.32C214.023 630.973 212.18 602.84 212.34 574.92C212.341 574.754 212.309 574.589 212.246 574.435C212.183 574.281 212.09 574.141 211.972 574.022C211.853 573.904 211.713 573.811 211.558 573.747C211.404 573.683 211.238 573.65 211.07 573.65C202.7 573.67 191.94 574.3 182.61 571.13C171.357 567.31 164.31 559.35 161.47 547.25C158.42 534.22 162.38 524.66 168.79 512.04C179.403 491.173 189.957 470.443 200.45 449.85C206.94 437.1 211.93 424.56 214.3 411.51C215.087 407.183 215.68 400.927 216.08 392.74C216.467 384.893 216.94 376.73 217.5 368.25C217.973 361.057 219.083 352.67 220.83 343.09C222.517 333.863 224.473 325.627 226.7 318.38C251.05 239.08 320.05 183.72 397.96 161.44C444.713 148.08 491.367 147.977 537.92 161.13C571.907 170.737 602.057 187.307 628.37 210.84C670.36 248.39 695.96 300.11 703.04 355.74C704.36 366.12 705.153 375.873 705.42 385C705.6 390.8 703.23 396.61 697.79 399.18C692.63 401.62 687.46 399.21 684.39 394.58C682.32 391.46 681.36 387.54 681.12 383.66C680.707 376.813 680.337 371.35 680.01 367.27C679.01 355.003 676.743 342.253 673.21 329.02C663.96 294.36 646.22 262.66 620.8 237.43C619.64 236.277 618.563 235.95 617.57 236.45C613.13 238.67 609.207 241.96 605.8 246.32C601.95 251.25 599.91 258.98 594.8 264.83Z" fill="#42AAA2"/>
<path d="M583.031 207.85C582.651 210.49 582.46 213.47 581.75 215.82C579.624 222.82 578.237 229.963 577.591 237.25C577.391 239.57 576.65 242.25 576.1 244.63C568.38 235.603 559.191 229.333 548.531 225.82C525.371 218.17 499.98 224.22 480.91 239.64C480.7 239.813 480.437 239.91 480.164 239.913C479.891 239.917 479.626 239.828 479.41 239.66C459.85 224.37 431.16 215.9 407.2 225.71C394.34 230.977 384.857 240.377 378.75 253.91C378.05 255.45 377.72 257.04 376.9 258.52C376.828 258.646 376.73 258.755 376.613 258.841C376.496 258.928 376.362 258.988 376.22 259.02C373.15 259.68 370.02 259.88 367.01 260.5C350.3 263.97 334.67 272.91 323.41 286.17C312.78 298.69 305.39 313.49 304.59 329.83C304.06 340.57 306.33 349.67 311.44 359.18C318.98 373.23 334.25 383.6 349.23 388.92C349.583 389.044 349.902 389.25 350.161 389.521C350.42 389.792 350.612 390.121 350.72 390.48C354.77 403.82 364.59 414.39 376.46 421.29C374.807 425.983 372.937 430.52 370.85 434.9C367.72 441.49 363.97 447.46 357.24 450.42C355.31 445.25 349.57 441.54 343.92 441.9C342.48 441.993 340.64 442.667 338.4 443.92C331.94 447.547 325.96 449.887 320.46 450.94C308.347 453.26 298.444 449.617 290.75 440.01C289.56 438.53 287.56 435.34 285.75 434.25C283.33 432.797 280.41 432.373 276.99 432.98C267.8 434.61 265.39 443.46 267.7 451.71C266.56 455.25 265.544 457.637 264.65 458.87C261.157 463.697 256.324 465.833 250.15 465.28C240.28 464.39 231.72 463.03 222.48 461.98C228.314 450.167 232.914 438.843 236.28 428.01C239.57 417.41 240.83 406.79 240.98 393.45C241.067 386.037 241.304 379.74 241.69 374.56C244.01 343.84 251.66 314.62 266.85 288.36C279.6 266.33 296.88 246.54 317.27 230.29C365.16 192.12 426.74 172.52 487.74 177.34C521.57 180.02 553.711 190.31 583.031 207.85Z" fill="#FAFFFE"/>
<path d="M604.74 223.29C603.47 227.41 601.69 229.17 598.3 232.21C592.78 237.18 589.97 243.85 586.42 250.8C585.64 252.313 584.986 253.967 584.46 255.76C584.426 255.886 584.352 255.997 584.249 256.076C584.146 256.155 584.02 256.198 583.89 256.198C583.76 256.198 583.633 256.155 583.53 256.076C583.427 255.997 583.353 255.886 583.32 255.76C582.466 252.853 580.94 250.383 578.74 248.35L576.1 244.63C576.65 242.25 577.39 239.57 577.59 237.25C578.236 229.963 579.623 222.82 581.75 215.82C582.46 213.47 582.65 210.49 583.03 207.85C590.583 212.563 597.82 217.71 604.74 223.29Z" fill="#E2FEF7"/>
<path d="M576.1 244.63L578.74 248.35C581.453 252.757 583.71 257.347 585.51 262.12C585.51 262.123 585.511 262.125 585.513 262.127C585.515 262.129 585.517 262.13 585.52 262.13L587.21 269.22C587.233 269.312 587.277 269.398 587.337 269.471C587.398 269.545 587.474 269.604 587.559 269.645C587.645 269.686 587.739 269.708 587.834 269.709C587.929 269.71 588.023 269.69 588.11 269.65C588.403 269.51 588.75 269.47 589.15 269.53L594.4 267.39C594.436 267.376 594.476 267.374 594.513 267.385C594.549 267.396 594.58 267.419 594.6 267.45C594.614 267.471 594.618 267.497 594.613 267.523C594.607 267.549 594.592 267.573 594.57 267.59C593.137 268.637 591.98 269.527 591.1 270.26C591.026 270.32 590.97 270.41 590.93 270.53C590.921 270.552 590.921 270.576 590.929 270.599C590.937 270.621 590.952 270.64 590.973 270.652C590.993 270.664 591.017 270.668 591.04 270.664C591.064 270.66 591.085 270.648 591.1 270.63L591.32 270.41C591.359 270.368 591.411 270.341 591.467 270.333C591.524 270.325 591.582 270.336 591.631 270.365C591.68 270.395 591.717 270.44 591.737 270.493C591.757 270.547 591.758 270.606 591.74 270.66C591.707 270.753 591.68 270.833 591.66 270.9C591.631 270.996 591.635 271.099 591.673 271.192C591.71 271.285 591.778 271.363 591.866 271.412C591.953 271.461 592.055 271.478 592.154 271.462C592.253 271.445 592.343 271.395 592.41 271.32L592.71 271C592.835 270.866 592.989 270.762 593.16 270.697C593.332 270.631 593.516 270.605 593.7 270.62C594.373 270.687 595.063 270.577 595.77 270.29C595.343 271.277 595.266 272.28 595.54 273.3C595.576 273.444 595.649 273.577 595.75 273.687C595.851 273.797 595.978 273.88 596.12 273.93C602.413 276.15 609.253 279.873 616.64 285.1C624.253 290.48 629.747 296.307 633.12 302.58C644.74 324.21 643.22 355.38 627.03 374.58C612.497 391.833 593.566 400.327 570.24 400.06C566.5 400.013 561.533 399.79 555.34 399.39C554.844 399.358 554.354 399.517 553.969 399.835C553.585 400.152 553.335 400.604 553.27 401.1C550.663 420.98 541.967 437.013 527.18 449.2C526.929 449.408 526.752 449.691 526.677 450.007C526.601 450.322 526.63 450.654 526.76 450.95C529.187 456.47 532.24 461.363 535.92 465.63C537.84 467.85 540.86 469.65 542.53 471.77C545.65 475.74 543.78 482.1 540.27 485.15C538.403 485.73 536.82 486.84 535.52 488.48C535.324 488.728 535.06 488.916 534.76 489.02C533.373 489.493 531.943 489.703 530.47 489.65L526.75 488.97C515.25 484.58 507.14 471.39 502.8 460.45C502.71 460.229 502.553 460.042 502.351 459.914C502.148 459.787 501.91 459.726 501.67 459.74C492.92 460.27 485.34 460.62 477.05 458.51C459.66 454.1 443.4 443.81 434.19 428.37C434.065 428.161 433.876 427.996 433.65 427.901C433.423 427.806 433.171 427.785 432.93 427.84C413.87 432.24 393.87 430.61 376.46 421.29C364.59 414.39 354.77 403.82 350.72 390.48C350.611 390.121 350.419 389.792 350.161 389.521C349.902 389.25 349.583 389.044 349.23 388.92C334.25 383.6 318.98 373.23 311.44 359.18C306.33 349.67 304.06 340.57 304.59 329.83C305.39 313.49 312.78 298.69 323.41 286.17C334.67 272.91 350.3 263.97 367.01 260.5C370.02 259.88 373.15 259.68 376.22 259.02C376.362 258.988 376.495 258.927 376.612 258.841C376.729 258.755 376.827 258.646 376.9 258.52C377.72 257.04 378.05 255.45 378.75 253.91C384.857 240.377 394.34 230.977 407.2 225.71C431.16 215.9 459.85 224.37 479.41 239.66C479.625 239.828 479.891 239.917 480.163 239.913C480.436 239.91 480.699 239.813 480.91 239.64C499.98 224.22 525.37 218.17 548.53 225.82C559.19 229.333 568.38 235.603 576.1 244.63ZM584.97 297.45C574.65 320.74 554.14 325.97 530.47 323.7C524.62 323.13 519.54 320.97 517.36 315.95C512.99 305.94 520.36 298.01 530.27 298.22C537.63 298.373 541.627 298.44 542.26 298.42C547.28 298.25 554.49 297.05 557.7 293.18C563.153 286.633 564.523 279.12 561.81 270.64C554.87 248.9 530.23 243.42 511.05 251.04C503.29 254.12 494.95 260.01 491.59 267.61C490.34 270.45 489.48 274.41 487.49 276.96C483.04 282.63 474.31 283.23 469.08 278.61C464.74 274.77 465.09 269.28 465.45 263.92C465.478 263.454 465.413 262.987 465.259 262.546C465.104 262.105 464.863 261.698 464.55 261.35C454.53 250.31 432.1 243.18 418.35 248.29C408.197 252.063 402.063 259.417 399.95 270.35C396.73 287.02 413.18 296.1 427.26 297.44C435.77 298.25 446.19 298.11 449.23 306.87C451.37 313.04 448.04 319.63 442.21 322.33C440.03 323.343 436.537 323.643 431.73 323.23C426.517 322.79 421.76 322.07 417.46 321.07C400.6 317.14 385.02 306.93 378.17 290.62C376.897 287.58 376.21 285.957 376.11 285.75C375.977 285.471 375.758 285.242 375.484 285.097C375.211 284.951 374.898 284.896 374.59 284.94C365.777 286.22 357.813 289.623 350.7 295.15C339.62 303.76 331.09 316.29 330.12 330.25C329.8 334.83 330.137 338.56 331.13 341.44C334.43 351 340.727 358.26 350.02 363.22C350.195 363.315 350.389 363.37 350.587 363.382C350.786 363.394 350.985 363.362 351.17 363.289C351.355 363.215 351.522 363.102 351.658 362.957C351.795 362.812 351.898 362.639 351.96 362.45C354.853 353.777 359.633 346.163 366.3 339.61C377.92 328.19 395.43 344.67 384.82 355.78C377.5 363.44 373.29 373.84 375.71 384.12C376.357 386.873 377.187 388.857 378.2 390.07C385.93 399.36 395.41 404.21 407.76 404.64C419.69 405.06 432.99 403.03 442.68 396.34C449.92 391.33 461.15 392.64 462.75 403.03C463.49 407.83 461.96 411.73 459.16 415.46C458.831 415.894 458.654 416.424 458.654 416.971C458.654 417.517 458.831 418.051 459.16 418.49C464.87 426.06 474.84 432.67 484.24 434.3C499.92 437.01 514.24 430.46 522.14 416.64C524.593 412.34 526.173 408.843 526.88 406.15C529.86 394.783 527.327 384.85 519.28 376.35C510.01 366.56 497.06 362.51 483.89 361.33C478.1 360.81 473.36 359.24 471.81 353.94C468.82 343.73 473.43 336.35 484.37 336.65C509.64 337.33 532.23 348.53 545.87 370.14C546.97 371.88 548.287 372.917 549.82 373.25C557.933 375.01 566.58 375.667 575.76 375.22C586.707 374.687 595.73 370.977 602.83 364.09C615.26 352.04 618.63 334.68 612.37 318.85C607.81 307.33 597.56 300.17 586.04 296.95C585.831 296.892 585.609 296.911 585.413 297.003C585.217 297.094 585.06 297.253 584.97 297.45Z" fill="#42AAA2"/>
<path d="M594.8 264.83L589.15 269.53C588.75 269.47 588.404 269.51 588.11 269.65C588.024 269.69 587.93 269.71 587.834 269.709C587.739 269.708 587.646 269.686 587.56 269.645C587.474 269.604 587.398 269.545 587.338 269.472C587.277 269.398 587.234 269.312 587.21 269.22L585.52 262.13C585.518 262.13 585.515 262.129 585.513 262.127C585.511 262.125 585.51 262.123 585.51 262.12C583.71 257.347 581.454 252.757 578.74 248.35C580.94 250.383 582.467 252.853 583.32 255.76C583.354 255.886 583.428 255.997 583.531 256.076C583.634 256.155 583.76 256.198 583.89 256.198C584.02 256.198 584.147 256.155 584.25 256.076C584.353 255.997 584.427 255.886 584.46 255.76C584.987 253.967 585.64 252.313 586.42 250.8C589.97 243.85 592.78 237.18 598.3 232.21C601.69 229.17 603.47 227.41 604.74 223.29L616.04 233.14C616.073 233.165 616.098 233.199 616.111 233.238C616.123 233.277 616.124 233.319 616.112 233.359C616.1 233.398 616.076 233.433 616.043 233.458C616.011 233.483 615.971 233.498 615.93 233.5C613.17 233.77 611.8 235.91 609.49 236.9C603.18 239.61 599.69 246.03 596.85 252.54C595.35 255.99 590.73 259.44 589.39 262.54C588.564 264.453 588.07 266.513 587.91 268.72C587.909 268.728 587.911 268.737 587.916 268.744C587.92 268.751 587.927 268.757 587.934 268.761C587.942 268.764 587.951 268.765 587.959 268.763C587.967 268.761 587.975 268.756 587.98 268.75L594.12 262.07C594.128 262.062 594.137 262.055 594.147 262.05C594.158 262.045 594.169 262.043 594.18 262.043C594.192 262.043 594.203 262.045 594.213 262.05C594.223 262.055 594.233 262.062 594.24 262.07L594.48 262.31C594.495 262.326 594.507 262.344 594.514 262.364C594.522 262.384 594.525 262.406 594.524 262.427C594.523 262.449 594.518 262.47 594.509 262.489C594.499 262.508 594.486 262.526 594.47 262.54C592.37 264.38 590.534 266.413 588.96 268.64C588.935 268.68 588.923 268.728 588.929 268.776C588.934 268.823 588.955 268.868 588.989 268.902C589.023 268.935 589.067 268.957 589.115 268.962C589.162 268.967 589.21 268.956 589.25 268.93L594.8 264.83Z" fill="#94ECD7"/>
<path d="M617.476 237.56L617.353 237.493C617.222 237.421 617.058 237.469 616.987 237.6L611.156 248.294C611.085 248.425 611.133 248.589 611.264 248.66L611.387 248.727C611.518 248.799 611.682 248.751 611.754 248.62L617.584 237.926C617.655 237.795 617.607 237.631 617.476 237.56Z" fill="#42AAA2"/>
<path d="M584.97 297.45C585.06 297.253 585.217 297.094 585.413 297.003C585.609 296.911 585.831 296.892 586.04 296.95C597.56 300.17 607.81 307.33 612.37 318.85C618.63 334.68 615.26 352.04 602.83 364.09C595.73 370.977 586.707 374.687 575.76 375.22C566.58 375.667 557.933 375.01 549.82 373.25C548.287 372.917 546.97 371.88 545.87 370.14C532.23 348.53 509.64 337.33 484.37 336.65C473.43 336.35 468.82 343.73 471.81 353.94C473.36 359.24 478.1 360.81 483.89 361.33C497.06 362.51 510.01 366.56 519.28 376.35C527.327 384.85 529.86 394.783 526.88 406.15C526.173 408.843 524.593 412.34 522.14 416.64C514.24 430.46 499.92 437.01 484.24 434.3C474.84 432.67 464.87 426.06 459.16 418.49C458.831 418.051 458.654 417.517 458.654 416.971C458.654 416.424 458.831 415.894 459.16 415.46C461.96 411.73 463.49 407.83 462.75 403.03C461.15 392.64 449.92 391.33 442.68 396.34C432.99 403.03 419.69 405.06 407.76 404.64C395.41 404.21 385.93 399.36 378.2 390.07C377.187 388.857 376.357 386.873 375.71 384.12C373.29 373.84 377.5 363.44 384.82 355.78C395.43 344.67 377.92 328.19 366.3 339.61C359.633 346.163 354.853 353.777 351.96 362.45C351.898 362.639 351.795 362.812 351.658 362.957C351.522 363.102 351.355 363.215 351.17 363.289C350.985 363.362 350.786 363.394 350.587 363.382C350.389 363.37 350.195 363.315 350.02 363.22C340.727 358.26 334.43 351 331.13 341.44C330.137 338.56 329.8 334.83 330.12 330.25C331.09 316.29 339.62 303.76 350.7 295.15C357.813 289.623 365.777 286.22 374.59 284.94C374.898 284.896 375.211 284.951 375.484 285.097C375.758 285.242 375.977 285.471 376.11 285.75C376.21 285.957 376.897 287.58 378.17 290.62C385.02 306.93 400.6 317.14 417.46 321.07C421.76 322.07 426.517 322.79 431.73 323.23C436.537 323.643 440.03 323.343 442.21 322.33C448.04 319.63 451.37 313.04 449.23 306.87C446.19 298.11 435.77 298.25 427.26 297.44C413.18 296.1 396.73 287.02 399.95 270.35C402.063 259.417 408.197 252.063 418.35 248.29C432.1 243.18 454.53 250.31 464.55 261.35C464.863 261.698 465.104 262.105 465.259 262.546C465.414 262.987 465.478 263.454 465.45 263.92C465.09 269.28 464.74 274.77 469.08 278.61C474.31 283.23 483.04 282.63 487.49 276.96C489.48 274.41 490.34 270.45 491.59 267.61C494.95 260.01 503.29 254.12 511.05 251.04C530.23 243.42 554.87 248.9 561.81 270.64C564.523 279.12 563.153 286.633 557.7 293.18C554.49 297.05 547.28 298.25 542.26 298.42C541.627 298.44 537.63 298.373 530.27 298.22C520.36 298.01 512.99 305.94 517.36 315.95C519.54 320.97 524.62 323.13 530.47 323.7C554.14 325.97 574.65 320.74 584.97 297.45Z" fill="#94ECD7"/>
<path d="M598 269L595.77 270.29C596.416 269.73 597.16 269.3 598 269Z" fill="#42AAA2"/>
<path d="M526.75 488.97C527.02 493.92 526.2 499.63 526.4 503.64C526.62 507.97 527.04 513.23 529.13 516.43C530.363 518.33 532.63 521.043 535.93 524.57C539.69 528.6 544.54 529.19 550.19 529.71C553.87 530.057 557.58 529.953 561.32 529.4C561.613 532.313 561.93 535.247 562.27 538.2C563.404 548.02 565.85 557.27 569.61 565.95C573.557 575.07 578.433 583.613 584.24 591.58C590.7 600.44 600.57 610.02 609.17 618.74C608.957 627.56 608.42 635.313 607.56 642C607.427 643.02 606.977 644.083 606.21 645.19C606.1 645.347 605.958 645.477 605.792 645.572C605.626 645.667 605.441 645.725 605.25 645.74C604.497 645.807 603.78 646.093 603.1 646.6C601.76 646.673 600.333 646.783 598.82 646.93C592.43 647.55 588.59 652.16 588.14 658.57C587.28 670.717 586.927 682.827 587.08 694.9C574.34 695.31 565.33 694.57 555.28 686.31C549.04 681.19 543.81 677.38 536.97 676.13C533.35 675.47 529.13 674.807 524.31 674.14C509.91 672.14 498.07 667.95 483.62 662.26C477.91 660.02 471.31 658.03 465.94 657.39C459.327 656.61 455.323 656.09 453.93 655.83C444.56 654.12 435.69 649.78 427 645.26C417.69 640.4 407.43 638.06 397.72 634.75C387.82 631.377 381.897 629.453 379.95 628.98C369.31 626.373 358.263 625.07 346.81 625.07C332.93 625.063 321.107 624.963 311.34 624.77C297.187 624.497 283.41 622.317 270.01 618.23C266.74 612.51 262.24 611.32 255.61 611.78C250.157 612.16 244.453 612.23 238.5 611.99C238.396 611.988 238.296 611.946 238.219 611.872C238.141 611.799 238.092 611.699 238.08 611.59C236.74 596.28 237.03 581.31 237.49 565.76C237.8 554.99 226.09 551.68 217.67 551.16C210.45 550.707 202.367 550.213 193.42 549.68C192.231 549.608 191.087 549.203 190.12 548.51C183.15 543.48 184.65 535.6 187.9 528.9C189.18 526.267 191.413 521.883 194.6 515.75C203.913 497.83 213.207 479.907 222.48 461.98C231.72 463.03 240.28 464.39 250.15 465.28C256.323 465.833 261.157 463.697 264.65 458.87C265.543 457.637 266.56 455.25 267.7 451.71C273.034 460.123 279.873 466.55 288.22 470.99C307.3 481.14 330.22 478.85 348.35 467.1C353.76 463.6 358.25 457.49 357.24 450.42C363.97 447.46 367.72 441.49 370.85 434.9C372.937 430.52 374.807 425.983 376.46 421.29C393.87 430.61 413.87 432.24 432.93 427.84C433.172 427.785 433.424 427.806 433.65 427.901C433.876 427.996 434.066 428.161 434.19 428.37C443.4 443.81 459.66 454.1 477.05 458.51C485.34 460.62 492.92 460.27 501.67 459.74C501.91 459.726 502.148 459.787 502.351 459.914C502.554 460.042 502.711 460.229 502.8 460.45C507.14 471.39 515.25 484.58 526.75 488.97ZM536.52 536.07C536.12 531.71 532.41 529.02 528.46 528.05C513.82 524.463 500.373 518.647 488.12 510.6C484.42 508.173 481.407 506.127 479.08 504.46C473.97 500.8 469.89 499.04 464.29 501.79C457.4 505.18 455.23 513.86 459.48 520.06C460.587 521.687 463.227 524.02 467.4 527.06C475.147 532.713 483.173 537.607 491.48 541.74C498.58 545.273 506.377 548.11 514.87 550.25C526.04 553.06 537.79 549.82 536.52 536.07Z" fill="#ECFEFA"/>
<path d="M357.24 450.42C358.25 457.49 353.76 463.6 348.35 467.1C330.22 478.85 307.3 481.14 288.22 470.99C279.873 466.55 273.033 460.123 267.7 451.71C265.39 443.46 267.8 434.61 276.99 432.98C280.41 432.373 283.33 432.797 285.75 434.25C287.56 435.34 289.56 438.53 290.75 440.01C298.443 449.617 308.346 453.26 320.46 450.94C325.96 449.887 331.94 447.547 338.4 443.92C340.64 442.667 342.48 441.993 343.92 441.9C349.57 441.54 355.31 445.25 357.24 450.42Z" fill="#42AAA2"/>
<path d="M609.17 618.74C600.57 610.02 590.7 600.44 584.24 591.58C578.434 583.613 573.557 575.07 569.61 565.95C565.85 557.27 563.404 548.02 562.27 538.2C561.93 535.247 561.614 532.313 561.32 529.4L561 524.93L561.96 511.28C561.98 511.021 561.963 510.762 561.91 510.51C561.717 509.617 561.61 508.703 561.59 507.77C561.59 507.657 561.514 507.523 561.36 507.37C561.227 507.23 561.147 507.077 561.12 506.91C561.414 507.383 561.55 507.737 561.53 507.97C561.524 508.034 561.501 508.096 561.463 508.148C561.425 508.2 561.374 508.241 561.314 508.267C561.255 508.293 561.19 508.302 561.126 508.293C561.062 508.285 561.001 508.26 560.95 508.22C559.704 507.267 558.687 506.647 557.9 506.36C553.71 504.82 548.73 502.66 547.28 499.13C545.19 494.04 544.78 492.5 541.83 489.08C541.794 489.04 541.775 488.987 541.777 488.933C541.779 488.879 541.802 488.828 541.84 488.79L541.85 488.78C541.891 488.742 541.945 488.721 542 488.721C542.056 488.721 542.11 488.742 542.15 488.78C544.224 490.807 545.657 492.673 546.45 494.38C548.29 498.313 550.02 501.163 551.64 502.93C551.642 502.932 551.644 502.934 551.647 502.935C551.65 502.936 551.652 502.937 551.655 502.937C551.658 502.937 551.661 502.936 551.663 502.935C551.666 502.934 551.668 502.932 551.67 502.93L551.92 502.69C551.962 502.648 551.987 502.592 551.991 502.531C551.994 502.471 551.976 502.41 551.94 502.36C550.407 500.18 549.494 498.72 549.2 497.98C547.6 493.96 545.204 490.747 542.01 488.34C541.781 488.163 541.509 488.05 541.22 488.01L539.01 487.67C539.001 487.668 538.994 487.663 538.988 487.655C538.983 487.648 538.98 487.639 538.98 487.63L538.96 487.32C538.958 487.283 538.965 487.245 538.979 487.211C538.993 487.176 539.014 487.145 539.041 487.12C539.068 487.095 539.099 487.077 539.134 487.067C539.168 487.056 539.205 487.054 539.24 487.06L540.9 487.32C540.946 487.327 540.992 487.318 541.031 487.294C541.07 487.269 541.099 487.232 541.112 487.188C541.126 487.144 541.123 487.097 541.104 487.055C541.085 487.013 541.052 486.979 541.01 486.96C540.77 486.847 540.647 486.79 540.64 486.79C540.575 486.724 540.537 486.636 540.532 486.544C540.527 486.451 540.557 486.36 540.614 486.287C540.672 486.215 540.754 486.166 540.846 486.15C540.937 486.134 541.031 486.152 541.11 486.2C542.984 487.413 544.987 489.033 547.12 491.06C550.33 494.1 551.19 498.71 554.44 502.2C554.472 502.234 554.517 502.254 554.563 502.256C554.61 502.258 554.655 502.241 554.69 502.21H554.7C554.737 502.173 554.757 502.122 554.757 502.07C554.757 502.018 554.737 501.967 554.7 501.93C553.027 500.23 552.084 499.03 551.87 498.33C550.537 493.95 547.887 490.393 543.92 487.66C543.865 487.622 543.822 487.568 543.798 487.505C543.775 487.442 543.771 487.373 543.787 487.308C543.803 487.243 543.839 487.184 543.89 487.14C543.94 487.095 544.003 487.068 544.07 487.06C544.33 487.027 544.627 487.197 544.96 487.57C545.104 487.727 545.288 487.838 545.49 487.89L548.48 488.6L552.75 490.39C553.163 490.563 553.534 490.821 553.841 491.146C554.147 491.472 554.382 491.858 554.53 492.28L558.14 502.44C558.231 502.69 558.376 502.918 558.564 503.106C558.752 503.295 558.98 503.439 559.23 503.53C560.024 503.823 560.54 504.15 560.78 504.51C560.808 504.556 560.821 504.609 560.818 504.663C560.816 504.716 560.797 504.768 560.765 504.811C560.732 504.854 560.688 504.886 560.638 504.904C560.587 504.922 560.532 504.924 560.48 504.91C559.207 504.523 558.554 504.313 558.52 504.28C557.12 502.907 556.96 502.89 558.04 504.23C558.114 504.317 558.164 504.483 558.19 504.73C558.197 504.81 558.35 504.873 558.65 504.92C560.004 505.14 560.904 505.497 561.35 505.99C561.381 506.022 561.419 506.045 561.462 506.057C561.505 506.068 561.55 506.068 561.592 506.055C561.634 506.043 561.672 506.019 561.702 505.986C561.732 505.954 561.752 505.914 561.76 505.87C561.76 505.857 561.697 505.767 561.57 505.6C561.549 505.573 561.536 505.539 561.535 505.504C561.535 505.469 561.545 505.435 561.566 505.407C561.586 505.379 561.615 505.358 561.648 505.348C561.682 505.337 561.717 505.338 561.75 505.35C561.804 505.37 561.867 505.45 561.94 505.59C562.054 505.817 562.057 505.993 561.95 506.12C561.927 506.146 561.909 506.177 561.898 506.21C561.888 506.244 561.884 506.279 561.888 506.314C561.891 506.349 561.903 506.383 561.92 506.413C561.938 506.443 561.962 506.47 561.99 506.49C562.157 506.61 562.357 506.647 562.59 506.6C562.697 506.58 562.77 506.47 562.81 506.27C563.824 500.743 565.377 494.973 567.47 488.96C579.88 453.35 619.37 429.84 656.76 434.97C680.96 438.29 702.6 451.79 717.37 471.03C717.462 471.15 717.581 471.248 717.716 471.315C717.852 471.382 718.002 471.418 718.154 471.419C718.306 471.42 718.457 471.386 718.595 471.321C718.733 471.255 718.854 471.159 718.95 471.04C722.69 466.34 727.22 461.583 732.54 456.77C755.5 436.01 787.66 428.64 817.21 438.73C841.34 446.97 861.85 465.85 869.97 490.35C873.71 501.617 875.564 513.613 875.53 526.34C875.46 560.14 858.45 587.65 834.75 611.26C811.764 634.147 780.917 664.13 742.21 701.21C740.364 702.977 736.98 706.093 732.06 710.56C729.24 713.113 726.12 714.813 722.7 715.66C712.66 718.15 705.5 709.85 698.67 703.55C670.157 677.243 642.044 650.517 614.33 623.37C613.644 622.697 612.784 621.93 611.75 621.07C610.724 620.21 609.864 619.433 609.17 618.74ZM776.62 460.85C764.987 463.81 754.99 469.577 746.63 478.15C740.47 484.483 735.464 490.46 731.61 496.08C728.917 500 726.977 502.273 725.79 502.9C719.33 506.32 711.87 505.04 707.63 498.82C701.224 489.393 693.804 481.01 685.37 473.67C680.877 469.757 677.027 466.99 673.82 465.37C659.34 458.04 641.24 457.04 626.11 462.95C611.35 468.71 600.314 478.403 593 492.03C586.4 504.31 585.78 520.36 587.27 535.24C590.18 564.45 613 586.97 633.02 606.24C648.18 620.833 664.907 636.937 683.2 654.55C695.294 666.183 704.104 674.853 709.63 680.56C710.71 681.68 712.13 682.94 713.89 684.34C717.19 686.98 721.34 686.51 724.06 683.81C746.814 661.243 770.657 637.92 795.59 613.84C808.85 601.033 817.61 592.29 821.87 587.61C833.55 574.79 843.56 560.3 848.1 543.62C849.254 539.387 849.947 533.587 850.18 526.22C850.82 505.8 846.23 487.83 829.78 473.97C814.68 461.25 795.65 456 776.62 460.85Z" fill="#42AAA2"/>
<path d="M776.62 460.85C795.65 456 814.68 461.25 829.78 473.97C846.23 487.83 850.82 505.8 850.18 526.22C849.947 533.587 849.253 539.387 848.1 543.62C843.56 560.3 833.55 574.79 821.87 587.61C817.61 592.29 808.85 601.033 795.59 613.84C770.657 637.92 746.813 661.243 724.06 683.81C721.34 686.51 717.19 686.98 713.89 684.34C712.13 682.94 710.71 681.68 709.63 680.56C704.103 674.853 695.293 666.183 683.2 654.55C664.907 636.937 648.18 620.833 633.02 606.24C613 586.97 590.18 564.45 587.27 535.24C585.78 520.36 586.4 504.31 593 492.03C600.313 478.403 611.35 468.71 626.11 462.95C641.24 457.04 659.34 458.04 673.82 465.37C677.027 466.99 680.877 469.757 685.37 473.67C693.803 481.01 701.223 489.393 707.63 498.82C711.87 505.04 719.33 506.32 725.79 502.9C726.977 502.273 728.917 500 731.61 496.08C735.463 490.46 740.47 484.483 746.63 478.15C754.99 469.577 764.987 463.81 776.62 460.85Z" fill="#94ECD7"/>
<path d="M540.27 485.15L548.48 488.6L545.49 487.89C545.288 487.838 545.104 487.727 544.96 487.57C544.626 487.197 544.33 487.027 544.07 487.06C544.003 487.067 543.94 487.095 543.889 487.139C543.839 487.184 543.803 487.243 543.786 487.308C543.77 487.373 543.774 487.442 543.798 487.505C543.822 487.568 543.864 487.622 543.92 487.66C547.886 490.393 550.536 493.95 551.87 498.33C552.083 499.03 553.026 500.23 554.7 501.93C554.736 501.967 554.757 502.018 554.757 502.07C554.757 502.122 554.736 502.173 554.7 502.21H554.69C554.655 502.241 554.609 502.257 554.563 502.255C554.516 502.254 554.472 502.234 554.44 502.2C551.19 498.71 550.33 494.1 547.12 491.06C544.986 489.033 542.983 487.413 541.11 486.2C541.031 486.151 540.937 486.133 540.845 486.15C540.754 486.166 540.672 486.214 540.614 486.287C540.556 486.36 540.527 486.451 540.532 486.543C540.536 486.636 540.575 486.724 540.64 486.79C540.646 486.79 540.77 486.847 541.01 486.96C541.051 486.979 541.085 487.013 541.103 487.055C541.122 487.097 541.125 487.144 541.112 487.188C541.098 487.232 541.069 487.269 541.03 487.294C540.991 487.318 540.945 487.327 540.9 487.32L539.24 487.06C539.204 487.054 539.168 487.056 539.133 487.066C539.099 487.077 539.067 487.095 539.04 487.12C539.013 487.145 538.992 487.176 538.978 487.211C538.964 487.245 538.958 487.283 538.96 487.32L538.98 487.63C538.979 487.639 538.982 487.648 538.988 487.655C538.993 487.662 539.001 487.668 539.01 487.67L541.22 488.01C541.508 488.049 541.781 488.163 542.01 488.34C545.203 490.747 547.6 493.96 549.2 497.98C549.493 498.72 550.406 500.18 551.94 502.36C551.976 502.41 551.994 502.471 551.99 502.531C551.987 502.591 551.962 502.648 551.92 502.69L551.67 502.93C551.668 502.932 551.666 502.934 551.663 502.935C551.66 502.936 551.658 502.937 551.655 502.937C551.652 502.937 551.649 502.936 551.647 502.935C551.644 502.934 551.642 502.932 551.64 502.93C550.02 501.163 548.29 498.313 546.45 494.38C545.656 492.673 544.223 490.807 542.15 488.78C542.109 488.742 542.055 488.721 542 488.721C541.944 488.721 541.89 488.742 541.85 488.78L541.84 488.79C541.801 488.828 541.778 488.879 541.777 488.933C541.775 488.987 541.794 489.04 541.83 489.08C544.78 492.5 545.19 494.04 547.28 499.13C548.73 502.66 553.71 504.82 557.9 506.36C558.686 506.647 559.703 507.267 560.95 508.22C561.001 508.26 561.061 508.285 561.125 508.293C561.189 508.301 561.255 508.292 561.314 508.267C561.373 508.241 561.424 508.2 561.462 508.148C561.5 508.096 561.524 508.034 561.53 507.97C561.55 507.737 561.413 507.383 561.12 506.91C561.146 507.077 561.226 507.23 561.36 507.37C561.513 507.523 561.59 507.657 561.59 507.77C561.61 508.703 561.716 509.617 561.91 510.51C561.963 510.762 561.98 511.021 561.96 511.28L561 524.93L549.97 522.73C549.814 522.698 549.674 522.615 549.572 522.493C549.471 522.371 549.413 522.219 549.41 522.06C549.383 519.813 548.853 517.74 547.82 515.84C546.65 513.7 543.48 511.82 542.24 510.72C541.635 510.181 541.085 509.582 540.6 508.93C536.873 503.87 534.5 498.27 533.48 492.13C533.465 492.073 533.474 492.012 533.504 491.962C533.534 491.911 533.583 491.874 533.64 491.86C533.697 491.845 533.757 491.854 533.808 491.884C533.859 491.914 533.895 491.963 533.91 492.02C535.35 496.153 536.543 499.417 537.49 501.81C538.963 505.537 541.28 508.5 544.44 510.7C549.72 514.38 551.01 515.78 550.9 521.64C550.897 521.854 550.971 522.061 551.109 522.225C551.247 522.388 551.439 522.496 551.65 522.53L560.49 523.89C560.495 523.891 560.501 523.892 560.506 523.891C560.511 523.89 560.517 523.889 560.521 523.886C560.526 523.883 560.53 523.879 560.533 523.875C560.536 523.87 560.539 523.865 560.54 523.86L560.61 523.37C560.615 523.332 560.613 523.293 560.603 523.257C560.592 523.22 560.574 523.186 560.55 523.156C560.525 523.127 560.494 523.103 560.46 523.087C560.426 523.07 560.388 523.061 560.35 523.06C558.49 522.98 556.86 522.627 555.46 522C554.929 521.762 554.468 521.39 554.123 520.923C553.778 520.455 553.56 519.906 553.49 519.33L553.11 516.24C553.097 516.101 553.063 515.963 553.01 515.83C552.403 514.323 551.633 513.29 550.7 512.73C545.46 509.59 542.8 508.29 539.76 503.77C536.83 499.4 536.29 494.44 533.04 490.33C532.841 490.08 532.553 489.918 532.24 489.88L530.47 489.65C531.943 489.703 533.373 489.493 534.76 489.02C535.06 488.916 535.323 488.728 535.52 488.48C536.82 486.84 538.403 485.73 540.27 485.15Z" fill="#94ECD7"/>
<path d="M530.47 489.65L532.24 489.88C532.554 489.918 532.841 490.08 533.04 490.33C536.29 494.44 536.83 499.4 539.76 503.77C542.8 508.29 545.46 509.59 550.7 512.73C551.633 513.29 552.403 514.323 553.01 515.83C553.063 515.963 553.097 516.101 553.11 516.24L553.49 519.33C553.56 519.906 553.778 520.455 554.123 520.923C554.469 521.391 554.929 521.762 555.46 522C556.86 522.627 558.49 522.98 560.35 523.06C560.388 523.061 560.426 523.07 560.46 523.087C560.495 523.103 560.525 523.127 560.55 523.156C560.574 523.186 560.592 523.22 560.603 523.257C560.613 523.294 560.616 523.332 560.61 523.37L560.54 523.86C560.539 523.865 560.537 523.87 560.533 523.875C560.53 523.879 560.526 523.883 560.521 523.886C560.517 523.889 560.512 523.89 560.506 523.891C560.501 523.892 560.495 523.891 560.49 523.89L551.65 522.53C551.439 522.496 551.247 522.388 551.109 522.225C550.972 522.061 550.897 521.854 550.9 521.64C551.01 515.78 549.72 514.38 544.44 510.7C541.28 508.5 538.963 505.537 537.49 501.81C536.543 499.417 535.35 496.153 533.91 492.02C533.895 491.963 533.859 491.914 533.808 491.884C533.757 491.854 533.697 491.845 533.64 491.86C533.583 491.875 533.534 491.911 533.504 491.962C533.474 492.012 533.465 492.073 533.48 492.13C534.5 498.27 536.873 503.87 540.6 508.93C541.085 509.582 541.635 510.181 542.24 510.72C543.48 511.82 546.65 513.7 547.82 515.84C548.853 517.74 549.383 519.813 549.41 522.06C549.413 522.219 549.471 522.371 549.573 522.493C549.674 522.615 549.814 522.698 549.97 522.73L561 524.93L561.32 529.4C557.58 529.953 553.87 530.057 550.19 529.71C544.54 529.19 539.69 528.6 535.93 524.57C532.63 521.043 530.363 518.33 529.13 516.43C527.04 513.23 526.62 507.97 526.4 503.64C526.2 499.63 527.02 493.92 526.75 488.97L530.47 489.65Z" fill="#E2FEF7"/>
<path d="M528.46 528.05C532.41 529.02 536.12 531.71 536.52 536.07C537.79 549.82 526.04 553.06 514.87 550.25C506.377 548.11 498.58 545.273 491.48 541.74C483.173 537.607 475.147 532.713 467.4 527.06C463.227 524.02 460.587 521.687 459.48 520.06C455.23 513.86 457.4 505.18 464.29 501.79C469.89 499.04 473.97 500.8 479.08 504.46C481.407 506.127 484.42 508.173 488.12 510.6C500.373 518.647 513.82 524.463 528.46 528.05Z" fill="#42AAA2"/>
<path d="M587.08 694.9C588.69 742.09 600.99 786.56 619.82 828.95C619.868 829.058 619.888 829.176 619.878 829.294C619.868 829.412 619.829 829.526 619.763 829.625C619.698 829.724 619.608 829.806 619.503 829.863C619.397 829.92 619.279 829.95 619.16 829.95H371.89C371.829 829.949 371.77 829.934 371.717 829.905C371.663 829.877 371.618 829.836 371.584 829.787C371.551 829.737 371.53 829.681 371.524 829.622C371.518 829.563 371.527 829.504 371.55 829.45C374.063 823.17 376.076 817.627 377.59 812.82C381.603 800.027 383.386 786.413 382.94 771.98C382.48 757.107 380.91 742.473 378.23 728.08C378.186 727.85 378.232 727.612 378.356 727.415C378.481 727.218 378.675 727.077 378.9 727.02C389.586 724.253 400.463 720.753 411.53 716.52C429.58 709.62 445.59 700.38 460.5 688.75C464.193 685.87 466.3 684.133 466.82 683.54C467.059 683.267 467.27 682.969 467.45 682.65C472.54 673.65 462.96 661.06 452.89 663.69C451.77 663.983 449.626 665.39 446.46 667.91C417.59 690.87 381.98 703.34 345.24 707.2C341.006 707.647 337.33 707.893 334.21 707.94C329.52 708.01 324.83 708.6 319.51 708.72C305.25 709.053 294.206 709.113 286.38 708.9C277.83 708.67 267.6 703.24 261.42 698.54C253.986 692.88 248.843 685.11 245.99 675.23C245.47 673.423 244.866 670.24 244.18 665.68C242.666 655.507 241.46 645.787 240.56 636.52C240.554 636.467 240.56 636.413 240.575 636.361C240.591 636.31 240.617 636.263 240.651 636.222C240.686 636.181 240.728 636.147 240.776 636.122C240.824 636.098 240.876 636.084 240.93 636.08C249.863 635.407 255.336 635.063 257.35 635.05C260.183 635.03 262.316 634.657 263.75 633.93C269.67 630.91 272.53 624.57 270.01 618.23C283.41 622.317 297.186 624.497 311.34 624.77C321.106 624.963 332.93 625.063 346.81 625.07C358.263 625.07 369.31 626.373 379.95 628.98C381.896 629.453 387.82 631.377 397.72 634.75C407.43 638.06 417.69 640.4 427 645.26C435.69 649.78 444.56 654.12 453.93 655.83C455.323 656.09 459.326 656.61 465.94 657.39C471.31 658.03 477.91 660.02 483.62 662.26C498.07 667.95 509.91 672.14 524.31 674.14C529.13 674.807 533.35 675.47 536.97 676.13C543.81 677.38 549.04 681.19 555.28 686.31C565.33 694.57 574.34 695.31 587.08 694.9Z" fill="#E2FEF7"/>
</svg>
