<svg width="1024" height="1024" viewBox="0 0 1024 1024" fill="none" xmlns="http://www.w3.org/2000/svg">
<path d="M335.08 595.26C332.486 586.887 329.953 578.497 327.48 570.09C325.213 562.363 323.33 555.307 321.83 548.92C319.196 537.66 317.573 530.543 316.96 527.57C314.28 514.47 312.006 498.5 310.14 479.66C309.886 477.1 309.796 474.33 309.87 471.35C309.874 471.187 309.845 471.025 309.785 470.874C309.726 470.722 309.637 470.584 309.523 470.468C309.409 470.351 309.273 470.259 309.123 470.196C308.973 470.132 308.812 470.1 308.65 470.1H170.84C170.643 470.1 170.454 470.175 170.312 470.309C170.171 470.443 170.087 470.626 170.08 470.82C169.573 480.853 168.676 490.993 167.39 501.24C165.116 519.367 162.153 536.387 158.5 552.3C155.313 566.16 152.7 576.703 150.66 583.93C148.48 591.623 147.313 595.953 147.16 596.92C146.65 600.2 145.04 603.25 144.38 606.57C143.36 611.68 141.4 616.03 139.98 621.66C139.773 622.48 138.97 625.09 137.57 629.49C132.94 644.03 127.76 660.86 122.55 675.46C114.58 697.8 110.87 708.97 104.77 723.21C104.723 723.318 104.704 723.436 104.713 723.553C104.723 723.671 104.761 723.783 104.825 723.882C104.888 723.98 104.975 724.06 105.077 724.116C105.179 724.171 105.293 724.2 105.41 724.2C122.103 724.16 140.52 723.867 160.66 723.32C206.46 722.08 250.45 722.42 294.73 723.41C298.03 723.48 302.99 723.98 307.22 723.52" stroke="#FCC931" stroke-width="2"/>
<path d="M165.86 389.02C165.987 392.24 166.303 395.4 166.81 398.5C167.543 403.053 167.957 406.227 168.05 408.02C168.44 415.2 169.38 420.27 169.75 427.35C170.157 435.177 170.437 441.71 170.59 446.95C170.595 447.127 170.669 447.295 170.796 447.418C170.923 447.541 171.093 447.61 171.27 447.61H307.26C307.535 447.61 307.8 447.504 307.999 447.314C308.199 447.124 308.317 446.865 308.33 446.59C308.68 439.85 308.74 433.51 309.44 426.82C310.36 418.1 311.673 407.13 313.38 393.91C313.627 391.95 313.73 390.327 313.69 389.04C313.682 388.817 313.588 388.606 313.428 388.451C313.267 388.296 313.053 388.21 312.83 388.21H166.64C166.535 388.21 166.431 388.231 166.334 388.272C166.238 388.313 166.15 388.373 166.078 388.449C166.005 388.525 165.948 388.614 165.91 388.712C165.873 388.81 165.856 388.915 165.86 389.02Z" stroke="#FCC931" stroke-width="2"/>
<path d="M900.249 462.97H800.589C800.377 462.97 800.173 463.054 800.023 463.204C799.873 463.354 799.789 463.558 799.789 463.77V509.71C799.789 523.087 804.516 535.917 812.931 545.376C821.346 554.836 832.759 560.15 844.659 560.15H856.179C868.079 560.15 879.492 554.836 887.907 545.376C896.322 535.917 901.049 523.087 901.049 509.71V463.77C901.049 463.558 900.965 463.354 900.815 463.204C900.665 463.054 900.461 462.97 900.249 462.97Z" stroke="#FCC931" stroke-width="2"/>
<path d="M862.61 579.927C862.609 579.819 862.587 579.713 862.545 579.613C862.503 579.514 862.441 579.424 862.365 579.349C862.288 579.273 862.197 579.214 862.097 579.174C861.997 579.133 861.89 579.113 861.783 579.114L837.364 579.327C837.146 579.329 836.938 579.417 836.786 579.572C836.633 579.727 836.549 579.937 836.551 580.154L836.771 605.373C836.772 605.481 836.794 605.587 836.836 605.686C836.878 605.785 836.939 605.875 837.016 605.951C837.093 606.026 837.184 606.086 837.284 606.126C837.384 606.167 837.49 606.187 837.598 606.186L862.017 605.973C862.235 605.971 862.442 605.883 862.595 605.728C862.747 605.572 862.832 605.363 862.83 605.146L862.61 579.927Z" stroke="#FCC931" stroke-width="2"/>
<path d="M636.999 642.12C636.931 642.188 636.847 642.238 636.754 642.265C636.662 642.293 636.564 642.297 636.47 642.277C636.376 642.257 636.288 642.214 636.214 642.152C636.141 642.089 636.084 642.01 636.049 641.92L628.359 622.31C628.243 622.019 628.214 621.702 628.277 621.396C628.339 621.09 628.489 620.81 628.709 620.59L651.049 598.26C651.127 598.18 651.187 598.085 651.227 597.981C651.267 597.877 651.285 597.766 651.28 597.654C651.275 597.543 651.248 597.434 651.2 597.333C651.151 597.233 651.083 597.143 650.999 597.07L581.799 537.79C581.695 537.699 581.561 537.649 581.422 537.651C581.284 537.653 581.151 537.706 581.049 537.8L567.389 550.33C567.238 550.466 567.047 550.55 566.845 550.57C566.644 550.59 566.442 550.544 566.269 550.44L548.529 539.56C548.428 539.499 548.343 539.415 548.28 539.315C548.217 539.216 548.178 539.102 548.167 538.985C548.155 538.868 548.171 538.749 548.213 538.639C548.255 538.529 548.322 538.43 548.409 538.35L563.909 524.13C563.997 524.051 564.067 523.954 564.115 523.846C564.163 523.738 564.187 523.62 564.186 523.501C564.185 523.382 564.159 523.264 564.11 523.156C564.06 523.047 563.988 522.95 563.899 522.87L531.219 494.2C531.105 494.099 530.966 494.03 530.817 493.998C530.668 493.967 530.513 493.974 530.368 494.019C530.222 494.064 530.091 494.146 529.986 494.256C529.881 494.367 529.807 494.502 529.769 494.65L521.289 527.95C521.213 528.238 521.028 528.484 520.773 528.636C520.518 528.788 520.215 528.832 519.929 528.76L501.919 524.17C501.74 524.125 501.586 524.012 501.489 523.855C501.392 523.699 501.36 523.51 501.399 523.33C503.546 513.203 506.326 501.507 509.739 488.24C510.432 485.553 511.529 479.687 513.029 470.64C513.776 466.147 514.206 461.2 514.319 455.8C514.426 451 514.972 445.757 515.959 440.07C515.984 439.929 515.977 439.784 515.94 439.645C515.903 439.507 515.836 439.378 515.743 439.268C515.65 439.158 515.535 439.07 515.405 439.01C515.274 438.95 515.133 438.919 514.989 438.92C489.289 438.993 466.356 438.973 446.189 438.86C441.919 438.84 440.769 439.6 438.589 442.57C438.042 443.31 437.779 444.447 437.799 445.98C437.859 453.1 437.799 458.683 437.619 462.73C437.399 467.743 435.129 471.417 430.809 473.75C428.609 474.937 426.626 475.26 424.859 474.72C420.779 473.467 418.069 471.113 416.729 467.66C416.269 466.473 416.069 462.837 416.129 456.75C416.202 448.723 416.196 440.03 416.109 430.67C416.076 426.563 416.559 423.357 417.559 421.05C419.452 416.663 422.499 413.533 426.699 411.66C435.066 407.92 444.762 403.283 455.789 397.75C463.036 394.117 468.476 391.453 472.109 389.76C477.709 387.147 495.682 378.397 526.029 363.51C526.336 363.356 526.6 363.128 526.795 362.847C526.991 362.566 527.113 362.24 527.149 361.9C528.462 349.533 530.069 337.11 531.969 324.63C532.249 322.8 532.249 320.59 532.139 318.84C532.124 318.561 532.002 318.299 531.799 318.108C531.597 317.916 531.328 317.81 531.049 317.81H450.599C450.513 317.81 450.428 317.827 450.35 317.861C450.271 317.896 450.2 317.946 450.142 318.009C450.084 318.072 450.039 318.146 450.011 318.227C449.983 318.308 449.972 318.394 449.979 318.48C450.512 325.127 450.629 332.323 450.329 340.07C450.139 344.78 448.379 349 444.129 351.29C440.422 353.29 437.012 353.163 433.899 350.91C429.889 348.01 429.069 345.11 429.079 339.83C429.106 328.93 429.122 317.047 429.129 304.18C429.129 294.44 444.609 288.38 452.979 284.49C471.319 275.95 483.169 270.31 500.679 262.49C510.272 258.197 516.772 255.16 520.179 253.38C532.219 247.093 539.826 243.4 542.999 242.3C544.739 241.7 545.069 239.48 545.579 237.81C555.199 206.2 564.449 178.36 572.819 150.28C573.972 146.407 575.069 143.907 576.109 142.78C579.609 138.98 585.659 138.53 589.489 142.36C590.362 143.24 591.319 145.26 592.359 148.42C596.919 162.353 599.412 169.993 599.839 171.34C606.406 192.12 613.222 213.503 620.289 235.49C621.176 238.243 621.882 240.17 622.409 241.27C622.61 241.683 622.953 242.016 623.379 242.21C632.159 246.163 641.899 250.823 652.599 256.19C672.499 266.18 695.979 277.22 720.199 288.95C729.149 293.28 734.379 294.59 735.669 303.08C735.749 303.587 735.799 306.54 735.819 311.94C735.852 318.047 735.829 328.19 735.749 342.37C735.736 344.003 734.819 345.893 732.999 348.04C730.446 351.053 727.132 352.343 723.059 351.91C721.392 351.73 720.086 351.217 719.139 350.37C715.159 346.8 714.119 344.53 714.129 339.02C714.136 326.267 714.129 319.613 714.109 319.06C714.099 318.735 713.961 318.428 713.726 318.202C713.491 317.976 713.176 317.85 712.849 317.85L633.719 317.8C633.552 317.799 633.388 317.835 633.236 317.905C633.085 317.974 632.95 318.076 632.842 318.204C632.733 318.331 632.654 318.481 632.608 318.643C632.563 318.804 632.553 318.974 632.579 319.14C633.272 323.393 633.646 327.07 633.699 330.17C633.889 340.4 635.849 349.2 637.239 360.02C637.317 360.618 637.53 361.19 637.863 361.693C638.195 362.195 638.639 362.615 639.159 362.92C642.906 365.127 646.199 366.94 649.039 368.36C672.706 380.24 701.892 394.673 736.599 411.66C740.779 413.7 744.232 417.33 746.959 422.55C747.479 423.543 747.749 425.193 747.769 427.5C747.822 432.913 747.836 443.097 747.809 458.05C747.802 462.27 747.769 464.567 747.709 464.94C746.639 471.34 740.839 476.6 734.059 474.19C727.519 471.86 726.219 466.29 726.329 459.52C726.369 456.52 726.369 450.187 726.329 440.52C726.326 440.092 726.155 439.683 725.851 439.381C725.548 439.079 725.137 438.91 724.709 438.91H650.629C650.567 438.91 650.506 438.924 650.451 438.951C650.395 438.977 650.346 439.016 650.307 439.064C650.267 439.111 650.239 439.167 650.224 439.227C650.209 439.287 650.207 439.349 650.219 439.41C650.539 441.02 650.899 441.99 650.969 443.49C651.376 452.21 651.622 460.077 651.709 467.09C651.756 471.063 652.172 474.813 652.959 478.34C655.639 490.38 659.579 502.02 663.109 514.13C676.002 558.383 683.752 585.133 686.359 594.38C693.169 618.58 700.389 641.34 707.059 664.3C707.072 664.333 711.099 678.17 719.139 705.81C721.159 712.74 724.199 719.45 725.399 726.38C725.766 728.513 725.622 730.767 724.969 733.14C722.469 742.267 716.289 746.823 706.429 746.81C675.236 746.77 652.139 746.747 637.139 746.74C637.015 746.74 636.893 746.711 636.781 746.656C636.67 746.601 636.573 746.521 636.498 746.422C636.423 746.323 636.371 746.209 636.347 746.087C636.323 745.965 636.327 745.84 636.359 745.72C638.032 739.533 639.632 732.693 641.159 725.2C641.386 724.087 642.339 723.527 644.019 723.52C645.606 723.513 652.682 723.56 665.249 723.66C670.399 723.7 674.429 724.35 679.259 724.07C679.402 724.062 679.54 724.012 679.654 723.924C679.767 723.837 679.852 723.717 679.896 723.581C679.941 723.444 679.943 723.298 679.902 723.16C679.862 723.023 679.78 722.9 679.669 722.81C669.176 714.357 658.369 705.417 647.249 695.99C645.649 694.637 644.839 693.353 644.819 692.14C644.659 684.3 643.812 675.167 642.279 664.74C642.269 664.669 642.281 664.596 642.313 664.532C642.346 664.468 642.397 664.416 642.461 664.382C642.524 664.348 642.596 664.335 642.667 664.343C642.739 664.352 642.806 664.382 642.859 664.43C646.579 667.703 650.796 671.21 655.509 674.95C659.836 678.383 664.062 681.867 668.189 685.4C681.369 696.67 689.029 702.83 694.889 708.57C694.983 708.665 695.1 708.731 695.229 708.763C695.358 708.795 695.494 708.79 695.622 708.75C695.749 708.71 695.864 708.636 695.953 708.535C696.043 708.435 696.103 708.312 696.129 708.18C696.336 707.1 696.266 705.9 695.919 704.58C694.212 698.073 692.096 690.69 689.569 682.43C679.662 650.057 672.826 627.487 669.059 614.72C668.772 613.753 668.486 613.003 668.199 612.47C668.136 612.353 668.047 612.252 667.939 612.176C667.83 612.1 667.706 612.05 667.574 612.031C667.443 612.011 667.309 612.023 667.183 612.064C667.057 612.106 666.943 612.176 666.849 612.27L636.999 642.12ZM567.379 238.9C567.332 239.049 567.32 239.207 567.346 239.361C567.371 239.515 567.433 239.661 567.525 239.787C567.618 239.913 567.739 240.015 567.879 240.085C568.019 240.155 568.173 240.191 568.329 240.19L597.229 240.13C597.383 240.129 597.535 240.092 597.673 240.022C597.81 239.952 597.929 239.85 598.02 239.726C598.112 239.602 598.173 239.458 598.199 239.306C598.224 239.154 598.214 238.997 598.169 238.85L583.639 192.18C583.575 191.979 583.449 191.803 583.278 191.679C583.107 191.555 582.901 191.489 582.69 191.49C582.479 191.491 582.274 191.56 582.105 191.686C581.936 191.812 581.811 191.988 581.749 192.19L567.379 238.9ZM592.129 262.94C592.216 262.833 592.271 262.703 592.287 262.566C592.303 262.428 592.28 262.289 592.221 262.165C592.161 262.04 592.067 261.935 591.95 261.861C591.833 261.788 591.697 261.749 591.559 261.75L569.119 261.83C568.98 261.83 568.844 261.869 568.726 261.944C568.609 262.019 568.515 262.125 568.456 262.251C568.397 262.377 568.376 262.518 568.394 262.656C568.412 262.794 568.469 262.924 568.559 263.03L579.829 276.75C579.898 276.834 579.984 276.901 580.081 276.947C580.179 276.994 580.286 277.018 580.394 277.018C580.502 277.018 580.609 276.994 580.707 276.947C580.804 276.901 580.891 276.834 580.959 276.75L592.129 262.94ZM481.169 295.21C481.063 295.255 480.975 295.336 480.922 295.438C480.868 295.541 480.852 295.659 480.875 295.772C480.899 295.885 480.961 295.987 481.051 296.059C481.141 296.132 481.253 296.171 481.369 296.17H535.429C535.549 296.172 535.665 296.13 535.757 296.053C535.849 295.976 535.91 295.868 535.929 295.75L540.089 269.45C540.105 269.36 540.095 269.268 540.062 269.184C540.029 269.099 539.974 269.025 539.902 268.969C539.83 268.914 539.744 268.879 539.654 268.868C539.563 268.858 539.472 268.872 539.389 268.91L481.169 295.21ZM684.649 295.64C684.362 295.267 684.039 294.997 683.679 294.83C668.546 287.977 650.259 279.53 628.819 269.49C628.019 269.117 627.396 268.93 626.949 268.93C626.765 268.93 626.583 268.971 626.416 269.049C626.248 269.126 626.1 269.24 625.981 269.381C625.862 269.521 625.776 269.686 625.727 269.864C625.678 270.042 625.669 270.228 625.699 270.41C626.572 275.697 627.689 283.647 629.049 294.26C629.229 295.653 630.036 296.343 631.469 296.33C646.862 296.177 664.479 296.167 684.319 296.3C684.396 296.301 684.472 296.28 684.538 296.24C684.603 296.2 684.656 296.142 684.691 296.073C684.725 296.005 684.74 295.927 684.732 295.851C684.725 295.774 684.696 295.701 684.649 295.64ZM608.879 311.86C608.988 311.977 609.132 312.055 609.289 312.085C609.446 312.114 609.608 312.093 609.752 312.024C609.896 311.954 610.014 311.841 610.089 311.7C610.164 311.559 610.192 311.398 610.169 311.24L605.609 283.49C605.585 283.346 605.52 283.213 605.422 283.106C605.323 282.999 605.196 282.922 605.055 282.886C604.914 282.85 604.766 282.856 604.628 282.903C604.49 282.95 604.369 283.035 604.279 283.15L594.599 295.36C594.488 295.499 594.431 295.673 594.436 295.85C594.441 296.028 594.51 296.198 594.629 296.33L608.879 311.86ZM559.989 288.6L556.429 307.32C556.405 307.437 556.42 307.56 556.473 307.668C556.525 307.775 556.613 307.862 556.72 307.915C556.828 307.968 556.95 307.983 557.068 307.959C557.185 307.934 557.291 307.871 557.369 307.78L566.319 297.33C566.666 296.924 566.853 296.406 566.844 295.873C566.834 295.34 566.63 294.83 566.269 294.44L560.719 288.39C560.667 288.332 560.6 288.289 560.525 288.268C560.45 288.246 560.37 288.246 560.295 288.268C560.219 288.29 560.15 288.333 560.096 288.391C560.042 288.45 560.005 288.522 559.989 288.6ZM546.729 355.36C546.559 355.57 546.451 355.825 546.42 356.094C546.389 356.363 546.434 356.635 546.551 356.88C546.669 357.124 546.853 357.329 547.083 357.473C547.312 357.616 547.578 357.692 547.849 357.69L614.499 357.45C614.768 357.448 615.031 357.37 615.258 357.225C615.485 357.08 615.666 356.874 615.781 356.631C615.896 356.387 615.94 356.116 615.908 355.849C615.875 355.582 615.768 355.329 615.599 355.12L582.129 313.92C581.995 313.755 581.826 313.622 581.634 313.53C581.442 313.439 581.232 313.392 581.019 313.392C580.806 313.392 580.596 313.439 580.404 313.53C580.212 313.622 580.043 313.755 579.909 313.92L546.729 355.36ZM598.449 380.1C598.531 380.004 598.582 379.886 598.598 379.761C598.614 379.636 598.593 379.509 598.538 379.395C598.483 379.282 598.396 379.187 598.288 379.122C598.18 379.057 598.055 379.025 597.929 379.03L566.609 380.02C566.483 380.024 566.361 380.064 566.258 380.135C566.154 380.207 566.074 380.307 566.026 380.424C565.979 380.54 565.966 380.668 565.989 380.791C566.013 380.915 566.072 381.029 566.159 381.12L582.369 398.06C582.432 398.126 582.509 398.179 582.593 398.214C582.678 398.249 582.769 398.265 582.861 398.262C582.952 398.26 583.042 398.237 583.125 398.197C583.207 398.157 583.28 398.1 583.339 398.03L598.449 380.1ZM619.409 388.46L598.279 413.13C598.16 413.267 598.099 413.444 598.108 413.625C598.118 413.806 598.197 413.976 598.329 414.1C601.989 417.52 604.929 421.67 608.449 425.4C615.342 432.707 621.789 440.153 627.789 447.74C627.89 447.866 628.029 447.957 628.186 447.997C628.342 448.038 628.508 448.027 628.656 447.966C628.805 447.905 628.929 447.796 629.009 447.658C629.089 447.52 629.12 447.359 629.099 447.2L621.549 389.09C621.518 388.856 621.42 388.636 621.267 388.456C621.113 388.277 620.911 388.145 620.684 388.079C620.457 388.012 620.216 388.013 619.99 388.08C619.764 388.148 619.562 388.28 619.409 388.46ZM695.489 417.19C695.638 417.191 695.783 417.141 695.9 417.05C696.018 416.958 696.1 416.829 696.135 416.684C696.17 416.539 696.155 416.387 696.092 416.252C696.029 416.117 695.922 416.007 695.789 415.94L644.489 390.02C644.381 389.965 644.259 389.941 644.139 389.951C644.018 389.961 643.902 390.004 643.803 390.075C643.705 390.146 643.629 390.243 643.582 390.355C643.535 390.467 643.52 390.59 643.539 390.71L647.809 416.64C647.835 416.794 647.915 416.933 648.033 417.034C648.152 417.135 648.303 417.19 648.459 417.19H695.489ZM470.639 415.5C470.447 415.596 470.293 415.754 470.202 415.948C470.112 416.143 470.089 416.362 470.139 416.571C470.189 416.779 470.308 416.965 470.477 417.098C470.646 417.23 470.854 417.301 471.069 417.3L517.639 416.74C517.864 416.738 518.08 416.657 518.251 416.51C518.421 416.364 518.534 416.162 518.569 415.94L522.449 391.33C522.476 391.158 522.456 390.981 522.389 390.82C522.323 390.659 522.214 390.519 522.074 390.416C521.933 390.313 521.767 390.25 521.593 390.235C521.42 390.22 521.245 390.253 521.089 390.33L470.639 415.5ZM544.349 391.43C544.316 391.463 544.272 391.7 544.219 392.14C543.786 395.753 543.529 397.87 543.449 398.49C540.336 423.363 538.519 438.207 537.999 443.02C537.812 444.787 537.492 446.47 537.039 448.07C537.009 448.173 537.004 448.281 537.024 448.386C537.044 448.491 537.088 448.59 537.153 448.675C537.218 448.76 537.303 448.828 537.399 448.874C537.496 448.92 537.602 448.943 537.709 448.94C538.129 448.927 538.509 448.73 538.849 448.35C541.349 445.53 547.662 438.173 557.789 426.28C560.059 423.62 564.929 419.39 566.839 415.51C567.015 415.159 567.079 414.761 567.022 414.371C566.965 413.982 566.789 413.618 566.519 413.33L546.099 391.46C545.987 391.341 545.853 391.246 545.704 391.179C545.555 391.113 545.394 391.078 545.23 391.075C545.067 391.072 544.905 391.102 544.754 391.163C544.602 391.224 544.465 391.315 544.349 391.43ZM583.579 430.92C583.514 430.848 583.434 430.791 583.345 430.752C583.255 430.713 583.159 430.693 583.062 430.694C582.965 430.695 582.869 430.717 582.78 430.757C582.692 430.798 582.613 430.857 582.549 430.93L547.379 471C547.29 471.1 547.232 471.223 547.211 471.355C547.191 471.487 547.21 471.622 547.265 471.744C547.32 471.866 547.409 471.969 547.522 472.041C547.634 472.113 547.765 472.151 547.899 472.15H619.819C619.954 472.151 620.086 472.112 620.199 472.039C620.312 471.966 620.401 471.861 620.456 471.738C620.51 471.614 620.527 471.478 620.504 471.345C620.482 471.212 620.421 471.089 620.329 470.99L583.579 430.92ZM658.139 575.34C658.248 575.431 658.383 575.486 658.524 575.496C658.666 575.505 658.807 575.47 658.927 575.394C659.047 575.319 659.14 575.207 659.193 575.075C659.245 574.943 659.254 574.797 659.219 574.66C656.259 563.933 650.992 545.137 643.419 518.27C642.152 513.777 640.822 509.61 639.429 505.77C637.516 500.483 636.326 496.283 635.859 493.17C635.835 493.013 635.776 492.864 635.687 492.733C635.598 492.602 635.481 492.493 635.344 492.414C635.208 492.335 635.055 492.289 634.898 492.277C634.742 492.266 634.585 492.291 634.439 492.35C633.049 492.91 631.619 493.63 630.319 494.73C621.646 501.997 611.052 511.403 598.539 522.95C598.445 523.037 598.37 523.144 598.32 523.262C598.27 523.381 598.246 523.508 598.249 523.637C598.252 523.765 598.282 523.892 598.337 524.008C598.392 524.124 598.471 524.227 598.569 524.31L658.139 575.34ZM599.529 494.38C599.612 494.311 599.671 494.219 599.699 494.115C599.727 494.011 599.722 493.901 599.685 493.8C599.647 493.699 599.58 493.612 599.491 493.551C599.402 493.49 599.297 493.458 599.189 493.46L564.369 493.58C564.262 493.58 564.158 493.614 564.071 493.675C563.984 493.737 563.918 493.824 563.882 493.924C563.846 494.025 563.842 494.134 563.87 494.237C563.898 494.34 563.957 494.432 564.039 494.5L581.499 509.02C581.593 509.099 581.711 509.142 581.834 509.142C581.957 509.142 582.075 509.099 582.169 509.02L599.529 494.38Z" fill="#F8BD1E"/>
<path d="M185.94 294.5C177.54 281.287 175.074 266.993 178.54 251.62C183.31 230.4 199.05 212.73 220.29 207.06C226.74 205.33 232.8 205.9 240.58 206.11C241.12 206.125 241.646 205.947 242.066 205.61C242.486 205.273 242.771 204.798 242.87 204.27C244.75 194.377 248.307 185.49 253.54 177.61C264.48 161.12 283.05 150.22 302.45 148.29C335.46 144.99 364.58 167.63 371.71 199.47C377.19 224.01 366.11 250.57 346.52 265.21C337.887 271.67 327.5 275.19 315.36 275.77C315.261 275.77 315.164 275.763 315.07 275.75L310.1 274.88C309.518 274.777 308.917 274.878 308.398 275.166C307.88 275.453 307.475 275.91 307.25 276.46C302.59 287.98 297.74 296.89 286.94 303.44C275.97 310.09 264.93 310.65 253.11 305.8C252.907 305.717 252.688 305.675 252.468 305.678C252.248 305.681 252.03 305.728 251.829 305.817C251.627 305.905 251.446 306.034 251.295 306.194C251.144 306.354 251.027 306.543 250.95 306.75C249.07 311.91 247.87 316.01 245.41 320.04C239.07 330.433 230.167 337.213 218.7 340.38C215.207 341.347 210.66 341.83 205.06 341.83C183.934 341.843 171.83 341.817 168.75 341.75C167.344 341.717 165.477 341.51 163.15 341.13C162.945 341.098 162.759 340.991 162.628 340.828C162.497 340.666 162.43 340.46 162.44 340.25C163.12 328.61 166.42 316.53 173.42 307.81C176.76 303.65 180.837 299.753 185.65 296.12C185.895 295.935 186.062 295.665 186.116 295.365C186.169 295.064 186.107 294.755 185.94 294.5Z" fill="#F8BD1E"/>
<path d="M335.081 595.26C332.488 586.887 329.954 578.497 327.481 570.09C325.214 562.363 323.331 555.307 321.831 548.92C319.198 537.66 317.574 530.543 316.961 527.57C314.281 514.47 312.008 498.5 310.141 479.66C309.888 477.1 309.798 474.33 309.871 471.35C309.875 471.187 309.846 471.025 309.787 470.874C309.727 470.722 309.638 470.584 309.524 470.468C309.411 470.351 309.275 470.259 309.125 470.196C308.975 470.132 308.814 470.1 308.651 470.1H170.841C170.644 470.1 170.456 470.175 170.314 470.309C170.172 470.443 170.089 470.626 170.081 470.82C169.574 480.853 168.678 490.993 167.391 501.24C165.118 519.367 162.154 536.387 158.501 552.3C155.314 566.16 152.701 576.703 150.661 583.93C148.481 591.623 147.314 595.953 147.161 596.92C146.651 600.2 145.041 603.25 144.381 606.57C143.361 611.68 141.401 616.03 139.981 621.66C139.774 622.48 138.971 625.09 137.571 629.49C132.941 644.03 127.761 660.86 122.551 675.46C114.581 697.8 110.871 708.97 104.771 723.21C104.724 723.318 104.705 723.436 104.715 723.553C104.724 723.671 104.763 723.783 104.826 723.882C104.89 723.98 104.976 724.06 105.078 724.116C105.181 724.171 105.295 724.2 105.411 724.2C122.104 724.16 140.521 723.867 160.661 723.32C206.461 722.08 250.451 722.42 294.731 723.41C298.031 723.48 302.991 723.98 307.221 723.52L312.731 745.99C312.751 746.07 312.752 746.154 312.735 746.234C312.717 746.315 312.682 746.39 312.63 746.455C312.579 746.52 312.514 746.572 312.439 746.607C312.365 746.643 312.283 746.661 312.201 746.66C218.614 746.493 147.101 746.463 97.661 746.57C94.081 746.577 91.5476 746.23 90.061 745.53C83.501 742.44 81.571 732.45 83.121 726.34C84.201 722.08 85.491 717.88 86.991 713.74C93.0643 697.04 97.7576 684.073 101.071 674.84C116.201 632.74 128.531 588.72 137.921 544.73C141.721 526.93 144.354 509.2 145.821 491.54C147.121 475.907 147.778 462.54 147.791 451.44C147.804 437.773 147.061 424.427 145.561 411.4C144.961 406.187 143.774 397.88 142.001 386.48C140.721 378.27 139.731 372.71 146.831 368.52C148.611 367.46 152.174 366.93 157.521 366.93C225.051 366.93 282.751 367.2 325.771 366.95C336.931 366.89 339.951 373.05 338.391 383.23C335.984 398.943 334.484 409.557 333.891 415.07C333.271 420.83 332.638 428.89 331.991 439.25C331.211 451.65 332.371 466.84 333.501 480.1C333.968 485.513 334.361 489.27 334.681 491.37C335.551 497.05 335.651 501.07 336.441 506.38C339.814 528.967 344.531 551.263 350.591 573.27C350.724 573.76 350.742 574.274 350.644 574.771C350.545 575.267 350.331 575.732 350.021 576.13L335.081 595.26ZM165.861 389.02C165.988 392.24 166.304 395.4 166.811 398.5C167.544 403.053 167.958 406.227 168.051 408.02C168.441 415.2 169.381 420.27 169.751 427.35C170.158 435.177 170.438 441.71 170.591 446.95C170.596 447.127 170.67 447.295 170.797 447.418C170.924 447.541 171.094 447.61 171.271 447.61H307.261C307.536 447.61 307.801 447.504 308 447.314C308.2 447.125 308.318 446.865 308.331 446.59C308.681 439.85 308.741 433.51 309.441 426.82C310.361 418.1 311.674 407.13 313.381 393.91C313.628 391.95 313.731 390.327 313.691 389.04C313.683 388.817 313.589 388.606 313.429 388.451C313.268 388.296 313.054 388.21 312.831 388.21H166.641C166.536 388.21 166.432 388.231 166.335 388.272C166.239 388.313 166.151 388.373 166.079 388.449C166.006 388.525 165.949 388.614 165.911 388.712C165.874 388.81 165.857 388.915 165.861 389.02Z" fill="#F8BD1E"/>
<path d="M601.139 804.42L613.599 789.88C613.8 789.641 614.082 789.485 614.393 789.442C614.703 789.4 615.019 789.474 615.279 789.65C620.039 792.843 624.126 795.45 627.539 797.47C644.209 807.33 663.029 813.95 682.339 816.38C688.919 817.207 693.299 817.757 695.479 818.03C696.599 818.17 700.119 818.197 706.039 818.11C709.293 818.063 712.803 817.777 716.569 817.25C720.639 816.69 726.569 816.26 731.129 815.36C748.676 811.893 765.076 805.537 780.329 796.29C790.836 789.917 799.299 783.11 805.719 775.87C823.189 756.17 834.129 731.51 838.999 705.53C839.899 700.73 840.329 695.703 840.289 690.45C840.209 680.117 840.196 658.533 840.249 625.7C840.252 625.526 840.192 625.356 840.08 625.222C839.968 625.088 839.812 624.999 839.639 624.97C838.066 624.697 836.033 624.343 833.539 623.91C827.029 622.77 822.039 618.76 819.449 612.81C818.209 609.95 817.733 605.873 818.019 600.58C818.046 600.12 818.069 592.203 818.089 576.83C818.089 576.417 817.984 576.011 817.782 575.65C817.581 575.29 817.291 574.987 816.939 574.77C814.139 573.023 811.499 571.267 809.019 569.5C794.799 559.367 785.373 545.793 780.739 528.78C779.686 524.913 779.146 520.82 779.119 516.5C779.053 506.34 779.066 491.507 779.159 472C779.173 470.04 779.086 467.983 778.899 465.83C778.866 465.43 778.702 465.052 778.433 464.753C778.164 464.453 777.805 464.249 777.409 464.17C772.729 463.237 769.593 460.763 767.999 456.75C765.589 450.7 770.339 443.36 775.819 440.89C776.679 440.503 777.949 440.307 779.629 440.3C793.103 440.24 800.009 440.21 800.349 440.21C800.52 440.209 800.689 440.174 800.846 440.108C801.003 440.042 801.146 439.946 801.266 439.825C801.385 439.704 801.48 439.561 801.544 439.404C801.608 439.247 801.641 439.079 801.639 438.91C801.559 418.703 801.543 399.343 801.589 380.83C801.609 375.67 803.059 370.92 808.279 368.14C813.459 365.38 819.949 368.29 822.049 373.7C822.596 375.1 822.879 377.343 822.899 380.43C823.006 398.143 823.026 417.74 822.959 439.22C822.959 439.475 823.061 439.719 823.241 439.899C823.421 440.079 823.665 440.18 823.919 440.18H875.789C876.134 440.18 876.465 440.042 876.709 439.796C876.952 439.551 877.089 439.217 877.089 438.87C877.063 422.997 877.053 403.647 877.059 380.82C877.059 376.53 877.749 373.07 880.579 370.39C882.546 368.523 884.849 367.537 887.489 367.43C891.259 367.28 896.239 369.79 897.539 373.72C898.479 376.573 898.949 379.75 898.949 383.25C898.956 400.503 898.946 419.09 898.919 439.01C898.919 439.179 898.953 439.346 899.018 439.502C899.083 439.658 899.178 439.8 899.298 439.919C899.418 440.038 899.56 440.132 899.717 440.195C899.873 440.259 900.04 440.291 900.209 440.29C908.329 440.223 914.723 440.203 919.389 440.23C925.759 440.26 929.429 441.79 932.569 447.02C933.529 448.627 933.983 450.607 933.929 452.96C933.799 458.1 929.659 462.17 924.989 463.93C924.67 464.051 924.393 464.264 924.195 464.542C923.998 464.82 923.888 465.15 923.879 465.49C923.746 470.477 923.729 484.003 923.829 506.07C923.863 514.763 923.379 521.357 922.379 525.85C917.519 547.68 902.529 565.44 882.769 575.38C882.424 575.554 882.134 575.821 881.931 576.151C881.728 576.481 881.62 576.862 881.619 577.25C881.646 587.323 881.659 596.157 881.659 603.75C881.659 616.66 875.119 623.48 862.839 624.85C862.565 624.88 862.311 625.01 862.127 625.217C861.942 625.424 861.84 625.692 861.839 625.97C861.839 658.423 861.833 680.85 861.819 693.25C861.819 697.277 861.409 701.463 860.589 705.81C855.369 733.59 844.899 760.85 827.859 782.86C820.159 792.813 811.199 801.523 800.979 808.99C788.309 818.26 772.819 826.59 757.559 831.65C748.719 834.59 739.829 836.997 730.889 838.87C728.029 839.47 725.589 839.793 723.569 839.84C720.539 839.91 717.619 840.71 713.799 840.97C691.473 842.503 669.939 839.587 649.199 832.22C631.779 826.03 615.889 816.7 601.269 805.68C601.175 805.608 601.097 805.517 601.039 805.414C600.981 805.31 600.945 805.196 600.932 805.078C600.92 804.96 600.932 804.841 600.968 804.728C601.003 804.615 601.062 804.51 601.139 804.42ZM900.249 462.97H800.589C800.377 462.97 800.174 463.054 800.024 463.204C799.874 463.354 799.789 463.558 799.789 463.77V509.71C799.789 523.088 804.517 535.917 812.932 545.376C821.346 554.836 832.759 560.15 844.659 560.15H856.179C868.08 560.15 879.493 554.836 887.907 545.376C896.322 535.917 901.049 523.088 901.049 509.71V463.77C901.049 463.558 900.965 463.354 900.815 463.204C900.665 463.054 900.462 462.97 900.249 462.97ZM862.609 579.927C862.608 579.819 862.586 579.713 862.544 579.614C862.502 579.514 862.44 579.425 862.364 579.349C862.287 579.274 862.196 579.214 862.096 579.174C861.996 579.133 861.889 579.113 861.782 579.114L837.363 579.327C837.145 579.329 836.937 579.417 836.785 579.572C836.633 579.727 836.548 579.937 836.55 580.154L836.77 605.373C836.771 605.481 836.793 605.587 836.835 605.686C836.877 605.786 836.938 605.875 837.015 605.951C837.092 606.026 837.183 606.086 837.283 606.126C837.383 606.167 837.489 606.187 837.597 606.186L862.016 605.973C862.234 605.971 862.441 605.883 862.594 605.728C862.746 605.573 862.831 605.363 862.829 605.146L862.609 579.927Z" fill="#F8BD1E"/>
<path d="M165.86 389.02C165.856 388.915 165.873 388.81 165.91 388.712C165.948 388.614 166.005 388.525 166.078 388.449C166.15 388.373 166.238 388.313 166.334 388.272C166.431 388.231 166.535 388.21 166.64 388.21H312.83C313.053 388.21 313.267 388.296 313.428 388.451C313.588 388.606 313.682 388.817 313.69 389.04C313.73 390.327 313.627 391.95 313.38 393.91C311.673 407.13 310.36 418.1 309.44 426.82C308.74 433.51 308.68 439.85 308.33 446.59C308.317 446.865 308.199 447.124 307.999 447.314C307.8 447.504 307.535 447.61 307.26 447.61H171.27C171.093 447.61 170.923 447.541 170.796 447.418C170.669 447.295 170.595 447.127 170.59 446.95C170.437 441.71 170.157 435.177 169.75 427.35C169.38 420.27 168.44 415.2 168.05 408.02C167.957 406.227 167.543 403.053 166.81 398.5C166.303 395.4 165.987 392.24 165.86 389.02Z" fill="#FFD443"/>
<path d="M900.249 462.97C900.461 462.97 900.665 463.054 900.815 463.204C900.965 463.354 901.049 463.558 901.049 463.77V509.71C901.049 523.087 896.322 535.917 887.907 545.376C879.492 554.836 868.079 560.15 856.179 560.15H844.659C832.759 560.15 821.346 554.836 812.931 545.376C804.516 535.917 799.789 523.087 799.789 509.71V463.77C799.789 463.558 799.873 463.354 800.023 463.204C800.173 463.054 800.377 462.97 800.589 462.97H900.249Z" fill="#FFD443"/>
<path d="M335.08 595.26C328.41 605.38 323.11 613.44 318.61 623.82C307.796 648.727 302.976 674.31 304.15 700.57C304.423 706.777 305.446 714.427 307.22 723.52C302.99 723.98 298.03 723.48 294.73 723.41C250.45 722.42 206.46 722.08 160.66 723.32C140.52 723.867 122.103 724.16 105.41 724.2C105.293 724.2 105.179 724.171 105.077 724.116C104.975 724.06 104.888 723.98 104.825 723.882C104.761 723.783 104.723 723.671 104.713 723.553C104.704 723.436 104.723 723.318 104.77 723.21C110.87 708.97 114.58 697.8 122.55 675.46C127.76 660.86 132.94 644.03 137.57 629.49C138.97 625.09 139.773 622.48 139.98 621.66C141.4 616.03 143.36 611.68 144.38 606.57C145.04 603.25 146.65 600.2 147.16 596.92C147.313 595.953 148.48 591.623 150.66 583.93C152.7 576.703 155.313 566.16 158.5 552.3C162.153 536.387 165.116 519.367 167.39 501.24C168.676 490.993 169.573 480.853 170.08 470.82C170.087 470.626 170.171 470.443 170.312 470.309C170.454 470.175 170.643 470.1 170.84 470.1H308.65C308.812 470.1 308.973 470.132 309.123 470.196C309.273 470.259 309.409 470.351 309.523 470.468C309.637 470.584 309.726 470.722 309.785 470.874C309.845 471.025 309.874 471.187 309.87 471.35C309.796 474.33 309.886 477.1 310.14 479.66C312.006 498.5 314.28 514.47 316.96 527.57C317.573 530.543 319.196 537.66 321.83 548.92C323.33 555.307 325.213 562.363 327.48 570.09C329.953 578.497 332.486 586.887 335.08 595.26Z" fill="#FFD443"/>
<path d="M515.52 834.05C505.886 836.837 497.043 838.627 488.99 839.42C482.31 840.08 474.76 840.347 466.34 840.22C459.046 840.12 451.536 839.377 443.81 837.99C414.77 832.79 389.433 819.017 367.8 796.67C350.233 778.523 338.046 758.297 331.24 735.99C328.01 725.4 325.89 714.26 324.72 703.52C323.966 696.687 323.893 688.6 324.5 679.26C324.786 674.8 325.916 667.923 327.89 658.63C335.29 623.79 357.52 593.74 385.61 572.62C404.536 558.387 425.7 549.177 449.1 544.99C453.78 544.15 459.19 543.95 465.5 543.38C473.52 542.65 482.16 543.94 489.17 544.36C493.056 544.6 497.39 545.27 502.17 546.37C534.41 553.79 561.66 570.13 582.95 594.93C597.53 611.92 608.56 630.57 614.92 651.82C618.226 662.88 620.33 673.683 621.23 684.23C622.083 694.23 621.526 705.22 619.56 717.2C614.473 748.093 600.453 774.857 577.5 797.49C560.58 814.17 538.81 827.32 515.52 834.05ZM521.12 809.63C535.48 804.03 548.97 795.91 560.19 784.86C565.803 779.333 569.52 775.493 571.34 773.34C581.973 760.8 589.836 746.757 594.93 731.21C599.896 716.037 601.643 700.077 600.17 683.33C597.83 656.63 588.023 632.653 570.75 611.4C569.71 610.12 567.98 608.25 565.56 605.79C560.96 601.1 556.86 596.41 551.82 592.62C540.72 584.26 529.59 578.25 518.43 574.59C514.043 573.15 505.633 570.773 493.2 567.46C490 566.607 486.49 565.983 482.67 565.59C477.15 565.017 473.596 564.763 472.01 564.83C471.236 564.863 465.733 565.34 455.5 566.26C451.346 566.633 445.276 567.787 437.29 569.72C425.7 572.53 416.29 577.33 406.43 583.94C385.48 598 367.33 616.35 355.51 639C352.91 643.993 351.146 649.07 350.22 654.23C349.44 658.603 348.77 662.013 348.21 664.46C346.196 673.18 345.106 681.817 344.94 690.37C344.85 694.88 345.45 699.03 345.7 702.81C345.86 705.357 346.27 708.44 346.93 712.06C351.116 735.093 360.65 756.007 375.53 774.8C389.26 792.13 408.62 804.65 429.41 811.22C439.16 814.3 449.83 817.21 459.48 818.01C480.26 819.75 501.01 817.47 521.12 809.63Z" fill="#F8BD1E"/>
<path d="M861.782 579.114L837.363 579.327C836.91 579.331 836.546 579.701 836.55 580.154L836.77 605.373C836.774 605.826 837.144 606.19 837.597 606.186L862.016 605.973C862.469 605.969 862.833 605.599 862.829 605.146L862.609 579.927C862.605 579.474 862.235 579.11 861.782 579.114Z" fill="#FFD443"/>
<path d="M465.429 713.43C465.455 713.315 465.454 713.195 465.427 713.08C465.4 712.965 465.348 712.858 465.274 712.766C465.2 712.674 465.107 712.599 465 712.548C464.894 712.497 464.777 712.47 464.659 712.47C452.979 712.417 436.673 712.4 415.739 712.42C408.509 712.42 405.459 705.48 409.529 699.77C415.703 691.117 419.386 685.9 420.579 684.12C429.909 670.24 437.849 659.93 446.429 646.85C452.789 637.17 457.106 630.843 459.379 627.87C467.146 617.71 474.916 606.823 482.689 595.21C485.089 591.63 489.579 590.03 493.459 592.51C496.559 594.49 497.636 597.643 496.689 601.97C494.936 609.983 492.813 618.787 490.319 628.38C487.539 639.07 484.409 653.01 479.899 668.84C479.853 669.001 479.844 669.171 479.875 669.336C479.905 669.5 479.974 669.656 480.074 669.79C480.175 669.924 480.306 670.032 480.456 670.107C480.606 670.182 480.772 670.22 480.939 670.22C502.713 670.18 518.566 670.18 528.499 670.22C532.719 670.23 536.229 673.89 535.869 678.07C535.769 679.217 535.013 680.777 533.599 682.75C520.529 701.05 506.309 722.9 490.859 744.87C483.719 755.03 474.409 768.463 462.929 785.17C459.899 789.59 455.909 792.78 450.669 789.88C447.209 787.96 447.829 784.33 448.669 780.66C451.329 768.98 454.709 758.5 457.389 747.77C460.489 735.343 463.169 723.897 465.429 713.43Z" fill="#F8BD1E"/>
</svg>
