<svg width="26" height="26" viewBox="0 0 26 26" fill="none" xmlns="http://www.w3.org/2000/svg">
<path d="M13 0C5.82799 0 0 5.828 0 13C0 20.172 5.82799 26 13 26C20.172 26 26 20.172 26 13C26 5.828 20.172 0 13 0ZM13 1.3C19.4694 1.3 24.7 6.53057 24.7 13C24.7 19.4694 19.4694 24.7 13 24.7C6.53057 24.7 1.3 19.4694 1.3 13C1.3 6.53057 6.53057 1.3 13 1.3ZM18.5301 6.65996L10.6158 10.6184L6.65742 18.5326L7.46738 19.3426L15.3816 15.3842L19.34 7.46992C18.9305 7.05912 18.9409 7.06946 18.5301 6.65996ZM13 11.7C13.7176 11.7 14.3 12.2824 14.3 13C14.3 13.7176 13.7176 14.3 13 14.3C12.2824 14.3 11.7 13.7176 11.7 13C11.7 12.2824 12.2824 11.7 13 11.7Z" fill="#6B6B6E"/>
</svg>
