<svg width="25" height="25" viewBox="0 0 25 25" fill="none" xmlns="http://www.w3.org/2000/svg">
<path d="M12.5 2C6.16406 2 1 6.43945 1 11.998C1 15.2227 2.76563 18.0312 5.48047 19.8652C5.47656 19.9727 5.48438 20.1484 5.34375 20.6719C5.16797 21.3223 4.8125 22.2363 4.09375 23.2676L3.58203 24H4.47656C7.57031 24 9.36133 21.9824 9.63867 21.6582C10.5605 21.875 11.5078 21.9922 12.5 21.9922C18.834 21.9922 24 17.5527 24 11.9961C24 6.43945 18.8359 2 12.5 2ZM12.5 3C18.2891 3 23 7.03516 23 11.998C23 16.959 18.2891 20.9941 12.5 20.9941C11.6152 20.9941 10.7539 20.8926 9.86719 20.6855L9.27344 20.5469L8.87891 21.0078C8.53711 21.4082 7.38672 22.584 5.49219 22.9141C5.85547 22.2617 6.12891 21.5977 6.30664 20.9316C6.44727 20.416 6.47266 20.1445 6.47852 19.9062L6.50195 19.3496L6.03906 19.0371C3.47266 17.3008 2 14.7344 2 11.998C2 7.03516 6.71094 3 12.5 3ZM12.4629 6.5C12.2559 6.5 12.0703 6.62695 11.9941 6.82031L10.8594 9.76758L7.70312 9.9375C7.49609 9.94922 7.31836 10.0879 7.25391 10.2832C7.19141 10.4785 7.25391 10.6953 7.41406 10.8262L9.86719 12.8184L9.05469 15.8711C9 16.0703 9.07617 16.2832 9.24219 16.4043C9.41016 16.5254 9.63477 16.5332 9.80859 16.4199L12.4609 14.7031L15.1152 16.4199C15.2871 16.5332 15.5137 16.5254 15.6797 16.4043C15.8477 16.2832 15.9219 16.0703 15.8691 15.8711L15.0547 12.8184L17.5078 10.8262C17.668 10.6953 17.7324 10.4785 17.668 10.2832C17.6055 10.0879 17.4258 9.94922 17.2207 9.9375L14.0645 9.76758L12.9277 6.82031C12.8535 6.62695 12.6699 6.5 12.4629 6.5ZM12.4609 8.39062L13.248 10.4297C13.3184 10.6133 13.4902 10.7383 13.6875 10.75L15.873 10.8672L14.1738 12.2461C14.0215 12.3711 13.9551 12.5723 14.0059 12.7637L14.5703 14.875L12.7344 13.6875C12.5684 13.5801 12.3555 13.5801 12.1895 13.6875L10.3535 14.875L10.916 12.7637C10.9668 12.5723 10.9023 12.3711 10.75 12.2461L9.05078 10.8672L11.2344 10.75C11.4316 10.7383 11.6035 10.6133 11.6738 10.4297L12.4609 8.39062Z" fill="black"/>
</svg>
