<svg width="1024" height="1024" viewBox="0 0 1024 1024" fill="none" xmlns="http://www.w3.org/2000/svg">
<path d="M186.811 311.61C191.031 310.903 194.631 310.07 197.611 309.11C212.831 304.217 225.867 296.767 236.721 286.76C254.341 270.53 267.621 253.16 270.651 229.18C270.668 229.046 270.656 228.911 270.616 228.782C270.576 228.653 270.509 228.535 270.419 228.433C270.329 228.332 270.219 228.251 270.095 228.195C269.971 228.14 269.837 228.11 269.701 228.11C246.314 228.043 225.667 228.07 207.761 228.19C202.861 228.223 199.604 228.573 197.991 229.24C190.057 232.533 186.114 238.693 186.161 247.72C186.327 282.753 186.374 303.9 186.301 311.16C186.3 311.225 186.313 311.29 186.34 311.35C186.366 311.41 186.405 311.463 186.454 311.506C186.502 311.549 186.559 311.58 186.621 311.598C186.683 311.616 186.747 311.62 186.811 311.61Z" stroke="#5BCAAF" stroke-width="2"/>
<path d="M500.45 455.3C500.422 455.342 500.403 455.39 500.395 455.441C500.387 455.491 500.39 455.542 500.403 455.591C500.416 455.64 500.44 455.686 500.472 455.726C500.504 455.765 500.544 455.797 500.59 455.82C532.75 471.77 559.73 496.83 578.79 527.14C578.952 527.4 579.178 527.615 579.448 527.763C579.717 527.912 580.021 527.99 580.33 527.99H636.98C637.131 527.99 637.276 527.93 637.383 527.823C637.49 527.716 637.55 527.571 637.55 527.42C637.52 471.03 637.15 439.24 637.67 419.26C637.743 416.406 638.643 412.616 640.37 407.89C643.51 399.28 649.7 393.34 658.17 390.29C658.454 390.187 658.699 390 658.873 389.753C659.046 389.506 659.14 389.212 659.14 388.91V336.14C659.14 336.065 659.113 335.993 659.063 335.938C659.013 335.882 658.944 335.847 658.87 335.84C623.28 332.04 592.5 312.24 572.26 283C561.49 267.45 553.78 247.83 553.76 228.74C553.76 228.562 553.689 228.392 553.564 228.266C553.438 228.14 553.268 228.07 553.09 228.07H294.15C293.977 228.07 293.811 228.136 293.687 228.255C293.562 228.375 293.488 228.537 293.48 228.71C292.793 243.583 288.957 257.596 281.97 270.75C263.01 306.47 227.47 332.35 186.68 335.92C186.563 335.927 186.454 335.98 186.374 336.068C186.294 336.155 186.25 336.27 186.25 336.39V455.26C186.251 455.416 186.308 455.567 186.411 455.684C186.514 455.802 186.655 455.878 186.81 455.9C215.99 459.753 240.253 472.453 259.6 494C259.704 494.114 259.831 494.206 259.971 494.27C260.112 494.334 260.265 494.368 260.419 494.369C260.573 494.371 260.725 494.341 260.867 494.281C261.008 494.221 261.135 494.132 261.24 494.02C282.74 471.193 308.107 454.826 337.34 444.92C337.473 444.874 337.595 444.799 337.697 444.702C337.8 444.605 337.88 444.487 337.933 444.357C337.986 444.226 338.01 444.086 338.005 443.945C337.999 443.804 337.963 443.666 337.9 443.54C318.05 404.31 323.94 356.11 349.22 320.96C374.43 285.9 417.91 269.35 458.48 287.65C471.88 293.69 482.28 302.67 491.57 313.95C518.64 346.81 526.46 394.69 511.38 434.2C508.733 441.12 505.09 448.153 500.45 455.3Z" stroke="#72D2BC" stroke-width="2"/>
<path d="M658.97 311.4C658.95 309.613 658.98 288.473 659.06 247.98C659.066 243.927 658.67 241.023 657.87 239.27C653.53 229.69 643.33 227.9 633.92 228.05C631.946 228.083 612.756 228.107 576.35 228.12C576.253 228.12 576.157 228.139 576.069 228.177C575.98 228.216 575.9 228.272 575.833 228.342C575.767 228.412 575.715 228.495 575.682 228.586C575.649 228.677 575.634 228.773 575.64 228.87C575.726 230.53 575.94 232.24 576.28 234C580.45 255.31 591.88 272 608.68 286.67C623.38 299.51 638.9 308.75 658.4 311.88C658.47 311.891 658.541 311.888 658.61 311.869C658.678 311.85 658.741 311.817 658.795 311.771C658.85 311.726 658.893 311.669 658.923 311.605C658.953 311.541 658.969 311.471 658.97 311.4Z" stroke="#5BCAAF" stroke-width="2"/>
<path d="M846.55 747.97C857.003 747.977 867.57 748.013 878.25 748.08C880.65 748.093 881.923 748.027 882.07 747.88C882.275 747.662 882.389 747.376 882.39 747.08L882.08 314.12C882.08 313.617 881.999 313.114 881.84 312.63C879.49 305.7 873.55 302.48 866.5 302.37C859.713 302.257 853.076 302.2 846.59 302.2C840.103 302.2 833.466 302.253 826.68 302.36C819.64 302.48 813.7 305.69 811.34 312.62C811.181 313.104 811.1 313.606 811.1 314.11L810.72 747.07C810.72 747.366 810.835 747.652 811.04 747.87C811.186 748.017 812.46 748.083 814.86 748.07C825.54 748.003 836.103 747.97 846.55 747.97Z" stroke="#5BCAAF" stroke-width="2"/>
<path d="M476.93 445.17C477.286 445.298 477.674 445.301 478.032 445.179C478.39 445.058 478.696 444.818 478.9 444.5C488.273 429.907 493.2 413.983 493.68 396.73C493.88 389.463 493.507 383.02 492.56 377.4C487.2 345.82 465.66 308.99 429.87 305.47C422.51 304.743 415.003 305.52 407.35 307.8C374.11 317.71 354.44 350.43 351.42 383.77C349.74 402.283 353.113 419.84 361.54 436.44C361.643 436.641 361.806 436.804 362.007 436.907C362.209 437.009 362.437 437.045 362.66 437.01C368.68 436.06 374.87 434.63 380.31 434.01C413.303 430.197 445.51 433.917 476.93 445.17Z" stroke="#5BCAAF" stroke-width="2"/>
<path d="M664.14 748.12H734.02C734.246 748.12 734.462 748.03 734.621 747.871C734.78 747.712 734.87 747.495 734.87 747.27V427.82C734.87 424.277 733.844 420.879 732.017 418.373C730.191 415.868 727.713 414.46 725.13 414.46H673.03C671.751 414.46 670.484 414.806 669.303 415.477C668.121 416.148 667.047 417.132 666.143 418.373C665.238 419.614 664.521 421.086 664.031 422.707C663.542 424.328 663.29 426.066 663.29 427.82V747.27C663.29 747.495 663.38 747.712 663.539 747.871C663.698 748.03 663.915 748.12 664.14 748.12Z" stroke="#72D2BC" stroke-width="2"/>
<path d="M229.84 640.68C230.38 649.707 231.227 656.94 232.38 662.38C238.934 693.393 252.407 720.987 272.8 745.16C291.21 766.98 312.25 783.39 339.05 794.19C366.02 805.06 392.94 810.19 421.05 807.55C445.4 805.27 470.18 798.18 491.53 786.26C500.49 781.26 509.21 775.197 517.69 768.07C568.61 725.28 594.02 656.13 577.31 590.42C567.98 553.74 546.15 520.71 517.04 496.45C507.387 488.417 496.747 481.643 485.12 476.13C460.367 464.403 434.257 458.343 406.79 457.95C356.75 457.23 307.54 479.65 273.71 516.98C261.63 530.31 252.76 544.36 245.63 560.13C234.4 584.99 228.19 613.13 229.84 640.68Z" stroke="#7CD6C1" stroke-width="2"/>
<path d="M186.22 479.24C186.287 516.24 186.27 536.09 186.17 538.79C185.84 548.26 187.03 554.87 195.37 559.16C200.79 561.95 209.85 561.48 215.99 560.53C216.414 560.466 216.813 560.291 217.148 560.025C217.483 559.758 217.742 559.408 217.9 559.01C224.187 543.257 232.474 528.483 242.76 514.69C242.964 514.416 243.07 514.082 243.059 513.742C243.048 513.402 242.921 513.077 242.7 512.82C235.67 504.55 226.73 497.54 217.84 491.67C208.294 485.37 197.94 481.077 186.78 478.79C186.712 478.777 186.642 478.778 186.575 478.795C186.507 478.811 186.445 478.842 186.391 478.885C186.337 478.928 186.294 478.982 186.265 479.043C186.235 479.105 186.22 479.172 186.22 479.24Z" stroke="#5BCAAF" stroke-width="2"/>
<path d="M390.36 735.84C390.564 735.876 390.748 735.982 390.88 736.139C391.012 736.297 391.083 736.496 391.08 736.7C391.034 742.34 390.997 746.583 390.97 749.43C390.94 752.6 391.53 756.46 392.88 759.41C394.89 763.78 399.18 764.79 403.76 764.96C408.42 765.13 413.45 763.9 415.27 759.22C416.35 756.433 416.92 753.77 416.98 751.23C417.1 746.003 417.147 741.21 417.12 736.85C417.118 736.699 417.171 736.552 417.268 736.436C417.366 736.321 417.501 736.244 417.65 736.22C434.1 733.64 450.81 725.46 461.38 712.14C469.794 701.553 474.15 689.787 474.45 676.84C474.85 659.27 468.01 643.98 453.99 633.86C439.62 623.49 422.98 619.21 404.63 615.34C399.404 614.233 393.844 612.57 387.95 610.35C381.75 608.017 377.027 604.5 373.78 599.8C367.62 590.88 367.31 578.85 373.3 569.74C381.96 556.57 401.5 554.35 415.53 557.76C427.57 560.69 434.78 568.77 438.57 580.4C439.52 583.29 441.34 585.02 444.24 585.04C450.207 585.073 454.057 585.087 455.79 585.08C462.09 585.05 469.31 585.05 467.49 576.76C465.95 569.793 463.097 562.73 458.93 555.57C449.73 539.79 435.87 531.99 417.99 528.81C417.73 528.766 417.494 528.63 417.327 528.426C417.16 528.222 417.072 527.964 417.08 527.7C417.24 522.453 417.187 517.677 416.92 513.37C416.32 503.6 408.25 501.05 399.95 502.75C391.59 504.45 390.83 511.67 390.97 519.11C391.037 522.583 391.107 525.543 391.18 527.99C391.186 528.241 391.104 528.486 390.949 528.683C390.794 528.88 390.575 529.017 390.33 529.07C381.76 530.97 374.42 533.01 366 537.76C351.007 546.213 342.237 559.107 339.69 576.44C337.3 592.73 339.71 611.62 351.58 623.42C357.187 628.993 364.12 633.47 372.38 636.85C378.507 639.357 385.03 641.34 391.95 642.8C408.22 646.25 427.59 648.51 438.7 662.59C442.774 667.75 444.407 673.743 443.6 680.57C441.85 695.39 429.71 704.26 415.55 706.1C411.57 706.62 406.397 706.717 400.03 706.39C392.877 706.03 386.34 704.21 380.42 700.93C372.81 696.71 368.6 690.58 365.78 682.44C364.4 678.44 362.71 676.04 358.49 675.96C353.037 675.853 347.374 675.867 341.5 676C335.13 676.15 333.29 678.86 334.7 685.02C337.48 697.18 343.06 707.87 351.44 717.09C361.54 728.2 375.65 733.21 390.36 735.84Z" stroke="#7CD6C1" stroke-width="2"/>
<path d="M209.13 589.46C209.104 589.314 209.028 589.182 208.914 589.087C208.801 588.992 208.658 588.94 208.51 588.94C203.8 588.9 198.71 588.95 193.92 587.85C174.95 583.46 160.32 567.34 160.33 547.5C160.343 361.847 160.323 261.003 160.27 244.97C160.23 234.523 163.257 225.567 169.35 218.1C178.383 207.027 190.437 201.497 205.51 201.51C321.763 201.577 465.18 201.58 635.76 201.52C643.61 201.52 649.74 201.64 656.21 203.92C670.01 208.8 682.09 221.25 684.49 236.02C685.037 239.413 685.297 243.91 685.27 249.51C685.037 290.943 685.01 336.773 685.19 387C685.19 387.176 685.225 387.351 685.293 387.514C685.361 387.676 685.461 387.824 685.587 387.948C685.712 388.071 685.861 388.169 686.025 388.235C686.189 388.3 686.364 388.333 686.54 388.33C703.14 388.157 713.71 388.123 718.25 388.23C733.19 388.58 748.78 395.18 755.43 409.2C758.257 415.16 759.67 421.843 759.67 429.25C759.59 588.677 759.597 694.69 759.69 747.29C759.69 747.587 759.808 747.872 760.018 748.082C760.228 748.292 760.513 748.41 760.81 748.41H785.14C785.469 748.41 785.784 748.279 786.017 748.047C786.249 747.814 786.38 747.499 786.38 747.17C786.413 603.057 786.377 457.5 786.27 310.5C786.263 304.38 786.967 299.333 788.38 295.36C794.25 278.83 808.28 275.12 824.25 274.47C827.183 274.35 839.56 274.28 861.38 274.26C871.86 274.253 879.037 274.887 882.91 276.16C899.47 281.63 908.49 296.9 908.48 314.25C908.36 493.79 908.36 638.08 908.48 747.12C908.479 747.3 908.516 747.478 908.588 747.643C908.66 747.808 908.765 747.957 908.898 748.08C909.03 748.203 909.186 748.297 909.357 748.357C909.528 748.418 909.709 748.442 909.89 748.43C913.45 748.157 916.857 748.3 920.11 748.86C929.25 750.44 933.38 759.34 929.02 767.33C925.6 773.57 918.93 775.18 912.25 775.51C910.03 775.617 905.53 775.67 898.75 775.67C880.85 775.663 765.183 775.637 551.75 775.59C550.257 775.59 549.057 775.703 548.15 775.93C547.828 776.015 547.533 776.18 547.29 776.41C511.65 810.76 467.84 830.25 418.21 833.47C415.397 833.657 409.073 833.757 399.24 833.77C383.04 833.8 366.4 831.34 352.24 827.28C279.43 806.39 223.35 744.65 208.67 670.86C207.623 665.593 206.58 658.64 205.54 650C203.13 629.98 204.92 609.67 209.08 590.12C209.14 589.84 209.157 589.62 209.13 589.46ZM186.81 311.61C191.03 310.903 194.63 310.07 197.61 309.11C212.83 304.217 225.867 296.767 236.72 286.76C254.34 270.53 267.62 253.16 270.65 229.18C270.667 229.047 270.655 228.911 270.615 228.782C270.575 228.654 270.508 228.535 270.418 228.433C270.328 228.332 270.218 228.251 270.094 228.195C269.97 228.14 269.836 228.111 269.7 228.11C246.313 228.043 225.667 228.07 207.76 228.19C202.86 228.223 199.603 228.573 197.99 229.24C190.057 232.533 186.113 238.693 186.16 247.72C186.327 282.753 186.373 303.9 186.3 311.16C186.299 311.226 186.313 311.29 186.339 311.35C186.366 311.41 186.404 311.463 186.453 311.506C186.502 311.549 186.559 311.58 186.62 311.598C186.682 311.616 186.747 311.62 186.81 311.61ZM500.45 455.3C500.422 455.343 500.403 455.391 500.395 455.441C500.387 455.491 500.39 455.542 500.403 455.592C500.416 455.641 500.44 455.686 500.472 455.726C500.504 455.765 500.544 455.797 500.59 455.82C532.75 471.77 559.73 496.83 578.79 527.14C578.952 527.4 579.178 527.615 579.448 527.763C579.717 527.912 580.021 527.99 580.33 527.99H636.98C637.131 527.99 637.276 527.93 637.383 527.823C637.49 527.716 637.55 527.571 637.55 527.42C637.52 471.03 637.15 439.24 637.67 419.26C637.743 416.407 638.643 412.617 640.37 407.89C643.51 399.28 649.7 393.34 658.17 390.29C658.454 390.187 658.699 390 658.873 389.753C659.046 389.506 659.139 389.212 659.14 388.91V336.14C659.14 336.065 659.113 335.993 659.063 335.938C659.013 335.882 658.944 335.848 658.87 335.84C623.28 332.04 592.5 312.24 572.26 283C561.49 267.45 553.78 247.83 553.76 228.74C553.76 228.562 553.689 228.392 553.564 228.266C553.438 228.141 553.268 228.07 553.09 228.07H294.15C293.977 228.07 293.811 228.136 293.686 228.256C293.562 228.375 293.488 228.538 293.48 228.71C292.793 243.583 288.957 257.597 281.97 270.75C263.01 306.47 227.47 332.35 186.68 335.92C186.563 335.928 186.454 335.981 186.374 336.068C186.294 336.155 186.25 336.27 186.25 336.39V455.26C186.251 455.416 186.308 455.567 186.411 455.684C186.514 455.802 186.655 455.878 186.81 455.9C215.99 459.753 240.253 472.453 259.6 494C259.704 494.115 259.83 494.207 259.971 494.27C260.112 494.334 260.265 494.368 260.419 494.37C260.573 494.371 260.725 494.341 260.867 494.281C261.008 494.221 261.135 494.132 261.24 494.02C282.74 471.193 308.107 454.827 337.34 444.92C337.473 444.874 337.595 444.8 337.697 444.703C337.799 444.605 337.88 444.488 337.933 444.357C337.986 444.226 338.01 444.086 338.005 443.945C337.999 443.804 337.963 443.666 337.9 443.54C318.05 404.31 323.94 356.11 349.22 320.96C374.43 285.9 417.91 269.35 458.48 287.65C471.88 293.69 482.28 302.67 491.57 313.95C518.64 346.81 526.46 394.69 511.38 434.2C508.733 441.12 505.09 448.153 500.45 455.3ZM658.97 311.4C658.95 309.613 658.98 288.473 659.06 247.98C659.067 243.927 658.67 241.023 657.87 239.27C653.53 229.69 643.33 227.9 633.92 228.05C631.947 228.083 612.757 228.107 576.35 228.12C576.253 228.12 576.158 228.139 576.069 228.178C575.98 228.216 575.9 228.272 575.833 228.342C575.767 228.412 575.715 228.495 575.682 228.586C575.649 228.677 575.634 228.773 575.64 228.87C575.727 230.53 575.94 232.24 576.28 234C580.45 255.31 591.88 272 608.68 286.67C623.38 299.51 638.9 308.75 658.4 311.88C658.47 311.892 658.541 311.888 658.61 311.869C658.678 311.85 658.741 311.817 658.796 311.771C658.85 311.726 658.893 311.669 658.923 311.605C658.954 311.541 658.969 311.471 658.97 311.4ZM846.55 747.97C857.003 747.977 867.57 748.013 878.25 748.08C880.65 748.093 881.923 748.027 882.07 747.88C882.275 747.662 882.39 747.376 882.39 747.08L882.08 314.12C882.08 313.617 881.999 313.114 881.84 312.63C879.49 305.7 873.55 302.48 866.5 302.37C859.713 302.257 853.077 302.2 846.59 302.2C840.103 302.2 833.467 302.253 826.68 302.36C819.64 302.48 813.7 305.69 811.34 312.62C811.181 313.104 811.1 313.607 811.1 314.11L810.72 747.07C810.72 747.366 810.835 747.652 811.04 747.87C811.187 748.017 812.46 748.083 814.86 748.07C825.54 748.003 836.103 747.97 846.55 747.97ZM476.93 445.17C477.286 445.298 477.674 445.301 478.032 445.179C478.39 445.058 478.696 444.818 478.9 444.5C488.273 429.907 493.2 413.983 493.68 396.73C493.88 389.463 493.507 383.02 492.56 377.4C487.2 345.82 465.66 308.99 429.87 305.47C422.51 304.743 415.003 305.52 407.35 307.8C374.11 317.71 354.44 350.43 351.42 383.77C349.74 402.283 353.113 419.84 361.54 436.44C361.643 436.641 361.806 436.804 362.007 436.907C362.209 437.009 362.437 437.045 362.66 437.01C368.68 436.06 374.87 434.63 380.31 434.01C413.303 430.197 445.51 433.917 476.93 445.17ZM664.14 748.12H734.02C734.245 748.12 734.462 748.031 734.621 747.871C734.78 747.712 734.87 747.496 734.87 747.27V427.82C734.87 424.277 733.844 420.879 732.017 418.373C730.191 415.868 727.713 414.46 725.13 414.46H673.03C671.751 414.46 670.484 414.806 669.303 415.477C668.121 416.148 667.047 417.133 666.143 418.373C665.238 419.614 664.521 421.086 664.031 422.707C663.542 424.328 663.29 426.066 663.29 427.82V747.27C663.29 747.496 663.379 747.712 663.539 747.871C663.698 748.031 663.914 748.12 664.14 748.12ZM229.84 640.68C230.38 649.707 231.227 656.94 232.38 662.38C238.933 693.393 252.407 720.987 272.8 745.16C291.21 766.98 312.25 783.39 339.05 794.19C366.02 805.06 392.94 810.19 421.05 807.55C445.4 805.27 470.18 798.18 491.53 786.26C500.49 781.26 509.21 775.197 517.69 768.07C568.61 725.28 594.02 656.13 577.31 590.42C567.98 553.74 546.15 520.71 517.04 496.45C507.387 488.417 496.747 481.643 485.12 476.13C460.367 464.403 434.257 458.343 406.79 457.95C356.75 457.23 307.54 479.65 273.71 516.98C261.63 530.31 252.76 544.36 245.63 560.13C234.4 584.99 228.19 613.13 229.84 640.68ZM186.22 479.24C186.287 516.24 186.27 536.09 186.17 538.79C185.84 548.26 187.03 554.87 195.37 559.16C200.79 561.95 209.85 561.48 215.99 560.53C216.413 560.466 216.813 560.292 217.148 560.025C217.483 559.758 217.742 559.408 217.9 559.01C224.187 543.257 232.473 528.483 242.76 514.69C242.964 514.417 243.069 514.082 243.059 513.742C243.048 513.402 242.921 513.077 242.7 512.82C235.67 504.55 226.73 497.54 217.84 491.67C208.293 485.37 197.94 481.077 186.78 478.79C186.712 478.777 186.642 478.778 186.574 478.795C186.507 478.811 186.444 478.842 186.391 478.885C186.337 478.928 186.294 478.982 186.265 479.044C186.235 479.105 186.22 479.172 186.22 479.24ZM593.59 557C604.35 584.167 608.963 612.58 607.43 642.24C605.48 679.96 592.23 716.05 571.17 747.26C571.1 747.367 571.06 747.491 571.054 747.618C571.048 747.746 571.077 747.873 571.138 747.986C571.198 748.098 571.288 748.193 571.397 748.258C571.507 748.324 571.632 748.359 571.76 748.36H636.36C636.813 748.36 637.248 748.18 637.569 747.859C637.89 747.539 638.07 747.104 638.07 746.65V557.16C638.07 556.778 637.918 556.412 637.648 556.142C637.378 555.872 637.012 555.72 636.63 555.72H594.46C594.306 555.721 594.155 555.759 594.02 555.831C593.885 555.903 593.769 556.007 593.683 556.133C593.597 556.259 593.544 556.404 593.528 556.555C593.511 556.707 593.533 556.859 593.59 557Z" fill="#31B19A"/>
<path d="M186.81 311.61C186.746 311.62 186.682 311.616 186.62 311.598C186.558 311.58 186.501 311.549 186.453 311.506C186.404 311.463 186.365 311.41 186.339 311.35C186.312 311.29 186.299 311.225 186.3 311.16C186.373 303.9 186.326 282.753 186.16 247.72C186.113 238.693 190.056 232.533 197.99 229.24C199.603 228.573 202.86 228.223 207.76 228.19C225.666 228.07 246.313 228.043 269.7 228.11C269.836 228.11 269.97 228.14 270.094 228.195C270.218 228.251 270.328 228.332 270.418 228.433C270.508 228.535 270.575 228.653 270.615 228.782C270.655 228.911 270.667 229.046 270.65 229.18C267.62 253.16 254.34 270.53 236.72 286.76C225.866 296.767 212.83 304.217 197.61 309.11C194.63 310.07 191.03 310.903 186.81 311.61Z" fill="#84E2C4"/>
<path d="M500.45 455.3C505.09 448.153 508.733 441.12 511.38 434.2C526.46 394.69 518.64 346.81 491.57 313.95C482.28 302.67 471.88 293.69 458.48 287.65C417.91 269.35 374.43 285.9 349.22 320.96C323.94 356.11 318.05 404.31 337.9 443.54C337.963 443.666 337.999 443.804 338.005 443.945C338.01 444.086 337.986 444.226 337.933 444.357C337.88 444.488 337.8 444.605 337.697 444.703C337.595 444.8 337.473 444.874 337.34 444.92C308.107 454.827 282.74 471.193 261.24 494.02C261.135 494.132 261.008 494.221 260.867 494.281C260.725 494.341 260.573 494.372 260.419 494.37C260.265 494.368 260.112 494.334 259.971 494.27C259.831 494.207 259.704 494.115 259.6 494C240.253 472.453 215.99 459.753 186.81 455.9C186.655 455.878 186.514 455.802 186.411 455.684C186.308 455.567 186.251 455.416 186.25 455.26V336.39C186.25 336.27 186.294 336.155 186.374 336.068C186.454 335.981 186.563 335.928 186.68 335.92C227.47 332.35 263.01 306.47 281.97 270.75C288.957 257.597 292.793 243.583 293.48 228.71C293.488 228.538 293.562 228.375 293.687 228.256C293.811 228.136 293.977 228.07 294.15 228.07H553.09C553.268 228.07 553.438 228.141 553.564 228.266C553.689 228.392 553.76 228.562 553.76 228.74C553.78 247.83 561.49 267.45 572.26 283C592.5 312.24 623.28 332.04 658.87 335.84C658.944 335.848 659.013 335.882 659.063 335.938C659.113 335.993 659.14 336.065 659.14 336.14V388.91C659.14 389.212 659.046 389.506 658.873 389.753C658.699 390 658.454 390.187 658.17 390.29C649.7 393.34 643.51 399.28 640.37 407.89C638.643 412.617 637.743 416.407 637.67 419.26C637.15 439.24 637.52 471.03 637.55 527.42C637.55 527.571 637.49 527.716 637.383 527.823C637.276 527.93 637.131 527.99 636.98 527.99H580.33C580.021 527.99 579.717 527.912 579.448 527.763C579.178 527.615 578.952 527.4 578.79 527.14C559.73 496.83 532.75 471.77 500.59 455.82C500.544 455.797 500.504 455.765 500.472 455.726C500.44 455.686 500.416 455.641 500.403 455.592C500.39 455.542 500.387 455.491 500.395 455.441C500.403 455.391 500.422 455.343 500.45 455.3Z" fill="#B2F3DD"/>
<path d="M658.97 311.4C658.969 311.471 658.953 311.541 658.923 311.605C658.893 311.669 658.85 311.726 658.795 311.771C658.741 311.817 658.678 311.85 658.61 311.869C658.541 311.888 658.47 311.891 658.4 311.88C638.9 308.75 623.38 299.51 608.68 286.67C591.88 272 580.45 255.31 576.28 234C575.94 232.24 575.726 230.53 575.64 228.87C575.634 228.773 575.649 228.677 575.682 228.586C575.715 228.495 575.767 228.412 575.833 228.342C575.9 228.272 575.98 228.216 576.069 228.177C576.157 228.139 576.253 228.12 576.35 228.12C612.756 228.107 631.946 228.083 633.92 228.05C643.33 227.9 653.53 229.69 657.87 239.27C658.67 241.023 659.066 243.927 659.06 247.98C658.98 288.473 658.95 309.613 658.97 311.4Z" fill="#84E2C4"/>
<path d="M846.59 302.2C853.076 302.2 859.713 302.257 866.5 302.37C873.55 302.48 879.49 305.7 881.84 312.63C881.999 313.114 882.08 313.617 882.08 314.12L882.39 747.08C882.389 747.376 882.275 747.662 882.07 747.88C881.923 748.027 880.65 748.093 878.25 748.08C867.57 748.013 857.003 747.977 846.55 747.97C836.103 747.97 825.54 748.003 814.86 748.07C812.46 748.083 811.186 748.017 811.04 747.87C810.835 747.652 810.72 747.366 810.72 747.07L811.1 314.11C811.1 313.606 811.181 313.104 811.34 312.62C813.7 305.69 819.64 302.48 826.68 302.36C833.466 302.253 840.103 302.2 846.59 302.2Z" fill="#84E2C4"/>
<path d="M476.93 445.17C445.51 433.917 413.303 430.197 380.31 434.01C374.87 434.63 368.68 436.06 362.66 437.01C362.437 437.045 362.209 437.009 362.007 436.907C361.806 436.804 361.643 436.641 361.54 436.44C353.113 419.84 349.74 402.283 351.42 383.77C354.44 350.43 374.11 317.71 407.35 307.8C415.003 305.52 422.51 304.743 429.87 305.47C465.66 308.99 487.2 345.82 492.56 377.4C493.507 383.02 493.88 389.463 493.68 396.73C493.2 413.983 488.273 429.907 478.9 444.5C478.696 444.818 478.39 445.058 478.032 445.179C477.674 445.301 477.286 445.298 476.93 445.17Z" fill="#84E2C4"/>
<path d="M664.14 748.12C663.915 748.12 663.698 748.03 663.539 747.871C663.38 747.712 663.29 747.495 663.29 747.27V427.82C663.29 426.066 663.542 424.328 664.031 422.707C664.521 421.086 665.238 419.614 666.143 418.373C667.047 417.132 668.121 416.148 669.303 415.477C670.484 414.806 671.751 414.46 673.03 414.46H725.13C727.713 414.46 730.191 415.868 732.017 418.373C733.844 420.879 734.87 424.277 734.87 427.82V747.27C734.87 747.495 734.781 747.712 734.621 747.871C734.462 748.03 734.246 748.12 734.02 748.12H664.14Z" fill="#B2F3DD"/>
<path d="M229.84 640.68C228.19 613.13 234.4 584.99 245.63 560.13C252.76 544.36 261.63 530.31 273.71 516.98C307.54 479.65 356.75 457.23 406.79 457.95C434.257 458.343 460.367 464.403 485.12 476.13C496.747 481.643 507.387 488.417 517.04 496.45C546.15 520.71 567.98 553.74 577.31 590.42C594.02 656.13 568.61 725.28 517.69 768.07C509.21 775.197 500.49 781.26 491.53 786.26C470.18 798.18 445.4 805.27 421.05 807.55C392.94 810.19 366.02 805.06 339.05 794.19C312.25 783.39 291.21 766.98 272.8 745.16C252.407 720.987 238.934 693.393 232.38 662.38C231.227 656.94 230.38 649.707 229.84 640.68ZM390.36 735.84C390.564 735.876 390.748 735.982 390.88 736.139C391.012 736.297 391.083 736.496 391.08 736.7C391.034 742.34 390.997 746.583 390.97 749.43C390.94 752.6 391.53 756.46 392.88 759.41C394.89 763.78 399.18 764.79 403.76 764.96C408.42 765.13 413.45 763.9 415.27 759.22C416.35 756.433 416.92 753.77 416.98 751.23C417.1 746.003 417.147 741.21 417.12 736.85C417.118 736.699 417.171 736.552 417.268 736.436C417.365 736.321 417.501 736.244 417.65 736.22C434.1 733.64 450.81 725.46 461.38 712.14C469.794 701.553 474.15 689.787 474.45 676.84C474.85 659.27 468.01 643.98 453.99 633.86C439.62 623.49 422.98 619.21 404.63 615.34C399.404 614.233 393.844 612.57 387.95 610.35C381.75 608.017 377.027 604.5 373.78 599.8C367.62 590.88 367.31 578.85 373.3 569.74C381.96 556.57 401.5 554.35 415.53 557.76C427.57 560.69 434.78 568.77 438.57 580.4C439.52 583.29 441.34 585.02 444.24 585.04C450.207 585.073 454.057 585.087 455.79 585.08C462.09 585.05 469.31 585.05 467.49 576.76C465.95 569.793 463.097 562.73 458.93 555.57C449.73 539.79 435.87 531.99 417.99 528.81C417.73 528.766 417.494 528.63 417.327 528.426C417.159 528.222 417.072 527.964 417.08 527.7C417.24 522.453 417.187 517.677 416.92 513.37C416.32 503.6 408.25 501.05 399.95 502.75C391.59 504.45 390.83 511.67 390.97 519.11C391.037 522.583 391.107 525.543 391.18 527.99C391.186 528.241 391.104 528.486 390.949 528.683C390.794 528.88 390.575 529.017 390.33 529.07C381.76 530.97 374.42 533.01 366 537.76C351.007 546.213 342.237 559.107 339.69 576.44C337.3 592.73 339.71 611.62 351.58 623.42C357.187 628.993 364.12 633.47 372.38 636.85C378.507 639.357 385.03 641.34 391.95 642.8C408.22 646.25 427.59 648.51 438.7 662.59C442.774 667.75 444.407 673.743 443.6 680.57C441.85 695.39 429.71 704.26 415.55 706.1C411.57 706.62 406.397 706.717 400.03 706.39C392.877 706.03 386.34 704.21 380.42 700.93C372.81 696.71 368.6 690.58 365.78 682.44C364.4 678.44 362.71 676.04 358.49 675.96C353.037 675.853 347.374 675.867 341.5 676C335.13 676.15 333.29 678.86 334.7 685.02C337.48 697.18 343.06 707.87 351.44 717.09C361.54 728.2 375.65 733.21 390.36 735.84Z" fill="#C6FAE8"/>
<path d="M186.22 479.24C186.22 479.172 186.235 479.105 186.265 479.043C186.294 478.982 186.337 478.928 186.391 478.885C186.445 478.842 186.507 478.811 186.575 478.795C186.642 478.778 186.712 478.777 186.78 478.79C197.94 481.077 208.294 485.37 217.84 491.67C226.73 497.54 235.67 504.55 242.7 512.82C242.921 513.077 243.048 513.402 243.059 513.742C243.07 514.082 242.964 514.416 242.76 514.69C232.474 528.483 224.187 543.257 217.9 559.01C217.742 559.408 217.483 559.758 217.148 560.025C216.813 560.291 216.414 560.466 215.99 560.53C209.85 561.48 200.79 561.95 195.37 559.16C187.03 554.87 185.84 548.26 186.17 538.79C186.27 536.09 186.287 516.24 186.22 479.24Z" fill="#84E2C4"/>
<path d="M390.36 735.84C375.65 733.21 361.54 728.2 351.44 717.09C343.06 707.87 337.48 697.18 334.7 685.02C333.29 678.86 335.13 676.15 341.5 676C347.374 675.867 353.037 675.853 358.49 675.96C362.71 676.04 364.4 678.44 365.78 682.44C368.6 690.58 372.81 696.71 380.42 700.93C386.34 704.21 392.877 706.03 400.03 706.39C406.397 706.717 411.57 706.62 415.55 706.1C429.71 704.26 441.85 695.39 443.6 680.57C444.407 673.743 442.774 667.75 438.7 662.59C427.59 648.51 408.22 646.25 391.95 642.8C385.03 641.34 378.507 639.357 372.38 636.85C364.12 633.47 357.187 628.993 351.58 623.42C339.71 611.62 337.3 592.73 339.69 576.44C342.237 559.107 351.007 546.213 366 537.76C374.42 533.01 381.76 530.97 390.33 529.07C390.575 529.017 390.794 528.88 390.949 528.683C391.104 528.486 391.186 528.241 391.18 527.99C391.107 525.543 391.037 522.583 390.97 519.11C390.83 511.67 391.59 504.45 399.95 502.75C408.25 501.05 416.32 503.6 416.92 513.37C417.187 517.677 417.24 522.453 417.08 527.7C417.072 527.964 417.16 528.222 417.327 528.426C417.494 528.63 417.73 528.766 417.99 528.81C435.87 531.99 449.73 539.79 458.93 555.57C463.097 562.73 465.95 569.793 467.49 576.76C469.31 585.05 462.09 585.05 455.79 585.08C454.057 585.087 450.207 585.073 444.24 585.04C441.34 585.02 439.52 583.29 438.57 580.4C434.78 568.77 427.57 560.69 415.53 557.76C401.5 554.35 381.96 556.57 373.3 569.74C367.31 578.85 367.62 590.88 373.78 599.8C377.027 604.5 381.75 608.017 387.95 610.35C393.844 612.57 399.404 614.233 404.63 615.34C422.98 619.21 439.62 623.49 453.99 633.86C468.01 643.98 474.85 659.27 474.45 676.84C474.15 689.787 469.794 701.553 461.38 712.14C450.81 725.46 434.1 733.64 417.65 736.22C417.501 736.244 417.366 736.321 417.268 736.436C417.171 736.552 417.118 736.699 417.12 736.85C417.147 741.21 417.1 746.003 416.98 751.23C416.92 753.77 416.35 756.433 415.27 759.22C413.45 763.9 408.42 765.13 403.76 764.96C399.18 764.79 394.89 763.78 392.88 759.41C391.53 756.46 390.94 752.6 390.97 749.43C390.997 746.583 391.034 742.34 391.08 736.7C391.083 736.496 391.012 736.297 390.88 736.139C390.748 735.982 390.564 735.876 390.36 735.84Z" fill="#31B19A"/>
</svg>
