<svg width="1024" height="1024" viewBox="0 0 1024 1024" fill="none" xmlns="http://www.w3.org/2000/svg">
<path d="M764.95 430.65C757.52 426.76 748.38 424.15 740.58 421.93C735.64 420.53 731.233 419.52 727.36 418.9C713.173 416.647 700.47 415.44 689.25 415.28C671.003 415.013 646.787 415.643 616.6 417.17C606.1 417.7 593.82 417.78 583.16 418.57C580.267 418.79 573.323 419.103 562.33 419.51C552.45 419.877 545.507 420.22 541.5 420.54C535.45 421.02 530.12 420.99 523.84 421.35C489.433 423.31 458.323 425.077 430.51 426.65C406.243 428.03 384.407 429.45 365 430.91C354.193 431.723 343.533 431.153 333.02 429.2C317.3 426.28 303.887 419.14 292.78 407.78C285.953 400.8 280.01 394.58 274.95 389.12C249.723 361.88 234.437 345.403 229.09 339.69C223.69 333.93 220.31 329.89 211.94 329.8C201.2 329.68 191.813 329.593 183.78 329.54C183.66 329.54 183.541 329.567 183.434 329.621C183.326 329.675 183.233 329.753 183.161 329.849C183.089 329.945 183.041 330.057 183.02 330.175C182.999 330.293 183.006 330.415 183.04 330.53L212.35 429.39C212.418 429.62 212.561 429.821 212.756 429.962C212.951 430.103 213.188 430.176 213.43 430.17C225.63 429.89 238.26 429.94 248.87 430.45C257.763 430.877 266.233 432.14 274.28 434.24C281.96 436.25 286.72 437.04 291.01 441.95C298.93 451.03 289.17 459.14 281.87 464.12C275.77 468.293 271.997 470.833 270.55 471.74C263.697 476.033 256.343 478.277 248.49 478.47C248.377 478.472 248.268 478.507 248.176 478.572C248.084 478.636 248.014 478.727 247.973 478.833C247.932 478.939 247.924 479.055 247.948 479.166C247.972 479.278 248.029 479.38 248.11 479.46C248.37 479.707 248.927 480.05 249.78 480.49C261.07 486.29 275.7 493.5 288.66 498.27C304.867 504.237 319.263 508.59 331.85 511.33C356.123 516.61 383.427 519.973 413.76 521.42C415.88 521.52 418.053 520.813 420.28 519.3C422.2 517.993 434.937 509.553 458.49 493.98C461.223 492.173 464.177 490.413 467.35 488.7C471.1 486.68 474.17 486.31 478.5 486.1C489.093 485.58 499.01 485.227 508.25 485.04C540.61 484.393 572.86 483.76 605 483.14C622.86 482.8 637.777 482.897 649.75 483.43C656.85 483.75 666.22 485.88 664.01 494.93C663.19 498.33 660.26 500.7 657.38 502.4C654.087 504.347 650.17 506.34 645.63 508.38C633.883 513.653 623.053 518.647 613.14 523.36C609.213 525.227 605.363 526.877 601.59 528.31C601.539 528.328 601.496 528.361 601.465 528.405C601.434 528.449 601.417 528.501 601.417 528.555C601.417 528.609 601.434 528.661 601.465 528.705C601.496 528.749 601.539 528.782 601.59 528.8C603.357 529.44 605.18 530.037 607.06 530.59C608.08 530.897 609.983 531.08 612.77 531.14C654.363 532.087 694.407 531.787 732.9 530.24C756.88 529.28 781.21 527.1 805.59 521.77C814.023 519.93 822.527 517.36 831.1 514.06C837.26 511.69 844.06 508.57 847.51 503C848.67 501.12 849.02 498.773 848.56 495.96C847.47 489.39 836.9 483.95 831.74 481.25C820.72 475.483 813.85 471.967 811.13 470.7C809.839 470.1 808.43 469.786 807 469.78C785.127 469.673 762.563 469.613 739.31 469.6C738.177 469.6 736.803 469.557 735.19 469.47C731.43 469.27 727.73 469.29 724.95 468.58C709.7 464.69 704.15 443.28 717.88 434.14C722.45 431.1 726.67 431.24 732.75 431.19C745.77 431.077 756.46 431.067 764.82 431.16C764.881 431.161 764.941 431.142 764.99 431.105C765.038 431.068 765.073 431.016 765.088 430.957C765.103 430.898 765.098 430.835 765.073 430.779C765.047 430.724 765.004 430.678 764.95 430.65Z" stroke="#F1B91A" stroke-width="2"/>
<path d="M260.46 453.47C256.56 451.77 251.77 451.88 246.81 451.82C221.51 451.56 196.7 451.573 172.38 451.86C172.261 451.86 172.144 451.892 172.041 451.952C171.939 452.013 171.854 452.099 171.796 452.203C171.738 452.307 171.709 452.424 171.711 452.543C171.713 452.662 171.747 452.779 171.81 452.88C174.22 456.81 179.69 457.18 184.5 457.23C193 457.323 209.46 457.357 233.88 457.33C242.82 457.32 252.45 458.28 260.48 454.18C260.547 454.147 260.603 454.096 260.642 454.031C260.681 453.967 260.7 453.893 260.698 453.819C260.696 453.744 260.673 453.671 260.63 453.609C260.588 453.547 260.529 453.499 260.46 453.47Z" stroke="#F1B91A" stroke-width="2"/>
<path d="M602.12 504.73C601.18 504.57 600.06 504.497 598.76 504.51C564.08 504.917 527.036 505.903 487.63 507.47C484.63 507.59 482.193 507.767 480.32 508C479.543 508.1 478.786 508.305 478.07 508.61C477.21 508.977 475.55 509.967 473.09 511.58C465.916 516.293 450.226 526.51 426.02 542.23C405.11 555.8 386.25 567.1 366.45 579.47C366.365 579.525 366.299 579.606 366.263 579.701C366.227 579.796 366.222 579.9 366.249 579.997C366.276 580.094 366.333 580.179 366.413 580.239C366.492 580.299 366.589 580.331 366.69 580.33C386.89 580.51 406.363 580.11 425.11 579.13C434.41 578.64 441.13 577.32 448.99 573.97C479.416 561.01 511.46 546.883 545.12 531.59C573.4 518.737 590.746 510.743 597.16 507.61C599.553 506.437 601.226 505.613 602.18 505.14C602.22 505.119 602.252 505.086 602.273 505.045C602.293 505.005 602.301 504.959 602.294 504.914C602.287 504.869 602.267 504.827 602.236 504.794C602.205 504.761 602.164 504.739 602.12 504.73Z" stroke="#F1B91A" stroke-width="2"/>
<path d="M587.42 546.17C583.873 545.97 579.06 545.893 572.98 545.94C570.18 545.96 568.283 546.15 567.29 546.51C563.57 547.87 560.46 549.103 557.96 550.21C542.746 556.93 528.75 563.157 515.97 568.89C515.705 569.009 515.492 569.218 515.369 569.481C515.246 569.743 515.222 570.041 515.3 570.32C517.206 577.033 521.443 581.237 528.01 582.93C534.03 584.477 540.106 585.683 546.24 586.55C559.54 588.417 573.156 589.61 587.09 590.13C587.229 590.135 587.367 590.109 587.494 590.052C587.621 589.994 587.732 589.909 587.821 589.801C587.909 589.694 587.971 589.567 588.002 589.432C588.033 589.296 588.032 589.155 588 589.02C586.913 584.58 586.286 580.037 586.12 575.39C585.8 566.577 586.046 558.883 586.86 552.31C587.053 550.703 587.436 548.937 588.01 547.01C588.038 546.916 588.045 546.817 588.03 546.72C588.014 546.624 587.977 546.531 587.92 546.451C587.863 546.37 587.789 546.303 587.702 546.254C587.615 546.205 587.519 546.177 587.42 546.17Z" stroke="#F1B91A" stroke-width="2"/>
<path d="M466.279 453C466.279 450.759 465.389 448.61 463.804 447.025C462.22 445.44 460.07 444.55 457.829 444.55H440.229C437.988 444.55 435.839 445.44 434.254 447.025C432.67 448.61 431.779 450.759 431.779 453V458.24C431.779 460.481 432.67 462.63 434.254 464.215C435.839 465.8 437.988 466.69 440.229 466.69H457.829C460.07 466.69 462.22 465.8 463.804 464.215C465.389 462.63 466.279 460.481 466.279 458.24V453Z" stroke="#F1B91A" stroke-width="2"/>
<path d="M519.91 452.859C519.902 450.64 519.013 448.514 517.438 446.949C515.862 445.385 513.73 444.511 511.511 444.519L493.471 444.582C492.372 444.585 491.284 444.806 490.27 445.23C489.256 445.654 488.335 446.274 487.561 447.054C486.786 447.834 486.173 448.759 485.756 449.775C485.339 450.792 485.126 451.882 485.13 452.981L485.149 458.401C485.157 460.621 486.046 462.746 487.621 464.311C489.196 465.875 491.328 466.749 493.548 466.741L511.588 466.678C512.687 466.675 513.775 466.454 514.789 466.03C515.803 465.606 516.723 464.986 517.498 464.206C518.272 463.426 518.886 462.502 519.303 461.485C519.72 460.468 519.933 459.378 519.929 458.279L519.91 452.859Z" stroke="#F1B91A" stroke-width="2"/>
<path d="M574.13 452.81C574.13 451.738 573.919 450.677 573.508 449.687C573.098 448.697 572.497 447.798 571.74 447.04C570.982 446.282 570.082 445.681 569.092 445.271C568.102 444.861 567.041 444.65 565.97 444.65H547.51C546.438 444.65 545.377 444.861 544.387 445.271C543.397 445.681 542.497 446.282 541.74 447.04C540.982 447.798 540.381 448.697 539.971 449.687C539.561 450.677 539.35 451.738 539.35 452.81V458.47C539.35 460.634 540.209 462.71 541.74 464.24C543.27 465.77 545.345 466.63 547.51 466.63H565.97C568.134 466.63 570.209 465.77 571.74 464.24C573.27 462.71 574.13 460.634 574.13 458.47V452.81Z" stroke="#F1B91A" stroke-width="2"/>
<path d="M628.255 452.74C628.253 451.662 628.039 450.595 627.625 449.599C627.21 448.604 626.604 447.7 625.84 446.939C625.076 446.178 624.17 445.575 623.174 445.164C622.177 444.753 621.109 444.542 620.031 444.544L602.071 444.576C599.893 444.58 597.807 445.448 596.27 446.991C594.733 448.533 593.871 450.623 593.875 452.8L593.885 458.36C593.887 459.438 594.101 460.505 594.515 461.501C594.929 462.496 595.536 463.4 596.3 464.161C597.063 464.922 597.969 465.525 598.966 465.936C599.963 466.347 601.031 466.558 602.109 466.556L620.069 466.524C622.246 466.52 624.333 465.652 625.87 464.11C627.407 462.567 628.268 460.477 628.265 458.3L628.255 452.74Z" stroke="#F1B91A" stroke-width="2"/>
<path d="M511.85 128.22C514.53 128.22 516.877 129.547 518.89 132.2C526.524 142.267 541.374 162.087 563.44 191.66C567.507 197.107 567.924 201.93 564.69 206.13C559.54 212.82 552.06 211.7 546.69 206C540.264 199.2 532.77 191.027 524.21 181.48C523.977 181.213 523.677 181.053 523.31 181C523.237 180.989 523.161 180.993 523.089 181.013C523.017 181.034 522.951 181.069 522.894 181.118C522.837 181.166 522.791 181.226 522.759 181.294C522.728 181.362 522.711 181.435 522.71 181.51C522.77 245.463 522.804 291.923 522.81 320.89C522.81 324.683 522.764 326.917 522.67 327.59C521.9 332.97 517.35 336.8 511.97 336.81C506.59 336.81 502.03 332.98 501.26 327.6C501.167 326.927 501.117 324.693 501.11 320.9C501.084 291.933 501.064 245.473 501.05 181.52C501.05 181.445 501.033 181.372 501.002 181.304C500.97 181.236 500.924 181.176 500.867 181.128C500.81 181.079 500.744 181.044 500.672 181.023C500.6 181.003 500.524 180.998 500.45 181.01C500.084 181.063 499.784 181.223 499.55 181.49C491.004 191.05 483.52 199.233 477.1 206.04C471.74 211.75 464.26 212.87 459.1 206.19C455.86 201.997 456.27 197.173 460.33 191.72C482.364 162.12 497.19 142.283 504.81 132.21C506.824 129.55 509.17 128.22 511.85 128.22Z" fill="#E4A309"/>
<path d="M385.54 541.91C385.583 541.802 385.598 541.684 385.585 541.569C385.572 541.453 385.53 541.342 385.464 541.246C385.398 541.151 385.309 541.072 385.205 541.019C385.102 540.966 384.987 540.938 384.87 540.94C382.044 541 379.254 540.857 376.5 540.51C363.374 538.837 351.58 537.027 341.12 535.08C301.88 527.76 263.78 514.6 229.95 494.56C227.89 493.347 221.064 488.953 209.47 481.38C207.63 480.18 205.17 479.15 202.09 478.29C201.501 478.125 200.889 478.06 200.28 478.1C198.994 478.193 193.067 478.25 182.5 478.27C171.38 478.297 162.524 474.627 155.93 467.26C151.01 461.76 149 456.25 150.17 449.13C151.83 439.01 161.99 433 171.35 431.33C176.61 430.383 182.167 430.027 188.02 430.26C188.115 430.264 188.21 430.247 188.297 430.21C188.385 430.173 188.463 430.117 188.526 430.047C188.589 429.976 188.636 429.892 188.662 429.801C188.689 429.71 188.695 429.614 188.68 429.52C188.534 428.627 188.344 427.77 188.11 426.95C182.017 405.877 172.36 373.023 159.14 328.39C157.84 323.99 157.03 317.96 159.47 313.97C162.91 308.36 167.23 307.81 174.07 307.83C189.024 307.87 203.997 307.77 218.99 307.53C227.82 307.39 232.19 311.31 238.15 317.85C259.61 341.37 281.904 365.39 305.03 389.91C315.957 401.497 329.28 407.87 345 409.03C349.694 409.377 356.027 409.347 364 408.94C385 407.87 401.49 406.74 420.67 405.85C426.424 405.577 433.2 405.117 441 404.47C445.45 404.1 449.39 404.27 453.33 403.87C458.124 403.39 464.494 402.947 472.44 402.54C488.55 401.73 503.15 400.72 516.98 400.1C524.98 399.747 535.404 399.153 548.25 398.32C551.94 398.08 557.72 398.16 562.26 397.86C572.06 397.22 583.6 396.643 596.88 396.13C611.6 395.56 626.51 394.33 639.32 394.16C651.35 394.01 670.4 392.6 683 393.26C694.54 393.867 702.037 394.3 705.49 394.56C737.41 397 770.3 405.4 794.93 427.08C801.017 432.447 809.744 440.297 821.11 450.63C827.6 456.53 838.82 461.46 844.06 464.43C852.65 469.29 860.96 475.69 866.29 484.17C874.87 497.81 870.86 512 859.28 522.13C853.894 526.843 847.234 530.817 839.3 534.05C831.194 537.357 824.24 539.723 818.44 541.15C806.04 544.197 795.907 546.233 788.04 547.26C777.92 548.58 771.47 549.84 764.11 549.95C763.744 549.957 759.61 550.317 751.71 551.03C746.504 551.503 742.364 551.75 739.29 551.77C721.95 551.89 706.89 552.78 687.9 552.83C662.947 552.903 639.847 552.777 618.6 552.45C618.518 552.449 618.437 552.466 618.362 552.5C618.287 552.534 618.22 552.584 618.166 552.647C618.112 552.709 618.072 552.783 618.048 552.863C618.025 552.943 618.019 553.027 618.03 553.11C619.64 564.04 619.16 575.69 617.35 586.84C615.97 595.38 612.17 605.07 603.85 609.29C601.517 610.483 597.037 611.06 590.41 611.02C582.097 610.973 575.964 610.8 572.01 610.5C566.977 610.12 563.807 609.9 562.5 609.84C554.16 609.48 549.81 608.61 539.43 607.33C537.384 607.083 533.354 606.263 527.34 604.87C516.23 602.31 507.69 596.38 500.73 587.62C498.564 584.893 496.974 581.85 495.96 578.49C495.917 578.353 495.846 578.226 495.751 578.118C495.656 578.01 495.539 577.923 495.409 577.864C495.278 577.804 495.137 577.773 494.994 577.773C494.852 577.772 494.71 577.802 494.58 577.86C490.527 579.68 480.727 583.95 465.18 590.67C457.227 594.11 449.014 596.83 440.54 598.83C439.107 599.163 435.494 599.62 429.7 600.2C426.36 600.533 422.724 600.747 418.79 600.84C399.37 601.287 383.267 601.393 370.48 601.16C360.2 600.98 352.55 601.13 345.75 595.76C341.737 592.593 339.454 588.68 338.9 584.02C337.97 576.16 343.34 570.58 349.34 566.57C360.167 559.33 372.01 551.343 384.87 542.61C385.23 542.363 385.454 542.13 385.54 541.91ZM764.95 430.65C757.52 426.76 748.38 424.15 740.58 421.93C735.64 420.53 731.234 419.52 727.36 418.9C713.174 416.647 700.47 415.44 689.25 415.28C671.004 415.013 646.787 415.643 616.6 417.17C606.1 417.7 593.82 417.78 583.16 418.57C580.267 418.79 573.324 419.103 562.33 419.51C552.45 419.877 545.507 420.22 541.5 420.54C535.45 421.02 530.12 420.99 523.84 421.35C489.434 423.31 458.324 425.077 430.51 426.65C406.244 428.03 384.407 429.45 365 430.91C354.194 431.723 343.534 431.153 333.02 429.2C317.3 426.28 303.887 419.14 292.78 407.78C285.954 400.8 280.01 394.58 274.95 389.12C249.724 361.88 234.437 345.403 229.09 339.69C223.69 333.93 220.31 329.89 211.94 329.8C201.2 329.68 191.814 329.593 183.78 329.54C183.66 329.54 183.542 329.567 183.434 329.621C183.327 329.675 183.233 329.753 183.161 329.849C183.09 329.945 183.041 330.057 183.02 330.175C182.999 330.293 183.006 330.415 183.04 330.53L212.35 429.39C212.418 429.62 212.561 429.821 212.756 429.962C212.952 430.103 213.188 430.176 213.43 430.17C225.63 429.89 238.26 429.94 248.87 430.45C257.764 430.877 266.234 432.14 274.28 434.24C281.96 436.25 286.72 437.04 291.01 441.95C298.93 451.03 289.17 459.14 281.87 464.12C275.77 468.293 271.997 470.833 270.55 471.74C263.697 476.033 256.344 478.277 248.49 478.47C248.378 478.472 248.269 478.507 248.177 478.572C248.085 478.636 248.014 478.727 247.973 478.833C247.933 478.939 247.924 479.055 247.948 479.166C247.973 479.278 248.029 479.38 248.11 479.46C248.37 479.707 248.927 480.05 249.78 480.49C261.07 486.29 275.7 493.5 288.66 498.27C304.867 504.237 319.264 508.59 331.85 511.33C356.124 516.61 383.427 519.973 413.76 521.42C415.88 521.52 418.054 520.813 420.28 519.3C422.2 517.993 434.937 509.553 458.49 493.98C461.224 492.173 464.177 490.413 467.35 488.7C471.1 486.68 474.17 486.31 478.5 486.1C489.094 485.58 499.01 485.227 508.25 485.04C540.61 484.393 572.86 483.76 605 483.14C622.86 482.8 637.777 482.897 649.75 483.43C656.85 483.75 666.22 485.88 664.01 494.93C663.19 498.33 660.26 500.7 657.38 502.4C654.087 504.347 650.17 506.34 645.63 508.38C633.884 513.653 623.054 518.647 613.14 523.36C609.214 525.227 605.364 526.877 601.59 528.31C601.54 528.328 601.496 528.361 601.465 528.405C601.434 528.449 601.417 528.501 601.417 528.555C601.417 528.609 601.434 528.661 601.465 528.705C601.496 528.749 601.54 528.782 601.59 528.8C603.357 529.44 605.18 530.037 607.06 530.59C608.08 530.897 609.984 531.08 612.77 531.14C654.364 532.087 694.407 531.787 732.9 530.24C756.88 529.28 781.21 527.1 805.59 521.77C814.024 519.93 822.527 517.36 831.1 514.06C837.26 511.69 844.06 508.57 847.51 503C848.67 501.12 849.02 498.773 848.56 495.96C847.47 489.39 836.9 483.95 831.74 481.25C820.72 475.483 813.85 471.967 811.13 470.7C809.839 470.1 808.43 469.786 807 469.78C785.127 469.673 762.564 469.613 739.31 469.6C738.177 469.6 736.804 469.557 735.19 469.47C731.43 469.27 727.73 469.29 724.95 468.58C709.7 464.69 704.15 443.28 717.88 434.14C722.45 431.1 726.67 431.24 732.75 431.19C745.77 431.077 756.46 431.067 764.82 431.16C764.881 431.161 764.941 431.142 764.99 431.105C765.039 431.068 765.073 431.016 765.088 430.957C765.103 430.898 765.098 430.835 765.073 430.779C765.048 430.724 765.005 430.678 764.95 430.65ZM260.46 453.47C256.56 451.77 251.77 451.88 246.81 451.82C221.51 451.56 196.7 451.573 172.38 451.86C172.261 451.86 172.145 451.892 172.042 451.952C171.939 452.013 171.855 452.099 171.797 452.203C171.739 452.307 171.709 452.424 171.712 452.543C171.714 452.662 171.748 452.779 171.81 452.88C174.22 456.81 179.69 457.18 184.5 457.23C193 457.323 209.46 457.357 233.88 457.33C242.82 457.32 252.45 458.28 260.48 454.18C260.548 454.147 260.604 454.096 260.643 454.031C260.682 453.967 260.701 453.893 260.699 453.819C260.697 453.744 260.673 453.671 260.631 453.609C260.589 453.547 260.529 453.499 260.46 453.47ZM602.12 504.73C601.18 504.57 600.06 504.497 598.76 504.51C564.08 504.917 527.037 505.903 487.63 507.47C484.63 507.59 482.194 507.767 480.32 508C479.544 508.099 478.787 508.305 478.07 508.61C477.21 508.977 475.55 509.967 473.09 511.58C465.917 516.293 450.227 526.51 426.02 542.23C405.11 555.8 386.25 567.1 366.45 579.47C366.365 579.525 366.3 579.606 366.263 579.701C366.227 579.796 366.222 579.9 366.249 579.997C366.276 580.094 366.334 580.179 366.414 580.239C366.493 580.299 366.59 580.331 366.69 580.33C386.89 580.51 406.364 580.11 425.11 579.13C434.41 578.64 441.13 577.32 448.99 573.97C479.417 561.01 511.46 546.883 545.12 531.59C573.4 518.737 590.747 510.743 597.16 507.61C599.554 506.437 601.227 505.613 602.18 505.14C602.22 505.119 602.253 505.086 602.273 505.045C602.294 505.005 602.301 504.959 602.295 504.914C602.288 504.869 602.268 504.827 602.237 504.794C602.205 504.761 602.165 504.739 602.12 504.73ZM587.42 546.17C583.874 545.97 579.06 545.893 572.98 545.94C570.18 545.96 568.284 546.15 567.29 546.51C563.57 547.87 560.46 549.103 557.96 550.21C542.747 556.93 528.75 563.157 515.97 568.89C515.706 569.009 515.493 569.218 515.37 569.481C515.247 569.743 515.222 570.041 515.3 570.32C517.207 577.033 521.444 581.237 528.01 582.93C534.03 584.477 540.107 585.683 546.24 586.55C559.54 588.417 573.157 589.61 587.09 590.13C587.229 590.135 587.368 590.109 587.494 590.052C587.621 589.994 587.733 589.909 587.821 589.801C587.909 589.694 587.971 589.567 588.003 589.432C588.034 589.296 588.033 589.155 588 589.02C586.914 584.58 586.287 580.037 586.12 575.39C585.8 566.577 586.047 558.883 586.86 552.31C587.054 550.703 587.437 548.937 588.01 547.01C588.039 546.916 588.046 546.817 588.03 546.72C588.015 546.624 587.977 546.531 587.92 546.451C587.864 546.37 587.789 546.303 587.703 546.254C587.616 546.205 587.52 546.177 587.42 546.17Z" fill="#E4A309"/>
<path d="M764.95 430.65C765.004 430.678 765.047 430.724 765.073 430.779C765.098 430.835 765.103 430.898 765.088 430.957C765.073 431.016 765.038 431.068 764.99 431.105C764.941 431.142 764.881 431.161 764.82 431.16C756.46 431.067 745.77 431.077 732.75 431.19C726.67 431.24 722.45 431.1 717.88 434.14C704.15 443.28 709.7 464.69 724.95 468.58C727.73 469.29 731.43 469.27 735.19 469.47C736.803 469.557 738.177 469.6 739.31 469.6C762.563 469.613 785.127 469.673 807 469.78C808.43 469.786 809.839 470.1 811.13 470.7C813.85 471.967 820.72 475.483 831.74 481.25C836.9 483.95 847.47 489.39 848.56 495.96C849.02 498.773 848.67 501.12 847.51 503C844.06 508.57 837.26 511.69 831.1 514.06C822.527 517.36 814.023 519.93 805.59 521.77C781.21 527.1 756.88 529.28 732.9 530.24C694.407 531.787 654.363 532.087 612.77 531.14C609.983 531.08 608.08 530.897 607.06 530.59C605.18 530.037 603.357 529.44 601.59 528.8C601.539 528.782 601.496 528.749 601.465 528.705C601.434 528.661 601.417 528.609 601.417 528.555C601.417 528.501 601.434 528.449 601.465 528.405C601.496 528.361 601.539 528.328 601.59 528.31C605.363 526.877 609.213 525.227 613.14 523.36C623.053 518.647 633.883 513.653 645.63 508.38C650.17 506.34 654.087 504.347 657.38 502.4C660.26 500.7 663.19 498.33 664.01 494.93C666.22 485.88 656.85 483.75 649.75 483.43C637.777 482.897 622.86 482.8 605 483.14C572.86 483.76 540.61 484.393 508.25 485.04C499.01 485.227 489.093 485.58 478.5 486.1C474.17 486.31 471.1 486.68 467.35 488.7C464.177 490.413 461.223 492.173 458.49 493.98C434.937 509.553 422.2 517.993 420.28 519.3C418.053 520.813 415.88 521.52 413.76 521.42C383.427 519.973 356.123 516.61 331.85 511.33C319.263 508.59 304.867 504.237 288.66 498.27C275.7 493.5 261.07 486.29 249.78 480.49C248.927 480.05 248.37 479.707 248.11 479.46C248.029 479.38 247.972 479.278 247.948 479.166C247.924 479.055 247.932 478.939 247.973 478.833C248.014 478.727 248.084 478.636 248.176 478.572C248.268 478.507 248.377 478.472 248.49 478.47C256.343 478.277 263.697 476.033 270.55 471.74C271.997 470.833 275.77 468.293 281.87 464.12C289.17 459.14 298.93 451.03 291.01 441.95C286.72 437.04 281.96 436.25 274.28 434.24C266.233 432.14 257.763 430.877 248.87 430.45C238.26 429.94 225.63 429.89 213.43 430.17C213.188 430.176 212.951 430.103 212.756 429.962C212.561 429.821 212.418 429.62 212.35 429.39L183.04 330.53C183.006 330.415 182.999 330.293 183.02 330.175C183.041 330.057 183.089 329.945 183.161 329.849C183.233 329.753 183.326 329.675 183.434 329.621C183.541 329.567 183.66 329.54 183.78 329.54C191.813 329.593 201.2 329.68 211.94 329.8C220.31 329.89 223.69 333.93 229.09 339.69C234.437 345.403 249.723 361.88 274.95 389.12C280.01 394.58 285.953 400.8 292.78 407.78C303.887 419.14 317.3 426.28 333.02 429.2C343.533 431.153 354.193 431.723 365 430.91C384.407 429.45 406.243 428.03 430.51 426.65C458.323 425.077 489.433 423.31 523.84 421.35C530.12 420.99 535.45 421.02 541.5 420.54C545.507 420.22 552.45 419.877 562.33 419.51C573.323 419.103 580.267 418.79 583.16 418.57C593.82 417.78 606.1 417.7 616.6 417.17C646.787 415.643 671.003 415.013 689.25 415.28C700.47 415.44 713.173 416.647 727.36 418.9C731.233 419.52 735.64 420.53 740.58 421.93C748.38 424.15 757.52 426.76 764.95 430.65ZM466.28 453C466.28 450.759 465.39 448.61 463.805 447.025C462.22 445.44 460.071 444.55 457.83 444.55H440.23C437.989 444.55 435.84 445.44 434.255 447.025C432.67 448.61 431.78 450.759 431.78 453V458.24C431.78 460.481 432.67 462.63 434.255 464.215C435.84 465.8 437.989 466.69 440.23 466.69H457.83C460.071 466.69 462.22 465.8 463.805 464.215C465.39 462.63 466.28 460.481 466.28 458.24V453ZM519.91 452.859C519.903 450.64 519.013 448.514 517.438 446.949C515.863 445.385 513.731 444.511 511.511 444.519L493.471 444.582C492.372 444.585 491.285 444.806 490.27 445.23C489.256 445.654 488.336 446.274 487.561 447.054C486.787 447.834 486.174 448.759 485.756 449.775C485.339 450.792 485.127 451.882 485.131 452.981L485.15 458.401C485.157 460.621 486.047 462.746 487.622 464.311C489.197 465.875 491.329 466.749 493.549 466.741L511.589 466.678C512.688 466.675 513.775 466.454 514.789 466.03C515.803 465.606 516.724 464.986 517.498 464.206C518.273 463.426 518.886 462.502 519.303 461.485C519.72 460.468 519.933 459.378 519.929 458.279L519.91 452.859ZM574.13 452.81C574.13 451.738 573.919 450.677 573.509 449.687C573.099 448.697 572.498 447.798 571.74 447.04C570.982 446.282 570.083 445.681 569.093 445.271C568.103 444.861 567.041 444.65 565.97 444.65H547.51C546.438 444.65 545.377 444.861 544.387 445.271C543.397 445.681 542.498 446.282 541.74 447.04C540.982 447.798 540.381 448.697 539.971 449.687C539.561 450.677 539.35 451.738 539.35 452.81V458.47C539.35 460.634 540.21 462.71 541.74 464.24C543.27 465.77 545.346 466.63 547.51 466.63H565.97C568.134 466.63 570.21 465.77 571.74 464.24C573.27 462.71 574.13 460.634 574.13 458.47V452.81ZM628.255 452.74C628.253 451.662 628.039 450.595 627.625 449.599C627.21 448.604 626.604 447.7 625.84 446.939C625.077 446.178 624.17 445.575 623.174 445.164C622.177 444.753 621.109 444.542 620.031 444.544L602.071 444.576C599.893 444.58 597.807 445.448 596.27 446.991C594.733 448.533 593.871 450.623 593.875 452.8L593.885 458.36C593.887 459.438 594.101 460.505 594.515 461.501C594.93 462.496 595.536 463.4 596.3 464.161C597.063 464.922 597.969 465.525 598.966 465.936C599.963 466.347 601.031 466.558 602.109 466.556L620.069 466.524C622.247 466.521 624.333 465.652 625.87 464.11C627.407 462.567 628.268 460.477 628.265 458.3L628.255 452.74Z" fill="#FECE2A"/>
<path d="M457.83 444.55H440.23C435.563 444.55 431.78 448.333 431.78 453V458.24C431.78 462.907 435.563 466.69 440.23 466.69H457.83C462.497 466.69 466.28 462.907 466.28 458.24V453C466.28 448.333 462.497 444.55 457.83 444.55Z" fill="#E4A309"/>
<path d="M511.511 444.519L493.472 444.582C488.849 444.598 485.115 448.358 485.131 452.981L485.15 458.401C485.166 463.023 488.926 466.758 493.549 466.741L511.589 466.678C516.211 466.662 519.946 462.902 519.929 458.279L519.911 452.859C519.894 448.237 516.134 444.502 511.511 444.519Z" fill="#E4A309"/>
<path d="M565.97 444.65H547.51C543.003 444.65 539.35 448.303 539.35 452.81V458.47C539.35 462.977 543.003 466.63 547.51 466.63H565.97C570.476 466.63 574.13 462.977 574.13 458.47V452.81C574.13 448.303 570.476 444.65 565.97 444.65Z" fill="#E4A309"/>
<path d="M620.031 444.544L602.071 444.576C597.537 444.584 593.868 448.266 593.876 452.8L593.885 458.36C593.893 462.894 597.575 466.564 602.11 466.556L620.07 466.524C624.604 466.516 628.273 462.834 628.265 458.3L628.256 452.74C628.248 448.206 624.566 444.536 620.031 444.544Z" fill="#E4A309"/>
<path d="M260.46 453.47C260.529 453.499 260.588 453.547 260.63 453.609C260.673 453.671 260.696 453.744 260.698 453.819C260.7 453.893 260.681 453.967 260.642 454.031C260.603 454.096 260.547 454.147 260.48 454.18C252.45 458.28 242.82 457.32 233.88 457.33C209.46 457.357 193 457.323 184.5 457.23C179.69 457.18 174.22 456.81 171.81 452.88C171.747 452.779 171.713 452.662 171.711 452.543C171.709 452.424 171.738 452.307 171.796 452.203C171.854 452.099 171.939 452.013 172.041 451.952C172.144 451.892 172.261 451.86 172.38 451.86C196.7 451.573 221.51 451.56 246.81 451.82C251.77 451.88 256.56 451.77 260.46 453.47Z" fill="#FECE2A"/>
<path d="M602.12 504.73C602.164 504.739 602.205 504.761 602.236 504.794C602.267 504.827 602.287 504.869 602.294 504.914C602.301 504.959 602.293 505.005 602.273 505.045C602.252 505.086 602.22 505.119 602.18 505.14C601.226 505.613 599.553 506.437 597.16 507.61C590.746 510.743 573.4 518.737 545.12 531.59C511.46 546.883 479.416 561.01 448.99 573.97C441.13 577.32 434.41 578.64 425.11 579.13C406.363 580.11 386.89 580.51 366.69 580.33C366.589 580.331 366.492 580.299 366.413 580.239C366.333 580.179 366.276 580.094 366.249 579.997C366.222 579.9 366.227 579.796 366.263 579.701C366.299 579.606 366.365 579.525 366.45 579.47C386.25 567.1 405.11 555.8 426.02 542.23C450.226 526.51 465.916 516.293 473.09 511.58C475.55 509.967 477.21 508.977 478.07 508.61C478.786 508.305 479.543 508.099 480.32 508C482.193 507.767 484.63 507.59 487.63 507.47C527.036 505.903 564.08 504.917 598.76 504.51C600.06 504.497 601.18 504.57 602.12 504.73Z" fill="#FECE2A"/>
<path d="M587.42 546.17C587.519 546.177 587.615 546.205 587.702 546.254C587.789 546.303 587.863 546.37 587.92 546.451C587.977 546.531 588.014 546.624 588.03 546.72C588.045 546.817 588.038 546.916 588.01 547.01C587.436 548.937 587.053 550.703 586.86 552.31C586.046 558.883 585.8 566.577 586.12 575.39C586.286 580.037 586.913 584.58 588 589.02C588.032 589.155 588.033 589.296 588.002 589.432C587.971 589.567 587.909 589.694 587.821 589.801C587.732 589.909 587.621 589.994 587.494 590.052C587.367 590.109 587.229 590.135 587.09 590.13C573.156 589.61 559.54 588.417 546.24 586.55C540.106 585.683 534.03 584.477 528.01 582.93C521.443 581.237 517.206 577.033 515.3 570.32C515.222 570.041 515.246 569.743 515.369 569.481C515.492 569.218 515.705 569.009 515.97 568.89C528.75 563.157 542.746 556.93 557.96 550.21C560.46 549.103 563.57 547.87 567.29 546.51C568.283 546.15 570.18 545.96 572.98 545.94C579.06 545.893 583.873 545.97 587.42 546.17Z" fill="#FECE2A"/>
<path d="M310.07 640.63C310.07 644.123 308.3 647.417 304.76 650.51C299.14 655.417 287.057 666.403 268.51 683.47C264.55 687.11 260.29 687.72 255.73 685.3C248.23 681.32 248.62 672.4 254.04 667.08C258.16 663.047 262.944 658.47 268.39 653.35C268.69 653.07 268.844 652.803 268.85 652.55C268.853 652.47 268.84 652.389 268.811 652.314C268.783 652.239 268.74 652.17 268.685 652.113C268.63 652.055 268.564 652.009 268.491 651.977C268.418 651.946 268.339 651.93 268.26 651.93C222.847 651.87 181.19 651.857 143.29 651.89C139.4 651.89 135.68 652.13 132.35 651.41C127.82 650.42 124.45 645.2 124.45 640.82C124.44 636.43 127.8 631.21 132.33 630.21C135.66 629.48 139.38 629.71 143.27 629.71C181.17 629.663 222.827 629.563 268.24 629.41C268.319 629.41 268.398 629.394 268.471 629.363C268.544 629.331 268.61 629.285 268.665 629.227C268.72 629.17 268.763 629.101 268.791 629.026C268.82 628.951 268.833 628.87 268.83 628.79C268.824 628.537 268.667 628.27 268.36 627.99C262.907 622.883 258.117 618.317 253.99 614.29C248.56 608.98 248.15 600.06 255.64 596.07C260.194 593.637 264.454 594.237 268.42 597.87C287 614.903 299.107 625.867 304.74 630.76C308.287 633.847 310.064 637.137 310.07 640.63Z" fill="#E4A309"/>
<path d="M844.92 652.79C844.961 652.694 844.978 652.59 844.968 652.486C844.958 652.382 844.922 652.282 844.864 652.195C844.806 652.108 844.726 652.036 844.633 651.986C844.54 651.937 844.436 651.91 844.33 651.91C796.75 651.99 746.24 652.003 692.8 651.95C687.44 651.94 683.7 652.26 680.43 648.82C676.63 644.84 676.42 638.54 679.76 634.19C681.873 631.423 684.873 630.04 688.76 630.04C791.807 630.08 843.637 630.08 844.25 630.04C844.53 630.027 844.727 629.903 844.84 629.67C845.013 629.323 844.95 629.02 844.65 628.76C841.23 625.8 836.85 622.04 831.51 617.48C826.54 613.23 822.34 608.8 824.87 602.14C826.257 598.5 828.657 596.247 832.07 595.38C840.94 593.12 845.2 600.59 851.46 605.69C861.033 613.497 871.05 621.17 881.51 628.71C885.263 631.41 887.417 633.107 887.97 633.8C892.27 639.24 890.83 645.46 885.44 649.7C883.447 651.273 878.507 655.083 870.62 661.13C864.293 665.983 855.03 673.54 842.83 683.8C839.797 686.36 836.533 687.287 833.04 686.58C826.22 685.21 822.09 678.34 825.19 671.79C826.017 670.037 827.96 667.867 831.02 665.28C834.767 662.107 839.007 658.34 843.74 653.98C844.48 653.307 844.873 652.91 844.92 652.79Z" fill="#E4A309"/>
<path d="M512.21 655.81H511.81C505.917 655.81 501.14 660.587 501.14 666.48V814.1C501.14 819.993 505.917 824.77 511.81 824.77H512.21C518.103 824.77 522.88 819.993 522.88 814.1V666.48C522.88 660.587 518.103 655.81 512.21 655.81Z" fill="#E4A309"/>
<path d="M309.26 747.74C309.269 747.616 309.251 747.491 309.209 747.373C309.167 747.256 309.101 747.148 309.016 747.057C308.931 746.966 308.828 746.894 308.713 746.845C308.599 746.795 308.475 746.77 308.35 746.77H300.63C300.07 746.769 299.517 746.649 299.007 746.417C298.497 746.185 298.043 745.847 297.676 745.425C297.308 745.004 297.035 744.508 296.876 743.973C296.716 743.437 296.673 742.873 296.75 742.32L296.8 741.99C296.948 740.931 297.473 739.96 298.28 739.258C299.087 738.556 300.121 738.169 301.19 738.17H315.61C315.993 738.17 316.362 738.297 316.66 738.53C317.847 739.47 318.474 741.13 318.54 743.51C318.91 755.35 312.8 764.88 300.55 766.19C296.064 766.677 291.924 766.233 288.13 764.86C282.73 762.91 277.6 757.64 275.43 752.12C269.73 737.67 275.13 719.35 292.4 716.06C300.49 714.51 310.18 716.12 315.13 723.15C315.346 723.456 315.464 723.815 315.47 724.18C315.5 727.35 313.24 729.41 310.32 729C309.434 728.873 308.084 728.093 306.27 726.66C304.197 725.007 302.19 724.093 300.25 723.92C291.224 723.087 285.527 726.927 283.16 735.44C282.527 737.713 282.514 741.047 283.12 745.44C284.4 754.69 292.63 760.41 301.71 757.33C306.457 755.717 308.974 752.52 309.26 747.74Z" fill="#E4A309"/>
<path d="M858.29 721.19C860.89 724.3 858.27 728.33 854.41 727.7C854.139 727.654 853.878 727.555 853.64 727.41C851.1 725.783 849.52 724.86 848.9 724.64C844.94 723.22 837.61 723.07 835.94 727.89C834.62 731.71 837.55 734.32 841.18 735.37C848.82 737.57 855.84 738.81 859.94 745.01C863.67 750.65 861.55 757.78 856.65 762.21C854.643 764.03 851.956 765.28 848.59 765.96C842.036 767.28 835.75 766.31 829.73 763.05C826.2 761.14 823.52 757.19 827.37 753.84C828.39 752.96 829.586 752.877 830.96 753.59C836.87 756.65 841.03 760.04 848.2 757.19C854.79 754.57 852.77 748.02 846.94 746.32C839.1 744.04 826.96 741.93 826.2 731.32C825.01 714.6 849.84 711.08 858.29 721.19Z" fill="#E4A309"/>
<path d="M704.97 736.36C708.017 736.36 711.097 736.363 714.21 736.37C714.539 736.37 714.854 736.238 715.087 736.004C715.319 735.769 715.45 735.451 715.45 735.12V720.95C715.45 720.335 715.572 719.726 715.81 719.158C716.047 718.59 716.396 718.076 716.834 717.644C717.272 717.212 717.792 716.872 718.363 716.643C718.934 716.414 719.545 716.301 720.16 716.31H720.5C721.643 716.326 722.734 716.791 723.537 717.605C724.34 718.419 724.79 719.517 724.79 720.66V761.34C724.79 762.512 724.324 763.636 723.496 764.465C722.667 765.294 721.542 765.76 720.37 765.76H719.86C719.296 765.781 718.733 765.689 718.205 765.489C717.677 765.29 717.195 764.986 716.787 764.596C716.378 764.206 716.052 763.738 715.828 763.22C715.603 762.702 715.485 762.145 715.48 761.58L715.34 745.77C715.338 745.55 715.254 745.339 715.104 745.178C714.954 745.016 714.75 744.917 714.53 744.9C714.143 744.873 710.953 744.857 704.96 744.85C698.973 744.85 695.787 744.863 695.4 744.89C695.179 744.905 694.972 745.003 694.82 745.164C694.668 745.326 694.582 745.538 694.58 745.76L694.43 761.57C694.425 762.135 694.307 762.692 694.083 763.21C693.858 763.728 693.532 764.196 693.124 764.586C692.715 764.976 692.233 765.28 691.705 765.479C691.177 765.679 690.614 765.771 690.05 765.75H689.54C688.959 765.75 688.383 765.635 687.846 765.413C687.309 765.19 686.822 764.863 686.411 764.452C686.001 764.04 685.675 763.552 685.454 763.015C685.232 762.477 685.119 761.901 685.12 761.32L685.16 720.64C685.163 719.498 685.614 718.403 686.416 717.592C687.219 716.78 688.309 716.316 689.45 716.3H689.79C690.405 716.291 691.016 716.404 691.587 716.633C692.158 716.862 692.678 717.202 693.116 717.634C693.555 718.066 693.903 718.58 694.14 719.148C694.378 719.716 694.5 720.325 694.5 720.94L694.48 735.11C694.48 735.275 694.513 735.438 694.575 735.591C694.638 735.743 694.731 735.881 694.847 735.997C694.963 736.114 695.101 736.206 695.253 736.268C695.404 736.33 695.566 736.361 695.73 736.36C698.837 736.36 701.917 736.36 704.97 736.36Z" fill="#E4A309"/>
<path d="M798.18 757.79C805.5 757.83 807.58 751.76 807.64 745.61C807.733 735.663 807.783 727.873 807.79 722.24C807.8 714.38 817.01 714.26 817.08 721.48C817.107 724.607 817.077 731.947 816.99 743.5C816.95 749.29 816.44 754.52 813.28 759.03C809.81 763.99 804.49 766.48 798.14 766.44C791.79 766.41 786.5 763.87 783.08 758.88C779.96 754.33 779.51 749.1 779.53 743.31C779.563 731.757 779.607 724.417 779.66 721.29C779.81 714.07 789.02 714.28 788.95 722.14C788.897 727.773 788.867 735.563 788.86 745.51C788.85 751.66 790.87 757.75 798.18 757.79Z" fill="#E4A309"/>
<path d="M188.95 746.74C188.618 746.74 188.301 746.872 188.066 747.106C187.832 747.341 187.7 747.659 187.7 747.99V761.25C187.7 762.459 187.22 763.619 186.364 764.474C185.509 765.33 184.349 765.81 183.14 765.81H182.36C181.814 765.81 181.274 765.702 180.77 765.493C180.265 765.284 179.807 764.977 179.422 764.591C179.036 764.205 178.731 763.746 178.523 763.241C178.315 762.737 178.209 762.196 178.21 761.65L178.24 720.37C178.24 719.724 178.412 719.09 178.739 718.532C179.066 717.975 179.536 717.515 180.1 717.2C180.92 716.747 182.35 716.47 184.39 716.37C190.05 716.08 196.32 715.92 201.93 717.78C209.05 720.14 213.62 725.54 213.21 733.15C212.9 738.75 209.5 742.91 204.49 745.22C204.325 745.295 204.179 745.405 204.062 745.543C203.944 745.68 203.857 745.841 203.808 746.015C203.758 746.189 203.747 746.372 203.775 746.55C203.803 746.729 203.87 746.9 203.97 747.05C206.183 750.383 208.983 754.153 212.37 758.36C215.52 762.27 212.29 767.5 207.53 765.25C206.25 764.643 204.713 763.097 202.92 760.61C199.187 755.437 196.2 751.133 193.96 747.7C193.766 747.405 193.503 747.163 193.194 746.995C192.885 746.828 192.54 746.74 192.19 746.74H188.95ZM187.73 726.04L187.75 738.72C187.75 738.875 187.78 739.028 187.84 739.172C187.899 739.315 187.986 739.445 188.096 739.554C188.205 739.664 188.335 739.751 188.478 739.81C188.622 739.87 188.775 739.9 188.93 739.9L194.14 739.89C196.804 739.886 199.358 739.109 201.241 737.731C203.123 736.353 204.181 734.486 204.18 732.54V732.18C204.18 731.216 203.919 730.261 203.413 729.371C202.907 728.48 202.166 727.672 201.232 726.991C200.298 726.31 199.189 725.771 197.968 725.403C196.748 725.036 195.44 724.848 194.12 724.85L188.91 724.86C188.597 724.86 188.297 724.984 188.076 725.206C187.854 725.427 187.73 725.727 187.73 726.04Z" fill="#E4A309"/>
<path d="M245.36 716.14C248.474 716.147 250.89 718.403 252.61 722.91C257.404 735.457 262.31 748.057 267.33 760.71C267.521 761.19 267.609 761.704 267.59 762.219C267.571 762.735 267.444 763.241 267.219 763.705C266.993 764.169 266.672 764.581 266.278 764.914C265.884 765.247 265.425 765.494 264.93 765.64L264.49 765.74C263.338 766.017 262.124 765.863 261.079 765.307C260.034 764.75 259.23 763.83 258.82 762.72L255.93 754.93C255.809 754.611 255.594 754.336 255.314 754.142C255.034 753.947 254.701 753.842 254.36 753.84C253.867 753.84 250.834 753.833 245.26 753.82C239.687 753.807 236.65 753.797 236.15 753.79C235.81 753.791 235.479 753.895 235.198 754.088C234.918 754.28 234.703 754.553 234.58 754.87L231.65 762.65C231.234 763.758 230.425 764.675 229.376 765.226C228.327 765.777 227.112 765.925 225.96 765.64L225.52 765.53C225.027 765.381 224.569 765.131 224.178 764.796C223.786 764.461 223.469 764.047 223.246 763.583C223.023 763.118 222.899 762.612 222.883 762.096C222.866 761.581 222.957 761.068 223.15 760.59C228.237 747.963 233.214 735.39 238.08 722.87C239.82 718.377 242.247 716.133 245.36 716.14ZM238.05 745.47C238.02 745.553 238.009 745.643 238.021 745.731C238.033 745.819 238.065 745.904 238.116 745.976C238.167 746.049 238.235 746.108 238.315 746.149C238.394 746.19 238.481 746.211 238.57 746.21L251.96 746.14C252.05 746.14 252.137 746.118 252.216 746.076C252.295 746.034 252.362 745.973 252.413 745.899C252.463 745.825 252.494 745.74 252.504 745.652C252.514 745.563 252.503 745.473 252.47 745.39L245.68 727.71C245.64 727.606 245.569 727.516 245.476 727.453C245.383 727.39 245.274 727.357 245.162 727.358C245.05 727.359 244.941 727.394 244.849 727.459C244.758 727.524 244.688 727.615 244.65 727.72L238.05 745.47Z" fill="#E4A309"/>
<path d="M664.85 725.06C664.572 725.06 664.305 725.171 664.108 725.368C663.911 725.565 663.8 725.832 663.8 726.11V761.52C663.8 762.655 663.349 763.744 662.547 764.546C661.744 765.349 660.656 765.8 659.52 765.8H658.7C657.504 765.8 656.357 765.324 655.511 764.476C654.666 763.629 654.19 762.479 654.19 761.28V726.51C654.19 726.324 654.154 726.139 654.082 725.967C654.011 725.794 653.906 725.638 653.775 725.506C653.643 725.374 653.486 725.27 653.314 725.198C653.142 725.127 652.957 725.09 652.77 725.09H643.35C642.797 725.09 642.25 724.968 641.749 724.734C641.248 724.5 640.803 724.159 640.448 723.735C640.092 723.311 639.834 722.814 639.691 722.279C639.548 721.744 639.524 721.185 639.62 720.64L639.72 720.08C639.91 719.017 640.467 718.055 641.294 717.363C642.12 716.67 643.163 716.29 644.24 716.29H673.61C674.746 716.29 675.834 716.742 676.637 717.547C677.439 718.351 677.89 719.442 677.89 720.58V721.18C677.89 722.209 677.482 723.196 676.754 723.924C676.026 724.651 675.039 725.06 674.01 725.06H664.85Z" fill="#E4A309"/>
<path d="M746.02 746.79C745.855 746.79 745.691 746.823 745.539 746.886C745.387 746.95 745.248 747.043 745.132 747.16C745.016 747.277 744.924 747.416 744.862 747.569C744.8 747.721 744.768 747.885 744.77 748.05L744.789 761.31C744.791 761.91 744.674 762.504 744.445 763.058C744.217 763.613 743.881 764.116 743.457 764.541C743.034 764.965 742.531 765.302 741.977 765.532C741.423 765.762 740.829 765.88 740.229 765.88H739.45C738.903 765.881 738.361 765.775 737.856 765.566C737.351 765.357 736.892 765.051 736.505 764.664C736.118 764.278 735.812 763.819 735.604 763.314C735.395 762.808 735.288 762.267 735.289 761.72L735.27 720.43C735.269 719.784 735.442 719.149 735.769 718.592C736.096 718.035 736.565 717.575 737.13 717.26C737.95 716.807 739.379 716.527 741.419 716.42C747.079 716.13 753.349 715.96 758.969 717.81C766.089 720.16 770.67 725.56 770.27 733.17C769.96 738.77 766.57 742.94 761.56 745.25C761.394 745.325 761.246 745.435 761.127 745.573C761.008 745.711 760.921 745.874 760.872 746.049C760.822 746.224 760.811 746.408 760.84 746.588C760.869 746.768 760.937 746.939 761.039 747.09C763.259 750.417 766.066 754.183 769.46 758.39C772.61 762.3 769.39 767.53 764.63 765.29C763.343 764.683 761.803 763.137 760.01 760.65C756.27 755.483 753.276 751.183 751.03 747.75C750.836 747.455 750.573 747.213 750.264 747.045C749.955 746.878 749.61 746.79 749.26 746.79H746.02ZM744.81 726.11L744.99 738.75C744.991 738.897 745.021 739.042 745.079 739.178C745.136 739.313 745.22 739.436 745.325 739.539C745.43 739.642 745.554 739.723 745.69 739.779C745.827 739.834 745.972 739.861 746.12 739.86L751.09 739.79C752.412 739.772 753.719 739.567 754.936 739.188C756.152 738.808 757.255 738.262 758.181 737.579C759.107 736.897 759.838 736.092 760.331 735.21C760.825 734.328 761.073 733.387 761.06 732.44V731.98C761.047 731.033 760.773 730.099 760.255 729.231C759.737 728.364 758.984 727.579 758.04 726.922C757.095 726.266 755.978 725.75 754.751 725.405C753.524 725.06 752.212 724.891 750.89 724.91L745.919 724.98C745.772 724.981 745.627 725.012 745.492 725.069C745.356 725.127 745.234 725.21 745.13 725.315C745.027 725.42 744.946 725.544 744.891 725.681C744.836 725.817 744.808 725.963 744.81 726.11Z" fill="#E4A309"/>
<path d="M886.05 716.22C890.816 716.213 895.733 716.25 900.8 716.33C901.976 716.348 903.097 716.828 903.922 717.667C904.747 718.505 905.21 719.634 905.21 720.81V721.27C905.21 721.77 905.111 722.266 904.92 722.728C904.729 723.19 904.449 723.61 904.097 723.964C903.744 724.318 903.325 724.599 902.864 724.79C902.403 724.981 901.909 725.08 901.41 725.08H891.68C891.454 725.08 891.238 725.169 891.079 725.326C890.919 725.484 890.83 725.697 890.83 725.92C890.856 743.913 890.81 755.69 890.69 761.25C890.62 764.09 888.81 765.78 886.05 765.78C883.28 765.78 881.47 764.09 881.41 761.25C881.283 755.69 881.236 743.913 881.27 725.92C881.27 725.697 881.18 725.484 881.021 725.326C880.861 725.169 880.645 725.08 880.42 725.08H870.69C870.19 725.08 869.695 724.981 869.233 724.789C868.771 724.597 868.352 724.315 867.999 723.961C867.646 723.606 867.366 723.185 867.176 722.721C866.986 722.258 866.888 721.761 866.89 721.26V720.8C866.892 719.624 867.357 718.496 868.184 717.66C869.011 716.823 870.134 716.346 871.31 716.33C876.376 716.25 881.29 716.213 886.05 716.22Z" fill="#E4A309"/>
<path d="M128.36 721.18C128.361 720.573 128.482 719.973 128.715 719.413C128.949 718.853 129.29 718.344 129.72 717.916C130.15 717.488 130.66 717.149 131.221 716.918C131.782 716.687 132.383 716.569 132.99 716.57L142.72 716.59C146.181 716.596 149.607 717.216 152.802 718.416C155.997 719.616 158.899 721.372 161.342 723.583C163.786 725.794 165.722 728.417 167.041 731.303C168.36 734.188 169.036 737.279 169.03 740.4V742.06C169.018 748.361 166.231 754.398 161.282 758.844C156.333 763.291 149.627 765.782 142.64 765.77L132.91 765.75C132.303 765.749 131.703 765.628 131.143 765.395C130.583 765.161 130.074 764.82 129.646 764.39C129.218 763.96 128.879 763.45 128.648 762.889C128.417 762.328 128.299 761.727 128.3 761.12L128.36 721.18ZM137.82 726.42L137.88 756.2C137.88 756.449 137.979 756.688 138.155 756.865C138.331 757.041 138.571 757.14 138.82 757.14L143.61 757.13C147.914 757.122 152.039 755.488 155.077 752.589C158.115 749.69 159.817 745.762 159.81 741.67V740.87C159.806 738.844 159.382 736.838 158.563 734.967C157.744 733.097 156.545 731.398 155.035 729.968C153.526 728.538 151.734 727.404 149.763 726.633C147.793 725.861 145.681 725.466 143.55 725.47L138.76 725.48C138.511 725.48 138.271 725.579 138.095 725.755C137.919 725.932 137.82 726.171 137.82 726.42Z" fill="#E4A309"/>
<path d="M458.2 886.39C458.2 886.701 458.323 887 458.542 887.221C458.761 887.442 459.059 887.567 459.37 887.57L474.51 887.66C475.091 887.662 475.665 887.781 476.198 888.011C476.732 888.24 477.214 888.574 477.617 888.994C478.019 889.414 478.332 889.911 478.539 890.454C478.746 890.998 478.841 891.578 478.82 892.16L478.81 892.33C478.754 893.416 478.283 894.44 477.495 895.191C476.707 895.942 475.66 896.364 474.57 896.37C466.33 896.397 459.257 896.39 453.35 896.35C450.257 896.323 448.703 894.713 448.69 891.52C448.65 878.413 448.617 865.053 448.59 851.44C448.589 850.852 448.703 850.27 448.928 849.726C449.153 849.183 449.482 848.689 449.898 848.273C450.315 847.857 450.809 847.526 451.353 847.301C451.897 847.076 452.481 846.96 453.07 846.96H454C455.114 846.96 456.182 847.402 456.97 848.19C457.757 848.978 458.2 850.046 458.2 851.16V886.39Z" fill="#E4A309"/>
<path d="M492.183 847.001L491.363 846.999C489.021 846.995 487.12 848.89 487.116 851.232L487.044 892.292C487.04 894.634 488.935 896.535 491.277 896.539L492.097 896.541C494.438 896.545 496.34 894.65 496.344 892.308L496.416 851.248C496.42 848.906 494.525 847.005 492.183 847.001Z" fill="#E4A309"/>
<path d="M517.56 855.92C517.396 855.92 517.238 855.985 517.122 856.102C517.005 856.218 516.94 856.376 516.94 856.54V867.24C516.94 867.529 517.054 867.806 517.256 868.011C517.459 868.215 517.734 868.33 518.02 868.33H530.57C531.703 868.329 532.792 868.768 533.609 869.555C534.425 870.342 534.906 871.415 534.95 872.55L534.96 872.9C534.979 873.407 534.895 873.912 534.714 874.386C534.533 874.859 534.259 875.292 533.907 875.657C533.555 876.022 533.133 876.312 532.666 876.51C532.199 876.708 531.697 876.81 531.19 876.81H517.96C517.814 876.81 517.67 876.839 517.535 876.894C517.401 876.95 517.278 877.032 517.175 877.135C517.072 877.238 516.99 877.361 516.935 877.495C516.879 877.63 516.85 877.774 516.85 877.92V892.27C516.849 892.85 516.729 893.423 516.495 893.954C516.261 894.484 515.92 894.96 515.493 895.351C515.066 895.743 514.563 896.041 514.015 896.226C513.467 896.412 512.886 896.481 512.31 896.43L511.93 896.4C510.751 896.316 509.647 895.787 508.843 894.92C508.039 894.053 507.595 892.913 507.6 891.73C507.68 875.717 507.677 862.223 507.59 851.25C507.57 848.577 508.843 847.21 511.41 847.15C518.69 846.983 525.903 846.987 533.05 847.16C534.2 847.186 535.293 847.661 536.097 848.484C536.901 849.306 537.35 850.41 537.35 851.56V851.98C537.35 852.497 537.248 853.01 537.051 853.488C536.853 853.966 536.564 854.4 536.199 854.766C535.834 855.132 535.401 855.422 534.924 855.62C534.447 855.818 533.936 855.92 533.42 855.92H517.56Z" fill="#E4A309"/>
<path d="M562.34 847.05C566.046 847.003 571.053 847.023 577.36 847.11C578.527 847.126 579.641 847.6 580.461 848.431C581.28 849.262 581.74 850.383 581.74 851.55V851.87C581.74 852.941 581.314 853.969 580.556 854.727C579.799 855.484 578.771 855.91 577.7 855.91H568C567.734 855.91 567.478 856.015 567.289 856.202C567.1 856.389 566.992 856.644 566.99 856.91C566.936 875.65 566.9 887.18 566.88 891.5C566.86 894.23 565.21 896.68 562.28 896.68C559.34 896.67 557.69 894.22 557.69 891.49C557.676 887.17 557.67 875.64 557.67 856.9C557.67 856.632 557.563 856.375 557.374 856.186C557.185 855.996 556.928 855.89 556.66 855.89L546.96 855.87C546.429 855.869 545.904 855.763 545.414 855.559C544.925 855.354 544.48 855.056 544.106 854.68C543.732 854.304 543.435 853.857 543.233 853.367C543.032 852.876 542.928 852.351 542.93 851.82L542.94 851.5C542.942 850.333 543.404 849.214 544.226 848.384C545.048 847.555 546.163 847.083 547.33 847.07C553.63 847.003 558.633 846.997 562.34 847.05Z" fill="#E4A309"/>
</svg>
