<svg width="1024" height="1024" viewBox="0 0 1024 1024" fill="none" xmlns="http://www.w3.org/2000/svg">
<path d="M579.711 397.36C577.985 397.94 576.168 398.537 574.261 399.15C572.321 399.763 570.528 400.427 568.881 401.14C556.708 406.44 543.204 412.937 528.371 420.63C521.831 424.023 516.358 427.59 511.951 431.33" stroke="#F8B617" stroke-width="2"/>
<path d="M515.58 667.09C517.473 668.963 518.863 670.097 519.75 670.49C529.21 674.69 538.133 678.853 546.52 682.98C554.79 687.05 561.84 689.98 570.99 694.21C572.17 694.757 574.077 695.51 576.71 696.47C578.67 697.177 580.573 697.94 582.42 698.76" stroke="#F8B617" stroke-width="2"/>
<path d="M509.561 731.97C508.207 730.917 506.767 729.963 505.241 729.11C499.474 725.877 495.757 723.827 494.091 722.96C490.631 721.16 486.804 719.34 482.611 717.5C475.631 714.44 467.901 711.037 459.421 707.29C454.101 704.943 449.061 702.25 444.301 699.21" stroke="#F8B617" stroke-width="2"/>
<path d="M445.17 398.55C455.957 392.317 467.2 386.523 478.9 381.17C488.713 376.683 498.413 371.953 508 366.98C509.86 366.02 511.61 364.823 513.25 363.39" stroke="#F8B617" stroke-width="2"/>
<path d="M610 591.79C613.093 587.857 614.903 585.043 615.43 583.35C616.957 578.457 619.413 573.623 622.8 568.85C624.26 566.797 624.59 564.507 623.79 561.98" stroke="#F8B617" stroke-width="2"/>
<path d="M579.711 397.36C577.984 397.94 576.168 398.537 574.261 399.15C572.321 399.763 570.528 400.427 568.881 401.14C556.708 406.44 543.204 412.937 528.371 420.63C521.831 424.023 516.358 427.59 511.951 431.33C509.424 432.11 507.838 432.64 507.191 432.92C501.791 435.253 496.308 437.95 490.741 441.01C473.081 450.7 457.591 460 442.091 472.08C435.998 476.827 430.484 481.957 425.551 487.47C425.446 487.586 425.366 487.722 425.315 487.87C425.264 488.018 425.244 488.175 425.255 488.331C425.266 488.487 425.309 488.639 425.38 488.778C425.452 488.917 425.551 489.04 425.671 489.14C427.491 490.64 433.211 490.25 435.251 490.25C465.744 490.163 505.578 490.143 554.751 490.19C560.151 490.197 564.264 492.723 567.091 497.77C567.296 498.148 567.441 498.553 567.521 498.97C568.128 502.163 568.434 504.01 568.441 504.51C568.491 512.54 562.811 518.03 554.781 518.04C495.668 518.14 445.898 518.117 405.471 517.97C402.791 517.96 401.991 518.54 400.691 520.69C394.571 530.843 391.541 541.787 391.601 553.52C391.621 557.513 392.021 561.137 392.801 564.39C396.771 580.91 407.271 596.5 419.561 608.2C440.141 627.8 464.751 643.13 490.031 656.24C494.624 658.62 503.141 662.237 515.581 667.09C517.474 668.963 518.864 670.097 519.751 670.49C529.211 674.69 538.134 678.853 546.521 682.98C554.791 687.05 561.841 689.98 570.991 694.21C572.171 694.757 574.078 695.51 576.711 696.47C578.671 697.177 580.574 697.94 582.421 698.76C582.681 699.94 583.388 700.843 584.541 701.47C592.994 706.07 600.448 710.293 606.901 714.14C630.341 728.12 650.901 744.897 668.581 764.47C674.581 771.11 680.701 779.147 686.941 788.58C704.488 815.08 714.324 844.44 716.451 876.66C717.338 890.16 711.998 900.243 700.431 906.91C693.061 911.16 684.881 912.13 676.481 909.33C665.061 905.517 658.001 897.713 655.301 885.92C654.881 884.073 654.464 880.793 654.051 876.08C653.491 869.62 652.401 861.41 649.851 854.89C647.204 848.123 644.631 842.117 642.131 836.87C632.804 817.323 620.471 800.333 605.131 785.9C587.791 769.6 565.701 757.07 542.521 745.75C530.101 739.677 519.114 735.083 509.561 731.97C508.208 730.917 506.768 729.963 505.241 729.11C499.474 725.877 495.758 723.827 494.091 722.96C490.631 721.16 486.804 719.34 482.611 717.5C475.631 714.44 467.901 711.037 459.421 707.29C454.101 704.943 449.061 702.25 444.301 699.21C443.774 698.337 443.044 697.647 442.111 697.14C431.011 691.067 420.191 684.463 409.651 677.33C400.001 670.79 389.801 662.46 382.831 655.37C374.291 646.683 369.194 641.383 367.541 639.47C350.061 619.2 337.981 597.29 333.151 571.07C331.631 562.85 332.191 555.34 332.131 544.85C332.104 540.757 332.468 536.553 333.221 532.24C338.361 502.74 351.731 477.93 371.471 455.71C381.478 444.443 392.881 434.193 405.681 424.96C418.421 415.773 431.584 406.97 445.171 398.55C455.958 392.317 467.201 386.523 478.901 381.17C488.714 376.683 498.414 371.953 508.001 366.98C509.861 366.02 511.611 364.823 513.251 363.39C515.298 363.33 517.338 362.823 519.371 361.87C532.611 355.683 544.708 349.033 555.661 341.92C561.594 338.067 570.051 332.177 581.031 324.25C584.321 321.88 587.641 319.71 590.341 316.86C590.635 316.55 590.812 316.151 590.838 315.741C590.864 315.331 590.737 314.939 590.481 314.64C590.028 314.12 589.361 313.857 588.481 313.85C573.274 313.797 532.618 313.79 466.511 313.83C462.524 313.83 459.418 313.013 457.191 311.38C451.511 307.21 451.771 301.9 452.251 295.26C452.284 294.79 452.392 294.327 452.571 293.89C454.051 290.177 456.518 287.4 459.971 285.56C461.638 284.673 464.248 284.207 467.801 284.16C470.568 284.127 474.968 284.107 481.001 284.1C519.368 284.067 565.301 284.073 618.801 284.12C619.215 284.12 619.625 284.037 620.006 283.875C620.388 283.714 620.733 283.477 621.021 283.18C623.951 280.14 626.281 276.41 628.491 273.08C636.278 261.393 641.984 249.657 645.611 237.87C650.904 220.657 653.781 202.777 654.241 184.23C654.381 178.683 654.791 174.73 655.471 172.37C658.418 162.103 665.074 155.113 675.441 151.4C677.794 150.56 680.278 150.11 682.891 150.05C686.858 149.97 689.391 150.013 690.491 150.18C703.931 152.24 714.841 162.86 716.421 176.52C716.994 181.487 717.108 187.143 716.761 193.49C715.474 216.957 711.034 239.79 703.441 261.99C693.451 291.17 675.991 316.84 653.311 340.06C640.538 353.133 627.251 364.513 613.451 374.2C605.524 379.753 595.454 386.43 583.241 394.23C582.341 394.803 581.164 395.847 579.711 397.36Z" fill="#FFCC2E"/>
<path d="M513.249 363.39C511.609 364.823 509.859 366.02 507.999 366.98C498.413 371.953 488.713 376.683 478.899 381.17C467.199 386.523 455.956 392.317 445.169 398.55L443.949 397.03C443.797 396.838 443.615 396.673 443.409 396.54C440.716 394.84 437.746 393.067 434.499 391.22C400.729 372.09 369.839 345.79 346.519 314.47C327.326 288.697 314.783 259.75 308.889 227.63C306.196 212.937 304.943 197.727 305.129 182C305.299 167.3 313.439 155.71 327.379 151.17C329.853 150.37 332.146 150.023 334.259 150.13C337.129 150.27 340.449 149.91 343.579 150.66C354.949 153.37 364.399 162.69 366.899 174.31C367.533 177.237 367.803 181.39 367.709 186.77C367.459 201.13 370.309 216.24 373.469 229.92C375.156 237.2 377.189 243.34 379.569 248.34C387.619 265.24 396.539 278.63 408.419 293.08C411.906 297.313 416.259 301.71 421.479 306.27C431.246 314.79 439.249 321.333 445.489 325.9C465.409 340.46 488.159 352.6 511.339 362.89C511.786 363.09 512.423 363.257 513.249 363.39Z" fill="#F09F00"/>
<path d="M615.189 210.17H414.669C406.678 210.17 400.199 216.648 400.199 224.64V225.92C400.199 233.912 406.678 240.39 414.669 240.39H615.189C623.181 240.39 629.659 233.912 629.659 225.92V224.64C629.659 216.648 623.181 210.17 615.189 210.17Z" fill="#FFCC2E"/>
<path d="M785.574 354.635C806.773 354.043 823.487 336.664 822.904 315.818C822.322 294.972 804.665 278.553 783.465 279.145C762.266 279.737 745.552 297.116 746.134 317.962C746.717 338.808 764.374 355.227 785.574 354.635Z" fill="#FFCC2E"/>
<path d="M579.709 397.36C580.896 399.133 582.463 400.553 584.409 401.62C611.669 416.6 636.109 435.28 655.599 458.65C658.706 462.37 662.326 467.327 666.459 473.52C685.279 501.73 695.329 537.16 690.689 570.4C684.879 612.03 657.739 646.46 624.759 671.02C611.413 680.967 598.026 689.657 584.599 697.09C584.133 697.343 583.406 697.9 582.419 698.76C580.573 697.94 578.669 697.177 576.709 696.47C574.076 695.51 572.169 694.757 570.989 694.21C561.839 689.98 554.789 687.05 546.519 682.98C538.133 678.853 529.209 674.69 519.749 670.49C518.863 670.097 517.473 668.963 515.579 667.09C519.853 664.377 524.086 661.907 528.279 659.68C536.586 655.273 540.906 652.973 541.239 652.78C550.429 647.62 560.219 642.71 568.089 637.82C579.049 631.02 589.686 623.413 599.999 615C606.849 609.42 614.809 601.9 619.469 593.54C619.565 593.368 619.614 593.175 619.612 592.979C619.61 592.783 619.557 592.59 619.458 592.421C619.359 592.251 619.218 592.11 619.048 592.012C618.878 591.914 618.685 591.861 618.489 591.86L609.999 591.79C613.093 587.857 614.903 585.043 615.429 583.35C616.956 578.457 619.413 573.623 622.799 568.85C624.259 566.797 624.589 564.507 623.789 561.98L631.499 561.79C631.644 561.787 631.784 561.732 631.893 561.635C632.003 561.538 632.076 561.406 632.099 561.26C635.609 539.77 623.549 517.71 610.199 501.31C603.566 493.157 598.699 487.687 595.599 484.9C586.399 476.633 580.263 471.183 577.189 468.55C566.889 459.717 555.779 452.41 543.859 446.63C533.233 441.477 522.596 436.377 511.949 431.33C516.356 427.59 521.829 424.023 528.369 420.63C543.203 412.937 556.706 406.44 568.879 401.14C570.526 400.427 572.319 399.763 574.259 399.15C576.166 398.537 577.983 397.94 579.709 397.36Z" fill="#F09F00"/>
<path d="M239.221 509.768C258.592 507.424 272.423 490.051 270.113 470.966C267.804 451.88 250.228 438.308 230.857 440.652C211.486 442.996 197.656 460.369 199.965 479.454C202.275 498.54 219.85 512.112 239.221 509.768Z" fill="#FFCC2E"/>
<path d="M623.789 561.98C624.589 564.507 624.259 566.797 622.799 568.85C619.412 573.623 616.956 578.457 615.429 583.35C614.902 585.043 613.092 587.857 609.999 591.79C554.032 591.843 498.032 591.837 441.999 591.77C422.569 591.75 422.739 562.03 441.999 562C502.592 561.92 563.189 561.913 623.789 561.98Z" fill="#FFCC2E"/>
<path d="M509.561 731.97C505.914 732.87 503.331 733.653 501.811 734.32C471.171 747.76 441.821 763.7 417.131 786.79C417.024 786.888 416.947 787.016 416.911 787.156C416.875 787.297 416.881 787.446 416.927 787.583C416.974 787.721 417.059 787.842 417.174 787.932C417.288 788.022 417.426 788.077 417.571 788.09C418.678 788.203 420.071 788.253 421.751 788.24C436.638 788.133 485.464 788.107 568.231 788.16C572.584 788.16 575.694 788.593 577.561 789.46C584.571 792.72 588.361 800.97 585.241 808.22C583.191 812.97 578.301 817.8 572.751 817.8C485.604 817.86 425.448 817.857 392.281 817.79C391.381 817.783 390.394 818.473 389.321 819.86C386.968 822.907 385.018 825.863 383.471 828.73C378.904 837.183 374.931 845.707 371.551 854.3C369.001 860.79 368.271 869.11 367.861 876.49C367.588 881.423 367.068 885.22 366.301 887.88C358.731 914.19 324.791 919.19 309.951 896.24C306.264 890.54 304.718 883.713 305.311 875.76C305.904 867.88 307.011 859.897 308.631 851.81C314.121 824.52 327.611 797.54 344.791 775.54C367.481 746.49 397.111 724.5 429.971 706.72C434.831 704.093 439.231 702.023 443.171 700.51C443.452 700.405 443.702 700.222 443.891 699.98C444.118 699.687 444.254 699.43 444.301 699.21C449.061 702.25 454.101 704.943 459.421 707.29C467.901 711.037 475.631 714.44 482.611 717.5C486.804 719.34 490.631 721.16 494.091 722.96C495.758 723.827 499.474 725.877 505.241 729.11C506.768 729.963 508.208 730.917 509.561 731.97Z" fill="#F09F00"/>
</svg>
