<svg width="21" height="22" viewBox="0 0 21 22" fill="none" xmlns="http://www.w3.org/2000/svg">
<path d="M21 11.2399C21 10.5377 20.9384 9.87106 20.8328 9.22217H10.891V13.2311H16.5834C16.3282 14.5466 15.5804 15.6577 14.4718 16.4133V19.0799H17.8679C19.8563 17.2222 21 14.4844 21 11.2399Z" fill="#4285F4"/>
<path d="M10.891 21.6668C13.7416 21.6668 16.1259 20.7068 17.8679 19.0801L14.4718 16.4134C13.5216 17.0534 12.3163 17.4445 10.891 17.4445C8.13722 17.4445 5.80573 15.569 4.96992 13.0356H1.46828V15.7823C3.2015 19.2668 6.76472 21.6668 10.891 21.6668Z" fill="#34A853"/>
<path d="M4.96992 13.0356C4.74997 12.3956 4.63559 11.7111 4.63559 11C4.63559 10.2889 4.75877 9.60444 4.96992 8.96444V6.21777H1.46829C0.746845 7.65777 0.333336 9.27555 0.333336 11C0.333336 12.7244 0.746845 14.3422 1.46829 15.7822L4.96992 13.0356Z" fill="#FBBC05"/>
<path d="M10.891 4.55547C12.4483 4.55547 13.8384 5.0977 14.9381 6.15547L17.9471 3.11547C16.1259 1.39103 13.7416 0.333252 10.891 0.333252C6.76472 0.333252 3.2015 2.73325 1.46828 6.2177L4.96992 8.96436C5.80573 6.43103 8.13722 4.55547 10.891 4.55547Z" fill="#EA4335"/>
</svg>
