<svg width="1024" height="1024" viewBox="0 0 1024 1024" fill="none" xmlns="http://www.w3.org/2000/svg">
<path d="M654.42 249.47L636.33 251.64" stroke="#81D3C7" stroke-width="2"/>
<path d="M189.99 508.45C177.93 515.57 162.29 518.5 148.42 517.03" stroke="#81D3C7" stroke-width="2"/>
<path d="M287.82 513.6C281.113 510.773 274.72 509.033 268.64 508.38C259.113 507.353 251.003 506.15 244.31 504.77" stroke="#81D3C7" stroke-width="2"/>
<path d="M654.42 249.47L636.33 251.64C633.817 245.78 632.5 239.567 632.38 233C632.34 230.913 632.11 227.463 631.69 222.65C630.557 209.53 630.06 199.32 630.2 192.02C630.29 187.85 633.06 184.14 636.26 180.59C648.64 166.89 661.66 154.78 675.9 140.47C683.5 132.82 692.21 124.65 700.96 117.3C703.767 114.947 705.973 113.71 707.58 113.59C713.35 113.16 715.46 118.15 716.28 123.31C717.65 131.97 717.67 140.78 718.31 149.18C719.223 161.293 719.733 168.647 719.84 171.24C719.95 174.12 719.79 176.4 717.73 178.77C715.11 181.797 712.813 184.32 710.84 186.34C698.387 199.04 686.323 211.39 674.65 223.39C666.317 231.957 660.723 237.783 657.87 240.87C655.67 243.243 654.52 246.11 654.42 249.47Z" fill="#8CDACD"/>
<path d="M636.33 251.64L654.42 249.47C655.32 253.19 657.437 255.45 660.77 256.25C664.617 257.163 668.137 256.017 671.33 252.81C687.737 236.337 707.704 215.727 731.23 190.98C734.84 187.18 744.31 185.35 749.23 185.2C758.13 184.947 765.994 185.147 772.82 185.8C775.82 186.087 777.96 186.223 779.24 186.21C783.81 186.15 785.99 186.32 790.16 187.35C790.452 187.423 790.729 187.544 790.98 187.71C792.707 188.843 793.937 190.157 794.67 191.65C796.68 195.75 792.16 202.87 789.3 205.79C772.08 223.37 748.29 247.34 730.61 266.69C726.437 271.257 723.244 274.13 721.03 275.31C717.037 277.437 712.92 278.63 708.68 278.89C702.5 279.277 688.837 279.213 667.69 278.7C667.118 278.687 666.549 278.623 665.99 278.51C662.237 277.71 659.094 277.473 656.56 277.8C654.3 278.09 652.32 280.19 650.51 282.05C600.704 333.177 550.437 384.813 499.71 436.96C483.437 453.693 474.734 462.653 473.6 463.84C462.487 475.467 450.88 487.53 438.78 500.03C435.39 503.53 429.04 504.7 424.2 503.03C412.63 499.05 411.3 485.07 419.54 476.76C421.174 475.113 437.057 458.84 467.19 427.94C509.244 384.827 534.214 359.213 542.1 351.1C572.087 320.26 592.164 299.727 602.33 289.5C611.28 280.49 622.63 268.35 631.2 259.71C633.647 257.25 635.357 254.56 636.33 251.64Z" fill="#76CBC1"/>
<path d="M189.99 508.45C177.93 515.57 162.29 518.5 148.42 517.03C148.09 510.92 147.42 504.42 147.24 498.76C146.8 484.487 147.273 471.08 148.66 458.54C153.61 413.56 169.24 368.98 194.4 331.29C217.06 297.35 247.23 268.36 282.58 247.57C306.253 233.657 331.213 223.3 357.46 216.5C383.787 209.687 411.407 206.59 440.32 207.21C445.3 207.317 448.593 207.49 450.2 207.73C454.51 208.38 458.11 208.17 463.29 208.89C476.01 210.67 483.677 211.843 486.29 212.41C505.603 216.63 523.387 222.037 539.64 228.63C561.747 237.603 582.383 249.567 601.55 264.52C601.89 264.786 602.123 265.166 602.204 265.589C602.285 266.013 602.209 266.45 601.99 266.82C601.17 268.22 599.997 269.687 598.47 271.22C591.19 278.54 583.47 286.403 575.31 294.81C574.237 295.917 573.08 296.04 571.84 295.18C544.81 276.51 515.52 262.36 483.99 255.78C473.93 253.68 462.43 252.01 451.49 251.16C450.043 251.047 445.933 250.757 439.16 250.29C434.78 249.983 430.67 249.89 426.83 250.01C414.15 250.403 404.04 251.093 396.5 252.08C338.3 259.72 290.163 284.39 252.09 326.09C214.65 367.103 193.98 415.827 190.08 472.26C189.413 481.88 189.383 493.943 189.99 508.45Z" fill="#8CDACD"/>
<path d="M287.82 513.6C281.113 510.773 274.72 509.033 268.64 508.38C259.113 507.353 251.003 506.15 244.31 504.77C243.93 498.52 243.5 492.18 243.62 486.09C244.273 453.43 252.867 423.037 269.4 394.91C300.55 341.94 353.62 309.21 414.77 304.41C418.55 304.11 424.713 304.02 433.26 304.14C440.673 304.247 446.83 304.603 451.73 305.21C479.763 308.657 506.133 317.897 530.84 332.93C532.18 333.743 533.157 334.6 533.77 335.5C534.006 335.843 534.115 336.258 534.076 336.673C534.038 337.088 533.855 337.476 533.56 337.77L504 367.33C503.816 367.514 503.58 367.636 503.323 367.679C503.067 367.722 502.804 367.684 502.57 367.57C497.817 365.23 492.783 362.897 487.47 360.57C475.93 355.51 464.353 351.963 452.74 349.93C438.413 347.417 423.47 347.24 407.91 349.4C383.997 352.72 362.33 361.547 342.91 375.88C318.677 393.767 302.077 416.833 293.11 445.08C288.13 460.753 285.743 476.987 285.95 493.78C286.03 499.98 287.15 507.01 287.82 513.6Z" fill="#8CDACD"/>
<path d="M617.03 339.6C617.43 337.85 618.78 336.62 620.06 335.3C627.406 327.72 634.68 320.167 641.88 312.64C642.92 311.56 643.956 311.04 644.99 311.08C647.59 311.18 651.36 316.99 654.7 321.53C666.146 337.05 675.806 353.14 683.68 369.8C685.793 374.28 687.493 378.427 688.78 382.24C689.34 383.9 688.89 385.26 687.78 386.68C681.953 394.127 677.47 401.383 674.33 408.45C674.154 408.845 673.867 409.181 673.503 409.418C673.139 409.654 672.714 409.779 672.28 409.78H656.38C655.861 409.78 655.355 409.621 654.93 409.324C654.506 409.027 654.185 408.606 654.01 408.12C650.383 398.12 646.27 388.647 641.67 379.7C634.69 366.12 626.3 354.15 617.24 340.74C617.129 340.576 617.054 340.39 617.017 340.194C616.981 339.998 616.986 339.796 617.03 339.6Z" fill="#8CDACD"/>
<path d="M576.42 381.09C576.721 380.969 577.053 380.944 577.369 381.017C577.686 381.091 577.972 381.259 578.19 381.5C579.136 382.547 579.943 383.587 580.61 384.62C587.756 395.767 593.386 405.967 597.5 415.22C599.34 419.36 600.563 423.07 601.17 426.35C601.281 426.951 601.221 427.561 600.998 428.093C600.776 428.626 600.402 429.055 599.93 429.32C599.27 429.693 598.376 429.85 597.25 429.79C593.743 429.617 588.996 429.69 583.01 430.01C576.236 430.377 569.383 431.693 562.45 433.96C561.939 434.127 561.385 434.104 560.89 433.897C560.394 433.69 559.989 433.311 559.75 432.83C556.31 425.89 552.9 418.59 548.52 411.98C547.42 410.32 547.92 409 549.33 407.61C557.97 399.07 566.103 390.86 573.73 382.98C574.583 382.093 575.48 381.463 576.42 381.09Z" fill="#8CDACD"/>
<path d="M768.4 416.35C770.21 422.77 772.4 430.04 780.5 430.45C782.526 430.557 787.373 430.58 795.04 430.52C801.386 430.473 805.48 430.893 807.32 431.78C815.66 435.79 816.91 442.79 816.88 452.24C816.853 460.86 816.836 471.753 816.83 484.92C816.82 495.3 808.28 502.15 798.28 502.12C755.546 502 710.256 502 662.41 502.12C655.32 502.14 650.99 501.56 646.23 497.04C642.24 493.24 641.09 489.5 641.12 483.52C641.16 477.227 641.156 467.38 641.11 453.98C641.09 448.04 641.303 444.25 641.75 442.61C643.61 435.68 648.93 431.98 656.08 430.79C656.746 430.677 659.526 430.62 664.42 430.62C669.126 430.613 673.886 430.627 678.7 430.66C679.164 430.667 679.629 430.606 680.08 430.48C683.08 429.68 685.616 427.943 687.69 425.27C689.77 422.58 690.37 417.46 691.62 414.65C697.866 400.677 708.493 392.973 723.5 391.54C731.12 390.81 741.01 391.35 748.06 394.26C757.23 398.04 765.6 406.46 768.4 416.35ZM741.733 431.886C741.153 428.63 739.282 425.742 736.531 423.857C733.779 421.971 730.374 421.244 727.063 421.833C725.424 422.125 723.857 422.732 722.452 423.619C721.047 424.506 719.832 425.655 718.876 427.001C717.92 428.348 717.242 429.865 716.88 431.466C716.518 433.068 716.479 434.722 716.766 436.334C717.346 439.59 719.218 442.478 721.969 444.363C724.72 446.249 728.126 446.977 731.437 446.387C733.076 446.095 734.643 445.488 736.047 444.601C737.452 443.715 738.667 442.565 739.623 441.219C740.579 439.872 741.258 438.355 741.62 436.754C741.982 435.153 742.02 433.499 741.733 431.886Z" fill="#8CDACD"/>
<path d="M507 451.87C507.194 451.672 507.435 451.527 507.7 451.446C507.965 451.365 508.246 451.352 508.518 451.408C508.789 451.463 509.042 451.586 509.254 451.764C509.466 451.943 509.629 452.172 509.73 452.43C513.964 463.343 516.324 473.943 516.81 484.23C517.724 503.61 513.55 520.887 504.29 536.06C490.27 559.05 466.98 574.92 440.25 577.67C396.74 582.15 358.3 557.37 344.59 517C338.337 498.593 338.65 480.01 345.53 461.25C354.19 437.6 372.95 417.72 396.55 408.6C416.99 400.7 438.22 401.04 459.53 407.69C460.604 408.023 461.35 408.41 461.77 408.85C462.096 409.193 462.268 409.657 462.249 410.144C462.231 410.631 462.023 411.103 461.67 411.46C453.25 419.9 443.79 429.76 433.29 441.04C430.53 444 429.2 444.4 424.92 444.71C400.29 446.5 381.28 467.45 382.08 492.25C382.48 504.66 389.2 517.56 399.18 525.37C410.77 534.43 426.34 538.68 440.76 534.79C452.36 531.65 461.494 525.187 468.16 515.4C474.167 506.587 476.617 496.9 475.51 486.34C475.464 485.867 475.536 485.39 475.72 484.95C476.287 483.59 477.327 482.137 478.84 480.59C490.894 468.317 500.28 458.743 507 451.87Z" fill="#76CBC1"/>
<path d="M621.27 451.43C621.721 451.553 622.118 451.821 622.402 452.193C622.686 452.565 622.84 453.021 622.84 453.49V477.83C622.84 478.347 622.637 478.844 622.274 479.212C621.911 479.581 621.418 479.792 620.9 479.8C614.84 479.887 607.367 479.903 598.48 479.85C588.86 479.79 581.52 480.5 578.51 489.29C578.037 490.683 577.8 494.013 577.8 499.28C577.847 703.367 577.844 806.903 577.79 809.89C577.717 813.917 578.137 816.733 579.05 818.34C582.14 823.77 587.02 825.27 593.26 825.25C620.68 825.137 710.217 825.113 861.87 825.18C866.65 825.18 869.827 824.723 871.4 823.81C873.86 822.39 875.754 820.413 877.08 817.88C877.827 816.46 878.2 813.773 878.2 809.82C878.18 688.34 878.184 582.077 878.21 491.03C878.21 488.73 877.097 486.377 874.87 483.97C872.317 481.197 868.704 479.823 864.03 479.85C857.604 479.883 848.424 479.88 836.49 479.84C834.91 479.84 834.14 478.987 834.18 477.28C834.22 475.533 834.22 467.77 834.18 453.99C834.174 452.097 835.027 451.15 836.74 451.15C849.334 451.15 861.38 451.137 872.88 451.11C879.82 451.09 887.97 454.09 893.62 458.69C900.434 464.223 905.02 471.177 907.38 479.55C908.274 482.723 908.717 487.62 908.71 494.24C908.644 590.127 908.65 697.043 908.73 814.99C908.73 820.277 908.334 824.367 907.54 827.26C903.767 840.953 894.93 850.133 881.03 854.8C878.02 855.81 874.4 856 870.98 856.67C870.149 856.83 869.305 856.91 868.46 856.91C757.56 856.903 665.657 856.907 592.75 856.92C585.05 856.92 576.33 855.91 569.5 852.57C558.1 846.99 549.76 835.9 548.26 823.18C548.174 822.453 548.134 818.337 548.14 810.83C548.194 726.43 548.194 624.437 548.14 504.85C548.134 491.89 548.447 484.047 549.08 481.32C552.15 468.12 561.44 456.87 574.76 452.54C577.707 451.587 581.75 451.107 586.89 451.1C602.29 451.073 613.16 451.103 619.5 451.19C620.14 451.203 620.73 451.283 621.27 451.43Z" fill="#76CBC1"/>
<path d="M287.82 513.6C289.453 521.787 290.793 527.55 291.84 530.89C306.98 579.2 345.88 615.46 394.81 627.68C433.36 637.31 477.68 628.96 510.41 606.4C513.383 604.347 517.786 601.187 523.62 596.92C523.784 596.8 523.973 596.717 524.174 596.677C524.374 596.638 524.58 596.643 524.778 596.691C524.976 596.74 525.161 596.831 525.321 596.959C525.48 597.086 525.609 597.247 525.7 597.43C526.36 598.74 526.1 600.67 526.11 602.23C526.21 625.983 526.223 640.153 526.15 644.74C526.123 646.107 525.533 647.23 524.38 648.11C521.72 650.143 518.58 652.097 514.96 653.97C494.866 664.343 474.046 671.137 452.5 674.35C439.19 676.34 426.02 676.54 413.01 675.62C408.483 675.293 402.28 674.4 394.4 672.94C387.92 671.747 381.81 670.213 376.07 668.34C343.796 657.833 316.71 640.95 294.81 617.69C265.416 586.47 248.583 548.83 244.31 504.77C251.003 506.15 259.113 507.353 268.64 508.38C274.72 509.033 281.113 510.773 287.82 513.6Z" fill="#76CBC1"/>
<path d="M189.99 508.45C192.177 535.863 199.37 562.943 211.57 589.69C228.603 627.05 253.587 657.73 286.52 681.73C294.187 687.323 303.227 693.06 313.64 698.94C341.4 714.63 372 723.62 403.79 727.49C411.33 728.4 422.66 728.6 428 728.65C454.187 728.91 478.877 725.21 502.07 717.55C504.97 716.59 511.44 714.053 521.48 709.94C521.96 709.74 522.993 709.477 524.58 709.15C524.733 709.116 524.894 709.138 525.035 709.213C525.176 709.288 525.287 709.411 525.35 709.56C525.937 710.98 526.233 712.293 526.24 713.5C526.273 723.453 526.247 734.863 526.16 747.73C526.133 750.93 526.083 752.68 526.01 752.98C525.45 755.2 523.12 755.62 521.15 756.35C512.33 759.637 505.02 762.003 499.22 763.45C481.96 767.757 464.223 770.507 446.01 771.7C442.797 771.907 434.233 771.95 420.32 771.83C412.74 771.76 404.52 770.71 396.27 769.72C360.28 765.39 325.36 753.8 293.11 735.34C268.943 721.5 246.847 704.613 226.82 684.68C202.1 660.08 182.817 630.94 168.97 597.26C164.937 587.44 161.863 579.133 159.75 572.34C154.143 554.293 150.367 535.857 148.42 517.03C162.29 518.5 177.93 515.57 189.99 508.45Z" fill="#76CBC1"/>
<path d="M647.99 573.69C656.17 565.417 664.774 556.777 673.8 547.77C679.19 542.4 682.49 538.36 689.53 540.4C693.09 541.43 695.99 545.28 696.07 549.28C696.144 552.64 695.137 555.527 693.05 557.94C691.464 559.767 678.807 572.46 655.08 596.02C648.42 602.64 643.3 606.84 635.62 599.4C631.6 595.5 624.274 588.193 613.64 577.48C610.107 573.913 609.214 569.967 610.96 565.64C612.334 562.253 614.94 560.267 618.78 559.68C622.334 559.14 625.584 560.343 628.53 563.29C633.21 567.963 636.36 571.127 637.98 572.78C641.39 576.25 643.89 577.85 647.99 573.69Z" fill="#76CBC1"/>
<path d="M831.769 561.184L724.109 560.996C718.409 560.986 713.781 565.598 713.771 571.298L713.769 572.278C713.759 577.978 718.372 582.606 724.071 582.616L831.731 582.804C837.431 582.814 842.059 578.202 842.069 572.502L842.071 571.522C842.081 565.822 837.468 561.194 831.769 561.184Z" fill="#76CBC1"/>
<path d="M642.88 666.26C644.374 666.493 645.794 665.953 647.14 664.64C651.674 660.233 661.15 650.83 675.57 636.43C678.344 633.657 680.424 631.967 681.81 631.36C686.88 629.15 692.75 630.69 695.22 635.63C697.64 640.47 695.5 646.38 691.71 650.22C676.55 665.593 664.723 677.353 656.23 685.5C650.03 691.44 644.59 697.77 636.29 689.54C629.397 682.687 621.777 675.06 613.43 666.66C613.097 666.333 612.28 665.247 610.98 663.4C610.684 662.978 610.482 662.497 610.39 661.99C609.424 656.817 610.927 653.053 614.9 650.7C617.587 649.113 620.397 648.787 623.33 649.72C625.104 650.287 627.427 652.023 630.3 654.93C634.43 659.12 637.99 663.15 642.05 665.93C642.301 666.095 642.583 666.207 642.88 666.26Z" fill="#76CBC1"/>
<path d="M831.41 651.47H724.61C718.701 651.47 713.91 656.261 713.91 662.17V662.93C713.91 668.839 718.701 673.63 724.61 673.63H831.41C837.32 673.63 842.11 668.839 842.11 662.93V662.17C842.11 656.261 837.32 651.47 831.41 651.47Z" fill="#76CBC1"/>
<path d="M637.94 753.06C641.36 756.54 643.87 758.14 647.98 753.97C656.174 745.677 664.794 737.013 673.84 727.98C679.24 722.59 682.55 718.54 689.61 720.58C693.18 721.61 696.09 725.47 696.17 729.48C696.244 732.847 695.234 735.74 693.14 738.16C691.554 739.993 678.874 752.723 655.1 776.35C648.42 782.99 643.29 787.2 635.59 779.75C631.557 775.843 624.21 768.52 613.55 757.78C610.004 754.207 609.107 750.253 610.86 745.92C612.234 742.52 614.844 740.527 618.69 739.94C622.25 739.393 625.51 740.597 628.47 743.55C633.164 748.237 636.32 751.407 637.94 753.06Z" fill="#76CBC1"/>
<path d="M831.76 740.22H724.32C718.571 740.22 713.91 744.881 713.91 750.63V751.69C713.91 757.439 718.571 762.1 724.32 762.1H831.76C837.509 762.1 842.17 757.439 842.17 751.69V750.63C842.17 744.881 837.509 740.22 831.76 740.22Z" fill="#76CBC1"/>
</svg>
