<svg width="1024" height="1024" viewBox="0 0 1024 1024" fill="none" xmlns="http://www.w3.org/2000/svg">
<path d="M638.2 196.45C633.52 197.523 628.853 198.567 624.2 199.58C620.026 200.487 616.373 200.127 613.24 198.5C611.453 197.573 609.296 195.823 606.77 193.25" stroke="#80CFC0" stroke-width="2"/>
<path d="M606.77 193.25C590.137 167.15 566.79 150.35 536.73 142.85C526.096 140.197 515.52 139.037 505 139.37C477.53 140.25 451.74 150.37 431.68 168.93C425.007 175.097 419.79 180.883 416.03 186.29C395.823 215.297 390.38 247.507 399.7 282.92" stroke="#B6E7DA" stroke-width="2"/>
<path d="M399.7 282.92C393.59 290.54 387.01 298.47 378.5 303.49" stroke="#80CFC0" stroke-width="2"/>
<path d="M606.771 193.25C612.985 203.457 617.335 214.023 619.821 224.95C625.788 251.177 622.821 276.503 610.921 300.93C597.961 327.54 574.431 348.82 546.051 358.69C532.378 363.45 517.858 365.427 502.491 364.62C490.144 363.967 478.914 361.733 468.801 357.92C434.991 345.15 410.151 317.55 399.701 282.92" stroke="#ABE1D5" stroke-width="2"/>
<path d="M215 574L186.23 559" stroke="#80CFC0" stroke-width="2"/>
<path d="M488.031 270.95C478.924 261.597 468.604 250.857 457.071 238.73C446.601 227.73 429.291 237.77 433.441 252.24C434.081 254.48 436.114 257.31 439.541 260.73C442.981 264.17 455.087 276.823 475.861 298.69C480.211 303.28 484.271 306.3 490.351 305.7C494.064 305.34 497.574 303.317 500.881 299.63C521.761 276.35 546.738 248.49 575.811 216.05C580.171 211.19 582.611 206.2 580.081 199.73C577.171 192.3 570.111 189.13 562.411 191.24C559.361 192.08 556.391 195.08 554.241 197.49C536.414 217.41 514.598 241.89 488.791 270.93C488.744 270.983 488.686 271.026 488.621 271.057C488.557 271.087 488.486 271.103 488.415 271.105C488.344 271.107 488.273 271.094 488.207 271.067C488.141 271.041 488.081 271.001 488.031 270.95Z" stroke="#B6E7DA" stroke-width="2"/>
<path d="M439.851 443.352C439.85 442.969 439.774 442.589 439.626 442.235C439.479 441.881 439.263 441.56 438.992 441.289C438.72 441.018 438.398 440.804 438.043 440.658C437.689 440.512 437.309 440.437 436.925 440.438L353.806 440.583C353.422 440.583 353.042 440.659 352.688 440.807C352.334 440.954 352.013 441.17 351.742 441.441C351.472 441.713 351.257 442.035 351.111 442.39C350.965 442.744 350.89 443.124 350.891 443.508L351.032 524.268C351.032 524.651 351.108 525.031 351.256 525.385C351.403 525.739 351.619 526.06 351.89 526.331C352.162 526.602 352.484 526.816 352.839 526.962C353.193 527.108 353.573 527.183 353.957 527.183L437.077 527.037C437.46 527.037 437.84 526.961 438.194 526.813C438.548 526.666 438.869 526.45 439.14 526.179C439.41 525.907 439.625 525.585 439.771 525.23C439.917 524.876 439.992 524.496 439.991 524.112L439.851 443.352Z" stroke="#A1DED2" stroke-width="2"/>
<path d="M388.391 487.24C385.318 484.193 382.287 481.113 379.301 478C375.571 474.11 371.711 471.63 366.211 473.37C360.961 475.03 358.731 480.61 360.111 485.74C360.591 487.54 362.261 489.79 365.121 492.49C365.567 492.917 370.224 497.62 379.091 506.6C383.571 511.15 386.301 513.42 392.241 512.15C393.921 511.797 396.537 509.613 400.091 505.6C405.104 499.947 414.394 489.783 427.961 475.11C431.311 471.49 433.491 467.91 431.521 463.45C429.601 459.083 426.121 457.08 421.081 457.44C418.081 457.66 415.341 459.9 413.521 461.85C405.414 470.537 397.487 478.993 389.741 487.22C389.653 487.311 389.548 487.384 389.433 487.435C389.317 487.485 389.193 487.512 389.067 487.514C388.941 487.516 388.817 487.492 388.701 487.445C388.585 487.398 388.479 487.329 388.391 487.24Z" stroke="#A1DED2" stroke-width="2"/>
<path d="M439.74 604.662C439.74 604.28 439.664 603.902 439.517 603.549C439.37 603.196 439.155 602.876 438.885 602.606C438.614 602.336 438.293 602.122 437.939 601.977C437.586 601.831 437.208 601.757 436.825 601.757L353.465 601.903C353.083 601.903 352.705 601.979 352.352 602.126C351.999 602.273 351.679 602.488 351.409 602.759C351.14 603.029 350.926 603.351 350.78 603.704C350.634 604.057 350.56 604.436 350.561 604.818L350.701 685.558C350.702 685.94 350.778 686.318 350.925 686.671C351.072 687.024 351.287 687.344 351.557 687.614C351.828 687.884 352.149 688.098 352.503 688.243C352.856 688.389 353.234 688.463 353.617 688.463L436.976 688.317C437.359 688.317 437.737 688.241 438.09 688.094C438.442 687.947 438.763 687.732 439.033 687.461C439.302 687.191 439.516 686.869 439.662 686.516C439.807 686.163 439.882 685.784 439.881 685.402L439.74 604.662Z" stroke="#A1DED2" stroke-width="2"/>
<path d="M388.06 648.64C384.993 645.58 381.97 642.487 378.99 639.36C375.27 635.45 371.42 632.95 365.9 634.67C360.64 636.32 358.39 641.89 359.75 647.04C360.223 648.84 361.886 651.097 364.74 653.81C365.186 654.237 369.833 658.963 378.68 667.99C383.15 672.56 385.87 674.84 391.83 673.59C393.51 673.243 396.136 671.067 399.71 667.06C404.75 661.42 414.086 651.28 427.72 636.64C431.09 633.02 433.28 629.45 431.33 624.97C429.423 620.597 425.946 618.58 420.9 618.92C417.89 619.13 415.14 621.36 413.31 623.31C405.163 631.977 397.196 640.413 389.41 648.62C389.322 648.711 389.217 648.784 389.102 648.835C388.986 648.885 388.862 648.912 388.736 648.914C388.61 648.916 388.486 648.892 388.369 648.845C388.253 648.798 388.148 648.729 388.06 648.64Z" stroke="#A1DED2" stroke-width="2"/>
<path d="M439.7 766.46C439.7 765.59 439.354 764.756 438.739 764.141C438.124 763.526 437.29 763.18 436.42 763.18H353.96C353.09 763.18 352.256 763.526 351.64 764.141C351.025 764.756 350.68 765.59 350.68 766.46V846.5C350.68 847.37 351.025 848.204 351.64 848.819C352.256 849.434 353.09 849.78 353.96 849.78H436.42C437.29 849.78 438.124 849.434 438.739 848.819C439.354 848.204 439.7 847.37 439.7 846.5V766.46Z" stroke="#A1DED2" stroke-width="2"/>
<path d="M388.051 810.29C385.011 807.243 382.011 804.163 379.051 801.05C375.361 797.15 371.531 794.66 366.041 796.36C360.811 797.99 358.561 803.53 359.911 808.65C360.378 810.443 362.028 812.69 364.861 815.39C365.301 815.817 369.911 820.527 378.691 829.52C383.131 834.07 385.831 836.34 391.761 835.11C393.435 834.77 396.051 832.61 399.611 828.63C404.631 823.03 413.931 812.963 427.511 798.43C430.871 794.84 433.051 791.29 431.121 786.83C429.235 782.477 425.781 780.467 420.761 780.8C417.771 781 415.031 783.21 413.211 785.15C405.091 793.75 397.155 802.127 389.401 810.28C389.314 810.371 389.21 810.444 389.094 810.494C388.979 810.544 388.854 810.57 388.728 810.571C388.602 810.572 388.478 810.547 388.361 810.499C388.245 810.451 388.14 810.38 388.051 810.29Z" stroke="#A1DED2" stroke-width="2"/>
<path d="M638.199 196.45C633.519 197.523 628.853 198.567 624.199 199.58C620.026 200.487 616.373 200.127 613.239 198.5C611.453 197.573 609.296 195.823 606.769 193.25C590.136 167.15 566.789 150.35 536.729 142.85C526.096 140.197 515.519 139.037 504.999 139.37C477.529 140.25 451.739 150.37 431.679 168.93C425.006 175.097 419.789 180.883 416.029 186.29C395.823 215.297 390.379 247.507 399.699 282.92C393.589 290.54 387.009 298.47 378.499 303.49C371.259 286.437 367.796 268.45 368.109 249.53C368.216 243.137 368.463 238.383 368.849 235.27C371.823 210.983 380.526 188.967 394.959 169.22C427.129 125.22 482.509 104.67 535.799 114.69C582.559 123.49 619.839 152.57 638.199 196.45Z" fill="#8BD5C5"/>
<path d="M606.77 193.25C612.983 203.457 617.333 214.023 619.82 224.95C625.787 251.177 622.82 276.503 610.92 300.93C597.96 327.54 574.43 348.82 546.05 358.69C532.376 363.45 517.856 365.427 502.49 364.62C490.143 363.967 478.913 361.733 468.8 357.92C434.99 345.15 410.15 317.55 399.7 282.92C390.38 247.507 395.823 215.297 416.03 186.29C419.79 180.883 425.007 175.097 431.68 168.93C451.74 150.37 477.53 140.25 505 139.37C515.52 139.037 526.096 140.197 536.73 142.85C566.79 150.35 590.137 167.15 606.77 193.25ZM488.03 270.95C478.923 261.597 468.603 250.857 457.07 238.73C446.6 227.73 429.29 237.77 433.44 252.24C434.08 254.48 436.113 257.31 439.54 260.73C442.98 264.17 455.086 276.823 475.86 298.69C480.21 303.28 484.27 306.3 490.35 305.7C494.063 305.34 497.573 303.317 500.88 299.63C521.76 276.35 546.737 248.49 575.81 216.05C580.17 211.19 582.61 206.2 580.08 199.73C577.17 192.3 570.11 189.13 562.41 191.24C559.36 192.08 556.39 195.08 554.24 197.49C536.413 217.41 514.597 241.89 488.79 270.93C488.743 270.983 488.685 271.027 488.62 271.057C488.556 271.087 488.485 271.103 488.414 271.105C488.343 271.107 488.272 271.094 488.206 271.068C488.14 271.041 488.08 271.001 488.03 270.95Z" fill="#E1F9EF"/>
<path d="M488.031 270.95C488.081 271.001 488.141 271.041 488.207 271.067C488.273 271.094 488.344 271.107 488.415 271.105C488.486 271.103 488.557 271.087 488.621 271.057C488.686 271.026 488.744 270.983 488.791 270.93C514.598 241.89 536.414 217.41 554.241 197.49C556.391 195.08 559.361 192.08 562.411 191.24C570.111 189.13 577.171 192.3 580.081 199.73C582.611 206.2 580.171 211.19 575.811 216.05C546.738 248.49 521.761 276.35 500.881 299.63C497.574 303.317 494.064 305.34 490.351 305.7C484.271 306.3 480.211 303.28 475.861 298.69C455.087 276.823 442.981 264.17 439.541 260.73C436.114 257.31 434.081 254.48 433.441 252.24C429.291 237.77 446.601 227.73 457.071 238.73C468.604 250.857 478.924 261.597 488.031 270.95Z" fill="#8BD5C5"/>
<path d="M638.2 196.45C648.68 221.8 652.07 249.67 646.87 276.52C643.19 295.507 635.883 313.31 624.95 329.93C619.523 338.183 613.74 345.147 607.6 350.82C585.48 371.25 556.67 386 526.6 390.24C488.77 395.57 449.82 383.96 420.24 360.01C401.773 345.05 387.86 326.21 378.5 303.49C387.01 298.47 393.59 290.54 399.7 282.92C410.15 317.55 434.99 345.15 468.8 357.92C478.913 361.733 490.143 363.967 502.49 364.62C517.857 365.427 532.377 363.45 546.05 358.69C574.43 348.82 597.96 327.54 610.92 300.93C622.82 276.503 625.787 251.177 619.82 224.95C617.333 214.023 612.983 203.457 606.77 193.25C609.297 195.823 611.453 197.573 613.24 198.5C616.373 200.127 620.027 200.487 624.2 199.58C628.853 198.567 633.52 197.523 638.2 196.45Z" fill="#74C8BB"/>
<path d="M215 574L186.23 559C184.67 548.49 183.99 538.83 183.53 528.49C182.203 498.283 185.343 468.673 192.95 439.66C207.28 385 235.9 333.2 276.08 293.34C290.893 278.64 305.343 266.33 319.43 256.41C323.157 253.79 327.2 253.32 331.56 255C339.81 258.18 342.92 270.96 335.58 276.56C311.43 294.99 290.02 314.56 272.61 336.95C244.45 373.163 225.47 413.817 215.67 458.91C212.463 473.643 210.497 489.423 209.77 506.25C208.76 529.41 210.61 551.73 215 574Z" fill="#8BD5C5"/>
<path d="M720.139 314.2C720.006 314.567 719.973 315 720.039 315.5C720.566 319.22 722.233 325.217 725.039 333.49C727.519 340.8 726.269 348.13 719.429 352.21C713.479 355.75 704.979 353.82 700.789 347.88C699.669 346.307 698.496 343.66 697.269 339.94C689.463 316.32 683.029 296.847 677.969 281.52C676.689 277.66 675.989 274.96 677.329 271.36C679.089 266.58 682.979 264.03 688.999 263.71C708.226 262.683 719.139 262.187 721.739 262.22C730.349 262.35 737.869 261.54 748.709 261.13C755.669 260.863 759.999 261.003 761.699 261.55C765.899 262.883 768.866 265.937 770.599 270.71C773.699 279.23 767.679 288.14 758.709 289.19C755.223 289.597 750.836 289.763 745.549 289.69C745.06 289.682 744.588 289.852 744.234 290.162C743.879 290.472 743.669 290.898 743.649 291.35C743.596 292.697 744.166 293.96 745.359 295.14C776.986 326.32 800.816 362.59 816.849 403.95C829.069 435.483 836.003 468.623 837.649 503.37C837.763 505.75 837.776 512.613 837.689 523.96C837.469 551.75 832.739 580.16 824.909 605.23C814.163 639.65 798.206 670.933 777.039 699.08C741.139 746.81 691.349 784.85 635.359 805.84C602.899 818.013 569.613 824.943 535.499 826.63C531.786 826.81 523.683 826.853 511.189 826.76C507.709 826.733 505.153 826.407 503.519 825.78C489.889 820.51 493.949 800.94 508.529 800.68C523.629 800.41 534.419 800.78 547.779 799.5C576.073 796.8 602.696 790.52 627.649 780.66C661.716 767.207 692.426 748.093 719.779 723.32C769.569 678.22 800.999 615.69 809.429 549.5C809.883 545.967 810.196 542.463 810.369 538.99C810.609 534.34 811.129 530.1 811.229 524.94C812.249 472.513 800.229 423.63 775.169 378.29C765.179 360.22 754.109 345.26 740.629 329.66C736.036 324.347 731.149 319.453 725.969 314.98C724.883 314.04 723.783 313.383 722.669 313.01C722.174 312.841 721.633 312.87 721.16 313.092C720.688 313.315 720.321 313.712 720.139 314.2Z" fill="#74C8BB"/>
<path d="M437.89 416.13C441.539 416.13 445.153 416.849 448.525 418.245C451.896 419.642 454.96 421.689 457.54 424.269C460.121 426.85 462.168 429.913 463.564 433.285C464.961 436.657 465.68 440.27 465.68 443.92V521.47C465.68 529.766 462.487 537.722 456.805 543.588C451.123 549.454 443.416 552.75 435.38 552.75H355.56C347.524 552.75 339.817 549.454 334.134 543.588C328.452 537.722 325.26 529.766 325.26 521.47V443.92C325.26 436.55 328.188 429.481 333.399 424.269C338.611 419.058 345.679 416.13 353.05 416.13H437.89ZM439.849 443.352C439.849 442.969 439.772 442.589 439.625 442.235C439.478 441.881 439.262 441.56 438.99 441.289C438.719 441.018 438.397 440.804 438.042 440.658C437.687 440.512 437.308 440.437 436.924 440.437L353.804 440.582C353.421 440.583 353.041 440.659 352.687 440.807C352.333 440.954 352.012 441.17 351.741 441.441C351.47 441.713 351.256 442.035 351.11 442.39C350.964 442.744 350.889 443.124 350.889 443.508L351.03 524.267C351.031 524.651 351.107 525.031 351.254 525.385C351.402 525.739 351.617 526.06 351.889 526.331C352.161 526.601 352.483 526.816 352.838 526.962C353.192 527.108 353.572 527.183 353.955 527.182L437.075 527.037C437.459 527.037 437.838 526.96 438.192 526.813C438.546 526.666 438.868 526.45 439.139 526.178C439.409 525.907 439.624 525.585 439.77 525.23C439.916 524.875 439.991 524.496 439.99 524.112L439.849 443.352Z" fill="#74C8BB"/>
<path d="M439.989 524.112C439.99 524.496 439.915 524.876 439.769 525.23C439.623 525.585 439.409 525.907 439.138 526.179C438.867 526.45 438.546 526.666 438.192 526.813C437.838 526.961 437.458 527.037 437.075 527.037L353.955 527.183C353.571 527.183 353.191 527.108 352.837 526.962C352.482 526.816 352.16 526.602 351.888 526.331C351.617 526.06 351.401 525.739 351.254 525.385C351.106 525.031 351.03 524.651 351.03 524.268L350.889 443.508C350.888 443.124 350.963 442.744 351.109 442.39C351.255 442.035 351.47 441.713 351.74 441.441C352.011 441.17 352.333 440.954 352.687 440.807C353.041 440.659 353.42 440.583 353.804 440.583L436.924 440.438C437.307 440.437 437.687 440.512 438.041 440.658C438.396 440.804 438.718 441.018 438.99 441.289C439.261 441.56 439.477 441.881 439.624 442.235C439.772 442.589 439.848 442.969 439.849 443.352L439.989 524.112ZM388.389 487.24C385.316 484.193 382.286 481.113 379.299 478C375.569 474.11 371.709 471.63 366.209 473.37C360.959 475.03 358.729 480.61 360.109 485.74C360.589 487.54 362.259 489.79 365.119 492.49C365.566 492.917 370.222 497.62 379.089 506.6C383.569 511.15 386.299 513.42 392.239 512.15C393.919 511.797 396.536 509.613 400.089 505.6C405.102 499.947 414.392 489.783 427.959 475.11C431.309 471.49 433.489 467.91 431.519 463.45C429.599 459.083 426.119 457.08 421.079 457.44C418.079 457.66 415.339 459.9 413.519 461.85C405.412 470.537 397.486 478.993 389.739 487.22C389.651 487.311 389.547 487.384 389.431 487.435C389.315 487.485 389.191 487.512 389.065 487.514C388.94 487.516 388.815 487.492 388.699 487.445C388.583 487.398 388.477 487.329 388.389 487.24Z" fill="#CEF4E9"/>
<path d="M388.391 487.24C388.479 487.329 388.585 487.398 388.701 487.445C388.817 487.492 388.941 487.516 389.067 487.514C389.193 487.512 389.317 487.485 389.433 487.435C389.548 487.384 389.653 487.311 389.741 487.22C397.487 478.993 405.414 470.537 413.521 461.85C415.341 459.9 418.081 457.66 421.081 457.44C426.121 457.08 429.601 459.083 431.521 463.45C433.491 467.91 431.311 471.49 427.961 475.11C414.394 489.783 405.104 499.947 400.091 505.6C396.537 509.613 393.921 511.797 392.241 512.15C386.301 513.42 383.571 511.15 379.091 506.6C370.224 497.62 365.567 492.917 365.121 492.49C362.261 489.79 360.591 487.54 360.111 485.74C358.731 480.61 360.961 475.03 366.211 473.37C371.711 471.63 375.571 474.11 379.301 478C382.287 481.113 385.318 484.193 388.391 487.24Z" fill="#74C8BB"/>
<path d="M215 574C226.94 627.54 253.08 677.55 291.91 716.34C296.24 720.66 301.52 725.28 302.43 729.49C304.04 736.89 298.92 743.1 291.47 743.77C285.95 744.27 282.95 743.24 278.89 739.22C260.084 720.52 244.957 702.447 233.51 685C208.817 647.353 193.057 605.353 186.23 559L215 574Z" fill="#74C8BB"/>
<path d="M326.44 690.84C325.72 687.693 325.35 683.08 325.33 677C325.243 641.64 325.25 616.897 325.35 602.77C325.37 599.683 326.353 596.02 328.3 591.78C332.27 583.12 341.82 577.86 351 577.55C358.427 577.29 387.173 577.187 437.24 577.24C446.64 577.253 454.167 580.813 459.82 587.92C464.9 594.31 465.68 601.28 465.68 610.12C465.66 644.66 465.633 668.953 465.6 683C465.59 688.37 464.04 694.49 460.74 699.05C455.05 706.95 448.73 712.21 439.26 713.42C438.087 713.573 434.403 713.647 428.21 713.64C415.117 713.633 393.973 713.63 364.78 713.63C356.413 713.63 351.413 713.477 349.78 713.17C338.46 711.03 328.9 701.6 326.44 690.84ZM439.739 604.662C439.739 604.28 439.663 603.902 439.516 603.549C439.369 603.196 439.154 602.876 438.883 602.606C438.613 602.336 438.292 602.122 437.938 601.977C437.585 601.831 437.206 601.757 436.824 601.757L353.464 601.903C353.082 601.903 352.704 601.979 352.351 602.126C351.998 602.273 351.678 602.488 351.408 602.759C351.138 603.029 350.925 603.351 350.779 603.704C350.633 604.057 350.559 604.436 350.559 604.818L350.7 685.558C350.701 685.94 350.777 686.318 350.924 686.671C351.071 687.024 351.286 687.344 351.556 687.614C351.827 687.884 352.148 688.097 352.502 688.243C352.855 688.389 353.233 688.463 353.615 688.463L436.975 688.317C437.358 688.316 437.736 688.241 438.089 688.094C438.441 687.947 438.762 687.732 439.032 687.461C439.301 687.191 439.515 686.869 439.661 686.516C439.806 686.163 439.881 685.784 439.88 685.402L439.739 604.662Z" fill="#74C8BB"/>
<path d="M439.881 685.402C439.882 685.784 439.807 686.163 439.662 686.516C439.516 686.869 439.302 687.191 439.033 687.461C438.763 687.732 438.442 687.947 438.09 688.094C437.737 688.241 437.359 688.317 436.976 688.317L353.617 688.463C353.234 688.463 352.856 688.389 352.503 688.243C352.149 688.098 351.828 687.884 351.557 687.614C351.287 687.344 351.072 687.024 350.925 686.671C350.778 686.318 350.702 685.94 350.701 685.558L350.561 604.818C350.56 604.436 350.634 604.057 350.78 603.704C350.926 603.351 351.14 603.029 351.409 602.759C351.679 602.488 351.999 602.273 352.352 602.126C352.705 601.979 353.083 601.903 353.465 601.903L436.825 601.757C437.208 601.757 437.586 601.831 437.939 601.977C438.293 602.122 438.614 602.336 438.885 602.606C439.155 602.876 439.37 603.196 439.517 603.549C439.664 603.902 439.74 604.28 439.74 604.662L439.881 685.402ZM388.061 648.64C384.994 645.58 381.971 642.487 378.991 639.36C375.271 635.45 371.421 632.95 365.901 634.67C360.641 636.32 358.391 641.89 359.751 647.04C360.224 648.84 361.888 651.097 364.741 653.81C365.188 654.237 369.834 658.963 378.681 667.99C383.151 672.56 385.871 674.84 391.831 673.59C393.511 673.243 396.138 671.067 399.711 667.06C404.751 661.42 414.088 651.28 427.721 636.64C431.091 633.02 433.281 629.45 431.331 624.97C429.424 620.597 425.948 618.58 420.901 618.92C417.891 619.13 415.141 621.36 413.311 623.31C405.164 631.977 397.198 640.413 389.411 648.62C389.323 648.711 389.219 648.784 389.103 648.834C388.987 648.885 388.863 648.912 388.737 648.914C388.611 648.916 388.487 648.892 388.371 648.845C388.255 648.798 388.149 648.729 388.061 648.64Z" fill="#CEF4E9"/>
<path d="M388.06 648.64C388.148 648.729 388.253 648.798 388.369 648.845C388.486 648.892 388.61 648.916 388.736 648.914C388.862 648.912 388.986 648.885 389.102 648.835C389.217 648.784 389.322 648.711 389.41 648.62C397.196 640.413 405.163 631.977 413.31 623.31C415.14 621.36 417.89 619.13 420.9 618.92C425.946 618.58 429.423 620.597 431.33 624.97C433.28 629.45 431.09 633.02 427.72 636.64C414.086 651.28 404.75 661.42 399.71 667.06C396.136 671.067 393.51 673.243 391.83 673.59C385.87 674.84 383.15 672.56 378.68 667.99C369.833 658.963 365.186 654.237 364.74 653.81C361.886 651.097 360.223 648.84 359.75 647.04C358.39 641.89 360.64 636.32 365.9 634.67C371.42 632.95 375.27 635.45 378.99 639.36C381.97 642.487 384.993 645.58 388.06 648.64Z" fill="#74C8BB"/>
<path d="M340.621 871.89C330.801 867.26 325.391 856.76 325.361 846.15C325.287 818.877 325.257 792.73 325.271 767.71C325.271 756.763 329.701 748.297 338.561 742.31C344.711 738.16 350.161 738.28 358.751 738.28C401.951 738.327 426.747 738.32 433.141 738.26C439.281 738.2 443.691 738.673 446.371 739.68C455.611 743.15 463.291 751.92 464.491 761.76C464.657 763.12 464.757 765.617 464.791 769.25C464.891 780.27 464.917 805.77 464.871 845.75C464.861 851.92 463.211 857.45 459.251 862.49C453.871 869.35 448.871 873 440.261 874.51C439.181 874.703 435.497 874.793 429.211 874.78C407.484 874.733 381.917 874.743 352.511 874.81C348.751 874.823 344.787 873.85 340.621 871.89ZM439.701 766.46C439.701 765.59 439.355 764.756 438.74 764.141C438.125 763.526 437.291 763.18 436.421 763.18H353.961C353.091 763.18 352.256 763.526 351.641 764.141C351.026 764.756 350.681 765.59 350.681 766.46V846.5C350.681 847.37 351.026 848.204 351.641 848.819C352.256 849.434 353.091 849.78 353.961 849.78H436.421C437.291 849.78 438.125 849.434 438.74 848.819C439.355 848.204 439.701 847.37 439.701 846.5V766.46Z" fill="#74C8BB"/>
<path d="M439.7 846.5C439.7 847.37 439.354 848.204 438.739 848.819C438.124 849.434 437.29 849.78 436.42 849.78H353.96C353.09 849.78 352.256 849.434 351.64 848.819C351.025 848.204 350.68 847.37 350.68 846.5V766.46C350.68 765.59 351.025 764.756 351.64 764.141C352.256 763.526 353.09 763.18 353.96 763.18H436.42C437.29 763.18 438.124 763.526 438.739 764.141C439.354 764.756 439.7 765.59 439.7 766.46V846.5ZM388.05 810.29C385.01 807.243 382.01 804.163 379.05 801.05C375.36 797.15 371.53 794.66 366.04 796.36C360.81 797.99 358.56 803.53 359.91 808.65C360.376 810.443 362.026 812.69 364.86 815.39C365.3 815.817 369.91 820.527 378.69 829.52C383.13 834.07 385.83 836.34 391.76 835.11C393.433 834.77 396.05 832.61 399.61 828.63C404.63 823.03 413.93 812.963 427.51 798.43C430.87 794.84 433.05 791.29 431.12 786.83C429.233 782.477 425.78 780.467 420.76 780.8C417.77 781 415.03 783.21 413.21 785.15C405.09 793.75 397.153 802.127 389.4 810.28C389.313 810.371 389.208 810.444 389.093 810.494C388.977 810.544 388.853 810.57 388.727 810.571C388.601 810.572 388.476 810.547 388.36 810.499C388.243 810.451 388.138 810.38 388.05 810.29Z" fill="#CEF4E9"/>
<path d="M388.049 810.29C388.138 810.38 388.243 810.451 388.359 810.499C388.476 810.547 388.6 810.572 388.726 810.571C388.852 810.57 388.977 810.544 389.092 810.494C389.208 810.444 389.312 810.371 389.399 810.28C397.153 802.127 405.089 793.75 413.209 785.15C415.029 783.21 417.769 781 420.759 780.8C425.779 780.467 429.233 782.477 431.119 786.83C433.049 791.29 430.869 794.84 427.509 798.43C413.929 812.963 404.629 823.03 399.609 828.63C396.049 832.61 393.433 834.77 391.759 835.11C385.829 836.34 383.129 834.07 378.689 829.52C369.909 820.527 365.299 815.817 364.859 815.39C362.026 812.69 360.376 810.443 359.909 808.65C358.559 803.53 360.809 797.99 366.039 796.36C371.529 794.66 375.359 797.15 379.049 801.05C382.009 804.163 385.009 807.243 388.049 810.29Z" fill="#74C8BB"/>
</svg>
