<svg width="24" height="24" viewBox="0 0 24 24" fill="none" xmlns="http://www.w3.org/2000/svg">
<g clip-path="url(#clip0_2203_3271)">
<path d="M12 0C11.8616 0 11.7289 0.0549688 11.6311 0.152814C11.5332 0.250659 11.4783 0.383365 11.4783 0.521739C11.4783 0.660113 11.5332 0.792819 11.6311 0.890664C11.7289 0.988509 11.8616 1.04348 12 1.04348C12.1384 1.04348 12.2711 0.988509 12.3689 0.890664C12.4668 0.792819 12.5217 0.660113 12.5217 0.521739C12.5217 0.383365 12.4668 0.250659 12.3689 0.152814C12.2711 0.0549688 12.1384 0 12 0ZM9.76325 0.220109C9.72835 0.22002 9.69353 0.223434 9.65931 0.230299C9.52365 0.257359 9.4043 0.337181 9.32748 0.452216C9.25066 0.567251 9.22267 0.708083 9.24966 0.84375C9.26294 0.911011 9.28935 0.974994 9.32738 1.03204C9.36541 1.08909 9.4143 1.13808 9.47127 1.17622C9.52825 1.21436 9.59218 1.2409 9.65941 1.25432C9.72664 1.26773 9.79586 1.26777 9.86311 1.25442C9.99876 1.22736 10.1181 1.14753 10.1949 1.0325C10.2718 0.917464 10.2997 0.776632 10.2728 0.640965C10.2495 0.522781 10.186 0.416296 10.0931 0.339584C10.0003 0.262872 9.8837 0.220659 9.76325 0.220109ZM14.2531 0.220109C14.1301 0.217028 14.0101 0.257461 13.9141 0.334274C13.818 0.411088 13.7522 0.519345 13.7283 0.639946C13.7013 0.775613 13.7293 0.916445 13.8061 1.03148C13.8829 1.14651 14.0023 1.22634 14.1379 1.2534C14.2736 1.28038 14.4144 1.25239 14.5294 1.17558C14.6445 1.09876 14.7243 0.979403 14.7514 0.84375C14.7783 0.708083 14.7504 0.567251 14.6735 0.452216C14.5967 0.337181 14.4774 0.257359 14.3417 0.230299C14.3125 0.224376 14.2828 0.220967 14.2531 0.220109ZM7.61107 0.873302C7.54116 0.87276 7.47185 0.886275 7.40727 0.913043C7.34397 0.939272 7.28646 0.977711 7.23802 1.02617C7.18958 1.07462 7.15116 1.13214 7.12494 1.19545C7.09873 1.25875 7.08525 1.3266 7.08526 1.39511C7.08527 1.46363 7.09877 1.53147 7.125 1.59477C7.15123 1.65807 7.18967 1.71558 7.23812 1.76402C7.28658 1.81246 7.3441 1.85088 7.4074 1.87709C7.47071 1.90331 7.53855 1.91679 7.60707 1.91678C7.67559 1.91677 7.74343 1.90327 7.80673 1.87704C7.87002 1.85081 7.92753 1.81237 7.97597 1.76392C8.02442 1.71546 8.06284 1.65794 8.08905 1.59464C8.11526 1.53133 8.12875 1.46348 8.12874 1.39497C8.12873 1.32645 8.11522 1.25861 8.08899 1.19531C8.04976 1.10063 7.98352 1.0196 7.89853 0.962336C7.81353 0.90507 7.71356 0.874103 7.61107 0.873302ZM16.4042 0.873302C16.2991 0.871053 16.1958 0.900593 16.1078 0.958051C16.0198 1.01551 15.9512 1.09821 15.911 1.19531C15.8848 1.25861 15.8713 1.32645 15.8713 1.39497C15.8713 1.46348 15.8847 1.53133 15.9109 1.59464C15.9372 1.65794 15.9756 1.71546 16.024 1.76392C16.0725 1.81237 16.13 1.85081 16.1933 1.87704C16.2566 1.90327 16.3244 1.91677 16.3929 1.91678C16.4614 1.91679 16.5293 1.90331 16.5926 1.87709C16.6559 1.85088 16.7134 1.81246 16.7619 1.76402C16.8103 1.71558 16.8488 1.65807 16.875 1.59477C16.9012 1.53147 16.9147 1.46363 16.9147 1.39511C16.9148 1.3266 16.9013 1.25875 16.8751 1.19545C16.8488 1.13214 16.8104 1.07462 16.762 1.02617C16.7135 0.977711 16.656 0.939272 16.5927 0.913043C16.5329 0.888208 16.469 0.874731 16.4042 0.873302ZM5.62908 1.9341C5.52389 1.93319 5.42088 1.96409 5.33356 2.02276C5.21843 2.09951 5.13851 2.21886 5.11137 2.35454C5.08423 2.49023 5.11211 2.63113 5.18886 2.74626C5.22695 2.80333 5.27592 2.85232 5.33297 2.89043C5.39001 2.92855 5.45402 2.95504 5.52132 2.96838C5.58862 2.98173 5.65789 2.98167 5.72516 2.96821C5.79244 2.95475 5.8564 2.92816 5.91338 2.88995C6.02835 2.81303 6.10806 2.69361 6.135 2.55794C6.16195 2.42227 6.13391 2.28145 6.05707 2.16644C6.01 2.09583 5.94642 2.03776 5.87184 1.99727C5.79726 1.95679 5.71393 1.9351 5.62908 1.9341ZM18.3862 1.9341C18.2989 1.93247 18.2125 1.95279 18.1351 1.9932C18.0576 2.03362 17.9915 2.09284 17.9429 2.16542C17.8662 2.28055 17.8383 2.42146 17.8654 2.55714C17.8926 2.69282 17.9725 2.81217 18.0876 2.88893C18.2026 2.96578 18.3435 2.99381 18.4791 2.96687C18.6148 2.93992 18.7342 2.86021 18.8111 2.74524C18.888 2.63024 18.916 2.48942 18.8891 2.35375C18.8621 2.21808 18.7824 2.09866 18.6675 2.02174C18.5841 1.96612 18.4864 1.93569 18.3862 1.9341ZM3.89164 3.36175C3.82176 3.36068 3.75238 3.37366 3.68761 3.39991C3.62284 3.42617 3.56401 3.46517 3.51461 3.51461C3.41679 3.61245 3.36183 3.74514 3.36183 3.88349C3.36183 4.02185 3.41679 4.15454 3.51461 4.25238C3.61245 4.3502 3.74514 4.40515 3.88349 4.40515C4.02185 4.40515 4.15454 4.3502 4.25238 4.25238C4.3502 4.15454 4.40515 4.02185 4.40515 3.88349C4.40515 3.74514 4.3502 3.61245 4.25238 3.51461C4.15656 3.41873 4.02718 3.36391 3.89164 3.36175ZM20.1236 3.36175C20.0539 3.36082 19.9847 3.37386 19.9202 3.40011C19.8556 3.42637 19.7969 3.4653 19.7476 3.51461C19.6498 3.61245 19.5948 3.74514 19.5948 3.88349C19.5948 4.02185 19.6498 4.15454 19.7476 4.25238C19.8455 4.3502 19.9782 4.40515 20.1165 4.40515C20.2549 4.40515 20.3876 4.3502 20.4854 4.25238C20.5832 4.15454 20.6382 4.02185 20.6382 3.88349C20.6382 3.74514 20.5832 3.61245 20.4854 3.51461C20.3893 3.41848 20.2595 3.36364 20.1236 3.36175ZM12 3.65217C7.3958 3.65217 3.65217 7.3958 3.65217 12C3.65217 16.6042 7.3958 20.3478 12 20.3478C16.6042 20.3478 20.3478 16.6042 20.3478 12C20.3478 7.3958 16.6042 3.65217 12 3.65217ZM12 4.69565C16.0403 4.69565 19.3043 7.95974 19.3043 12C19.3043 16.0403 16.0403 19.3043 12 19.3043C7.95974 19.3043 4.69565 16.0403 4.69565 12C4.69565 7.95974 7.95974 4.69565 12 4.69565ZM2.46603 5.1002C2.37859 5.09868 2.29218 5.11915 2.21472 5.15975C2.13726 5.20035 2.07125 5.25977 2.02276 5.33254C1.94591 5.44755 1.91787 5.58837 1.94482 5.72404C1.97176 5.85971 2.05148 5.97913 2.16644 6.05605C2.28145 6.13289 2.42227 6.16093 2.55794 6.13399C2.69361 6.10704 2.81303 6.02733 2.88995 5.91236C2.96679 5.79736 2.99483 5.65654 2.96789 5.52087C2.94094 5.38519 2.86123 5.26577 2.74626 5.18886C2.66328 5.13306 2.56601 5.10229 2.46603 5.1002ZM21.5493 5.1002C21.4441 5.09929 21.3411 5.13019 21.2537 5.18886C21.1388 5.26577 21.0591 5.38519 21.0321 5.52087C21.0052 5.65654 21.0332 5.79736 21.1101 5.91236C21.187 6.02733 21.3064 6.10704 21.4421 6.13399C21.5777 6.16093 21.7186 6.13289 21.8336 6.05605C21.9485 5.97913 22.0282 5.85971 22.0552 5.72404C22.0821 5.58837 22.0541 5.44755 21.9772 5.33254C21.9302 5.26193 21.8666 5.20386 21.792 5.16337C21.7174 5.12289 21.6341 5.1012 21.5493 5.1002ZM1.40727 7.08526C1.30219 7.08301 1.19888 7.11255 1.11088 7.17001C1.02287 7.22747 0.954273 7.31016 0.914062 7.40727C0.887834 7.47057 0.874329 7.53841 0.874319 7.60692C0.87431 7.67544 0.887796 7.74329 0.914007 7.80659C0.940218 7.8699 0.978641 7.92742 1.02708 7.97587C1.07552 8.02433 1.13303 8.06277 1.19633 8.08899C1.25963 8.11522 1.32747 8.12873 1.39599 8.12874C1.4645 8.12875 1.53235 8.11526 1.59565 8.08905C1.65896 8.06284 1.71648 8.02442 1.76493 7.97597C1.81339 7.92753 1.85183 7.87002 1.87806 7.80673C1.90429 7.74343 1.91779 7.67559 1.9178 7.60707C1.91781 7.53855 1.90432 7.47071 1.87811 7.4074C1.8519 7.3441 1.81348 7.28658 1.76504 7.23812C1.7166 7.18967 1.65908 7.15123 1.59579 7.125C1.53596 7.10016 1.47203 7.08669 1.40727 7.08526ZM22.608 7.08526C22.5384 7.08485 22.4695 7.09837 22.4052 7.125C22.3418 7.15113 22.2842 7.1895 22.2357 7.23791C22.1871 7.28633 22.1486 7.34383 22.1223 7.40715C22.096 7.47046 22.0824 7.53834 22.0823 7.6069C22.0823 7.67547 22.0957 7.74337 22.1219 7.80673C22.1482 7.87002 22.1866 7.92753 22.2351 7.97597C22.2835 8.02442 22.341 8.06284 22.4043 8.08905C22.4676 8.11526 22.5355 8.12875 22.604 8.12874C22.6725 8.12873 22.7404 8.11522 22.8037 8.08899C22.8671 8.06286 22.9247 8.02449 22.9732 7.97608C23.0218 7.92767 23.0603 7.87016 23.0866 7.80685C23.1129 7.74353 23.1265 7.67565 23.1266 7.60709C23.1266 7.53853 23.1132 7.47063 23.087 7.40727C23.0477 7.31243 22.9813 7.23129 22.8961 7.17401C22.8109 7.11673 22.7107 7.08586 22.608 7.08526ZM12 7.30435C9.41902 7.30435 7.30435 9.41902 7.30435 12C7.30435 14.581 9.41902 16.6957 12 16.6957C14.581 16.6957 16.6957 14.581 16.6957 12C16.6957 9.41902 14.581 7.30435 12 7.30435ZM23.2602 9.23845C23.2253 9.23836 23.1905 9.24178 23.1562 9.24864C23.0206 9.2757 22.9012 9.35552 22.8244 9.47056C22.7476 9.58559 22.7196 9.72643 22.7466 9.86209C22.7599 9.92935 22.7863 9.99334 22.8243 10.0504C22.8623 10.1074 22.9112 10.1564 22.9682 10.1946C23.0252 10.2327 23.0891 10.2592 23.1564 10.2727C23.2236 10.2861 23.2928 10.2861 23.3601 10.2728C23.4957 10.2457 23.6151 10.1659 23.6919 10.0508C23.7687 9.93581 23.7967 9.79497 23.7697 9.65931C23.7464 9.54112 23.6829 9.43464 23.5901 9.35793C23.4972 9.28121 23.3806 9.239 23.2602 9.23845ZM0.756114 9.23947C0.633019 9.23615 0.512715 9.27647 0.416485 9.3533C0.320256 9.43013 0.254305 9.53853 0.230299 9.65931C0.216948 9.72655 0.216982 9.79577 0.230399 9.86301C0.243816 9.93024 0.270353 9.99417 0.308492 10.0511C0.346631 10.1081 0.395625 10.157 0.452673 10.195C0.509721 10.2331 0.573704 10.2595 0.640965 10.2728C0.708212 10.2861 0.777431 10.2861 0.844665 10.2727C0.911899 10.2592 0.97583 10.2327 1.0328 10.1946C1.08977 10.1564 1.13867 10.1074 1.1767 10.0504C1.21472 9.99334 1.24113 9.92935 1.25442 9.86209C1.26777 9.79484 1.26773 9.72563 1.25432 9.65839C1.2409 9.59116 1.21436 9.52723 1.17622 9.47025C1.13808 9.41328 1.08909 9.36439 1.03204 9.32636C0.974994 9.28833 0.911011 9.26192 0.84375 9.24864C0.814849 9.24312 0.785532 9.24005 0.756114 9.23947ZM12 9.3913C13.4531 9.3913 14.6087 10.5469 14.6087 12C14.6087 13.4531 13.4531 14.6087 12 14.6087C10.5469 14.6087 9.3913 13.4531 9.3913 12C9.3913 10.5469 10.5469 9.3913 12 9.3913ZM0.521739 11.4783C0.383365 11.4783 0.250659 11.5332 0.152814 11.6311C0.0549688 11.7289 0 11.8616 0 12C0 12.1384 0.0549688 12.2711 0.152814 12.3689C0.250659 12.4668 0.383365 12.5217 0.521739 12.5217C0.660113 12.5217 0.792819 12.4668 0.890664 12.3689C0.988509 12.2711 1.04348 12.1384 1.04348 12C1.04348 11.8616 0.988509 11.7289 0.890664 11.6311C0.792819 11.5332 0.660113 11.4783 0.521739 11.4783ZM23.4783 11.4783C23.3399 11.4783 23.2072 11.5332 23.1093 11.6311C23.0115 11.7289 22.9565 11.8616 22.9565 12C22.9565 12.1384 23.0115 12.2711 23.1093 12.3689C23.2072 12.4668 23.3399 12.5217 23.4783 12.5217C23.6166 12.5217 23.7493 12.4668 23.8472 12.3689C23.945 12.2711 24 12.1384 24 12C24 11.8616 23.945 11.7289 23.8472 11.6311C23.7493 11.5332 23.6166 11.4783 23.4783 11.4783ZM23.2714 13.7171C23.1485 13.714 23.0284 13.7544 22.9324 13.8312C22.8364 13.908 22.7706 14.0163 22.7466 14.1369C22.7196 14.2726 22.7476 14.4134 22.8244 14.5284C22.9012 14.6435 23.0206 14.7233 23.1562 14.7503C23.2919 14.7773 23.4327 14.7493 23.5478 14.6725C23.6628 14.5957 23.7426 14.4763 23.7697 14.3407C23.7967 14.205 23.7687 14.0642 23.6919 13.9492C23.6151 13.8341 23.4957 13.7543 23.3601 13.7272C23.3308 13.7213 23.3012 13.7179 23.2714 13.7171ZM0.744905 13.7181C0.710005 13.718 0.675183 13.7214 0.640965 13.7283C0.505312 13.7553 0.385957 13.8351 0.309139 13.9502C0.232322 14.0652 0.20433 14.206 0.231318 14.3417C0.258378 14.4774 0.3382 14.5967 0.453235 14.6735C0.56827 14.7504 0.709102 14.7783 0.844769 14.7514C0.980422 14.7243 1.09978 14.6445 1.17659 14.5294C1.25341 14.4144 1.2814 14.2736 1.25442 14.1379C1.23092 14.0199 1.16736 13.9137 1.07451 13.8372C0.981658 13.7606 0.865217 13.7186 0.744905 13.7181ZM1.39912 15.8702C1.32955 15.8698 1.2606 15.8834 1.19633 15.91C1.13303 15.9362 1.07552 15.9747 1.02708 16.0231C0.978641 16.0716 0.940218 16.1291 0.914007 16.1924C0.887796 16.2557 0.87431 16.3235 0.874319 16.3921C0.874329 16.4606 0.887834 16.5284 0.914062 16.5917C0.940291 16.655 0.97873 16.7125 1.02718 16.761C1.07564 16.8094 1.13316 16.8478 1.19647 16.874C1.25977 16.9002 1.32762 16.9137 1.39613 16.9137C1.46465 16.9137 1.53249 16.9002 1.59579 16.874C1.65908 16.8478 1.7166 16.8093 1.76504 16.7609C1.81348 16.7124 1.8519 16.6549 1.87811 16.5916C1.90432 16.5283 1.91781 16.4604 1.9178 16.3919C1.91779 16.3234 1.90429 16.2556 1.87806 16.1923C1.83876 16.0974 1.77236 16.0163 1.68716 15.959C1.60197 15.9017 1.50177 15.8708 1.39912 15.8702ZM22.6162 15.8702C22.5111 15.868 22.4078 15.8975 22.3198 15.955C22.2318 16.0125 22.1632 16.0951 22.123 16.1923C22.0967 16.2556 22.0832 16.3234 22.0832 16.3919C22.0832 16.4604 22.0967 16.5283 22.1229 16.5916C22.1491 16.6549 22.1875 16.7124 22.236 16.7609C22.2844 16.8093 22.3419 16.8478 22.4052 16.874C22.4685 16.9002 22.5364 16.9137 22.6049 16.9137C22.6734 16.9137 22.7412 16.9002 22.8046 16.874C22.8679 16.8478 22.9254 16.8094 22.9738 16.761C23.0223 16.7125 23.0607 16.655 23.087 16.5917C23.1132 16.5284 23.1267 16.4606 23.1267 16.3921C23.1267 16.3235 23.1132 16.2557 23.087 16.1924C23.0608 16.1291 23.0224 16.0716 22.9739 16.0231C22.9255 15.9747 22.868 15.9362 22.8047 15.91C22.7449 15.8852 22.6809 15.8717 22.6162 15.8702ZM21.5533 17.8543C21.4659 17.8528 21.3795 17.8732 21.302 17.9138C21.2246 17.9544 21.1585 18.0138 21.1101 18.0866C21.0333 18.2017 21.0054 18.3427 21.0326 18.4783C21.0597 18.614 21.1396 18.7334 21.2548 18.8101C21.3698 18.887 21.5106 18.915 21.6463 18.8881C21.7819 18.8611 21.9013 18.7814 21.9783 18.6664C22.0551 18.5514 22.0831 18.4106 22.0562 18.2749C22.0293 18.1393 21.9495 18.0198 21.8346 17.9429C21.7513 17.887 21.6537 17.8562 21.5533 17.8543ZM2.46298 17.8553C2.35789 17.8541 2.25489 17.8846 2.16746 17.9429C2.0525 18.0198 1.97278 18.1393 1.94584 18.2749C1.91889 18.4106 1.94693 18.5514 2.02378 18.6664C2.10069 18.7814 2.22011 18.8611 2.35578 18.8881C2.49146 18.915 2.63227 18.887 2.74728 18.8101C2.86225 18.7332 2.94196 18.6138 2.9689 18.4781C2.99585 18.3424 2.96781 18.2016 2.89096 18.0866C2.84378 18.0162 2.78015 17.9583 2.70558 17.918C2.63101 17.8777 2.54774 17.8562 2.46298 17.8553ZM3.89062 19.5948C3.82099 19.5937 3.75184 19.6066 3.68726 19.6327C3.62268 19.6587 3.56398 19.6975 3.51461 19.7466C3.46602 19.7951 3.42747 19.8526 3.40116 19.916C3.37486 19.9794 3.36132 20.0474 3.36132 20.116C3.36132 20.1846 3.37486 20.2526 3.40116 20.316C3.42747 20.3794 3.46602 20.4369 3.51461 20.4854C3.61258 20.5831 3.74535 20.6379 3.8837 20.6377C4.02206 20.6375 4.15467 20.5823 4.25238 20.4844C4.3502 20.3865 4.40515 20.2538 4.40515 20.1155C4.40515 19.9771 4.3502 19.8444 4.25238 19.7466C4.15614 19.6509 4.02637 19.5964 3.89062 19.5948ZM20.1236 19.5948C20.0538 19.5937 19.9844 19.6067 19.9196 19.6329C19.8548 19.6592 19.796 19.6982 19.7466 19.7476C19.6488 19.8455 19.5938 19.9782 19.5938 20.1165C19.5938 20.2549 19.6488 20.3876 19.7466 20.4854C19.8444 20.5832 19.9771 20.6382 20.1155 20.6382C20.2538 20.6382 20.3865 20.5832 20.4844 20.4854C20.5822 20.3876 20.6371 20.2549 20.6371 20.1165C20.6371 19.9782 20.5822 19.8455 20.4844 19.7476C20.3886 19.6517 20.2592 19.5969 20.1236 19.5948ZM5.63315 21.0214C5.54571 21.0199 5.4593 21.0403 5.38184 21.0809C5.30438 21.1215 5.23837 21.181 5.18988 21.2537C5.11303 21.3687 5.08499 21.5096 5.11194 21.6452C5.13888 21.7809 5.2186 21.9003 5.33356 21.9772C5.44857 22.0541 5.58939 22.0821 5.72506 22.0552C5.86073 22.0282 5.98015 21.9485 6.05707 21.8336C6.09528 21.7766 6.12187 21.7126 6.13533 21.6453C6.14879 21.5781 6.14885 21.5088 6.1355 21.4415C6.12216 21.3742 6.09567 21.3102 6.05755 21.2531C6.01944 21.1961 5.97045 21.1471 5.91338 21.109C5.83029 21.0536 5.73303 21.0232 5.63315 21.0214ZM18.3832 21.0214C18.2781 21.0202 18.1751 21.0507 18.0876 21.109C17.9727 21.186 17.893 21.3054 17.866 21.441C17.8391 21.5767 17.8671 21.7175 17.944 21.8325C18.0209 21.9475 18.1403 22.0272 18.276 22.0542C18.4116 22.0811 18.5525 22.0531 18.6675 21.9762C18.7824 21.8993 18.8621 21.7799 18.8891 21.6442C18.916 21.5085 18.888 21.3677 18.8111 21.2527C18.764 21.1823 18.7003 21.1244 18.6258 21.0841C18.5512 21.0438 18.4679 21.0223 18.3832 21.0214ZM7.61923 22.0822C7.51415 22.08 7.41084 22.1095 7.32284 22.167C7.23483 22.2244 7.16623 22.3071 7.12602 22.4042C7.09979 22.4675 7.08629 22.5354 7.08628 22.6039C7.08627 22.6724 7.09975 22.7402 7.12596 22.8035C7.15217 22.8668 7.1906 22.9244 7.23904 22.9728C7.28748 23.0213 7.34499 23.0597 7.40829 23.0859C7.47158 23.1122 7.53943 23.1257 7.60794 23.1257C7.67646 23.1257 7.74431 23.1122 7.80761 23.086C7.87092 23.0598 7.92844 23.0214 7.97689 22.9729C8.02535 22.9245 8.06378 22.867 8.09001 22.8037C8.11624 22.7404 8.12975 22.6725 8.12976 22.604C8.12977 22.5355 8.11628 22.4676 8.09007 22.4043C8.06386 22.341 8.02544 22.2835 7.97699 22.2351C7.92855 22.1866 7.87104 22.1482 7.80774 22.1219C7.74792 22.0971 7.68399 22.0836 7.61923 22.0822ZM16.3961 22.0822C16.3265 22.0818 16.2575 22.0953 16.1933 22.1219C16.13 22.1482 16.0725 22.1866 16.024 22.2351C15.9756 22.2835 15.9372 22.341 15.9109 22.4043C15.8847 22.4676 15.8713 22.5355 15.8713 22.604C15.8713 22.6725 15.8848 22.7404 15.911 22.8037C15.9372 22.867 15.9757 22.9245 16.0241 22.9729C16.0726 23.0214 16.1301 23.0598 16.1934 23.086C16.2567 23.1122 16.3246 23.1257 16.3931 23.1257C16.4616 23.1257 16.5294 23.1122 16.5927 23.0859C16.656 23.0597 16.7135 23.0213 16.762 22.9728C16.8104 22.9244 16.8488 22.8668 16.8751 22.8035C16.9013 22.7402 16.9148 22.6724 16.9147 22.6039C16.9147 22.5354 16.9012 22.4675 16.875 22.4042C16.8357 22.3094 16.7693 22.2282 16.6841 22.171C16.5989 22.1137 16.4987 22.0828 16.3961 22.0822ZM9.77446 22.7364C9.65153 22.7333 9.53147 22.7738 9.43546 22.8506C9.33944 22.9274 9.27364 23.0356 9.24966 23.1562C9.22267 23.2919 9.25066 23.4327 9.32748 23.5478C9.4043 23.6628 9.52365 23.7426 9.65931 23.7697C9.79497 23.7967 9.93581 23.7687 10.0508 23.6919C10.1659 23.6151 10.2457 23.4957 10.2728 23.3601C10.2997 23.2244 10.2718 23.0836 10.1949 22.9685C10.1181 22.8535 9.99876 22.7737 9.86311 22.7466C9.83391 22.7407 9.80424 22.7373 9.77446 22.7364ZM14.2418 22.7364C14.2069 22.7363 14.1721 22.7397 14.1379 22.7466C14.0023 22.7737 13.8829 22.8535 13.8061 22.9685C13.7293 23.0836 13.7013 23.2244 13.7283 23.3601C13.7553 23.4957 13.8351 23.6151 13.9502 23.6919C14.0652 23.7687 14.206 23.7967 14.3417 23.7697C14.4774 23.7426 14.5967 23.6628 14.6735 23.5478C14.7504 23.4328 14.7783 23.2919 14.7514 23.1562C14.7279 23.0383 14.6643 22.932 14.5715 22.8555C14.4786 22.779 14.3622 22.7369 14.2418 22.7364ZM12 22.9565C11.8616 22.9565 11.7289 23.0115 11.6311 23.1093C11.5332 23.2072 11.4783 23.3399 11.4783 23.4783C11.4783 23.6166 11.5332 23.7493 11.6311 23.8472C11.7289 23.945 11.8616 24 12 24C12.1384 24 12.2711 23.945 12.3689 23.8472C12.4668 23.7493 12.5217 23.6166 12.5217 23.4783C12.5217 23.3399 12.4668 23.2072 12.3689 23.1093C12.2711 23.0115 12.1384 22.9565 12 22.9565Z" fill="black"/>
</g>
<defs>
<clipPath id="clip0_2203_3271">
<rect width="24" height="24" fill="white"/>
</clipPath>
</defs>
</svg>
