<svg width="26" height="26" viewBox="0 0 26 26" fill="none" xmlns="http://www.w3.org/2000/svg">
<g clip-path="url(#clip0_690_12846)">
<path d="M25.3499 11.258C25.3491 11.2574 25.3485 11.2566 25.3479 11.256L14.742 0.650438C14.2899 0.198166 13.6889 -0.0507812 13.0495 -0.0507812C12.4102 -0.0507812 11.8091 0.198166 11.3569 0.650438L0.756467 11.2506C0.752897 11.2542 0.749128 11.258 0.745756 11.2616C-0.182591 12.1953 -0.181004 13.7102 0.750318 14.6415C1.17581 15.0672 1.73758 15.3136 2.33843 15.3395C2.36302 15.3419 2.38762 15.3431 2.41242 15.3431H2.83493V23.148C2.83493 24.6926 4.09177 25.9493 5.63644 25.9493H9.78583C10.2066 25.9493 10.5475 25.6081 10.5475 25.1876V19.0684C10.5475 18.3636 11.121 17.7903 11.8258 17.7903H14.2732C14.978 17.7903 15.5513 18.3636 15.5513 19.0684V25.1876C15.5513 25.6081 15.8923 25.9493 16.313 25.9493H20.4624C22.0073 25.9493 23.2639 24.6926 23.2639 23.148V15.3431H23.6559C24.295 15.3431 24.8961 15.0942 25.3485 14.6417C26.2808 13.709 26.2812 12.1913 25.3499 11.258ZM24.2712 13.5646C24.1068 13.729 23.8882 13.8197 23.6559 13.8197H22.5022C22.0815 13.8197 21.7405 14.1607 21.7405 14.5814V23.148C21.7405 23.8526 21.1672 24.4258 20.4624 24.4258H17.0747V19.0684C17.0747 17.5237 15.8181 16.2669 14.2732 16.2669H11.8258C10.2809 16.2669 9.02411 17.5237 9.02411 19.0684V24.4258H5.63644C4.93184 24.4258 4.35837 23.8526 4.35837 23.148V14.5814C4.35837 14.1607 4.01738 13.8197 3.59665 13.8197H2.4628C2.4509 13.8189 2.43919 13.8183 2.42709 13.8181C2.20017 13.8141 1.98732 13.7241 1.82783 13.5644C1.48863 13.2252 1.48863 12.6731 1.82783 12.3337C1.82803 12.3337 1.82803 12.3335 1.82823 12.3333L1.82883 12.3327L12.4344 1.72756C12.5986 1.56311 12.817 1.47266 13.0495 1.47266C13.2818 1.47266 13.5002 1.56311 13.6646 1.72756L24.2678 12.3305C24.2694 12.3321 24.2712 12.3337 24.2728 12.3353C24.6102 12.6751 24.6096 13.226 24.2712 13.5646Z" fill="#FE7101"/>
</g>
<defs>
<clipPath id="clip0_690_12846">
<rect width="26" height="26" fill="white"/>
</clipPath>
</defs>
</svg>
