<svg width="1024" height="1024" viewBox="0 0 1024 1024" fill="none" xmlns="http://www.w3.org/2000/svg">
<path d="M309.669 137.39C310.923 137.103 312.532 136.937 314.499 136.89C320.419 136.757 338.809 136.713 369.669 136.76C374.129 136.76 379.529 136.15 384.999 136.15C404.286 136.17 438.702 136.18 488.249 136.18C509.709 136.18 527.809 148.29 533.429 169.44C534.456 173.3 534.962 179.387 534.949 187.7C534.869 222.773 534.862 273.613 534.929 340.22C534.936 346.287 534.609 350.8 533.949 353.76C529.989 371.55 516.399 385.22 499.009 389.56C492.449 391.193 484.812 391.943 476.099 391.81C455.729 391.5 407.949 391.79 324.999 391.79C297.319 391.79 274.879 372.97 274.849 344.52C274.839 332.81 275.169 324.09 275.169 312.83C275.169 248.83 275.169 210.22 275.169 197C275.169 190.78 274.999 185.773 274.659 181.98C274.006 174.633 275.292 167.817 278.519 161.53C285.126 148.663 295.509 140.617 309.669 137.39ZM505.929 351.01C506.496 348.763 506.759 346.093 506.719 343C506.219 305.9 506.056 266.483 506.229 224.75C506.243 221.803 506.332 219.033 506.499 216.44C506.792 211.867 506.943 209.097 506.949 208.13C507.036 189.903 506.986 179.793 506.799 177.8C506.099 170.16 501.029 166.01 493.619 164.39C489.432 163.477 485.142 163.017 480.749 163.01C427.742 162.93 376.812 162.9 327.959 162.92C320.289 162.92 316.049 163.93 310.029 167.53C304.029 171.11 301.176 176.423 301.469 183.47C301.836 192.263 302.032 199.527 302.059 205.26C302.239 245.147 302.232 282.227 302.039 316.5C301.999 322.347 301.939 332.25 301.859 346.21C301.853 346.701 301.916 347.192 302.049 347.67C304.079 355.15 310.779 360.43 318.239 362.45C320.026 362.937 323.479 363.177 328.599 363.17C373.699 363.11 424.352 363.267 480.559 363.64C483.039 363.66 485.099 363.28 487.239 363.22C495.009 362.99 501.759 358.86 505.469 352.17C505.675 351.805 505.83 351.415 505.929 351.01Z" fill="#80D1C0"/>
<path d="M693.25 226.49C693.623 227.257 693.806 228.093 693.8 229C693.78 241.567 693.79 278.177 693.83 338.83C693.84 357.98 693.32 377.27 692.74 393.5C692.64 396.1 692.13 398.93 692.01 401.89C691.243 421.357 689.52 438.47 686.84 453.23C683.626 470.957 679.417 489.45 674.21 508.71C671.183 519.89 667.493 531.447 663.14 543.38C656.07 562.74 646.91 579.48 635.02 598.29C627.246 610.583 619.503 621.507 611.79 631.06C605.736 638.567 597.337 647.99 586.59 659.33C580.35 665.917 570.836 674.847 558.05 686.12C547.07 695.79 540.31 702 530.25 707.54C529.952 707.704 529.73 707.978 529.63 708.304C529.529 708.63 529.558 708.983 529.71 709.29C531.723 713.35 533.206 717.823 534.16 722.71C534.72 725.603 534.98 730.32 534.94 736.86C534.893 744.86 534.893 790.137 534.94 872.69C534.946 882.67 534.853 888.37 534.66 889.79C531.34 914.58 510.97 931.06 486.27 930.96C476.063 930.92 425.386 930.927 334.24 930.98C322.4 930.987 314.466 930.463 310.44 929.41C290.93 924.31 277.83 909.6 275.08 889.42C274.82 887.473 274.74 883.833 274.84 878.5C275.06 867.42 275.17 859.67 275.17 855.25C275.19 791.35 275.176 753.807 275.13 742.62C275.11 737.187 274.896 731.983 274.49 727.01C274.18 723.29 275.02 716.79 276.48 713.07C280.773 702.15 287.543 694.147 296.79 689.06C303.89 685.147 311.88 683.187 320.76 683.18C335.953 683.173 352.99 683.1 371.87 682.96C409.756 682.693 444.716 682.7 476.75 682.98C481.53 683.027 485.523 683.153 488.73 683.36C496.057 683.833 503.097 685.657 509.85 688.83C510.35 689.065 510.906 689.158 511.456 689.098C512.006 689.038 512.53 688.828 512.97 688.49C530.66 674.87 549.02 657.95 565.6 641.85C583.88 624.12 599.55 602.1 613.7 580.75C626.7 561.12 636.11 539.01 643.3 516.57C654.606 481.337 661.463 446.06 663.87 410.74C664.11 407.213 664.637 398.33 665.45 384.09C666.017 374.223 666.26 365.323 666.18 357.39C666.03 342.96 666.43 316.41 665.56 295.19C665.16 285.577 665.026 275.383 665.16 264.61C665.226 259.05 665.057 253.833 664.65 248.96C664.557 247.787 664.436 242.55 664.29 233.25C664.236 229.843 664.746 226.373 665.82 222.84C665.853 222.732 665.858 222.618 665.836 222.508C665.814 222.398 665.764 222.295 665.693 222.209C665.621 222.123 665.529 222.057 665.425 222.017C665.322 221.977 665.21 221.965 665.1 221.98C664.993 222 664.883 222.093 664.77 222.26C653.76 238.75 641.93 254.69 630.38 270.88C625.77 277.35 620.15 285.46 612.72 288.21C609.96 289.23 606.826 289.037 603.32 287.63C596.64 284.95 593.993 279.827 595.38 272.26C595.96 269.12 598.78 265.75 600.9 262.83C620.88 235.33 641.81 208.46 662.52 181.28C665.073 177.933 667.91 175.927 671.03 175.26C671.75 175.107 673.636 175.023 676.69 175.01C683.75 174.98 688.49 174.95 693.39 181.12C727.11 223.507 749.953 252.497 761.92 268.09C765.39 272.61 763.91 279.65 760.88 284.12C757.92 288.46 753.81 289.39 748.7 289.31C741.66 289.19 737.62 282.57 733.72 277.53C724.74 265.91 711.86 249.04 695.08 226.92C694.686 226.4 694.32 226.037 693.98 225.83C693.886 225.77 693.774 225.742 693.663 225.751C693.551 225.76 693.446 225.806 693.363 225.881C693.28 225.956 693.224 226.056 693.203 226.167C693.183 226.277 693.199 226.39 693.25 226.49ZM302.03 887.51C304.23 895.26 310.87 900.47 318.5 902.68C320.753 903.333 324.613 903.633 330.08 903.58C337.733 903.5 387.266 903.637 478.68 903.99C482.38 904 488.45 903.73 491.75 902.76C498.49 900.79 506.52 895.34 506.61 887.51C506.8 871.72 506.18 853.23 506.17 834.83C506.143 806.477 506.173 783.39 506.26 765.57C506.26 765.058 506.307 764.546 506.4 764.04C506.66 762.627 506.796 761.613 506.81 761C507.01 751.64 507.04 741.18 506.9 729.62C506.79 721.22 505.16 713.81 496.29 711.57C491.597 710.377 488.773 709.78 487.82 709.78C462.84 709.74 408.863 709.727 325.89 709.74C321.497 709.74 318.277 710.083 316.23 710.77C313.21 711.79 310.377 713.367 307.73 715.5C299 722.55 301.76 731.63 301.89 741.46C302.52 788.64 301.86 836.57 301.88 886.41C301.88 886.782 301.93 887.152 302.03 887.51Z" fill="#80D1C0"/>
<path d="M388.43 279.87C388.589 279.993 388.788 280.053 388.988 280.038C389.187 280.024 389.374 279.935 389.51 279.79C409.14 259.2 429.46 236.72 449.43 214.82C452.516 211.433 454.86 209.39 456.46 208.69C468.58 203.38 480.92 215.55 475.48 227.73C474.773 229.323 473.083 231.523 470.41 234.33C458.89 246.437 442.886 263.71 422.4 286.15C415.033 294.21 408.44 301.533 402.62 308.12C395.67 315.96 383.81 316.27 376.49 308.76C371.736 303.873 366.26 298.46 360.06 292.52C351.85 284.65 346.16 278.5 339.4 271.5C335.73 267.71 334.1 262.17 336.23 257.09C338.203 252.377 341.163 249.517 345.11 248.51C352.43 246.64 356.85 248.94 362.38 254.48C368.473 260.6 374.573 266.707 380.68 272.8C383.933 276.047 386.516 278.403 388.43 279.87Z" fill="#80D1C0"/>
<path d="M317.14 663.9C312.05 663.9 305.53 661.67 300.96 659.29C284.47 650.68 274.66 634.47 274.88 615.75C275.213 588.49 275.303 544.823 275.15 484.75C275.116 473.57 275.033 466.817 274.9 464.49C274.4 456.123 274.49 450.473 275.17 447.54C278.99 431.01 290.65 418.38 306.9 413.9C309.66 413.14 313.59 412.773 318.69 412.8C342.436 412.92 357.373 412.887 363.5 412.7C365.7 412.63 369.68 412.22 372.17 412.21C404.096 412.163 442.29 412.157 486.75 412.19C508.65 412.21 527.59 423.92 533.47 445.47C534.596 449.597 535.093 456.17 534.96 465.19C534.853 472.23 534.83 522.583 534.89 616.25C534.9 633.39 523.88 653.33 507.47 659.95C500.823 662.63 493.833 663.96 486.5 663.94C443.227 663.807 386.773 663.793 317.14 663.9ZM483.5 636.12C493.44 636.18 506.51 630.64 506.6 619.07C506.75 599.65 506.17 578.2 506.16 557.97C506.16 537.87 506.18 516.633 506.22 494.26C506.22 491.95 506.77 489.52 506.8 487.25C506.88 480.903 506.9 471.24 506.86 458.26C506.83 450.87 505.53 444.35 498 441.55C493.273 439.797 489.433 438.917 486.48 438.91C458.507 438.863 404.76 438.843 325.24 438.85C318.58 438.85 312.686 440.93 307.56 445.09C303.19 448.64 301.06 454.16 301.34 459.5C301.92 470.353 302.21 480.853 302.21 491C302.223 530.72 302.08 572.137 301.78 615.25C301.766 617.563 301.893 619.223 302.16 620.23C303.96 627.01 310.84 632.37 317.01 634.58C319.47 635.46 323.62 635.893 329.46 635.88C380.166 635.747 431.513 635.827 483.5 636.12Z" fill="#80D1C0"/>
<path d="M388.401 554.87C388.597 555.027 388.846 555.105 389.098 555.086C389.35 555.068 389.587 554.955 389.761 554.77C408.621 534.97 425.131 516.59 452.491 486.76C456.981 481.86 465.161 481 470.541 485.21C475.661 489.22 478.631 495.95 475.751 501.98C474.757 504.067 473.227 506.21 471.161 508.41C455.201 525.377 436.711 545.303 415.691 568.19C411.957 572.257 408.324 576.627 404.791 581.3C400.384 587.12 394.464 589.63 387.031 588.83C383.844 588.49 381.031 587.173 378.591 584.88C365.071 572.153 351.824 558.83 338.851 544.91C332.501 538.09 335.001 528 342.491 523.51C344.951 522.05 346.371 522.12 349.611 522.04C353.191 521.94 356.501 523.407 359.541 526.44C362.807 529.707 369.227 536.207 378.801 545.94C382.601 549.813 385.801 552.79 388.401 554.87Z" fill="#80D1C0"/>
<path d="M388.599 822.91C388.826 823.075 389.104 823.154 389.384 823.134C389.664 823.114 389.928 822.996 390.129 822.8C394.643 818.34 398.863 814.007 402.789 809.8C413.796 798.02 430.066 780.373 451.599 756.86C454.219 754 457.169 752.3 461.199 752.13C468.353 751.823 473.226 754.99 475.819 761.63C477.866 766.877 476.916 771.58 472.969 775.74C470.489 778.36 453.659 796.44 422.479 829.98C415.006 838.013 408.693 845.027 403.539 851.02C400.513 854.54 396.749 856.717 392.249 857.55C386.659 858.58 380.949 855.43 377.149 851.67C371.839 846.41 366.279 840.63 361.479 836.2C354.153 829.44 347.056 822.373 340.189 815C334.876 809.287 333.843 803.483 337.089 797.59C341.949 788.76 352.899 787.74 359.799 794.7C372.539 807.567 379.499 814.607 380.679 815.82C383.626 818.833 386.266 821.197 388.599 822.91Z" fill="#80D1C0"/>
</svg>
