<svg width="1024" height="1024" viewBox="0 0 1024 1024" fill="none" xmlns="http://www.w3.org/2000/svg">
<path d="M596.119 753.75C590.266 747.537 584.882 741.133 579.969 734.54C572.349 724.313 566.176 713.283 561.449 701.45C551.242 675.883 548.406 649.467 552.939 622.2C556.219 602.46 562.189 584.717 570.849 568.97" stroke="#8FE9D3" stroke-width="2"/>
<path d="M570.85 568.97C575.283 561.15 580.216 553.813 585.65 546.96C585.884 546.666 586.021 546.307 586.043 545.931C586.064 545.555 585.969 545.181 585.77 544.86C562.96 507.91 519.43 486.48 477.5 482.04C433.74 477.41 389.38 487.5 354.19 514.09C346.87 519.623 340.136 526.597 333.99 535.01C329.1 541.7 327.36 548.86 324.57 557.79C324.083 559.337 323.3 560.813 322.22 562.22C321.726 562.86 320.606 563.703 318.86 564.75C317.7 565.45 316.556 566.277 315.43 567.23" stroke="#7BE5CA" stroke-width="2"/>
<path d="M315.429 567.23C307.596 565.717 303.429 561.497 302.929 554.57C301.339 532.63 315.159 514.64 330.269 500.59C349.599 482.63 373.419 470.58 399.269 462.51C403.389 461.223 407.112 460.263 410.439 459.63C410.959 459.537 411.426 459.37 411.839 459.13C411.919 459.085 411.985 459.02 412.031 458.942C412.078 458.863 412.103 458.774 412.104 458.683C412.105 458.592 412.082 458.502 412.037 458.422C411.992 458.343 411.928 458.277 411.849 458.23C394.149 447.49 380.519 431.4 372.489 412.11C357.039 375.02 362.029 332.44 387.499 301.43C397.799 288.883 411.402 279.78 428.309 274.12C436.039 271.53 445.229 270.51 453.029 270.12C481.739 268.67 509.389 281.07 527.079 303.61C546.779 328.71 553.599 361.88 547.129 393.45C541.599 420.42 525.109 445.57 500.629 458.67C500.578 458.7 500.536 458.745 500.51 458.798C500.484 458.852 500.475 458.912 500.484 458.97C500.493 459.028 500.519 459.081 500.559 459.122C500.6 459.163 500.652 459.191 500.709 459.2C507.589 460.587 514.079 462.303 520.179 464.35C552.206 475.097 579.146 493.427 600.999 519.34C601.046 519.397 601.106 519.443 601.174 519.473C601.241 519.504 601.315 519.519 601.389 519.517C601.463 519.515 601.536 519.496 601.602 519.462C601.668 519.428 601.725 519.379 601.769 519.32C620.619 493.62 634.119 464.31 639.919 432.84C640.879 427.633 641.652 421.423 642.239 414.21C643.039 404.29 643.462 398.053 643.509 395.5C643.999 368.29 638.729 339.02 626.809 314.45C610.362 280.577 585.529 254.587 552.309 236.48C531.429 225.1 508.472 217.753 483.439 214.44C470.169 212.68 453.609 212.57 440.529 213.43C411.516 215.337 384.239 223.443 358.699 237.75C324.512 256.91 299.009 284.233 282.189 319.72C271.322 342.653 266.136 366.997 266.629 392.75C266.836 403.45 266.992 409.79 267.099 411.77C267.772 423.877 265.242 435.127 259.509 445.52C241.616 477.94 228.519 501.753 220.219 516.96C218.626 519.893 218.509 523.11 219.869 526.61C220.038 527.058 220.35 527.441 220.759 527.7C223.079 529.207 225.169 530.05 227.029 530.23C228.422 530.37 233.519 530.677 242.319 531.15C259.459 532.06 263.459 541.37 262.659 556.97C262.259 564.77 261.922 572.693 261.649 580.74C261.549 583.633 261.896 585.68 262.689 586.88C266.129 592.1 268.559 595.27 269.099 600.73C269.546 605.27 269.686 610.11 269.519 615.25C269.259 623.217 269.086 632.8 268.999 644C268.899 655.28 274.589 664.64 286.019 666.99C288.992 667.597 290.736 667.9 291.249 667.9C306.736 667.833 324.649 667.943 344.989 668.23C357.029 668.4 368.409 674.54 373.119 685.64C375.419 691.06 376.669 695.95 376.869 700.31C377.302 709.737 377.542 715.8 377.589 718.5C378.002 745.26 378.512 771.593 379.119 797.5C379.239 802.593 379.179 806.59 378.939 809.49C378.552 814.237 376.232 818.38 371.979 821.92" stroke="#8FE9D3" stroke-width="2"/>
<path d="M315.43 567.23C327.13 568.623 338.986 569.34 351 569.38C404.913 569.58 458.83 569.59 512.75 569.41C527.836 569.357 542.92 569.39 558 569.51C562.293 569.543 566.576 569.363 570.85 568.97" stroke="#B7FAE9" stroke-width="2"/>
<path d="M389.709 371.29C390.579 411.02 417.039 443.76 458.329 442.87C499.629 441.97 524.639 408.1 523.779 368.38C522.919 328.66 496.449 295.91 455.159 296.81C413.869 297.7 388.849 331.57 389.709 371.29Z" stroke="#7BE5CA" stroke-width="2"/>
<path d="M577.569 651.55C579.349 702.46 611.589 745.29 658.549 763.14C687.559 774.17 721.239 773.57 749.739 762.55C767.846 755.55 783.286 744.88 796.059 730.54C817.279 706.72 828.949 674.86 827.829 642.81C826.709 610.76 812.849 579.79 790.019 557.51C776.273 544.097 760.126 534.53 741.579 528.81C712.379 519.81 678.739 521.56 650.569 534.58C604.969 555.66 575.789 600.64 577.569 651.55Z" stroke="#9AEAD6" stroke-width="2"/>
<path d="M682.109 666.52C665.542 650.433 653.932 638.98 647.279 632.16C644.545 629.353 642.302 627.57 640.549 626.81C636.035 624.857 631.699 625.203 627.539 627.85C621.589 631.64 620.009 639.75 623.509 645.66C624.155 646.753 626.252 649.063 629.799 652.59C650.912 673.543 664.725 687.347 671.239 694C677.969 700.87 686.719 700.98 693.349 694.35C704.502 683.21 732.385 655.463 776.999 611.11C779.572 608.55 781.259 606.553 782.059 605.12C786.629 596.88 781.739 586.88 772.649 585.09C766.649 583.91 763.029 586.81 758.539 591.27C718.619 630.89 693.329 655.973 682.669 666.52C682.594 666.593 682.493 666.634 682.389 666.634C682.284 666.634 682.183 666.593 682.109 666.52Z" stroke="#9AEAD6" stroke-width="2"/>
<path d="M596.121 753.75C590.267 747.537 584.884 741.133 579.971 734.54C572.351 724.313 566.177 713.283 561.451 701.45C551.244 675.883 548.408 649.467 552.941 622.2C556.221 602.46 562.191 584.717 570.851 568.97C575.284 561.15 580.218 553.813 585.651 546.96C585.885 546.666 586.022 546.307 586.044 545.931C586.065 545.555 585.97 545.181 585.771 544.86C562.961 507.91 519.431 486.48 477.501 482.04C433.741 477.41 389.381 487.5 354.191 514.09C346.871 519.623 340.137 526.597 333.991 535.01C329.101 541.7 327.361 548.86 324.571 557.79C324.084 559.337 323.301 560.813 322.221 562.22C321.727 562.86 320.607 563.703 318.861 564.75C317.701 565.45 316.557 566.277 315.431 567.23C307.597 565.717 303.431 561.497 302.931 554.57C301.341 532.63 315.161 514.64 330.271 500.59C349.601 482.63 373.421 470.58 399.271 462.51C403.391 461.223 407.114 460.263 410.441 459.63C410.961 459.537 411.427 459.37 411.841 459.13C411.92 459.085 411.986 459.02 412.033 458.942C412.079 458.863 412.104 458.774 412.105 458.683C412.106 458.592 412.083 458.502 412.039 458.422C411.994 458.343 411.929 458.276 411.851 458.23C394.151 447.49 380.521 431.4 372.491 412.11C357.041 375.02 362.031 332.44 387.501 301.43C397.801 288.883 411.404 279.78 428.311 274.12C436.041 271.53 445.231 270.51 453.031 270.12C481.741 268.67 509.391 281.07 527.081 303.61C546.781 328.71 553.601 361.88 547.131 393.45C541.601 420.42 525.111 445.57 500.631 458.67C500.58 458.7 500.538 458.745 500.512 458.798C500.486 458.852 500.477 458.912 500.486 458.97C500.494 459.028 500.521 459.081 500.561 459.122C500.601 459.163 500.654 459.19 500.711 459.2C507.591 460.587 514.081 462.303 520.181 464.35C552.207 475.097 579.147 493.427 601.001 519.34C601.048 519.397 601.108 519.443 601.175 519.473C601.243 519.504 601.317 519.519 601.391 519.517C601.465 519.515 601.538 519.496 601.603 519.462C601.669 519.428 601.727 519.379 601.771 519.32C620.621 493.62 634.121 464.31 639.921 432.84C640.881 427.633 641.654 421.423 642.241 414.21C643.041 404.29 643.464 398.053 643.511 395.5C644.001 368.29 638.731 339.02 626.811 314.45C610.364 280.577 585.531 254.587 552.311 236.48C531.431 225.1 508.474 217.753 483.441 214.44C470.171 212.68 453.611 212.57 440.531 213.43C411.517 215.337 384.241 223.443 358.701 237.75C324.514 256.91 299.011 284.233 282.191 319.72C271.324 342.653 266.137 366.997 266.631 392.75C266.837 403.45 266.994 409.79 267.101 411.77C267.774 423.877 265.244 435.127 259.511 445.52C241.617 477.94 228.521 501.753 220.221 516.96C218.627 519.893 218.511 523.11 219.871 526.61C220.04 527.058 220.352 527.441 220.761 527.7C223.081 529.207 225.171 530.05 227.031 530.23C228.424 530.37 233.521 530.677 242.321 531.15C259.461 532.06 263.461 541.37 262.661 556.97C262.261 564.77 261.924 572.693 261.651 580.74C261.551 583.633 261.897 585.68 262.691 586.88C266.131 592.1 268.561 595.27 269.101 600.73C269.547 605.27 269.687 610.11 269.521 615.25C269.261 623.217 269.087 632.8 269.001 644C268.901 655.28 274.591 664.64 286.021 666.99C288.994 667.597 290.737 667.9 291.251 667.9C306.737 667.833 324.651 667.943 344.991 668.23C357.031 668.4 368.411 674.54 373.121 685.64C375.421 691.06 376.671 695.95 376.871 700.31C377.304 709.737 377.544 715.8 377.591 718.5C378.004 745.26 378.514 771.593 379.121 797.5C379.241 802.593 379.181 806.59 378.941 809.49C378.554 814.237 376.234 818.38 371.981 821.92C370.734 822.113 369.241 822.247 367.501 822.32C361.141 822.593 356.771 819.853 354.391 814.1C353.751 812.553 353.394 810.02 353.321 806.5C352.641 774.393 352.337 753.867 352.411 744.92C352.501 732.37 351.541 718.58 351.381 705.3C351.271 696.22 343.041 693.59 334.961 693.64C331.621 693.66 318.221 693.627 294.761 693.54C289.861 693.52 284.587 692.777 278.941 691.31C261.251 686.71 249.361 673.6 245.441 655.53C244.394 650.697 243.764 645.267 243.551 639.24C243.177 628.72 243.437 618.643 244.331 609.01C244.941 602.36 240.091 598.98 237.761 593.48C235.947 589.193 235.227 584.527 235.601 579.48C236.174 571.687 236.481 564.23 236.521 557.11C236.522 556.934 236.489 556.76 236.422 556.598C236.356 556.435 236.258 556.288 236.135 556.163C236.011 556.038 235.864 555.94 235.702 555.872C235.54 555.805 235.366 555.77 235.191 555.77C232.964 555.77 229.617 555.717 225.151 555.61C219.861 555.47 212.401 552.83 207.991 549.81C191.071 538.2 189.941 518.29 199.241 501.21C212.674 476.53 225.451 453.323 237.571 431.59C240.037 427.177 241.254 422.153 241.221 416.52C241.201 412.98 241.074 406.22 240.841 396.24C239.834 352.12 251.941 312.257 277.161 276.65C293.734 253.263 314.474 233.92 339.381 218.62C370.441 199.54 405.314 188.82 444.001 186.46C446.641 186.3 451.804 186.25 459.491 186.31C500.671 186.65 540.381 198.26 574.941 219.56C674.351 280.82 694.221 410.02 639.711 508.17C639.384 508.75 639.298 509.307 639.451 509.84C639.47 509.91 639.504 509.975 639.551 510.03C639.598 510.086 639.657 510.131 639.723 510.162C639.789 510.193 639.862 510.21 639.936 510.211C640.009 510.213 640.083 510.199 640.151 510.17C658.984 501.863 678.931 497.463 699.991 496.97C757.741 495.63 811.301 526.99 837.501 578.78C851.381 606.2 856.471 638.17 851.981 668.43C839.611 751.85 763.021 809.36 679.131 795.39C648.637 790.31 621.797 776.977 598.611 755.39C597.637 754.483 596.807 753.937 596.121 753.75ZM389.711 371.29C390.581 411.02 417.041 443.76 458.331 442.87C499.631 441.97 524.641 408.1 523.781 368.38C522.921 328.66 496.451 295.91 455.161 296.81C413.871 297.7 388.851 331.57 389.711 371.29ZM577.571 651.55C579.351 702.46 611.591 745.29 658.551 763.14C687.561 774.17 721.241 773.57 749.741 762.55C767.847 755.55 783.287 744.88 796.061 730.54C817.281 706.72 828.951 674.86 827.831 642.81C826.711 610.76 812.851 579.79 790.021 557.51C776.274 544.097 760.128 534.53 741.581 528.81C712.381 519.81 678.741 521.56 650.571 534.58C604.971 555.66 575.791 600.64 577.571 651.55Z" fill="#52D4B4"/>
<path d="M315.429 567.23C327.129 568.623 338.986 569.34 350.999 569.38C404.912 569.58 458.829 569.59 512.749 569.41C527.836 569.357 542.919 569.39 557.999 569.51C562.292 569.543 566.576 569.363 570.849 568.97C562.189 584.717 556.219 602.46 552.939 622.2C548.406 649.467 551.242 675.883 561.449 701.45C566.176 713.283 572.349 724.313 579.969 734.54C584.882 741.133 590.266 747.537 596.119 753.75C590.379 756.77 584.732 759.4 579.179 761.64C566.639 766.687 555.886 770.853 546.919 774.14C544.499 775.02 541.769 775.74 539.609 776.55C528.929 780.603 518.499 784.28 508.319 787.58C471.449 799.52 436.589 809.72 399.699 818.2C396.559 818.92 391.432 819.873 384.319 821.06C380.152 821.753 376.039 822.04 371.979 821.92C376.232 818.38 378.552 814.237 378.939 809.49C379.179 806.59 379.239 802.593 379.119 797.5C378.512 771.593 378.002 745.26 377.589 718.5C377.542 715.8 377.302 709.737 376.869 700.31C376.669 695.95 375.419 691.06 373.119 685.64C368.409 674.54 357.029 668.4 344.989 668.23C324.649 667.943 306.736 667.833 291.249 667.9C290.736 667.9 288.992 667.597 286.019 666.99C274.589 664.64 268.899 655.28 268.999 644C269.086 632.8 269.259 623.217 269.519 615.25C269.686 610.11 269.546 605.27 269.099 600.73C268.559 595.27 266.129 592.1 262.689 586.88C261.896 585.68 261.549 583.633 261.649 580.74C261.922 572.693 262.259 564.77 262.659 556.97C263.459 541.37 259.459 532.06 242.319 531.15C233.519 530.677 228.422 530.37 227.029 530.23C225.169 530.05 223.079 529.207 220.759 527.7C220.35 527.441 220.038 527.058 219.869 526.61C218.509 523.11 218.626 519.893 220.219 516.96C228.519 501.753 241.616 477.94 259.509 445.52C265.242 435.127 267.772 423.877 267.099 411.77C266.992 409.79 266.836 403.45 266.629 392.75C266.136 366.997 271.322 342.653 282.189 319.72C299.009 284.233 324.512 256.91 358.699 237.75C384.239 223.443 411.516 215.337 440.529 213.43C453.609 212.57 470.169 212.68 483.439 214.44C508.472 217.753 531.429 225.1 552.309 236.48C585.529 254.587 610.362 280.577 626.809 314.45C638.729 339.02 643.999 368.29 643.509 395.5C643.462 398.053 643.039 404.29 642.239 414.21C641.652 421.423 640.879 427.633 639.919 432.84C634.119 464.31 620.619 493.62 601.769 519.32C601.725 519.379 601.668 519.428 601.602 519.462C601.536 519.496 601.463 519.515 601.389 519.517C601.315 519.519 601.241 519.504 601.174 519.473C601.106 519.443 601.046 519.397 600.999 519.34C579.146 493.427 552.206 475.097 520.179 464.35C514.079 462.303 507.589 460.587 500.709 459.2C500.652 459.191 500.6 459.163 500.559 459.122C500.519 459.081 500.493 459.028 500.484 458.97C500.475 458.912 500.484 458.852 500.51 458.798C500.536 458.745 500.578 458.7 500.629 458.67C525.109 445.57 541.599 420.42 547.129 393.45C553.599 361.88 546.779 328.71 527.079 303.61C509.389 281.07 481.739 268.67 453.029 270.12C445.229 270.51 436.039 271.53 428.309 274.12C411.402 279.78 397.799 288.883 387.499 301.43C362.029 332.44 357.039 375.02 372.489 412.11C380.519 431.4 394.149 447.49 411.849 458.23C411.928 458.277 411.992 458.343 412.037 458.422C412.082 458.502 412.105 458.592 412.104 458.683C412.103 458.774 412.078 458.863 412.031 458.942C411.985 459.02 411.919 459.085 411.839 459.13C411.426 459.37 410.959 459.537 410.439 459.63C407.112 460.263 403.389 461.223 399.269 462.51C373.419 470.58 349.599 482.63 330.269 500.59C315.159 514.64 301.339 532.63 302.929 554.57C303.429 561.497 307.596 565.717 315.429 567.23Z" fill="#CBFEF2"/>
<path d="M455.161 296.81C496.451 295.91 522.921 328.66 523.781 368.38C524.641 408.1 499.631 441.97 458.331 442.87C417.041 443.76 390.581 411.02 389.711 371.29C388.851 331.57 413.871 297.7 455.161 296.81Z" fill="#A3F5DF"/>
<path d="M570.85 568.97C566.576 569.363 562.293 569.543 558 569.51C542.92 569.39 527.836 569.357 512.75 569.41C458.83 569.59 404.913 569.58 351 569.38C338.986 569.34 327.13 568.623 315.43 567.23C316.556 566.277 317.7 565.45 318.86 564.75C320.606 563.703 321.726 562.86 322.22 562.22C323.3 560.813 324.083 559.337 324.57 557.79C327.36 548.86 329.1 541.7 333.99 535.01C340.136 526.597 346.87 519.623 354.19 514.09C389.38 487.5 433.74 477.41 477.5 482.04C519.43 486.48 562.96 507.91 585.77 544.86C585.969 545.181 586.064 545.555 586.043 545.931C586.021 546.307 585.884 546.666 585.65 546.96C580.216 553.813 575.283 561.15 570.85 568.97Z" fill="#A3F5DF"/>
<path d="M827.829 642.81C828.949 674.86 817.279 706.72 796.059 730.54C783.286 744.88 767.846 755.55 749.739 762.55C721.239 773.57 687.559 774.17 658.549 763.14C611.589 745.29 579.349 702.46 577.569 651.55C575.789 600.64 604.969 555.66 650.569 534.58C678.739 521.56 712.379 519.81 741.579 528.81C760.126 534.53 776.273 544.097 790.019 557.51C812.849 579.79 826.709 610.76 827.829 642.81ZM682.109 666.52C665.543 650.433 653.933 638.98 647.279 632.16C644.546 629.353 642.303 627.57 640.549 626.81C636.036 624.857 631.699 625.203 627.539 627.85C621.589 631.64 620.009 639.75 623.509 645.66C624.156 646.753 626.253 649.063 629.799 652.59C650.913 673.543 664.726 687.347 671.239 694C677.969 700.87 686.719 700.98 693.349 694.35C704.503 683.21 732.386 655.463 776.999 611.11C779.573 608.55 781.259 606.553 782.059 605.12C786.629 596.88 781.739 586.88 772.649 585.09C766.649 583.91 763.029 586.81 758.539 591.27C718.619 630.89 693.329 655.973 682.669 666.52C682.594 666.593 682.494 666.634 682.389 666.634C682.285 666.634 682.184 666.593 682.109 666.52Z" fill="#E2FFF8"/>
<path d="M682.111 666.52C682.185 666.593 682.286 666.634 682.391 666.634C682.495 666.634 682.596 666.593 682.671 666.52C693.331 655.973 718.621 630.89 758.541 591.27C763.031 586.81 766.651 583.91 772.651 585.09C781.741 586.88 786.631 596.88 782.061 605.12C781.261 606.553 779.574 608.55 777.001 611.11C732.387 655.463 704.504 683.21 693.351 694.35C686.721 700.98 677.971 700.87 671.241 694C664.727 687.347 650.914 673.543 629.801 652.59C626.254 649.063 624.157 646.753 623.511 645.66C620.011 639.75 621.591 631.64 627.541 627.85C631.701 625.203 636.037 624.857 640.551 626.81C642.304 627.57 644.547 629.353 647.281 632.16C653.934 638.98 665.544 650.433 682.111 666.52Z" fill="#52D4B4"/>
</svg>
