<svg width="1024" height="1024" viewBox="0 0 1024 1024" fill="none" xmlns="http://www.w3.org/2000/svg">
<path d="M620.059 269.72C610.786 275.334 602.049 280.234 593.849 284.42C583.329 289.78 575.119 295.71 566.469 304.11C555.289 314.97 545.909 319.91 529.099 329.95C521.419 334.537 512.966 340.394 503.739 347.52C492.806 355.967 481.426 364.824 469.599 374.09C454.139 386.21 442.419 396.73 430.149 409.16C429.896 409.42 421.172 418.484 403.979 436.35C388.426 452.524 371.446 467.107 353.039 480.1" stroke="#FF8903" stroke-width="2"/>
<path d="M660.8 308.16C655.727 312.66 650.173 316.297 644.14 319.07C629.28 325.9 612.16 333.45 598.21 344.37C591.39 349.7 586.47 356.89 580.22 362.27C571.28 369.95 562.46 375.46 547.83 385.4C539.2 391.26 527.71 399.99 517.63 408.5C507.96 416.66 500.82 423.09 490 427.63" stroke="#FF7504" stroke-width="2"/>
<path d="M489.999 427.63C481.612 423.117 472.692 422.034 463.239 424.38C459.292 425.36 456.056 426.75 453.529 428.55C438.099 439.56 432.759 455.79 436.729 474.52" stroke="#FF970C" stroke-width="2"/>
<path d="M436.729 474.52C419.069 490.69 398.139 508.85 377.229 522.33" stroke="#FF7504" stroke-width="2"/>
<path d="M694.13 385.79C686.743 388.25 677.59 390.85 666.67 393.59C654.283 396.703 642.33 402.247 630.81 410.22C621.3 416.8 610.54 426.72 604.27 432.13C601.55 434.477 598.046 436.6 593.76 438.5" stroke="#FF6607" stroke-width="2"/>
<path d="M593.76 438.5C584.62 425.85 568.12 419.5 553.24 425.08C537.07 431.14 528.47 446.96 526.57 463.54C526.063 467.973 525.94 473.817 526.2 481.07C526.205 481.198 526.185 481.326 526.139 481.446C526.093 481.566 526.023 481.675 525.933 481.768C525.844 481.86 525.736 481.934 525.617 481.984C525.498 482.034 525.369 482.06 525.24 482.06H511.45C511.332 482.06 511.215 482.036 511.106 481.99C510.998 481.944 510.9 481.875 510.82 481.79C510.739 481.705 510.677 481.604 510.637 481.494C510.598 481.384 510.582 481.267 510.59 481.15C510.977 474.883 510.857 468.417 510.23 461.75C509.463 453.57 506.777 445.923 502.17 438.81C499.637 434.89 495.58 431.163 490 427.63" stroke="#FF8E0E" stroke-width="2"/>
<path d="M548.619 542.93C541.305 545.29 533.759 545.85 525.979 544.61" stroke="#FFA20D" stroke-width="2"/>
<path d="M510.69 552.98C506.357 557.88 501.863 562.63 497.21 567.23C493.277 571.123 490.15 576.56 487.83 583.54" stroke="#FFA20D" stroke-width="2"/>
<path d="M487.828 583.54L488.059 506.92C488.06 506.829 488.043 506.739 488.008 506.654C487.973 506.57 487.922 506.494 487.857 506.429C487.791 506.365 487.714 506.314 487.628 506.28C487.542 506.246 487.451 506.229 487.358 506.23C482.765 506.31 477.722 505.807 472.229 504.72C454.782 501.26 442.949 491.193 436.729 474.52" stroke="#FF8E0E" stroke-width="2"/>
<path d="M487.83 583.54L487.68 585.72" stroke="#FF8005" stroke-width="2"/>
<path d="M427.41 626.95C440.93 619.04 449.46 612.32 464.17 601.09C470.55 596.23 478.387 591.107 487.68 585.72" stroke="#FF6607" stroke-width="2"/>
<path d="M487.68 585.72C487.713 601.627 487.66 617.547 487.52 633.48C487.493 636.347 488.83 638.093 491.53 638.72C493.957 639.273 499.233 639.327 507.36 638.88C507.725 638.86 508.076 638.735 508.37 638.52C511.06 636.52 510.48 634.14 510.5 630.75C510.667 604.81 510.73 578.887 510.69 552.98" stroke="#FF7A06" stroke-width="2"/>
<path d="M510.69 552.98L510.68 506.82C510.68 506.629 510.756 506.446 510.891 506.311C511.026 506.176 511.209 506.1 511.4 506.1H525.37C525.574 506.1 525.77 506.181 525.914 506.326C526.059 506.47 526.14 506.666 526.14 506.87L525.98 544.61" stroke="#FF880F" stroke-width="2"/>
<path d="M525.979 544.61C526.032 574.75 526.099 604.804 526.179 634.77C526.179 636.637 526.882 637.947 528.289 638.7C528.539 638.832 528.815 638.907 529.099 638.92C533.432 639.093 538.312 639.167 543.739 639.14C545.552 639.134 546.682 638.857 547.129 638.31C547.989 637.257 548.475 636.117 548.589 634.89C548.675 633.997 548.649 626.034 548.509 611C548.469 606.154 548.492 601.49 548.579 597.01C548.919 578.99 548.789 560.97 548.619 542.93" stroke="#FF7A06" stroke-width="2"/>
<path d="M548.62 542.93L548.59 507.23C548.589 507.101 548.613 506.973 548.662 506.853C548.711 506.734 548.783 506.625 548.874 506.534C548.965 506.443 549.074 506.371 549.193 506.322C549.313 506.273 549.441 506.249 549.57 506.25C560.33 506.35 573.15 504.42 581.89 498.28C589.417 492.993 594.837 486.773 598.15 479.62C602.65 469.92 603.223 460.083 599.87 450.11C598.59 446.303 596.553 442.433 593.76 438.5" stroke="#FF880F" stroke-width="2"/>
<path d="M316.26 481.69C309.413 486.164 304.217 489.42 300.67 491.46C292.85 495.96 279.7 502.77 269.73 508.84C255.34 517.61 241.14 527.69 228.6 535.95C217.18 543.464 204.953 549.057 191.92 552.73" stroke="#FF8903" stroke-width="2"/>
<path d="M368.329 569.24C364.982 577.247 360.195 584.317 353.969 590.45" stroke="#FF7504" stroke-width="2"/>
<path d="M244.509 643.62C226.336 652.553 208.313 661.98 190.439 671.9" stroke="#FF7504" stroke-width="2"/>
<path d="M598.569 727.7C595.916 727.294 593.643 727.09 591.749 727.09C548.756 727.17 505.766 727.17 462.779 727.09C462.766 727.09 459.246 727.017 452.219 726.87C447.039 726.757 441.809 726.937 436.529 727.41" stroke="#FF8005" stroke-width="2"/>
<path d="M600.059 744.63C595.726 745.39 591.956 745.777 588.749 745.79C553.576 745.99 508.493 745.99 453.499 745.79C448.166 745.77 442.063 745.287 435.189 744.34" stroke="#FF7A06" stroke-width="2"/>
<path d="M587.02 783.51C586.513 782.81 585.686 782.52 584.54 782.64C582.853 782.813 581.983 782.9 581.93 782.9C537.47 782.807 492.72 782.933 447.68 783.28" stroke="#FF7A06" stroke-width="2"/>
<path d="M572.88 803.42C568.75 802.8 563.95 803.17 560.75 803.14C540.583 802.933 520.417 802.973 500.25 803.26C488.123 803.427 478.123 803.463 470.25 803.37C467.757 803.337 465.257 803.64 462.75 804.28" stroke="#FF7A06" stroke-width="2"/>
<path d="M548.62 480.82C548.622 481.124 548.738 481.415 548.946 481.636C549.154 481.856 549.437 481.99 549.74 482.01C555.28 482.364 560.51 481.884 565.43 480.57C575.78 477.81 582.84 466.96 578.48 456.8C576.533 452.247 573.486 449.047 569.34 447.2C560.52 443.26 553.33 450.96 550.57 458.61C548.13 465.39 548.55 474.5 548.62 480.82Z" stroke="#FF8E0E" stroke-width="2"/>
<path d="M488.189 481.19C487.923 479.75 487.789 478.77 487.789 478.25C487.839 467.38 489.399 452.46 476.989 447.25C473.423 445.757 469.943 445.94 466.549 447.8C460.069 451.36 457.136 457.007 457.749 464.74C458.399 472.92 464.599 478.68 472.359 480.62C477.186 481.82 482.249 482.28 487.549 482C487.648 481.995 487.744 481.969 487.831 481.923C487.919 481.878 487.995 481.815 488.056 481.738C488.116 481.662 488.16 481.573 488.183 481.478C488.206 481.384 488.208 481.286 488.189 481.19Z" stroke="#FF8E0E" stroke-width="2"/>
<path d="M518.373 115.921L517.513 115.919C510.493 115.907 504.793 121.587 504.781 128.607L504.679 187.007C504.666 194.026 510.347 199.727 517.366 199.739L518.226 199.741C525.246 199.753 530.946 194.072 530.959 187.053L531.061 128.653C531.073 121.633 525.392 115.933 518.373 115.921Z" fill="#FF9404"/>
<path d="M707.163 181.915L705.876 180.866C700.672 176.621 693.012 177.399 688.768 182.604L651.061 228.837C646.816 234.041 647.594 241.701 652.799 245.945L654.085 246.995C659.289 251.239 666.949 250.461 671.194 245.257L708.901 199.024C713.145 193.819 712.367 186.159 707.163 181.915Z" fill="#FF7E02"/>
<path d="M330.69 181.247L329.633 182.134C324.366 186.554 323.679 194.407 328.098 199.674L366.331 245.238C370.751 250.506 378.604 251.193 383.871 246.773L384.929 245.886C390.196 241.466 390.883 233.613 386.463 228.346L348.23 182.782C343.81 177.514 335.957 176.827 330.69 181.247Z" fill="#FF9404"/>
<path d="M620.061 269.72C610.787 275.333 602.051 280.233 593.851 284.42C583.331 289.78 575.121 295.71 566.471 304.11C555.291 314.97 545.911 319.91 529.101 329.95C521.421 334.537 512.967 340.393 503.741 347.52C492.807 355.967 481.427 364.823 469.601 374.09C454.141 386.21 442.421 396.73 430.151 409.16C429.897 409.42 421.174 418.483 403.981 436.35C388.427 452.523 371.447 467.107 353.041 480.1C348.827 469.34 345.654 458.303 343.521 446.99C342.721 442.73 342.237 439.333 342.071 436.8C341.751 432 341.021 428.2 340.881 423.05C339.391 370.47 359.321 319.62 398.791 284.23C425.757 260.063 457.691 245.587 494.591 240.8C498.751 240.26 502.681 240.44 506.621 239.65C507.734 239.423 509.334 239.29 511.421 239.25C520.821 239.077 529.931 239.433 538.751 240.32C564.104 242.873 587.784 250.503 609.791 263.21C613.771 265.51 617.194 267.68 620.061 269.72Z" fill="#FF9404"/>
<path d="M660.799 308.16C655.726 312.66 650.172 316.297 644.139 319.07C629.279 325.9 612.159 333.45 598.209 344.37C591.389 349.7 586.469 356.89 580.219 362.27C571.279 369.95 562.459 375.46 547.829 385.4C539.199 391.26 527.709 399.99 517.629 408.5C507.959 416.66 500.819 423.09 489.999 427.63C481.612 423.117 472.692 422.034 463.239 424.38C459.292 425.36 456.056 426.75 453.529 428.55C438.099 439.56 432.759 455.79 436.729 474.52C419.069 490.69 398.139 508.85 377.229 522.33C367.456 509.17 359.392 495.094 353.039 480.1C371.446 467.107 388.426 452.524 403.979 436.35C421.172 418.484 429.896 409.42 430.149 409.16C442.419 396.73 454.139 386.21 469.599 374.09C481.426 364.824 492.806 355.967 503.739 347.52C512.966 340.394 521.419 334.537 529.099 329.95C545.909 319.91 555.289 314.97 566.469 304.11C575.119 295.71 583.329 289.78 593.849 284.42C602.049 280.234 610.786 275.334 620.059 269.72C632.892 278.574 644.469 288.904 654.789 300.71C656.889 303.117 658.892 305.6 660.799 308.16Z" fill="#FF7E02"/>
<path d="M694.13 385.79C686.743 388.25 677.59 390.85 666.67 393.59C654.283 396.703 642.33 402.247 630.81 410.22C621.3 416.8 610.54 426.72 604.27 432.13C601.55 434.477 598.047 436.6 593.76 438.5C584.62 425.85 568.12 419.5 553.24 425.08C537.07 431.14 528.47 446.96 526.57 463.54C526.063 467.973 525.94 473.817 526.2 481.07C526.205 481.198 526.185 481.326 526.139 481.446C526.093 481.566 526.023 481.675 525.933 481.768C525.844 481.86 525.736 481.934 525.617 481.984C525.498 482.034 525.369 482.06 525.24 482.06H511.45C511.332 482.06 511.215 482.036 511.106 481.99C510.998 481.944 510.9 481.875 510.82 481.79C510.739 481.705 510.677 481.604 510.637 481.494C510.598 481.384 510.582 481.267 510.59 481.15C510.977 474.883 510.857 468.417 510.23 461.75C509.463 453.57 506.777 445.923 502.17 438.81C499.637 434.89 495.58 431.163 490 427.63C500.82 423.09 507.96 416.66 517.63 408.5C527.71 399.99 539.2 391.26 547.83 385.4C562.46 375.46 571.28 369.95 580.22 362.27C586.47 356.89 591.39 349.7 598.21 344.37C612.16 333.45 629.28 325.9 644.14 319.07C650.173 316.297 655.727 312.66 660.8 308.16C678.32 331.207 689.43 357.083 694.13 385.79Z" fill="#FF6C06"/>
<path d="M303.374 332.143L248.101 314.503C241.503 312.397 234.447 316.039 232.342 322.636L231.971 323.799C229.865 330.396 233.507 337.452 240.105 339.558L295.378 357.198C301.976 359.303 309.031 355.662 311.137 349.064L311.508 347.901C313.614 341.304 309.972 334.248 303.374 332.143Z" fill="#FF9404"/>
<path d="M790.409 314.682L734.995 332.473C728.459 334.572 724.861 341.572 726.96 348.108L727.376 349.403C729.474 355.939 736.474 359.537 743.01 357.438L798.424 339.647C804.961 337.548 808.558 330.548 806.46 324.012L806.044 322.717C803.945 316.181 796.945 312.583 790.409 314.682Z" fill="#FF6C06"/>
<path d="M694.13 385.79C694.743 389.27 695.13 391.667 695.29 392.98C700.763 438.78 690.357 480.317 664.07 517.59C658.783 525.09 652.44 533.573 645.04 543.04C639.37 550.3 634.41 557.89 629.66 567.07C619.78 586.163 612.887 606.557 608.98 628.25C608.06 633.377 607.63 638.147 607.69 642.56C607.723 645.22 607.617 647.173 607.37 648.42C606.91 650.72 606.87 653.83 605.9 656.15C602.834 663.437 596.963 667.087 588.29 667.1C535.53 667.167 488.933 667.16 448.5 667.08C440.28 667.07 433.68 664.62 430.07 656.99C429.383 655.537 428.977 652.32 428.85 647.34C428.683 640.54 428.203 633.743 427.41 626.95C440.93 619.04 449.46 612.32 464.17 601.09C470.55 596.23 478.387 591.107 487.68 585.72C487.713 601.627 487.66 617.547 487.52 633.48C487.493 636.347 488.83 638.093 491.53 638.72C493.957 639.273 499.233 639.327 507.36 638.88C507.726 638.86 508.077 638.735 508.37 638.52C511.06 636.52 510.48 634.14 510.5 630.75C510.667 604.81 510.73 578.887 510.69 552.98L510.68 506.82C510.68 506.629 510.756 506.446 510.891 506.311C511.026 506.176 511.209 506.1 511.4 506.1H525.37C525.574 506.1 525.77 506.181 525.915 506.326C526.059 506.47 526.14 506.666 526.14 506.87L525.98 544.61C526.033 574.75 526.1 604.803 526.18 634.77C526.18 636.637 526.883 637.947 528.29 638.7C528.54 638.832 528.817 638.907 529.1 638.92C533.433 639.093 538.313 639.167 543.74 639.14C545.553 639.133 546.683 638.857 547.13 638.31C547.99 637.257 548.477 636.117 548.59 634.89C548.677 633.997 548.65 626.033 548.51 611C548.47 606.153 548.493 601.49 548.58 597.01C548.92 578.99 548.79 560.97 548.62 542.93L548.59 507.23C548.589 507.101 548.613 506.973 548.662 506.853C548.711 506.734 548.783 506.625 548.874 506.534C548.966 506.443 549.074 506.371 549.194 506.322C549.313 506.273 549.441 506.249 549.57 506.25C560.33 506.35 573.15 504.42 581.89 498.28C589.417 492.993 594.837 486.773 598.15 479.62C602.65 469.92 603.223 460.083 599.87 450.11C598.59 446.303 596.553 442.433 593.76 438.5C598.047 436.6 601.55 434.477 604.27 432.13C610.54 426.72 621.3 416.8 630.81 410.22C642.33 402.247 654.283 396.703 666.67 393.59C677.59 390.85 686.743 388.25 694.13 385.79Z" fill="#FF6008"/>
<path d="M593.761 438.5C596.554 442.433 598.591 446.303 599.871 450.11C603.224 460.083 602.651 469.92 598.151 479.62C594.838 486.773 589.418 492.993 581.891 498.28C573.151 504.42 560.331 506.35 549.571 506.25C549.442 506.249 549.314 506.273 549.194 506.322C549.075 506.371 548.966 506.443 548.875 506.534C548.784 506.625 548.712 506.734 548.663 506.854C548.614 506.973 548.59 507.101 548.591 507.23L548.621 542.93C541.308 545.29 533.761 545.85 525.981 544.61L526.141 506.87C526.141 506.666 526.06 506.47 525.915 506.326C525.771 506.181 525.575 506.1 525.371 506.1H511.401C511.21 506.1 511.027 506.176 510.892 506.311C510.757 506.446 510.681 506.629 510.681 506.82L510.691 552.98C506.358 557.88 501.864 562.63 497.211 567.23C493.278 571.123 490.151 576.56 487.831 583.54L488.061 506.92C488.062 506.829 488.045 506.739 488.01 506.655C487.976 506.57 487.924 506.494 487.859 506.429C487.794 506.365 487.716 506.314 487.63 506.28C487.545 506.246 487.453 506.229 487.361 506.23C482.768 506.31 477.724 505.807 472.231 504.72C454.784 501.26 442.951 491.193 436.731 474.52C432.761 455.79 438.101 439.56 453.531 428.55C456.058 426.75 459.294 425.36 463.241 424.38C472.694 422.033 481.614 423.117 490.001 427.63C495.581 431.163 499.638 434.89 502.171 438.81C506.778 445.923 509.464 453.57 510.231 461.75C510.858 468.417 510.978 474.883 510.591 481.15C510.583 481.267 510.599 481.384 510.638 481.494C510.678 481.604 510.74 481.705 510.821 481.79C510.901 481.875 510.999 481.944 511.107 481.99C511.216 482.036 511.333 482.06 511.451 482.06H525.241C525.37 482.06 525.499 482.034 525.618 481.984C525.737 481.934 525.845 481.86 525.934 481.768C526.024 481.675 526.094 481.566 526.14 481.446C526.186 481.326 526.206 481.198 526.201 481.07C525.941 473.817 526.064 467.973 526.571 463.54C528.471 446.96 537.071 431.14 553.241 425.08C568.121 419.5 584.621 425.85 593.761 438.5ZM548.621 480.82C548.623 481.123 548.739 481.414 548.947 481.635C549.155 481.856 549.438 481.99 549.741 482.01C555.281 482.363 560.511 481.883 565.431 480.57C575.781 477.81 582.841 466.96 578.481 456.8C576.534 452.247 573.488 449.047 569.341 447.2C560.521 443.26 553.331 450.96 550.571 458.61C548.131 465.39 548.551 474.5 548.621 480.82ZM488.191 481.19C487.924 479.75 487.791 478.77 487.791 478.25C487.841 467.38 489.401 452.46 476.991 447.25C473.424 445.757 469.944 445.94 466.551 447.8C460.071 451.36 457.138 457.007 457.751 464.74C458.401 472.92 464.601 478.68 472.361 480.62C477.188 481.82 482.251 482.28 487.551 482C487.649 481.995 487.745 481.968 487.833 481.923C487.92 481.878 487.997 481.815 488.057 481.738C488.118 481.661 488.161 481.573 488.184 481.478C488.207 481.384 488.21 481.285 488.191 481.19Z" fill="#FFAF16"/>
<path d="M548.62 480.82C548.55 474.5 548.13 465.39 550.57 458.61C553.33 450.96 560.52 443.26 569.34 447.2C573.486 449.047 576.533 452.247 578.48 456.8C582.84 466.96 575.78 477.81 565.43 480.57C560.51 481.883 555.28 482.363 549.74 482.01C549.437 481.99 549.154 481.856 548.946 481.635C548.738 481.414 548.622 481.123 548.62 480.82Z" fill="#FF6C06"/>
<path d="M488.189 481.19C488.208 481.285 488.206 481.383 488.183 481.478C488.16 481.572 488.116 481.661 488.056 481.738C487.995 481.815 487.919 481.878 487.831 481.923C487.744 481.968 487.648 481.994 487.549 482C482.249 482.28 477.186 481.82 472.359 480.62C464.599 478.68 458.399 472.92 457.749 464.74C457.136 457.007 460.069 451.36 466.549 447.8C469.943 445.94 473.423 445.757 476.989 447.25C489.399 452.46 487.839 467.38 487.789 478.25C487.789 478.77 487.923 479.75 488.189 481.19Z" fill="#FF6C06"/>
<path d="M316.261 481.69C309.414 486.163 304.217 489.42 300.671 491.46C292.851 495.96 279.701 502.77 269.731 508.84C255.341 517.61 241.141 527.69 228.601 535.95C217.181 543.463 204.954 549.057 191.921 552.73C192.774 550.59 192.651 548.92 191.551 547.72C185.764 541.4 180.354 534.81 175.321 527.95C168.001 517.96 174.961 512.07 182.221 505.95C189.071 500.17 198.041 491.49 202.361 487.64C205.674 484.687 209.094 483.6 212.621 484.38C213.674 484.613 216.841 486.52 222.121 490.1C226.541 493.093 231.994 496.577 238.481 500.55C239.874 501.403 241.141 501.87 242.281 501.95C242.76 501.989 243.241 501.91 243.681 501.72L260.691 494.53C261.148 494.335 261.551 494.033 261.866 493.648C262.181 493.263 262.399 492.808 262.501 492.32C264.447 483.013 265.654 477.037 266.121 474.39C267.711 465.51 269.151 458.02 277.141 454.54C279.527 453.5 282.624 452.997 286.431 453.03C295.841 453.11 302.791 451.96 307.851 457.2C308.917 458.3 310.147 461.223 311.541 465.97C313.087 471.23 314.661 476.47 316.261 481.69Z" fill="#FF9404"/>
<path d="M436.73 474.52C442.95 491.193 454.784 501.26 472.23 504.72C477.724 505.807 482.767 506.31 487.36 506.23C487.453 506.229 487.544 506.246 487.63 506.28C487.715 506.314 487.793 506.365 487.858 506.429C487.924 506.494 487.975 506.57 488.01 506.654C488.045 506.739 488.062 506.829 488.06 506.92L487.83 583.54L487.68 585.72C478.387 591.107 470.55 596.23 464.17 601.09C449.46 612.32 440.93 619.04 427.41 626.95C426.644 619.837 425.187 612.49 423.04 604.91C417.98 586.963 410.6 570.263 400.9 554.81C394.6 544.79 385.16 533.06 377.23 522.33C398.14 508.85 419.07 490.69 436.73 474.52Z" fill="#FF6C06"/>
<path d="M368.33 569.24C364.983 577.247 360.197 584.317 353.97 590.45C348.683 575.01 339.09 563.543 325.19 556.05C296.4 540.53 260.16 550.53 243.67 578.94C231.99 599.05 231.82 623.63 244.51 643.62C226.337 652.553 208.313 661.98 190.44 671.9C191.667 669.9 191.8 667.743 190.84 665.43C188.647 660.143 185.743 652.957 182.13 643.87C181.53 642.35 180.44 641.523 178.86 641.39C169.18 640.537 161.86 639.86 156.9 639.36C154.527 639.113 151.827 637.817 148.8 635.47C145.833 633.163 144.347 629.84 144.34 625.5C144.327 618.413 144.347 608.237 144.4 594.97C144.4 594.479 144.464 593.991 144.59 593.52C145.597 589.733 147.613 586.683 150.64 584.37C152.447 582.997 155.513 582.017 159.84 581.43C168.093 580.31 174.573 579.54 179.28 579.12C179.826 579.072 180.348 578.875 180.791 578.551C181.233 578.227 181.579 577.787 181.79 577.28L191.92 552.73C204.953 549.057 217.18 543.463 228.6 535.95C241.14 527.69 255.34 517.61 269.73 508.84C279.7 502.77 292.85 495.96 300.67 491.46C304.217 489.42 309.413 486.163 316.26 481.69C323.66 502.48 333.56 520.89 345.85 539.04C352.01 548.13 361.04 559.01 368.33 569.24Z" fill="#FF7E02"/>
<path d="M854.263 488.305L733.944 488.095C726.482 488.082 720.423 494.12 720.41 501.581L720.409 502.121C720.396 509.583 726.434 515.642 733.895 515.655L854.215 515.865C861.677 515.878 867.736 509.84 867.749 502.378L867.75 501.838C867.763 494.377 861.725 488.318 854.263 488.305Z" fill="#FF6C06"/>
<path d="M548.62 542.93C548.79 560.97 548.921 578.99 548.581 597.01C548.494 601.49 548.47 606.154 548.51 611C548.65 626.034 548.677 633.997 548.591 634.89C548.477 636.117 547.99 637.257 547.13 638.31C546.684 638.857 545.554 639.134 543.74 639.14C538.314 639.167 533.434 639.093 529.1 638.92C528.817 638.907 528.541 638.832 528.29 638.7C526.884 637.947 526.18 636.637 526.18 634.77C526.1 604.804 526.034 574.75 525.98 544.61C533.76 545.85 541.307 545.29 548.62 542.93Z" fill="#FF9404"/>
<path d="M510.69 552.98C510.73 578.887 510.667 604.81 510.5 630.75C510.48 634.14 511.06 636.52 508.37 638.52C508.076 638.735 507.725 638.86 507.36 638.88C499.233 639.327 493.957 639.273 491.53 638.72C488.83 638.093 487.493 636.347 487.52 633.48C487.66 617.547 487.713 601.627 487.68 585.72L487.83 583.54C490.15 576.56 493.277 571.123 497.21 567.23C501.863 562.63 506.357 557.88 510.69 552.98Z" fill="#FF9404"/>
<path d="M190.441 671.9C208.314 661.98 226.337 652.554 244.511 643.62C250.604 652.887 258.264 659.977 267.491 664.89C301.381 682.92 342.511 665.38 354.211 629.49C358.371 616.73 358.291 603.717 353.971 590.45C360.197 584.317 364.984 577.247 368.331 569.24C379.937 586.18 387.488 603.71 390.981 621.83C391.261 623.284 391.851 628.317 392.751 636.93C393.971 648.63 393.761 658.04 393.721 670.64C393.721 671.403 393.951 672.149 394.381 672.78C398.507 678.82 402.461 684.387 406.241 689.48C411.151 696.08 412.251 702.07 407.851 709.38C407.111 710.614 405.314 712.484 402.461 714.99C394.267 722.19 389.441 726.43 387.981 727.71C386.268 729.21 384.524 730.324 382.751 731.05C379.791 732.26 376.791 731.75 373.491 731.87C371.657 731.944 370.037 731.517 368.631 730.59C363.351 727.09 358.031 723.664 352.671 720.31C349.621 718.41 347.501 717.19 343.621 717.78C343.468 717.8 343.32 717.844 343.181 717.91L328.381 724.93C327.965 725.127 327.598 725.414 327.306 725.77C327.014 726.127 326.804 726.543 326.691 726.99C325.864 730.317 324.104 737.954 321.411 749.9C320.681 753.16 319.691 756.57 317.261 758.7C312.571 762.82 309.051 764.17 302.461 764.11C295.347 764.037 290.347 764.044 287.461 764.13C282.447 764.284 278.911 763.797 276.851 762.67C271.181 759.59 269.541 756.68 267.811 750.24C267.404 748.727 265.408 741.264 261.821 727.85C261.645 727.199 261.329 726.595 260.896 726.08C260.462 725.565 259.921 725.152 259.311 724.87C255.024 722.904 250.077 720.784 244.471 718.51C240.271 716.81 238.571 717.73 234.611 719.85C231.497 721.51 227.604 723.877 222.931 726.95C218.417 729.924 215.217 731.524 213.331 731.75C208.724 732.317 204.854 731.574 201.721 729.52C198.541 727.44 195.271 724.537 191.911 720.81C188.917 717.477 185.441 713.734 181.481 709.58C176.881 704.75 174.861 698.19 176.511 691.85C176.957 690.137 178.461 687.65 181.021 684.39C183.331 681.45 187.611 676.52 190.441 671.9Z" fill="#FF6C06"/>
<path d="M790.601 571.95H689.741C682.407 571.95 676.461 577.896 676.461 585.23V585.83C676.461 593.165 682.407 599.11 689.741 599.11H790.601C797.935 599.11 803.881 593.165 803.881 585.83V585.23C803.881 577.896 797.935 571.95 790.601 571.95Z" fill="#FF6C06"/>
<path d="M748.066 652.187L687.626 652.293C680.275 652.306 674.327 658.275 674.34 665.626L674.341 666.466C674.354 673.817 680.323 679.765 687.674 679.753L748.114 679.647C755.465 679.634 761.414 673.665 761.401 666.314L761.399 665.474C761.387 658.123 755.417 652.174 748.066 652.187Z" fill="#FF6C06"/>
<path d="M598.571 727.7C595.917 727.293 593.644 727.09 591.751 727.09C548.757 727.17 505.767 727.17 462.781 727.09C462.767 727.09 459.247 727.017 452.221 726.87C447.041 726.757 441.811 726.937 436.531 727.41C428.104 722.823 424.351 715.553 425.271 705.6C425.317 705.148 425.418 704.705 425.571 704.28C427.791 698.347 431.587 694.267 436.961 692.04C439.341 691.053 443.767 690.557 450.241 690.55C507.034 690.523 553.791 690.513 590.511 690.52C598.304 690.52 604.094 693.367 607.881 699.06C609.661 701.727 610.637 704.667 610.811 707.88C611.301 716.79 606.641 723.88 598.571 727.7Z" fill="#FF6C06"/>
<path d="M598.569 727.7L590.629 732.29C590.527 732.348 590.441 732.431 590.378 732.53C590.315 732.63 590.277 732.743 590.268 732.861C590.259 732.978 590.28 733.096 590.327 733.204C590.374 733.312 590.447 733.407 590.539 733.48C594.026 736.266 597.199 739.983 600.059 744.63C595.726 745.39 591.956 745.776 588.749 745.79C553.576 745.99 508.493 745.99 453.499 745.79C448.166 745.77 442.063 745.286 435.189 744.34C438.123 740.366 441.633 737.116 445.719 734.59C445.925 734.461 446.09 734.275 446.195 734.056C446.299 733.837 446.339 733.592 446.31 733.351C446.28 733.11 446.183 732.882 446.029 732.694C445.875 732.506 445.67 732.366 445.439 732.29C442.579 731.37 439.609 729.743 436.529 727.41C441.809 726.936 447.039 726.756 452.219 726.87C459.246 727.016 462.766 727.09 462.779 727.09C505.766 727.17 548.756 727.17 591.749 727.09C593.643 727.09 595.916 727.293 598.569 727.7Z" fill="#FF9404"/>
<path d="M435.189 744.34C442.063 745.287 448.166 745.77 453.499 745.79C508.493 745.99 553.576 745.99 588.749 745.79C591.956 745.776 595.726 745.39 600.059 744.63C602.673 748.95 604.093 754.073 604.319 760C604.639 768.2 601.526 774.693 594.979 779.48C593.379 780.646 590.726 781.99 587.019 783.51C586.513 782.81 585.686 782.52 584.539 782.64C582.853 782.813 581.983 782.9 581.929 782.9C537.469 782.807 492.719 782.933 447.679 783.28C443.973 782.74 440.613 780.987 437.599 778.02C434.919 775.373 432.929 772.12 431.629 768.26C428.849 760.013 430.036 752.04 435.189 744.34Z" fill="#FF6008"/>
<path d="M587.02 783.51L577.09 786.62C576.744 786.728 576.445 786.949 576.238 787.248C576.032 787.547 575.93 787.906 575.95 788.27C576.243 793.517 575.22 798.567 572.88 803.42C568.75 802.8 563.95 803.17 560.75 803.14C540.583 802.933 520.416 802.973 500.25 803.26C488.123 803.427 478.123 803.463 470.25 803.37C467.756 803.337 465.256 803.64 462.75 804.28C461.11 799.667 459.89 794.98 459.09 790.22C458.71 787.96 457.67 786.94 455.31 786.46C452.69 785.927 450.146 784.867 447.68 783.28C492.72 782.933 537.47 782.807 581.93 782.9C581.983 782.9 582.853 782.813 584.54 782.64C585.686 782.52 586.513 782.81 587.02 783.51Z" fill="#FF9404"/>
<path d="M572.88 803.42C557.84 834.05 520.06 845.41 489.85 831.21C477.543 825.43 468.51 816.453 462.75 804.28C465.257 803.64 467.757 803.337 470.25 803.37C478.123 803.463 488.123 803.427 500.25 803.26C520.417 802.973 540.583 802.933 560.75 803.14C563.95 803.17 568.75 802.8 572.88 803.42Z" fill="#FF6008"/>
</svg>
