<svg width="1024" height="1024" viewBox="0 0 1024 1024" fill="none" xmlns="http://www.w3.org/2000/svg">
<path d="M842.219 831.66C841.479 828.067 840.559 822.437 839.459 814.77C838.372 807.197 835.419 800.11 830.599 793.51C823.106 783.237 813.446 776.107 801.619 772.12C773.329 762.58 739.859 774.2 726.429 801.39C724.689 804.903 723.186 809.843 721.919 816.21C720.912 821.283 720.009 826.397 719.209 831.55" stroke="#3DBAE4" stroke-width="2"/>
<path d="M309.13 831.64C308.243 827.293 307.46 822.99 306.78 818.73C305.84 812.817 304.853 808.58 303.82 806.02C298.31 792.34 287.03 781.53 273.88 775.26C253.45 765.52 229.97 766.78 211.05 779.39C198.32 787.87 189.89 800.09 187.41 814.89C186.236 821.877 185.133 827.467 184.1 831.66" stroke="#3DBAE4" stroke-width="2"/>
<path d="M515.249 335.72C519.342 335.733 526.692 335.88 537.299 336.16C537.509 336.166 537.715 336.1 537.883 335.973C538.05 335.845 538.169 335.664 538.219 335.46C541.526 322.833 547.349 311.49 555.689 301.43C556.062 300.983 559.069 297.497 564.709 290.97C578.769 274.72 580.939 251.17 572.349 231.68C563.259 211.06 544.109 199.56 522.299 196.11C520.806 195.87 518.549 195.747 515.529 195.74C512.509 195.733 510.252 195.847 508.759 196.08C486.939 199.45 467.739 210.87 458.569 231.45C449.899 250.91 451.979 274.47 465.969 290.77C471.582 297.323 474.576 300.823 474.949 301.27C483.249 311.363 489.029 322.73 492.289 335.37C492.339 335.574 492.458 335.755 492.625 335.883C492.793 336.01 492.999 336.076 493.209 336.07C503.816 335.83 511.162 335.713 515.249 335.72Z" stroke="#6AD1F2" stroke-width="2"/>
<path d="M533.989 357.38L496.109 357.58C495.891 357.583 495.682 357.671 495.529 357.827C495.375 357.982 495.289 358.192 495.289 358.41L495.309 362.97C495.315 364.162 495.456 365.342 495.725 366.442C495.994 367.542 496.385 368.541 496.877 369.382C497.368 370.222 497.95 370.888 498.588 371.341C499.227 371.793 499.91 372.024 500.599 372.02L529.659 371.86C531.048 371.852 532.374 370.89 533.347 369.185C534.32 367.481 534.86 365.174 534.849 362.77L534.829 358.21C534.829 358.1 534.807 357.991 534.765 357.89C534.723 357.789 534.661 357.697 534.582 357.62C534.504 357.542 534.412 357.481 534.31 357.44C534.208 357.399 534.099 357.379 533.989 357.38Z" stroke="#6AD1F2" stroke-width="2"/>
<path d="M460.61 465.28C446.59 477.71 438.53 495.07 436.45 513.77C434.73 529.23 436.163 544.177 440.75 558.61C452.07 594.25 486.22 618.77 524.08 614.35C544.17 612 561.6 599.95 573.91 584.09C580.41 575.717 585.293 565.7 588.56 554.04C594.41 533.14 594.23 509.83 585.46 489.57C573.77 462.57 549.48 447.02 520.3 445.19C497.253 443.743 477.356 450.44 460.61 465.28Z" stroke="#54C0E5" stroke-width="2"/>
<path d="M493.58 805.96C492.95 804.22 491.78 802.87 490.91 800.91C479.997 776.53 472.474 759.12 468.34 748.68C465.214 740.807 460.54 729.093 454.32 713.54C449.02 700.27 442.48 682.3 436.3 667.19C436.26 667.09 436.199 667 436.122 666.926C436.044 666.851 435.952 666.793 435.851 666.755C435.749 666.718 435.641 666.701 435.532 666.707C435.424 666.713 435.318 666.741 435.22 666.79C427.63 670.59 418.34 673.72 409.2 676.31C395.69 680.12 381.67 685.85 370.69 694.16C354.4 706.49 346.44 723.77 345.22 744.01C343.374 774.697 342.107 795.29 341.42 805.79C341.412 805.897 341.426 806.005 341.461 806.107C341.497 806.209 341.553 806.302 341.626 806.381C341.7 806.46 341.788 806.523 341.887 806.565C341.986 806.608 342.093 806.63 342.2 806.63H493.11C493.191 806.63 493.27 806.611 493.341 806.574C493.412 806.536 493.473 806.483 493.519 806.417C493.565 806.351 493.595 806.276 493.606 806.196C493.616 806.116 493.608 806.035 493.58 805.96Z" stroke="#3DBAE4" stroke-width="2"/>
<path d="M592 667.09C590.694 670.123 586.534 680.823 579.52 699.19C576.32 707.563 571.997 718.2 566.55 731.1C556.33 755.28 548.723 773.493 543.73 785.74C541.23 791.873 537.967 798.643 533.94 806.05C533.909 806.109 533.893 806.176 533.895 806.243C533.896 806.31 533.914 806.375 533.947 806.432C533.98 806.489 534.027 806.537 534.084 806.57C534.141 806.603 534.205 806.62 534.27 806.62H685.42C685.529 806.62 685.637 806.598 685.737 806.555C685.837 806.511 685.927 806.448 686.001 806.368C686.075 806.288 686.132 806.194 686.168 806.091C686.204 805.988 686.218 805.879 686.21 805.77C685.237 790.543 684.19 771.523 683.07 748.71C682.74 741.88 682.12 734.39 680.72 728.98C677.34 715.9 669.96 703.3 658.73 695C649.497 688.173 639.25 683.083 627.99 679.73C614.837 675.817 602.95 671.56 592.33 666.96C592.3 666.947 592.267 666.94 592.235 666.939C592.202 666.938 592.169 666.944 592.138 666.956C592.107 666.968 592.079 666.986 592.056 667.009C592.032 667.032 592.013 667.06 592 667.09Z" stroke="#3DBAE4" stroke-width="2"/>
<path d="M275.09 705.52C275.09 697.672 271.973 690.146 266.423 684.597C260.874 679.048 253.348 675.93 245.5 675.93C237.652 675.93 230.126 679.048 224.577 684.597C219.028 690.146 215.91 697.672 215.91 705.52C215.91 709.406 216.676 713.254 218.163 716.844C219.65 720.434 221.829 723.696 224.577 726.443C227.325 729.191 230.587 731.371 234.177 732.858C237.767 734.345 241.614 735.11 245.5 735.11C249.386 735.11 253.234 734.345 256.824 732.858C260.414 731.371 263.676 729.191 266.423 726.443C269.171 723.696 271.351 720.434 272.838 716.844C274.325 713.254 275.09 709.406 275.09 705.52Z" stroke="#54C0E5" stroke-width="2"/>
<path d="M810.59 705.52C810.59 697.664 807.469 690.13 801.914 684.576C796.359 679.021 788.825 675.9 780.97 675.9C773.114 675.9 765.58 679.021 760.025 684.576C754.47 690.13 751.35 697.664 751.35 705.52C751.35 713.376 754.47 720.91 760.025 726.464C765.58 732.019 773.114 735.14 780.97 735.14C788.825 735.14 796.359 732.019 801.914 726.464C807.469 720.91 810.59 713.376 810.59 705.52Z" stroke="#54C0E5" stroke-width="2"/>
<path d="M518.889 678.4C518.923 678.33 518.938 678.253 518.934 678.176C518.93 678.098 518.906 678.023 518.865 677.957C518.824 677.891 518.768 677.837 518.7 677.799C518.632 677.761 518.556 677.741 518.479 677.74L510.129 677.51C510.053 677.508 509.977 677.525 509.909 677.559C509.841 677.593 509.783 677.644 509.739 677.706C509.695 677.769 509.668 677.841 509.659 677.917C509.651 677.993 509.661 678.069 509.689 678.14L513.599 687.88C513.633 687.962 513.69 688.032 513.764 688.083C513.837 688.133 513.924 688.16 514.012 688.163C514.101 688.165 514.189 688.141 514.265 688.094C514.34 688.048 514.401 687.98 514.439 687.9L518.889 678.4Z" stroke="#3DBAE4" stroke-width="2"/>
<path d="M513.11 725.76C512.99 726.747 512.83 727.55 512.63 728.17C507.923 742.423 504.507 754.963 502.38 765.79C501.99 767.79 501.13 770.23 502.04 772.01C505.907 779.51 509.483 787.267 512.77 795.28C512.807 795.37 512.863 795.451 512.935 795.516C513.007 795.581 513.093 795.629 513.186 795.657C513.279 795.685 513.377 795.692 513.473 795.676C513.569 795.661 513.66 795.625 513.74 795.57C513.82 795.517 513.923 795.347 514.05 795.06C514.99 793 518.343 786.353 524.11 775.12C525.317 772.767 525.79 770.977 525.53 769.75C523.81 761.643 521.42 751.937 518.36 740.63C516.853 735.057 515.33 730.073 513.79 725.68C513.764 725.604 513.713 725.539 513.645 725.496C513.578 725.454 513.497 725.435 513.418 725.445C513.338 725.454 513.264 725.491 513.208 725.548C513.152 725.605 513.117 725.68 513.11 725.76Z" stroke="#3DBAE4" stroke-width="2"/>
<path d="M516.094 86.2219L513.954 86.2182C508.498 86.2086 504.066 90.6243 504.057 96.0809L503.983 138.601C503.973 144.057 508.389 148.489 513.846 148.498L515.986 148.502C521.442 148.511 525.873 144.096 525.883 138.639L525.957 96.1191C525.966 90.6626 521.551 86.2314 516.094 86.2219Z" fill="#67D8FB"/>
<path d="M384.857 129.34L384.457 129.733C380.136 133.979 380.075 140.925 384.322 145.246L416.69 178.184C420.936 182.505 427.882 182.566 432.203 178.32L432.603 177.927C436.924 173.681 436.984 166.735 432.738 162.414L400.37 129.476C396.123 125.155 389.178 125.094 384.857 129.34Z" fill="#67D8FB"/>
<path d="M648.975 129.694L648.604 129.33C644.306 125.107 637.399 125.167 633.175 129.465L600.891 162.317C596.668 166.615 596.728 173.522 601.026 177.745L601.397 178.11C605.695 182.333 612.602 182.273 616.825 177.975L649.109 145.123C653.333 140.825 653.272 133.918 648.975 129.694Z" fill="#67D8FB"/>
<path d="M515.61 173.66C539.13 173.75 566.67 185.03 581.6 204.67C603.9 234.01 605.83 272.12 584.13 302.49C580.78 307.19 575.76 311.99 572.28 316.28C565.34 324.827 560.8 334.313 558.66 344.74C556.81 353.76 557.48 365.88 555.52 375.24C555.213 376.693 554.353 378.26 552.94 379.94C549.547 383.94 545.837 387.733 541.81 391.32C540.77 392.24 539.62 392.913 538.36 393.34C538.122 393.419 537.874 393.473 537.62 393.5C529.62 394.3 521.997 394.687 514.75 394.66C507.497 394.633 499.877 394.187 491.89 393.32C491.636 393.29 491.388 393.233 491.15 393.15C489.89 392.717 488.743 392.037 487.71 391.11C483.71 387.49 480.03 383.667 476.67 379.64C475.27 377.947 474.423 376.373 474.13 374.92C472.24 365.55 473.01 353.43 471.23 344.4C469.17 333.953 464.703 324.43 457.83 315.83C454.38 311.51 449.4 306.68 446.09 301.95C424.63 271.41 426.86 233.32 449.38 204.16C464.47 184.63 492.09 173.57 515.61 173.66ZM515.25 335.72C519.343 335.733 526.693 335.88 537.3 336.16C537.51 336.166 537.716 336.1 537.884 335.973C538.051 335.845 538.17 335.664 538.22 335.46C541.527 322.833 547.35 311.49 555.69 301.43C556.063 300.983 559.07 297.497 564.71 290.97C578.77 274.72 580.94 251.17 572.35 231.68C563.26 211.06 544.11 199.56 522.3 196.11C520.807 195.87 518.55 195.747 515.53 195.74C512.51 195.733 510.253 195.847 508.76 196.08C486.94 199.45 467.74 210.87 458.57 231.45C449.9 250.91 451.98 274.47 465.97 290.77C471.583 297.323 474.577 300.823 474.95 301.27C483.25 311.363 489.03 322.73 492.29 335.37C492.34 335.574 492.459 335.755 492.626 335.883C492.794 336.01 493 336.076 493.21 336.07C503.817 335.83 511.163 335.713 515.25 335.72ZM533.99 357.38L496.11 357.58C495.892 357.583 495.683 357.671 495.53 357.827C495.376 357.982 495.29 358.192 495.29 358.41L495.31 362.97C495.316 364.162 495.457 365.342 495.726 366.442C495.995 367.542 496.386 368.541 496.878 369.382C497.369 370.222 497.951 370.888 498.589 371.341C499.228 371.793 499.911 372.024 500.6 372.02L529.66 371.86C531.049 371.852 532.375 370.89 533.348 369.185C534.321 367.481 534.862 365.173 534.85 362.77L534.83 358.21C534.83 358.1 534.808 357.991 534.766 357.89C534.724 357.789 534.662 357.697 534.583 357.62C534.505 357.542 534.413 357.481 534.311 357.44C534.209 357.399 534.1 357.379 533.99 357.38Z" fill="#3DBEE8"/>
<path d="M515.529 195.74C518.549 195.747 520.806 195.87 522.299 196.11C544.109 199.56 563.259 211.06 572.349 231.68C580.939 251.17 578.769 274.72 564.709 290.97C559.069 297.497 556.062 300.983 555.689 301.43C547.349 311.49 541.526 322.833 538.219 335.46C538.169 335.664 538.05 335.845 537.883 335.973C537.715 336.1 537.509 336.166 537.299 336.16C526.692 335.88 519.342 335.733 515.249 335.72C511.162 335.713 503.816 335.83 493.209 336.07C492.999 336.076 492.793 336.01 492.625 335.883C492.458 335.755 492.339 335.574 492.289 335.37C489.029 322.73 483.249 311.363 474.949 301.27C474.576 300.823 471.582 297.323 465.969 290.77C451.979 274.47 449.899 250.91 458.569 231.45C467.739 210.87 486.939 199.45 508.759 196.08C510.252 195.847 512.509 195.733 515.529 195.74Z" fill="#96E4FC"/>
<path d="M391.798 241.702L349.238 241.479C343.34 241.448 338.534 246.204 338.503 252.103L338.498 252.903C338.468 258.801 343.224 263.608 349.122 263.638L391.682 263.861C397.58 263.892 402.387 259.136 402.418 253.237L402.422 252.437C402.453 246.539 397.696 241.732 391.798 241.702Z" fill="#67D8FB"/>
<path d="M682.21 241.63H640.15C634.323 241.63 629.6 246.353 629.6 252.18V253.18C629.6 259.007 634.323 263.73 640.15 263.73H682.21C688.036 263.73 692.76 259.007 692.76 253.18V252.18C692.76 246.353 688.036 241.63 682.21 241.63Z" fill="#67D8FB"/>
<path d="M533.989 357.38C534.099 357.379 534.208 357.399 534.31 357.44C534.412 357.481 534.504 357.542 534.582 357.619C534.661 357.697 534.723 357.789 534.765 357.89C534.807 357.991 534.829 358.1 534.829 358.21L534.849 362.77C534.86 365.173 534.32 367.481 533.347 369.185C532.374 370.889 531.048 371.852 529.659 371.86L500.599 372.02C499.91 372.024 499.227 371.793 498.588 371.341C497.95 370.888 497.368 370.222 496.877 369.382C496.385 368.541 495.994 367.542 495.725 366.442C495.456 365.342 495.315 364.162 495.309 362.97L495.289 358.41C495.289 358.192 495.375 357.982 495.529 357.827C495.682 357.671 495.891 357.583 496.109 357.58L533.989 357.38Z" fill="#96E4FC"/>
<path d="M591 460.54C615.53 490.72 618.93 530.95 605.92 567.38C596.73 593.12 579.79 612.29 555.72 624.74C540.36 632.69 524.94 634.23 508.08 633.81C490.74 633.377 474.584 627.723 459.61 616.85C438.44 601.48 425.01 581.33 418.56 556C414.254 539.12 413.814 521.72 417.24 503.8C421.87 479.56 436.35 456.52 457.38 443.16C471.647 434.087 487.03 428.56 503.53 426.58C507.59 426.093 513.024 425.933 519.83 426.1C547.57 426.8 573.5 439.01 591 460.54ZM460.61 465.28C446.59 477.71 438.53 495.07 436.45 513.77C434.73 529.23 436.164 544.177 440.75 558.61C452.07 594.25 486.22 618.77 524.08 614.35C544.17 612 561.6 599.95 573.91 584.09C580.41 575.717 585.294 565.7 588.56 554.04C594.41 533.14 594.23 509.83 585.46 489.57C573.77 462.57 549.48 447.02 520.3 445.19C497.254 443.743 477.357 450.44 460.61 465.28Z" fill="#129BCD"/>
<path d="M460.61 465.28C477.356 450.44 497.253 443.743 520.3 445.19C549.48 447.02 573.77 462.57 585.46 489.57C594.23 509.83 594.41 533.14 588.56 554.04C585.293 565.7 580.41 575.717 573.91 584.09C561.6 599.95 544.17 612 524.08 614.35C486.22 618.77 452.07 594.25 440.75 558.61C436.163 544.177 434.73 529.23 436.45 513.77C438.53 495.07 446.59 477.71 460.61 465.28Z" fill="#96E4FC"/>
<path d="M842.22 831.66C841.48 828.067 840.56 822.437 839.46 814.77C838.373 807.197 835.42 800.11 830.6 793.51C823.106 783.237 813.446 776.107 801.62 772.12C773.33 762.58 739.86 774.2 726.43 801.39C724.69 804.903 723.186 809.843 721.92 816.21C720.913 821.283 720.01 826.397 719.21 831.55C713.983 831.783 709.186 831.793 704.82 831.58C702.25 831.46 700.92 829.28 698.73 828C698.52 827.876 698.279 827.81 698.03 827.81H330.15C329.218 827.81 328.315 828.127 327.59 828.71L324.68 831.03C324.381 831.27 324.016 831.404 323.64 831.41L309.13 831.64C308.243 827.293 307.46 822.99 306.78 818.73C305.84 812.817 304.853 808.58 303.82 806.02C298.31 792.34 287.03 781.53 273.88 775.26C253.45 765.52 229.97 766.78 211.05 779.39C198.32 787.87 189.89 800.09 187.41 814.89C186.236 821.877 185.133 827.467 184.1 831.66C180.246 831.76 176.303 831.753 172.27 831.64C167.11 831.49 164.19 826.14 164.45 821.52C165.68 799.54 175.26 778.68 192.74 765.31C200.48 759.397 208.796 754.713 217.69 751.26C217.83 751.205 217.952 751.113 218.044 750.993C218.135 750.874 218.193 750.732 218.209 750.583C218.226 750.435 218.201 750.285 218.137 750.15C218.074 750.015 217.974 749.901 217.85 749.82C178.25 723.67 189.39 661.95 237.72 654.44C239.466 654.167 242.98 654.077 248.26 654.17C276 654.67 296.64 677.57 297.29 704.51C297.576 716.39 294.356 727.07 287.63 736.55C284.1 741.52 279.22 745.83 274.35 749.77C274.229 749.868 274.136 749.997 274.08 750.142C274.025 750.288 274.008 750.445 274.032 750.599C274.057 750.753 274.121 750.898 274.219 751.019C274.316 751.14 274.444 751.234 274.59 751.29C290.463 757.37 303.626 766.863 314.08 779.77C316.19 782.37 317.92 785.75 319.72 788.52C319.794 788.631 319.902 788.716 320.028 788.763C320.153 788.809 320.29 788.816 320.42 788.78C320.549 788.745 320.664 788.67 320.748 788.566C320.832 788.462 320.882 788.334 320.89 788.2C321.59 771.647 322.946 754.827 324.96 737.74C328.026 711.66 340.016 690.883 360.93 675.41C362.536 674.217 366.936 671.79 374.13 668.13C391.31 659.4 410.18 654.5 427.89 647.15C433.403 644.863 440.383 641.457 448.83 636.93C448.892 636.898 448.96 636.88 449.03 636.878C449.1 636.876 449.169 636.89 449.233 636.919C449.296 636.948 449.353 636.991 449.397 637.045C449.442 637.099 449.473 637.162 449.49 637.23C453.08 652.35 457.85 664.28 463.93 679.34C474.09 704.487 482.006 724.29 487.68 738.75C487.71 738.829 487.76 738.9 487.824 738.956C487.888 739.012 487.964 739.052 488.046 739.072C488.128 739.091 488.213 739.091 488.294 739.069C488.375 739.048 488.449 739.007 488.51 738.95C488.71 738.763 488.9 738.387 489.08 737.82C492.773 726.273 495.643 716.587 497.69 708.76C497.885 708.005 497.839 707.205 497.56 706.47C493.146 695.063 490.756 688.863 490.39 687.87C487.77 680.71 484.55 672.18 485.96 665.86C487.42 659.38 492.4 656.43 499.04 656C509.466 655.333 519.383 655.317 528.79 655.95C532.61 656.21 535.47 656.93 537.37 658.11C546.24 663.63 542.72 675.68 539.65 683.4C536.816 690.513 533.63 698.207 530.09 706.48C529.837 707.074 529.799 707.739 529.98 708.36L538.54 737.69C538.604 737.908 538.752 738.093 538.951 738.207C539.15 738.32 539.386 738.354 539.61 738.3C539.843 738.24 540.056 737.98 540.25 737.52C550.57 713.407 561.146 687.4 571.98 659.5C575.033 651.647 577.266 644.083 578.68 636.81C578.692 636.752 578.717 636.698 578.754 636.652C578.79 636.606 578.836 636.569 578.888 636.543C578.941 636.518 578.998 636.506 579.055 636.507C579.113 636.508 579.169 636.523 579.22 636.55C593.313 643.81 602.863 648.347 607.87 650.16C624.57 656.187 636.073 660.423 642.38 662.87C648.586 665.283 653.94 667.693 658.44 670.1C684.36 683.98 699.99 709.58 703.12 738.65C704.546 751.937 705.693 766.137 706.56 781.25C706.706 783.823 706.74 786.29 706.66 788.65C706.64 789.137 706.666 789.44 706.74 789.56C706.795 789.66 706.877 789.743 706.976 789.799C707.075 789.856 707.188 789.884 707.303 789.881C707.418 789.878 707.531 789.844 707.629 789.782C707.727 789.72 707.807 789.633 707.86 789.53C710.013 785.303 712.51 781.487 715.35 778.08C725.156 766.327 737.28 757.543 751.72 751.73C752.226 751.523 752.613 751.28 752.88 751C752.956 750.919 753.013 750.822 753.047 750.716C753.082 750.61 753.093 750.497 753.08 750.386C753.066 750.275 753.029 750.168 752.97 750.072C752.912 749.976 752.833 749.893 752.74 749.83C737.126 739.29 729.256 724.517 729.13 705.51C728.95 679.19 747.56 658.35 773.42 654.39C775.02 654.15 778.343 654.07 783.39 654.15C810.48 654.58 831.32 675.68 832.64 702.27C833.66 722.81 825.02 737.96 808.96 749.82C808.828 749.916 808.726 750.046 808.663 750.196C808.599 750.346 808.578 750.51 808.6 750.671C808.623 750.832 808.689 750.984 808.791 751.11C808.893 751.237 809.027 751.334 809.18 751.39C840.14 762.98 861.15 788.7 862.09 822.43C862.203 826.363 860.543 829.273 857.11 831.16C856.663 831.403 856.162 831.534 855.65 831.54L842.22 831.66ZM493.58 805.96C492.95 804.22 491.78 802.87 490.91 800.91C479.996 776.53 472.473 759.12 468.34 748.68C465.213 740.807 460.54 729.093 454.32 713.54C449.02 700.27 442.48 682.3 436.3 667.19C436.259 667.09 436.198 667 436.121 666.926C436.044 666.851 435.951 666.793 435.85 666.755C435.749 666.718 435.64 666.701 435.532 666.707C435.423 666.713 435.317 666.741 435.22 666.79C427.63 670.59 418.34 673.72 409.2 676.31C395.69 680.12 381.67 685.85 370.69 694.16C354.4 706.49 346.44 723.77 345.22 744.01C343.373 774.697 342.106 795.29 341.42 805.79C341.411 805.897 341.425 806.005 341.461 806.107C341.496 806.209 341.552 806.302 341.626 806.381C341.699 806.46 341.788 806.523 341.887 806.565C341.985 806.608 342.092 806.63 342.2 806.63H493.11C493.19 806.63 493.269 806.611 493.34 806.574C493.411 806.537 493.473 806.483 493.519 806.417C493.565 806.351 493.594 806.276 493.605 806.196C493.616 806.116 493.607 806.036 493.58 805.96ZM592 667.09C590.693 670.123 586.533 680.823 579.52 699.19C576.32 707.563 571.996 718.2 566.55 731.1C556.33 755.28 548.723 773.493 543.73 785.74C541.23 791.873 537.966 798.643 533.94 806.05C533.909 806.109 533.893 806.176 533.894 806.243C533.895 806.31 533.913 806.375 533.946 806.432C533.98 806.489 534.027 806.537 534.083 806.57C534.14 806.603 534.204 806.62 534.27 806.62H685.42C685.529 806.62 685.637 806.598 685.737 806.555C685.836 806.511 685.926 806.448 686.001 806.368C686.075 806.288 686.132 806.194 686.168 806.091C686.204 805.988 686.218 805.879 686.21 805.77C685.236 790.543 684.19 771.523 683.07 748.71C682.74 741.88 682.12 734.39 680.72 728.98C677.34 715.9 669.96 703.3 658.73 695C649.496 688.173 639.25 683.083 627.99 679.73C614.836 675.817 602.95 671.56 592.33 666.96C592.299 666.947 592.267 666.94 592.234 666.939C592.201 666.938 592.168 666.944 592.138 666.956C592.107 666.968 592.079 666.986 592.055 667.009C592.032 667.032 592.013 667.06 592 667.09ZM275.09 705.52C275.09 697.672 271.972 690.146 266.423 684.597C260.874 679.048 253.347 675.93 245.5 675.93C237.652 675.93 230.126 679.048 224.576 684.597C219.027 690.146 215.91 697.672 215.91 705.52C215.91 709.406 216.675 713.254 218.162 716.844C219.649 720.434 221.829 723.696 224.576 726.443C227.324 729.191 230.586 731.371 234.176 732.858C237.766 734.345 241.614 735.11 245.5 735.11C249.385 735.11 253.233 734.345 256.823 732.858C260.413 731.371 263.675 729.191 266.423 726.443C269.171 723.696 271.35 720.434 272.837 716.844C274.324 713.254 275.09 709.406 275.09 705.52ZM810.59 705.52C810.59 697.664 807.469 690.13 801.914 684.576C796.359 679.021 788.825 675.9 780.97 675.9C773.114 675.9 765.58 679.021 760.025 684.576C754.47 690.13 751.35 697.664 751.35 705.52C751.35 713.376 754.47 720.91 760.025 726.464C765.58 732.019 773.114 735.14 780.97 735.14C788.825 735.14 796.359 732.019 801.914 726.464C807.469 720.91 810.59 713.376 810.59 705.52ZM518.89 678.4C518.923 678.33 518.939 678.253 518.935 678.176C518.931 678.098 518.907 678.023 518.866 677.957C518.825 677.891 518.768 677.837 518.701 677.799C518.633 677.761 518.557 677.741 518.48 677.74L510.13 677.51C510.053 677.508 509.978 677.525 509.91 677.559C509.842 677.593 509.783 677.644 509.74 677.706C509.696 677.769 509.669 677.841 509.66 677.917C509.651 677.993 509.661 678.069 509.69 678.14L513.6 687.88C513.634 687.962 513.691 688.032 513.765 688.083C513.838 688.133 513.924 688.16 514.013 688.163C514.102 688.165 514.19 688.141 514.265 688.094C514.341 688.048 514.401 687.98 514.44 687.9L518.89 678.4ZM513.11 725.76C512.99 726.747 512.83 727.55 512.63 728.17C507.923 742.423 504.506 754.963 502.38 765.79C501.99 767.79 501.13 770.23 502.04 772.01C505.906 779.51 509.483 787.267 512.77 795.28C512.806 795.37 512.863 795.451 512.935 795.516C513.007 795.581 513.092 795.629 513.185 795.657C513.278 795.685 513.376 795.692 513.472 795.676C513.568 795.661 513.66 795.625 513.74 795.57C513.82 795.517 513.923 795.347 514.05 795.06C514.99 793 518.343 786.353 524.11 775.12C525.316 772.767 525.79 770.977 525.53 769.75C523.81 761.643 521.42 751.937 518.36 740.63C516.853 735.057 515.33 730.073 513.79 725.68C513.764 725.604 513.713 725.539 513.645 725.496C513.577 725.454 513.497 725.435 513.417 725.445C513.338 725.454 513.264 725.491 513.208 725.548C513.152 725.605 513.117 725.68 513.11 725.76Z" fill="#129BCD"/>
<path d="M493.58 805.96C493.608 806.035 493.616 806.116 493.606 806.196C493.595 806.276 493.565 806.351 493.519 806.417C493.473 806.483 493.412 806.536 493.341 806.574C493.27 806.611 493.191 806.63 493.11 806.63H342.2C342.093 806.63 341.986 806.608 341.887 806.565C341.788 806.523 341.7 806.46 341.626 806.381C341.553 806.302 341.497 806.209 341.461 806.107C341.426 806.005 341.412 805.897 341.42 805.79C342.107 795.29 343.374 774.697 345.22 744.01C346.44 723.77 354.4 706.49 370.69 694.16C381.67 685.85 395.69 680.12 409.2 676.31C418.34 673.72 427.63 670.59 435.22 666.79C435.318 666.741 435.424 666.713 435.532 666.707C435.641 666.701 435.749 666.718 435.851 666.755C435.952 666.793 436.044 666.851 436.122 666.926C436.199 667 436.26 667.09 436.3 667.19C442.48 682.3 449.02 700.27 454.32 713.54C460.54 729.093 465.214 740.807 468.34 748.68C472.474 759.12 479.997 776.53 490.91 800.91C491.78 802.87 492.95 804.22 493.58 805.96Z" fill="#67D8FB"/>
<path d="M592 667.09C592.013 667.06 592.032 667.032 592.056 667.009C592.079 666.986 592.107 666.968 592.138 666.956C592.169 666.944 592.202 666.938 592.235 666.939C592.267 666.94 592.3 666.947 592.33 666.96C602.95 671.56 614.837 675.817 627.99 679.73C639.25 683.083 649.497 688.173 658.73 695C669.96 703.3 677.34 715.9 680.72 728.98C682.12 734.39 682.74 741.88 683.07 748.71C684.19 771.523 685.237 790.543 686.21 805.77C686.218 805.879 686.204 805.988 686.168 806.091C686.132 806.194 686.075 806.288 686.001 806.368C685.927 806.448 685.837 806.511 685.737 806.555C685.637 806.598 685.529 806.62 685.42 806.62H534.27C534.205 806.62 534.141 806.603 534.084 806.57C534.027 806.537 533.98 806.489 533.947 806.432C533.914 806.375 533.896 806.31 533.895 806.243C533.893 806.176 533.909 806.109 533.94 806.05C537.967 798.643 541.23 791.873 543.73 785.74C548.723 773.493 556.33 755.28 566.55 731.1C571.997 718.2 576.32 707.563 579.52 699.19C586.534 680.823 590.694 670.123 592 667.09Z" fill="#67D8FB"/>
<path d="M245.5 735.11C261.842 735.11 275.09 721.862 275.09 705.52C275.09 689.178 261.842 675.93 245.5 675.93C229.158 675.93 215.91 689.178 215.91 705.52C215.91 721.862 229.158 735.11 245.5 735.11Z" fill="#96E4FC"/>
<path d="M780.97 735.14C797.328 735.14 810.59 721.879 810.59 705.52C810.59 689.161 797.328 675.9 780.97 675.9C764.611 675.9 751.35 689.161 751.35 705.52C751.35 721.879 764.611 735.14 780.97 735.14Z" fill="#96E4FC"/>
<path d="M518.891 678.4L514.441 687.9C514.403 687.98 514.342 688.048 514.266 688.094C514.191 688.141 514.103 688.165 514.014 688.163C513.925 688.16 513.839 688.133 513.766 688.083C513.692 688.032 513.635 687.962 513.601 687.88L509.691 678.14C509.663 678.069 509.652 677.993 509.661 677.917C509.67 677.841 509.697 677.769 509.741 677.706C509.785 677.644 509.843 677.593 509.911 677.559C509.979 677.525 510.055 677.508 510.131 677.51L518.481 677.74C518.558 677.741 518.634 677.761 518.702 677.799C518.77 677.837 518.826 677.891 518.867 677.957C518.908 678.023 518.932 678.098 518.936 678.176C518.94 678.253 518.925 678.33 518.891 678.4Z" fill="#67D8FB"/>
<path d="M513.11 725.76C513.117 725.68 513.152 725.605 513.208 725.548C513.264 725.491 513.338 725.454 513.418 725.445C513.497 725.435 513.578 725.454 513.645 725.496C513.713 725.539 513.764 725.604 513.79 725.68C515.33 730.073 516.853 735.057 518.36 740.63C521.42 751.937 523.81 761.643 525.53 769.75C525.79 770.977 525.317 772.767 524.11 775.12C518.343 786.353 514.99 793 514.05 795.06C513.923 795.347 513.82 795.517 513.74 795.57C513.66 795.625 513.569 795.661 513.473 795.676C513.377 795.692 513.279 795.685 513.186 795.657C513.093 795.629 513.007 795.581 512.935 795.516C512.863 795.451 512.807 795.37 512.77 795.28C509.483 787.267 505.907 779.51 502.04 772.01C501.13 770.23 501.99 767.79 502.38 765.79C504.507 754.963 507.923 742.423 512.63 728.17C512.83 727.55 512.99 726.747 513.11 725.76Z" fill="#67D8FB"/>
<path d="M309.13 831.64L184.1 831.66C185.133 827.467 186.236 821.877 187.41 814.89C189.89 800.09 198.32 787.87 211.05 779.39C229.97 766.78 253.45 765.52 273.88 775.26C287.03 781.53 298.31 792.34 303.82 806.02C304.853 808.58 305.84 812.817 306.78 818.73C307.46 822.99 308.243 827.293 309.13 831.64Z" fill="#67D8FB"/>
<path d="M842.221 831.66L719.211 831.55C720.011 826.397 720.914 821.283 721.921 816.21C723.188 809.843 724.691 804.903 726.431 801.39C739.861 774.2 773.331 762.58 801.621 772.12C813.448 776.107 823.108 783.237 830.601 793.51C835.421 800.11 838.374 807.197 839.461 814.77C840.561 822.437 841.481 828.067 842.221 831.66Z" fill="#67D8FB"/>
</svg>
