<svg width="1024" height="1024" viewBox="0 0 1024 1024" fill="none" xmlns="http://www.w3.org/2000/svg">
<path d="M456.35 555.86C456.39 555.773 456.406 555.57 456.4 555.25C455.58 521.063 455.18 491.313 455.2 466C455.2 459.253 455.316 454.173 455.55 450.76C455.87 445.993 456.5 442.303 457.44 439.69C462.53 425.62 473.61 414.21 481.08 401.46C489.12 387.75 496.61 375.46 501.67 361.47C503.89 355.33 506.27 346.25 507.37 340.93C511.663 320.11 511.323 299.53 506.35 279.19C504.423 271.33 503.263 266.8 502.87 265.6C497.4 249 490.31 233.13 478.84 218.99C472.88 211.64 464.33 204.95 456.48 200.03C440.08 189.74 422.39 181.66 403.56 177.5C394.73 175.56 386.85 175.35 376.99 175.08C345.95 174.24 317.583 182.063 291.89 198.55C285.59 202.59 279.463 207.437 273.51 213.09C267.063 219.217 261.773 224.98 257.64 230.38C243.913 248.32 235.443 268.693 232.23 291.5C231.89 293.913 231.356 301.493 230.63 314.24C230.24 321.13 228.84 325.81 225.73 331.49C220.743 340.597 215.956 349.113 211.37 357.04C210.01 359.4 208.146 363.02 205.78 367.9C200.82 378.16 195.74 388.32 192.44 398.95C192.372 399.163 192.373 399.392 192.443 399.606C192.513 399.819 192.648 400.006 192.83 400.14C194.49 401.36 196.52 402.267 198.92 402.86C205.506 404.5 213.196 406.51 221.99 408.89C224.49 409.563 226.263 410.497 227.31 411.69C228.83 413.437 229.59 415.317 229.59 417.33C229.576 436.69 229.61 451.673 229.69 462.28C229.77 472.76 230.06 480.46 237.89 488.06C242.776 492.8 248.57 495.703 255.27 496.77C268.35 498.84 280.23 497.96 293.98 498.12C306.05 498.25 314.13 500.46 314.93 514.5C315.67 527.467 316.2 541.147 316.52 555.54C316.524 555.819 316.635 556.086 316.83 556.289C317.024 556.491 317.288 556.612 317.57 556.63C326.12 557.06 334.92 556.7 343.14 556.79C381.04 557.163 418.563 556.99 455.71 556.27C455.844 556.271 455.975 556.232 456.088 556.159C456.202 556.087 456.292 555.983 456.35 555.86Z" stroke="#F0A712" stroke-width="2"/>
<path d="M665.57 210.907C665.577 206.913 663.934 203.08 661.002 200.25C658.07 197.421 654.09 195.827 649.936 195.82C647.88 195.816 645.843 196.202 643.941 196.956C642.04 197.709 640.312 198.816 638.855 200.212C637.399 201.608 636.242 203.266 635.452 205.092C634.662 206.917 634.253 208.875 634.25 210.853C634.243 214.847 635.886 218.68 638.818 221.51C641.75 224.339 645.73 225.933 649.884 225.94C651.94 225.944 653.977 225.558 655.879 224.804C657.78 224.051 659.508 222.944 660.965 221.548C662.421 220.152 663.578 218.494 664.368 216.668C665.158 214.843 665.567 212.885 665.57 210.907Z" stroke="#F0A712" stroke-width="2"/>
<path d="M688.83 218.02C690.94 222.53 696.28 223.94 701 223.95C713.76 223.997 729.923 223.74 749.49 223.18C756.723 222.973 773.973 223.09 801.24 223.53C816.6 223.77 816.79 201.25 800.74 201.27C763.746 201.31 743.083 201.31 738.75 201.27C724.023 201.143 711.373 200.717 700.8 199.99C693.926 199.517 689.62 202.28 687.88 208.28C686.966 211.453 687.283 214.7 688.83 218.02Z" stroke="#F0A712" stroke-width="2"/>
<path d="M648.897 251.28C644.889 251.427 641.107 253.213 638.38 256.244C635.654 259.275 634.208 263.304 634.359 267.444C634.511 271.584 636.249 275.496 639.19 278.319C642.131 281.143 646.034 282.646 650.042 282.499C654.049 282.353 657.832 280.567 660.558 277.536C663.285 274.504 664.731 270.476 664.579 266.336C664.427 262.196 662.69 258.284 659.749 255.461C656.808 252.637 652.904 251.134 648.897 251.28Z" stroke="#F0A712" stroke-width="2"/>
<path d="M813.09 265.721C813.095 264.204 812.802 262.701 812.226 261.298C811.651 259.894 810.804 258.618 809.736 257.542C808.667 256.465 807.397 255.61 805.997 255.025C804.598 254.44 803.097 254.136 801.58 254.13L698.301 253.77C695.238 253.759 692.296 254.966 690.122 257.124C687.949 259.283 686.722 262.216 686.711 265.279L686.709 265.779C686.704 267.296 686.997 268.799 687.573 270.202C688.148 271.606 688.995 272.882 690.063 273.958C691.132 275.035 692.402 275.89 693.802 276.475C695.201 277.06 696.702 277.364 698.219 277.37L801.498 277.73C804.561 277.741 807.503 276.534 809.677 274.376C811.85 272.217 813.078 269.284 813.088 266.221L813.09 265.721Z" stroke="#F0A712" stroke-width="2"/>
<path d="M665.207 417.87C665.165 415.869 664.716 413.897 663.887 412.065C663.057 410.233 661.863 408.577 660.372 407.193C658.881 405.809 657.123 404.723 655.197 403.997C653.272 403.271 651.218 402.92 649.151 402.963C644.977 403.051 641.008 404.74 638.117 407.659C635.226 410.578 633.649 414.489 633.734 418.53C633.776 420.531 634.224 422.503 635.054 424.335C635.883 426.167 637.078 427.823 638.568 429.207C640.059 430.591 641.818 431.677 643.743 432.403C645.668 433.129 647.723 433.48 649.789 433.437C653.963 433.349 657.932 431.66 660.823 428.741C663.715 425.822 665.291 421.911 665.207 417.87Z" stroke="#F0A712" stroke-width="2"/>
<path d="M687.56 423.03C688.32 427.31 691.63 431.06 695.68 431.87C700.99 432.95 705.74 432.56 712.23 432.57C747.67 432.63 776.51 432.593 798.75 432.46C803.403 432.433 806.9 431.287 809.24 429.02C812.1 426.253 813.177 422.833 812.47 418.76C811.28 411.9 804.23 408.6 797.75 408.52C763.763 408.093 731.763 407.94 701.75 408.06C697.937 408.08 695.357 408.48 694.01 409.26C688.637 412.367 686.487 416.957 687.56 423.03Z" stroke="#F0A712" stroke-width="2"/>
<path d="M650.843 458.666C648.832 458.529 646.813 458.797 644.902 459.454C642.99 460.111 641.224 461.144 639.703 462.495C638.182 463.846 636.937 465.488 636.038 467.328C635.14 469.167 634.605 471.168 634.466 473.216C634.184 477.352 635.527 481.428 638.199 484.548C640.872 487.668 644.655 489.577 648.717 489.854C650.728 489.991 652.747 489.723 654.659 489.066C656.57 488.409 658.337 487.376 659.857 486.025C661.378 484.674 662.623 483.032 663.522 481.192C664.421 479.353 664.955 477.352 665.095 475.304C665.376 471.168 664.033 467.092 661.361 463.972C658.688 460.852 654.905 458.943 650.843 458.666Z" stroke="#F0A712" stroke-width="2"/>
<path d="M693.29 483.62C696.55 484.327 698.55 484.69 699.29 484.71C706.137 484.923 715.483 485.027 727.33 485.02C747.55 485 764.03 485.027 776.77 485.1C782.937 485.14 790.427 485.437 799.24 485.99C814.02 486.93 817.14 465.76 801.74 464.01C799.773 463.79 792.093 463.387 778.7 462.8C759.66 461.97 747.51 462.15 723.67 461.94C715.23 461.86 705.99 461.01 699.01 461.15C691.977 461.29 688.023 464.647 687.15 471.22C686.503 476.08 688.093 480 691.92 482.98C692.321 483.296 692.79 483.515 693.29 483.62Z" stroke="#F0A712" stroke-width="2"/>
<path d="M399.52 726.48C396.1 723.387 391.756 721.807 386.49 721.74C365.256 721.453 343.733 721.48 321.92 721.82C300.26 722.16 271.58 721.74 252.25 722.03C237.63 722.26 230.84 730.7 230.46 745.01C230.173 755.777 230.226 766.86 230.62 778.26C231.08 791.74 230.84 805.82 231.07 819.25C231.22 828.33 231.34 834.76 237.01 841.49C240.96 846.19 247.59 847.24 253.5 847.37C272.85 847.8 292.12 846.91 311.51 846.88C354.79 846.813 376.573 846.78 376.86 846.78C387.39 846.79 392.34 847.47 399.33 841.68C399.581 841.475 399.797 841.231 399.97 840.96C403.17 835.82 404.743 831.083 404.69 826.75C404.296 797.39 404.323 770.96 404.77 747.46C404.86 742.7 404.66 737.81 403.39 733.82C402.25 730.227 400.96 727.78 399.52 726.48Z" stroke="#F0A712" stroke-width="2"/>
<path d="M789.81 844.2C799.32 839.42 799.4 827.74 799.27 818.75C799.156 811.21 798.856 796.627 798.37 775C798.236 769.18 798.31 759.07 798.59 744.67C798.636 742.21 798.543 740.203 798.31 738.65C797.776 735.09 797.413 733.083 797.22 732.63C794.326 726.03 789.693 722.543 783.32 722.17C775.78 721.73 763.673 721.557 747 721.65C714.2 721.837 681.04 721.963 647.52 722.03C643.14 722.037 640 722.333 638.1 722.92C630.63 725.24 626.58 730.79 624.7 738.5C624.34 739.973 624.086 743.883 623.94 750.23C623.666 762.517 623.7 773.443 624.04 783.01C624.173 786.643 624.2 797.807 624.12 816.5C624.05 832.22 625.56 846.01 645 846.95C660.62 847.7 676.97 846.88 691.75 846.83C701.483 846.797 730.563 846.793 778.99 846.82C782.73 846.82 786.336 845.947 789.81 844.2Z" stroke="#F0A712" stroke-width="2"/>
<path d="M292.69 520.91C286.25 520.797 278.953 520.773 270.8 520.84C259.726 520.927 249.17 519.197 239.13 515.65C236.1 514.58 231.69 512.27 228.74 509.99C216.353 500.377 209.243 488.037 207.41 472.97C207.156 470.857 207.046 463.54 207.08 451.02C207.1 443.407 207.13 436.067 207.17 429C207.173 428.599 207.063 428.205 206.853 427.863C206.642 427.522 206.34 427.247 205.98 427.07C205.153 426.663 204.136 426.337 202.93 426.09C195.523 424.597 190.196 423.26 186.95 422.08C179.78 419.47 172.05 413.91 168.83 406.71C165.07 398.33 172.46 384.64 177.11 375.32C185.763 357.92 195.403 339.4 206.03 319.76C207.48 317.08 208.06 314.96 208.18 311.57C208.686 297.443 210.193 284.72 212.7 273.4C216.18 257.687 222.74 242.917 232.38 229.09C239.75 218.5 244.42 211.2 251.64 203.6C277.8 176.08 313.35 158.5 351.5 153.3C363.22 151.7 378.06 151.98 388.9 152.39C391.64 152.497 397.426 153.2 406.26 154.5C420.38 156.58 434.757 161.44 449.39 169.08C473.38 181.61 495.37 200.37 508.95 223.33C511.343 227.377 514.39 233.66 518.09 242.18C525.777 259.9 530.613 278.06 532.6 296.66C534.28 312.347 533.736 327.36 530.97 341.7C528.05 356.807 523.476 371.147 517.25 384.72C515.85 387.767 512.326 393.84 506.68 402.94C506.486 403.253 498.753 415.007 483.48 438.2C480.966 442.007 479.306 445.027 478.5 447.26C477.47 450.07 477.7 453.35 477.69 456.52C477.64 482.92 477.23 513.23 478.38 542.41C478.753 551.903 478.81 560.02 478.55 566.76C478.39 570.767 476.82 574.123 473.84 576.83C470.44 579.92 467.01 579.78 462.5 579.79C446.36 579.817 395.86 579.823 311 579.81C309.08 579.803 307.133 579.757 305.16 579.67C304.774 579.65 304.395 579.586 304.03 579.48C295.98 577.06 294.31 571.06 294.33 562.7C294.356 552.453 293.946 538.657 293.1 521.31C293.095 521.204 293.05 521.103 292.974 521.029C292.897 520.955 292.796 520.912 292.69 520.91ZM456.35 555.86C456.39 555.773 456.406 555.57 456.4 555.25C455.58 521.063 455.18 491.313 455.2 466C455.2 459.253 455.316 454.173 455.55 450.76C455.87 445.993 456.5 442.303 457.44 439.69C462.53 425.62 473.61 414.21 481.08 401.46C489.12 387.75 496.61 375.46 501.67 361.47C503.89 355.33 506.27 346.25 507.37 340.93C511.663 320.11 511.323 299.53 506.35 279.19C504.423 271.33 503.263 266.8 502.87 265.6C497.4 249 490.31 233.13 478.84 218.99C472.88 211.64 464.33 204.95 456.48 200.03C440.08 189.74 422.39 181.66 403.56 177.5C394.73 175.56 386.85 175.35 376.99 175.08C345.95 174.24 317.583 182.063 291.89 198.55C285.59 202.59 279.463 207.437 273.51 213.09C267.063 219.217 261.773 224.98 257.64 230.38C243.913 248.32 235.443 268.693 232.23 291.5C231.89 293.913 231.356 301.493 230.63 314.24C230.24 321.13 228.84 325.81 225.73 331.49C220.743 340.597 215.956 349.113 211.37 357.04C210.01 359.4 208.146 363.02 205.78 367.9C200.82 378.16 195.74 388.32 192.44 398.95C192.372 399.163 192.373 399.392 192.443 399.606C192.513 399.819 192.648 400.006 192.83 400.14C194.49 401.36 196.52 402.267 198.92 402.86C205.506 404.5 213.196 406.51 221.99 408.89C224.49 409.563 226.263 410.497 227.31 411.69C228.83 413.437 229.59 415.317 229.59 417.33C229.576 436.69 229.61 451.673 229.69 462.28C229.77 472.76 230.06 480.46 237.89 488.06C242.776 492.8 248.57 495.703 255.27 496.77C268.35 498.84 280.23 497.96 293.98 498.12C306.05 498.25 314.13 500.46 314.93 514.5C315.67 527.467 316.2 541.147 316.52 555.54C316.524 555.819 316.635 556.086 316.83 556.288C317.024 556.491 317.289 556.612 317.57 556.63C326.12 557.06 334.92 556.7 343.14 556.79C381.04 557.163 418.563 556.99 455.71 556.27C455.844 556.27 455.975 556.232 456.088 556.159C456.202 556.087 456.293 555.983 456.35 555.86Z" fill="#E08200"/>
<path d="M636.44 319.93C632.9 319.85 622.79 321.08 614.55 320C606.16 318.89 597.65 311.97 593.44 305.57C589.52 299.61 588.25 293.08 588.25 285.31C588.21 254.023 588.23 225.587 588.31 200C588.324 194.673 588.687 189.39 589.4 184.15C590.287 177.637 591.804 172.607 593.95 169.06C598.324 161.867 605 157.24 613.98 155.18C616.227 154.667 620.277 154.46 626.13 154.56C626.184 154.56 629.6 154.557 636.38 154.55C701.094 154.463 761.114 154.467 816.44 154.56C824.7 154.573 830.337 155.05 833.35 155.99C848.24 160.65 855.63 175.15 855.63 190.27C855.63 219.463 855.644 252.21 855.67 288.51C855.68 302.57 847.17 315.74 833.11 319.11C828.184 320.29 823.647 320.877 819.5 320.87C778.26 320.75 738.177 320.737 699.25 320.83C694.83 320.843 691.414 320.953 689 321.16C687.487 321.293 686.07 321.907 684.75 323C672.65 333.047 664.451 340.06 660.15 344.04C655.817 348.053 652.744 350.26 650.93 350.66C647.197 351.48 643.77 350.243 640.65 346.95C638.94 345.15 638.24 343.55 638.2 340.81C638.034 330.577 637.904 324.067 637.81 321.28C637.8 320.923 637.652 320.584 637.397 320.333C637.142 320.082 636.8 319.937 636.44 319.93ZM665.57 210.907C665.577 206.913 663.934 203.08 661.002 200.25C658.07 197.421 654.09 195.827 649.937 195.82C647.88 195.816 645.843 196.202 643.942 196.956C642.041 197.709 640.312 198.816 638.856 200.212C637.399 201.608 636.243 203.266 635.453 205.092C634.662 206.917 634.254 208.875 634.25 210.853C634.243 214.847 635.887 218.68 638.819 221.51C641.75 224.339 645.731 225.933 649.884 225.94C651.941 225.944 653.978 225.558 655.879 224.804C657.78 224.051 659.509 222.944 660.965 221.548C662.422 220.152 663.578 218.494 664.368 216.668C665.159 214.843 665.567 212.885 665.57 210.907ZM688.83 218.02C690.94 222.53 696.28 223.94 701 223.95C713.76 223.997 729.924 223.74 749.49 223.18C756.724 222.973 773.974 223.09 801.24 223.53C816.6 223.77 816.79 201.25 800.74 201.27C763.747 201.31 743.084 201.31 738.75 201.27C724.024 201.143 711.374 200.717 700.8 199.99C693.927 199.517 689.62 202.28 687.88 208.28C686.967 211.453 687.284 214.7 688.83 218.02ZM648.898 251.281C644.891 251.427 641.108 253.213 638.381 256.244C635.655 259.276 634.209 263.304 634.361 267.444C634.513 271.584 636.25 275.496 639.191 278.319C642.132 281.143 646.036 282.646 650.043 282.5C654.05 282.353 657.833 280.567 660.559 277.536C663.286 274.505 664.732 270.476 664.58 266.336C664.428 262.196 662.691 258.284 659.75 255.461C656.809 252.637 652.905 251.134 648.898 251.281ZM813.091 265.721C813.096 264.204 812.803 262.701 812.227 261.298C811.652 259.894 810.805 258.618 809.737 257.542C808.668 256.465 807.398 255.61 805.998 255.025C804.599 254.44 803.098 254.136 801.581 254.13L698.302 253.77C695.239 253.759 692.297 254.966 690.123 257.124C687.95 259.283 686.722 262.216 686.712 265.279L686.71 265.779C686.705 267.296 686.998 268.799 687.574 270.202C688.149 271.606 688.996 272.882 690.064 273.958C691.133 275.035 692.403 275.89 693.803 276.475C695.202 277.06 696.703 277.364 698.22 277.37L801.499 277.73C804.562 277.741 807.504 276.534 809.678 274.376C811.851 272.217 813.078 269.284 813.089 266.221L813.091 265.721Z" fill="#FFCC23"/>
<path d="M456.35 555.86C456.292 555.983 456.202 556.087 456.088 556.159C455.975 556.232 455.844 556.271 455.71 556.27C418.563 556.99 381.04 557.163 343.14 556.79C334.92 556.7 326.12 557.06 317.57 556.63C317.288 556.612 317.024 556.491 316.83 556.289C316.635 556.086 316.524 555.819 316.52 555.54C316.2 541.147 315.67 527.467 314.93 514.5C314.13 500.46 306.05 498.25 293.98 498.12C280.23 497.96 268.35 498.84 255.27 496.77C248.57 495.703 242.776 492.8 237.89 488.06C230.06 480.46 229.77 472.76 229.69 462.28C229.61 451.673 229.576 436.69 229.59 417.33C229.59 415.317 228.83 413.437 227.31 411.69C226.263 410.497 224.49 409.563 221.99 408.89C213.196 406.51 205.506 404.5 198.92 402.86C196.52 402.267 194.49 401.36 192.83 400.14C192.648 400.006 192.513 399.819 192.443 399.606C192.373 399.392 192.372 399.163 192.44 398.95C195.74 388.32 200.82 378.16 205.78 367.9C208.146 363.02 210.01 359.4 211.37 357.04C215.956 349.113 220.743 340.597 225.73 331.49C228.84 325.81 230.24 321.13 230.63 314.24C231.356 301.493 231.89 293.913 232.23 291.5C235.443 268.693 243.913 248.32 257.64 230.38C261.773 224.98 267.063 219.217 273.51 213.09C279.463 207.437 285.59 202.59 291.89 198.55C317.583 182.063 345.95 174.24 376.99 175.08C386.85 175.35 394.73 175.56 403.56 177.5C422.39 181.66 440.08 189.74 456.48 200.03C464.33 204.95 472.88 211.64 478.84 218.99C490.31 233.13 497.4 249 502.87 265.6C503.263 266.8 504.423 271.33 506.35 279.19C511.323 299.53 511.663 320.11 507.37 340.93C506.27 346.25 503.89 355.33 501.67 361.47C496.61 375.46 489.12 387.75 481.08 401.46C473.61 414.21 462.53 425.62 457.44 439.69C456.5 442.303 455.87 445.993 455.55 450.76C455.316 454.173 455.2 459.253 455.2 466C455.18 491.313 455.58 521.063 456.4 555.25C456.406 555.57 456.39 555.773 456.35 555.86Z" fill="#FFCC23"/>
<path d="M649.884 225.94C658.533 225.955 665.556 219.225 665.57 210.907C665.585 202.59 658.585 195.835 649.936 195.82C641.288 195.805 634.265 202.535 634.25 210.853C634.236 219.17 641.235 225.925 649.884 225.94Z" fill="#E08200"/>
<path d="M688.83 218.02C687.283 214.7 686.966 211.453 687.88 208.28C689.62 202.28 693.926 199.517 700.8 199.99C711.373 200.717 724.023 201.143 738.75 201.27C743.083 201.31 763.746 201.31 800.74 201.27C816.79 201.25 816.6 223.77 801.24 223.53C773.973 223.09 756.723 222.973 749.49 223.18C729.923 223.74 713.76 223.997 701 223.95C696.28 223.94 690.94 222.53 688.83 218.02Z" fill="#E08200"/>
<path d="M664.58 266.336C664.264 257.715 657.243 250.975 648.898 251.281C640.553 251.587 634.044 258.823 634.36 267.444C634.676 276.065 641.698 282.806 650.042 282.5C658.387 282.194 664.896 274.957 664.58 266.336Z" fill="#E08200"/>
<path d="M801.581 254.13L698.302 253.77C691.923 253.748 686.734 258.901 686.712 265.279L686.71 265.779C686.688 272.158 691.841 277.347 698.22 277.37L801.499 277.73C807.878 277.752 813.067 272.599 813.089 266.221L813.091 265.721C813.113 259.342 807.96 254.153 801.581 254.13Z" fill="#E08200"/>
<path d="M636.89 529.79C636.858 529.436 636.693 529.107 636.43 528.869C636.166 528.632 635.824 528.504 635.47 528.51C627.144 528.637 621.164 528.683 617.53 528.65C614.75 528.62 611.29 527.8 608.44 526.47C598.12 521.663 591.647 513.587 589.02 502.24C588.494 499.967 588.234 496.47 588.24 491.75C588.254 487.597 588.267 456.933 588.28 399.76C588.28 397.287 588.7 393.907 589.54 389.62C591.1 381.72 596.85 374.91 602.75 370.72C607.31 367.473 612.564 365.853 618.51 365.86C691.89 365.933 759.654 365.923 821.8 365.83C833.854 365.81 842.964 370.75 849.13 380.65C854.07 388.59 854.7 394.5 854.72 404.11C854.747 413.437 854.744 437.8 854.71 477.2C854.71 485.87 854.77 494.31 853.53 502.45C851.72 514.36 842.17 525.21 830.33 528.1C827.99 528.673 821.634 528.923 811.26 528.85C772.594 528.557 746.09 528.613 731.75 529.02C711.43 529.6 699.354 529.783 695.52 529.57C692.1 529.38 687.82 527.69 685.03 530.29C682.22 532.9 677.22 537.48 673.39 541.96C668.537 547.64 662.72 553.677 655.94 560.07C653.3 562.557 651.26 564.007 649.82 564.42C643.45 566.23 638.16 562.26 636.51 555.98C635.77 553.18 636.34 547.27 636.78 542.36C637.194 537.827 637.23 533.637 636.89 529.79ZM665.207 417.87C665.165 415.87 664.716 413.897 663.887 412.065C663.057 410.233 661.863 408.577 660.372 407.193C658.881 405.809 657.123 404.723 655.198 403.997C653.272 403.271 651.218 402.92 649.151 402.963C644.978 403.051 641.009 404.74 638.117 407.659C635.226 410.578 633.649 414.489 633.734 418.53C633.776 420.531 634.224 422.503 635.054 424.335C635.883 426.167 637.078 427.823 638.569 429.207C640.06 430.591 641.818 431.677 643.743 432.403C645.668 433.129 647.723 433.48 649.79 433.437C653.963 433.349 657.932 431.66 660.823 428.741C663.715 425.822 665.291 421.911 665.207 417.87ZM687.56 423.03C688.32 427.31 691.63 431.06 695.68 431.87C700.99 432.95 705.74 432.56 712.23 432.57C747.67 432.63 776.51 432.593 798.75 432.46C803.404 432.433 806.9 431.287 809.24 429.02C812.1 426.253 813.177 422.833 812.47 418.76C811.28 411.9 804.23 408.6 797.75 408.52C763.764 408.093 731.764 407.94 701.75 408.06C697.937 408.08 695.357 408.48 694.01 409.26C688.637 412.367 686.487 416.957 687.56 423.03ZM650.843 458.666C648.832 458.529 646.813 458.797 644.902 459.454C642.99 460.111 641.224 461.144 639.703 462.495C638.182 463.846 636.937 465.489 636.038 467.328C635.14 469.167 634.605 471.168 634.466 473.216C634.184 477.352 635.527 481.428 638.2 484.548C640.872 487.668 644.656 489.577 648.717 489.854C650.728 489.991 652.747 489.723 654.659 489.066C656.57 488.409 658.337 487.376 659.858 486.025C661.378 484.674 662.624 483.032 663.522 481.192C664.421 479.353 664.955 477.352 665.095 475.304C665.377 471.168 664.034 467.092 661.361 463.972C658.688 460.852 654.905 458.943 650.843 458.666ZM693.29 483.62C696.55 484.327 698.55 484.69 699.29 484.71C706.137 484.923 715.484 485.027 727.33 485.02C747.55 485 764.03 485.027 776.77 485.1C782.937 485.14 790.427 485.437 799.24 485.99C814.02 486.93 817.14 465.76 801.74 464.01C799.774 463.79 792.094 463.387 778.7 462.8C759.66 461.97 747.51 462.15 723.67 461.94C715.23 461.86 705.99 461.01 699.01 461.15C691.977 461.29 688.024 464.647 687.15 471.22C686.504 476.08 688.094 480 691.92 482.98C692.322 483.296 692.791 483.515 693.29 483.62Z" fill="#FFCC23"/>
<path d="M649.789 433.437C658.48 433.255 665.383 426.285 665.206 417.87C665.03 409.455 657.842 402.781 649.151 402.963C640.46 403.145 633.557 410.115 633.733 418.53C633.909 426.945 641.098 433.619 649.789 433.437Z" fill="#E08200"/>
<path d="M687.56 423.03C686.487 416.957 688.637 412.367 694.01 409.26C695.357 408.48 697.937 408.08 701.75 408.06C731.763 407.94 763.763 408.093 797.75 408.52C804.23 408.6 811.28 411.9 812.47 418.76C813.177 422.833 812.1 426.253 809.24 429.02C806.9 431.287 803.403 432.433 798.75 432.46C776.51 432.593 747.67 432.63 712.23 432.57C705.74 432.56 700.99 432.95 695.68 431.87C691.63 431.06 688.32 427.31 687.56 423.03Z" fill="#E08200"/>
<path d="M665.094 475.304C665.681 466.692 659.301 459.243 650.843 458.666C642.385 458.09 635.053 464.604 634.465 473.216C633.878 481.828 640.259 489.277 648.717 489.854C657.175 490.43 664.507 483.916 665.094 475.304Z" fill="#E08200"/>
<path d="M691.92 482.98C688.093 480 686.503 476.08 687.15 471.22C688.023 464.647 691.977 461.29 699.01 461.15C705.99 461.01 715.23 461.86 723.67 461.94C747.51 462.15 759.66 461.97 778.7 462.8C792.093 463.387 799.773 463.79 801.74 464.01C817.14 465.76 814.02 486.93 799.24 485.99C790.427 485.437 782.937 485.14 776.77 485.1C764.03 485.027 747.55 485 727.33 485.02C715.483 485.027 706.137 484.923 699.29 484.71C698.55 484.69 696.55 484.327 693.29 483.62C692.79 483.515 692.321 483.296 691.92 482.98Z" fill="#E08200"/>
<path d="M527.68 698.47C534.266 692.377 540.153 687.177 545.34 682.87C552.23 677.16 561.52 680.98 562.62 689.88C563.34 695.82 560.32 698.43 555.96 702.87C546.44 712.54 536.74 721.14 528.18 729.55C524.573 733.097 521.703 735.19 519.57 735.83C515.783 736.963 512.056 736.027 508.39 733.02C496.85 723.54 484.966 712.397 472.74 699.59C469.94 696.657 468.733 693.537 469.12 690.23C469.67 685.49 472.94 681.89 477.4 680.63C482.08 679.32 485.27 681.63 488.76 685.4C492.753 689.7 497.466 693.873 502.9 697.92C503.233 698.167 503.55 698.173 503.85 697.94C504.116 697.733 504.25 697.423 504.25 697.01C504.23 660.363 504.223 641.873 504.23 641.54C504.235 641.406 504.213 641.273 504.166 641.147C504.119 641.022 504.047 640.907 503.955 640.81C503.862 640.713 503.752 640.636 503.629 640.583C503.506 640.529 503.374 640.501 503.24 640.5C492.32 640.41 472.5 639.65 456.59 639.65C414.103 639.663 377.906 639.66 348 639.64C341.55 639.64 334 643.15 331.31 649.33C330.75 650.623 330.476 653.11 330.49 656.79C330.53 665.917 330.606 679.717 330.72 698.19C330.722 698.491 330.844 698.778 331.057 698.99C331.271 699.201 331.559 699.32 331.86 699.32C351.646 699.187 369.69 699.187 385.99 699.32C395.05 699.39 407.61 702.34 414.35 709.53C421.67 717.33 427.44 728.06 427.64 738.95C427.83 749.47 426.7 759.58 426.94 770.33C427.106 777.683 427.32 791.98 427.58 813.22C427.726 825.84 427.423 833.66 426.67 836.68C424.67 844.667 420.723 851.547 414.83 857.32C408.88 863.14 403.22 865.9 394.76 867.74C388.413 869.113 380.666 869.783 371.52 869.75C336.02 869.643 298.18 869.637 258 869.73C253.02 869.743 247.966 869.397 242.84 868.69C226.14 866.39 213.64 853.18 209.77 837.5C208.26 831.36 208.4 823.99 208.39 817.05C208.363 792.823 208.326 771.713 208.28 753.72C208.26 743.7 208.46 737.393 208.88 734.8C211.72 717.29 223.48 704.75 240.67 700.43C244.01 699.597 248.17 699.187 253.15 699.2C262.37 699.22 270.21 699.2 280.94 698.64C289.22 698.213 297.49 698.09 305.75 698.27C306.135 698.278 306.508 698.133 306.787 697.867C307.067 697.601 307.229 697.235 307.24 696.85C307.806 676.417 308.096 662.89 308.11 656.27C308.116 651.07 308.666 646.823 309.76 643.53C312.706 634.657 318.173 627.877 326.16 623.19C331.826 619.87 337.526 617.993 343.26 617.56C345.4 617.393 348.646 617.32 353 617.34C385.64 617.493 434.64 617.497 500 617.35C501.413 617.35 502.586 617.3 503.52 617.2C503.69 617.183 503.848 617.103 503.964 616.976C504.08 616.849 504.146 616.683 504.15 616.51C504.363 606.41 504.203 596.5 503.67 586.78C503.423 582.36 503.61 578.687 504.23 575.76C505.81 568.28 514.67 565.16 521.21 568.85C524.45 570.683 526.223 573.66 526.53 577.78C527.39 589.173 527.623 601.17 527.23 613.77C527.17 615.57 527.916 616.493 529.47 616.54C535.66 616.72 542.83 617.17 549.01 617.22C573.91 617.407 607.906 617.44 651 617.32C674.66 617.253 688.076 617.247 691.25 617.3C706.18 617.55 718.95 631.58 722.82 644.82C724.16 649.407 724.773 656.91 724.66 667.33C724.646 668.41 724.646 678.273 724.66 696.92C724.66 697.116 724.698 697.31 724.773 697.491C724.849 697.672 724.959 697.836 725.097 697.974C725.236 698.111 725.4 698.22 725.581 698.293C725.762 698.366 725.955 698.403 726.15 698.4C745.036 698.147 762.916 698.303 779.79 698.87C805.94 699.75 823.09 719.74 821.42 745.5C820.686 756.813 820.43 767.563 820.65 777.75C821.01 794.257 821.146 810.423 821.06 826.25C821.02 833.24 819.98 839.4 816.91 845.74C808.54 863.03 791.37 869.77 772.28 869.72C752.906 869.667 711.146 869.653 647 869.68C627.61 869.68 608.85 859.48 603.33 839.53C602.596 836.883 602.243 832.707 602.27 827C602.41 798.97 601.94 771.3 602.2 740.41C602.246 734.83 602.8 730.447 603.86 727.26C609.3 710.91 621.46 700.03 639.04 699.35C643.226 699.183 650.41 699.12 660.59 699.16C665.49 699.173 671.426 698.987 678.4 698.6C686.02 698.18 693.21 698.7 699.8 697.92C700.175 697.876 700.522 697.696 700.774 697.414C701.027 697.133 701.167 696.768 701.17 696.39C701.34 683.62 701.33 675.79 701.95 665.73C702.5 656.76 702.59 649.85 696.73 643.53C694.21 640.82 689.22 639.84 684.72 639.7C669.84 639.253 661.77 639.043 660.51 639.07C643.343 639.47 628.896 639.67 617.17 639.67C583.59 639.67 558.72 640.38 527.79 640.1C527.639 640.099 527.49 640.127 527.35 640.184C527.211 640.241 527.084 640.324 526.977 640.43C526.87 640.536 526.785 640.662 526.727 640.801C526.669 640.94 526.64 641.089 526.64 641.24V698.01C526.639 698.131 526.673 698.249 526.739 698.351C526.805 698.452 526.898 698.532 527.009 698.581C527.119 698.63 527.242 698.645 527.361 698.626C527.48 698.606 527.591 698.552 527.68 698.47ZM399.52 726.48C396.1 723.387 391.756 721.807 386.49 721.74C365.256 721.453 343.733 721.48 321.92 721.82C300.26 722.16 271.58 721.74 252.25 722.03C237.63 722.26 230.84 730.7 230.46 745.01C230.173 755.777 230.226 766.86 230.62 778.26C231.08 791.74 230.84 805.82 231.07 819.25C231.22 828.33 231.34 834.76 237.01 841.49C240.96 846.19 247.59 847.24 253.5 847.37C272.85 847.8 292.12 846.91 311.51 846.88C354.79 846.813 376.573 846.78 376.86 846.78C387.39 846.79 392.34 847.47 399.33 841.68C399.581 841.475 399.798 841.232 399.97 840.96C403.17 835.82 404.743 831.083 404.69 826.75C404.296 797.39 404.323 770.96 404.77 747.46C404.86 742.7 404.66 737.81 403.39 733.82C402.25 730.227 400.96 727.78 399.52 726.48ZM789.81 844.2C799.32 839.42 799.4 827.74 799.27 818.75C799.156 811.21 798.856 796.627 798.37 775C798.236 769.18 798.31 759.07 798.59 744.67C798.636 742.21 798.543 740.203 798.31 738.65C797.776 735.09 797.413 733.083 797.22 732.63C794.326 726.03 789.693 722.543 783.32 722.17C775.78 721.73 763.673 721.557 747 721.65C714.2 721.837 681.04 721.963 647.52 722.03C643.14 722.037 640 722.333 638.1 722.92C630.63 725.24 626.58 730.79 624.7 738.5C624.34 739.973 624.086 743.883 623.94 750.23C623.666 762.517 623.7 773.443 624.04 783.01C624.173 786.643 624.2 797.807 624.12 816.5C624.05 832.22 625.56 846.01 645 846.95C660.62 847.7 676.97 846.88 691.75 846.83C701.483 846.797 730.563 846.793 778.99 846.82C782.73 846.82 786.336 845.947 789.81 844.2Z" fill="#E08200"/>
<path d="M399.52 726.48C400.96 727.78 402.25 730.227 403.39 733.82C404.66 737.81 404.86 742.7 404.77 747.46C404.323 770.96 404.296 797.39 404.69 826.75C404.743 831.083 403.17 835.82 399.97 840.96C399.797 841.231 399.581 841.475 399.33 841.68C392.34 847.47 387.39 846.79 376.86 846.78C376.573 846.78 354.79 846.813 311.51 846.88C292.12 846.91 272.85 847.8 253.5 847.37C247.59 847.24 240.96 846.19 237.01 841.49C231.34 834.76 231.22 828.33 231.07 819.25C230.84 805.82 231.08 791.74 230.62 778.26C230.226 766.86 230.173 755.777 230.46 745.01C230.84 730.7 237.63 722.26 252.25 722.03C271.58 721.74 300.26 722.16 321.92 721.82C343.733 721.48 365.256 721.453 386.49 721.74C391.756 721.807 396.1 723.387 399.52 726.48Z" fill="#FFCC23"/>
<path d="M789.81 844.2C786.336 845.947 782.73 846.82 778.99 846.82C730.563 846.793 701.483 846.797 691.75 846.83C676.97 846.88 660.62 847.7 645 846.95C625.56 846.01 624.05 832.22 624.12 816.5C624.2 797.807 624.173 786.643 624.04 783.01C623.7 773.443 623.666 762.517 623.94 750.23C624.086 743.883 624.34 739.973 624.7 738.5C626.58 730.79 630.63 725.24 638.1 722.92C640 722.333 643.14 722.037 647.52 722.03C681.04 721.963 714.2 721.837 747 721.65C763.673 721.557 775.78 721.73 783.32 722.17C789.693 722.543 794.326 726.03 797.22 732.63C797.413 733.083 797.776 735.09 798.31 738.65C798.543 740.203 798.636 742.21 798.59 744.67C798.31 759.07 798.236 769.18 798.37 775C798.856 796.627 799.156 811.21 799.27 818.75C799.4 827.74 799.32 839.42 789.81 844.2Z" fill="#FFCC23"/>
</svg>
