<svg width="123" height="99" viewBox="0 0 123 99" fill="none" xmlns="http://www.w3.org/2000/svg">
<mask id="mask0_2203_4313" style="mask-type:alpha" maskUnits="userSpaceOnUse" x="0" y="0" width="123" height="99">
<rect y="0.5" width="123" height="98.2349" rx="16" fill="#FED730"/>
</mask>
<g mask="url(#mask0_2203_4313)">
<path fill-rule="evenodd" clip-rule="evenodd" d="M100.904 -56.0308C113.501 -56.9724 129.052 -63.2218 137.824 -54.1322C146.907 -44.7216 138.479 -28.9263 139.636 -15.8988C140.445 -6.79731 144.506 1.46161 143.573 10.5512C142.428 21.702 140.93 33.2661 133.707 41.8376C125.321 51.7886 113.837 59.7423 100.904 61.1851C87.2415 62.7094 72.429 59.1138 62.3149 49.8024C52.6082 40.8661 52.3723 26.2999 49.1216 13.5125C46.1222 1.7136 40.6336 -10.1001 44.122 -21.7638C47.6471 -33.5504 57.2544 -42.5407 67.7871 -48.897C77.6978 -54.878 89.3608 -55.168 100.904 -56.0308Z" fill="#FED730"/>
</g>
</svg>
