<svg width="1024" height="1024" viewBox="0 0 1024 1024" fill="none" xmlns="http://www.w3.org/2000/svg">
<path d="M833.47 840.64C832.163 837.193 831.43 834.723 831.27 833.23C830.75 828.25 830.89 820.08 830.64 813.6C829.646 787.967 827.35 762.013 823.75 735.74C821.44 718.88 816.29 703.81 811.98 688.32C810.18 681.833 809.123 676.723 808.81 672.99C807.31 654.843 807.403 638.35 809.09 623.51C811.15 605.43 814.213 582.623 818.28 555.09C818.76 551.85 819.47 549.64 819.7 546.88C819.86 545.04 820.183 542.977 820.67 540.69C823.803 525.91 825.806 516.893 826.68 513.64C827.74 509.72 828.59 506.917 829.23 505.23C833.35 494.35 850.86 495.42 851.34 507.83C852.353 533.897 854.11 556.78 856.61 576.48C856.876 578.627 857.37 581.53 858.09 585.19C860.863 599.23 864.963 618.067 870.39 641.7C871.576 646.9 872.526 651.32 873.24 654.96C873.3 655.287 874.176 659.723 875.87 668.27C878.256 680.283 879.883 687.877 880.75 691.05C882.34 696.87 883.84 704.87 885.98 711.65C892.073 730.91 896.43 750.33 899.05 769.91C900.29 779.17 898.46 788.05 896.34 797.8C895.253 802.76 895.343 808.963 896.61 816.41C897.003 818.703 898.22 820.31 900.26 821.23C900.564 821.362 900.886 821.437 901.21 821.45C904.243 821.557 906.516 820.527 908.03 818.36C908.89 817.12 909.37 814.633 909.47 810.9C910.05 789.18 909.92 754.54 910.04 689.99C910.066 676.59 909.246 664.377 907.58 653.35C906.6 646.837 904.813 638.473 902.22 628.26C898.36 613.02 895.74 602.08 894.7 589.27C892.226 558.783 890.746 537.693 890.26 526C889.86 516.28 889.363 507.03 888.77 498.25C887.1 473.61 877.74 447.8 856.29 433.56C854.683 432.493 853.17 431.653 851.75 431.04C847.89 429.38 844.48 427.63 839.8 425.91C833.773 423.703 829.686 422.157 827.54 421.27C824.35 419.96 821.19 419.3 817.88 417.94C816.066 417.193 813.623 416.39 810.55 415.53C798.836 412.243 787.79 408.353 777.41 403.86C764.87 398.43 758.14 393.11 753.03 379.92C751.92 377.04 751.85 373.94 750.95 370.83C750.296 368.577 749.036 367.723 747.17 368.27C737.98 370.97 728.92 370.98 719.17 370.16C715.93 369.887 712.633 369.337 709.28 368.51C707.293 368.023 704.003 367.42 699.41 366.7C696.98 366.31 694.6 366.63 694.06 369.1C692.913 374.347 692.193 377.363 691.9 378.15C686.73 391.99 674.41 401.75 660.82 406.81C646.926 411.99 631.733 417.32 615.24 422.8C613.446 423.393 611.59 423.967 609.67 424.52C603.13 426.4 597.07 429.56 591.49 434C578.756 444.12 569.716 456.403 564.37 470.85C561.936 477.437 560.52 481.79 560.12 483.91C559.913 485.003 557.733 496.96 553.58 519.78C553.126 522.293 551.993 525.153 550.18 528.36" stroke="#FFC624" stroke-width="2"/>
<path d="M731.539 840.41C731.633 839.277 731.769 838.127 731.949 836.96C732.163 835.6 732.269 834.453 732.269 833.52C732.196 819.407 732.173 804.817 732.199 789.75C732.219 779.85 717.579 777.12 712.959 784.62C712.119 785.987 711.663 788.98 711.589 793.6C711.383 806.327 711.256 818.46 711.209 830C711.189 834.087 711.773 837.657 712.959 840.71" stroke="#FFC624" stroke-width="2"/>
<path d="M612.498 840.72C613.472 837.353 613.945 834.863 613.918 833.25C613.565 813.043 613.688 792.76 614.288 772.4C614.648 760.07 616.168 745.81 616.688 733.7C616.702 733.415 616.678 733.129 616.618 732.85C615.218 726.76 608.618 725.37 603.148 725.91" stroke="#FFC624" stroke-width="2"/>
<path d="M603.148 725.91L606.078 725.67C606.407 725.644 606.713 725.498 606.938 725.26L610.758 721.09C610.858 720.977 610.949 720.853 611.028 720.72C614.522 714.8 615.345 708.573 613.498 702.04" stroke="#FFE875" stroke-width="2"/>
<path d="M613.499 702.04C615.399 700.887 617.529 699.17 619.889 696.89C634.796 682.477 647.479 669.993 657.939 659.44C683.292 633.867 701.172 615.99 711.579 605.81C714.619 602.837 716.206 599.667 716.339 596.3C716.489 592.47 716.309 590.07 713.899 587.29C708.669 581.25 701.829 575.36 695.169 568.96C682.549 556.807 675.749 550.25 674.769 549.29C656.629 531.52 637.529 515.35 619.409 498.69C614.329 494.03 608.809 490.05 601.639 493.22C595.029 496.14 592.909 502.39 592.909 508.76C592.909 516.127 592.939 525.793 592.999 537.76C593.032 543.44 592.862 546.85 592.489 547.99C591.516 550.977 590.089 551.993 588.209 551.04" stroke="#FFC624" stroke-width="2"/>
<path d="M613.499 702.04L602.939 703.06" stroke="#FFCF5E" stroke-width="2"/>
<path d="M603.149 725.91L598.869 726.57" stroke="#FFCF5E" stroke-width="2"/>
<path d="M478.98 518.31C478.513 518.017 478.23 517.78 478.13 517.6C474.98 511.99 472.31 508.68 465.96 508.8C463.84 508.833 462.093 509.257 460.72 510.07C458.793 511.197 457.3 512.253 456.24 513.24C434.093 533.907 407.927 557.99 377.74 585.49C375.153 587.843 373.197 590.12 371.87 592.32C366.21 601.71 376.3 609.44 382.22 615.02C405.327 636.773 425.367 655.977 442.34 672.63C444.8 675.04 445.91 676 446.55 678.96C448.55 688.133 450.467 697.757 452.3 707.83C456.43 730.51 458.16 738.44 462.79 761.48C463.117 763.1 463.633 765.25 464.34 767.93C464.493 768.487 464.725 769.023 465.03 769.52L467.53 773.52" stroke="#FFCF5E" stroke-width="2"/>
<path d="M490.219 500.16C488.279 497.28 488.056 494.337 489.549 491.33C497.176 476.03 504.229 459.323 510.709 441.21C521.069 412.27 523.589 379.89 516.309 349.79C513.136 336.69 509.046 324.667 504.039 313.72C485.169 272.47 449.839 240.4 407.159 225.12C368.413 211.253 328.823 209.19 288.389 218.93C261.196 225.483 237.053 237.077 215.959 253.71C198.773 267.263 185.023 284.113 174.709 304.26C171.049 311.4 167.449 319.93 163.909 329.85C160.803 338.55 158.276 347.45 156.329 356.55C153.863 368.103 153.079 380.047 153.979 392.38C154.219 395.66 154.646 398.607 155.259 401.22C157.129 409.1 158.179 416.41 158.329 425.75C158.449 433.89 154.409 442.49 150.859 449.62C141.639 468.13 129.349 488.42 121.259 503.49C119.366 507.01 118.326 509.717 118.139 511.61C117.553 517.597 119.883 521.01 125.129 521.85C130.436 522.71 135.643 524.03 140.749 525.81C147.609 528.2 151.439 534 150.719 540.77C149.513 552.183 148.999 559.003 149.179 561.23C149.449 564.54 149.439 565.76 152.259 568C156.559 571.42 159.449 576.4 156.849 581.88C155.279 585.2 151.899 591.03 154.869 593.17C159.849 596.76 161.629 601.6 163.679 607.63C167.059 617.6 166.089 627.27 164.179 637.75C163.919 639.19 163.836 641.78 163.929 645.52C164.149 654.35 171.189 659.6 179.369 660.6C183.349 661.087 187.226 661.277 190.999 661.17C211.079 660.59 230.619 659.46 250.169 655.29C267.549 651.59 283.269 647.4 298.799 639.62C311.549 633.23 320.489 653.95 311.159 661.7C310.499 662.247 307.823 663.483 303.129 665.41C292.329 669.84 281.329 672.71 269.099 675.59C268.714 675.682 268.371 675.899 268.125 676.207C267.878 676.515 267.742 676.896 267.739 677.29C267.649 686.98 272.269 702.64 273.829 716.81C273.936 717.783 274.426 721.707 275.299 728.58C276.353 736.827 277.106 745.8 277.559 755.5C277.819 761.18 277.693 765.143 277.179 767.39C276.966 768.31 276.233 770.347 274.979 773.5" stroke="#FFCF5E" stroke-width="2"/>
<path d="M541.66 664.26C541.82 706.787 541.854 749.283 541.76 791.75C541.74 800.79 541.79 807.793 541.91 812.76C541.99 815.85 543.08 820.68 546.74 821.25C550.79 821.89 551.98 814.05 552 811.24C552.06 803.47 550.81 797.55 549.35 791.7C547.58 784.65 547.65 777.76 549.1 770.77C552.567 754.037 556.003 738.693 559.41 724.74C559.63 723.82 559.86 722.86 560.1 721.86C561.733 714.98 563.04 710.093 564.02 707.2C564.159 706.789 564.237 706.361 564.25 705.93C564.297 704.363 564.617 703.023 565.21 701.91C565.382 701.579 565.605 701.278 565.87 701.02C568.59 698.347 570.304 695.983 571.01 693.93C572.477 689.657 573.987 685.343 575.54 680.99" stroke="#FFC624" stroke-width="2"/>
<path d="M779.709 257.58C779.309 251.56 778.059 246.33 776.169 239.54C775.409 236.807 774.359 234.323 773.019 232.09C767.889 223.56 761.969 216.88 753.289 212.44C743.059 207.22 732.359 205.5 720.779 205.29C703.866 204.99 690.259 210.953 679.959 223.18C673.989 230.26 668.969 240.72 667.689 250.81C666.149 262.97 666.539 271.92 666.449 287.85C666.429 291.423 666.556 294.68 666.829 297.62C667.223 301.813 667.786 305.027 668.519 307.26C673.039 321.013 681.583 331.887 694.149 339.88C697.323 341.893 700.896 343.48 704.869 344.64C712.569 346.887 719.763 348.133 726.449 348.38C733.939 348.65 739.379 346.8 746.109 343.36C756.189 338.207 764.356 331.007 770.609 321.76C775.359 314.74 779.019 305.29 779.609 297.67C780.609 284.837 780.643 271.473 779.709 257.58Z" stroke="#FFC624" stroke-width="2"/>
<path d="M390.42 508.86C389.987 506.82 389.447 504.7 388.8 502.5C388.053 500 387.693 496.99 387.72 493.47" stroke="#FFE875" stroke-width="2"/>
<path d="M387.72 493.47C394.933 491.57 402.086 489.717 409.18 487.91C416.846 485.957 425.023 482.133 433.71 476.44C445.37 468.81 452.47 459.1 458.81 447.12C459.557 445.718 460.656 444.536 462 443.69C474.53 435.81 484.96 426.06 489.7 411.66C495.78 393.15 495 370.53 484.31 354.4C482.27 351.327 480.416 348.68 478.75 346.46C477.956 345.401 477.566 344.096 477.65 342.78C478.53 328.71 476.73 315.93 469.8 303.2C458.81 283.02 439.85 271.64 417.07 268.76C416.726 268.714 416.391 268.609 416.08 268.45C414.58 267.657 413.43 266.793 412.63 265.86C404.37 256.13 391.38 248.61 378.38 245.23C372 243.57 363.92 243.72 357.65 244.66C350.036 245.807 342.56 249.237 335.22 254.95C334.093 255.823 332.923 255.943 331.71 255.31C330.956 254.917 328.983 253.883 325.79 252.21C311.076 244.503 295.646 243.19 279.5 248.27C268.906 251.603 259.5 258.313 251.28 268.4C249.41 270.7 248.42 271.37 245.71 271.68C241.823 272.14 237.97 273.057 234.15 274.43C216.08 280.93 201.67 294.67 197.07 313.5C195.65 319.313 194.873 324.62 194.74 329.42C194.7 330.664 194.285 331.864 193.55 332.86C188 340.35 184.69 348.57 183.38 358.14C181.9 368.887 182.44 379.393 185 389.66C190.37 411.2 208 424.53 228.74 429.05C233.613 430.117 239.203 430.847 245.51 431.24C247.116 431.34 248.323 431.883 249.13 432.87C255.19 440.337 258.73 444.63 259.75 445.75C271.21 458.27 287.69 465.4 304.05 466.87C308.496 467.27 314.646 467.56 322.5 467.74C326.93 467.84 326.27 472.35 328.17 474.39C339.24 486.35 349.31 498.92 356.3 513.7C357.52 516.267 358.573 519.563 359.46 523.59C360.18 526.89 361.023 529.183 361.99 530.47C365.36 534.98 372.52 537.91 377.28 533.95C380.233 531.49 382.53 529.837 384.17 528.99C386.67 527.703 388.36 526.457 389.24 525.25C392.71 520.51 392.44 514.16 390.42 508.86" stroke="#FFCF5E" stroke-width="2"/>
<path d="M387.718 493.47C384.832 488.057 383.768 481.753 384.528 474.56C384.58 474.023 384.817 473.521 385.198 473.14C388.328 470 394.138 469.36 398.298 468.01C401.338 467.023 404.495 465.933 407.768 464.74C412.528 462.993 418.065 460.033 424.378 455.86C427.758 453.62 430.518 450.947 432.658 447.84C432.908 447.474 433.038 447.039 433.031 446.596C433.024 446.152 432.88 445.72 432.618 445.36C427.858 438.79 421.188 435.46 413.738 432.79C410.032 431.47 404.792 430.22 398.018 429.04C383.565 426.533 369.625 427.277 356.198 431.27C353.328 432.12 351.898 432.1 349.248 431.03C344.982 429.317 342.458 426.28 341.678 421.92C340.925 417.673 342.295 414.573 345.788 412.62C349.362 410.627 352.705 409.207 355.818 408.36C356.938 408.06 359.805 407.527 364.418 406.76C369.558 405.9 374.138 406.14 379.708 405.81C381.548 405.71 383.748 405.703 386.308 405.79C401.548 406.317 416.242 409.697 430.388 415.93C434.555 417.763 438.395 420.327 441.908 423.62C442.782 424.447 444.295 425.33 446.448 426.27C446.686 426.373 446.944 426.422 447.203 426.413C447.463 426.405 447.717 426.339 447.948 426.22C458.788 420.58 467.618 411.75 469.918 399.71C471.368 392.16 471.768 380.75 468.428 372.88C468.342 372.675 468.206 372.495 468.031 372.356C467.857 372.218 467.65 372.126 467.43 372.089C467.211 372.052 466.985 372.072 466.775 372.145C466.565 372.219 466.377 372.344 466.228 372.51C460.382 379.05 453.098 383.517 444.378 385.91C441.392 386.73 437.275 387.147 432.028 387.16C426.095 387.18 421.918 387.137 419.498 387.03C414.745 386.817 411.275 386.333 409.088 385.58C402.368 383.27 396.808 378.44 397.498 370.75C397.531 370.375 397.651 370.012 397.848 369.69C400.458 365.53 403.568 363.61 408.778 364C420.048 364.84 426.458 365.8 434.668 364.83C442.855 363.863 448.985 359.703 453.058 352.35C455.668 347.63 455.428 340.79 455.218 335.51C454.968 329.52 454.738 324.11 452.458 318.81C450.058 313.237 447.128 308.45 443.668 304.45C438.678 298.68 430.878 294.51 423.548 292.46C423.344 292.404 423.128 292.397 422.92 292.44C422.713 292.483 422.518 292.575 422.354 292.709C422.189 292.842 422.059 293.012 421.975 293.206C421.891 293.399 421.854 293.61 421.868 293.82C422.758 307.01 422.248 319.02 417.088 331.4C416.282 333.327 415.512 334.887 414.778 336.08C411.828 340.86 408.688 346.13 403.188 348.46C397.942 350.687 392.895 350.737 388.048 348.61C383.958 346.81 382.498 345.01 382.248 340.48C381.828 333.05 387.948 331.5 393.848 328.28C394.134 328.127 394.396 327.932 394.628 327.7C398.698 323.63 400.378 318.27 400.908 312.48C401.638 304.64 401.318 296.37 399.958 289.51C397.248 275.83 379.958 266.81 367.258 266.29C362.225 266.09 357.235 267.183 352.288 269.57C349.868 270.74 348.048 271.46 347.888 273.93C347.408 281.32 348.068 288.99 347.828 294.99C347.768 296.603 347.695 307.16 347.608 326.66C347.558 336.14 347.058 345.63 347.428 355.07C347.446 355.528 347.61 355.969 347.896 356.328C348.182 356.688 348.575 356.947 349.018 357.07C350.612 357.503 354.135 358.447 359.588 359.9C370.688 362.86 367.208 380.32 356.218 380.95C353.912 381.077 352.172 381.017 350.998 380.77C344.165 379.317 338.108 378.13 332.828 377.21C325.415 375.923 316.615 375.923 306.428 377.21C302.722 377.677 298.638 378.877 294.178 380.81C285.978 384.35 278.458 390.6 274.718 398.99C272.328 404.34 270.298 409.35 270.328 414.93C270.335 416.417 270.355 418.133 270.388 420.08C270.388 420.392 270.425 420.704 270.498 421.01C271.252 424.13 272.078 426.227 272.978 427.3C279.838 435.507 288.385 440.923 298.618 443.55C305.685 445.363 314.445 445.907 324.898 445.18C325.43 445.147 325.96 445.056 326.478 444.91C333.738 442.86 345.138 441.77 348.768 449.89C350.118 452.92 349.538 457.15 349.388 461.74C349.35 462.893 349.771 464.015 350.558 464.86C354.598 469.193 358.478 473.603 362.198 478.09C365.112 481.603 367.935 485.677 370.668 490.31C374.522 496.843 376.895 501.133 377.788 503.18C379.555 507.227 380.868 509.72 381.728 510.66C381.94 510.892 382.19 511.088 382.468 511.24C385.918 513.06 389.528 513.92 390.418 508.86" stroke="#FFC624" stroke-width="2"/>
<path d="M325.459 352.72C326.319 350.11 325.999 345.56 326.109 339.46C326.179 335.67 325.669 333.47 321.559 333.16C309.279 332.213 298.082 328.03 287.969 320.61C284.476 318.043 282.692 314.573 282.619 310.2C282.529 304.52 283.199 298.97 289.729 297.97C295.399 297.11 297.799 298.52 301.319 302.22C301.837 302.759 302.411 303.241 303.029 303.66C308.749 307.45 316.749 311.77 323.429 312.09C323.638 312.099 323.846 312.052 324.03 311.953C324.215 311.855 324.37 311.709 324.479 311.53C325.106 310.483 325.455 309.39 325.529 308.25C326.142 299.043 325.926 289.66 324.879 280.1C324.699 278.4 324.169 277.163 323.289 276.39C315.562 269.63 306.465 266.503 295.999 267.01C287.979 267.397 280.812 270.147 274.499 275.26C270.712 278.327 267.692 281.153 265.439 283.74C260.449 289.46 257.369 292.02 250.469 293.47C244.022 294.823 239.892 295.867 238.079 296.6C225.652 301.653 218.659 310.963 217.099 324.53C216.506 329.657 218.299 333.417 222.479 335.81C228.545 339.29 235.182 339.883 242.389 337.59C246.249 336.363 250.655 334.083 255.609 330.75C262.989 325.78 269.229 329.96 271.139 337.67C271.679 339.857 271.312 342.457 270.039 345.47C267.009 352.65 257.599 354.71 251.239 356.82C244.129 359.19 237.409 360.04 229.639 360.01C222.099 359.98 214.779 357.29 208.829 352.99C208.568 352.803 208.264 352.687 207.945 352.653C207.626 352.619 207.305 352.668 207.011 352.795C206.718 352.922 206.463 353.123 206.271 353.378C206.08 353.633 205.958 353.933 205.919 354.25C204.932 361.943 204.672 369.203 205.139 376.03C205.966 388.063 211.472 396.84 221.659 402.36C229.639 406.68 237.302 408.56 244.649 408C245.839 407.91 247.419 408.46 248.599 407.57C248.884 407.349 249.088 407.047 249.179 406.71C251.125 399.723 252.435 395.587 253.109 394.3C255.229 390.23 256.709 386.7 259.229 383.05C265.716 373.63 274.149 366.467 284.529 361.56C286.155 360.793 290.386 359.21 297.219 356.81C297.239 356.803 297.259 356.797 297.279 356.79L306.699 354.82C306.739 354.813 306.782 354.807 306.829 354.8C310.922 354.487 316.479 354.277 323.499 354.17C323.934 354.161 324.356 354.017 324.707 353.757C325.058 353.497 325.321 353.135 325.459 352.72Z" stroke="#FFC624" stroke-width="2"/>
<path d="M616.028 670.46C616.948 669.673 617.935 668.767 618.988 667.74C646.428 640.733 661.302 626.107 663.608 623.86C671.568 616.113 679.522 608.23 687.468 600.21C688.662 599.003 689.628 597.49 690.368 595.67C690.465 595.434 690.505 595.181 690.486 594.929C690.466 594.677 690.389 594.434 690.258 594.22C689.305 592.653 688.202 591.303 686.948 590.17C674.415 578.837 655.538 561.61 630.318 538.49C625.578 534.15 620.458 530.45 616.568 526.09C616.507 526.022 616.43 525.968 616.345 525.933C616.26 525.898 616.168 525.882 616.077 525.887C615.985 525.892 615.895 525.917 615.814 525.961C615.733 526.004 615.663 526.066 615.608 526.14C615.468 526.327 615.395 526.66 615.388 527.14C615.128 540.9 615.065 551.72 615.198 559.6C615.288 565.26 614.178 572.37 606.988 572.36C555.575 572.307 509.075 572.313 467.488 572.38C457.488 572.39 456.848 566.39 457.068 557.63C457.142 554.817 457.128 551.007 457.028 546.2C457.022 545.982 456.956 545.771 456.838 545.588C456.72 545.405 456.553 545.258 456.358 545.164C456.162 545.069 455.943 545.029 455.727 545.05C455.51 545.07 455.303 545.15 455.128 545.28C453.562 546.46 450.148 549.33 444.888 553.89C442.088 556.317 432.002 565.563 414.628 581.63C407.315 588.403 403.295 592.217 402.568 593.07C400.198 595.87 398.528 599.24 401.598 602.39C411.498 612.56 425.928 624.66 437.128 636.1C443.775 642.887 449.195 648.14 453.388 651.86C454.022 652.413 454.608 652.793 455.148 653C455.273 653.046 455.407 653.062 455.539 653.047C455.671 653.032 455.798 652.987 455.908 652.915C456.019 652.843 456.111 652.747 456.177 652.633C456.243 652.519 456.281 652.391 456.288 652.26C456.622 646.247 456.738 639.83 456.638 633.01C456.508 624.89 459.188 620.12 467.998 620.13C473.785 620.137 479.785 620.147 485.998 620.16C520.638 620.2 555.055 620.147 589.248 620C594.782 619.98 599.635 620 603.808 620.06C613.358 620.22 615.018 626.06 615.028 634.5C615.042 644.647 615.088 656.503 615.168 670.07C615.169 670.169 615.198 670.266 615.252 670.35C615.306 670.433 615.383 670.499 615.474 670.54C615.564 670.581 615.664 670.595 615.763 670.581C615.861 670.567 615.953 670.525 616.028 670.46Z" stroke="#FFC624" stroke-width="2"/>
<path d="M833.47 840.64C832.163 837.193 831.43 834.723 831.27 833.23C830.75 828.25 830.89 820.08 830.64 813.6C829.646 787.967 827.35 762.013 823.75 735.74C821.44 718.88 816.29 703.81 811.98 688.32C810.18 681.833 809.123 676.723 808.81 672.99C807.31 654.843 807.403 638.35 809.09 623.51C811.15 605.43 814.213 582.623 818.28 555.09C818.76 551.85 819.47 549.64 819.7 546.88C819.86 545.04 820.183 542.977 820.67 540.69C823.803 525.91 825.806 516.893 826.68 513.64C827.74 509.72 828.59 506.917 829.23 505.23C833.35 494.35 850.86 495.42 851.34 507.83C852.353 533.897 854.11 556.78 856.61 576.48C856.876 578.627 857.37 581.53 858.09 585.19C860.863 599.23 864.963 618.067 870.39 641.7C871.576 646.9 872.526 651.32 873.24 654.96C873.3 655.287 874.176 659.723 875.87 668.27C878.256 680.283 879.883 687.877 880.75 691.05C882.34 696.87 883.84 704.87 885.98 711.65C892.073 730.91 896.43 750.33 899.05 769.91C900.29 779.17 898.46 788.05 896.34 797.8C895.253 802.76 895.343 808.963 896.61 816.41C897.003 818.703 898.22 820.31 900.26 821.23C900.564 821.362 900.886 821.437 901.21 821.45C904.243 821.557 906.516 820.527 908.03 818.36C908.89 817.12 909.37 814.633 909.47 810.9C910.05 789.18 909.92 754.54 910.04 689.99C910.066 676.59 909.246 664.377 907.58 653.35C906.6 646.837 904.813 638.473 902.22 628.26C898.36 613.02 895.74 602.08 894.7 589.27C892.226 558.783 890.746 537.693 890.26 526C889.86 516.28 889.363 507.03 888.77 498.25C887.1 473.61 877.74 447.8 856.29 433.56C854.683 432.493 853.17 431.653 851.75 431.04C847.89 429.38 844.48 427.63 839.8 425.91C833.773 423.703 829.686 422.157 827.54 421.27C824.35 419.96 821.19 419.3 817.88 417.94C816.066 417.193 813.623 416.39 810.55 415.53C798.836 412.243 787.79 408.353 777.41 403.86C764.87 398.43 758.14 393.11 753.03 379.92C751.92 377.04 751.85 373.94 750.95 370.83C750.296 368.577 749.036 367.723 747.17 368.27C737.98 370.97 728.92 370.98 719.17 370.16C715.93 369.887 712.633 369.337 709.28 368.51C707.293 368.023 704.003 367.42 699.41 366.7C696.98 366.31 694.6 366.63 694.06 369.1C692.913 374.347 692.193 377.363 691.9 378.15C686.73 391.99 674.41 401.75 660.82 406.81C646.926 411.99 631.733 417.32 615.24 422.8C613.446 423.393 611.59 423.967 609.67 424.52C603.13 426.4 597.07 429.56 591.49 434C578.756 444.12 569.716 456.403 564.37 470.85C561.936 477.437 560.52 481.79 560.12 483.91C559.913 485.003 557.733 496.96 553.58 519.78C553.126 522.293 551.993 525.153 550.18 528.36C546.553 528.627 542.826 528.733 539 528.68C530.18 528.57 533.73 512.86 534.79 506.75C536.903 494.523 539.623 481.84 542.95 468.7C543.93 464.827 545.103 461.33 546.47 458.21C556.36 435.53 576.18 413.44 600 405.27C621.18 398.01 634.69 392.61 659.15 383.17C664.296 381.19 667.993 377.717 670.24 372.75C671.93 369.02 675.38 359.21 674.03 354.91C673.696 353.85 672.293 352.13 669.82 349.75C661.713 341.943 655.503 333.453 651.19 324.28C646.903 315.173 644.65 304.997 644.43 293.75C644.083 276.097 644.1 263.527 644.48 256.04C644.693 251.9 645.49 246.833 646.87 240.84C650.55 224.86 658.2 212.34 671.07 200.92C681.303 191.853 692.996 186.347 706.15 184.4C717.636 182.707 729.01 182.91 740.27 185.01C757.796 188.283 772.266 196.623 783.68 210.03C802.89 232.6 803.07 261.01 801.93 289.86C801.61 297.993 801.04 304.07 800.22 308.09C797.906 319.383 792.97 329.7 785.41 339.04C781.4 344 776.9 347.6 772.77 351.99C770.52 354.38 771.44 360.24 771.68 365C771.786 367.027 772.526 369.743 773.9 373.15C776.31 379.14 781.25 382.68 787.19 384.59C802.196 389.403 821.61 395.98 845.43 404.32C865.03 411.19 882.88 423.98 893.18 441.34C902.08 456.32 907.03 472.74 909.17 490.26C910.63 502.23 911.14 522.1 912.43 538.42C913.43 551.07 913.46 558.86 914.55 570.02C914.856 573.08 915.313 578.443 915.92 586.11C916.133 588.717 916.943 594.443 918.35 603.29C920.27 615.38 924.98 631.23 926.79 640.78C929.283 653.953 930.79 666.13 931.31 677.31C931.496 681.33 931.586 693.627 931.58 714.2C931.57 760.39 931.69 776.24 930.58 810.5C930.06 826.23 922.68 839.1 906.27 841.38C896.676 842.72 888.893 840.233 882.92 833.92C877.8 828.52 874.9 821.12 874.47 814C873.78 802.5 875.28 793.58 878.16 779.65C878.65 777.32 878.41 772.95 877.79 769.81C877.216 766.957 875.833 759.06 873.64 746.12C873.206 743.56 871.793 737.293 869.4 727.32C866.53 715.33 861.76 701.82 859.19 690.07C851.15 653.27 844.6 623.56 839.54 600.94C838.29 595.37 837.43 589.46 836.9 584.28C836.887 584.123 836.817 583.978 836.703 583.871C836.589 583.764 836.439 583.703 836.282 583.699C836.124 583.695 835.97 583.749 835.848 583.851C835.726 583.952 835.645 584.094 835.62 584.25C833.586 597.03 831.64 612.03 829.78 629.25C829.486 631.943 829.206 636.023 828.94 641.49C828.393 652.91 828.94 663.807 830.58 674.18C832.01 683.2 834.17 689.46 837.6 701.38C842.04 716.813 845.116 732.403 846.83 748.15C849.363 771.517 850.853 788.907 851.3 800.32C851.306 800.493 851.58 807.93 852.12 822.63C852.29 827.25 852.81 834.89 849.98 838.34C847.78 841.027 844.773 842.423 840.96 842.53C840.482 842.543 840.007 842.486 839.55 842.36L833.47 840.64ZM779.71 257.58C779.31 251.56 778.06 246.33 776.17 239.54C775.41 236.807 774.36 234.323 773.02 232.09C767.89 223.56 761.97 216.88 753.29 212.44C743.06 207.22 732.36 205.5 720.78 205.29C703.866 204.99 690.26 210.953 679.96 223.18C673.99 230.26 668.97 240.72 667.69 250.81C666.15 262.97 666.54 271.92 666.45 287.85C666.43 291.423 666.556 294.68 666.83 297.62C667.223 301.813 667.786 305.027 668.52 307.26C673.04 321.013 681.583 331.887 694.15 339.88C697.323 341.893 700.896 343.48 704.87 344.64C712.57 346.887 719.763 348.133 726.45 348.38C733.94 348.65 739.38 346.8 746.11 343.36C756.19 338.207 764.356 331.007 770.61 321.76C775.36 314.74 779.02 305.29 779.61 297.67C780.61 284.837 780.643 271.473 779.71 257.58Z" fill="#FFAD0D"/>
<path d="M490.219 500.16C488.279 497.28 488.056 494.337 489.549 491.33C497.176 476.03 504.229 459.323 510.709 441.21C521.069 412.27 523.589 379.89 516.309 349.79C513.136 336.69 509.046 324.667 504.039 313.72C485.169 272.47 449.839 240.4 407.159 225.12C368.413 211.253 328.823 209.19 288.389 218.93C261.196 225.483 237.053 237.077 215.959 253.71C198.773 267.263 185.023 284.113 174.709 304.26C171.049 311.4 167.449 319.93 163.909 329.85C160.803 338.55 158.276 347.45 156.329 356.55C153.863 368.103 153.079 380.047 153.979 392.38C154.219 395.66 154.646 398.607 155.259 401.22C157.129 409.1 158.179 416.41 158.329 425.75C158.449 433.89 154.409 442.49 150.859 449.62C141.639 468.13 129.349 488.42 121.259 503.49C119.366 507.01 118.326 509.717 118.139 511.61C117.553 517.597 119.883 521.01 125.129 521.85C130.436 522.71 135.643 524.03 140.749 525.81C147.609 528.2 151.439 534 150.719 540.77C149.513 552.183 148.999 559.003 149.179 561.23C149.449 564.54 149.439 565.76 152.259 568C156.559 571.42 159.449 576.4 156.849 581.88C155.279 585.2 151.899 591.03 154.869 593.17C159.849 596.76 161.629 601.6 163.679 607.63C167.059 617.6 166.089 627.27 164.179 637.75C163.919 639.19 163.836 641.78 163.929 645.52C164.149 654.35 171.189 659.6 179.369 660.6C183.349 661.087 187.226 661.277 190.999 661.17C211.079 660.59 230.619 659.46 250.169 655.29C267.549 651.59 283.269 647.4 298.799 639.62C311.549 633.23 320.489 653.95 311.159 661.7C310.499 662.247 307.823 663.483 303.129 665.41C292.329 669.84 281.329 672.71 269.099 675.59C268.714 675.682 268.371 675.899 268.125 676.207C267.878 676.515 267.742 676.896 267.739 677.29C267.649 686.98 272.269 702.64 273.829 716.81C273.936 717.783 274.426 721.707 275.299 728.58C276.353 736.827 277.106 745.8 277.559 755.5C277.819 761.18 277.693 765.143 277.179 767.39C276.966 768.31 276.233 770.347 274.979 773.5C270.126 773.88 265.879 773.983 262.239 773.81C255.539 773.49 254.799 765.18 254.479 759.74C254.199 755.07 254.259 750.24 253.739 744.43C253.106 737.283 252.539 729.607 252.039 721.4C251.633 714.62 250.173 704.047 247.659 689.68C246.769 684.57 246.819 681.02 241.029 681.84C233.509 682.907 227.243 683.51 222.229 683.65C217.003 683.797 212.323 684.083 208.189 684.51C200.616 685.297 192.759 685.41 184.619 684.85C169.589 683.8 158.409 679.91 148.959 668.8C143.559 662.44 140.199 655.84 140.209 647.4C140.223 642.607 140.853 638.027 142.099 633.66C144.599 624.893 143.419 616.733 138.559 609.18C135.429 604.3 132.449 600.04 132.359 594.26C132.306 591.053 132.383 587.877 132.589 584.73C132.654 583.67 132.35 582.617 131.729 581.75C129.909 579.203 128.736 577.467 128.209 576.54C123.849 568.93 124.219 559.06 125.369 550.25C125.369 550.237 125.333 549.297 125.259 547.43C125.245 547.069 125.099 546.726 124.848 546.465C124.597 546.205 124.26 546.047 123.899 546.02C108.689 544.91 97.9292 533.5 94.2292 519.18C93.0492 514.613 93.5025 509.75 95.5892 504.59C97.8359 499.057 100.589 493.313 103.849 487.36C106.909 481.78 113.293 470.353 122.999 453.08C127.669 444.76 131.979 436.1 134.709 427.48C135.503 425 135.536 421.917 134.809 418.23C132.896 408.55 131.713 401.083 131.259 395.83C129.649 377.27 132.039 357.72 136.729 339.97C139.923 327.863 144.459 315.157 150.339 301.85C170.939 255.24 211.309 220.57 259.089 203.86C287.003 194.1 315.606 189.593 344.899 190.34C351.919 190.52 358.589 191.24 366.019 192.04C402.679 195.96 439.699 210.29 468.559 233.21C480.253 242.497 491.083 253.32 501.049 265.68C517.549 286.14 529.363 310.16 536.489 337.74C544.569 369.01 545.229 400.92 536.749 431.7C530.519 454.33 521.199 475.91 509.809 496.33C509.109 497.583 508.339 498.733 507.499 499.78C502.206 506.367 496.446 506.493 490.219 500.16Z" fill="#FFAD0D"/>
<path d="M776.169 239.54C778.059 246.33 779.309 251.56 779.709 257.58C780.643 271.473 780.609 284.837 779.609 297.67C779.019 305.29 775.359 314.74 770.609 321.76C764.356 331.007 756.189 338.207 746.109 343.36C739.379 346.8 733.939 348.65 726.449 348.38C719.763 348.133 712.569 346.887 704.869 344.64C700.896 343.48 697.323 341.893 694.149 339.88C681.583 331.887 673.039 321.013 668.519 307.26C667.786 305.027 667.223 301.813 666.829 297.62C666.556 294.68 666.429 291.423 666.449 287.85C666.539 271.92 666.149 262.97 667.689 250.81C668.969 240.72 673.989 230.26 679.959 223.18C690.259 210.953 703.866 204.99 720.779 205.29C732.359 205.5 743.059 207.22 753.289 212.44C761.969 216.88 767.889 223.56 773.019 232.09C774.359 234.323 775.409 236.807 776.169 239.54Z" fill="#FFDE3B"/>
<path d="M490.219 500.16L478.979 518.31C478.513 518.017 478.229 517.78 478.129 517.6C474.979 511.99 472.309 508.68 465.959 508.8C463.839 508.833 462.093 509.257 460.719 510.07C458.793 511.197 457.299 512.253 456.239 513.24C434.093 533.907 407.926 557.99 377.739 585.49C375.153 587.843 373.196 590.12 371.869 592.32C366.209 601.71 376.299 609.44 382.219 615.02C405.326 636.773 425.366 655.977 442.339 672.63C444.799 675.04 445.909 676 446.549 678.96C448.549 688.133 450.466 697.757 452.299 707.83C456.429 730.51 458.159 738.44 462.789 761.48C463.116 763.1 463.633 765.25 464.339 767.93C464.492 768.487 464.724 769.023 465.029 769.52L467.529 773.52L274.979 773.5C276.233 770.347 276.966 768.31 277.179 767.39C277.693 765.143 277.819 761.18 277.559 755.5C277.106 745.8 276.353 736.827 275.299 728.58C274.426 721.707 273.936 717.783 273.829 716.81C272.269 702.64 267.649 686.98 267.739 677.29C267.742 676.896 267.878 676.515 268.125 676.207C268.371 675.899 268.714 675.682 269.099 675.59C281.329 672.71 292.329 669.84 303.129 665.41C307.823 663.483 310.499 662.247 311.159 661.7C320.489 653.95 311.549 633.23 298.799 639.62C283.269 647.4 267.549 651.59 250.169 655.29C230.619 659.46 211.079 660.59 190.999 661.17C187.226 661.277 183.349 661.087 179.369 660.6C171.189 659.6 164.149 654.35 163.929 645.52C163.836 641.78 163.919 639.19 164.179 637.75C166.089 627.27 167.059 617.6 163.679 607.63C161.629 601.6 159.849 596.76 154.869 593.17C151.899 591.03 155.279 585.2 156.849 581.88C159.449 576.4 156.559 571.42 152.259 568C149.439 565.76 149.449 564.54 149.179 561.23C148.999 559.003 149.513 552.183 150.719 540.77C151.439 534 147.609 528.2 140.749 525.81C135.643 524.03 130.436 522.71 125.129 521.85C119.883 521.01 117.553 517.597 118.139 511.61C118.326 509.717 119.366 507.01 121.259 503.49C129.349 488.42 141.639 468.13 150.859 449.62C154.409 442.49 158.449 433.89 158.329 425.75C158.179 416.41 157.129 409.1 155.259 401.22C154.646 398.607 154.219 395.66 153.979 392.38C153.079 380.047 153.863 368.103 156.329 356.55C158.276 347.45 160.803 338.55 163.909 329.85C167.449 319.93 171.049 311.4 174.709 304.26C185.023 284.113 198.773 267.263 215.959 253.71C237.053 237.077 261.196 225.483 288.389 218.93C328.823 209.19 368.413 211.253 407.159 225.12C449.839 240.4 485.169 272.47 504.039 313.72C509.046 324.667 513.136 336.69 516.309 349.79C523.589 379.89 521.069 412.27 510.709 441.21C504.229 459.323 497.176 476.03 489.549 491.33C488.056 494.337 488.279 497.28 490.219 500.16ZM390.419 508.86C389.986 506.82 389.446 504.7 388.799 502.5C388.053 500 387.693 496.99 387.719 493.47C394.933 491.57 402.086 489.717 409.179 487.91C416.846 485.957 425.023 482.133 433.709 476.44C445.369 468.81 452.469 459.1 458.809 447.12C459.556 445.718 460.656 444.535 461.999 443.69C474.529 435.81 484.959 426.06 489.699 411.66C495.779 393.15 494.999 370.53 484.309 354.4C482.269 351.327 480.416 348.68 478.749 346.46C477.955 345.401 477.565 344.096 477.649 342.78C478.529 328.71 476.729 315.93 469.799 303.2C458.809 283.02 439.849 271.64 417.069 268.76C416.725 268.714 416.39 268.609 416.079 268.45C414.579 267.657 413.429 266.793 412.629 265.86C404.369 256.13 391.379 248.61 378.379 245.23C371.999 243.57 363.919 243.72 357.649 244.66C350.036 245.807 342.559 249.237 335.219 254.95C334.093 255.823 332.923 255.943 331.709 255.31C330.956 254.917 328.983 253.883 325.789 252.21C311.076 244.503 295.646 243.19 279.499 248.27C268.906 251.603 259.499 258.313 251.279 268.4C249.409 270.7 248.419 271.37 245.709 271.68C241.823 272.14 237.969 273.057 234.149 274.43C216.079 280.93 201.669 294.67 197.069 313.5C195.649 319.313 194.873 324.62 194.739 329.42C194.7 330.664 194.285 331.864 193.549 332.86C187.999 340.35 184.689 348.57 183.379 358.14C181.899 368.887 182.439 379.393 184.999 389.66C190.369 411.2 207.999 424.53 228.739 429.05C233.613 430.117 239.203 430.847 245.509 431.24C247.116 431.34 248.323 431.883 249.129 432.87C255.189 440.337 258.729 444.63 259.749 445.75C271.209 458.27 287.689 465.4 304.049 466.87C308.496 467.27 314.646 467.56 322.499 467.74C326.929 467.84 326.269 472.35 328.169 474.39C339.239 486.35 349.309 498.92 356.299 513.7C357.519 516.267 358.573 519.563 359.459 523.59C360.179 526.89 361.023 529.183 361.989 530.47C365.359 534.98 372.519 537.91 377.279 533.95C380.233 531.49 382.529 529.837 384.169 528.99C386.669 527.703 388.359 526.457 389.239 525.25C392.709 520.51 392.439 514.16 390.419 508.86Z" fill="#FFF1AF"/>
<path d="M387.72 493.47C384.833 488.057 383.77 481.753 384.53 474.56C384.581 474.023 384.818 473.521 385.2 473.14C388.33 470 394.14 469.36 398.3 468.01C401.34 467.023 404.496 465.933 407.77 464.74C412.53 462.993 418.066 460.033 424.38 455.86C427.76 453.62 430.52 450.947 432.66 447.84C432.909 447.474 433.039 447.039 433.032 446.595C433.025 446.152 432.881 445.72 432.62 445.36C427.86 438.79 421.19 435.46 413.74 432.79C410.033 431.47 404.793 430.22 398.02 429.04C383.566 426.533 369.626 427.277 356.2 431.27C353.33 432.12 351.9 432.1 349.25 431.03C344.983 429.317 342.46 426.28 341.68 421.92C340.926 417.673 342.296 414.573 345.79 412.62C349.363 410.627 352.706 409.207 355.82 408.36C356.94 408.06 359.806 407.527 364.42 406.76C369.56 405.9 374.14 406.14 379.71 405.81C381.55 405.71 383.75 405.703 386.31 405.79C401.55 406.317 416.243 409.697 430.39 415.93C434.556 417.763 438.396 420.327 441.91 423.62C442.783 424.447 444.296 425.33 446.45 426.27C446.687 426.373 446.945 426.422 447.204 426.413C447.464 426.405 447.718 426.339 447.95 426.22C458.79 420.58 467.62 411.75 469.92 399.71C471.37 392.16 471.77 380.75 468.43 372.88C468.343 372.675 468.207 372.495 468.032 372.356C467.858 372.218 467.651 372.126 467.432 372.089C467.212 372.052 466.987 372.072 466.777 372.145C466.566 372.219 466.378 372.344 466.23 372.51C460.383 379.05 453.1 383.517 444.38 385.91C441.393 386.73 437.276 387.147 432.03 387.16C426.096 387.18 421.92 387.137 419.5 387.03C414.746 386.817 411.276 386.333 409.09 385.58C402.37 383.27 396.81 378.44 397.5 370.75C397.533 370.375 397.652 370.012 397.85 369.69C400.46 365.53 403.57 363.61 408.78 364C420.05 364.84 426.46 365.8 434.67 364.83C442.856 363.863 448.986 359.703 453.06 352.35C455.67 347.63 455.43 340.79 455.22 335.51C454.97 329.52 454.74 324.11 452.46 318.81C450.06 313.237 447.13 308.45 443.67 304.45C438.68 298.68 430.88 294.51 423.55 292.46C423.345 292.404 423.13 292.397 422.922 292.44C422.714 292.483 422.52 292.575 422.355 292.709C422.191 292.842 422.061 293.012 421.976 293.206C421.892 293.399 421.855 293.61 421.87 293.82C422.76 307.01 422.25 319.02 417.09 331.4C416.283 333.327 415.513 334.887 414.78 336.08C411.83 340.86 408.69 346.13 403.19 348.46C397.943 350.687 392.896 350.737 388.05 348.61C383.96 346.81 382.5 345.01 382.25 340.48C381.83 333.05 387.95 331.5 393.85 328.28C394.135 328.127 394.398 327.932 394.63 327.7C398.7 323.63 400.38 318.27 400.91 312.48C401.64 304.64 401.32 296.37 399.96 289.51C397.25 275.83 379.96 266.81 367.26 266.29C362.226 266.09 357.236 267.183 352.29 269.57C349.87 270.74 348.05 271.46 347.89 273.93C347.41 281.32 348.07 288.99 347.83 294.99C347.77 296.603 347.696 307.16 347.61 326.66C347.56 336.14 347.06 345.63 347.43 355.07C347.447 355.528 347.611 355.968 347.897 356.328C348.183 356.688 348.576 356.947 349.02 357.07C350.613 357.503 354.136 358.447 359.59 359.9C370.69 362.86 367.21 380.32 356.22 380.95C353.913 381.077 352.173 381.017 351 380.77C344.166 379.317 338.11 378.13 332.83 377.21C325.416 375.923 316.616 375.923 306.43 377.21C302.723 377.677 298.64 378.877 294.18 380.81C285.98 384.35 278.46 390.6 274.72 398.99C272.33 404.34 270.3 409.35 270.33 414.93C270.336 416.417 270.356 418.133 270.39 420.08C270.39 420.392 270.427 420.704 270.5 421.01C271.253 424.13 272.08 426.227 272.98 427.3C279.84 435.507 288.386 440.923 298.62 443.55C305.686 445.363 314.446 445.907 324.9 445.18C325.432 445.147 325.961 445.056 326.48 444.91C333.74 442.86 345.14 441.77 348.77 449.89C350.12 452.92 349.54 457.15 349.39 461.74C349.351 462.893 349.772 464.015 350.56 464.86C354.6 469.193 358.48 473.603 362.2 478.09C365.113 481.603 367.936 485.677 370.67 490.31C374.523 496.843 376.896 501.133 377.79 503.18C379.556 507.227 380.87 509.72 381.73 510.66C381.942 510.892 382.192 511.088 382.47 511.24C385.92 513.06 389.53 513.92 390.42 508.86C392.44 514.16 392.71 520.51 389.24 525.25C388.36 526.457 386.67 527.703 384.17 528.99C382.53 529.837 380.233 531.49 377.28 533.95C372.52 537.91 365.36 534.98 361.99 530.47C361.023 529.183 360.18 526.89 359.46 523.59C358.573 519.563 357.52 516.267 356.3 513.7C349.31 498.92 339.24 486.35 328.17 474.39C326.27 472.35 326.93 467.84 322.5 467.74C314.646 467.56 308.496 467.27 304.05 466.87C287.69 465.4 271.21 458.27 259.75 445.75C258.73 444.63 255.19 440.337 249.13 432.87C248.323 431.883 247.116 431.34 245.51 431.24C239.203 430.847 233.613 430.117 228.74 429.05C208 424.53 190.37 411.2 185 389.66C182.44 379.393 181.9 368.887 183.38 358.14C184.69 348.57 188 340.35 193.55 332.86C194.285 331.864 194.7 330.664 194.74 329.42C194.873 324.62 195.65 319.313 197.07 313.5C201.67 294.67 216.08 280.93 234.15 274.43C237.97 273.057 241.823 272.14 245.71 271.68C248.42 271.37 249.41 270.7 251.28 268.4C259.5 258.313 268.906 251.603 279.5 248.27C295.646 243.19 311.076 244.503 325.79 252.21C328.983 253.883 330.956 254.917 331.71 255.31C332.923 255.943 334.093 255.823 335.22 254.95C342.56 249.237 350.036 245.807 357.65 244.66C363.92 243.72 372 243.57 378.38 245.23C391.38 248.61 404.37 256.13 412.63 265.86C413.43 266.793 414.58 267.657 416.08 268.45C416.391 268.609 416.726 268.714 417.07 268.76C439.85 271.64 458.81 283.02 469.8 303.2C476.73 315.93 478.53 328.71 477.65 342.78C477.566 344.096 477.956 345.401 478.75 346.46C480.416 348.68 482.27 351.327 484.31 354.4C495 370.53 495.78 393.15 489.7 411.66C484.96 426.06 474.53 435.81 462 443.69C460.656 444.535 459.557 445.718 458.81 447.12C452.47 459.1 445.37 468.81 433.71 476.44C425.023 482.133 416.846 485.957 409.18 487.91C402.086 489.717 394.933 491.57 387.72 493.47ZM325.46 352.72C326.32 350.11 326 345.56 326.11 339.46C326.18 335.67 325.67 333.47 321.56 333.16C309.28 332.213 298.083 328.03 287.97 320.61C284.476 318.043 282.693 314.573 282.62 310.2C282.53 304.52 283.2 298.97 289.73 297.97C295.4 297.11 297.8 298.52 301.32 302.22C301.838 302.758 302.411 303.241 303.03 303.66C308.75 307.45 316.75 311.77 323.43 312.09C323.639 312.099 323.847 312.052 324.031 311.953C324.216 311.855 324.371 311.709 324.48 311.53C325.106 310.483 325.456 309.39 325.53 308.25C326.143 299.043 325.926 289.66 324.88 280.1C324.7 278.4 324.17 277.163 323.29 276.39C315.563 269.63 306.466 266.503 296 267.01C287.98 267.397 280.813 270.147 274.5 275.26C270.713 278.327 267.693 281.153 265.44 283.74C260.45 289.46 257.37 292.02 250.47 293.47C244.023 294.823 239.893 295.867 238.08 296.6C225.653 301.653 218.66 310.963 217.1 324.53C216.506 329.657 218.3 333.417 222.48 335.81C228.546 339.29 235.183 339.883 242.39 337.59C246.25 336.363 250.656 334.083 255.61 330.75C262.99 325.78 269.23 329.96 271.14 337.67C271.68 339.857 271.313 342.457 270.04 345.47C267.01 352.65 257.6 354.71 251.24 356.82C244.13 359.19 237.41 360.04 229.64 360.01C222.1 359.98 214.78 357.29 208.83 352.99C208.569 352.803 208.265 352.687 207.946 352.653C207.627 352.619 207.305 352.668 207.012 352.795C206.719 352.922 206.464 353.123 206.272 353.378C206.081 353.633 205.959 353.933 205.92 354.25C204.933 361.943 204.673 369.203 205.14 376.03C205.966 388.063 211.473 396.84 221.66 402.36C229.64 406.68 237.303 408.56 244.65 408C245.84 407.91 247.42 408.46 248.6 407.57C248.885 407.349 249.089 407.047 249.18 406.71C251.126 399.723 252.436 395.587 253.11 394.3C255.23 390.23 256.71 386.7 259.23 383.05C265.716 373.63 274.15 366.467 284.53 361.56C286.156 360.793 290.386 359.21 297.22 356.81C297.24 356.803 297.26 356.797 297.28 356.79L306.7 354.82C306.739 354.813 306.783 354.807 306.83 354.8C310.923 354.487 316.48 354.277 323.5 354.17C323.935 354.161 324.357 354.017 324.708 353.757C325.059 353.497 325.322 353.135 325.46 352.72Z" fill="#FFAD0D"/>
<path d="M387.72 493.47C387.694 496.99 388.054 500 388.8 502.5C389.447 504.7 389.987 506.82 390.42 508.86C389.53 513.92 385.92 513.06 382.47 511.24C382.192 511.088 381.942 510.892 381.73 510.66C380.87 509.72 379.557 507.227 377.79 503.18C376.897 501.133 374.524 496.843 370.67 490.31C367.937 485.677 365.114 481.603 362.2 478.09C358.48 473.603 354.6 469.193 350.56 464.86C349.773 464.015 349.352 462.893 349.39 461.74C349.54 457.15 350.12 452.92 348.77 449.89C345.14 441.77 333.74 442.86 326.48 444.91C325.962 445.056 325.432 445.147 324.9 445.18C314.447 445.907 305.687 445.363 298.62 443.55C288.387 440.923 279.84 435.507 272.98 427.3C272.08 426.227 271.254 424.13 270.5 421.01C270.427 420.704 270.39 420.392 270.39 420.08C270.357 418.133 270.337 416.417 270.33 414.93C270.3 409.35 272.33 404.34 274.72 398.99C278.46 390.6 285.98 384.35 294.18 380.81C298.64 378.877 302.724 377.677 306.43 377.21C316.617 375.923 325.417 375.923 332.83 377.21C338.11 378.13 344.167 379.317 351 380.77C352.174 381.017 353.914 381.077 356.22 380.95C367.21 380.32 370.69 362.86 359.59 359.9C354.137 358.447 350.614 357.503 349.02 357.07C348.577 356.947 348.184 356.688 347.898 356.328C347.612 355.969 347.448 355.528 347.43 355.07C347.06 345.63 347.56 336.14 347.61 326.66C347.697 307.16 347.77 296.603 347.83 294.99C348.07 288.99 347.41 281.32 347.89 273.93C348.05 271.46 349.87 270.74 352.29 269.57C357.237 267.183 362.227 266.09 367.26 266.29C379.96 266.81 397.25 275.83 399.96 289.51C401.32 296.37 401.64 304.64 400.91 312.48C400.38 318.27 398.7 323.63 394.63 327.7C394.398 327.932 394.136 328.127 393.85 328.28C387.95 331.5 381.83 333.05 382.25 340.48C382.5 345.01 383.96 346.81 388.05 348.61C392.897 350.737 397.944 350.687 403.19 348.46C408.69 346.13 411.83 340.86 414.78 336.08C415.514 334.887 416.284 333.327 417.09 331.4C422.25 319.02 422.76 307.01 421.87 293.82C421.856 293.61 421.892 293.399 421.977 293.206C422.061 293.012 422.191 292.842 422.356 292.709C422.52 292.575 422.715 292.483 422.922 292.44C423.13 292.397 423.346 292.404 423.55 292.46C430.88 294.51 438.68 298.68 443.67 304.45C447.13 308.45 450.06 313.237 452.46 318.81C454.74 324.11 454.97 329.52 455.22 335.51C455.43 340.79 455.67 347.63 453.06 352.35C448.987 359.703 442.857 363.863 434.67 364.83C426.46 365.8 420.05 364.84 408.78 364C403.57 363.61 400.46 365.53 397.85 369.69C397.653 370.012 397.533 370.375 397.5 370.75C396.81 378.44 402.37 383.27 409.09 385.58C411.277 386.333 414.747 386.817 419.5 387.03C421.92 387.137 426.097 387.18 432.03 387.16C437.277 387.147 441.394 386.73 444.38 385.91C453.1 383.517 460.384 379.05 466.23 372.51C466.379 372.344 466.567 372.219 466.777 372.145C466.987 372.072 467.213 372.052 467.432 372.089C467.652 372.126 467.858 372.218 468.033 372.356C468.208 372.495 468.344 372.675 468.43 372.88C471.77 380.75 471.37 392.16 469.92 399.71C467.62 411.75 458.79 420.58 447.95 426.22C447.719 426.339 447.464 426.405 447.205 426.413C446.946 426.422 446.688 426.373 446.45 426.27C444.297 425.33 442.784 424.447 441.91 423.62C438.397 420.327 434.557 417.763 430.39 415.93C416.244 409.697 401.55 406.317 386.31 405.79C383.75 405.703 381.55 405.71 379.71 405.81C374.14 406.14 369.56 405.9 364.42 406.76C359.807 407.527 356.94 408.06 355.82 408.36C352.707 409.207 349.364 410.627 345.79 412.62C342.297 414.573 340.927 417.673 341.68 421.92C342.46 426.28 344.984 429.317 349.25 431.03C351.9 432.1 353.33 432.12 356.2 431.27C369.627 427.277 383.567 426.533 398.02 429.04C404.794 430.22 410.034 431.47 413.74 432.79C421.19 435.46 427.86 438.79 432.62 445.36C432.882 445.72 433.026 446.152 433.033 446.596C433.04 447.039 432.91 447.474 432.66 447.84C430.52 450.947 427.76 453.62 424.38 455.86C418.067 460.033 412.53 462.993 407.77 464.74C404.497 465.933 401.34 467.023 398.3 468.01C394.14 469.36 388.33 470 385.2 473.14C384.819 473.521 384.582 474.023 384.53 474.56C383.77 481.753 384.834 488.057 387.72 493.47Z" fill="#FFDE3B"/>
<path d="M325.461 352.72C325.323 353.135 325.06 353.497 324.709 353.757C324.358 354.017 323.936 354.161 323.501 354.17C316.481 354.277 310.924 354.487 306.831 354.8C306.784 354.807 306.741 354.813 306.701 354.82L297.281 356.79C297.261 356.797 297.241 356.803 297.221 356.81C290.387 359.21 286.157 360.793 284.531 361.56C274.151 366.467 265.717 373.63 259.231 383.05C256.711 386.7 255.231 390.23 253.111 394.3C252.437 395.587 251.127 399.723 249.181 406.71C249.09 407.047 248.886 407.349 248.601 407.57C247.421 408.46 245.841 407.91 244.651 408C237.304 408.56 229.641 406.68 221.661 402.36C211.474 396.84 205.967 388.063 205.141 376.03C204.674 369.203 204.934 361.943 205.921 354.25C205.96 353.933 206.082 353.633 206.273 353.378C206.465 353.123 206.72 352.922 207.013 352.795C207.307 352.668 207.628 352.619 207.947 352.653C208.266 352.687 208.57 352.803 208.831 352.99C214.781 357.29 222.101 359.98 229.641 360.01C237.411 360.04 244.131 359.19 251.241 356.82C257.601 354.71 267.011 352.65 270.041 345.47C271.314 342.457 271.681 339.857 271.141 337.67C269.231 329.96 262.991 325.78 255.611 330.75C250.657 334.083 246.251 336.363 242.391 337.59C235.184 339.883 228.547 339.29 222.481 335.81C218.301 333.417 216.507 329.657 217.101 324.53C218.661 310.963 225.654 301.653 238.081 296.6C239.894 295.867 244.024 294.823 250.471 293.47C257.371 292.02 260.451 289.46 265.441 283.74C267.694 281.153 270.714 278.327 274.501 275.26C280.814 270.147 287.981 267.397 296.001 267.01C306.467 266.503 315.564 269.63 323.291 276.39C324.171 277.163 324.701 278.4 324.881 280.1C325.927 289.66 326.144 299.043 325.531 308.25C325.457 309.39 325.107 310.483 324.481 311.53C324.372 311.709 324.217 311.855 324.032 311.953C323.848 312.052 323.64 312.099 323.431 312.09C316.751 311.77 308.751 307.45 303.031 303.66C302.412 303.241 301.839 302.759 301.321 302.22C297.801 298.52 295.401 297.11 289.731 297.97C283.201 298.97 282.531 304.52 282.621 310.2C282.694 314.573 284.477 318.043 287.971 320.61C298.084 328.03 309.281 332.213 321.561 333.16C325.671 333.47 326.181 335.67 326.111 339.46C326.001 345.56 326.321 350.11 325.461 352.72Z" fill="#FFDE3B"/>
<path d="M833.47 840.64L731.54 840.41C731.633 839.277 731.77 838.127 731.95 836.96C732.163 835.6 732.27 834.453 732.27 833.52C732.196 819.407 732.173 804.817 732.2 789.75C732.22 779.85 717.58 777.12 712.96 784.62C712.12 785.987 711.663 788.98 711.59 793.6C711.383 806.327 711.256 818.46 711.21 830C711.19 834.087 711.773 837.657 712.96 840.71L612.5 840.72C613.473 837.353 613.946 834.863 613.92 833.25C613.566 813.043 613.69 792.76 614.29 772.4C614.65 760.07 616.17 745.81 616.69 733.7C616.703 733.415 616.679 733.129 616.62 732.85C615.22 726.76 608.62 725.37 603.15 725.91L606.08 725.67C606.408 725.644 606.715 725.498 606.94 725.26L610.76 721.09C610.859 720.977 610.95 720.853 611.03 720.72C614.523 714.8 615.346 708.573 613.5 702.04C615.4 700.887 617.53 699.17 619.89 696.89C634.796 682.477 647.48 669.993 657.94 659.44C683.293 633.867 701.173 615.99 711.58 605.81C714.62 602.837 716.206 599.667 716.34 596.3C716.49 592.47 716.31 590.07 713.9 587.29C708.67 581.25 701.83 575.36 695.17 568.96C682.55 556.807 675.75 550.25 674.77 549.29C656.63 531.52 637.53 515.35 619.41 498.69C614.33 494.03 608.81 490.05 601.64 493.22C595.03 496.14 592.91 502.39 592.91 508.76C592.91 516.127 592.94 525.793 593 537.76C593.033 543.44 592.863 546.85 592.49 547.99C591.516 550.977 590.09 551.993 588.21 551.04L588.15 523.16C588.15 522.978 588.094 522.8 587.991 522.65C587.887 522.5 587.741 522.385 587.571 522.32C587.401 522.255 587.215 522.243 587.038 522.286C586.861 522.329 586.701 522.424 586.58 522.56C583.473 526.067 579.36 528.04 574.24 528.48C570.066 528.833 562.046 528.793 550.18 528.36C551.993 525.153 553.126 522.293 553.58 519.78C557.733 496.96 559.913 485.003 560.12 483.91C560.52 481.79 561.936 477.437 564.37 470.85C569.716 456.403 578.756 444.12 591.49 434C597.07 429.56 603.13 426.4 609.67 424.52C611.59 423.967 613.446 423.393 615.24 422.8C631.733 417.32 646.926 411.99 660.82 406.81C674.41 401.75 686.73 391.99 691.9 378.15C692.193 377.363 692.913 374.347 694.06 369.1C694.6 366.63 696.98 366.31 699.41 366.7C704.003 367.42 707.293 368.023 709.28 368.51C712.633 369.337 715.93 369.887 719.17 370.16C728.92 370.98 737.98 370.97 747.17 368.27C749.036 367.723 750.296 368.577 750.95 370.83C751.85 373.94 751.92 377.04 753.03 379.92C758.14 393.11 764.87 398.43 777.41 403.86C787.79 408.353 798.836 412.243 810.55 415.53C813.623 416.39 816.066 417.193 817.88 417.94C821.19 419.3 824.35 419.96 827.54 421.27C829.686 422.157 833.773 423.703 839.8 425.91C844.48 427.63 847.89 429.38 851.75 431.04C853.17 431.653 854.683 432.493 856.29 433.56C877.74 447.8 887.1 473.61 888.77 498.25C889.363 507.03 889.86 516.28 890.26 526C890.746 537.693 892.226 558.783 894.7 589.27C895.74 602.08 898.36 613.02 902.22 628.26C904.813 638.473 906.6 646.837 907.58 653.35C909.246 664.377 910.066 676.59 910.04 689.99C909.92 754.54 910.05 789.18 909.47 810.9C909.37 814.633 908.89 817.12 908.03 818.36C906.516 820.527 904.243 821.557 901.21 821.45C900.886 821.437 900.564 821.362 900.26 821.23C898.22 820.31 897.003 818.703 896.61 816.41C895.343 808.963 895.253 802.76 896.34 797.8C898.46 788.05 900.29 779.17 899.05 769.91C896.43 750.33 892.073 730.91 885.98 711.65C883.84 704.87 882.34 696.87 880.75 691.05C879.883 687.877 878.256 680.283 875.87 668.27C874.176 659.723 873.3 655.287 873.24 654.96C872.526 651.32 871.576 646.9 870.39 641.7C864.963 618.067 860.863 599.23 858.09 585.19C857.37 581.53 856.876 578.627 856.61 576.48C854.11 556.78 852.353 533.897 851.34 507.83C850.86 495.42 833.35 494.35 829.23 505.23C828.59 506.917 827.74 509.72 826.68 513.64C825.806 516.893 823.803 525.91 820.67 540.69C820.183 542.977 819.86 545.04 819.7 546.88C819.47 549.64 818.76 551.85 818.28 555.09C814.213 582.623 811.15 605.43 809.09 623.51C807.403 638.35 807.31 654.843 808.81 672.99C809.123 676.723 810.18 681.833 811.98 688.32C816.29 703.81 821.44 718.88 823.75 735.74C827.35 762.013 829.646 787.967 830.64 813.6C830.89 820.08 830.75 828.25 831.27 833.23C831.43 834.723 832.163 837.193 833.47 840.64Z" fill="#FFDE3B"/>
<path d="M613.5 702.04L602.94 703.06C602.293 702.393 600.66 700.94 598.04 698.7C594.98 696.087 593.427 692.667 593.38 688.44C593.193 670.707 593.15 657.31 593.25 648.25C593.277 646.357 593.177 644.747 592.95 643.42C592.86 642.889 592.586 642.406 592.176 642.059C591.766 641.711 591.247 641.52 590.71 641.52C548.75 641.513 514.24 641.477 487.18 641.41C482.84 641.4 479.67 640.65 479.64 645.73C479.607 653.07 479.597 659.99 479.61 666.49C479.617 670.897 478.297 674.823 475.65 678.27C475.511 678.449 475.349 678.611 475.17 678.75L470.74 682.18C470.36 682.473 470.072 682.868 469.909 683.32C469.746 683.771 469.715 684.26 469.82 684.73C471.72 693.11 473.1 702.66 475.04 712.78C478.227 729.38 480.627 742.853 482.24 753.2C482.613 755.573 482.97 757.94 483.31 760.3C484.25 766.86 481.75 771.307 475.81 773.64C474.577 774.127 471.817 774.087 467.53 773.52L465.03 769.52C464.725 769.023 464.493 768.487 464.34 767.93C463.633 765.25 463.117 763.1 462.79 761.48C458.16 738.44 456.43 730.51 452.3 707.83C450.467 697.757 448.55 688.133 446.55 678.96C445.91 676 444.8 675.04 442.34 672.63C425.367 655.977 405.327 636.773 382.22 615.02C376.3 609.44 366.21 601.71 371.87 592.32C373.197 590.12 375.153 587.843 377.74 585.49C407.927 557.99 434.093 533.907 456.24 513.24C457.3 512.253 458.793 511.197 460.72 510.07C462.093 509.257 463.84 508.833 465.96 508.8C472.31 508.68 474.98 511.99 478.13 517.6C478.23 517.78 478.513 518.017 478.98 518.31L479.26 548C479.263 548.462 479.399 548.913 479.651 549.3C479.902 549.686 480.26 549.992 480.68 550.18C481.76 550.66 483.72 550.98 484.96 550.98C519.22 551.013 553.637 551.033 588.21 551.04C590.09 551.993 591.517 550.977 592.49 547.99C592.863 546.85 593.033 543.44 593 537.76C592.94 525.793 592.91 516.127 592.91 508.76C592.91 502.39 595.03 496.14 601.64 493.22C608.81 490.05 614.33 494.03 619.41 498.69C637.53 515.35 656.63 531.52 674.77 549.29C675.75 550.25 682.55 556.807 695.17 568.96C701.83 575.36 708.67 581.25 713.9 587.29C716.31 590.07 716.49 592.47 716.34 596.3C716.207 599.667 714.62 602.837 711.58 605.81C701.173 615.99 683.293 633.867 657.94 659.44C647.48 669.993 634.797 682.477 619.89 696.89C617.53 699.17 615.4 700.887 613.5 702.04ZM616.03 670.46C616.95 669.673 617.937 668.767 618.99 667.74C646.43 640.733 661.303 626.107 663.61 623.86C671.57 616.113 679.523 608.23 687.47 600.21C688.663 599.003 689.63 597.49 690.37 595.67C690.466 595.434 690.506 595.181 690.487 594.929C690.468 594.677 690.39 594.434 690.26 594.22C689.307 592.653 688.203 591.303 686.95 590.17C674.417 578.837 655.54 561.61 630.32 538.49C625.58 534.15 620.46 530.45 616.57 526.09C616.508 526.022 616.432 525.968 616.347 525.933C616.262 525.898 616.17 525.882 616.078 525.887C615.986 525.892 615.897 525.917 615.816 525.961C615.735 526.004 615.664 526.066 615.61 526.14C615.47 526.327 615.397 526.66 615.39 527.14C615.13 540.9 615.067 551.72 615.2 559.6C615.29 565.26 614.18 572.37 606.99 572.36C555.577 572.307 509.077 572.313 467.49 572.38C457.49 572.39 456.85 566.39 457.07 557.63C457.143 554.817 457.13 551.007 457.03 546.2C457.024 545.982 456.958 545.771 456.84 545.588C456.721 545.405 456.555 545.258 456.359 545.164C456.163 545.069 455.945 545.029 455.728 545.05C455.512 545.07 455.305 545.15 455.13 545.28C453.563 546.46 450.15 549.33 444.89 553.89C442.09 556.317 432.003 565.563 414.63 581.63C407.317 588.403 403.297 592.217 402.57 593.07C400.2 595.87 398.53 599.24 401.6 602.39C411.5 612.56 425.93 624.66 437.13 636.1C443.777 642.887 449.197 648.14 453.39 651.86C454.023 652.413 454.61 652.793 455.15 653C455.275 653.046 455.409 653.062 455.541 653.047C455.673 653.032 455.799 652.987 455.91 652.915C456.021 652.843 456.113 652.747 456.179 652.633C456.245 652.519 456.283 652.391 456.29 652.26C456.623 646.247 456.74 639.83 456.64 633.01C456.51 624.89 459.19 620.12 468 620.13C473.787 620.137 479.787 620.147 486 620.16C520.64 620.2 555.057 620.147 589.25 620C594.783 619.98 599.637 620 603.81 620.06C613.36 620.22 615.02 626.06 615.03 634.5C615.043 644.647 615.09 656.503 615.17 670.07C615.171 670.169 615.2 670.266 615.254 670.35C615.308 670.433 615.385 670.499 615.475 670.54C615.566 670.581 615.666 670.595 615.764 670.581C615.863 670.567 615.955 670.525 616.03 670.46Z" fill="#FFAD0D"/>
<path d="M616.03 670.46C615.955 670.525 615.863 670.567 615.765 670.581C615.666 670.595 615.566 670.581 615.476 670.54C615.385 670.499 615.308 670.433 615.254 670.35C615.2 670.266 615.171 670.169 615.17 670.07C615.09 656.503 615.044 644.647 615.03 634.5C615.02 626.06 613.36 620.22 603.81 620.06C599.637 620 594.784 619.98 589.25 620C555.057 620.147 520.64 620.2 486 620.16C479.787 620.147 473.787 620.137 468 620.13C459.19 620.12 456.51 624.89 456.64 633.01C456.74 639.83 456.624 646.247 456.29 652.26C456.283 652.391 456.245 652.519 456.179 652.633C456.113 652.747 456.021 652.843 455.91 652.915C455.8 652.987 455.673 653.032 455.541 653.047C455.409 653.062 455.275 653.046 455.15 653C454.61 652.793 454.024 652.413 453.39 651.86C449.197 648.14 443.777 642.887 437.13 636.1C425.93 624.66 411.5 612.56 401.6 602.39C398.53 599.24 400.2 595.87 402.57 593.07C403.297 592.217 407.317 588.403 414.63 581.63C432.004 565.563 442.09 556.317 444.89 553.89C450.15 549.33 453.564 546.46 455.13 545.28C455.305 545.15 455.512 545.07 455.729 545.05C455.945 545.029 456.164 545.069 456.359 545.164C456.555 545.258 456.722 545.405 456.84 545.588C456.958 545.771 457.024 545.982 457.03 546.2C457.13 551.007 457.144 554.817 457.07 557.63C456.85 566.39 457.49 572.39 467.49 572.38C509.077 572.313 555.577 572.307 606.99 572.36C614.18 572.37 615.29 565.26 615.2 559.6C615.067 551.72 615.13 540.9 615.39 527.14C615.397 526.66 615.47 526.327 615.61 526.14C615.665 526.066 615.735 526.004 615.816 525.961C615.897 525.917 615.987 525.892 616.078 525.887C616.17 525.882 616.262 525.898 616.347 525.933C616.432 525.968 616.509 526.022 616.57 526.09C620.46 530.45 625.58 534.15 630.32 538.49C655.54 561.61 674.417 578.837 686.95 590.17C688.204 591.303 689.307 592.653 690.26 594.22C690.391 594.434 690.468 594.677 690.487 594.929C690.507 595.181 690.466 595.434 690.37 595.67C689.63 597.49 688.664 599.003 687.47 600.21C679.524 608.23 671.57 616.113 663.61 623.86C661.304 626.107 646.43 640.733 618.99 667.74C617.937 668.767 616.95 669.673 616.03 670.46Z" fill="#FFDE3B"/>
<path d="M541.66 664.26C541.82 706.787 541.853 749.283 541.76 791.75C541.74 800.79 541.79 807.793 541.91 812.76C541.99 815.85 543.08 820.68 546.74 821.25C550.79 821.89 551.98 814.05 552 811.24C552.06 803.47 550.81 797.55 549.35 791.7C547.58 784.65 547.65 777.76 549.1 770.77C552.566 754.037 556.003 738.693 559.41 724.74C559.63 723.82 559.86 722.86 560.1 721.86C561.733 714.98 563.04 710.093 564.02 707.2C564.159 706.789 564.236 706.361 564.25 705.93C564.296 704.363 564.616 703.023 565.21 701.91C565.382 701.579 565.605 701.278 565.87 701.02C568.59 698.347 570.303 695.983 571.01 693.93C572.476 689.657 573.986 685.343 575.54 680.99C575.566 690.957 575.226 700.883 574.52 710.77C574.106 716.577 573.743 722.397 573.43 728.23C572.863 738.743 572.253 748.2 571.6 756.6C571.333 760.013 570.903 763.18 570.31 766.1C568.84 773.32 567.65 778.3 568.93 784.32C568.956 784.427 569.806 787.977 571.48 794.97C574.73 808.54 573.44 823.04 564.44 834.17C561.446 837.87 557.673 840.147 553.12 841C539.6 843.513 529.95 838.58 524.17 826.2C520.05 817.36 520.27 809.06 520.27 797.38C520.276 736.54 520.286 694.093 520.3 670.04C520.3 668.087 521.003 666.583 522.41 665.53C523.436 664.757 525.06 664.34 527.28 664.28C531.866 664.153 536.66 664.147 541.66 664.26Z" fill="#FFAD0D"/>
<path d="M575.54 680.99C573.987 685.343 572.477 689.657 571.01 693.93C570.304 695.983 568.59 698.347 565.87 701.02C565.605 701.278 565.382 701.579 565.21 701.91C564.617 703.023 564.297 704.363 564.25 705.93C564.237 706.361 564.159 706.789 564.02 707.2C563.04 710.093 561.733 714.98 560.1 721.86C559.86 722.86 559.63 723.82 559.41 724.74C556.003 738.693 552.567 754.037 549.1 770.77C547.65 777.76 547.58 784.65 549.35 791.7C550.81 797.55 552.06 803.47 552 811.24C551.98 814.05 550.79 821.89 546.74 821.25C543.08 820.68 541.99 815.85 541.91 812.76C541.79 807.793 541.74 800.79 541.76 791.75C541.854 749.283 541.82 706.787 541.66 664.26C550.22 664.147 559.08 664.17 568.24 664.33C572.347 664.397 574.73 666.42 575.39 670.4C575.67 672.073 575.72 675.603 575.54 680.99Z" fill="#FFDE3B"/>
<path d="M613.499 702.04C615.346 708.573 614.523 714.8 611.029 720.72C610.949 720.853 610.859 720.977 610.759 721.09L606.939 725.26C606.714 725.498 606.408 725.644 606.079 725.67L603.149 725.91L598.869 726.57C599.542 725.163 600.792 722.263 602.619 717.87C604.712 712.817 604.819 707.88 602.939 703.06L613.499 702.04Z" fill="#FFF1AF"/>
<path d="M603.15 725.91C608.62 725.37 615.22 726.76 616.62 732.85C616.679 733.129 616.703 733.415 616.69 733.7C616.17 745.81 614.65 760.07 614.29 772.4C613.69 792.76 613.566 813.043 613.92 833.25C613.946 834.863 613.473 837.353 612.5 840.72C607.213 841.913 602.813 842.083 599.3 841.23C596.106 840.45 594.236 838.06 593.69 834.06C592.916 828.473 592.503 823.287 592.45 818.5C592.383 811.88 592.646 793.887 593.24 764.52C593.39 757.16 594.23 747.72 594.94 741.5C595.506 736.533 596.816 731.557 598.87 726.57L603.15 725.91Z" fill="#FFAD0D"/>
<path d="M731.539 840.41C730.273 840.63 728.696 841.277 726.809 842.35C723.739 844.11 720.729 843.96 717.319 842.36C715.813 841.653 714.359 841.103 712.959 840.71C711.773 837.657 711.189 834.087 711.209 830C711.256 818.46 711.383 806.327 711.589 793.6C711.663 788.98 712.119 785.987 712.959 784.62C717.579 777.12 732.219 779.85 732.199 789.75C732.173 804.817 732.196 819.407 732.269 833.52C732.269 834.453 732.163 835.6 731.949 836.96C731.769 838.127 731.633 839.277 731.539 840.41Z" fill="#FFAD0D"/>
</svg>
