<svg width="1024" height="1024" viewBox="0 0 1024 1024" fill="none" xmlns="http://www.w3.org/2000/svg">
<path d="M493.541 240.96C500.431 244.37 506.811 245.42 514.541 245.83C517.687 245.997 520.804 245.61 523.891 244.67C534.771 241.363 543.294 234.93 549.461 225.37C555.441 216.11 556.091 203.52 554.211 193.4C551.901 181.02 542.691 170.28 531.891 163.62C527.691 161.03 520.391 157.85 514.691 158.43C510.871 158.823 507.731 159.123 505.271 159.33C492.041 160.43 479.301 170.27 473.891 182.46C471.351 188.18 470.014 195.533 469.881 204.52C469.727 214.3 472.681 222.707 478.741 229.74C482.641 234.267 487.574 238.007 493.541 240.96Z" stroke="#FD8415" stroke-width="2"/>
<path d="M220.651 320.3C229.197 325.793 238.011 327.98 247.091 326.86C258.024 325.513 267.411 320.717 275.251 312.47C280.651 306.797 284.144 300.693 285.731 294.16C288.077 284.507 287.624 274.87 284.371 265.25C281.281 256.07 274.791 248 267.331 241.68C260.211 235.65 253.191 234.64 244.521 236.34C240.967 237.04 238.501 237.53 237.121 237.81C227.371 239.78 216.471 245.35 210.361 252.98C206.847 257.367 204.357 261.767 202.891 266.18C201.357 270.807 200.677 278.143 200.851 288.19C200.897 290.943 201.617 294.2 203.011 297.96C206.597 307.613 212.477 315.06 220.651 320.3Z" stroke="#FD8415" stroke-width="2"/>
<path d="M786.02 248.28C779.09 248.97 771.51 251.63 765.59 254.24C754.68 259.05 744.68 268.27 743.41 280.34C742.936 284.767 742.71 289.807 742.73 295.46C742.756 301.7 743.316 306.707 744.41 310.48C747.596 321.433 754.666 329.44 765.62 334.5C768.22 335.7 771.11 336.31 773.3 337.19C784.74 341.8 798.96 335.42 808.08 328.82C815.106 323.747 820.273 317.167 823.58 309.08C825.313 304.833 826.173 299.4 826.16 292.78C826.146 285.367 824.58 278.8 821.46 273.08C815.7 262.527 806.966 254.843 795.26 250.03C791.76 248.597 788.68 248.013 786.02 248.28Z" stroke="#FD8415" stroke-width="2"/>
<path d="M388.73 440.99C385.044 448.657 382.45 454.794 380.95 459.4C378.364 467.347 376.17 476.7 374.37 487.46C372.16 500.64 372.68 512.99 374.95 525.35C377.984 541.897 383.027 557.5 390.08 572.16C396.973 586.507 406.69 599.88 419.23 612.28C422.657 615.674 425.804 618.294 428.67 620.14C434.45 623.88 439.37 627.31 444.63 629.63C459.33 636.097 474.914 640.847 491.38 643.88C493.967 644.36 500.304 644.92 510.39 645.56C515.964 645.914 521.254 645.757 526.26 645.09C539.82 643.3 549.44 641.7 559.33 637.83C560.57 637.344 565.917 635.054 575.37 630.96C580.72 628.64 587.71 624.87 591.4 622.15C604.16 612.75 616.75 601.89 625.94 588.78C638.214 571.28 646.44 552.514 650.62 532.48C652.567 523.127 653.404 514.094 653.13 505.38C652.01 470.28 639.76 434.92 613.43 410.66C607.23 404.947 603.08 401.25 600.98 399.57C594.85 394.65 584.93 387.08 575.37 382.7C564.37 377.667 552.99 373.687 541.23 370.76C533.7 368.88 529.69 367.98 522.63 367.64C511.93 367.12 501.15 367.82 490.6 370.4C490.374 370.46 486.547 371.387 479.12 373.18C473.407 374.56 467.24 376.594 460.62 379.28C456.094 381.114 452.36 382.837 449.42 384.45C440.7 389.25 430.6 393.86 423.47 399.44C414.27 406.66 406.13 414.81 399.05 423.89C395.41 428.557 391.97 434.257 388.73 440.99Z" stroke="#FD7809" stroke-width="2"/>
<path d="M799.63 719.92C811.27 713.17 820.86 702.29 822.74 688.71C824.34 677.13 821.84 663.23 814.95 654.02C810.277 647.773 804.8 642.843 798.52 639.23C793.613 636.397 788.273 635.143 782.5 635.47C777.633 635.743 772.733 636.607 767.8 638.06C760.19 640.31 753.37 642.22 748.07 648.39C746.077 650.717 744.183 653.123 742.39 655.61C737.73 662.077 735.147 669.493 734.64 677.86C733.96 689.03 737.79 698.88 744.59 707.84C751.56 717.03 765.82 725.74 777.53 725.87C785.27 725.957 792.637 723.973 799.63 719.92Z" stroke="#FD8415" stroke-width="2"/>
<path d="M284.57 745.32C286.677 742.753 288.177 740.35 289.07 738.11C297.23 717.68 291.45 693.66 273.56 680.37C269.247 677.163 264.48 675.467 259.26 675.28C255.254 675.14 250.504 675.224 245.01 675.53C242.377 675.677 239.94 676.157 237.7 676.97C230.14 679.703 223.28 684.113 217.12 690.2C212.57 694.7 209.14 702.64 208.23 708.43C207.317 714.21 206.997 719.273 207.27 723.62C207.557 728.187 209.054 732.987 211.76 738.02C214.694 743.467 216.527 746.633 217.26 747.52C224.1 755.74 232.124 760.843 241.33 762.83C249.25 764.537 256.85 763.81 264.13 760.65C272.284 757.11 279.097 752 284.57 745.32Z" stroke="#FD8415" stroke-width="2"/>
<path d="M553.37 795.67C548.84 785.61 542.55 778.37 533.15 772.4C530.117 770.473 526.713 769.17 522.94 768.49C520.24 768.003 516.95 768.067 513.07 768.68C511.563 768.92 508.293 769.38 503.26 770.06C485.15 772.5 472.47 786.19 468.33 803.63C464.883 818.157 467.226 831.147 475.36 842.6C484.82 855.91 504.83 864.96 520.48 860.69C532.84 857.31 546.76 847.3 552.33 834.45C554.403 829.67 555.56 826.6 555.8 825.24C557.5 815.56 557.39 804.6 553.37 795.67Z" stroke="#FD8415" stroke-width="2"/>
<path d="M302.771 315.77C302.618 316.143 302.57 316.552 302.634 316.95C302.697 317.349 302.869 317.722 303.131 318.03C305.331 320.61 307.744 322.976 310.371 325.13C324.551 336.76 339.561 348.37 350.401 357.25C364.241 368.596 378.868 379.733 394.281 390.66C394.67 390.937 395.131 391.094 395.609 391.111C396.087 391.129 396.56 391.007 396.971 390.76C400.311 388.74 403.344 386.423 406.071 383.81C408.464 381.516 410.061 380.04 410.861 379.38C431.151 362.78 456.661 352.19 482.241 346.23C486.761 345.18 490.761 345.1 496.381 344.03C496.72 343.964 497.033 343.801 497.281 343.56C498.561 342.3 499.211 340.86 499.231 339.24C499.518 317.12 499.411 295.823 498.911 275.35C498.838 272.343 498.561 270.126 498.081 268.7C497.211 266.16 491.691 265.03 488.001 263.95C476.851 260.68 467.911 252.94 460.461 244.51C449.428 232.003 444.394 217.333 445.361 200.5C445.741 193.97 446.871 184.72 449.151 178.51C451.224 172.85 454.084 167.586 457.731 162.72C458.604 161.553 460.524 159.306 463.491 155.98C474.151 144.03 488.691 137.22 504.691 135.34C505.584 135.233 508.968 135.236 514.841 135.35C523.191 135.51 529.551 137.63 538.061 141.17C544.481 143.836 549.641 146.976 553.541 150.59C562.441 158.85 571.081 167.97 575.171 179.78C578.901 190.53 579.221 202.53 578.411 214.22C577.978 220.466 575.934 226.91 572.281 233.55C563.341 249.77 548.441 262 530.171 266.13C526.601 266.94 525.821 269.02 525.721 272.68C525.128 294.766 524.934 315.373 525.141 334.5C525.161 336.33 525.331 341.27 527.011 342.96C528.184 344.133 529.458 344.8 530.831 344.96C558.231 348.12 586.101 358.59 608.281 375.73C615.861 381.583 622.438 387.333 628.011 392.98C629.131 394.113 630.348 394.346 631.661 393.68C634.234 392.373 637.368 390.5 641.061 388.06C646.888 384.206 654.368 378.93 663.501 372.23C683.068 357.89 702.191 343.103 720.871 327.87C722.291 326.71 723.114 325.196 723.341 323.33C723.38 322.974 723.339 322.612 723.221 322.27C721.407 317.003 719.834 311.246 718.501 305C716.161 294.02 717.661 282.64 719.921 272.18C721.068 266.866 723.518 261.72 727.271 256.74C731.678 250.88 735.534 246.333 738.841 243.1C749.391 232.77 765.211 227.25 779.491 225.43C782.091 225.096 786.188 225.236 791.781 225.85C795.948 226.303 799.911 227.303 803.671 228.85C814.641 233.35 824.501 238.64 832.151 247.34C837.941 253.91 843.891 262.18 846.801 270.9C848.774 276.833 850.014 282.946 850.521 289.24C851.871 306.04 846.321 320.9 836.361 334.25C828.514 344.776 818.411 352.46 806.051 357.3C804.891 357.753 801.478 358.71 795.811 360.17C791.997 361.15 788.508 361.676 785.341 361.75C778.148 361.91 771.291 360.743 764.771 358.25C756.291 355.01 748.561 351.123 741.581 346.59C741.175 346.326 740.713 346.162 740.232 346.11C739.75 346.058 739.264 346.119 738.811 346.29C737.611 346.73 736.308 347.52 734.901 348.66C717.254 362.953 702.944 374.223 691.971 382.47C688.984 384.71 680.164 391.013 665.511 401.38C660.231 405.11 655.251 407.9 650.041 411.29C647.307 413.076 646.771 415.41 648.431 418.29C653.151 426.45 657.311 433.01 660.651 440.31C666.111 452.23 670.501 464.61 672.791 478.18C673.777 484.033 674.651 490.473 675.411 497.5C675.577 499.046 675.634 502.823 675.581 508.83C675.501 516.45 674.391 523.49 673.381 531.72C672.848 536.06 672.048 540.876 670.981 546.17C668.241 559.76 662.581 572.59 655.891 584.91C655.138 586.296 654.688 588.096 654.541 590.31C654.525 590.544 654.562 590.78 654.648 591.002C654.734 591.223 654.868 591.423 655.041 591.59C657.327 593.776 658.864 595.126 659.651 595.64C679.591 608.59 701.711 623.25 723.851 635.67C725.851 636.79 727.661 636.663 729.281 635.29C741.251 625.16 752.361 615.99 768.571 613.79C774.598 612.976 781.554 612.97 789.441 613.77C804.911 615.36 816.611 622.01 827.761 633C840.074 645.133 846.488 659.966 847.001 677.5C847.014 678.013 846.948 680.916 846.801 686.21C845.981 714.82 825.441 735.21 800.251 745.28C795.904 747.02 791.658 748.103 787.511 748.53C785.051 748.783 780.054 748.776 772.521 748.51C764.251 748.22 757.851 745.53 749.931 741.63C734.778 734.176 723.441 722.41 715.921 706.33C714.141 702.53 713.011 699.173 712.531 696.26C710.984 686.96 710.878 677.126 712.211 666.76C712.771 662.37 712.791 658.51 709.051 656.24C693.941 647.07 684.471 641.84 670.701 632.76C661.474 626.68 653.277 621.48 646.111 617.16C643.738 615.733 641.704 614.653 640.011 613.92C639.518 613.706 638.981 613.611 638.443 613.642C637.904 613.673 637.38 613.83 636.911 614.1C634.904 615.246 632.978 616.76 631.131 618.64C621.071 628.88 613.271 636.36 602.951 642.96C590.964 650.633 577.661 657.243 563.041 662.79C557.967 664.716 553.558 665.973 549.811 666.56C542.384 667.726 535.468 668.72 529.061 669.54C526.671 669.85 525.711 671.36 525.571 673.77C525.184 680.49 525.058 687.15 525.191 693.75C525.504 709.27 525.621 725.34 525.541 741.96C525.527 744.373 526.844 746.056 529.491 747.01C533.091 748.303 536.351 749.476 539.271 750.53C550.031 754.4 559.731 764.01 567.581 773.16C574.151 780.83 578.121 790.55 579.621 799.92C580.611 806.17 581.671 812.27 581.111 818.1C580.164 827.873 577.988 836.373 574.581 843.6C572.494 848.006 569.207 853.103 564.721 858.89C554.281 872.33 538.551 880.32 521.991 883.18C516.731 884.09 510.371 883.77 505.001 883.69C503.001 883.656 499.898 883.026 495.691 881.8C486.938 879.253 478.541 875.336 470.501 870.05C463.101 865.19 458.281 858.89 453.051 850.92C437.151 826.71 440.161 790.5 459.871 769.11C469.651 758.49 481.181 751.97 494.711 747.5C498.421 746.27 499.351 742.82 499.361 738.75C499.381 702.53 499.378 681.446 499.351 675.5C499.344 673.86 499.058 672.36 498.491 671C498.287 670.518 497.97 670.093 497.568 669.76C497.166 669.428 496.69 669.198 496.181 669.09C490.601 667.9 485.211 667.79 479.471 666.54C458.201 661.92 436.831 653.39 419.571 640.05C412.991 634.963 405.511 628.36 397.131 620.24C396.051 619.186 394.758 618.126 393.251 617.06C392.936 616.838 392.566 616.705 392.182 616.673C391.797 616.641 391.41 616.713 391.061 616.88C390.074 617.346 388.941 618.106 387.661 619.16C377.531 627.52 366.591 637.87 355.481 646.71C347.201 653.29 338.821 661.08 329.731 667.9C321.451 674.13 316.421 677.52 308.911 683.19C308.556 683.46 308.304 683.843 308.195 684.275C308.086 684.707 308.127 685.164 308.311 685.57C314.901 700.01 318.361 714.84 315.341 730.55C314.374 735.603 313.134 740.293 311.621 744.62C305.661 761.69 290.501 775.83 273.611 782.11C263.764 785.776 253.644 787.023 243.251 785.85C231.991 784.583 221.451 780.54 211.631 773.72C207.191 770.64 202.061 765.29 199.121 762.13C193.961 756.6 190.881 750.22 187.631 742.58C176.701 716.97 184.831 689.8 203.451 670.4C207.378 666.32 212.578 662.62 219.051 659.3C227.078 655.18 234.128 652.88 240.201 652.4C242.248 652.233 246.768 652.156 253.761 652.17C259.121 652.183 263.564 652.66 267.091 653.6C274.011 655.446 279.878 658.023 284.691 661.33C286.964 662.89 288.854 664.113 290.361 665C290.567 665.12 290.801 665.189 291.041 665.199C291.282 665.21 291.522 665.162 291.741 665.06C298.291 662 305.121 654.94 309.041 652.26C310.388 651.333 313.941 648.556 319.701 643.93C334.528 632.016 351.081 617.913 369.361 601.62C371.714 599.526 373.211 597.216 373.851 594.69C373.994 594.121 373.974 593.521 373.791 592.96C372.898 590.253 372.184 588.483 371.651 587.65C362.791 573.8 357.991 559.09 353.931 542.69C350.371 528.303 348.908 514.49 349.541 501.25C351.041 470.05 360.751 440.66 377.481 415.24C379.421 412.3 378.831 409.72 375.711 407.5C370.261 403.61 365.151 400.45 358.971 395.55C349.921 388.37 340.341 382.24 331.611 374.8C321.351 366.07 301.861 351.34 288.131 338.38C285.961 336.32 284.211 335.93 281.571 337.76C275.561 341.92 269.721 345.46 263.231 346.98C259.691 347.81 255.511 348.65 251.871 348.67C242.718 348.73 236.781 348.63 234.061 348.37C218.241 346.87 202.951 336.93 192.431 325.3C190.211 322.846 187.451 318.746 184.151 313C181.724 308.766 179.991 304.143 178.951 299.13C176.231 285.95 175.671 271.75 180.171 259.4C183.191 251.093 187.231 243.71 192.291 237.25C198.521 229.3 209.191 222.64 217.981 218.73C230.174 213.296 243.071 212.013 256.671 214.88C267.201 217.1 276.291 220.22 284.631 227.11C295.101 235.76 303.681 245.34 307.421 258.37C312.311 275.39 312.201 293.8 305.151 310.18C303.904 313.08 303.111 314.943 302.771 315.77ZM493.541 240.96C500.431 244.37 506.811 245.42 514.541 245.83C517.688 245.996 520.804 245.61 523.891 244.67C534.771 241.363 543.294 234.93 549.461 225.37C555.441 216.11 556.091 203.52 554.211 193.4C551.901 181.02 542.691 170.28 531.891 163.62C527.691 161.03 520.391 157.85 514.691 158.43C510.871 158.823 507.731 159.123 505.271 159.33C492.041 160.43 479.301 170.27 473.891 182.46C471.351 188.18 470.014 195.533 469.881 204.52C469.728 214.3 472.681 222.706 478.741 229.74C482.641 234.266 487.574 238.006 493.541 240.96ZM220.651 320.3C229.198 325.793 238.011 327.98 247.091 326.86C258.024 325.513 267.411 320.716 275.251 312.47C280.651 306.796 284.144 300.693 285.731 294.16C288.078 284.506 287.624 274.87 284.371 265.25C281.281 256.07 274.791 248 267.331 241.68C260.211 235.65 253.191 234.64 244.521 236.34C240.968 237.04 238.501 237.53 237.121 237.81C227.371 239.78 216.471 245.35 210.361 252.98C206.848 257.366 204.358 261.766 202.891 266.18C201.358 270.806 200.678 278.143 200.851 288.19C200.898 290.943 201.618 294.2 203.011 297.96C206.598 307.613 212.478 315.06 220.651 320.3ZM786.021 248.28C779.091 248.97 771.511 251.63 765.591 254.24C754.681 259.05 744.681 268.27 743.411 280.34C742.938 284.766 742.711 289.806 742.731 295.46C742.758 301.7 743.318 306.706 744.411 310.48C747.597 321.433 754.668 329.44 765.621 334.5C768.221 335.7 771.111 336.31 773.301 337.19C784.741 341.8 798.961 335.42 808.081 328.82C815.108 323.746 820.274 317.166 823.581 309.08C825.314 304.833 826.174 299.4 826.161 292.78C826.148 285.366 824.581 278.8 821.461 273.08C815.701 262.526 806.968 254.843 795.261 250.03C791.761 248.596 788.681 248.013 786.021 248.28ZM388.731 440.99C385.044 448.656 382.451 454.793 380.951 459.4C378.364 467.346 376.171 476.7 374.371 487.46C372.161 500.64 372.681 512.99 374.951 525.35C377.984 541.896 383.028 557.5 390.081 572.16C396.974 586.506 406.691 599.88 419.231 612.28C422.658 615.673 425.804 618.293 428.671 620.14C434.451 623.88 439.371 627.31 444.631 629.63C459.331 636.096 474.914 640.846 491.381 643.88C493.968 644.36 500.304 644.92 510.391 645.56C515.964 645.913 521.254 645.756 526.261 645.09C539.821 643.3 549.441 641.7 559.331 637.83C560.571 637.343 565.918 635.053 575.371 630.96C580.721 628.64 587.711 624.87 591.401 622.15C604.161 612.75 616.751 601.89 625.941 588.78C638.214 571.28 646.441 552.513 650.621 532.48C652.568 523.126 653.404 514.093 653.131 505.38C652.011 470.28 639.761 434.92 613.431 410.66C607.231 404.946 603.081 401.25 600.981 399.57C594.851 394.65 584.931 387.08 575.371 382.7C564.371 377.666 552.991 373.686 541.231 370.76C533.701 368.88 529.691 367.98 522.631 367.64C511.931 367.12 501.151 367.82 490.601 370.4C490.374 370.46 486.548 371.386 479.121 373.18C473.408 374.56 467.241 376.593 460.621 379.28C456.094 381.113 452.361 382.836 449.421 384.45C440.701 389.25 430.601 393.86 423.471 399.44C414.271 406.66 406.131 414.81 399.051 423.89C395.411 428.556 391.971 434.256 388.731 440.99ZM799.631 719.92C811.271 713.17 820.861 702.29 822.741 688.71C824.341 677.13 821.841 663.23 814.951 654.02C810.278 647.773 804.801 642.843 798.521 639.23C793.614 636.396 788.274 635.143 782.501 635.47C777.634 635.743 772.734 636.606 767.801 638.06C760.191 640.31 753.371 642.22 748.071 648.39C746.078 650.716 744.184 653.123 742.391 655.61C737.731 662.076 735.148 669.493 734.641 677.86C733.961 689.03 737.791 698.88 744.591 707.84C751.561 717.03 765.821 725.74 777.531 725.87C785.271 725.956 792.638 723.973 799.631 719.92ZM284.571 745.32C286.678 742.753 288.178 740.35 289.071 738.11C297.231 717.68 291.451 693.66 273.561 680.37C269.248 677.163 264.481 675.466 259.261 675.28C255.254 675.14 250.504 675.223 245.011 675.53C242.378 675.676 239.941 676.156 237.701 676.97C230.141 679.703 223.281 684.113 217.121 690.2C212.571 694.7 209.141 702.64 208.231 708.43C207.318 714.21 206.998 719.273 207.271 723.62C207.558 728.186 209.054 732.986 211.761 738.02C214.694 743.466 216.528 746.633 217.261 747.52C224.101 755.74 232.124 760.843 241.331 762.83C249.251 764.536 256.851 763.81 264.131 760.65C272.284 757.11 279.098 752 284.571 745.32ZM553.371 795.67C548.841 785.61 542.551 778.37 533.151 772.4C530.118 770.473 526.714 769.17 522.941 768.49C520.241 768.003 516.951 768.066 513.071 768.68C511.564 768.92 508.294 769.38 503.261 770.06C485.151 772.5 472.471 786.19 468.331 803.63C464.884 818.156 467.228 831.146 475.361 842.6C484.821 855.91 504.831 864.96 520.481 860.69C532.841 857.31 546.761 847.3 552.331 834.45C554.404 829.67 555.561 826.6 555.801 825.24C557.501 815.56 557.391 804.6 553.371 795.67Z" fill="#FA6C05"/>
<path d="M493.541 240.96C487.574 238.007 482.641 234.267 478.741 229.74C472.681 222.707 469.727 214.3 469.881 204.52C470.014 195.533 471.351 188.18 473.891 182.46C479.301 170.27 492.041 160.43 505.271 159.33C507.731 159.123 510.871 158.823 514.691 158.43C520.391 157.85 527.691 161.03 531.891 163.62C542.691 170.28 551.901 181.02 554.211 193.4C556.091 203.52 555.441 216.11 549.461 225.37C543.294 234.93 534.771 241.363 523.891 244.67C520.804 245.61 517.687 245.997 514.541 245.83C506.811 245.42 500.431 244.37 493.541 240.96Z" fill="#FF9C25"/>
<path d="M220.651 320.3C212.477 315.06 206.597 307.613 203.011 297.96C201.617 294.2 200.897 290.943 200.851 288.19C200.677 278.143 201.357 270.807 202.891 266.18C204.357 261.767 206.847 257.367 210.361 252.98C216.471 245.35 227.371 239.78 237.121 237.81C238.501 237.53 240.967 237.04 244.521 236.34C253.191 234.64 260.211 235.65 267.331 241.68C274.791 248 281.281 256.07 284.371 265.25C287.624 274.87 288.077 284.507 285.731 294.16C284.144 300.693 280.651 306.797 275.251 312.47C267.411 320.717 258.024 325.513 247.091 326.86C238.011 327.98 229.197 325.793 220.651 320.3Z" fill="#FF9C25"/>
<path d="M786.02 248.28C788.68 248.013 791.76 248.597 795.26 250.03C806.966 254.843 815.7 262.527 821.46 273.08C824.58 278.8 826.146 285.367 826.16 292.78C826.173 299.4 825.313 304.833 823.58 309.08C820.273 317.167 815.106 323.747 808.08 328.82C798.96 335.42 784.74 341.8 773.3 337.19C771.11 336.31 768.22 335.7 765.62 334.5C754.666 329.44 747.596 321.433 744.41 310.48C743.316 306.707 742.756 301.7 742.73 295.46C742.71 289.807 742.936 284.767 743.41 280.34C744.68 268.27 754.68 259.05 765.59 254.24C771.51 251.63 779.09 248.97 786.02 248.28Z" fill="#FF9C25"/>
<path d="M399.05 423.89C406.13 414.81 414.27 406.66 423.47 399.44C430.6 393.86 440.7 389.25 449.42 384.45C452.36 382.836 456.094 381.113 460.62 379.28C467.24 376.593 473.407 374.56 479.12 373.18C486.547 371.386 490.374 370.46 490.6 370.4C501.15 367.82 511.93 367.12 522.63 367.64C529.69 367.98 533.7 368.88 541.23 370.76C552.99 373.686 564.37 377.666 575.37 382.7C584.93 387.08 594.85 394.65 600.98 399.57C603.08 401.25 607.23 404.946 613.43 410.66C639.76 434.92 652.01 470.28 653.13 505.38C653.404 514.093 652.567 523.126 650.62 532.48C646.44 552.513 638.214 571.28 625.94 588.78C616.75 601.89 604.16 612.75 591.4 622.15C587.71 624.87 580.72 628.64 575.37 630.96C565.917 635.053 560.57 637.343 559.33 637.83C549.44 641.7 539.82 643.3 526.26 645.09C521.254 645.757 515.964 645.913 510.39 645.56C500.304 644.92 493.967 644.36 491.38 643.88C474.914 640.846 459.33 636.096 444.63 629.63C439.37 627.31 434.45 623.88 428.67 620.14C425.804 618.293 422.657 615.673 419.23 612.28C406.69 599.88 396.973 586.506 390.08 572.16C383.027 557.5 377.984 541.896 374.95 525.35C372.68 512.99 372.16 500.64 374.37 487.46C376.17 476.7 378.364 467.346 380.95 459.4C382.45 454.793 385.044 448.656 388.73 440.99C391.97 434.256 395.41 428.556 399.05 423.89Z" fill="#FF840C"/>
<path d="M799.63 719.92C792.637 723.973 785.27 725.957 777.53 725.87C765.82 725.74 751.56 717.03 744.59 707.84C737.79 698.88 733.96 689.03 734.64 677.86C735.147 669.493 737.73 662.077 742.39 655.61C744.183 653.123 746.077 650.717 748.07 648.39C753.37 642.22 760.19 640.31 767.8 638.06C772.733 636.607 777.633 635.743 782.5 635.47C788.273 635.143 793.613 636.397 798.52 639.23C804.8 642.843 810.277 647.773 814.95 654.02C821.84 663.23 824.34 677.13 822.74 688.71C820.86 702.29 811.27 713.17 799.63 719.92Z" fill="#FF9C25"/>
<path d="M284.57 745.32C279.097 752 272.284 757.11 264.13 760.65C256.85 763.81 249.25 764.537 241.33 762.83C232.124 760.843 224.1 755.74 217.26 747.52C216.527 746.633 214.694 743.467 211.76 738.02C209.054 732.987 207.557 728.187 207.27 723.62C206.997 719.273 207.317 714.21 208.23 708.43C209.14 702.64 212.57 694.7 217.12 690.2C223.28 684.113 230.14 679.703 237.7 676.97C239.94 676.157 242.377 675.677 245.01 675.53C250.504 675.224 255.254 675.14 259.26 675.28C264.48 675.467 269.247 677.163 273.56 680.37C291.45 693.66 297.23 717.68 289.07 738.11C288.177 740.35 286.677 742.753 284.57 745.32Z" fill="#FF9C25"/>
<path d="M533.15 772.4C542.55 778.37 548.84 785.61 553.37 795.67C557.39 804.6 557.5 815.56 555.8 825.24C555.56 826.6 554.403 829.67 552.33 834.45C546.76 847.3 532.84 857.31 520.48 860.69C504.83 864.96 484.82 855.91 475.36 842.6C467.226 831.147 464.883 818.157 468.33 803.63C472.47 786.19 485.15 772.5 503.26 770.06C508.293 769.38 511.563 768.92 513.07 768.68C516.95 768.067 520.24 768.003 522.94 768.49C526.713 769.17 530.117 770.473 533.15 772.4Z" fill="#FF9C25"/>
</svg>
