<svg width="1024" height="1024" viewBox="0 0 1024 1024" fill="none" xmlns="http://www.w3.org/2000/svg">
<path d="M213.449 450.2C217.559 482.12 228.989 513.13 245.139 540.87C252.833 554.077 263.173 569.527 276.159 587.22" stroke="#9BE0D5" stroke-width="2"/>
<path d="M276.16 587.22C280.567 593.687 285.817 601.81 291.91 611.59C301.603 627.143 308.64 643.54 313.02 660.78" stroke="#94E0D2" stroke-width="2"/>
<path d="M313.02 660.78C314.986 669.66 316.31 678.673 316.99 687.82" stroke="#8ADFCF" stroke-width="2"/>
<path d="M316.99 687.82C317.09 698.44 317.046 705.437 316.86 708.81C316.54 714.637 315.476 723.443 313.67 735.23C311.096 752.043 306.246 771.86 299.12 794.68C290.38 822.693 279.376 851.293 266.11 880.48C266.08 880.546 266.066 880.618 266.071 880.689C266.076 880.761 266.099 880.831 266.138 880.892C266.177 880.952 266.23 881.002 266.294 881.037C266.357 881.072 266.428 881.09 266.5 881.09H557.01C557.25 881.091 557.483 881.005 557.667 880.85C557.85 880.694 557.972 880.478 558.01 880.24L568.9 816.36C568.978 815.91 568.929 815.448 568.76 815.025C568.59 814.603 568.306 814.237 567.94 813.97C563.053 810.39 558.49 806.817 554.25 803.25C530.696 783.45 509.236 761.41 489.87 737.13C482.51 727.903 476.033 717.97 470.44 707.33C468.06 702.79 465.7 696.89 468.78 692.15" stroke="#7BDCCB" stroke-width="2"/>
<path d="M468.779 692.15C471.106 689.757 473.899 689.187 477.159 690.44C479.153 691.213 480.526 691.96 481.279 692.68C485.199 696.427 488.709 699.75 491.809 702.65C497.969 708.417 505.713 714.537 515.039 721.01C520.619 724.877 525.803 727.937 530.589 730.19C536.529 732.99 543.443 735.717 551.329 738.37C570.329 744.757 590.659 750.43 612.319 755.39C633.539 760.25 655.019 764.357 676.759 767.71C685.813 769.11 693.216 769.88 698.969 770.02C716.059 770.44 731.609 764 739.619 748.39C742.886 742.023 744.456 735.343 744.329 728.35C744.229 722.79 743.849 718.29 743.039 712C742.409 707.09 742.489 699.96 743.679 695.05C746.219 684.58 751.789 678.61 759.359 670.13C762.159 667 761.299 662.78 759.449 659.29C758.196 656.93 756.263 653.573 753.649 649.22C753.41 648.822 753.222 648.398 753.089 647.96C749.209 635.42 758.589 631.38 768.429 628.44C768.913 628.296 769.346 628.019 769.68 627.64C770.014 627.262 770.236 626.798 770.319 626.3C771.099 621.85 769.309 616.9 768.089 612.64" stroke="#8ADFCF" stroke-width="2"/>
<path d="M768.089 612.64C766.139 604.82 765.848 595.22 768.718 587.45C773.448 574.68 787.189 573.06 798.819 571.57C800.065 571.41 803.252 570.837 808.379 569.85C814.132 568.75 818.632 566.047 821.879 561.74C825.359 557.11 825.978 552.34 822.928 547.31C816.428 536.597 806.289 519.57 792.509 496.23" stroke="#94E0D2" stroke-width="2"/>
<path d="M792.509 496.23C784.936 483.61 777.376 470.953 769.829 458.26C767.063 453.613 765.183 449.627 764.189 446.3C761.759 438.15 761.679 430.65 761.829 421.53" stroke="#9BE0D5" stroke-width="2"/>
<path d="M761.829 421.53C762.489 407.85 764.129 392.97 763.909 380.48C763.729 369.953 763.003 359.79 761.729 349.99C757.896 320.537 748.813 292.727 734.479 266.56C709.399 220.77 668.479 183.7 621.159 161.83C550.149 129 468.099 126.35 394.659 152.21C368.093 161.563 343.863 174.24 321.969 190.24C288.443 214.747 261.933 245.64 242.439 282.92C218.519 328.66 208.209 381.64 211.629 433.5C211.996 439.127 212.603 444.693 213.449 450.2" stroke="#A6E0D8" stroke-width="2"/>
<path d="M761.83 421.53C754.783 422.623 749.977 423.113 747.41 423C741.517 422.733 735.63 422.74 729.75 423.02C721.5 423.41 712.92 425.3 704.49 426.85C698.677 427.923 693.18 427.23 688 424.77" stroke="#F5FFFC" stroke-width="2"/>
<path d="M687.999 424.77C693.505 418.603 698.075 411.993 701.709 404.94C721.039 367.35 708.069 324.22 674.219 300.52C668.152 296.273 661.562 293.027 654.449 290.78C653.947 290.623 653.498 290.33 653.154 289.932C652.809 289.535 652.582 289.049 652.499 288.53C651.979 285.32 652.179 282.19 651.529 279.14C647.549 260.673 638.705 245.867 624.999 234.72C608.012 220.907 588.082 214.98 565.209 216.94C559.862 217.4 554.899 218.287 550.319 219.6C550.006 219.69 549.674 219.682 549.368 219.577C549.062 219.471 548.796 219.273 548.609 219.01C537.855 204.103 524.022 194.223 507.109 189.37C475.509 180.31 441.809 192.55 423.849 219.82C423.115 220.933 422.042 221.2 420.629 220.62C408.439 215.56 394.279 215.56 381.519 218.43C374.432 220.03 367.659 222.667 361.199 226.34C337.559 239.78 322.619 263.58 320.739 290.94C320.73 291.089 320.681 291.234 320.599 291.358C320.516 291.483 320.402 291.584 320.269 291.65C319.689 291.937 318.289 292.56 316.069 293.52C297.875 301.373 284.009 313.913 274.469 331.14C268.235 342.393 264.725 354.513 263.939 367.5C262.772 386.68 267.442 404.29 277.949 420.33C282.175 426.79 287.095 432.597 292.709 437.75" stroke="#A6E0D8" stroke-width="2"/>
<path d="M292.709 437.75C284.909 448.85 275.179 452.68 261.419 456.13C249.919 459.01 236.719 460.67 225.569 456.55C221.903 455.197 217.863 453.08 213.449 450.2" stroke="#F5FFFC" stroke-width="2"/>
<path d="M463.95 545.67C455.077 548.69 446.71 550.513 438.85 551.14C417.957 552.807 404.753 553.883 399.24 554.37C387.83 555.39 369.17 559.05 357.71 560.78C344.197 562.82 336.06 564.123 333.3 564.69C319.933 567.437 307.273 571.713 295.32 577.52C288.833 580.673 282.447 583.907 276.16 587.22" stroke="#E3FFF6" stroke-width="2"/>
<path d="M792.509 496.23C791.669 503.66 788.549 506.53 780.799 506.14C771.139 505.66 761.596 506.087 752.169 507.42C737.279 509.52 723.259 509.71 707.849 510.59C702.836 510.87 691.272 512.153 673.159 514.44C667.932 515.093 658.466 516.083 644.759 517.41C639.929 517.87 633.749 518.72 630.159 519.72C624.186 521.393 616.576 523.183 607.329 525.09C601.196 526.35 595.292 526.283 589.619 524.89" stroke="#E3FFF6" stroke-width="2"/>
<path d="M687.999 424.77C678.025 435.477 666.672 442.95 653.939 447.19C636.279 453.07 617.819 455.17 598.569 455.25C598.187 455.251 597.815 455.369 597.504 455.589C597.192 455.81 596.956 456.121 596.829 456.48C594.415 463.327 591.325 469.633 587.559 475.4C587.398 475.646 587.325 475.939 587.351 476.232C587.376 476.525 587.498 476.803 587.699 477.02C590.532 480.087 595.425 485.84 602.379 494.28C606.785 499.64 606.909 505.043 602.749 510.49C599.662 514.53 595.285 519.33 589.619 524.89" stroke="#9BE0D5" stroke-width="2"/>
<path d="M589.619 524.89C583.899 530.97 578.649 538.02 570.569 536.52C568.489 536.133 565.639 534.497 562.019 531.61C556.259 527.01 551.289 523.63 545.589 520.71C545.277 520.553 544.931 520.472 544.582 520.476C544.232 520.479 543.888 520.566 543.579 520.73C536.766 524.383 529.603 527.103 522.089 528.89C521.727 528.977 521.396 529.161 521.132 529.422C520.867 529.683 520.68 530.01 520.589 530.37C518.556 538.383 516.563 547.113 514.609 556.56C513.189 563.407 509.043 566.71 502.169 566.47C491.216 566.09 482.326 565.767 475.499 565.5C470.519 565.31 467.549 562.43 466.119 557.6C464.979 553.76 464.256 549.783 463.949 545.67" stroke="#94E0D2" stroke-width="2"/>
<path d="M463.949 545.67L461.209 528.97C461.173 528.742 461.073 528.529 460.921 528.355C460.769 528.182 460.57 528.055 460.349 527.99C452.196 525.597 444.299 522.277 436.659 518.03C436.408 517.889 436.123 517.823 435.836 517.839C435.549 517.855 435.272 517.952 435.039 518.12C429.809 521.86 423.249 525.87 416.829 530.4C411.379 534.25 404.549 536.34 398.829 531.71C395.842 529.297 389.566 523.293 379.999 513.7C375.689 509.39 373.859 506.35 374.619 500.64C374.886 498.6 376.779 495.64 380.299 491.76C384.566 487.06 388.969 482.277 393.509 477.41C393.677 477.234 393.779 477.005 393.799 476.762C393.819 476.518 393.756 476.274 393.619 476.07C389.229 469.42 384.779 461.53 383.729 453.92C383.703 453.741 383.617 453.576 383.486 453.453C383.355 453.329 383.187 453.254 383.009 453.24L373.929 452.5C373.796 452.493 373.662 452.5 373.529 452.52C368.429 453.547 363.919 454.367 359.999 454.98C352.852 456.093 344.769 456.57 335.749 456.41C319.819 456.13 304.549 448.35 292.709 437.75" stroke="#9BE0D5" stroke-width="2"/>
<path d="M768.09 612.64C760.76 619.68 753.45 624.71 742.81 623.63C738.83 623.23 735.79 622.04 730.45 620.43C724.76 618.71 719.05 617.76 713.3 617.42C696.44 616.427 679.223 617.143 661.65 619.57C654.936 620.497 646.293 622.117 635.72 624.43C629.966 625.697 625.09 626.387 621.09 626.5C609.396 626.84 600.54 627.15 594.52 627.43C580.9 628.07 563.9 627.86 549.97 629.11C539.303 630.057 521.76 631.807 497.34 634.36C478.45 636.34 459.38 639.85 440.61 642.01C438.816 642.217 424.873 643.71 398.78 646.49C384.63 648.01 372.6 648.17 358.43 649.03C345.863 649.79 333.83 652.45 322.33 657.01C319.196 658.25 316.093 659.507 313.02 660.78" stroke="#D2FFF0" stroke-width="2"/>
<path d="M468.78 692.15C443.58 696.763 425.054 699.973 413.2 701.78C396.427 704.34 375.79 706.19 351.29 707.33C339.11 707.89 328.54 707.43 317.77 701.36C317.651 701.293 317.552 701.196 317.482 701.081C317.411 700.965 317.373 700.834 317.37 700.7L316.99 687.82" stroke="#B9FBE9" stroke-width="2"/>
<path d="M634.129 426.38C640.916 425.56 647.243 423.533 653.109 420.3C668.829 411.62 678.876 398.603 683.249 381.25C686.279 369.23 685.889 357 680.529 345.5C672.299 327.81 657.209 316.37 637.909 313.98C630.329 313.03 625.349 308.91 626.419 300.42C627.513 291.813 627.039 284.123 624.999 277.35C620.479 262.29 608.059 250.11 593.219 244.76C578.729 239.54 562.649 241.72 548.759 248.28C546.219 249.473 544.173 250.063 542.619 250.05C535.369 249.97 533.609 244.17 530.779 237.97C524.579 224.4 510.129 214.16 495.389 212.29C488.796 211.45 482.539 211.563 476.619 212.63C460.399 215.54 446.249 226.8 440.359 242.17C439.059 245.583 438.149 247.557 437.629 248.09C434.329 251.52 428.029 252.92 424.359 250.83C415.639 245.83 408.909 241.59 398.269 241.66C384.649 241.753 372.696 246.67 362.409 256.41C355.003 263.423 350.123 272.447 347.769 283.48C346.459 289.63 346.809 296.51 346.429 303.72C346.216 307.833 344.636 310.977 341.689 313.15C340.469 314.057 337.789 314.887 333.649 315.64C322.139 317.73 311.579 323.17 304.109 332.09C297.503 339.99 293.083 348.963 290.849 359.01C289.459 365.31 289.509 373.02 289.829 379.23C290.629 394.32 298.009 408.53 309.039 418.7C319.419 428.267 331.739 432.327 345.999 430.88C346.137 430.867 346.265 430.801 346.357 430.695C346.448 430.589 346.495 430.451 346.489 430.31C346.176 423.23 346.156 416.207 346.429 409.24C346.709 402.18 350.256 397.877 357.069 396.33C359.069 395.883 366.323 394.39 378.829 391.85C381.269 391.35 383.049 391.15 383.589 389.06C385.763 380.653 389.066 372.787 393.499 365.46C393.585 365.317 393.626 365.151 393.617 364.984C393.609 364.817 393.55 364.655 393.449 364.52C390.589 360.727 385.603 354.36 378.489 345.42C372.869 338.35 376.539 331.1 382.269 325.5C388.689 319.22 392.499 315.437 393.699 314.15C399.009 308.41 403.399 305.56 410.179 309.59C418.139 314.323 426.099 318.623 434.059 322.49C434.201 322.556 434.354 322.592 434.509 322.595C434.664 322.599 434.817 322.57 434.959 322.51C435.499 322.283 436.696 321.713 438.549 320.8C445.716 317.28 452.613 314.7 459.239 313.06C459.519 312.991 459.774 312.846 459.975 312.641C460.177 312.436 460.317 312.179 460.379 311.9C462.793 301.3 464.439 293.457 465.319 288.37C466.509 281.46 468.779 276.61 475.879 276.11C478.753 275.903 487.599 275.983 502.419 276.35C513.129 276.62 514.309 281.41 516.309 291.7C517.576 298.227 518.829 304.147 520.069 309.46C520.379 310.77 520.619 312.47 521.999 312.84C530.833 315.227 538.919 318.547 546.259 322.8C546.423 322.894 546.61 322.942 546.799 322.94C546.989 322.939 547.175 322.887 547.339 322.79C553.939 318.87 559.669 315.063 564.529 311.37C569.659 307.48 573.879 305.93 579.269 308.95C581.069 309.957 582.206 310.693 582.679 311.16C591.599 320.067 597.586 326.33 600.639 329.95C605.173 335.323 605.206 340.833 600.739 346.48C595.786 352.74 590.969 358.683 586.289 364.31C586.139 364.49 586.051 364.713 586.036 364.947C586.022 365.181 586.083 365.413 586.209 365.61C590.816 372.71 594.189 379.74 596.329 386.7C596.989 388.853 597.513 390.457 597.899 391.51C597.953 391.657 598.049 391.785 598.175 391.878C598.302 391.971 598.453 392.023 598.609 392.03C608.249 392.317 617.539 394.067 626.479 397.28C630.959 398.89 633.269 404.39 633.459 408.76C633.693 414.033 633.666 419.673 633.379 425.68C633.374 425.778 633.391 425.875 633.427 425.966C633.464 426.056 633.52 426.138 633.591 426.205C633.663 426.271 633.748 426.322 633.841 426.352C633.934 426.382 634.032 426.392 634.129 426.38Z" stroke="#8ADFCF" stroke-width="2"/>
<path d="M523.747 371.595C511.178 362.696 495.575 359.172 480.371 361.799C465.168 364.426 451.609 372.989 442.677 385.604C438.254 391.85 435.101 398.903 433.397 406.36C431.692 413.817 431.471 421.533 432.744 429.065C434.018 436.598 436.762 443.801 440.819 450.262C444.877 456.724 450.169 462.318 456.392 466.724C468.962 475.624 484.565 479.148 499.768 476.521C514.972 473.894 528.531 465.331 537.463 452.716C541.886 446.47 545.039 439.417 546.743 431.96C548.447 424.502 548.669 416.787 547.395 409.255C546.122 401.722 543.378 394.519 539.32 388.057C535.263 381.596 529.971 376.002 523.747 371.595Z" stroke="#A6E0D8" stroke-width="2"/>
<path d="M792.949 599.95C792.089 601.557 791.932 603.247 792.479 605.02C795.119 613.59 797.489 622.02 796.169 630.75C794.876 639.277 790.909 645.51 784.269 649.45C783.858 649.697 783.548 650.08 783.395 650.533C783.241 650.985 783.253 651.477 783.429 651.92C784.319 654.17 786.009 657.75 786.599 660.53C789.039 672.04 784.659 680.72 776.889 688.82C773.719 692.13 769.429 696.51 767.919 700.91C767.74 701.435 767.619 701.975 767.559 702.52C767.312 704.78 767.759 710.1 768.899 718.48C773.399 751.43 754.499 782.22 722.219 791.72C712.399 794.607 702.076 795.437 691.249 794.21C678.729 792.783 668.922 791.503 661.829 790.37C651.176 788.663 642.779 787.42 636.639 786.64C623.669 785.01 611.569 788.18 603.759 798.61C601.626 801.457 599.459 807.11 597.259 815.57C591.499 837.68 587.689 857.5 583.719 880.69C582.386 888.477 581.116 893.28 579.909 895.1C577.149 899.253 573.472 902.293 568.879 904.22C566.799 905.093 563.262 905.523 558.269 905.51C536.182 905.43 440.709 905.46 271.849 905.6C264.462 905.607 260.076 905.497 258.689 905.27C247.039 903.4 239.469 892.78 240.889 881.16C241.282 877.92 242.206 874.58 243.659 871.14C247.869 861.14 254.739 846.13 258.899 835.51C269.846 807.603 278.429 780.497 284.649 754.19C288.469 738.003 290.856 721.273 291.809 704C293.102 680.387 288.652 658.483 278.459 638.29C265.989 613.58 248.369 591.77 233.599 569.67C222.719 553.383 213.402 535.787 205.649 516.88C190.889 480.88 184.226 443.087 185.659 403.5C187.679 347.7 203.236 296.397 232.329 249.59C302.139 137.31 440.009 89.47 566.599 116.71C605.986 125.19 641.809 140.603 674.069 162.95C691.216 174.823 707.139 188.987 721.839 205.44C769.149 258.39 793.369 328.94 788.459 399.75C787.752 409.95 787.279 419.283 787.039 427.75C786.799 436.33 789.669 443.18 794.679 451.45C799.532 459.457 816.656 488.377 846.049 538.21C850.469 545.703 851.362 554.143 848.729 563.53C842.059 587.31 821.699 594.87 799.239 597.49C797.399 597.703 795.539 598.29 793.659 599.25C793.359 599.406 793.112 599.65 792.949 599.95ZM213.449 450.2C217.559 482.12 228.989 513.13 245.139 540.87C252.832 554.077 263.172 569.527 276.159 587.22C280.566 593.687 285.816 601.81 291.909 611.59C301.602 627.143 308.639 643.54 313.019 660.78C314.986 669.66 316.309 678.673 316.989 687.82C317.089 698.44 317.046 705.437 316.859 708.81C316.539 714.637 315.476 723.443 313.669 735.23C311.096 752.043 306.246 771.86 299.119 794.68C290.379 822.693 279.376 851.293 266.109 880.48C266.079 880.545 266.066 880.617 266.071 880.689C266.076 880.761 266.098 880.831 266.137 880.892C266.176 880.952 266.23 881.002 266.293 881.037C266.356 881.072 266.427 881.09 266.499 881.09H557.009C557.25 881.091 557.483 881.005 557.666 880.849C557.849 880.694 557.971 880.477 558.009 880.24L568.899 816.36C568.977 815.91 568.929 815.448 568.759 815.025C568.589 814.603 568.305 814.237 567.939 813.97C563.052 810.39 558.489 806.817 554.249 803.25C530.696 783.45 509.236 761.41 489.869 737.13C482.509 727.903 476.032 717.97 470.439 707.33C468.059 702.79 465.699 696.89 468.779 692.15C471.106 689.757 473.899 689.187 477.159 690.44C479.152 691.213 480.526 691.96 481.279 692.68C485.199 696.427 488.709 699.75 491.809 702.65C497.969 708.417 505.712 714.537 515.039 721.01C520.619 724.877 525.802 727.937 530.589 730.19C536.529 732.99 543.442 735.717 551.329 738.37C570.329 744.757 590.659 750.43 612.319 755.39C633.539 760.25 655.019 764.357 676.759 767.71C685.812 769.11 693.216 769.88 698.969 770.02C716.059 770.44 731.609 764 739.619 748.39C742.886 742.023 744.456 735.343 744.329 728.35C744.229 722.79 743.849 718.29 743.039 712C742.409 707.09 742.489 699.96 743.679 695.05C746.219 684.58 751.789 678.61 759.359 670.13C762.159 667 761.299 662.78 759.449 659.29C758.196 656.93 756.262 653.573 753.649 649.22C753.41 648.821 753.222 648.398 753.089 647.96C749.209 635.42 758.589 631.38 768.429 628.44C768.913 628.296 769.346 628.018 769.68 627.64C770.014 627.262 770.235 626.798 770.319 626.3C771.099 621.85 769.309 616.9 768.089 612.64C766.139 604.82 765.849 595.22 768.719 587.45C773.449 574.68 787.189 573.06 798.819 571.57C800.066 571.41 803.252 570.837 808.379 569.85C814.132 568.75 818.632 566.047 821.879 561.74C825.359 557.11 825.979 552.34 822.929 547.31C816.429 536.597 806.289 519.57 792.509 496.23C784.936 483.61 777.376 470.953 769.829 458.26C767.062 453.613 765.182 449.627 764.189 446.3C761.759 438.15 761.679 430.65 761.829 421.53C762.489 407.85 764.129 392.97 763.909 380.48C763.729 369.953 763.002 359.79 761.729 349.99C757.896 320.537 748.812 292.727 734.479 266.56C709.399 220.77 668.479 183.7 621.159 161.83C550.149 129 468.099 126.35 394.659 152.21C368.092 161.563 343.862 174.24 321.969 190.24C288.442 214.747 261.932 245.64 242.439 282.92C218.519 328.66 208.209 381.64 211.629 433.5C211.996 439.127 212.602 444.693 213.449 450.2Z" fill="#4CC0B1"/>
<path d="M761.829 421.53C754.783 422.623 749.976 423.113 747.409 423C741.516 422.733 735.629 422.74 729.749 423.02C721.499 423.41 712.919 425.3 704.489 426.85C698.676 427.923 693.179 427.23 687.999 424.77C693.506 418.603 698.076 411.993 701.709 404.94C721.039 367.35 708.069 324.22 674.219 300.52C668.153 296.273 661.563 293.027 654.449 290.78C653.947 290.623 653.499 290.33 653.155 289.932C652.81 289.535 652.583 289.049 652.499 288.53C651.979 285.32 652.179 282.19 651.529 279.14C647.549 260.673 638.706 245.867 624.999 234.72C608.013 220.907 588.083 214.98 565.209 216.94C559.863 217.4 554.899 218.287 550.319 219.6C550.007 219.69 549.675 219.682 549.369 219.576C549.062 219.471 548.797 219.273 548.609 219.01C537.856 204.103 524.023 194.223 507.109 189.37C475.509 180.31 441.809 192.55 423.849 219.82C423.116 220.933 422.043 221.2 420.629 220.62C408.439 215.56 394.279 215.56 381.519 218.43C374.433 220.03 367.659 222.667 361.199 226.34C337.559 239.78 322.619 263.58 320.739 290.94C320.73 291.089 320.682 291.233 320.6 291.358C320.517 291.483 320.403 291.583 320.269 291.65C319.689 291.937 318.289 292.56 316.069 293.52C297.876 301.373 284.009 313.913 274.469 331.14C268.236 342.393 264.726 354.513 263.939 367.5C262.773 386.68 267.443 404.29 277.949 420.33C282.176 426.79 287.096 432.597 292.709 437.75C284.909 448.85 275.179 452.68 261.419 456.13C249.919 459.01 236.719 460.67 225.569 456.55C221.903 455.197 217.863 453.08 213.449 450.2C212.603 444.693 211.996 439.127 211.629 433.5C208.209 381.64 218.519 328.66 242.439 282.92C261.933 245.64 288.443 214.747 321.969 190.24C343.863 174.24 368.093 161.563 394.659 152.21C468.099 126.35 550.149 129 621.159 161.83C668.479 183.7 709.399 220.77 734.479 266.56C748.813 292.727 757.896 320.537 761.729 349.99C763.003 359.79 763.729 369.953 763.909 380.48C764.129 392.97 762.489 407.85 761.829 421.53Z" fill="white"/>
<path d="M688.001 424.77C678.027 435.477 666.674 442.95 653.941 447.19C636.281 453.07 617.821 455.17 598.571 455.25C598.189 455.251 597.817 455.369 597.506 455.589C597.194 455.81 596.958 456.121 596.831 456.48C594.417 463.327 591.327 469.633 587.561 475.4C587.4 475.646 587.327 475.939 587.353 476.232C587.378 476.525 587.5 476.803 587.701 477.02C590.534 480.087 595.427 485.84 602.381 494.28C606.787 499.64 606.911 505.043 602.751 510.49C599.664 514.53 595.287 519.33 589.621 524.89C583.901 530.97 578.651 538.02 570.571 536.52C568.491 536.133 565.641 534.497 562.021 531.61C556.261 527.01 551.291 523.63 545.591 520.71C545.278 520.553 544.933 520.472 544.583 520.476C544.233 520.479 543.89 520.567 543.581 520.73C536.767 524.383 529.604 527.103 522.091 528.89C521.729 528.977 521.397 529.161 521.133 529.422C520.869 529.683 520.681 530.011 520.591 530.37C518.557 538.383 516.564 547.113 514.611 556.56C513.191 563.407 509.044 566.71 502.171 566.47C491.217 566.09 482.327 565.767 475.501 565.5C470.521 565.31 467.551 562.43 466.121 557.6C464.981 553.76 464.257 549.783 463.951 545.67L461.211 528.97C461.175 528.742 461.075 528.529 460.922 528.356C460.77 528.182 460.572 528.055 460.351 527.99C452.197 525.597 444.301 522.277 436.661 518.03C436.41 517.889 436.124 517.823 435.837 517.839C435.55 517.855 435.274 517.952 435.041 518.12C429.811 521.86 423.251 525.87 416.831 530.4C411.381 534.25 404.551 536.34 398.831 531.71C395.844 529.297 389.567 523.293 380.001 513.7C375.691 509.39 373.861 506.35 374.621 500.64C374.887 498.6 376.781 495.64 380.301 491.76C384.567 487.06 388.971 482.277 393.511 477.41C393.678 477.234 393.781 477.005 393.801 476.762C393.821 476.518 393.757 476.274 393.621 476.07C389.231 469.42 384.781 461.53 383.731 453.92C383.704 453.741 383.619 453.576 383.488 453.453C383.357 453.329 383.189 453.254 383.011 453.24L373.931 452.5C373.798 452.493 373.664 452.5 373.531 452.52C368.431 453.547 363.921 454.367 360.001 454.98C352.854 456.093 344.771 456.57 335.751 456.41C319.821 456.13 304.551 448.35 292.711 437.75C287.097 432.597 282.177 426.79 277.951 420.33C267.444 404.29 262.774 386.68 263.941 367.5C264.727 354.513 268.237 342.393 274.471 331.14C284.011 313.913 297.877 301.373 316.071 293.52C318.291 292.56 319.691 291.937 320.271 291.65C320.404 291.584 320.518 291.483 320.601 291.358C320.683 291.234 320.732 291.089 320.741 290.94C322.621 263.58 337.561 239.78 361.201 226.34C367.661 222.667 374.434 220.03 381.521 218.43C394.281 215.56 408.441 215.56 420.631 220.62C422.044 221.2 423.117 220.933 423.851 219.82C441.811 192.55 475.51 180.31 507.111 189.37C524.024 194.223 537.857 204.103 548.611 219.01C548.798 219.273 549.064 219.471 549.37 219.577C549.676 219.682 550.008 219.69 550.321 219.6C554.901 218.287 559.864 217.4 565.211 216.94C588.084 214.98 608.014 220.907 625.001 234.72C638.707 245.867 647.551 260.673 651.531 279.14C652.181 282.19 651.981 285.32 652.501 288.53C652.584 289.049 652.811 289.535 653.156 289.932C653.5 290.33 653.949 290.623 654.451 290.78C661.564 293.027 668.154 296.273 674.22 300.52C708.07 324.22 721.041 367.35 701.711 404.94C698.077 411.993 693.507 418.603 688.001 424.77ZM634.131 426.38C640.917 425.56 647.244 423.533 653.111 420.3C668.831 411.62 678.877 398.603 683.251 381.25C686.281 369.23 685.891 357 680.531 345.5C672.301 327.81 657.21 316.37 637.91 313.98C630.331 313.03 625.35 308.91 626.421 300.42C627.514 291.813 627.041 284.123 625.001 277.35C620.481 262.29 608.06 250.11 593.22 244.76C578.73 239.54 562.651 241.72 548.761 248.28C546.221 249.473 544.174 250.063 542.621 250.05C535.371 249.97 533.611 244.17 530.781 237.97C524.581 224.4 510.131 214.16 495.391 212.29C488.797 211.45 482.541 211.563 476.621 212.63C460.401 215.54 446.251 226.8 440.361 242.17C439.061 245.583 438.151 247.557 437.631 248.09C434.331 251.52 428.031 252.92 424.361 250.83C415.641 245.83 408.911 241.59 398.271 241.66C384.651 241.753 372.697 246.67 362.411 256.41C355.004 263.423 350.124 272.447 347.771 283.48C346.461 289.63 346.811 296.51 346.431 303.72C346.217 307.833 344.637 310.977 341.691 313.15C340.471 314.057 337.791 314.887 333.651 315.64C322.141 317.73 311.581 323.17 304.111 332.09C297.504 339.99 293.084 348.963 290.851 359.01C289.461 365.31 289.511 373.02 289.831 379.23C290.631 394.32 298.011 408.53 309.041 418.7C319.421 428.267 331.741 432.327 346.001 430.88C346.139 430.868 346.266 430.801 346.358 430.695C346.449 430.589 346.496 430.451 346.491 430.31C346.177 423.23 346.157 416.207 346.431 409.24C346.711 402.18 350.257 397.877 357.071 396.33C359.071 395.883 366.324 394.39 378.831 391.85C381.271 391.35 383.051 391.15 383.591 389.06C385.764 380.653 389.067 372.787 393.501 365.46C393.586 365.317 393.627 365.152 393.619 364.984C393.61 364.817 393.551 364.655 393.451 364.52C390.591 360.727 385.604 354.36 378.491 345.42C372.871 338.35 376.541 331.1 382.271 325.5C388.691 319.22 392.501 315.437 393.701 314.15C399.011 308.41 403.401 305.56 410.181 309.59C418.141 314.323 426.101 318.623 434.061 322.49C434.202 322.556 434.355 322.592 434.51 322.595C434.665 322.599 434.819 322.57 434.961 322.51C435.501 322.283 436.697 321.713 438.551 320.8C445.717 317.28 452.614 314.7 459.241 313.06C459.52 312.991 459.775 312.846 459.977 312.641C460.178 312.436 460.318 312.18 460.381 311.9C462.794 301.3 464.441 293.457 465.321 288.37C466.511 281.46 468.781 276.61 475.881 276.11C478.754 275.903 487.601 275.983 502.421 276.35C513.131 276.62 514.311 281.41 516.311 291.7C517.577 298.227 518.831 304.147 520.071 309.46C520.381 310.77 520.621 312.47 522.001 312.84C530.834 315.227 538.921 318.547 546.261 322.8C546.425 322.894 546.611 322.942 546.801 322.941C546.99 322.939 547.177 322.887 547.341 322.79C553.941 318.87 559.671 315.063 564.531 311.37C569.661 307.48 573.881 305.93 579.271 308.95C581.071 309.957 582.207 310.693 582.681 311.16C591.601 320.067 597.587 326.33 600.641 329.95C605.174 335.323 605.207 340.833 600.741 346.48C595.787 352.74 590.97 358.683 586.29 364.31C586.14 364.49 586.052 364.713 586.037 364.947C586.023 365.181 586.084 365.413 586.211 365.61C590.817 372.71 594.191 379.74 596.331 386.7C596.991 388.853 597.514 390.457 597.901 391.51C597.954 391.657 598.05 391.786 598.176 391.878C598.303 391.971 598.454 392.024 598.611 392.03C608.251 392.317 617.54 394.067 626.48 397.28C630.961 398.89 633.271 404.39 633.461 408.76C633.694 414.033 633.667 419.673 633.381 425.68C633.375 425.778 633.392 425.875 633.428 425.966C633.465 426.057 633.521 426.138 633.592 426.205C633.664 426.272 633.749 426.322 633.842 426.352C633.935 426.382 634.033 426.392 634.131 426.38ZM523.748 371.596C511.179 362.696 495.576 359.172 480.372 361.799C465.168 364.426 451.609 372.989 442.677 385.604C438.255 391.85 435.101 398.903 433.397 406.36C431.693 413.818 431.471 421.533 432.745 429.065C434.019 436.598 436.762 443.801 440.82 450.263C444.878 456.724 450.169 462.318 456.393 466.725C468.962 475.624 484.565 479.148 499.769 476.521C514.973 473.894 528.532 465.331 537.464 452.716C541.886 446.47 545.04 439.417 546.744 431.96C548.448 424.503 548.67 416.788 547.396 409.255C546.122 401.722 543.379 394.519 539.321 388.058C535.263 381.596 529.972 376.002 523.748 371.596Z" fill="#4CC0B1"/>
<path d="M634.129 426.38C634.032 426.392 633.934 426.382 633.841 426.352C633.748 426.322 633.663 426.271 633.591 426.205C633.52 426.138 633.464 426.056 633.427 425.966C633.391 425.875 633.374 425.778 633.379 425.68C633.666 419.673 633.693 414.033 633.459 408.76C633.269 404.39 630.959 398.89 626.479 397.28C617.539 394.067 608.249 392.317 598.609 392.03C598.453 392.023 598.302 391.971 598.175 391.878C598.049 391.785 597.953 391.657 597.899 391.51C597.513 390.457 596.989 388.853 596.329 386.7C594.189 379.74 590.816 372.71 586.209 365.61C586.083 365.413 586.022 365.181 586.036 364.947C586.051 364.713 586.139 364.49 586.289 364.31C590.969 358.683 595.786 352.74 600.739 346.48C605.206 340.833 605.173 335.323 600.639 329.95C597.586 326.33 591.599 320.067 582.679 311.16C582.206 310.693 581.069 309.957 579.269 308.95C573.879 305.93 569.659 307.48 564.529 311.37C559.669 315.063 553.939 318.87 547.339 322.79C547.175 322.887 546.989 322.939 546.799 322.94C546.61 322.942 546.423 322.894 546.259 322.8C538.919 318.547 530.833 315.227 521.999 312.84C520.619 312.47 520.379 310.77 520.069 309.46C518.829 304.147 517.576 298.227 516.309 291.7C514.309 281.41 513.129 276.62 502.419 276.35C487.599 275.983 478.753 275.903 475.879 276.11C468.779 276.61 466.509 281.46 465.319 288.37C464.439 293.457 462.793 301.3 460.379 311.9C460.317 312.179 460.177 312.436 459.975 312.641C459.774 312.846 459.519 312.991 459.239 313.06C452.613 314.7 445.716 317.28 438.549 320.8C436.696 321.713 435.499 322.283 434.959 322.51C434.817 322.57 434.664 322.599 434.509 322.595C434.354 322.592 434.201 322.556 434.059 322.49C426.099 318.623 418.139 314.323 410.179 309.59C403.399 305.56 399.009 308.41 393.699 314.15C392.499 315.437 388.689 319.22 382.269 325.5C376.539 331.1 372.869 338.35 378.489 345.42C385.603 354.36 390.589 360.727 393.449 364.52C393.55 364.655 393.609 364.817 393.617 364.984C393.626 365.151 393.585 365.317 393.499 365.46C389.066 372.787 385.763 380.653 383.589 389.06C383.049 391.15 381.269 391.35 378.829 391.85C366.323 394.39 359.069 395.883 357.069 396.33C350.256 397.877 346.709 402.18 346.429 409.24C346.156 416.207 346.176 423.23 346.489 430.31C346.495 430.451 346.448 430.589 346.357 430.695C346.265 430.801 346.137 430.867 345.999 430.88C331.739 432.327 319.419 428.267 309.039 418.7C298.009 408.53 290.629 394.32 289.829 379.23C289.509 373.02 289.459 365.31 290.849 359.01C293.083 348.963 297.503 339.99 304.109 332.09C311.579 323.17 322.139 317.73 333.649 315.64C337.789 314.887 340.469 314.057 341.689 313.15C344.636 310.977 346.216 307.833 346.429 303.72C346.809 296.51 346.459 289.63 347.769 283.48C350.123 272.447 355.003 263.423 362.409 256.41C372.696 246.67 384.649 241.753 398.269 241.66C408.909 241.59 415.639 245.83 424.359 250.83C428.029 252.92 434.329 251.52 437.629 248.09C438.149 247.557 439.059 245.583 440.359 242.17C446.249 226.8 460.399 215.54 476.619 212.63C482.539 211.563 488.796 211.45 495.389 212.29C510.129 214.16 524.579 224.4 530.779 237.97C533.609 244.17 535.369 249.97 542.619 250.05C544.173 250.063 546.219 249.473 548.759 248.28C562.649 241.72 578.729 239.54 593.219 244.76C608.059 250.11 620.479 262.29 624.999 277.35C627.039 284.123 627.513 291.813 626.419 300.42C625.349 308.91 630.329 313.03 637.909 313.98C657.209 316.37 672.299 327.81 680.529 345.5C685.889 357 686.279 369.23 683.249 381.25C678.876 398.603 668.829 411.62 653.109 420.3C647.243 423.533 640.916 425.56 634.129 426.38Z" fill="#C8FEED"/>
<path d="M537.464 452.716C556.063 426.447 549.923 390.128 523.748 371.595C497.574 353.063 461.277 359.335 442.678 385.604C424.078 411.873 430.219 448.192 456.393 466.724C482.568 485.257 518.864 478.985 537.464 452.716Z" fill="white"/>
<path d="M761.83 421.53C761.68 430.65 761.76 438.15 764.19 446.3C765.184 449.627 767.064 453.613 769.83 458.26C777.377 470.953 784.937 483.61 792.51 496.23C791.67 503.66 788.55 506.53 780.8 506.14C771.14 505.66 761.597 506.087 752.17 507.42C737.28 509.52 723.26 509.71 707.85 510.59C702.837 510.87 691.274 512.153 673.16 514.44C667.934 515.093 658.467 516.083 644.76 517.41C639.93 517.87 633.75 518.72 630.16 519.72C624.187 521.393 616.577 523.183 607.33 525.09C601.197 526.35 595.294 526.283 589.62 524.89C595.287 519.33 599.664 514.53 602.75 510.49C606.91 505.043 606.787 499.64 602.38 494.28C595.427 485.84 590.534 480.087 587.7 477.02C587.5 476.803 587.378 476.525 587.353 476.232C587.327 475.939 587.4 475.646 587.56 475.4C591.327 469.633 594.417 463.327 596.83 456.48C596.958 456.121 597.194 455.81 597.506 455.589C597.817 455.369 598.189 455.251 598.57 455.25C617.82 455.17 636.28 453.07 653.94 447.19C666.674 442.95 678.027 435.477 688 424.77C693.18 427.23 698.677 427.923 704.49 426.85C712.92 425.3 721.5 423.41 729.75 423.02C735.63 422.74 741.517 422.733 747.41 423C749.977 423.113 754.784 422.623 761.83 421.53Z" fill="#EAFFF8"/>
<path d="M463.949 545.67C455.076 548.69 446.709 550.513 438.849 551.14C417.956 552.807 404.753 553.883 399.239 554.37C387.829 555.39 369.169 559.05 357.709 560.78C344.196 562.82 336.059 564.123 333.299 564.69C319.933 567.437 307.273 571.713 295.319 577.52C288.833 580.673 282.446 583.907 276.159 587.22C263.173 569.527 252.833 554.077 245.139 540.87C228.989 513.13 217.559 482.12 213.449 450.2C217.863 453.08 221.903 455.197 225.569 456.55C236.719 460.67 249.919 459.01 261.419 456.13C275.179 452.68 284.909 448.85 292.709 437.75C304.549 448.35 319.819 456.13 335.749 456.41C344.769 456.57 352.853 456.093 359.999 454.98C363.919 454.367 368.429 453.547 373.529 452.52C373.662 452.5 373.796 452.493 373.929 452.5L383.009 453.24C383.187 453.254 383.356 453.329 383.486 453.453C383.617 453.576 383.703 453.741 383.729 453.92C384.779 461.53 389.229 469.42 393.619 476.07C393.756 476.274 393.819 476.518 393.799 476.762C393.779 477.005 393.677 477.234 393.509 477.41C388.969 482.277 384.566 487.06 380.299 491.76C376.779 495.64 374.886 498.6 374.619 500.64C373.859 506.35 375.689 509.39 379.999 513.7C389.566 523.293 395.843 529.297 398.829 531.71C404.549 536.34 411.379 534.25 416.829 530.4C423.249 525.87 429.809 521.86 435.039 518.12C435.273 517.952 435.549 517.855 435.836 517.839C436.123 517.823 436.409 517.889 436.659 518.03C444.299 522.277 452.196 525.597 460.349 527.99C460.571 528.055 460.769 528.182 460.921 528.355C461.073 528.529 461.173 528.742 461.209 528.97L463.949 545.67Z" fill="#EAFFF8"/>
<path d="M768.09 612.64C760.76 619.68 753.45 624.71 742.81 623.63C738.83 623.23 735.79 622.04 730.45 620.43C724.76 618.71 719.05 617.76 713.3 617.42C696.44 616.427 679.224 617.143 661.65 619.57C654.937 620.497 646.293 622.117 635.72 624.43C629.967 625.697 625.09 626.387 621.09 626.5C609.397 626.84 600.54 627.15 594.52 627.43C580.9 628.07 563.9 627.86 549.97 629.11C539.303 630.057 521.76 631.807 497.34 634.36C478.45 636.34 459.38 639.85 440.61 642.01C438.817 642.217 424.873 643.71 398.78 646.49C384.63 648.01 372.6 648.17 358.43 649.03C345.863 649.79 333.83 652.45 322.33 657.01C319.197 658.25 316.093 659.507 313.02 660.78C308.64 643.54 301.603 627.143 291.91 611.59C285.817 601.81 280.567 593.687 276.16 587.22C282.447 583.907 288.833 580.673 295.32 577.52C307.273 571.713 319.933 567.437 333.3 564.69C336.06 564.123 344.197 562.82 357.71 560.78C369.17 559.05 387.83 555.39 399.24 554.37C404.753 553.883 417.957 552.807 438.85 551.14C446.71 550.513 455.077 548.69 463.95 545.67C464.257 549.783 464.98 553.76 466.12 557.6C467.55 562.43 470.52 565.31 475.5 565.5C482.327 565.767 491.217 566.09 502.17 566.47C509.044 566.71 513.19 563.407 514.61 556.56C516.563 547.113 518.557 538.383 520.59 530.37C520.681 530.011 520.868 529.683 521.133 529.422C521.397 529.161 521.728 528.977 522.09 528.89C529.604 527.103 536.767 524.383 543.58 520.73C543.889 520.566 544.233 520.479 544.583 520.476C544.932 520.472 545.278 520.553 545.59 520.71C551.29 523.63 556.26 527.01 562.02 531.61C565.64 534.497 568.49 536.133 570.57 536.52C578.65 538.02 583.9 530.97 589.62 524.89C595.293 526.283 601.197 526.35 607.33 525.09C616.577 523.183 624.187 521.393 630.16 519.72C633.75 518.72 639.93 517.87 644.76 517.41C658.467 516.083 667.933 515.093 673.16 514.44C691.273 512.153 702.837 510.87 707.85 510.59C723.26 509.71 737.28 509.52 752.17 507.42C761.597 506.087 771.14 505.66 780.8 506.14C788.55 506.53 791.67 503.66 792.51 496.23C806.29 519.57 816.43 536.597 822.93 547.31C825.98 552.34 825.36 557.11 821.88 561.74C818.633 566.047 814.133 568.75 808.38 569.85C803.253 570.837 800.067 571.41 798.82 571.57C787.19 573.06 773.45 574.68 768.72 587.45C765.85 595.22 766.14 604.82 768.09 612.64Z" fill="#DBFFF3"/>
<path d="M468.78 692.15C443.58 696.763 425.053 699.973 413.2 701.78C396.426 704.34 375.79 706.19 351.29 707.33C339.11 707.89 328.54 707.43 317.77 701.36C317.65 701.293 317.551 701.197 317.481 701.081C317.411 700.965 317.372 700.834 317.37 700.7L316.99 687.82C316.31 678.673 314.986 669.66 313.02 660.78C316.093 659.507 319.196 658.25 322.33 657.01C333.83 652.45 345.863 649.79 358.43 649.03C372.6 648.17 384.63 648.01 398.78 646.49C424.873 643.71 438.816 642.217 440.61 642.01C459.38 639.85 478.45 636.34 497.34 634.36C521.76 631.807 539.303 630.057 549.97 629.11C563.9 627.86 580.9 628.07 594.52 627.43C600.54 627.15 609.396 626.84 621.09 626.5C625.09 626.387 629.966 625.697 635.72 624.43C646.293 622.117 654.936 620.497 661.65 619.57C679.223 617.143 696.44 616.427 713.3 617.42C719.05 617.76 724.76 618.71 730.45 620.43C735.79 622.04 738.83 623.23 742.81 623.63C753.45 624.71 760.76 619.68 768.09 612.64C769.31 616.9 771.1 621.85 770.32 626.3C770.236 626.798 770.015 627.262 769.681 627.64C769.346 628.019 768.913 628.296 768.43 628.44C758.59 631.38 749.21 635.42 753.09 647.96C753.222 648.398 753.41 648.822 753.65 649.22C756.263 653.573 758.196 656.93 759.45 659.29C761.3 662.78 762.16 667 759.36 670.13C751.79 678.61 746.22 684.58 743.68 695.05C742.49 699.96 742.41 707.09 743.04 712C743.85 718.29 744.23 722.79 744.33 728.35C744.456 735.343 742.886 742.023 739.62 748.39C731.61 764 716.06 770.44 698.97 770.02C693.216 769.88 685.813 769.11 676.76 767.71C655.02 764.357 633.54 760.25 612.32 755.39C590.66 750.43 570.33 744.757 551.33 738.37C543.443 735.717 536.53 732.99 530.59 730.19C525.803 727.937 520.62 724.877 515.04 721.01C505.713 714.537 497.97 708.417 491.81 702.65C488.71 699.75 485.2 696.427 481.28 692.68C480.526 691.96 479.153 691.213 477.16 690.44C473.9 689.187 471.106 689.757 468.78 692.15Z" fill="#C8FEED"/>
<path d="M468.78 692.15C465.7 696.89 468.06 702.79 470.44 707.33C476.033 717.97 482.51 727.903 489.87 737.13C509.236 761.41 530.696 783.45 554.25 803.25C558.49 806.817 563.053 810.39 567.94 813.97C568.306 814.237 568.59 814.603 568.76 815.025C568.929 815.448 568.978 815.91 568.9 816.36L558.01 880.24C557.972 880.478 557.85 880.694 557.667 880.85C557.483 881.005 557.25 881.091 557.01 881.09H266.5C266.428 881.09 266.357 881.072 266.294 881.037C266.23 881.002 266.177 880.952 266.138 880.892C266.099 880.831 266.076 880.761 266.071 880.689C266.066 880.618 266.08 880.546 266.11 880.48C279.376 851.293 290.38 822.693 299.12 794.68C306.246 771.86 311.096 752.043 313.67 735.23C315.476 723.443 316.54 714.637 316.86 708.81C317.046 705.437 317.09 698.44 316.99 687.82L317.37 700.7C317.373 700.834 317.411 700.965 317.481 701.081C317.551 701.196 317.651 701.293 317.77 701.36C328.54 707.43 339.11 707.89 351.29 707.33C375.79 706.19 396.426 704.34 413.2 701.78C425.053 699.973 443.58 696.763 468.78 692.15Z" fill="#A9F8E4"/>
</svg>
