<svg width="1024" height="1024" viewBox="0 0 1024 1024" fill="none" xmlns="http://www.w3.org/2000/svg">
<path d="M483.17 179.11C486.89 175.54 487.23 165.63 487.21 160.68C487.13 138.447 487.203 125.23 487.43 121.03C487.663 116.757 489.433 113.56 492.74 111.44C494.226 110.487 496.786 110.057 500.42 110.15C501.493 110.177 510.096 110.183 526.23 110.17C530.77 110.17 534.066 111.873 536.12 115.28C537.226 117.12 537.773 120.633 537.76 125.82C537.713 152.3 537.69 166.36 537.69 168C537.696 171.347 538.403 174.243 539.81 176.69C542.06 180.59 545.24 180.25 550.18 180.24C570.366 180.207 588.07 180.18 603.29 180.16C607.496 180.153 610.556 180.667 612.47 181.7C616.11 183.653 617.986 187.087 618.1 192C618.286 200.487 618.383 208.903 618.39 217.25C618.396 218.423 618.273 220.337 618.02 222.99C617.28 230.86 611.87 233.92 604.5 233.86C603.426 233.847 585.926 233.817 552 233.77C546.953 233.763 544.296 233.807 544.03 233.9C538.46 235.75 537.62 242.47 537.65 247.75C537.696 254.51 537.703 304.827 537.67 398.7C537.67 404.35 537.99 408.63 535.43 412.44C533.47 415.353 530.493 416.857 526.5 416.95C525.233 416.977 516.84 417.023 501.32 417.09C496.973 417.11 494.026 416.607 492.48 415.58C489.426 413.567 487.766 410.783 487.5 407.23C487.32 404.83 487.233 399.003 487.24 389.75C487.286 308.39 487.336 261.723 487.39 249.75C487.41 244.64 487.27 238.51 483.53 234.96C482.563 234.04 480.746 233.643 478.08 233.77C477.086 233.817 456.73 233.827 417.01 233.8C412.883 233.8 409.543 231.77 406.99 227.71C406.674 227.21 406.472 226.65 406.4 226.07C405.126 215.803 404.853 204.7 405.58 192.76C405.826 188.693 406.653 185.82 408.06 184.14C410.186 181.587 412.866 180.303 416.1 180.29C446.846 180.137 467.396 180.137 477.75 180.29C480.03 180.323 481.546 180.14 482.3 179.74C482.612 179.567 482.904 179.356 483.17 179.11Z" fill="#FFBD16"/>
<path d="M436.239 455.79C440.539 456.21 441.469 460.69 439.039 464.04C433.499 471.653 426.003 479.177 416.549 486.61C394.596 503.87 369.966 514.78 342.659 519.34C328.093 521.773 312.056 521.683 294.549 519.07C257.169 513.49 224.039 493.97 200.319 464.27C183.439 443.13 172.513 418.773 167.539 391.2C166.793 387.06 166.359 383.907 166.239 381.74C165.999 377.51 165.329 374.01 165.159 369.07C164.099 339.303 170.539 311.88 184.479 286.8C192.793 271.847 203.133 258.743 215.499 247.49C245.219 220.44 284.519 206.76 324.609 207C331.269 207.03 339.409 208.04 343.979 208.6C348.209 209.12 354.149 209.71 356.149 213.19C358.889 217.96 354.519 221.5 350.199 222.68C341.719 225.007 334.386 227.343 328.199 229.69C303.089 239.23 280.999 255.92 266.179 278.42C254.873 295.593 248.163 314.21 246.049 334.27C244.879 345.33 245.019 359.74 247.089 371.09C252.303 399.61 265.429 423.25 286.469 442.01C306.996 460.31 330.959 470.597 358.359 472.87C384.286 475.023 408.389 469.987 430.669 457.76C433.256 456.34 435.113 455.683 436.239 455.79Z" fill="#FFBD16"/>
<path d="M682.579 276.44C683.173 276.02 683.579 275.64 683.799 275.3C685.786 272.253 688.259 268.677 691.219 264.57C693.929 260.82 695.609 256.53 698.029 252.61C706.936 238.197 713.519 227.167 717.779 219.52C719.039 217.25 720.599 214.89 722.879 213.63C732.719 208.21 739.559 217.44 743.769 225.99C746.003 230.537 748.986 235.403 752.719 240.59C756.009 245.16 757.999 248.52 760.619 252.48C765.259 259.51 769.049 268.16 771.319 271.67C772.639 273.72 774.439 276.59 777.499 276.59C822.879 276.563 846.209 276.593 847.489 276.68C852.289 277.02 856.969 277.12 860.629 279.68C871.319 287.15 861.259 298.56 856.619 306.41C855.279 308.67 854.036 310.88 852.889 313.04C843.976 329.847 835.323 345.31 826.929 359.43C825.589 361.67 825.499 363.6 826.729 366.06C828.796 370.187 831.109 374.367 833.669 378.6C841.719 391.9 847.569 402.27 854.909 413.48C858.216 418.527 861.149 423.88 863.709 429.54C866.539 435.79 865.699 443.75 859.319 447.49C857.506 448.55 854.719 449.037 850.959 448.95C844.149 448.78 835.949 449.63 827.679 449.64C813.539 449.66 797.536 449.63 779.669 449.55C776.489 449.54 775.709 450.82 774.229 453.24C761.983 473.147 750.726 491.973 740.459 509.72C737.349 515.1 733.029 521.63 725.619 518.58C722.239 517.18 720.919 515.7 719.109 512.25C716.269 506.86 713.849 501.14 710.279 495.15C702.826 482.637 695.386 470.017 687.959 457.29C685.429 452.97 683.519 448.96 678.429 449C659.529 449.113 635.719 449.14 606.999 449.08C599.949 449.06 591.049 448.26 590.669 439.22C590.449 433.9 595.899 425.15 598.839 420.85C604.689 412.31 610.619 403.97 615.539 394.73C616.979 392.023 622.396 382.507 631.789 366.18C632.116 365.613 632.299 364.975 632.321 364.321C632.344 363.667 632.206 363.018 631.919 362.43C625.279 348.82 617.799 338.17 610.029 324.42C604.689 314.98 598.539 306.33 593.939 298.8C592.769 296.88 590.639 293.04 590.319 290.41C589.109 280.44 595.699 277.13 604.229 276.99C606.563 276.95 608.819 276.913 610.999 276.88C638.093 276.493 661.529 276.477 681.309 276.83C681.763 276.843 682.21 276.706 682.579 276.44ZM715.559 276.3C715.619 276.307 723.016 276.347 737.749 276.42C738.636 276.427 739.873 276.61 741.459 276.97C741.581 276.999 741.707 277 741.829 276.972C741.951 276.945 742.065 276.89 742.163 276.812C742.26 276.734 742.338 276.635 742.391 276.522C742.445 276.409 742.471 276.285 742.469 276.16C742.469 275.307 742.326 274.43 742.039 273.53C740.793 269.55 738.713 264.443 735.799 258.21C734.306 255.03 732.303 252.28 729.789 249.96C729.704 249.88 729.603 249.82 729.493 249.783C729.383 249.746 729.265 249.733 729.15 249.746C729.034 249.758 728.922 249.795 728.822 249.854C728.722 249.914 728.636 249.994 728.569 250.09C723.983 256.75 720.039 263.803 716.739 271.25C715.986 272.95 715.456 274.437 715.149 275.71C715.132 275.775 715.129 275.843 715.141 275.91C715.152 275.976 715.179 276.04 715.218 276.096C715.256 276.152 715.307 276.199 715.366 276.234C715.425 276.27 715.491 276.292 715.559 276.3ZM828.189 303.27L792.019 302.6C791.75 302.597 791.484 302.659 791.245 302.782C791.006 302.905 790.8 303.085 790.647 303.305C790.494 303.526 790.398 303.78 790.367 304.046C790.336 304.312 790.371 304.581 790.469 304.83C791.623 307.803 793.083 310.747 794.849 313.66C799.136 320.753 803.993 328.243 809.419 336.13C809.531 336.29 809.681 336.419 809.856 336.504C810.031 336.59 810.226 336.629 810.42 336.618C810.615 336.607 810.803 336.546 810.968 336.441C811.132 336.337 811.267 336.192 811.359 336.02L828.489 303.79C828.519 303.737 828.534 303.678 828.533 303.617C828.533 303.557 828.517 303.497 828.487 303.445C828.456 303.393 828.413 303.349 828.361 303.318C828.309 303.288 828.25 303.271 828.189 303.27ZM630.019 304.2C631.106 307.08 633.073 311.13 635.919 316.35C640.359 324.463 644.069 331.007 647.049 335.98C647.229 336.28 647.339 336.44 647.379 336.46C647.63 336.59 647.922 336.616 648.192 336.532C648.462 336.448 648.688 336.26 648.819 336.01C653.213 327.763 657.636 319.79 662.089 312.09C662.996 310.523 663.993 308.207 665.079 305.14C665.133 304.987 665.15 304.822 665.128 304.661C665.106 304.5 665.046 304.346 664.954 304.213C664.861 304.079 664.738 303.969 664.595 303.892C664.451 303.815 664.292 303.773 664.129 303.77L630.749 303.16C630.625 303.156 630.501 303.184 630.389 303.24C630.278 303.296 630.182 303.379 630.11 303.482C630.037 303.584 629.991 303.704 629.976 303.829C629.96 303.954 629.975 304.082 630.019 304.2ZM663.319 363.19C669.269 379.28 679.599 392.59 688.679 407.98C690.879 411.707 693.503 415.79 696.549 420.23C697.819 422.07 698.819 422.37 701.009 422.38C718.849 422.46 738.529 422.387 760.049 422.16C760.369 422.153 760.682 422.053 760.949 421.87C762.136 421.057 763.156 419.927 764.009 418.48C769.909 408.433 774.809 399.843 778.709 392.71C781.689 387.24 789.189 376.41 794.449 366.31C794.712 365.804 794.87 365.249 794.915 364.679C794.96 364.108 794.89 363.534 794.709 362.99C792.559 356.54 787.359 349.63 784.739 345.05C782.893 341.837 778.926 334.493 772.839 323.02C769.169 316.1 765.429 310.52 761.339 304.72C761.121 304.406 760.828 304.149 760.487 303.973C760.145 303.797 759.765 303.707 759.379 303.71C743.639 303.757 724.429 303.703 701.749 303.55C699.996 303.543 698.729 304.017 697.949 304.97C693.529 310.403 688.393 317.82 682.539 327.22C677.399 335.46 674.269 344.08 668.999 351.94C667.466 354.24 665.633 357.243 663.499 360.95C663.308 361.288 663.193 361.664 663.162 362.051C663.131 362.438 663.184 362.827 663.319 363.19ZM630.519 421.81C639.406 421.683 648.486 421.537 657.759 421.37C659.426 421.337 661.279 421.547 663.319 422C663.487 422.037 663.661 422.032 663.827 421.985C663.992 421.939 664.144 421.853 664.268 421.735C664.392 421.616 664.486 421.469 664.54 421.306C664.594 421.143 664.608 420.969 664.579 420.8C664.186 418.393 663.473 416.17 662.439 414.13C660.086 409.47 656.886 403.737 652.839 396.93C651.093 393.977 649.543 391.8 648.189 390.4C648.075 390.283 647.936 390.194 647.781 390.14C647.626 390.086 647.461 390.069 647.299 390.091C647.137 390.112 646.982 390.171 646.847 390.263C646.711 390.355 646.599 390.477 646.519 390.62L629.869 420.74C629.808 420.85 629.778 420.974 629.78 421.1C629.783 421.226 629.819 421.349 629.885 421.457C629.951 421.566 630.044 421.655 630.155 421.717C630.266 421.779 630.392 421.811 630.519 421.81ZM811.899 392.42C811.765 392.18 811.57 391.98 811.333 391.841C811.097 391.702 810.827 391.628 810.552 391.627C810.278 391.626 810.008 391.698 809.77 391.835C809.532 391.973 809.335 392.171 809.199 392.41L793.749 419.71C793.612 419.95 793.541 420.222 793.544 420.498C793.547 420.775 793.624 421.045 793.767 421.282C793.91 421.518 794.113 421.713 794.356 421.844C794.599 421.976 794.873 422.04 795.149 422.03L825.279 421.05C825.544 421.04 825.802 420.963 826.029 420.825C826.255 420.688 826.443 420.494 826.573 420.264C826.703 420.033 826.772 419.773 826.773 419.508C826.775 419.243 826.708 418.982 826.579 418.75L811.899 392.42ZM743.569 449.42C735.069 449.9 726.623 449.817 718.229 449.17C716.889 449.07 715.856 449.503 715.129 450.47C714.917 450.753 714.817 451.102 714.849 451.45C715.023 453.05 715.963 455.6 717.669 459.1C720.809 465.553 724.566 471.59 728.939 477.21C728.979 477.261 729.028 477.305 729.084 477.337C729.14 477.369 729.202 477.39 729.266 477.399C729.33 477.407 729.395 477.403 729.457 477.386C729.52 477.369 729.578 477.34 729.629 477.3C730.403 476.72 731.026 476.033 731.499 475.24C735.273 468.987 739.509 460.69 744.209 450.35C744.256 450.247 744.275 450.133 744.265 450.02C744.255 449.907 744.216 449.798 744.151 449.705C744.087 449.611 744 449.536 743.898 449.486C743.796 449.436 743.683 449.413 743.569 449.42Z" fill="#FFBD16"/>
<path d="M412.43 543.21C412.678 543.438 413.001 543.569 413.339 543.578C413.677 543.587 414.007 543.474 414.27 543.26C436.25 525.33 463.67 512.55 492.03 509.84C493.184 509.733 494.087 509.347 494.74 508.68C494.793 508.627 494.837 508.563 494.87 508.49C495.464 507.05 495.33 501.887 494.47 493C493.89 487.033 494.8 481.207 497.2 475.52C499.094 471.04 502.224 468.637 506.59 468.31C509.677 468.083 513.15 468.05 517.01 468.21C520.69 468.36 524.12 469.95 526.25 473.21C528.044 475.963 528.97 478.487 529.03 480.78C529.217 488.413 529.13 493.74 528.77 496.76C528.23 501.22 527.92 505.13 527.84 508.49C527.835 508.668 527.865 508.845 527.929 509.011C527.992 509.176 528.089 509.328 528.211 509.456C528.334 509.585 528.481 509.688 528.644 509.759C528.807 509.83 528.983 509.867 529.16 509.87C531.887 509.91 534.92 510.2 538.26 510.74C564.85 514.99 588.61 526.76 609.72 543.63C609.976 543.835 610.296 543.945 610.624 543.942C610.952 543.938 611.269 543.821 611.52 543.61C616.394 539.537 621.05 534.997 625.49 529.99C631.25 523.5 641.67 526.35 647.85 530.48C651.33 532.813 653.304 536.243 653.77 540.77C654.26 545.57 654.53 550.14 651.2 553.71C646.447 558.797 641.447 563.583 636.2 568.07C635.892 568.332 635.696 568.702 635.651 569.105C635.607 569.508 635.717 569.914 635.96 570.24C644.86 582.067 652.297 594.813 658.27 608.48C663.62 620.73 665.99 633.22 668.38 647.08C668.614 648.44 669.1 649.53 669.84 650.35C669.952 650.471 670.09 650.565 670.245 650.624C670.399 650.683 670.565 650.705 670.73 650.69C676.384 650.103 682.054 649.603 687.74 649.19C692.96 648.8 701.78 649.54 705.28 653.94C710.82 660.907 711.284 668 706.67 675.22C704.517 678.587 701.184 680.653 696.67 681.42C689.317 682.673 681.994 683.133 674.7 682.8C674.441 682.787 674.18 682.797 673.92 682.83L670.6 683.26C670.229 683.309 669.885 683.478 669.619 683.742C669.354 684.006 669.182 684.349 669.13 684.72C665.87 708.29 658.36 730.21 645.58 749.85C642.214 755.023 639.09 759.673 636.21 763.8C636.07 764.002 636.006 764.247 636.028 764.492C636.049 764.737 636.157 764.966 636.33 765.14C639.997 768.807 642.96 771.757 645.22 773.99C648.407 777.13 650.35 779.69 651.05 781.67C653.77 789.35 653.4 796.68 647.09 802.34C644.397 804.76 641.06 806.13 637.08 806.45C633.614 806.73 630.137 805.88 626.65 803.9C624.677 802.78 622.167 800.363 619.12 796.65C616.72 793.723 614.24 791.117 611.68 788.83C611.438 788.612 611.128 788.485 610.802 788.471C610.476 788.456 610.154 788.555 609.89 788.75C589.52 803.81 567.91 814.17 543.06 818.78C537.45 819.82 534.04 819.87 527.65 820.42C527.417 820.44 527.198 820.539 527.029 820.698C526.86 820.858 526.751 821.071 526.72 821.3C526.6 822.187 526.59 823.09 526.69 824.01C527.51 831.35 527.95 837.593 528.01 842.74C528.09 850.05 526.1 857.97 517.84 859.59C516.614 859.83 514.257 859.93 510.77 859.89C498.38 859.75 495.01 853.34 495 841.82C494.994 835.013 495.114 828.333 495.36 821.78C495.366 821.605 495.309 821.434 495.201 821.299C495.093 821.163 494.94 821.071 494.77 821.04C490.27 820.19 485.44 819.95 481.42 819.28C456.64 815.17 434.83 804.65 414.8 789.63C412.83 788.15 411.36 788.38 409.89 790.17C404.64 796.54 395.96 806.34 386.84 805.94C378.28 805.57 371.83 798.5 370.49 790.48C369.61 785.17 372.36 780.12 376.72 776.18C382.35 771.09 385.23 769.12 388.82 764.61C388.99 764.398 389.082 764.135 389.08 763.863C389.078 763.592 388.983 763.329 388.81 763.12C369.89 740.08 358.917 713.063 355.89 682.07C355.87 681.877 355.779 681.698 355.634 681.57C355.489 681.442 355.302 681.374 355.11 681.38C344.984 681.733 339.12 681.923 337.52 681.95C328.84 682.1 319.51 680.25 316.72 671.13C315.76 668 315.53 661.35 316.97 658.23C318.937 653.997 322.104 651.307 326.47 650.16C332.17 648.667 339.147 648.48 347.4 649.6C350.19 649.97 352.89 650.27 355.08 650.37C355.49 650.389 355.892 650.253 356.206 649.99C356.521 649.728 356.726 649.356 356.78 648.95C358.32 637.2 359.86 627.32 363.23 617.12C369.07 599.43 378.11 584.04 388.61 568.66C388.835 568.332 388.933 567.933 388.887 567.538C388.841 567.143 388.654 566.778 388.36 566.51C385.127 563.537 382.01 560.787 379.01 558.26C374.704 554.633 372.134 551.79 371.3 549.73C369.8 546.03 369.814 542.133 371.34 538.04C372.78 534.2 375.88 528.94 379.78 527.3C384.274 525.407 389.22 525.18 394.62 526.62C395.687 526.907 397.054 527.9 398.72 529.6C405.38 536.38 409.95 540.917 412.43 543.21ZM497.86 551.45C497.859 551.383 497.844 551.317 497.817 551.256C497.789 551.195 497.749 551.14 497.699 551.095C497.65 551.05 497.591 551.016 497.528 550.994C497.464 550.973 497.397 550.965 497.33 550.97C479.58 552.49 461.78 558.44 448.08 569.34C445.527 571.373 443.314 573.613 441.44 576.06C441.254 576.303 441.157 576.603 441.166 576.909C441.175 577.215 441.29 577.509 441.49 577.74C450.484 588.147 460.31 598.407 470.97 608.52C474.177 611.553 477.474 614.347 480.86 616.9C481.128 617.105 481.456 617.217 481.794 617.219C482.131 617.221 482.46 617.112 482.73 616.91C487.5 613.36 492.42 612.45 497.64 610.53C498.141 610.346 498.571 610.01 498.871 609.569C499.171 609.127 499.324 608.603 499.31 608.07L497.86 551.45ZM582.12 575.06C582.24 574.633 582.11 574.243 581.73 573.89C570.22 563.17 553.47 555.76 538.55 552.6C534.84 551.81 531.38 551.87 528.19 551.1C528.04 551.064 527.883 551.062 527.732 551.095C527.581 551.128 527.439 551.194 527.317 551.289C527.195 551.384 527.096 551.506 527.027 551.644C526.959 551.783 526.922 551.935 526.92 552.09C526.8 564.49 526.817 575.137 526.97 584.03C526.99 585.76 527.62 588.34 527.65 589.92C527.757 595.947 527.777 602.723 527.71 610.25C527.707 610.584 527.816 610.909 528.019 611.172C528.222 611.435 528.508 611.621 528.83 611.7C533.364 612.847 537.574 614.59 541.46 616.93C541.935 617.217 542.49 617.34 543.041 617.28C543.592 617.22 544.108 616.981 544.51 616.6C557.68 604.05 572.16 586.79 581.22 576.23C581.787 575.577 582.087 575.187 582.12 575.06ZM604.82 596.1C604.619 595.968 604.376 595.911 604.136 595.938C603.895 595.965 603.67 596.076 603.5 596.25C591.714 608.537 582.317 618.54 575.31 626.26C571.7 630.24 567.87 633.88 564.04 637.13C563.645 637.467 563.364 637.918 563.235 638.421C563.107 638.924 563.136 639.455 563.32 639.94L567.61 651.25C567.724 651.551 567.927 651.81 568.192 651.991C568.457 652.171 568.771 652.266 569.09 652.26C576.384 652.107 583.35 652.313 589.99 652.88C592.544 653.1 599.547 653.11 611 652.91C615.12 652.84 620.98 652.04 626.07 652.17C626.228 652.174 626.384 652.144 626.528 652.082C626.673 652.02 626.803 651.928 626.91 651.812C627.017 651.696 627.098 651.558 627.148 651.408C627.198 651.257 627.216 651.098 627.2 650.94C626.16 641.58 623.92 632.783 620.48 624.55C618.534 619.897 615.74 614.12 612.1 607.22C610.23 603.68 607.05 597.57 604.82 596.1ZM418.69 597.21C415.477 600.31 412.767 603.917 410.56 608.03C403.347 621.477 399.377 635.797 398.65 650.99C398.642 651.135 398.663 651.28 398.713 651.417C398.762 651.554 398.839 651.679 398.938 651.786C399.037 651.892 399.156 651.977 399.289 652.037C399.422 652.096 399.565 652.128 399.71 652.13L455.49 653.17C455.976 653.179 456.452 653.04 456.856 652.772C457.26 652.504 457.572 652.119 457.75 651.67L462.62 639.49C462.73 639.214 462.756 638.912 462.696 638.622C462.635 638.332 462.491 638.067 462.28 637.86L420.52 597.22C420.277 596.98 419.949 596.844 419.607 596.842C419.265 596.841 418.936 596.973 418.69 597.21ZM513.127 640.154C506.532 639.935 500.119 642.382 495.299 646.956C490.478 651.531 487.646 657.857 487.424 664.545C487.202 671.233 489.609 677.734 494.116 682.617C498.622 687.501 504.859 690.367 511.454 690.586C518.049 690.805 524.462 688.358 529.282 683.784C534.102 679.21 536.935 672.883 537.157 666.195C537.378 659.507 534.971 653.006 530.465 648.123C525.958 643.239 519.722 640.373 513.127 640.154ZM397.74 681.54C397.55 691.91 400.39 699.64 404.21 711.8C406.024 717.56 409.884 724.783 415.79 733.47C416.704 734.81 417.447 735.633 418.02 735.94C418.172 736.019 418.338 736.065 418.508 736.077C418.678 736.09 418.849 736.067 419.01 736.01C420.397 735.53 421.444 734.997 422.15 734.41C426.704 730.67 431.18 726.643 435.58 722.33C444.814 713.277 453.567 704.187 461.84 695.06C462.021 694.861 462.14 694.613 462.181 694.346C462.222 694.08 462.183 693.806 462.07 693.56L457.25 683C457.092 682.653 456.838 682.358 456.52 682.149C456.201 681.94 455.83 681.826 455.45 681.82L398.54 680.76C398.437 680.759 398.334 680.778 398.237 680.816C398.141 680.855 398.053 680.912 397.979 680.984C397.904 681.057 397.845 681.143 397.804 681.238C397.763 681.334 397.742 681.436 397.74 681.54ZM560.23 695.43C560.218 695.462 560.217 695.497 560.226 695.531C560.235 695.565 560.254 695.596 560.28 695.62C564.174 699.013 568.13 702.807 572.15 707C577.8 712.9 582.48 716.35 590.19 723.07C593.124 725.63 597.1 729.823 602.12 735.65C603.434 737.17 604.72 737.117 605.98 735.49C617.974 719.997 625.154 702.413 627.52 682.74C627.542 682.56 627.524 682.377 627.468 682.205C627.412 682.032 627.32 681.873 627.196 681.739C627.073 681.605 626.922 681.5 626.753 681.429C626.585 681.358 626.403 681.325 626.22 681.33C620.147 681.503 616 681.51 613.78 681.35C602.53 680.54 596.95 680.81 582.39 680.73C577.28 680.7 573.17 681.55 567.99 681.48C567.352 681.471 566.726 681.655 566.196 682.009C565.665 682.362 565.255 682.869 565.02 683.46L560.23 695.43ZM442.02 757.54C441.941 757.741 441.927 757.962 441.979 758.171C442.031 758.381 442.146 758.569 442.31 758.71C444.857 760.883 447.464 762.767 450.13 764.36C462.064 771.46 474.65 775.937 487.89 777.79C488.384 777.857 491.437 778.25 497.05 778.97C497.176 778.987 497.305 778.977 497.427 778.94C497.549 778.903 497.661 778.841 497.758 778.757C497.854 778.672 497.932 778.569 497.986 778.452C498.04 778.335 498.068 778.209 498.07 778.08C498.184 766.52 498.157 754.45 497.99 741.87C497.957 739.203 497.734 735.8 497.32 731.66C497.054 728.993 497 725.57 497.16 721.39C497.175 720.964 497.043 720.546 496.787 720.205C496.53 719.865 496.164 719.623 495.75 719.52C491.097 718.373 486.577 716.56 482.19 714.08C481.945 713.941 481.661 713.885 481.382 713.921C481.102 713.957 480.842 714.083 480.64 714.28C479.927 714.98 479.11 715.87 478.19 716.95C470.84 725.62 466.33 731.78 458.25 740.04C454.537 743.827 449.29 749.4 442.51 756.76C442.284 757.007 442.12 757.267 442.02 757.54ZM584.12 756.22L542.17 715.38C541.907 715.129 541.579 714.957 541.223 714.885C540.867 714.812 540.499 714.842 540.16 714.97L526.43 720.17C526.265 720.232 526.122 720.343 526.021 720.487C525.919 720.632 525.863 720.803 525.86 720.98C525.774 737.22 525.774 753.17 525.86 768.83C525.87 772.16 526.48 775.22 526.69 778.46C526.698 778.565 526.726 778.668 526.774 778.762C526.822 778.856 526.888 778.939 526.969 779.006C527.049 779.073 527.142 779.124 527.242 779.153C527.342 779.183 527.447 779.192 527.55 779.18C536.36 778.22 543.95 776.75 552.21 773.64C563.15 769.527 573.724 764.293 583.93 757.94C584.072 757.852 584.192 757.733 584.281 757.592C584.37 757.451 584.425 757.292 584.444 757.126C584.462 756.961 584.442 756.793 584.386 756.636C584.33 756.479 584.239 756.337 584.12 756.22Z" fill="#FFBD16"/>
</svg>
