<svg width="1024" height="1024" viewBox="0 0 1024 1024" fill="none" xmlns="http://www.w3.org/2000/svg">
<path d="M518.289 203.18C521.382 210.707 523.146 216.393 523.579 220.24C524.332 226.987 524.106 235.763 522.899 246.57C522.666 248.657 523.289 249.937 524.769 250.41" stroke="#3BAEE4" stroke-width="2"/>
<path d="M334.02 442.51C334.143 442.557 334.278 442.563 334.406 442.529C334.533 442.495 334.647 442.422 334.73 442.32L357.56 414.87C357.654 414.758 357.703 414.615 357.697 414.469C357.691 414.323 357.632 414.185 357.53 414.08C356.37 412.907 355.473 411.857 354.84 410.93C346.38 398.46 334.14 385.82 333.82 368.04C333.707 361.64 333.827 356.953 334.18 353.98C334.78 348.887 336.317 343.397 338.79 337.51C345.54 321.44 361.09 310.87 377.98 308.31C388.167 306.77 397.82 308.8 406.94 314.4C411.013 316.9 414.82 319.51 418.36 322.23C418.827 322.583 419.773 322.98 421.2 323.42C421.703 323.574 422.243 323.542 422.72 323.33C424.847 322.37 426.913 321.317 428.92 320.17C435.78 316.257 443.263 311.573 451.37 306.12C467.43 295.313 480.807 281.613 491.5 265.02C496.967 256.54 500.68 246.857 502.64 235.97C506.37 215.3 491.47 202.1 474.42 195.02C459.307 188.74 443.42 185.127 426.76 184.18C412.667 183.387 398.62 184.25 384.62 186.77C361.69 190.91 340.4 201.44 321.9 215.39C312.913 222.17 304.717 230.377 297.31 240.01C283.13 258.457 275.073 279.473 273.14 303.06C272.067 316.187 272.233 326.833 273.64 335C275.387 345.18 278.797 357.57 283.87 372.17C288.577 385.71 295.597 397.93 304.93 408.83C309.49 414.157 314.453 419.727 319.82 425.54C324.32 430.4 328.53 435.9 332.41 441.32C332.797 441.853 333.333 442.25 334.02 442.51Z" stroke="#3BAEE4" stroke-width="2"/>
<path d="M458.98 613.51C463.307 618.423 464.773 623.84 463.38 629.76C463.027 631.253 462.31 632.237 461.23 632.71C456.88 634.63 450.07 630.58 445.65 627.88C433.483 620.42 422.33 611.58 412.19 601.36C406.61 595.73 401.93 591.46 396.5 587.99C372.647 572.71 348.973 556.247 325.48 538.6C325.231 538.413 324.926 538.316 324.614 538.327C324.303 538.338 324.005 538.456 323.77 538.66C318.697 543.06 313.407 547.393 307.9 551.66C301.207 556.847 291.45 564.363 278.63 574.21C273.93 577.81 269.93 581.073 266.63 584C263.277 586.96 259.473 590.447 255.22 594.46C252.413 597.107 250.103 599.927 248.29 602.92C246.343 606.127 245.36 607.743 245.34 607.77C233.68 625.677 226.34 645.007 223.32 665.76C222.267 673.02 221.773 685.53 221.84 703.29C221.96 734.257 221.97 774.733 221.87 824.72C221.86 828.25 221.85 831.45 223.53 834.29C225.783 838.103 228.847 840.807 232.72 842.4C235.213 843.433 239.15 843.947 244.53 843.94C267.63 843.933 288.287 843.91 306.5 843.87C312.327 843.863 317.37 843.623 321.63 843.15C321.794 843.132 321.946 843.055 322.055 842.933C322.164 842.811 322.223 842.653 322.22 842.49C322.06 816.697 322.027 770.093 322.12 702.68C322.12 697.77 325.54 692.6 330.69 692.61C336.4 692.62 341.56 696.99 343.83 701.84C344.623 703.527 345.023 707.023 345.03 712.33C345.063 798.777 345.083 842.16 345.09 842.48C345.093 842.651 345.162 842.813 345.284 842.933C345.405 843.053 345.569 843.12 345.74 843.12C367.093 842.867 388.357 842.963 409.53 843.41C448.59 844.22 475.23 843.63 522.29 842.92C522.513 842.915 522.725 842.824 522.882 842.668C523.038 842.511 523.127 842.3 523.13 842.08L523.73 797.26C523.733 797.156 523.714 797.052 523.675 796.956C523.637 796.859 523.578 796.772 523.504 796.699C523.43 796.625 523.342 796.568 523.245 796.531C523.148 796.493 523.044 796.476 522.94 796.48C520.093 796.587 515.62 796.42 509.52 795.98C501.87 795.42 495.66 793.5 492.34 786.18C490.29 781.64 486.48 767.48 489.04 761.4C490.413 758.147 492.22 755.73 494.46 754.15C503.627 747.697 512.323 741.613 520.55 735.9C520.75 735.761 520.914 735.576 521.027 735.36C521.141 735.144 521.2 734.904 521.2 734.66C521.05 719.9 520.85 704.92 517.74 690.5C512.56 666.573 503.67 643.87 491.07 622.39C486.977 615.41 482.303 608.85 477.05 602.71" stroke="#3BAEE4" stroke-width="2"/>
<path d="M477.05 602.71C469.563 593.67 464.007 587.47 460.38 584.11C454.78 578.923 449.063 573.64 443.23 568.26C437.05 562.56 432.62 559.03 432.63 550.53C432.637 538.41 432.707 522.363 432.84 502.39C432.86 499.31 433.23 497.113 433.95 495.8C436.82 490.54 441.41 490.02 447 489.99C454.033 489.943 462.213 489.93 471.54 489.95C479.407 489.963 484.203 489.8 485.93 489.46C497.75 487.15 507.95 476.32 513.22 465.87C515.68 460.99 517.657 453.933 519.15 444.7C521.35 431.13 521.93 419.07 522.79 406.2C523.37 397.54 526.45 394.71 535.48 393C538.953 392.34 543.803 391.26 550.03 389.76C550.066 389.752 550.1 389.735 550.13 389.712C550.159 389.689 550.182 389.659 550.199 389.626C550.215 389.592 550.224 389.555 550.224 389.518C550.224 389.481 550.216 389.444 550.2 389.41C548.087 385.143 545.64 380.797 542.86 376.37C534.78 363.477 528.527 352.9 524.1 344.64C521.233 339.293 519.767 333.743 519.7 327.99C519.573 316.63 519.477 307.22 519.41 299.76C519.33 289.91 517.97 281.39 513.49 273.2C513.446 273.122 513.383 273.057 513.307 273.01C513.231 272.963 513.145 272.936 513.057 272.932C512.968 272.928 512.88 272.947 512.802 272.987C512.724 273.027 512.658 273.086 512.61 273.16C498.83 294.253 481.58 312.157 460.86 326.87C459.593 327.77 456.503 329.57 451.59 332.27C444.56 336.12 436.73 341.58 431.45 344.69C425.29 348.31 419.61 351.11 413.06 347.61C412.722 347.431 412.415 347.205 412.15 346.94C410.343 345.127 408.093 342.767 405.4 339.86C400.99 335.1 393.06 330.27 386.31 329.51C376.76 328.44 368.34 332.92 362.46 340.75C351.8 354.94 353.14 372.46 362.91 386.98C368.01 394.56 374.893 400.827 383.56 405.78C383.999 406.032 384.468 406.234 384.96 406.38C387.793 407.22 389.717 408.047 390.73 408.86C394.81 412.15 395.84 417.32 393.74 422.05C391.23 427.73 385.89 429.02 379.87 428.84C377.2 428.75 376 429.78 374.05 431.56C362.23 442.31 356.17 452.2 344.51 469.41C343.29 471.21 342.85 473.2 342.73 475.25C342.097 486.79 341.143 499.27 339.87 512.69C339.757 513.917 339.453 516.043 338.96 519.07C338.869 519.635 338.933 520.214 339.144 520.744C339.356 521.274 339.707 521.736 340.16 522.08C354.42 532.907 369.587 543.903 385.66 555.07C391.673 559.243 398.34 563.607 405.66 568.16C415.34 574.18 422.82 580.16 432.31 588.92C441.21 597.14 450.1 605.337 458.98 613.51" stroke="#5FBDE8" stroke-width="2"/>
<path d="M477.05 602.71L458.98 613.51" stroke="#7FDCFC" stroke-width="2"/>
<path d="M633.201 560.67C642.981 554.61 645.19 543.55 641.05 533.21C637.27 523.77 629.85 517.46 620.73 513.28C608.04 507.46 587.78 510.62 584.31 526.77C581.22 541.15 589.15 554.54 602.56 560.03C612.27 564 623.801 566.49 633.201 560.67Z" stroke="#3BAEE4" stroke-width="2"/>
<path d="M815.049 683.94C813.723 683.947 811.549 683.907 808.529 683.82C766.756 682.553 732.916 682.3 707.009 683.06C703.896 683.153 701.893 683.21 700.999 683.23C685.039 683.597 669.373 683.803 653.999 683.85C647.933 683.863 642.493 684.017 637.679 684.31C635.229 684.45 633.149 685.03 631.329 686.3C571.963 727.627 538.039 751.213 529.559 757.06C523.799 761.027 517.689 765.047 511.229 769.12C510.948 769.297 510.734 769.563 510.623 769.875C510.512 770.188 510.511 770.528 510.619 770.84C511.353 772.94 512.826 774.043 515.039 774.15C517.966 774.29 525.769 774.34 538.449 774.3C541.456 774.287 544.279 774.02 546.919 773.5C548.366 773.216 549.747 772.659 550.989 771.86C563.916 763.507 578.076 754.627 593.469 745.22C595.996 743.673 598.679 742.893 601.519 742.88C627.673 742.747 650.303 742.667 669.409 742.64C682.109 742.63 697.249 741.82 707.749 742.17C728.539 742.86 756.089 742.45 780.749 743.11C786.556 743.263 790.736 743.073 793.289 742.54C802.089 740.71 806.209 725.24 807.909 718.17C811.343 703.903 814.016 692.863 815.929 685.05C815.963 684.918 815.966 684.78 815.937 684.647C815.908 684.514 815.849 684.389 815.764 684.282C815.679 684.175 815.571 684.088 815.447 684.029C815.323 683.97 815.187 683.939 815.049 683.94Z" stroke="#3BAEE4" stroke-width="2"/>
<path d="M544.22 843.96H749.31C749.584 843.959 749.849 843.857 750.052 843.675C750.255 843.492 750.383 843.241 750.41 842.97L758.13 766.81C758.141 766.689 758.127 766.567 758.089 766.452C758.051 766.337 757.989 766.231 757.908 766.142C757.827 766.053 757.728 765.981 757.619 765.933C757.509 765.884 757.39 765.859 757.27 765.86C736.977 765.947 722.413 765.88 713.58 765.66C679.92 764.84 654.08 765.39 616.5 765.24C615.12 765.233 611.673 765.3 606.16 765.44C602.06 765.54 600.46 766.58 597.22 768.48C590.593 772.367 584.047 776.383 577.58 780.53C572.76 783.63 568.03 786.673 563.39 789.66C557.43 793.5 551.35 795.42 545.15 795.42C544.908 795.42 544.675 795.515 544.503 795.686C544.331 795.856 544.233 796.088 544.23 796.33L543.59 843.32C543.589 843.403 543.604 843.486 543.635 843.564C543.666 843.642 543.712 843.712 543.771 843.772C543.829 843.831 543.899 843.879 543.976 843.911C544.054 843.943 544.136 843.96 544.22 843.96Z" stroke="#3BAEE4" stroke-width="2"/>
<path d="M518.29 203.18C521.384 210.707 523.147 216.393 523.58 220.24C524.334 226.987 524.107 235.763 522.9 246.57C522.667 248.657 523.29 249.937 524.77 250.41L525.21 251.59C525.489 252.34 525.866 253.046 526.33 253.69C533.304 263.317 537.61 274 539.25 285.74C541.44 301.41 541.64 317.66 542.87 332.89C543.004 334.55 543.807 336.773 545.28 339.56C551.87 352.01 559.5 361.08 571.47 376.04C574.45 379.76 577.42 385.8 576.37 390.67C575.27 395.73 574.15 398.69 570.24 402.2C563.66 408.09 554.35 409.7 546.23 411.77C545.883 411.858 545.569 412.049 545.327 412.317C545.085 412.586 544.926 412.92 544.87 413.28C543.78 420.28 543.72 428.46 543.1 434.58C541.29 452.18 537.72 468.13 528.27 483.02C518.61 498.26 503.52 509.71 484.97 510.44C477.337 510.733 468.094 510.78 457.24 510.58C456.894 510.573 456.344 510.643 455.59 510.79C455.25 510.858 454.943 511.041 454.721 511.306C454.499 511.572 454.375 511.905 454.37 512.25C454.117 524.823 454.13 535.653 454.41 544.74C454.457 546.24 454.774 547.6 455.36 548.82C455.512 549.143 455.726 549.432 455.99 549.67C465.824 558.443 471.644 563.737 473.45 565.55C491.37 583.52 507.4 604.02 518.6 626.64C521.727 632.953 525.264 641.16 529.21 651.26C535.49 667.32 540.38 685.06 541.92 702.5C542.474 708.813 542.757 714.337 542.77 719.07C542.773 719.446 542.921 719.806 543.184 720.075C543.447 720.344 543.804 720.5 544.18 720.51C544.774 720.523 545.404 720.297 546.07 719.83C576.55 698.47 603.104 680.02 625.73 664.48C628.08 662.87 629.75 662.31 632.75 662.31C655.424 662.303 669.684 662.317 675.53 662.35C687.65 662.42 699.63 661.24 710.41 661.31C712.76 661.33 715.01 660.55 716.59 659.62C717.031 659.361 717.378 658.97 717.585 658.503C717.791 658.037 717.846 657.518 717.74 657.02C717.447 655.627 717.307 654.203 717.32 652.75C717.39 643.18 717.36 632.39 713.75 623.06C707.337 606.467 696.014 594.123 679.78 586.03C673.867 583.09 666.077 579.297 656.41 574.65C655.264 574.097 654.067 574.31 652.82 575.29C630.53 592.85 601.94 589.65 581.34 571.13C570.81 561.67 563.26 551.33 562.11 536.94C561.004 523.093 565.507 511.447 575.62 502C582.58 495.5 590.48 491.32 599.32 489.46C607.694 487.693 616.574 488.417 625.96 491.63C637.24 495.49 646.814 501.863 654.68 510.75C661.207 518.13 664.574 526.88 664.78 537C664.874 541.5 664.824 546.84 664.63 553.02C664.616 553.435 664.729 553.845 664.954 554.197C665.178 554.549 665.505 554.825 665.89 554.99C675.51 559.123 684.577 563.677 693.09 568.65C716.97 582.61 734.64 604.51 738.82 632.41C740.06 640.72 739.53 648.82 739.61 656.93C739.624 657.91 739.69 658.677 739.81 659.23C739.912 659.681 740.165 660.085 740.527 660.374C740.888 660.663 741.337 660.82 741.8 660.82C757.534 660.893 775.517 661.383 795.75 662.29C796.217 662.31 798.217 662.333 801.75 662.36C807.72 662.42 813.89 663.28 819.57 663.39C822.42 663.45 826.04 664.24 828.14 664.85C834.78 666.743 838.25 671.297 838.55 678.51C838.717 682.53 838.31 686.467 837.33 690.32C833.417 705.687 830.38 717.237 828.22 724.97C825.34 735.27 822.38 744.58 816.26 752.11C811.107 758.45 804.537 762.63 796.55 764.65C791.55 765.92 787.82 765.54 781.92 765.64C781.441 765.648 780.982 765.831 780.63 766.156C780.277 766.48 780.057 766.923 780.01 767.4C778.73 780.8 775.97 808.443 771.73 850.33C771.157 855.937 770.317 859.44 769.21 860.84C765 866.18 761.28 865.63 753.47 865.63C493.684 865.59 324.864 865.603 247.01 865.67C237.764 865.677 231.494 865.19 228.2 864.21C215.68 860.51 205.31 850.48 201.56 837.75C200.687 834.783 200.264 830.413 200.29 824.64C200.384 803.64 200.394 768.367 200.32 718.82C200.287 693.833 200.55 678.63 201.11 673.21C202.924 655.59 207.187 638.567 213.9 622.14C220.5 606 229.884 591.81 242.05 579.57C250.06 571.51 258.2 563.44 267.66 555.55C283.854 542.043 299.6 529.67 314.9 518.43C318.14 516.06 318.8 509.22 319.21 504.74C319.93 496.92 320.33 490.657 320.41 485.95C320.53 478.85 321.53 471.73 321.29 464.28C321.244 462.72 320.787 461.243 319.92 459.85C317.427 455.797 313.11 450.27 306.97 443.27C305.524 441.617 300.037 435.357 290.51 424.49C268.46 399.35 256.23 368.98 251.87 336.07C249.957 321.65 250.184 307.127 252.55 292.5C259.27 250.953 279.747 218.2 313.98 194.24C325.407 186.247 337.48 179.48 350.2 173.94C354.734 171.967 359.234 170.38 363.7 169.18C400.214 159.373 436.164 159.893 471.55 170.74C480.077 173.353 488.537 177.38 496.93 182.82C505.704 188.5 512.824 195.287 518.29 203.18ZM334.02 442.51C334.144 442.557 334.278 442.563 334.406 442.529C334.533 442.495 334.647 442.422 334.73 442.32L357.56 414.87C357.654 414.758 357.703 414.615 357.697 414.469C357.692 414.323 357.632 414.185 357.53 414.08C356.37 412.907 355.474 411.857 354.84 410.93C346.38 398.46 334.14 385.82 333.82 368.04C333.707 361.64 333.827 356.953 334.18 353.98C334.78 348.887 336.317 343.397 338.79 337.51C345.54 321.44 361.09 310.87 377.98 308.31C388.167 306.77 397.82 308.8 406.94 314.4C411.014 316.9 414.82 319.51 418.36 322.23C418.827 322.583 419.774 322.98 421.2 323.42C421.703 323.574 422.243 323.542 422.72 323.33C424.847 322.37 426.914 321.317 428.92 320.17C435.78 316.257 443.264 311.573 451.37 306.12C467.43 295.313 480.807 281.613 491.5 265.02C496.967 256.54 500.68 246.857 502.64 235.97C506.37 215.3 491.47 202.1 474.42 195.02C459.307 188.74 443.42 185.127 426.76 184.18C412.667 183.387 398.62 184.25 384.62 186.77C361.69 190.91 340.4 201.44 321.9 215.39C312.914 222.17 304.717 230.377 297.31 240.01C283.13 258.457 275.074 279.473 273.14 303.06C272.067 316.187 272.234 326.833 273.64 335C275.387 345.18 278.797 357.57 283.87 372.17C288.577 385.71 295.597 397.93 304.93 408.83C309.49 414.157 314.454 419.727 319.82 425.54C324.32 430.4 328.53 435.9 332.41 441.32C332.797 441.853 333.334 442.25 334.02 442.51ZM458.98 613.51C463.307 618.423 464.774 623.84 463.38 629.76C463.027 631.253 462.31 632.237 461.23 632.71C456.88 634.63 450.07 630.58 445.65 627.88C433.484 620.42 422.33 611.58 412.19 601.36C406.61 595.73 401.93 591.46 396.5 587.99C372.647 572.71 348.974 556.247 325.48 538.6C325.231 538.413 324.926 538.316 324.615 538.327C324.303 538.338 324.005 538.456 323.77 538.66C318.697 543.06 313.407 547.393 307.9 551.66C301.207 556.847 291.45 564.363 278.63 574.21C273.93 577.81 269.93 581.073 266.63 584C263.277 586.96 259.474 590.447 255.22 594.46C252.414 597.107 250.104 599.927 248.29 602.92C246.344 606.127 245.36 607.743 245.34 607.77C233.68 625.677 226.34 645.007 223.32 665.76C222.267 673.02 221.774 685.53 221.84 703.29C221.96 734.257 221.97 774.733 221.87 824.72C221.86 828.25 221.85 831.45 223.53 834.29C225.784 838.103 228.847 840.807 232.72 842.4C235.214 843.433 239.15 843.947 244.53 843.94C267.63 843.933 288.287 843.91 306.5 843.87C312.327 843.863 317.37 843.623 321.63 843.15C321.794 843.132 321.946 843.055 322.055 842.933C322.165 842.811 322.223 842.653 322.22 842.49C322.06 816.697 322.027 770.093 322.12 702.68C322.12 697.77 325.54 692.6 330.69 692.61C336.4 692.62 341.56 696.99 343.83 701.84C344.624 703.527 345.024 707.023 345.03 712.33C345.064 798.777 345.084 842.16 345.09 842.48C345.093 842.651 345.163 842.813 345.284 842.933C345.406 843.053 345.57 843.12 345.74 843.12C367.094 842.867 388.357 842.963 409.53 843.41C448.59 844.22 475.23 843.63 522.29 842.92C522.513 842.915 522.725 842.824 522.882 842.668C523.039 842.511 523.128 842.3 523.13 842.08L523.73 797.26C523.733 797.156 523.714 797.052 523.676 796.956C523.637 796.859 523.579 796.772 523.505 796.699C523.43 796.625 523.342 796.568 523.245 796.531C523.148 796.493 523.044 796.476 522.94 796.48C520.094 796.587 515.62 796.42 509.52 795.98C501.87 795.42 495.66 793.5 492.34 786.18C490.29 781.64 486.48 767.48 489.04 761.4C490.414 758.147 492.22 755.73 494.46 754.15C503.627 747.697 512.324 741.613 520.55 735.9C520.751 735.761 520.914 735.576 521.028 735.36C521.141 735.144 521.2 734.904 521.2 734.66C521.05 719.9 520.85 704.92 517.74 690.5C512.56 666.573 503.67 643.87 491.07 622.39C486.977 615.41 482.304 608.85 477.05 602.71C469.564 593.67 464.007 587.47 460.38 584.11C454.78 578.923 449.064 573.64 443.23 568.26C437.05 562.56 432.62 559.03 432.63 550.53C432.637 538.41 432.707 522.363 432.84 502.39C432.86 499.31 433.23 497.113 433.95 495.8C436.82 490.54 441.41 490.02 447 489.99C454.034 489.943 462.214 489.93 471.54 489.95C479.407 489.963 484.204 489.8 485.93 489.46C497.75 487.15 507.95 476.32 513.22 465.87C515.68 460.99 517.657 453.933 519.15 444.7C521.35 431.13 521.93 419.07 522.79 406.2C523.37 397.54 526.45 394.71 535.48 393C538.954 392.34 543.804 391.26 550.03 389.76C550.067 389.752 550.101 389.735 550.13 389.712C550.159 389.689 550.183 389.659 550.199 389.626C550.215 389.592 550.224 389.555 550.224 389.518C550.224 389.481 550.216 389.444 550.2 389.41C548.087 385.143 545.64 380.797 542.86 376.37C534.78 363.477 528.527 352.9 524.1 344.64C521.234 339.293 519.767 333.743 519.7 327.99C519.574 316.63 519.477 307.22 519.41 299.76C519.33 289.91 517.97 281.39 513.49 273.2C513.446 273.122 513.383 273.057 513.307 273.01C513.232 272.963 513.145 272.936 513.057 272.932C512.968 272.928 512.881 272.947 512.802 272.987C512.724 273.027 512.658 273.086 512.61 273.16C498.83 294.253 481.58 312.157 460.86 326.87C459.594 327.77 456.504 329.57 451.59 332.27C444.56 336.12 436.73 341.58 431.45 344.69C425.29 348.31 419.61 351.11 413.06 347.61C412.722 347.431 412.415 347.205 412.15 346.94C410.344 345.127 408.094 342.767 405.4 339.86C400.99 335.1 393.06 330.27 386.31 329.51C376.76 328.44 368.34 332.92 362.46 340.75C351.8 354.94 353.14 372.46 362.91 386.98C368.01 394.56 374.894 400.827 383.56 405.78C383.999 406.032 384.469 406.234 384.96 406.38C387.794 407.22 389.717 408.047 390.73 408.86C394.81 412.15 395.84 417.32 393.74 422.05C391.23 427.73 385.89 429.02 379.87 428.84C377.2 428.75 376 429.78 374.05 431.56C362.23 442.31 356.17 452.2 344.51 469.41C343.29 471.21 342.85 473.2 342.73 475.25C342.097 486.79 341.144 499.27 339.87 512.69C339.757 513.917 339.454 516.043 338.96 519.07C338.87 519.635 338.933 520.214 339.145 520.744C339.356 521.274 339.707 521.736 340.16 522.08C354.42 532.907 369.587 543.903 385.66 555.07C391.674 559.243 398.34 563.607 405.66 568.16C415.34 574.18 422.82 580.16 432.31 588.92C441.21 597.14 450.1 605.337 458.98 613.51ZM633.2 560.67C642.98 554.61 645.19 543.55 641.05 533.21C637.27 523.77 629.85 517.46 620.73 513.28C608.04 507.46 587.78 510.62 584.31 526.77C581.22 541.15 589.15 554.54 602.56 560.03C612.27 564 623.8 566.49 633.2 560.67ZM815.05 683.94C813.724 683.947 811.55 683.907 808.53 683.82C766.757 682.553 732.917 682.3 707.01 683.06C703.897 683.153 701.894 683.21 701 683.23C685.04 683.597 669.374 683.803 654 683.85C647.934 683.863 642.494 684.017 637.68 684.31C635.23 684.45 633.15 685.03 631.33 686.3C571.964 727.627 538.04 751.213 529.56 757.06C523.8 761.027 517.69 765.047 511.23 769.12C510.949 769.297 510.735 769.563 510.624 769.875C510.513 770.188 510.512 770.528 510.62 770.84C511.354 772.94 512.827 774.043 515.04 774.15C517.967 774.29 525.77 774.34 538.45 774.3C541.457 774.287 544.28 774.02 546.92 773.5C548.367 773.216 549.748 772.659 550.99 771.86C563.917 763.507 578.077 754.627 593.47 745.22C595.997 743.673 598.68 742.893 601.52 742.88C627.674 742.747 650.304 742.667 669.41 742.64C682.11 742.63 697.25 741.82 707.75 742.17C728.54 742.86 756.09 742.45 780.75 743.11C786.557 743.263 790.737 743.073 793.29 742.54C802.09 740.71 806.21 725.24 807.91 718.17C811.344 703.903 814.017 692.863 815.93 685.05C815.964 684.918 815.966 684.78 815.938 684.647C815.909 684.514 815.85 684.389 815.765 684.282C815.68 684.175 815.572 684.088 815.448 684.029C815.324 683.97 815.188 683.939 815.05 683.94ZM544.22 843.96H749.31C749.585 843.959 749.849 843.857 750.052 843.675C750.256 843.492 750.383 843.241 750.41 842.97L758.13 766.81C758.141 766.689 758.127 766.567 758.089 766.452C758.051 766.337 757.989 766.232 757.908 766.142C757.827 766.053 757.729 765.981 757.619 765.933C757.509 765.884 757.39 765.859 757.27 765.86C736.977 765.947 722.414 765.88 713.58 765.66C679.92 764.84 654.08 765.39 616.5 765.24C615.12 765.233 611.674 765.3 606.16 765.44C602.06 765.54 600.46 766.58 597.22 768.48C590.594 772.367 584.047 776.383 577.58 780.53C572.76 783.63 568.03 786.673 563.39 789.66C557.43 793.5 551.35 795.42 545.15 795.42C544.908 795.42 544.675 795.516 544.503 795.686C544.331 795.856 544.233 796.088 544.23 796.33L543.59 843.32C543.589 843.404 543.604 843.487 543.635 843.564C543.666 843.642 543.713 843.712 543.771 843.772C543.83 843.831 543.9 843.879 543.977 843.911C544.054 843.943 544.137 843.96 544.22 843.96Z" fill="#1B8FD0"/>
<path d="M334.02 442.51C333.333 442.25 332.797 441.853 332.41 441.32C328.53 435.9 324.32 430.4 319.82 425.54C314.453 419.727 309.49 414.157 304.93 408.83C295.597 397.93 288.577 385.71 283.87 372.17C278.797 357.57 275.387 345.18 273.64 335C272.233 326.833 272.067 316.187 273.14 303.06C275.073 279.473 283.13 258.457 297.31 240.01C304.717 230.377 312.913 222.17 321.9 215.39C340.4 201.44 361.69 190.91 384.62 186.77C398.62 184.25 412.667 183.387 426.76 184.18C443.42 185.127 459.307 188.74 474.42 195.02C491.47 202.1 506.37 215.3 502.64 235.97C500.68 246.857 496.967 256.54 491.5 265.02C480.807 281.613 467.43 295.313 451.37 306.12C443.263 311.573 435.78 316.257 428.92 320.17C426.913 321.317 424.847 322.37 422.72 323.33C422.243 323.542 421.703 323.574 421.2 323.42C419.773 322.98 418.827 322.583 418.36 322.23C414.82 319.51 411.013 316.9 406.94 314.4C397.82 308.8 388.167 306.77 377.98 308.31C361.09 310.87 345.54 321.44 338.79 337.51C336.317 343.397 334.78 348.887 334.18 353.98C333.827 356.953 333.707 361.64 333.82 368.04C334.14 385.82 346.38 398.46 354.84 410.93C355.473 411.857 356.37 412.907 357.53 414.08C357.632 414.185 357.691 414.323 357.697 414.469C357.703 414.615 357.654 414.758 357.56 414.87L334.73 442.32C334.647 442.422 334.533 442.495 334.406 442.529C334.278 442.563 334.143 442.557 334.02 442.51Z" fill="#5BCDF8"/>
<path d="M518.289 203.18C525.869 213.493 528.909 225.007 527.409 237.72C527.029 240.967 526.149 245.197 524.769 250.41C523.289 249.937 522.666 248.657 522.899 246.57C524.106 235.763 524.332 226.987 523.579 220.24C523.146 216.393 521.382 210.707 518.289 203.18Z" fill="#5BCDF8"/>
<path d="M477.05 602.71L458.98 613.51C450.1 605.337 441.21 597.14 432.31 588.92C422.82 580.16 415.34 574.18 405.66 568.16C398.34 563.607 391.673 559.243 385.66 555.07C369.587 543.903 354.42 532.907 340.16 522.08C339.707 521.736 339.356 521.274 339.144 520.744C338.933 520.214 338.869 519.635 338.96 519.07C339.453 516.043 339.757 513.917 339.87 512.69C341.143 499.27 342.097 486.79 342.73 475.25C342.85 473.2 343.29 471.21 344.51 469.41C356.17 452.2 362.23 442.31 374.05 431.56C376 429.78 377.2 428.75 379.87 428.84C385.89 429.02 391.23 427.73 393.74 422.05C395.84 417.32 394.81 412.15 390.73 408.86C389.717 408.047 387.793 407.22 384.96 406.38C384.468 406.234 383.999 406.032 383.56 405.78C374.893 400.827 368.01 394.56 362.91 386.98C353.14 372.46 351.8 354.94 362.46 340.75C368.34 332.92 376.76 328.44 386.31 329.51C393.06 330.27 400.99 335.1 405.4 339.86C408.093 342.767 410.343 345.127 412.15 346.94C412.415 347.205 412.722 347.431 413.06 347.61C419.61 351.11 425.29 348.31 431.45 344.69C436.73 341.58 444.56 336.12 451.59 332.27C456.503 329.57 459.593 327.77 460.86 326.87C481.58 312.157 498.83 294.253 512.61 273.16C512.658 273.086 512.724 273.027 512.802 272.987C512.88 272.947 512.968 272.928 513.057 272.932C513.145 272.936 513.231 272.963 513.307 273.01C513.383 273.057 513.446 273.122 513.49 273.2C517.97 281.39 519.33 289.91 519.41 299.76C519.477 307.22 519.573 316.63 519.7 327.99C519.767 333.743 521.233 339.293 524.1 344.64C528.527 352.9 534.78 363.477 542.86 376.37C545.64 380.797 548.087 385.143 550.2 389.41C550.216 389.444 550.224 389.481 550.224 389.518C550.224 389.555 550.215 389.592 550.199 389.626C550.182 389.659 550.159 389.689 550.13 389.712C550.1 389.735 550.066 389.752 550.03 389.76C543.803 391.26 538.953 392.34 535.48 393C526.45 394.71 523.37 397.54 522.79 406.2C521.93 419.07 521.35 431.13 519.15 444.7C517.657 453.933 515.68 460.99 513.22 465.87C507.95 476.32 497.75 487.15 485.93 489.46C484.203 489.8 479.407 489.963 471.54 489.95C462.213 489.93 454.033 489.943 447 489.99C441.41 490.02 436.82 490.54 433.95 495.8C433.23 497.113 432.86 499.31 432.84 502.39C432.707 522.363 432.637 538.41 432.63 550.53C432.62 559.03 437.05 562.56 443.23 568.26C449.063 573.64 454.78 578.923 460.38 584.11C464.007 587.47 469.563 593.67 477.05 602.71Z" fill="#A2EAFF"/>
<path d="M757.772 285.1L613.789 339.506C608.07 341.668 605.185 348.056 607.347 353.775L607.438 354.018C609.6 359.737 615.988 362.621 621.707 360.46L765.69 306.054C771.409 303.892 774.294 297.504 772.133 291.785L772.041 291.542C769.88 285.823 763.492 282.939 757.772 285.1Z" fill="#5BCDF8"/>
<path d="M766.95 389.27H619.77C613.689 389.27 608.76 394.199 608.76 400.28V400.62C608.76 406.701 613.689 411.63 619.77 411.63H766.95C773.03 411.63 777.96 406.701 777.96 400.62V400.28C777.96 394.199 773.03 389.27 766.95 389.27Z" fill="#5BCDF8"/>
<path d="M761.821 484.743L620.201 439.273C614.485 437.438 608.364 440.584 606.529 446.3L606.431 446.605C604.596 452.321 607.742 458.442 613.458 460.277L755.077 505.747C760.793 507.582 766.915 504.436 768.75 498.72L768.848 498.415C770.683 492.699 767.537 486.578 761.821 484.743Z" fill="#5BCDF8"/>
<path d="M633.201 560.67C623.801 566.49 612.27 564 602.56 560.03C589.15 554.54 581.22 541.15 584.31 526.77C587.78 510.62 608.04 507.46 620.73 513.28C629.85 517.46 637.27 523.77 641.05 533.21C645.19 543.55 642.981 554.61 633.201 560.67Z" fill="#5BCDF8"/>
<path d="M458.98 613.51L477.05 602.71C482.303 608.85 486.977 615.41 491.07 622.39C503.67 643.87 512.56 666.573 517.74 690.5C520.85 704.92 521.05 719.9 521.2 734.66C521.2 734.904 521.141 735.144 521.027 735.36C520.914 735.576 520.75 735.761 520.55 735.9C512.323 741.613 503.627 747.697 494.46 754.15C492.22 755.73 490.413 758.147 489.04 761.4C486.48 767.48 490.29 781.64 492.34 786.18C495.66 793.5 501.87 795.42 509.52 795.98C515.62 796.42 520.093 796.587 522.94 796.48C523.044 796.476 523.148 796.493 523.245 796.531C523.342 796.568 523.43 796.625 523.504 796.699C523.578 796.772 523.637 796.859 523.675 796.956C523.714 797.052 523.733 797.156 523.73 797.26L523.13 842.08C523.127 842.3 523.038 842.511 522.882 842.668C522.725 842.824 522.513 842.915 522.29 842.92C475.23 843.63 448.59 844.22 409.53 843.41C388.357 842.963 367.093 842.867 345.74 843.12C345.569 843.12 345.405 843.053 345.284 842.933C345.162 842.813 345.093 842.651 345.09 842.48C345.083 842.16 345.063 798.777 345.03 712.33C345.023 707.023 344.623 703.527 343.83 701.84C341.56 696.99 336.4 692.62 330.69 692.61C325.54 692.6 322.12 697.77 322.12 702.68C322.027 770.093 322.06 816.697 322.22 842.49C322.223 842.653 322.164 842.811 322.055 842.933C321.946 843.055 321.794 843.133 321.63 843.15C317.37 843.623 312.327 843.863 306.5 843.87C288.287 843.91 267.63 843.933 244.53 843.94C239.15 843.947 235.213 843.433 232.72 842.4C228.847 840.807 225.783 838.103 223.53 834.29C221.85 831.45 221.86 828.25 221.87 824.72C221.97 774.733 221.96 734.257 221.84 703.29C221.773 685.53 222.267 673.02 223.32 665.76C226.34 645.007 233.68 625.677 245.34 607.77C245.36 607.743 246.343 606.127 248.29 602.92C250.103 599.927 252.413 597.107 255.22 594.46C259.473 590.447 263.277 586.96 266.63 584C269.93 581.073 273.93 577.81 278.63 574.21C291.45 564.363 301.207 556.847 307.9 551.66C313.407 547.393 318.697 543.06 323.77 538.66C324.005 538.456 324.303 538.338 324.614 538.327C324.926 538.316 325.231 538.413 325.48 538.6C348.973 556.247 372.647 572.71 396.5 587.99C401.93 591.46 406.61 595.73 412.19 601.36C422.33 611.58 433.483 620.42 445.65 627.88C450.07 630.58 456.88 634.63 461.23 632.71C462.31 632.237 463.027 631.253 463.38 629.76C464.773 623.84 463.307 618.423 458.98 613.51Z" fill="#5BCDF8"/>
<path d="M815.049 683.94C815.187 683.939 815.323 683.97 815.447 684.029C815.571 684.088 815.679 684.175 815.764 684.282C815.849 684.389 815.908 684.514 815.937 684.647C815.966 684.78 815.963 684.918 815.929 685.05C814.016 692.863 811.343 703.903 807.909 718.17C806.209 725.24 802.089 740.71 793.289 742.54C790.736 743.073 786.556 743.263 780.749 743.11C756.089 742.45 728.539 742.86 707.749 742.17C697.249 741.82 682.109 742.63 669.409 742.64C650.303 742.667 627.673 742.747 601.519 742.88C598.679 742.893 595.996 743.673 593.469 745.22C578.076 754.627 563.916 763.507 550.989 771.86C549.747 772.659 548.366 773.216 546.919 773.5C544.279 774.02 541.456 774.287 538.449 774.3C525.769 774.34 517.966 774.29 515.039 774.15C512.826 774.043 511.353 772.94 510.619 770.84C510.511 770.528 510.512 770.188 510.623 769.875C510.734 769.563 510.948 769.297 511.229 769.12C517.689 765.047 523.799 761.027 529.559 757.06C538.039 751.213 571.963 727.627 631.329 686.3C633.149 685.03 635.229 684.45 637.679 684.31C642.493 684.017 647.933 683.863 653.999 683.85C669.373 683.803 685.039 683.597 700.999 683.23C701.893 683.21 703.896 683.153 707.009 683.06C732.916 682.3 766.756 682.553 808.529 683.82C811.549 683.907 813.723 683.947 815.049 683.94Z" fill="#5BCDF8"/>
<path d="M543.59 843.32L544.23 796.33C544.233 796.088 544.331 795.856 544.503 795.686C544.675 795.516 544.908 795.42 545.15 795.42C551.35 795.42 557.43 793.5 563.39 789.66C568.03 786.673 572.76 783.63 577.58 780.53C584.047 776.383 590.593 772.367 597.22 768.48C600.46 766.58 602.06 765.54 606.16 765.44C611.673 765.3 615.12 765.233 616.5 765.24C654.08 765.39 679.92 764.84 713.58 765.66C722.413 765.88 736.977 765.947 757.27 765.86C757.39 765.859 757.509 765.884 757.619 765.933C757.728 765.981 757.827 766.053 757.908 766.142C757.989 766.232 758.051 766.337 758.089 766.452C758.127 766.567 758.141 766.689 758.13 766.81L750.41 842.97C750.383 843.241 750.255 843.492 750.052 843.675C749.849 843.857 749.584 843.959 749.31 843.96H544.22C544.136 843.96 544.054 843.943 543.976 843.911C543.899 843.879 543.829 843.832 543.771 843.772C543.712 843.712 543.666 843.642 543.635 843.564C543.604 843.487 543.589 843.404 543.59 843.32Z" fill="#5BCDF8"/>
</svg>
