<svg width="1024" height="1024" viewBox="0 0 1024 1024" fill="none" xmlns="http://www.w3.org/2000/svg">
<path d="M458.23 160.5C449.257 167.073 438.074 174.477 424.68 182.71C414.674 188.857 404.54 193.077 394.28 195.37" stroke="#47A6DF" stroke-width="2"/>
<path d="M394.28 195.37C394.113 192.323 393.273 189.603 391.76 187.21C391.585 186.931 391.329 186.714 391.03 186.59C388.997 185.743 386.807 185.273 384.46 185.18C378.15 184.94 370.7 183.84 365.19 187.41C364.905 187.598 364.69 187.88 364.58 188.21C360.547 200.263 353.343 209.523 342.97 215.99C331.53 223.12 320.67 226.59 307.41 224.48" stroke="#4EACE3" stroke-width="2"/>
<path d="M307.41 224.48C303.83 214.22 300.043 203.963 296.05 193.71C294.73 190.33 291.81 186.21 287.87 186.17C280.497 186.103 274.077 186.057 268.61 186.03C264.34 186.01 261.84 187.24 259.87 190.86" stroke="#9FD6F2" stroke-width="2"/>
<path d="M259.87 190.86C259.683 190.72 259.496 190.583 259.31 190.45" stroke="#4EACE3" stroke-width="2"/>
<path d="M259.31 190.45C261.716 187.123 264.84 185.337 268.68 185.09C274.526 184.703 279.46 184.537 283.48 184.59C283.823 184.59 284.159 184.522 284.47 184.39C298.223 178.323 310.876 171.2 322.43 163.02C335.68 153.64 346.73 146.5 355.71 134.79" stroke="#64BDE9" stroke-width="2"/>
<path d="M220.65 297.49C218.13 304.017 215.83 310.633 213.75 317.34C213.016 319.693 212.78 321.69 213.04 323.33C213.373 325.423 214.676 326.6 216.95 326.86C218.696 327.067 224.406 327.11 234.08 326.99C237.88 326.95 240.12 326.29 241.6 322.82C243.626 318.053 245.723 312 247.89 304.66C248.896 301.253 251.336 299.58 255.21 299.64C261.316 299.727 276.16 299.73 299.74 299.65C302.266 299.643 303.963 300.747 304.83 302.96C307.37 309.453 309.44 314.77 311.04 318.91C313.03 324.06 315.39 327.12 321 327C325.966 326.887 330.973 326.96 336.02 327.22" stroke="#83C8ED" stroke-width="2"/>
<path d="M153.57 310.56C161.71 306.087 167.837 302.52 171.95 299.86C195.01 284.96 213.09 272.77 232.92 261.8C233.204 261.646 233.421 261.393 233.53 261.09L249.48 216.38" stroke="#4EACE3" stroke-width="2"/>
<path d="M393.21 261.7L393.06 226.29" stroke="#83C8ED" stroke-width="2"/>
<path d="M393.06 226.29C392.974 215.79 392.95 205.29 392.99 194.79C393.01 190.59 392.86 187.52 387.97 186.52C383.82 185.67 380.32 186.11 372.87 186.09C368.31 186.07 364.6 187.11 364.62 192.06C364.694 215.16 364.76 238.223 364.82 261.25" stroke="#95CEEF" stroke-width="2"/>
<path d="M364.82 261.25L364.98 299.08" stroke="#83C8ED" stroke-width="2"/>
<path d="M335.82 303.53L318.37 254.23" stroke="#83C8ED" stroke-width="2"/>
<path d="M318.37 254.23L307.41 224.48" stroke="#95CEEF" stroke-width="2"/>
<path d="M318.37 254.23L292.08 262.5" stroke="#D4F2FC" stroke-width="2"/>
<path d="M292.08 262.5L278.71 227.12C278.6 226.826 278.429 226.56 278.208 226.338C277.988 226.116 277.723 225.944 277.432 225.835C277.141 225.726 276.831 225.681 276.524 225.705C276.216 225.728 275.918 225.818 275.65 225.97C275.357 226.137 275.067 226.577 274.78 227.29C274.094 229.023 272.01 234.957 268.53 245.09C266.964 249.663 264.17 256.937 260.15 266.91C257.06 274.56 262.33 274.72 268 274.41" stroke="#9FD6F2" stroke-width="2"/>
<path d="M268 274.41C252.74 283.39 236.83 290.48 220.65 297.49" stroke="#D4F2FC" stroke-width="2"/>
<path d="M220.65 297.49C228.324 277.757 233.42 264.24 235.94 256.94C243.027 236.367 250.254 215.843 257.62 195.37C258.22 193.71 258.97 192.207 259.87 190.86" stroke="#95CEEF" stroke-width="2"/>
<path d="M259.309 190.45C255.143 198.73 251.866 207.373 249.479 216.38" stroke="#5AB5E6" stroke-width="2"/>
<path d="M249.48 216.38C237.36 224.447 225.387 232.553 213.56 240.7C194.92 253.54 175.2 265.8 153.46 272.72" stroke="#64BDE9" stroke-width="2"/>
<path d="M255.89 374.47C283.06 359.6 310.34 344.54 336.02 327.22" stroke="#3D9EDC" stroke-width="2"/>
<path d="M336.02 327.22C337.18 327.18 338.374 327.1 339.6 326.98C343.37 326.61 342.59 322.16 341.75 319.71C339.89 314.297 337.914 308.903 335.82 303.53" stroke="#7CC1E9" stroke-width="2"/>
<path d="M335.82 303.53C338.9 307.08 340.26 311.94 341.83 316.26C341.852 316.319 341.886 316.373 341.93 316.418C341.974 316.462 342.026 316.497 342.084 316.52C342.142 316.543 342.203 316.553 342.265 316.549C342.326 316.546 342.386 316.529 342.44 316.5C350.974 312.207 358.487 306.4 364.98 299.08" stroke="#3D9EDC" stroke-width="2"/>
<path d="M364.98 299.08C364.907 306.16 364.844 313.133 364.79 320C364.757 324.28 366.85 326.523 371.07 326.73C377.584 327.05 383.674 327.08 389.34 326.82C390.046 326.79 390.729 326.557 391.306 326.147C391.882 325.737 392.329 325.168 392.59 324.51C393.05 323.357 393.27 321.937 393.25 320.25C393.05 300.737 393.037 281.22 393.21 261.7" stroke="#7CC1E9" stroke-width="2"/>
<path d="M393.21 261.7C393.477 261.88 393.62 262.14 393.64 262.48C393.643 262.496 393.652 262.511 393.664 262.523C393.676 262.534 393.691 262.541 393.708 262.544C393.724 262.546 393.741 262.543 393.756 262.535C393.771 262.527 393.783 262.515 393.79 262.5C393.857 262.36 393.89 262.257 393.89 262.19C394.103 254.05 394.21 244.143 394.21 232.47C394.21 232.08 393.89 231.76 393.89 231.25C393.843 217.217 393.857 209.217 393.93 207.25C393.93 207.237 393.987 207.053 394.1 206.7C394.173 206.467 394.21 206.283 394.21 206.15C394.217 202.497 394.24 198.903 394.28 195.37" stroke="#3D9EDC" stroke-width="2"/>
<path d="M393.06 226.29L392.93 243.39C392.93 243.534 392.893 243.676 392.823 243.802C392.753 243.928 392.653 244.034 392.53 244.11L364.82 261.25" stroke="#D4F2FC" stroke-width="2"/>
<path d="M292.08 262.5C293.23 265.8 296.49 274.34 289.75 274.33C282.463 274.323 275.213 274.35 268 274.41" stroke="#8DD0F0" stroke-width="2"/>
<path d="M733.87 178.2C727.47 186.607 719.38 193.373 709.6 198.5" stroke="#47A6DF" stroke-width="2"/>
<path d="M709.6 198.5C703.133 199.22 697.653 200.43 693.16 202.13C677.48 208.07 664.82 221.52 661.06 238.46C659.5 245.49 659.57 251.35 659.94 259.48" stroke="#8DD0F0" stroke-width="2"/>
<path d="M659.94 259.48L659.74 258.04C659.738 258.022 659.732 258.004 659.722 257.988C659.713 257.972 659.7 257.958 659.685 257.946C659.67 257.935 659.653 257.927 659.635 257.923C659.617 257.918 659.599 257.917 659.58 257.92H659.57C659.55 257.921 659.531 257.927 659.513 257.936C659.495 257.945 659.48 257.958 659.467 257.974C659.454 257.989 659.444 258.008 659.437 258.028C659.431 258.048 659.429 258.069 659.43 258.09C660.32 270.99 668.82 282.3 676.3 292.34C676.403 292.479 676.468 292.643 676.487 292.815C676.507 292.987 676.48 293.162 676.41 293.32C673.183 300.68 669.417 307.61 665.11 314.11" stroke="#47A6DF" stroke-width="2"/>
<path d="M722.59 199.19C706.03 219.39 691.134 240.707 677.9 263.14C674.7 268.567 671.467 274.057 668.2 279.61" stroke="#B2E6F9" stroke-width="2"/>
<path d="M659.939 259.48C661.546 266.587 664.299 273.297 668.199 279.61" stroke="#7CC1E9" stroke-width="2"/>
<path d="M668.2 279.61C670.847 283.557 673.667 287.41 676.66 291.17C679.84 295.17 683.52 300.2 685.32 303.95C689.454 312.57 692.057 321.713 693.13 331.38C693.15 331.565 693.238 331.736 693.376 331.859C693.515 331.983 693.694 332.051 693.88 332.05H735.79C736.045 332.05 736.29 331.957 736.48 331.789C736.67 331.621 736.791 331.39 736.82 331.14C738.26 319.03 741.57 308.34 749.54 298.55C762.44 282.69 776.27 263.21 770.46 241.52C764.2 218.16 746.84 202.07 722.59 199.19" stroke="#6CBCE8" stroke-width="2"/>
<path d="M722.59 199.19L709.6 198.5" stroke="#7CC1E9" stroke-width="2"/>
<path d="M609.059 393.38L593.689 407.98" stroke="#3696D7" stroke-width="2"/>
<path d="M593.69 407.98C580.71 388.687 562.68 375.917 539.6 369.67C518.91 364.07 497.84 364.42 478.13 372.14C465.52 377.07 453.8 383.66 444.11 392.93C439.57 397.277 435.22 402.807 431.06 409.52C423.64 421.48 418.54 434.47 415.76 448.49" stroke="#5AB5E6" stroke-width="2"/>
<path d="M415.76 448.49C408.78 454.73 401.82 459.7 393.05 462.52" stroke="#3D9EDC" stroke-width="2"/>
<path d="M756.02 894.63C756.2 890.757 756.066 886.87 755.62 882.97C753.7 866 752.49 848.95 750.8 831.94" stroke="#2F90D3" stroke-width="2"/>
<path d="M750.8 831.94C750.12 826.973 749.72 823.83 749.6 822.51C747.974 804.803 741.614 789.8 730.52 777.5C722.287 768.36 711.83 760.99 699.15 755.39" stroke="#3696D7" stroke-width="2"/>
<path d="M699.15 755.39C695.257 753.63 691.357 752.023 687.45 750.57C680.417 747.963 673.357 745.387 666.27 742.84C648.29 736.4 629.04 729.543 608.52 722.27C608.002 722.087 607.439 722.071 606.911 722.226C606.383 722.38 605.918 722.696 605.58 723.13C595.14 736.597 582.373 746.86 567.28 753.92C555.24 759.553 543.23 763.227 531.25 764.94C514.537 767.327 497.4 766.383 479.84 762.11" stroke="#409EDA" stroke-width="2"/>
<path d="M479.84 762.11C484.34 755.383 487.563 748.197 489.51 740.55" stroke="#2F90D3" stroke-width="2"/>
<path d="M489.51 740.55C513.756 745.303 536.75 742.55 558.49 732.29C569.45 727.12 577.45 720.84 584.67 711.83C584.753 711.727 584.814 711.608 584.851 711.481C584.887 711.353 584.898 711.22 584.882 711.088C584.866 710.955 584.824 710.828 584.758 710.711C584.693 710.595 584.605 710.493 584.5 710.41C569.673 698.843 562.013 683.63 561.52 664.77C561.517 664.634 561.479 664.501 561.408 664.384C561.337 664.267 561.236 664.172 561.116 664.106C560.995 664.04 560.859 664.007 560.722 664.009C560.584 664.012 560.449 664.05 560.33 664.12C544 674.09 523.05 677.46 504.14 675.9" stroke="#65B5E3" stroke-width="2"/>
<path d="M504.14 675.9C508.72 674.807 513.323 674.18 517.95 674.02C518.569 674.001 519.159 673.757 519.61 673.333C520.061 672.91 520.342 672.336 520.4 671.72C520.96 665.48 521.26 662.043 521.3 661.41C521.507 658.07 519.937 656.263 516.59 655.99C511.43 655.563 507.517 655.25 504.85 655.05C495.23 654.323 486.82 651.31 479.62 646.01" stroke="#2F90D3" stroke-width="2"/>
<path d="M479.62 646.01C493.213 652.803 507.247 655.28 521.72 653.44C535.01 651.74 545.79 646.32 556.35 638.34C574.03 624.98 587.91 608.4 595.85 587.62C598.423 580.907 600.61 574.26 602.41 567.68C604.99 558.27 614.47 558.43 619.83 554.28C623.483 551.447 626.23 547.3 628.07 541.84C630.63 534.24 631.987 527.293 632.14 521C632.32 513.9 630.35 509.58 624.68 505.02C620.727 501.833 618.447 500 617.84 499.52C614.14 496.59 610.71 493.94 610.06 489.93C609.727 487.87 609.403 485.113 609.09 481.66C609.061 481.329 608.937 481.013 608.733 480.751C608.529 480.488 608.254 480.29 607.94 480.18C595.01 475.58 583.66 468.72 573.4 458.94C566.247 452.12 559.783 444.887 554.01 437.24C553.941 437.149 553.853 437.074 553.752 437.02C553.652 436.966 553.54 436.935 553.426 436.928C553.312 436.922 553.198 436.94 553.092 436.981C552.985 437.023 552.889 437.088 552.81 437.17C541.503 449.077 528.303 458.653 513.21 465.9" stroke="#65B5E3" stroke-width="2"/>
<path d="M513.21 465.9C518.48 452.95 525.55 440.65 532.04 428.23" stroke="#2F90D3" stroke-width="2"/>
<path d="M593.69 407.98C600.71 418.753 605.4 430.407 607.76 442.94C608.7 447.927 609.38 451.763 609.8 454.45C609.821 454.574 609.809 454.702 609.765 454.819C609.72 454.937 609.646 455.041 609.548 455.12C609.45 455.2 609.333 455.252 609.209 455.271C609.084 455.29 608.957 455.276 608.84 455.23C598.953 451.457 590.603 445.703 583.79 437.97C576.83 430.09 573.51 424.83 566.99 414.76C565.75 412.847 564.073 411.117 561.96 409.57C555.56 404.88 550.5 408.32 545.99 413.24C541.357 418.313 536.707 423.31 532.04 428.23" stroke="#4CA7DD" stroke-width="2"/>
<path d="M532.04 428.23C522.726 436.343 512.796 442.513 502.25 446.74C477.63 456.61 451.52 458.6 423.68 457.76C421.58 457.7 418.8 457.85 416.5 457.18C416.072 457.052 415.701 456.78 415.451 456.41C415.202 456.04 415.088 455.595 415.13 455.15L415.76 448.49" stroke="#53AEE2" stroke-width="2"/>
<path d="M513.21 465.9L507.75 468.28" stroke="#6CBCE8" stroke-width="2"/>
<path d="M507.75 468.28C495.124 473.4 482.017 476.847 468.43 478.62C451.09 480.887 433.627 481.37 416.04 480.07C415.766 480.051 415.495 480.141 415.287 480.321C415.079 480.501 414.951 480.756 414.93 481.03C414.47 486.92 415.14 492.61 410.5 496.5C409.327 497.48 405.96 500.027 400.4 504.14C393.47 509.27 392.02 514.88 392.61 523.47C393.184 531.737 395.21 539.59 398.69 547.03C401.8 553.71 408.46 557.07 414.88 559.71C417.98 560.99 420.06 562.87 420.87 565.69C423.484 574.717 426.094 582.473 428.7 588.96" stroke="#7CC1E9" stroke-width="2"/>
<path d="M428.7 588.96C431.714 596.04 434.527 601.923 437.14 606.61C442.7 616.59 450.68 624.65 459.8 632.37C465.94 637.563 472.547 642.11 479.62 646.01" stroke="#6CBCE8" stroke-width="2"/>
<path d="M504.14 675.9C489.9 674.913 476.29 670.747 463.31 663.4C463.183 663.329 463.04 663.292 462.895 663.293C462.749 663.294 462.607 663.333 462.481 663.405C462.355 663.478 462.25 663.582 462.176 663.707C462.102 663.832 462.062 663.975 462.06 664.12C461.767 683.247 454.193 698.66 439.34 710.36C439.228 710.448 439.135 710.557 439.065 710.681C438.995 710.805 438.951 710.941 438.934 711.083C438.918 711.224 438.929 711.367 438.968 711.504C439.006 711.641 439.072 711.769 439.16 711.88C451.63 727.57 469.78 736.3 489.51 740.55" stroke="#6CBCE8" stroke-width="2"/>
<path d="M479.84 762.11C470.08 759.617 460.714 755.95 451.74 751.11" stroke="#47A6DF" stroke-width="2"/>
<path d="M451.74 751.11C438.94 743.937 428.09 734.58 419.19 723.04C418.887 722.644 418.466 722.355 417.988 722.213C417.51 722.071 417 722.084 416.53 722.25C383.01 734.103 357.043 743.23 338.63 749.63C332.496 751.763 327.756 753.65 324.41 755.29C319.116 757.89 314.673 760.403 311.08 762.83C300.8 769.76 290.45 780.26 284.38 791.51C278.886 801.697 275.713 811.437 274.86 820.73C273.266 838.183 271.706 855.7 270.18 873.28" stroke="#53AEE2" stroke-width="2"/>
<path d="M270.18 873.28L267.32 894.62" stroke="#47A6DF" stroke-width="2"/>
<path d="M699.15 755.39C672.38 775.16 649 796.83 624.61 813.52C606.51 825.91 597.14 832 581.62 843.87C567.133 854.95 550.726 866.647 532.4 878.96C527.593 882.193 520.9 887.28 512.32 894.22C512.079 894.415 511.778 894.53 511.46 894.55L509.72 894.64" stroke="#4EACE3" stroke-width="2"/>
<path d="M270.18 873.28C283.406 862.8 295.663 854.513 306.95 848.42C314.076 844.58 324.446 839.013 338.06 831.72C346.533 827.18 356.893 820.677 369.14 812.21C378.4 805.81 389.126 798.277 401.32 789.61C413.2 781.17 424.76 771.56 435.59 762.6C438.483 760.207 443.866 756.377 451.74 751.11" stroke="#64BDE9" stroke-width="2"/>
<path d="M750.799 831.94C738.993 837.907 729.833 842.723 723.319 846.39C708.106 854.957 693.423 865.357 679.269 877.59C672.829 883.157 667.469 888.823 663.189 894.59" stroke="#3D9EDC" stroke-width="2"/>
<path d="M428.7 588.96C436.307 579.133 442.22 570.163 446.44 562.05C451.974 551.403 455.714 544.327 457.66 540.82C466.74 524.39 476.73 512.95 491.66 494.32C498.1 486.287 503.464 477.607 507.75 468.28" stroke="#B2E6F9" stroke-width="2"/>
<path d="M785.82 589.21L771.04 606.82" stroke="#3D9EDC" stroke-width="2"/>
<path d="M771.04 606.82C760.18 599.1 746.73 604.45 740.17 614.8C735.417 622.313 734.573 630.73 737.64 640.05" stroke="#5AB5E6" stroke-width="2"/>
<path d="M737.64 640.05L723.51 659.27" stroke="#3D9EDC" stroke-width="2"/>
<path d="M737.64 640.05C739.413 644.53 742.623 649.093 747.27 653.74C762.03 668.5 777.303 683.73 793.09 699.43C793.242 699.581 793.422 699.701 793.621 699.783C793.819 699.864 794.032 699.906 794.247 699.905C794.461 699.904 794.674 699.861 794.872 699.777C795.069 699.694 795.249 699.573 795.4 699.42C808.84 685.62 821.846 672.473 834.42 659.98C846.71 647.76 859.1 633.63 849.93 616.09C842.81 602.47 825.24 597.92 813.8 608.87C810.34 612.19 807.82 615.01 803.87 619.8C799.68 624.86 796.51 627.78 790.6 625.54C789.486 625.12 787.696 623.607 785.23 621C781.71 617.26 776.41 611.05 771.04 606.82" stroke="#53AEE2" stroke-width="2"/>
<path d="M736.64 355.53L693.06 355.75C693.037 355.75 693.014 355.755 692.992 355.764C692.971 355.773 692.952 355.786 692.936 355.803C692.92 355.82 692.908 355.84 692.9 355.862C692.892 355.884 692.889 355.907 692.89 355.93V356.3C692.917 361.27 695.077 366.025 698.895 369.518C702.714 373.012 707.877 374.959 713.25 374.93L716.65 374.91C722.022 374.882 727.163 372.881 730.944 369.348C734.724 365.815 736.834 361.039 736.81 356.07V355.7C736.81 355.655 736.792 355.612 736.76 355.58C736.728 355.548 736.685 355.53 736.64 355.53Z" stroke="#6CBCE8" stroke-width="2"/>
<path d="M552.47 599.21C556.82 595.53 557.7 589.97 554.58 585.39C550.29 579.11 544.36 581.22 539.1 585.18C532.31 590.29 525.78 594.02 517.06 594.81C507.72 595.66 498.4 595.21 490.64 589.78C490.088 589.395 489.585 588.948 489.14 588.45C486.14 585.063 484.406 583.157 483.94 582.73C479.64 578.75 473.95 578.15 469.49 581.85C467.61 583.41 466.653 585.577 466.62 588.35C466.55 593.83 473.8 600.81 477.77 603.17C494.61 613.157 512.46 615.467 531.32 610.1C539.653 607.727 546.703 604.097 552.47 599.21Z" stroke="#6CBCE8" stroke-width="2"/>
<path d="M715.27 106.27C721.33 106.25 724.81 111.55 725.23 117.17C725.364 118.91 725.44 123.28 725.46 130.28C725.487 137.28 725.444 141.65 725.33 143.39C724.95 149.01 721.51 154.34 715.45 154.37C709.39 154.39 705.91 149.08 705.49 143.47C705.364 141.73 705.287 137.36 705.26 130.36C705.234 123.353 705.28 118.98 705.4 117.24C705.77 111.62 709.21 106.3 715.27 106.27Z" fill="#70C5EC"/>
<path d="M458.23 160.5C449.256 167.073 438.073 174.477 424.68 182.71C414.673 188.857 404.54 193.077 394.28 195.37C394.113 192.323 393.273 189.603 391.76 187.21C391.584 186.931 391.329 186.714 391.03 186.59C388.996 185.743 386.806 185.273 384.46 185.18C378.15 184.94 370.7 183.84 365.19 187.41C364.904 187.598 364.69 187.879 364.58 188.21C360.546 200.263 353.343 209.523 342.97 215.99C331.53 223.12 320.67 226.59 307.41 224.48C303.83 214.22 300.043 203.963 296.05 193.71C294.73 190.33 291.81 186.21 287.87 186.17C280.496 186.103 274.076 186.057 268.61 186.03C264.34 186.01 261.84 187.24 259.87 190.86C259.683 190.72 259.496 190.583 259.31 190.45C261.716 187.123 264.84 185.337 268.68 185.09C274.526 184.703 279.46 184.537 283.48 184.59C283.823 184.59 284.159 184.522 284.47 184.39C298.223 178.323 310.876 171.2 322.43 163.02C335.68 153.64 346.73 146.5 355.71 134.79C370.323 134.45 384.936 134.307 399.55 134.36C409.876 134.4 417.46 134.99 422.3 136.13C436.846 139.563 448.823 147.687 458.23 160.5Z" fill="#58B4E6"/>
<path d="M355.71 134.79C346.73 146.5 335.68 153.64 322.43 163.02C310.877 171.2 298.223 178.323 284.47 184.39C284.16 184.522 283.823 184.59 283.48 184.59C279.46 184.537 274.527 184.703 268.68 185.09C264.84 185.337 261.717 187.123 259.31 190.45C255.143 198.73 251.867 207.373 249.48 216.38C237.36 224.447 225.387 232.553 213.56 240.7C194.92 253.54 175.2 265.8 153.46 272.72C153.44 247.14 153.383 221.567 153.29 196C153.26 187.74 153.91 179.57 157.34 171.82C166.84 150.39 185.43 135.75 209.75 135.48C222.09 135.34 263.923 135.287 335.25 135.32C338.69 135.327 345.51 135.15 355.71 134.79Z" fill="#70C5EC"/>
<path d="M646.846 168.101L625.542 147.093C621.704 143.308 615.525 143.351 611.74 147.189L611.318 147.616C607.534 151.454 607.577 157.634 611.415 161.419L632.719 182.427C636.557 186.212 642.736 186.169 646.521 182.331L646.942 181.904C650.727 178.066 650.684 171.886 646.846 168.101Z" fill="#70C5EC"/>
<path d="M814.3 144.41C821.25 145.78 824.23 152.99 822.21 159.22C821.684 160.84 819.907 163.103 816.88 166.01C814.02 168.75 808.774 174.037 801.14 181.87C799.954 183.09 797.957 184.09 795.15 184.87C789.57 186.42 784.51 183.12 783.64 177.63C783.047 173.897 784.127 170.64 786.88 167.86C798.78 155.827 805.027 149.497 805.62 148.87C807.67 146.69 811.12 143.79 814.3 144.41Z" fill="#44A4E0"/>
<path d="M458.23 160.5C465.77 170.77 468.5 182.52 468.48 195C468.44 229.387 468.466 267.637 468.56 309.75C468.63 336.64 455.19 358.48 430.7 369.73C423.98 372.817 416.333 374.443 407.76 374.61C392.866 374.89 380.313 375.037 370.1 375.05C363.5 375.06 363.45 378.24 363.72 383.75C364.606 401.723 365.05 410.72 365.05 410.74C364.91 413.22 364.23 415.37 363.01 417.19C360.29 421.28 354.33 422.42 350.01 420.5C348.13 419.66 346.286 418.48 344.48 416.96C319.853 396.14 304.043 382.54 297.05 376.16C295.663 374.887 293.813 374.26 291.5 374.28C279.686 374.373 267.816 374.437 255.89 374.47C283.06 359.6 310.34 344.54 336.02 327.22C337.18 327.18 338.373 327.1 339.6 326.98C343.37 326.61 342.59 322.16 341.75 319.71C339.89 314.297 337.913 308.903 335.82 303.53C338.9 307.08 340.26 311.94 341.83 316.26C341.851 316.319 341.885 316.373 341.929 316.417C341.973 316.462 342.025 316.497 342.083 316.52C342.141 316.543 342.203 316.553 342.264 316.549C342.326 316.546 342.386 316.529 342.44 316.5C350.973 312.207 358.486 306.4 364.98 299.08C364.906 306.16 364.843 313.133 364.79 320C364.756 324.28 366.85 326.523 371.07 326.73C377.583 327.05 383.673 327.08 389.34 326.82C390.046 326.79 390.728 326.556 391.305 326.147C391.882 325.737 392.328 325.168 392.59 324.51C393.05 323.357 393.27 321.937 393.25 320.25C393.05 300.737 393.036 281.22 393.21 261.7C393.476 261.88 393.62 262.14 393.64 262.48C393.643 262.496 393.651 262.511 393.663 262.523C393.676 262.534 393.691 262.541 393.708 262.544C393.724 262.546 393.741 262.543 393.756 262.535C393.77 262.527 393.782 262.515 393.79 262.5C393.856 262.36 393.89 262.257 393.89 262.19C394.103 254.05 394.21 244.143 394.21 232.47C394.21 232.08 393.89 231.76 393.89 231.25C393.843 217.217 393.856 209.217 393.93 207.25C393.93 207.237 393.986 207.053 394.1 206.7C394.173 206.467 394.21 206.283 394.21 206.15C394.216 202.497 394.24 198.903 394.28 195.37C404.54 193.077 414.673 188.857 424.68 182.71C438.073 174.477 449.256 167.073 458.23 160.5Z" fill="#3697D8"/>
<path d="M733.87 178.2C727.47 186.607 719.38 193.373 709.6 198.5C703.133 199.22 697.653 200.43 693.16 202.13C677.48 208.07 664.82 221.52 661.06 238.46C659.5 245.49 659.57 251.35 659.94 259.48L659.74 258.04C659.737 258.022 659.731 258.004 659.722 257.988C659.712 257.972 659.7 257.958 659.685 257.946C659.67 257.935 659.653 257.927 659.635 257.923C659.617 257.918 659.598 257.917 659.58 257.92H659.57C659.55 257.921 659.53 257.927 659.513 257.936C659.495 257.945 659.479 257.958 659.466 257.974C659.453 257.989 659.443 258.008 659.437 258.028C659.431 258.048 659.428 258.069 659.43 258.09C660.32 270.99 668.82 282.3 676.3 292.34C676.403 292.479 676.468 292.643 676.487 292.815C676.506 292.987 676.479 293.162 676.41 293.32C673.183 300.68 669.416 307.61 665.11 314.11C662.256 310.463 659.34 306.827 656.36 303.2C652.126 298.047 649.383 294.31 648.13 291.99C640.55 277.96 637.72 262.02 638.24 245.71C638.77 228.83 645.97 213.15 656.81 200.71C669.31 186.36 684.94 179.75 703.5 176.49C713.753 174.69 723.876 175.26 733.87 178.2Z" fill="#58B4E6"/>
<path d="M665.11 314.11C669.417 307.61 673.183 300.68 676.41 293.32C676.48 293.161 676.507 292.987 676.487 292.815C676.468 292.643 676.403 292.479 676.3 292.34C668.82 282.3 660.32 270.99 659.43 258.09C659.429 258.069 659.431 258.048 659.437 258.028C659.444 258.008 659.454 257.989 659.467 257.974C659.48 257.958 659.495 257.945 659.513 257.936C659.531 257.926 659.55 257.921 659.57 257.92H659.58C659.599 257.917 659.617 257.918 659.635 257.923C659.653 257.927 659.67 257.935 659.685 257.946C659.7 257.958 659.713 257.972 659.722 257.988C659.732 258.004 659.738 258.021 659.74 258.04L659.94 259.48C661.547 266.587 664.3 273.297 668.2 279.61C670.847 283.557 673.667 287.41 676.66 291.17C679.84 295.17 683.52 300.2 685.32 303.95C689.453 312.57 692.057 321.713 693.13 331.38C693.15 331.565 693.238 331.736 693.376 331.859C693.515 331.983 693.694 332.051 693.88 332.05H735.79C736.045 332.049 736.29 331.957 736.48 331.789C736.67 331.621 736.791 331.39 736.82 331.14C738.26 319.03 741.57 308.34 749.54 298.55C762.44 282.69 776.27 263.21 770.46 241.52C764.2 218.16 746.84 202.07 722.59 199.19L709.6 198.5C719.38 193.373 727.47 186.607 733.87 178.2C746.72 181.49 758.6 186.54 768.38 195.66C779.76 206.28 787.32 218.817 791.06 233.27C792.94 240.537 793.97 247.103 794.15 252.97C794.62 267.9 788.8 283.85 779.9 295.9C776.927 299.927 773.607 304.027 769.94 308.2C762.647 316.513 759.13 326.27 759.39 337.47C759.403 338.303 759.42 345.157 759.44 358.03C759.453 366.09 756.817 373.18 751.53 379.3C742.98 389.18 731.19 397.05 718.32 398.15C701.11 399.61 685.78 389.39 676.41 375.28C673.05 370.227 671.393 364.63 671.44 358.49C671.48 352.89 671.443 345.73 671.33 337.01C671.237 329.317 669.163 321.683 665.11 314.11ZM736.64 355.53L693.06 355.75C693.037 355.75 693.014 355.755 692.993 355.764C692.971 355.773 692.952 355.786 692.936 355.803C692.92 355.82 692.908 355.84 692.9 355.862C692.892 355.884 692.889 355.907 692.89 355.93V356.3C692.917 361.27 695.077 366.024 698.896 369.518C702.714 373.012 707.877 374.959 713.25 374.93L716.65 374.91C722.022 374.881 727.163 372.881 730.944 369.348C734.724 365.815 736.834 361.039 736.81 356.07V355.7C736.81 355.655 736.792 355.612 736.76 355.58C736.728 355.548 736.685 355.53 736.64 355.53Z" fill="#3697D8"/>
<path d="M394.28 195.37C394.24 198.903 394.217 202.497 394.21 206.15C394.21 206.283 394.173 206.467 394.1 206.7C393.987 207.053 393.93 207.237 393.93 207.25C393.857 209.217 393.843 217.217 393.89 231.25C393.89 231.76 394.21 232.08 394.21 232.47C394.21 244.143 394.104 254.05 393.89 262.19C393.89 262.257 393.857 262.36 393.79 262.5C393.783 262.515 393.771 262.527 393.756 262.535C393.741 262.543 393.725 262.546 393.708 262.544C393.691 262.541 393.676 262.534 393.664 262.523C393.652 262.511 393.643 262.496 393.64 262.48C393.62 262.14 393.477 261.88 393.21 261.7L393.06 226.29C392.973 215.79 392.95 205.29 392.99 194.79C393.01 190.59 392.86 187.52 387.97 186.52C383.82 185.67 380.32 186.11 372.87 186.09C368.31 186.07 364.6 187.11 364.62 192.06C364.693 215.16 364.76 238.223 364.82 261.25L364.98 299.08C358.487 306.4 350.973 312.207 342.44 316.5C342.386 316.529 342.326 316.546 342.265 316.549C342.203 316.553 342.142 316.543 342.084 316.52C342.026 316.497 341.973 316.462 341.93 316.417C341.886 316.373 341.852 316.319 341.83 316.26C340.26 311.94 338.9 307.08 335.82 303.53L318.37 254.23L307.41 224.48C320.67 226.59 331.53 223.12 342.97 215.99C353.343 209.523 360.547 200.263 364.58 188.21C364.69 187.88 364.905 187.598 365.19 187.41C370.7 183.84 378.15 184.94 384.46 185.18C386.807 185.273 388.997 185.743 391.03 186.59C391.329 186.714 391.585 186.931 391.76 187.21C393.273 189.603 394.113 192.323 394.28 195.37Z" fill="#44A4E0"/>
<path d="M307.41 224.48L318.37 254.23L292.08 262.5L278.71 227.12C278.6 226.826 278.429 226.56 278.209 226.338C277.988 226.116 277.723 225.944 277.432 225.835C277.141 225.726 276.832 225.681 276.524 225.705C276.216 225.728 275.918 225.818 275.65 225.97C275.357 226.137 275.067 226.577 274.78 227.29C274.094 229.023 272.01 234.957 268.53 245.09C266.964 249.663 264.17 256.937 260.15 266.91C257.06 274.56 262.33 274.72 268 274.41C252.74 283.39 236.83 290.48 220.65 297.49C228.324 277.757 233.42 264.24 235.94 256.94C243.027 236.367 250.254 215.843 257.62 195.37C258.22 193.71 258.97 192.207 259.87 190.86C261.84 187.24 264.34 186.01 268.61 186.03C274.077 186.057 280.497 186.103 287.87 186.17C291.81 186.21 294.73 190.33 296.05 193.71C300.044 203.963 303.83 214.22 307.41 224.48Z" fill="#E6F8FE"/>
<path d="M393.06 226.29L392.93 243.39C392.93 243.534 392.893 243.676 392.823 243.802C392.753 243.928 392.652 244.034 392.53 244.11L364.82 261.25C364.76 238.223 364.694 215.16 364.62 192.06C364.6 187.11 368.31 186.07 372.87 186.09C380.32 186.11 383.82 185.67 387.97 186.52C392.86 187.52 393.01 190.59 392.99 194.79C392.95 205.29 392.974 215.79 393.06 226.29Z" fill="#E6F8FE"/>
<path d="M259.31 190.45C259.497 190.583 259.684 190.72 259.87 190.86C258.97 192.207 258.22 193.71 257.62 195.37C250.254 215.843 243.027 236.367 235.94 256.94C233.42 264.24 228.324 277.757 220.65 297.49C218.13 304.017 215.83 310.633 213.75 317.34C213.017 319.693 212.78 321.69 213.04 323.33C213.374 325.423 214.677 326.6 216.95 326.86C218.697 327.067 224.407 327.11 234.08 326.99C237.88 326.95 240.12 326.29 241.6 322.82C243.627 318.053 245.724 312 247.89 304.66C248.897 301.253 251.337 299.58 255.21 299.64C261.317 299.727 276.16 299.73 299.74 299.65C302.267 299.643 303.964 300.747 304.83 302.96C307.37 309.453 309.44 314.77 311.04 318.91C313.03 324.06 315.39 327.12 321 327C325.967 326.887 330.974 326.96 336.02 327.22C310.34 344.54 283.06 359.6 255.89 374.47C242.19 374.67 228.45 374.727 214.67 374.64C207.064 374.593 201.327 374.057 197.46 373.03C190.527 371.19 184.177 367.963 178.41 363.35C161.59 349.903 153.31 332.307 153.57 310.56C161.71 306.087 167.837 302.52 171.95 299.86C195.01 284.96 213.09 272.77 232.92 261.8C233.204 261.646 233.421 261.393 233.53 261.09L249.48 216.38C251.867 207.373 255.144 198.73 259.31 190.45Z" fill="#44A4E0"/>
<path d="M722.59 199.19C706.03 219.39 691.133 240.707 677.9 263.14C674.7 268.567 671.467 274.057 668.2 279.61C664.3 273.297 661.547 266.587 659.94 259.48C659.57 251.35 659.5 245.49 661.06 238.46C664.82 221.52 677.48 208.07 693.16 202.13C697.653 200.43 703.133 199.22 709.6 198.5L722.59 199.19Z" fill="#C2EBFA"/>
<path d="M668.2 279.61C671.467 274.057 674.7 268.567 677.9 263.14C691.134 240.707 706.03 219.39 722.59 199.19C746.84 202.07 764.2 218.16 770.46 241.52C776.27 263.21 762.44 282.69 749.54 298.55C741.57 308.34 738.26 319.03 736.82 331.14C736.791 331.39 736.67 331.621 736.48 331.789C736.29 331.957 736.045 332.049 735.79 332.05H693.88C693.694 332.051 693.515 331.983 693.376 331.859C693.238 331.736 693.15 331.565 693.13 331.38C692.057 321.713 689.454 312.57 685.32 303.95C683.52 300.2 679.84 295.17 676.66 291.17C673.667 287.41 670.847 283.557 668.2 279.61Z" fill="#A1E1F8"/>
<path d="M249.48 216.38L233.53 261.09C233.42 261.393 233.203 261.646 232.92 261.8C213.09 272.77 195.01 284.96 171.95 299.86C167.837 302.52 161.71 306.087 153.57 310.56L153.46 272.72C175.2 265.8 194.92 253.54 213.56 240.7C225.387 232.553 237.36 224.447 249.48 216.38Z" fill="#58B4E6"/>
<path d="M292.08 262.5C293.23 265.8 296.49 274.34 289.75 274.33C282.464 274.323 275.214 274.35 268 274.41C262.33 274.72 257.06 274.56 260.15 266.91C264.17 256.937 266.964 249.663 268.53 245.09C272.01 234.957 274.094 229.023 274.78 227.29C275.067 226.577 275.357 226.137 275.65 225.97C275.918 225.818 276.216 225.728 276.524 225.705C276.831 225.681 277.141 225.726 277.432 225.835C277.723 225.944 277.988 226.116 278.208 226.338C278.429 226.56 278.6 226.826 278.71 227.12L292.08 262.5Z" fill="#58B4E6"/>
<path d="M393.21 261.7C393.037 281.22 393.05 300.737 393.25 320.25C393.27 321.937 393.05 323.357 392.59 324.51C392.329 325.168 391.882 325.737 391.306 326.147C390.729 326.557 390.046 326.79 389.34 326.82C383.674 327.08 377.584 327.05 371.07 326.73C366.85 326.523 364.757 324.28 364.79 320C364.844 313.133 364.907 306.16 364.98 299.08L364.82 261.25L392.53 244.11C392.653 244.034 392.753 243.928 392.823 243.802C392.893 243.676 392.93 243.534 392.93 243.39L393.06 226.29L393.21 261.7Z" fill="#C2EBFA"/>
<path d="M335.82 303.53C337.913 308.903 339.89 314.297 341.75 319.71C342.59 322.16 343.37 326.61 339.6 326.98C338.373 327.1 337.18 327.18 336.02 327.22C330.973 326.96 325.966 326.887 321 327C315.39 327.12 313.03 324.06 311.04 318.91C309.44 314.77 307.37 309.453 304.83 302.96C303.963 300.747 302.266 299.643 299.74 299.65C276.16 299.73 261.316 299.727 255.21 299.64C251.336 299.58 248.896 301.253 247.89 304.66C245.723 312 243.626 318.053 241.6 322.82C240.12 326.29 237.88 326.95 234.08 326.99C224.406 327.11 218.696 327.067 216.95 326.86C214.676 326.6 213.373 325.423 213.04 323.33C212.78 321.69 213.016 319.693 213.75 317.34C215.83 310.633 218.13 304.017 220.65 297.49C236.83 290.48 252.74 283.39 268 274.41C275.213 274.35 282.463 274.323 289.75 274.33C296.49 274.34 293.23 265.8 292.08 262.5L318.37 254.23L335.82 303.53Z" fill="#C2EBFA"/>
<path d="M609.06 393.38L593.69 407.98C580.71 388.687 562.68 375.917 539.6 369.67C518.91 364.07 497.84 364.42 478.13 372.14C465.52 377.07 453.8 383.66 444.11 392.93C439.57 397.277 435.22 402.807 431.06 409.52C423.64 421.48 418.54 434.47 415.76 448.49C408.78 454.73 401.82 459.7 393.05 462.52C393.86 437.39 403.17 412.67 417.76 392.52C424.706 382.933 432.556 374.96 441.31 368.6C459.09 355.69 480.11 346.92 501.5 345.56C544.22 342.85 583.95 358.11 609.06 393.38Z" fill="#44A4E0"/>
<path d="M736.64 355.53C736.685 355.53 736.728 355.548 736.76 355.58C736.792 355.612 736.81 355.655 736.81 355.7V356.07C736.834 361.039 734.724 365.815 730.944 369.348C727.163 372.881 722.022 374.882 716.65 374.91L713.25 374.93C707.877 374.959 702.714 373.012 698.895 369.518C695.077 366.025 692.917 361.27 692.89 356.3V355.93C692.889 355.907 692.892 355.884 692.9 355.862C692.908 355.84 692.92 355.82 692.936 355.803C692.952 355.786 692.971 355.773 692.992 355.764C693.014 355.755 693.037 355.75 693.06 355.75L736.64 355.53Z" fill="#A1E1F8"/>
<path d="M593.69 407.98C600.71 418.753 605.4 430.407 607.76 442.94C608.7 447.927 609.38 451.763 609.8 454.45C609.821 454.574 609.809 454.701 609.764 454.819C609.72 454.937 609.645 455.041 609.547 455.12C609.45 455.2 609.333 455.252 609.208 455.271C609.084 455.29 608.957 455.276 608.84 455.23C598.953 451.457 590.603 445.703 583.79 437.97C576.83 430.09 573.51 424.83 566.99 414.76C565.75 412.847 564.073 411.117 561.96 409.57C555.56 404.88 550.5 408.32 545.99 413.24C541.356 418.313 536.706 423.31 532.04 428.23C522.726 436.343 512.796 442.513 502.25 446.74C477.63 456.61 451.52 458.6 423.68 457.76C421.58 457.7 418.8 457.85 416.5 457.18C416.072 457.052 415.701 456.78 415.451 456.41C415.202 456.04 415.088 455.595 415.13 455.15L415.76 448.49C418.54 434.47 423.64 421.48 431.06 409.52C435.22 402.807 439.57 397.277 444.11 392.93C453.8 383.66 465.52 377.07 478.13 372.14C497.84 364.42 518.91 364.07 539.6 369.67C562.68 375.917 580.71 388.687 593.69 407.98Z" fill="#70C5EC"/>
<path d="M756.02 894.63C756.2 890.757 756.067 886.87 755.62 882.97C753.7 866 752.49 848.95 750.8 831.94C750.12 826.973 749.72 823.83 749.6 822.51C747.973 804.803 741.613 789.8 730.52 777.5C722.287 768.36 711.83 760.99 699.15 755.39C695.257 753.63 691.357 752.023 687.45 750.57C680.417 747.963 673.357 745.387 666.27 742.84C648.29 736.4 629.04 729.543 608.52 722.27C608.002 722.087 607.439 722.071 606.911 722.226C606.384 722.38 605.918 722.696 605.58 723.13C595.14 736.597 582.373 746.86 567.28 753.92C555.24 759.553 543.23 763.227 531.25 764.94C514.537 767.327 497.4 766.383 479.84 762.11C484.34 755.383 487.563 748.197 489.51 740.55C513.757 745.303 536.75 742.55 558.49 732.29C569.45 727.12 577.45 720.84 584.67 711.83C584.753 711.727 584.815 711.608 584.851 711.481C584.887 711.353 584.898 711.22 584.882 711.087C584.866 710.955 584.824 710.827 584.759 710.711C584.693 710.595 584.605 710.492 584.5 710.41C569.673 698.843 562.013 683.63 561.52 664.77C561.518 664.634 561.479 664.501 561.408 664.384C561.337 664.267 561.236 664.171 561.116 664.106C560.996 664.04 560.86 664.007 560.722 664.009C560.584 664.012 560.449 664.05 560.33 664.12C544 674.09 523.05 677.46 504.14 675.9C508.72 674.807 513.323 674.18 517.95 674.02C518.569 674.001 519.159 673.757 519.61 673.333C520.061 672.91 520.342 672.336 520.4 671.72C520.96 665.48 521.26 662.043 521.3 661.41C521.507 658.07 519.937 656.263 516.59 655.99C511.43 655.563 507.517 655.25 504.85 655.05C495.23 654.323 486.82 651.31 479.62 646.01C493.213 652.803 507.247 655.28 521.72 653.44C535.01 651.74 545.79 646.32 556.35 638.34C574.03 624.98 587.91 608.4 595.85 587.62C598.423 580.907 600.61 574.26 602.41 567.68C604.99 558.27 614.47 558.43 619.83 554.28C623.483 551.447 626.23 547.3 628.07 541.84C630.63 534.24 631.987 527.293 632.14 521C632.32 513.9 630.35 509.58 624.68 505.02C620.727 501.833 618.447 500 617.84 499.52C614.14 496.59 610.71 493.94 610.06 489.93C609.727 487.87 609.403 485.113 609.09 481.66C609.061 481.329 608.937 481.013 608.733 480.751C608.529 480.488 608.254 480.29 607.94 480.18C595.01 475.58 583.66 468.72 573.4 458.94C566.247 452.12 559.783 444.887 554.01 437.24C553.941 437.149 553.853 437.074 553.752 437.02C553.652 436.966 553.54 436.935 553.426 436.928C553.312 436.922 553.198 436.94 553.092 436.981C552.985 437.023 552.889 437.088 552.81 437.17C541.503 449.077 528.303 458.653 513.21 465.9C518.48 452.95 525.55 440.65 532.04 428.23C536.707 423.31 541.357 418.313 545.99 413.24C550.5 408.32 555.56 404.88 561.96 409.57C564.073 411.117 565.75 412.847 566.99 414.76C573.51 424.83 576.83 430.09 583.79 437.97C590.603 445.703 598.953 451.457 608.84 455.23C608.957 455.276 609.084 455.29 609.209 455.271C609.333 455.252 609.45 455.2 609.548 455.12C609.646 455.041 609.72 454.937 609.765 454.819C609.809 454.702 609.821 454.574 609.8 454.45C609.38 451.763 608.7 447.927 607.76 442.94C605.4 430.407 600.71 418.753 593.69 407.98L609.06 393.38C610.06 394.687 611 396.017 611.88 397.37C620.393 410.51 626.27 424.71 629.51 439.97C630.643 445.323 631.467 452.09 631.98 460.27C632.46 467.877 632.68 474.703 632.64 480.75C632.63 482.56 633.4 483.65 634.97 484.71C646.537 492.497 652.743 503.507 653.59 517.74C654.59 534.63 649.8 558.01 635.67 568.94C632.677 571.253 629.373 573.693 625.76 576.26C623.69 577.72 622.26 580.76 621.31 583.6C618.47 592.14 615.14 602.25 610.42 610.42C604.44 620.78 597.363 630.54 589.19 639.7C588.151 640.865 587.391 642.253 586.97 643.76C584.463 652.76 583.883 661.797 585.23 670.87C586.49 679.29 590.42 686.45 596.9 691.1C602.933 695.427 609.813 698.97 617.54 701.73C640.053 709.783 665.817 719.01 694.83 729.41C713.283 736.03 729.157 745.99 742.45 759.29C758.497 775.337 768.127 794.693 771.34 817.36C772.14 823.04 772.757 828.507 773.19 833.76C773.61 838.82 774.707 853.41 776.48 877.53C777.01 884.8 775.31 891.14 767.91 893.88C766.683 894.333 764.72 894.58 762.02 894.62C759.927 894.647 757.927 894.65 756.02 894.63Z" fill="#2888CE"/>
<path d="M778.43 495.2C778.705 495.371 779.029 495.443 779.349 495.404C779.67 495.366 779.966 495.22 780.19 494.99C793.47 481.43 811.21 464.96 825.48 450.56C837.174 438.76 843.984 431.967 845.91 430.18C848.94 427.37 853.42 425.26 857.82 425.1C866.247 424.793 871.787 429.047 874.44 437.86C876.93 446.15 872.99 452.97 867.22 458.72C859.334 466.593 835.324 490.75 795.19 531.19C791.04 535.37 786.63 538.37 780.95 538.72C775.45 539.053 770.777 537.247 766.93 533.3C748.564 514.467 737.164 502.94 732.73 498.72C729.424 495.58 727.184 492.9 726.01 490.68C719.57 478.47 724.04 462.66 740.03 463.25C744.337 463.41 747.987 465.003 750.98 468.03C765.567 482.757 774.354 491.55 777.34 494.41C777.567 494.623 777.93 494.887 778.43 495.2Z" fill="#3697D8"/>
<path d="M532.04 428.23C525.55 440.65 518.48 452.95 513.21 465.9L507.75 468.28C495.123 473.4 482.017 476.847 468.43 478.62C451.09 480.887 433.627 481.37 416.04 480.07C415.766 480.051 415.495 480.141 415.287 480.321C415.079 480.501 414.95 480.756 414.93 481.03C414.47 486.92 415.14 492.61 410.5 496.5C409.327 497.48 405.96 500.027 400.4 504.14C393.47 509.27 392.02 514.88 392.61 523.47C393.183 531.737 395.21 539.59 398.69 547.03C401.8 553.71 408.46 557.07 414.88 559.71C417.98 560.99 420.06 562.87 420.87 565.69C423.483 574.717 426.093 582.473 428.7 588.96C431.713 596.04 434.527 601.923 437.14 606.61C442.7 616.59 450.68 624.65 459.8 632.37C465.94 637.563 472.547 642.11 479.62 646.01C486.82 651.31 495.23 654.323 504.85 655.05C507.517 655.25 511.43 655.563 516.59 655.99C519.937 656.263 521.507 658.07 521.3 661.41C521.26 662.043 520.96 665.48 520.4 671.72C520.342 672.336 520.061 672.91 519.61 673.333C519.159 673.757 518.568 674.001 517.95 674.02C513.323 674.18 508.72 674.807 504.14 675.9C489.9 674.913 476.29 670.747 463.31 663.4C463.183 663.329 463.04 663.292 462.895 663.293C462.749 663.294 462.607 663.333 462.481 663.405C462.355 663.478 462.25 663.582 462.176 663.707C462.102 663.832 462.062 663.975 462.06 664.12C461.767 683.247 454.193 698.66 439.34 710.36C439.228 710.448 439.135 710.557 439.065 710.681C438.995 710.805 438.951 710.941 438.934 711.083C438.917 711.224 438.929 711.367 438.968 711.504C439.006 711.641 439.072 711.768 439.16 711.88C451.63 727.57 469.78 736.3 489.51 740.55C487.563 748.197 484.34 755.383 479.84 762.11C470.08 759.617 460.713 755.95 451.74 751.11C438.94 743.937 428.09 734.58 419.19 723.04C418.887 722.644 418.466 722.355 417.988 722.213C417.51 722.071 417 722.084 416.53 722.25C383.01 734.103 357.043 743.23 338.63 749.63C332.497 751.763 327.757 753.65 324.41 755.29C319.117 757.89 314.673 760.403 311.08 762.83C300.8 769.76 290.45 780.26 284.38 791.51C278.887 801.697 275.713 811.437 274.86 820.73C273.267 838.183 271.707 855.7 270.18 873.28L267.32 894.62C263.567 894.773 261.123 894.767 259.99 894.6C250.45 893.21 247.82 886.29 248.46 877.5C249.04 869.44 249.927 857.503 251.12 841.69C252.507 823.397 253.917 811.523 255.35 806.07C258.943 792.363 264.86 780.307 273.1 769.9C287.867 751.247 306.367 737.913 328.6 729.9C359.12 718.893 384.38 709.973 404.38 703.14C419.92 697.82 437.51 688 439.16 669.75C439.92 661.323 439.46 653.223 437.78 645.45C437.17 642.62 435.46 640.03 433.41 637.65C420.257 622.43 410.757 604.93 404.91 585.15C403.08 578.98 398.41 576.15 393.08 572.34C383.54 565.53 377.43 554.99 374.51 543.23C371.31 530.37 369.97 517.19 373.83 505.54C376.86 496.35 382.89 490.31 390.51 484.66C391.072 484.241 391.532 483.702 391.857 483.083C392.183 482.463 392.365 481.779 392.39 481.08L393.05 462.52C401.82 459.7 408.78 454.73 415.76 448.49L415.13 455.15C415.088 455.595 415.202 456.04 415.452 456.41C415.702 456.78 416.072 457.052 416.5 457.18C418.8 457.85 421.58 457.7 423.68 457.76C451.52 458.6 477.63 456.61 502.25 446.74C512.797 442.513 522.727 436.343 532.04 428.23Z" fill="#3697D8"/>
<path d="M479.62 646.01C472.547 642.11 465.94 637.563 459.8 632.37C450.68 624.65 442.7 616.59 437.14 606.61C434.527 601.923 431.714 596.04 428.7 588.96C436.307 579.133 442.22 570.163 446.44 562.05C451.974 551.403 455.714 544.327 457.66 540.82C466.74 524.39 476.73 512.95 491.66 494.32C498.1 486.287 503.464 477.607 507.75 468.28L513.21 465.9C528.304 458.653 541.504 449.077 552.81 437.17C552.889 437.088 552.985 437.023 553.092 436.981C553.198 436.94 553.312 436.922 553.426 436.928C553.54 436.935 553.652 436.966 553.753 437.02C553.853 437.074 553.941 437.149 554.01 437.24C559.784 444.887 566.247 452.12 573.4 458.94C583.66 468.72 595.01 475.58 607.94 480.18C608.254 480.29 608.529 480.488 608.733 480.751C608.937 481.013 609.061 481.329 609.09 481.66C609.404 485.113 609.727 487.87 610.06 489.93C610.71 493.94 614.14 496.59 617.84 499.52C618.447 500 620.727 501.833 624.68 505.02C630.35 509.58 632.32 513.9 632.14 521C631.987 527.293 630.63 534.24 628.07 541.84C626.23 547.3 623.484 551.447 619.83 554.28C614.47 558.43 604.99 558.27 602.41 567.68C600.61 574.26 598.423 580.907 595.85 587.62C587.91 608.4 574.03 624.98 556.35 638.34C545.79 646.32 535.01 651.74 521.72 653.44C507.247 655.28 493.214 652.803 479.62 646.01ZM552.47 599.21C556.82 595.53 557.7 589.97 554.58 585.39C550.29 579.11 544.36 581.22 539.1 585.18C532.31 590.29 525.78 594.02 517.06 594.81C507.72 595.66 498.4 595.21 490.64 589.78C490.089 589.395 489.585 588.948 489.14 588.45C486.14 585.063 484.407 583.157 483.94 582.73C479.64 578.75 473.95 578.15 469.49 581.85C467.61 583.41 466.654 585.577 466.62 588.35C466.55 593.83 473.8 600.81 477.77 603.17C494.61 613.157 512.46 615.467 531.32 610.1C539.654 607.727 546.703 604.097 552.47 599.21Z" fill="#A1E1F8"/>
<path d="M428.7 588.96C426.094 582.473 423.484 574.717 420.87 565.69C420.06 562.87 417.98 560.99 414.88 559.71C408.46 557.07 401.8 553.71 398.69 547.03C395.21 539.59 393.184 531.737 392.61 523.47C392.02 514.88 393.47 509.27 400.4 504.14C405.96 500.027 409.327 497.48 410.5 496.5C415.14 492.61 414.47 486.92 414.93 481.03C414.951 480.756 415.079 480.501 415.287 480.321C415.495 480.141 415.766 480.051 416.04 480.07C433.627 481.37 451.09 480.887 468.43 478.62C482.017 476.847 495.124 473.4 507.75 468.28C503.464 477.607 498.1 486.287 491.66 494.32C476.73 512.95 466.74 524.39 457.66 540.82C455.714 544.327 451.974 551.403 446.44 562.05C442.22 570.163 436.307 579.133 428.7 588.96Z" fill="#C2EBFA"/>
<path d="M554.58 585.39C557.7 589.97 556.82 595.53 552.47 599.21C546.703 604.097 539.653 607.727 531.32 610.1C512.46 615.467 494.61 613.157 477.77 603.17C473.8 600.81 466.55 593.83 466.62 588.35C466.653 585.577 467.61 583.41 469.49 581.85C473.95 578.15 479.64 578.75 483.94 582.73C484.406 583.157 486.14 585.063 489.14 588.45C489.585 588.948 490.088 589.395 490.64 589.78C498.4 595.21 507.72 595.66 517.06 594.81C525.78 594.02 532.31 590.29 539.1 585.18C544.36 581.22 550.29 579.11 554.58 585.39Z" fill="#3697D8"/>
<path d="M785.82 589.21L771.04 606.82C760.18 599.1 746.73 604.45 740.17 614.8C735.416 622.313 734.573 630.73 737.64 640.05L723.51 659.27C718.29 651.797 715.253 643.96 714.4 635.76C712.42 616.7 718.7 600.19 734.55 589.3C750.96 578.03 769.35 578.94 785.82 589.21Z" fill="#44A4E0"/>
<path d="M723.51 659.27L737.64 640.05C739.413 644.53 742.623 649.093 747.27 653.74C762.03 668.5 777.303 683.73 793.09 699.43C793.242 699.581 793.422 699.701 793.621 699.783C793.819 699.864 794.032 699.906 794.247 699.905C794.461 699.904 794.674 699.861 794.872 699.777C795.069 699.694 795.249 699.573 795.4 699.42C808.84 685.62 821.846 672.473 834.42 659.98C846.71 647.76 859.1 633.63 849.93 616.09C842.81 602.47 825.24 597.92 813.8 608.87C810.34 612.19 807.82 615.01 803.87 619.8C799.68 624.86 796.51 627.78 790.6 625.54C789.486 625.12 787.696 623.607 785.23 621C781.71 617.26 776.41 611.05 771.04 606.82L785.82 589.21L792.89 594.86C793.094 595.022 793.347 595.111 793.607 595.111C793.867 595.111 794.118 595.022 794.32 594.86C797.4 592.42 799.86 589.75 803.13 587.67C808.083 584.537 813.473 582.503 819.3 581.57C823.11 580.96 830.99 581.03 834.87 581.61C850.383 583.957 861.773 591.847 869.04 605.28C876.6 619.24 877.14 633.707 870.66 648.68C867.426 656.147 862.98 662.78 857.32 668.58C839.33 687 829.14 696.86 806.39 720.64C801.51 725.73 795.68 728.69 789.06 726.39C786.666 725.557 783.526 723.057 779.64 718.89C768.54 706.99 753.4 691.48 738.99 677.52C733.223 671.933 728.063 665.85 723.51 659.27Z" fill="#3697D8"/>
<path d="M737.64 640.05C734.573 630.73 735.417 622.313 740.17 614.8C746.73 604.45 760.18 599.1 771.04 606.82C776.41 611.05 781.71 617.26 785.23 621C787.697 623.607 789.486 625.12 790.6 625.54C796.51 627.78 799.68 624.86 803.87 619.8C807.82 615.01 810.34 612.19 813.8 608.87C825.24 597.92 842.81 602.47 849.93 616.09C859.1 633.63 846.71 647.76 834.42 659.98C821.847 672.473 808.84 685.62 795.4 699.42C795.249 699.573 795.07 699.694 794.872 699.777C794.674 699.861 794.462 699.904 794.247 699.905C794.032 699.906 793.82 699.864 793.621 699.783C793.422 699.701 793.242 699.581 793.09 699.43C777.303 683.73 762.03 668.5 747.27 653.74C742.623 649.093 739.413 644.53 737.64 640.05Z" fill="#70C5EC"/>
<path d="M504.14 675.9C523.05 677.46 544 674.09 560.33 664.12C560.449 664.05 560.584 664.012 560.722 664.009C560.86 664.007 560.996 664.04 561.116 664.106C561.236 664.171 561.337 664.267 561.408 664.384C561.479 664.501 561.517 664.634 561.52 664.77C562.013 683.63 569.673 698.843 584.5 710.41C584.605 710.492 584.693 710.595 584.759 710.711C584.824 710.827 584.866 710.955 584.882 711.087C584.898 711.22 584.887 711.353 584.851 711.481C584.814 711.608 584.753 711.727 584.67 711.83C577.45 720.84 569.45 727.12 558.49 732.29C536.75 742.55 513.757 745.303 489.51 740.55C469.78 736.3 451.63 727.57 439.16 711.88C439.072 711.769 439.006 711.641 438.968 711.504C438.929 711.367 438.918 711.224 438.934 711.083C438.951 710.941 438.995 710.805 439.065 710.681C439.135 710.557 439.228 710.448 439.34 710.36C454.193 698.66 461.767 683.247 462.06 664.12C462.062 663.975 462.102 663.832 462.176 663.707C462.25 663.582 462.355 663.478 462.481 663.405C462.607 663.333 462.749 663.294 462.895 663.293C463.04 663.292 463.183 663.329 463.31 663.4C476.29 670.747 489.9 674.913 504.14 675.9Z" fill="#A1E1F8"/>
<path d="M699.15 755.39C672.38 775.16 649 796.83 624.61 813.52C606.51 825.91 597.14 832 581.62 843.87C567.134 854.95 550.727 866.647 532.4 878.96C527.594 882.193 520.9 887.28 512.32 894.22C512.08 894.415 511.779 894.53 511.46 894.55L509.72 894.64L267.32 894.62L270.18 873.28C283.407 862.8 295.664 854.513 306.95 848.42C314.077 844.58 324.447 839.013 338.06 831.72C346.534 827.18 356.894 820.677 369.14 812.21C378.4 805.81 389.127 798.277 401.32 789.61C413.2 781.17 424.76 771.56 435.59 762.6C438.484 760.207 443.867 756.377 451.74 751.11C460.714 755.95 470.08 759.617 479.84 762.11C497.4 766.383 514.537 767.327 531.25 764.94C543.23 763.227 555.24 759.553 567.28 753.92C582.374 746.86 595.14 736.597 605.58 723.13C605.918 722.696 606.384 722.38 606.911 722.226C607.439 722.071 608.002 722.087 608.52 722.27C629.04 729.543 648.29 736.4 666.27 742.84C673.357 745.387 680.417 747.963 687.45 750.57C691.357 752.023 695.257 753.63 699.15 755.39Z" fill="#58B4E6"/>
<path d="M451.74 751.11C443.866 756.377 438.483 760.207 435.59 762.6C424.76 771.56 413.2 781.17 401.32 789.61C389.126 798.277 378.4 805.81 369.14 812.21C356.893 820.677 346.533 827.18 338.06 831.72C324.446 839.013 314.076 844.58 306.95 848.42C295.663 854.513 283.406 862.8 270.18 873.28C271.706 855.7 273.266 838.183 274.86 820.73C275.713 811.437 278.886 801.697 284.38 791.51C290.45 780.26 300.8 769.76 311.08 762.83C314.673 760.403 319.116 757.89 324.41 755.29C327.756 753.65 332.496 751.763 338.63 749.63C357.043 743.23 383.01 734.103 416.53 722.25C417 722.084 417.51 722.071 417.988 722.213C418.466 722.355 418.887 722.644 419.19 723.04C428.09 734.58 438.94 743.937 451.74 751.11Z" fill="#70C5EC"/>
<path d="M699.15 755.39C711.83 760.99 722.286 768.36 730.52 777.5C741.613 789.8 747.973 804.803 749.6 822.51C749.72 823.83 750.12 826.973 750.8 831.94C738.993 837.907 729.833 842.723 723.32 846.39C708.106 854.957 693.423 865.357 679.27 877.59C672.83 883.157 667.47 888.823 663.19 894.59L509.72 894.64L511.46 894.55C511.778 894.53 512.079 894.415 512.32 894.22C520.9 887.28 527.593 882.193 532.4 878.96C550.726 866.647 567.133 854.95 581.62 843.87C597.14 832 606.51 825.91 624.61 813.52C649 796.83 672.38 775.16 699.15 755.39Z" fill="#44A4E0"/>
<path d="M750.8 831.94C752.49 848.95 753.7 866 755.62 882.97C756.067 886.87 756.2 890.757 756.02 894.63L663.19 894.59C667.47 888.823 672.83 883.157 679.27 877.59C693.424 865.357 708.107 854.957 723.32 846.39C729.834 842.723 738.994 837.907 750.8 831.94Z" fill="#3697D8"/>
</svg>
