<svg width="24" height="24" viewBox="0 0 24 24" fill="none" xmlns="http://www.w3.org/2000/svg">
<path d="M10.6169 3.04418L6.04278 4.75834C4.98862 5.15251 4.12695 6.39917 4.12695 7.52667V14.3375C4.12695 15.4192 4.84196 16.84 5.7128 17.4908L9.65445 20.4333C10.947 21.405 13.0736 21.405 14.3661 20.4333L18.3078 17.4908C19.1786 16.84 19.8936 15.4192 19.8936 14.3375V7.52667C19.8936 6.39917 19.0319 5.15251 17.9778 4.75834L13.4036 3.04418C12.6244 2.76001 11.3778 2.76001 10.6169 3.04418Z" stroke="#282A37" stroke-width="2" stroke-linecap="round" stroke-linejoin="round"/>
<path d="M11.9979 11.0099C11.9613 11.0099 11.9154 11.0099 11.8788 11.0099C11.0171 10.9824 10.3296 10.2674 10.3296 9.39655C10.3296 8.50738 11.0538 7.7832 11.9429 7.7832C12.8321 7.7832 13.5563 8.50738 13.5563 9.39655C13.5471 10.2765 12.8596 10.9824 11.9979 11.0099Z" stroke="#282A37" stroke-width="2" stroke-linecap="round" stroke-linejoin="round"/>
<path d="M10.1742 13.5766C9.29416 14.1632 9.29416 15.1257 10.1742 15.7124C11.1733 16.3816 12.8142 16.3816 13.8133 15.7124C14.6933 15.1257 14.6933 14.1632 13.8133 13.5766C12.8233 12.9074 11.1825 12.9074 10.1742 13.5766Z" stroke="#282A37" stroke-width="2" stroke-linecap="round" stroke-linejoin="round"/>
</svg>
