<svg width="1024" height="1024" viewBox="0 0 1024 1024" fill="none" xmlns="http://www.w3.org/2000/svg">
<path d="M583.56 423.57L582.02 423.36C581.869 423.339 581.73 423.273 581.622 423.17C581.514 423.067 581.443 422.934 581.42 422.79C580.253 415.623 580.573 408.447 582.38 401.26" stroke="#2994C7" stroke-width="2"/>
<path d="M582.38 401.26C590.12 400.66 596.79 397.71 602.39 392.41C609.35 385.81 611.13 374.85 609.73 365.6C608.71 358.87 603.57 350.02 596.92 346.99C591.75 344.64 586.64 342.81 580.94 344.08C575.04 345.387 570.823 346.723 568.29 348.09C560.25 352.44 551.56 355.95 543.32 349.91C534.993 343.797 530.843 335.33 530.87 324.51C530.91 304.63 530.89 283.91 530.81 262.35C530.81 262.027 530.683 261.717 530.456 261.487C530.23 261.257 529.922 261.125 529.6 261.12C506.466 260.72 483.933 260.823 462 261.43C455.51 261.61 446.26 260.77 442.83 255.15C440.303 251.01 439.036 246.377 439.03 241.25C438.99 206.463 439.016 186.63 439.11 181.75C439.123 180.877 439.23 179.433 439.43 177.42C439.437 177.355 439.43 177.289 439.409 177.227C439.389 177.166 439.355 177.109 439.31 177.061C439.266 177.014 439.211 176.976 439.151 176.952C439.09 176.928 439.025 176.917 438.96 176.92C422.3 177.68 406.086 180.15 390.32 184.33C366.38 190.683 344.52 199.513 324.74 210.82C302.3 223.64 283.67 239.79 266.68 258.85C258.56 267.963 251.33 277.673 244.99 287.98C237.963 299.413 231.686 312.567 226.16 327.44C218.226 348.787 214.47 370.057 214.89 391.25C215.11 402.137 215.42 411.553 215.82 419.5C216.65 436.26 215.25 450.6 207.86 465.65C200.593 480.45 193.006 495.07 185.1 509.51" stroke="#55B8E0" stroke-width="2"/>
<path d="M185.1 509.51C180.42 508.057 175.717 506.633 170.99 505.24C168.21 504.413 165.683 503.027 163.41 501.08" stroke="#2994C7" stroke-width="2"/>
<path d="M582.38 401.26C576.6 400.9 571.303 399.19 566.49 396.13C564.46 394.84 562.62 392.91 560.64 391.39C551.16 384.08 541.88 388.37 534.6 396.04C534.26 396.396 533.849 396.676 533.394 396.862C532.94 397.048 532.451 397.136 531.96 397.12C531.64 397.107 512.987 397.14 476 397.22C468.97 397.24 463.16 397.28 457.29 395.52C457.03 395.442 456.791 395.305 456.592 395.119C456.394 394.933 456.241 394.703 456.146 394.449C456.051 394.194 456.017 393.92 456.045 393.65C456.073 393.38 456.164 393.119 456.31 392.89C460.91 385.61 465.88 378.41 467.55 370.29C468.303 366.61 468.517 362.093 468.19 356.74C467.583 346.82 464.583 338.033 459.19 330.38C446.6 312.52 425.35 308.24 405.05 314.32C390.423 318.7 380.207 327.787 374.4 341.58C370.007 352.007 369.273 362.55 372.2 373.21C373.88 379.31 378.15 386 381.65 392.24C381.862 392.621 381.945 393.061 381.887 393.493C381.829 393.925 381.634 394.327 381.33 394.64C378.68 397.34 372.36 397.32 368.25 397.29C336.343 397.09 318.343 397.017 314.25 397.07C306.31 397.17 299.07 398.44 296.61 406.2C296.237 407.367 296.053 411.26 296.06 417.88C296.073 461.207 296.077 483.273 296.07 484.08C296.05 496.08 300.683 504.753 309.97 510.1C321.3 516.63 328.63 510.45 339.31 507.32C344.91 505.68 350.26 506.97 354.4 507.86C359.813 509.033 364.2 512.03 367.56 516.85C368.873 518.737 369.797 521.177 370.33 524.17C371.94 533.17 371.93 539.89 367.54 548.52C367.268 549.051 366.925 549.542 366.52 549.98C360.287 556.607 352.703 559.597 343.77 558.95C331.08 558.04 320.2 546.34 307.42 555.27C298.94 561.19 296.54 569.45 296.4 579.77C296.173 597.923 296.027 622.577 295.96 653.73C295.94 664.16 304.03 666.28 312.51 666.56C316.043 666.68 320.377 666.637 325.51 666.43C326.863 666.377 331.193 666.343 338.5 666.33C429.733 666.19 489.4 666.207 517.5 666.38C526.9 666.43 535.1 665.12 543.26 660.76C548.613 657.893 552.31 653.94 554.35 648.9C555.49 646.093 556.047 640.78 556.02 632.96C555.94 612.647 555.817 595.827 555.65 582.5C555.63 581.053 555.733 579.773 555.96 578.66C556.061 578.177 556.315 577.739 556.684 577.411C557.053 577.083 557.518 576.883 558.01 576.84C559.757 576.68 561.707 577.113 563.86 578.14C564.267 578.333 568.167 580.673 575.56 585.16C592.49 595.43 615.16 586.61 628.34 574.37C630.187 572.657 632.117 570.933 634.13 569.2" stroke="#51B1D9" stroke-width="2"/>
<path d="M658.31 863.82C619.12 863.58 583.67 864.18 540.75 864.17C481.58 864.14 457.25 864.49 423.91 863.75C405.53 863.343 394.64 863.217 391.24 863.37C389.767 863.437 388.86 862.717 388.52 861.21C386.94 854.117 385.42 846.467 383.96 838.26C381.033 821.74 378.43 807.433 376.15 795.34C374.843 788.413 373.13 783.56 371.01 780.78C370.87 780.594 370.723 780.41 370.57 780.23C369.11 778.51 368.027 777.117 367.32 776.05C367.215 775.896 367.149 775.719 367.126 775.534C367.102 775.349 367.123 775.161 367.187 774.985C367.25 774.809 367.354 774.649 367.49 774.52C367.626 774.391 367.79 774.295 367.97 774.24C388.83 767.98 409.13 758.24 426.93 744.85C431.163 741.657 432.8 737.633 431.84 732.78C430.77 727.38 424.76 722.68 419.21 723.37C416.97 723.643 415.217 724.253 413.95 725.2C404.09 732.59 393.32 739.13 380.97 743.97C366.937 749.463 352.97 753.423 339.07 755.85C325.25 758.257 312.357 759.827 300.39 760.56C287.02 761.37 269.29 762.28 252.76 761.44C243.327 760.953 235.887 756.91 230.44 749.31C222.69 738.48 225.8 728.68 228.1 715.39C229.393 707.883 229.423 700.183 228.19 692.29C226.91 684.05 222.96 680.02 217.32 673.43C216.95 672.997 216.715 672.464 216.646 671.899C216.577 671.333 216.675 670.76 216.93 670.25C221.46 661.19 222.95 651.26 214.18 644.06C212.01 642.28 209.21 640.55 208.06 638.52C204.63 632.45 204.96 627.04 206.74 620.99C210.22 609.22 212.31 598.77 206.8 587.42C204.28 582.233 200.1 578.587 194.26 576.48C188.99 574.57 185.24 573.57 180.25 574.07C176.71 574.43 173.77 575.06 170.24 574.45C163.287 573.257 159.583 569.063 159.13 561.87C158.93 558.54 159.76 555.5 161.42 552.65C169.673 538.49 177.567 524.11 185.1 509.51" stroke="#51B1D9" stroke-width="2"/>
<path d="M872.53 372.24C864.003 371.553 855.58 370.307 847.26 368.5" stroke="#33A6D9" stroke-width="2"/>
<path d="M847.26 368.5C852.94 356.62 856.54 343.63 856.64 330.43C856.68 325.137 856.603 321.58 856.41 319.76C854.93 306.12 850.703 293.78 843.73 282.74C839.46 275.98 834.9 269.58 829.07 264.17C811.65 248.04 789.02 237.85 765 237.41C758.36 237.283 751.883 237.52 745.57 238.12C739.696 238.68 735.16 239.473 731.96 240.5C717.82 245.03 703.3 252.6 692.69 262.3C673.33 280.01 662.13 305.76 662.74 331.86C662.966 341.587 665.113 351.563 669.18 361.79C674.11 374.21 682.3 384.66 691.57 394.03C697.676 400.197 701.76 404.58 703.82 407.18C707.733 412.127 711.046 418.087 713.76 425.06" stroke="#5BC3EA" stroke-width="2"/>
<path d="M713.76 425.06C708.473 433.513 702.403 441.18 695.55 448.06" stroke="#33A6D9" stroke-width="2"/>
<path d="M847.26 368.5C840.92 381.36 832.85 389.73 821.94 400.65C816.82 405.77 812.313 412.45 808.42 420.69C801.8 434.7 799.74 448.1 797.3 463.5C797.245 463.859 797.062 464.186 796.785 464.423C796.508 464.66 796.155 464.79 795.79 464.79H771.62C771.352 464.79 771.095 464.684 770.906 464.494C770.716 464.305 770.61 464.048 770.61 463.78C770.443 437.46 770.35 413.943 770.33 393.23C770.32 388.89 773.13 386.28 776.52 382.77C780.813 378.317 786.25 372.923 792.83 366.59C795.556 363.963 797.826 361.32 799.64 358.66C804.52 351.5 802.08 338.73 791.17 339.32C787.75 339.507 784.636 341.263 781.83 344.59C774.083 353.763 766.736 362.07 759.79 369.51C759.59 369.725 759.313 369.854 759.019 369.867C758.725 369.88 758.438 369.777 758.22 369.58C751.51 363.5 747.6 358.09 739.76 348.51C737.64 345.923 735.29 343.69 732.71 341.81C728.95 339.07 723.41 338.46 719.8 341.57C715.41 345.35 714.89 350.88 716.82 356.1C717.386 357.647 718.636 359.507 720.57 361.68C730.27 372.61 740.23 379.11 747.47 389.25C747.846 389.778 748.108 390.377 748.24 391.01C748.52 392.283 748.653 394.537 748.64 397.77C748.573 421.33 748.613 443.28 748.76 463.62C748.76 463.904 748.647 464.176 748.446 464.377C748.246 464.577 747.974 464.69 747.69 464.69H723.47C723.271 464.691 723.078 464.616 722.931 464.481C722.783 464.346 722.69 464.161 722.67 463.96C721.37 450.48 718.4 437.513 713.76 425.06" stroke="#55B8E0" stroke-width="2"/>
<path d="M318.97 642.16C323.33 642.49 328.1 642.16 332.26 642.16C392.227 642.087 453.473 642.087 516 642.16C520.667 642.167 524.46 641.817 527.38 641.11C531.85 640.03 532.86 636.25 533.02 631.77C533.407 621.07 533.597 614.207 533.59 611.18C533.517 589.393 533.637 577.51 533.95 575.53C534.063 574.864 534.217 574.206 534.41 573.56C536.52 566.66 540.29 559.83 547.06 555.97C554.547 551.703 562.18 551.233 569.96 554.56C574.61 556.54 578.99 560.18 583.44 563.4C584.78 564.367 586.623 565.003 588.97 565.31C595.21 566.11 600.59 565.047 605.11 562.12C609.197 559.473 611.787 557.3 612.88 555.6C617.973 547.733 619.89 539.22 618.63 530.06C618.063 525.947 616.373 521.9 613.56 517.92C607.43 509.23 595.46 507.26 585.58 510.04C582.07 511.03 576.63 514.5 572.16 516.03C571.773 516.157 569.877 516.81 566.47 517.99C557.43 521.13 547.81 518.23 541.11 511.42C536.017 506.26 533.483 499.38 533.51 490.78C533.563 470.647 533.72 447.393 533.98 421.02C533.981 420.931 533.965 420.842 533.932 420.759C533.899 420.676 533.85 420.6 533.788 420.536C533.726 420.472 533.651 420.421 533.569 420.386C533.487 420.35 533.399 420.331 533.31 420.33C508.24 419.97 483.18 420.74 457.61 420.26C452.77 420.173 449.417 419.75 447.55 418.99C439.44 415.68 433.89 409.53 432.49 400.77C431.543 394.803 432.543 389.22 435.49 384.02C439.243 377.407 441.59 373.083 442.53 371.05C447.42 360.45 446.95 344.79 435.43 338.62C432.19 336.887 428.773 335.653 425.18 334.92C418.18 333.48 409.15 336.79 403.36 340.87C397.513 344.977 394.23 350.787 393.51 358.3C393.19 361.58 393.46 364.31 394.32 366.49C395.653 369.883 398.25 374.95 402.11 381.69C408.13 392.197 407.437 402.073 400.03 411.32C392.79 420.37 381.6 420.19 370.5 420.33C354.653 420.53 337.397 420.57 318.73 420.45C318.64 420.45 318.55 420.468 318.467 420.503C318.384 420.538 318.309 420.589 318.245 420.653C318.182 420.717 318.132 420.793 318.099 420.877C318.065 420.96 318.049 421.05 318.05 421.14L318.72 487.27C318.724 487.687 318.888 488.088 319.177 488.39C319.467 488.693 319.861 488.875 320.28 488.9C322.567 489.033 324.77 488.59 326.89 487.57C336.683 482.863 346.683 481.413 356.89 483.22C366.05 484.833 374.053 489.107 380.9 496.04C394.21 509.52 397.5 530.13 393 548.27C388.01 568.33 370.11 580.76 349.99 582.08C339.403 582.78 329.6 581.09 320.58 577.01C320.432 576.942 320.27 576.909 320.108 576.914C319.945 576.919 319.785 576.961 319.64 577.037C319.496 577.113 319.37 577.222 319.273 577.354C319.176 577.486 319.11 577.639 319.08 577.8C318.707 579.807 318.507 581.877 318.48 584.01C318.22 607.297 318.12 626.397 318.18 641.31C318.182 641.525 318.264 641.731 318.41 641.888C318.556 642.046 318.756 642.143 318.97 642.16Z" stroke="#3AA7D5" stroke-width="2"/>
<path d="M714.29 498.32C714.283 504.407 714.29 507.823 714.31 508.57C714.317 508.819 714.421 509.056 714.598 509.229C714.776 509.403 715.013 509.5 715.26 509.5H802.8C803.142 509.499 803.474 509.382 803.741 509.168C804.009 508.953 804.195 508.654 804.27 508.32C804.963 505.28 805.31 501.98 805.31 498.42C805.316 494.867 804.98 491.57 804.3 488.53C804.227 488.194 804.041 487.893 803.774 487.676C803.507 487.46 803.174 487.341 802.83 487.34L715.29 487.13C715.043 487.13 714.806 487.227 714.628 487.401C714.451 487.574 714.347 487.811 714.34 488.06C714.313 488.807 714.296 492.227 714.29 498.32Z" stroke="#55B8E0" stroke-width="2"/>
<path d="M783.71 531.38L734.93 530.96C734.73 530.96 734.538 531.039 734.396 531.179C734.254 531.319 734.173 531.51 734.17 531.71L734.16 532.51C734.137 535.113 734.695 537.696 735.804 540.112C736.914 542.527 738.551 544.727 740.624 546.586C742.697 548.445 745.164 549.927 747.884 550.947C750.605 551.967 753.526 552.505 756.48 552.53L761.8 552.57C767.763 552.622 773.501 550.584 777.75 546.904C782 543.225 784.413 538.206 784.46 532.95L784.47 532.15C784.471 532.049 784.453 531.949 784.415 531.856C784.377 531.763 784.322 531.678 784.251 531.606C784.18 531.535 784.096 531.478 784.003 531.439C783.91 531.4 783.811 531.38 783.71 531.38Z" stroke="#55B8E0" stroke-width="2"/>
<path d="M751.15 127.7C754.5 126.42 758.93 126.4 762.21 127.56C768.88 129.93 768.54 136.26 768.1 142.5C767.49 151.42 767.63 159.81 767.71 170.12C767.743 174.053 767.327 176.757 766.46 178.23C762.96 184.15 755.87 185.45 750.56 180.99C745.98 177.14 746.24 173.46 746.27 166.91C746.35 150.483 746.41 140.27 746.45 136.27C746.47 133.35 747.97 128.91 751.15 127.7Z" fill="#7DD5F1"/>
<path d="M583.56 423.57L582.02 423.36C581.87 423.339 581.73 423.273 581.622 423.17C581.514 423.067 581.443 422.934 581.42 422.79C580.253 415.623 580.573 408.447 582.38 401.26C590.12 400.66 596.79 397.71 602.39 392.41C609.35 385.81 611.13 374.85 609.73 365.6C608.71 358.87 603.57 350.02 596.92 346.99C591.75 344.64 586.64 342.81 580.94 344.08C575.04 345.387 570.823 346.723 568.29 348.09C560.25 352.44 551.56 355.95 543.32 349.91C534.993 343.797 530.843 335.33 530.87 324.51C530.91 304.63 530.89 283.91 530.81 262.35C530.81 262.027 530.683 261.717 530.457 261.487C530.231 261.257 529.923 261.125 529.6 261.12C506.467 260.72 483.933 260.823 462 261.43C455.51 261.61 446.26 260.77 442.83 255.15C440.303 251.01 439.037 246.377 439.03 241.25C438.99 206.463 439.017 186.63 439.11 181.75C439.123 180.877 439.23 179.433 439.43 177.42C439.437 177.355 439.431 177.289 439.41 177.227C439.389 177.166 439.356 177.109 439.311 177.061C439.266 177.014 439.212 176.976 439.151 176.952C439.09 176.928 439.025 176.917 438.96 176.92C422.3 177.68 406.087 180.15 390.32 184.33C366.38 190.683 344.52 199.513 324.74 210.82C302.3 223.64 283.67 239.79 266.68 258.85C258.56 267.963 251.33 277.673 244.99 287.98C237.963 299.413 231.687 312.567 226.16 327.44C218.227 348.787 214.47 370.057 214.89 391.25C215.11 402.137 215.42 411.553 215.82 419.5C216.65 436.26 215.25 450.6 207.86 465.65C200.593 480.45 193.007 495.07 185.1 509.51C180.42 508.057 175.717 506.633 170.99 505.24C168.21 504.413 165.683 503.027 163.41 501.08C170.883 486.907 178.31 472.683 185.69 458.41C190.33 449.437 192.547 439.883 192.34 429.75C192.22 423.863 191.94 417.03 191.5 409.25C191.133 402.697 191.213 393.03 191.74 380.25C192.367 365.023 195.047 349.193 199.78 332.76C210.713 294.753 229.683 261.557 256.69 233.17C303.03 184.46 366.91 158.18 433.54 154.01C444.11 153.34 450.88 153.06 457.6 160.16C460.36 163.087 461.73 166.787 461.71 171.26C461.617 193.453 461.617 215.74 461.71 238.12C461.711 238.28 461.745 238.439 461.811 238.585C461.876 238.732 461.972 238.862 462.092 238.969C462.212 239.076 462.353 239.156 462.506 239.204C462.659 239.253 462.821 239.268 462.98 239.25C466.607 238.837 470.197 238.62 473.75 238.6C499.783 238.473 516.2 238.513 523 238.72C530.147 238.927 536.227 239.353 541.24 240C546.06 240.62 553.31 247.07 555.34 251.45C556.254 253.417 556.697 256.193 556.67 259.78C556.457 284.267 556.69 304.813 557.37 321.42C557.417 322.62 557.543 323.713 557.75 324.7C557.786 324.879 557.859 325.049 557.966 325.197C558.073 325.346 558.21 325.47 558.369 325.562C558.528 325.653 558.704 325.711 558.887 325.729C559.07 325.748 559.255 325.728 559.43 325.67C577.56 319.73 595.83 318.82 612.56 329.73C623.94 337.16 630.55 350.44 632.31 363.62C632.803 367.333 632.85 372.617 632.45 379.47C631.617 393.87 625.423 405.157 613.87 413.33C604.903 419.67 594.8 423.083 583.56 423.57Z" fill="#2C9BCE"/>
<path d="M857.18 191.8C852.39 197.55 848.96 202.08 844.13 206.24C843.843 206.486 843.524 206.691 843.18 206.85C837.946 209.237 833.606 208.433 830.16 204.44C825.43 198.96 829.68 192.9 834.06 187.32C836.113 184.713 838.496 181.777 841.21 178.51C843.923 175.25 846.373 172.373 848.56 169.88C853.25 164.55 858.43 159.27 864.68 162.92C869.24 165.58 870.823 169.7 869.43 175.28C869.335 175.649 869.191 176.003 869 176.33C865.8 181.83 861.97 186.04 857.18 191.8Z" fill="#7DD5F1"/>
<path d="M653.08 162.33C657.86 161.13 661.76 162.63 664.89 166.52C669.776 172.6 673.39 177.097 675.73 180.01C681.683 187.41 684.69 191.147 684.75 191.22C694.29 202.28 677.64 215.79 668.31 203.6C667.003 201.9 661.593 195.413 652.08 184.14C647.7 178.95 644.39 172.73 648.1 166.13C649.213 164.15 650.873 162.883 653.08 162.33Z" fill="#7DD5F1"/>
<path d="M582.38 401.26C576.6 400.9 571.303 399.19 566.49 396.13C564.46 394.84 562.62 392.91 560.64 391.39C551.16 384.08 541.88 388.37 534.6 396.04C534.26 396.396 533.849 396.676 533.394 396.862C532.939 397.048 532.451 397.136 531.96 397.12C531.64 397.107 512.987 397.14 476 397.22C468.97 397.24 463.16 397.28 457.29 395.52C457.029 395.442 456.791 395.305 456.592 395.119C456.394 394.933 456.241 394.703 456.146 394.449C456.051 394.194 456.016 393.921 456.045 393.65C456.073 393.38 456.164 393.12 456.31 392.89C460.91 385.61 465.88 378.41 467.55 370.29C468.303 366.61 468.517 362.093 468.19 356.74C467.583 346.82 464.583 338.033 459.19 330.38C446.6 312.52 425.35 308.24 405.05 314.32C390.423 318.7 380.207 327.787 374.4 341.58C370.007 352.007 369.273 362.55 372.2 373.21C373.88 379.31 378.15 386 381.65 392.24C381.861 392.621 381.944 393.061 381.887 393.493C381.829 393.925 381.634 394.327 381.33 394.64C378.68 397.34 372.36 397.32 368.25 397.29C336.343 397.09 318.343 397.017 314.25 397.07C306.31 397.17 299.07 398.44 296.61 406.2C296.237 407.367 296.053 411.26 296.06 417.88C296.073 461.207 296.077 483.273 296.07 484.08C296.05 496.08 300.683 504.753 309.97 510.1C321.3 516.63 328.63 510.45 339.31 507.32C344.91 505.68 350.26 506.97 354.4 507.86C359.813 509.033 364.2 512.03 367.56 516.85C368.873 518.737 369.797 521.177 370.33 524.17C371.94 533.17 371.93 539.89 367.54 548.52C367.268 549.051 366.925 549.542 366.52 549.98C360.287 556.607 352.703 559.597 343.77 558.95C331.08 558.04 320.2 546.34 307.42 555.27C298.94 561.19 296.54 569.45 296.4 579.77C296.173 597.923 296.027 622.577 295.96 653.73C295.94 664.16 304.03 666.28 312.51 666.56C316.043 666.68 320.377 666.637 325.51 666.43C326.863 666.377 331.193 666.343 338.5 666.33C429.733 666.19 489.4 666.207 517.5 666.38C526.9 666.43 535.1 665.12 543.26 660.76C548.613 657.893 552.31 653.94 554.35 648.9C555.49 646.093 556.047 640.78 556.02 632.96C555.94 612.647 555.817 595.827 555.65 582.5C555.63 581.053 555.733 579.773 555.96 578.66C556.061 578.177 556.315 577.739 556.684 577.411C557.053 577.083 557.518 576.883 558.01 576.84C559.757 576.68 561.707 577.113 563.86 578.14C564.267 578.333 568.167 580.673 575.56 585.16C592.49 595.43 615.16 586.61 628.34 574.37C630.187 572.657 632.117 570.933 634.13 569.2C630.403 583.267 626.897 597.13 623.61 610.79C619.403 628.263 616.823 645.25 615.87 661.75C615.21 673.01 615.32 688.01 616.77 700.97C619.083 721.623 622.88 741.98 628.16 762.04C637.147 796.16 647.197 830.087 658.31 863.82C619.12 863.58 583.67 864.18 540.75 864.17C481.58 864.14 457.25 864.49 423.91 863.75C405.53 863.343 394.64 863.217 391.24 863.37C389.767 863.437 388.86 862.717 388.52 861.21C386.94 854.117 385.42 846.467 383.96 838.26C381.033 821.74 378.43 807.433 376.15 795.34C374.843 788.413 373.13 783.56 371.01 780.78C370.87 780.594 370.723 780.41 370.57 780.23C369.11 778.51 368.027 777.117 367.32 776.05C367.215 775.896 367.149 775.719 367.126 775.534C367.102 775.349 367.123 775.161 367.187 774.985C367.25 774.809 367.354 774.649 367.49 774.52C367.626 774.391 367.79 774.295 367.97 774.24C388.83 767.98 409.13 758.24 426.93 744.85C431.163 741.657 432.8 737.633 431.84 732.78C430.77 727.38 424.76 722.68 419.21 723.37C416.97 723.643 415.217 724.253 413.95 725.2C404.09 732.59 393.32 739.13 380.97 743.97C366.937 749.463 352.97 753.423 339.07 755.85C325.25 758.257 312.357 759.827 300.39 760.56C287.02 761.37 269.29 762.28 252.76 761.44C243.327 760.953 235.887 756.91 230.44 749.31C222.69 738.48 225.8 728.68 228.1 715.39C229.393 707.883 229.423 700.183 228.19 692.29C226.91 684.05 222.96 680.02 217.32 673.43C216.95 672.997 216.715 672.464 216.646 671.899C216.577 671.333 216.675 670.76 216.93 670.25C221.46 661.19 222.95 651.26 214.18 644.06C212.01 642.28 209.21 640.55 208.06 638.52C204.63 632.45 204.96 627.04 206.74 620.99C210.22 609.22 212.31 598.77 206.8 587.42C204.28 582.233 200.1 578.587 194.26 576.48C188.99 574.57 185.24 573.57 180.25 574.07C176.71 574.43 173.77 575.06 170.24 574.45C163.287 573.257 159.583 569.063 159.13 561.87C158.93 558.54 159.76 555.5 161.42 552.65C169.673 538.49 177.567 524.11 185.1 509.51C193.007 495.07 200.593 480.45 207.86 465.65C215.25 450.6 216.65 436.26 215.82 419.5C215.42 411.553 215.11 402.137 214.89 391.25C214.47 370.057 218.227 348.787 226.16 327.44C231.687 312.567 237.963 299.413 244.99 287.98C251.33 277.673 258.56 267.963 266.68 258.85C283.67 239.79 302.3 223.64 324.74 210.82C344.52 199.513 366.38 190.683 390.32 184.33C406.087 180.15 422.3 177.68 438.96 176.92C439.025 176.917 439.09 176.928 439.151 176.952C439.211 176.976 439.266 177.014 439.311 177.061C439.355 177.109 439.389 177.166 439.41 177.227C439.43 177.289 439.437 177.355 439.43 177.42C439.23 179.433 439.123 180.877 439.11 181.75C439.017 186.63 438.99 206.463 439.03 241.25C439.037 246.377 440.303 251.01 442.83 255.15C446.26 260.77 455.51 261.61 462 261.43C483.933 260.823 506.467 260.72 529.6 261.12C529.923 261.125 530.23 261.257 530.457 261.487C530.683 261.717 530.81 262.027 530.81 262.35C530.89 283.91 530.91 304.63 530.87 324.51C530.843 335.33 534.993 343.797 543.32 349.91C551.56 355.95 560.25 352.44 568.29 348.09C570.823 346.723 575.04 345.387 580.94 344.08C586.64 342.81 591.75 344.64 596.92 346.99C603.57 350.02 608.71 358.87 609.73 365.6C611.13 374.85 609.35 385.81 602.39 392.41C596.79 397.71 590.12 400.66 582.38 401.26Z" fill="#7DD5F1"/>
<path d="M872.53 372.24C864.003 371.553 855.58 370.307 847.26 368.5C852.94 356.62 856.54 343.63 856.64 330.43C856.68 325.137 856.603 321.58 856.41 319.76C854.93 306.12 850.703 293.78 843.73 282.74C839.46 275.98 834.9 269.58 829.07 264.17C811.65 248.04 789.02 237.85 765 237.41C758.36 237.283 751.883 237.52 745.57 238.12C739.697 238.68 735.16 239.473 731.96 240.5C717.82 245.03 703.3 252.6 692.69 262.3C673.33 280.01 662.13 305.76 662.74 331.86C662.967 341.587 665.113 351.563 669.18 361.79C674.11 374.21 682.3 384.66 691.57 394.03C697.677 400.197 701.76 404.58 703.82 407.18C707.733 412.127 711.047 418.087 713.76 425.06C708.473 433.513 702.403 441.18 695.55 448.06C693.81 439.41 690.16 429.21 684.41 422.1C675.64 411.27 665.02 401.41 657.35 390.43C627.33 347.45 633.78 289.22 669.08 251.6C687.653 231.813 710.333 219.41 737.12 214.39C795.94 203.37 855.87 237.27 875.41 293.08C884.24 318.32 883.11 346.09 872.53 372.24Z" fill="#39B0E3"/>
<path d="M847.261 368.5C840.921 381.36 832.851 389.73 821.941 400.65C816.821 405.77 812.314 412.45 808.42 420.69C801.8 434.7 799.74 448.1 797.3 463.5C797.246 463.859 797.063 464.186 796.786 464.423C796.509 464.66 796.156 464.79 795.79 464.79H771.62C771.353 464.79 771.096 464.684 770.906 464.494C770.717 464.305 770.61 464.048 770.61 463.78C770.444 437.46 770.351 413.943 770.331 393.23C770.321 388.89 773.131 386.28 776.521 382.77C780.814 378.317 786.251 372.923 792.831 366.59C795.557 363.963 797.827 361.32 799.641 358.66C804.521 351.5 802.08 338.73 791.17 339.32C787.75 339.507 784.637 341.263 781.831 344.59C774.084 353.763 766.737 362.07 759.79 369.51C759.59 369.725 759.314 369.853 759.02 369.867C758.726 369.88 758.439 369.777 758.22 369.58C751.51 363.5 747.601 358.09 739.761 348.51C737.641 345.923 735.291 343.69 732.711 341.81C728.951 339.07 723.41 338.46 719.8 341.57C715.41 345.35 714.891 350.88 716.821 356.1C717.387 357.647 718.637 359.507 720.571 361.68C730.271 372.61 740.23 379.11 747.47 389.25C747.846 389.778 748.109 390.377 748.24 391.01C748.52 392.283 748.654 394.537 748.641 397.77C748.574 421.33 748.614 443.28 748.761 463.62C748.761 463.904 748.648 464.176 748.447 464.377C748.246 464.577 747.974 464.69 747.691 464.69H723.47C723.271 464.691 723.079 464.616 722.931 464.481C722.783 464.346 722.69 464.16 722.67 463.96C721.37 450.48 718.401 437.513 713.761 425.06C711.047 418.087 707.734 412.127 703.821 407.18C701.761 404.58 697.677 400.197 691.571 394.03C682.301 384.66 674.11 374.21 669.18 361.79C665.114 351.563 662.967 341.587 662.74 331.86C662.13 305.76 673.331 280.01 692.691 262.3C703.301 252.6 717.821 245.03 731.961 240.5C735.161 239.473 739.697 238.68 745.571 238.12C751.884 237.52 758.361 237.283 765.001 237.41C789.021 237.85 811.651 248.04 829.071 264.17C834.901 269.58 839.46 275.98 843.73 282.74C850.704 293.78 854.93 306.12 856.41 319.76C856.604 321.58 856.681 325.137 856.641 330.43C856.541 343.63 852.941 356.62 847.261 368.5Z" fill="#7DD5F1"/>
<path d="M582.38 401.26C580.573 408.447 580.253 415.623 581.42 422.79C581.443 422.934 581.514 423.067 581.622 423.17C581.73 423.272 581.869 423.339 582.02 423.36L583.56 423.57C578.1 424.05 572.807 423.727 567.68 422.6C563.92 421.77 560.49 420.13 557.01 418.61C556.864 418.545 556.703 418.517 556.544 418.53C556.384 418.543 556.23 418.595 556.096 418.683C555.962 418.77 555.851 418.89 555.775 419.031C555.699 419.172 555.66 419.33 555.66 419.49C555.5 448.503 555.473 472.92 555.58 492.74C555.6 497.41 559.36 496.62 562.31 495.31C573.28 490.39 580.74 486.12 591.44 485.29C608.47 483.96 625.38 493.06 634.55 506.93C642.55 519.03 643.7 537.18 640.03 551.28C638.39 557.58 636.423 563.553 634.13 569.2C632.117 570.933 630.187 572.657 628.34 574.37C615.16 586.61 592.49 595.43 575.56 585.16C568.167 580.673 564.267 578.333 563.86 578.14C561.707 577.113 559.757 576.68 558.01 576.84C557.518 576.883 557.053 577.083 556.684 577.411C556.315 577.739 556.061 578.177 555.96 578.66C555.733 579.773 555.63 581.053 555.65 582.5C555.817 595.827 555.94 612.647 556.02 632.96C556.047 640.78 555.49 646.093 554.35 648.9C552.31 653.94 548.613 657.893 543.26 660.76C535.1 665.12 526.9 666.43 517.5 666.38C489.4 666.207 429.733 666.19 338.5 666.33C331.193 666.343 326.863 666.377 325.51 666.43C320.377 666.637 316.043 666.68 312.51 666.56C304.03 666.28 295.94 664.16 295.96 653.73C296.027 622.577 296.173 597.923 296.4 579.77C296.54 569.45 298.94 561.19 307.42 555.27C320.2 546.34 331.08 558.04 343.77 558.95C352.703 559.597 360.287 556.607 366.52 549.98C366.925 549.542 367.268 549.051 367.54 548.52C371.93 539.89 371.94 533.17 370.33 524.17C369.797 521.177 368.873 518.737 367.56 516.85C364.2 512.03 359.813 509.033 354.4 507.86C350.26 506.97 344.91 505.68 339.31 507.32C328.63 510.45 321.3 516.63 309.97 510.1C300.683 504.753 296.05 496.08 296.07 484.08C296.077 483.273 296.073 461.207 296.06 417.88C296.053 411.26 296.237 407.367 296.61 406.2C299.07 398.44 306.31 397.17 314.25 397.07C318.343 397.017 336.343 397.09 368.25 397.29C372.36 397.32 378.68 397.34 381.33 394.64C381.634 394.327 381.829 393.925 381.887 393.493C381.945 393.061 381.862 392.621 381.65 392.24C378.15 386 373.88 379.31 372.2 373.21C369.273 362.55 370.007 352.007 374.4 341.58C380.207 327.787 390.423 318.7 405.05 314.32C425.35 308.24 446.6 312.52 459.19 330.38C464.583 338.033 467.583 346.82 468.19 356.74C468.517 362.093 468.303 366.61 467.55 370.29C465.88 378.41 460.91 385.61 456.31 392.89C456.164 393.119 456.073 393.38 456.045 393.65C456.017 393.92 456.051 394.194 456.146 394.449C456.241 394.703 456.394 394.933 456.592 395.119C456.791 395.305 457.03 395.442 457.29 395.52C463.16 397.28 468.97 397.24 476 397.22C512.987 397.14 531.64 397.107 531.96 397.12C532.451 397.136 532.939 397.048 533.394 396.862C533.849 396.676 534.26 396.396 534.6 396.04C541.88 388.37 551.16 384.08 560.64 391.39C562.62 392.91 564.46 394.84 566.49 396.13C571.303 399.19 576.6 400.9 582.38 401.26ZM318.97 642.16C323.33 642.49 328.1 642.16 332.26 642.16C392.227 642.087 453.473 642.087 516 642.16C520.667 642.167 524.46 641.817 527.38 641.11C531.85 640.03 532.86 636.25 533.02 631.77C533.407 621.07 533.597 614.207 533.59 611.18C533.517 589.393 533.637 577.51 533.95 575.53C534.063 574.864 534.217 574.206 534.41 573.56C536.52 566.66 540.29 559.83 547.06 555.97C554.547 551.703 562.18 551.233 569.96 554.56C574.61 556.54 578.99 560.18 583.44 563.4C584.78 564.367 586.623 565.003 588.97 565.31C595.21 566.11 600.59 565.047 605.11 562.12C609.197 559.473 611.787 557.3 612.88 555.6C617.973 547.733 619.89 539.22 618.63 530.06C618.063 525.947 616.373 521.9 613.56 517.92C607.43 509.23 595.46 507.26 585.58 510.04C582.07 511.03 576.63 514.5 572.16 516.03C571.773 516.157 569.877 516.81 566.47 517.99C557.43 521.13 547.81 518.23 541.11 511.42C536.017 506.26 533.483 499.38 533.51 490.78C533.563 470.647 533.72 447.393 533.98 421.02C533.981 420.931 533.965 420.842 533.932 420.759C533.899 420.676 533.85 420.6 533.788 420.536C533.726 420.472 533.651 420.421 533.569 420.386C533.487 420.35 533.399 420.331 533.31 420.33C508.24 419.97 483.18 420.74 457.61 420.26C452.77 420.173 449.417 419.75 447.55 418.99C439.44 415.68 433.89 409.53 432.49 400.77C431.543 394.803 432.543 389.22 435.49 384.02C439.243 377.407 441.59 373.083 442.53 371.05C447.42 360.45 446.95 344.79 435.43 338.62C432.19 336.887 428.773 335.653 425.18 334.92C418.18 333.48 409.15 336.79 403.36 340.87C397.513 344.977 394.23 350.787 393.51 358.3C393.19 361.58 393.46 364.31 394.32 366.49C395.653 369.883 398.25 374.95 402.11 381.69C408.13 392.197 407.437 402.073 400.03 411.32C392.79 420.37 381.6 420.19 370.5 420.33C354.653 420.53 337.397 420.57 318.73 420.45C318.64 420.45 318.551 420.468 318.467 420.503C318.384 420.537 318.309 420.588 318.246 420.653C318.182 420.717 318.132 420.793 318.099 420.877C318.065 420.96 318.049 421.05 318.05 421.14L318.72 487.27C318.724 487.687 318.888 488.088 319.177 488.39C319.467 488.693 319.861 488.875 320.28 488.9C322.567 489.033 324.77 488.59 326.89 487.57C336.683 482.863 346.683 481.413 356.89 483.22C366.05 484.833 374.053 489.107 380.9 496.04C394.21 509.52 397.5 530.13 393 548.27C388.01 568.33 370.11 580.76 349.99 582.08C339.403 582.78 329.6 581.09 320.58 577.01C320.432 576.942 320.271 576.909 320.108 576.914C319.945 576.919 319.785 576.961 319.641 577.037C319.496 577.113 319.37 577.221 319.273 577.354C319.176 577.486 319.11 577.639 319.08 577.8C318.707 579.807 318.507 581.877 318.48 584.01C318.22 607.297 318.12 626.397 318.18 641.31C318.182 641.525 318.264 641.731 318.41 641.888C318.556 642.046 318.756 642.142 318.97 642.16Z" fill="#258CC0"/>
<path d="M318.18 641.31C318.12 626.397 318.22 607.297 318.48 584.01C318.507 581.877 318.707 579.807 319.08 577.8C319.11 577.638 319.176 577.486 319.273 577.354C319.37 577.221 319.496 577.113 319.64 577.037C319.785 576.961 319.945 576.919 320.108 576.914C320.27 576.909 320.432 576.942 320.58 577.01C329.6 581.09 339.403 582.78 349.99 582.08C370.11 580.76 388.01 568.33 393 548.27C397.5 530.13 394.21 509.52 380.9 496.04C374.053 489.107 366.05 484.833 356.89 483.22C346.683 481.413 336.683 482.863 326.89 487.57C324.77 488.59 322.567 489.033 320.28 488.9C319.861 488.875 319.467 488.692 319.177 488.39C318.888 488.088 318.724 487.687 318.72 487.27L318.05 421.14C318.049 421.05 318.065 420.96 318.099 420.877C318.132 420.793 318.182 420.717 318.245 420.653C318.309 420.588 318.384 420.537 318.467 420.503C318.55 420.468 318.64 420.45 318.73 420.45C337.397 420.57 354.653 420.53 370.5 420.33C381.6 420.19 392.79 420.37 400.03 411.32C407.437 402.073 408.13 392.197 402.11 381.69C398.25 374.95 395.653 369.883 394.32 366.49C393.46 364.31 393.19 361.58 393.51 358.3C394.23 350.787 397.513 344.977 403.36 340.87C409.15 336.79 418.18 333.48 425.18 334.92C428.773 335.653 432.19 336.887 435.43 338.62C446.95 344.79 447.42 360.45 442.53 371.05C441.59 373.083 439.243 377.407 435.49 384.02C432.543 389.22 431.543 394.803 432.49 400.77C433.89 409.53 439.44 415.68 447.55 418.99C449.417 419.75 452.77 420.173 457.61 420.26C483.18 420.74 508.24 419.97 533.31 420.33C533.399 420.331 533.487 420.35 533.569 420.385C533.651 420.421 533.726 420.472 533.788 420.536C533.85 420.6 533.899 420.676 533.932 420.759C533.965 420.842 533.981 420.931 533.98 421.02C533.72 447.393 533.563 470.647 533.51 490.78C533.483 499.38 536.017 506.26 541.11 511.42C547.81 518.23 557.43 521.13 566.47 517.99C569.877 516.81 571.773 516.157 572.16 516.03C576.63 514.5 582.07 511.03 585.58 510.04C595.46 507.26 607.43 509.23 613.56 517.92C616.373 521.9 618.063 525.947 618.63 530.06C619.89 539.22 617.973 547.733 612.88 555.6C611.787 557.3 609.197 559.473 605.11 562.12C600.59 565.047 595.21 566.11 588.97 565.31C586.623 565.003 584.78 564.367 583.44 563.4C578.99 560.18 574.61 556.54 569.96 554.56C562.18 551.233 554.547 551.703 547.06 555.97C540.29 559.83 536.52 566.66 534.41 573.56C534.217 574.206 534.063 574.864 533.95 575.53C533.637 577.51 533.517 589.393 533.59 611.18C533.597 614.207 533.407 621.07 533.02 631.77C532.86 636.25 531.85 640.03 527.38 641.11C524.46 641.817 520.667 642.167 516 642.16C453.473 642.087 392.227 642.087 332.26 642.16C328.1 642.16 323.33 642.49 318.97 642.16C318.756 642.142 318.556 642.046 318.41 641.888C318.264 641.731 318.182 641.525 318.18 641.31Z" fill="#4FC1EA"/>
<path d="M847.26 368.5C855.58 370.307 864.003 371.553 872.53 372.24C865.63 388.66 854.8 401.77 842.54 414.58C833.313 424.227 827.156 435.793 824.07 449.28C822.79 454.887 821.963 460.873 821.59 467.24C821.47 469.31 822.11 471.91 823.52 473.53C826.4 476.85 827.61 479.39 827.63 484.22C827.67 492.02 827.686 499.697 827.68 507.25C827.68 511.37 827.48 514.2 825.36 517.72C821.593 523.98 816.716 528.797 810.73 532.17C810.161 532.491 809.673 532.937 809.306 533.475C808.938 534.012 808.7 534.627 808.61 535.27C807.843 540.623 806.153 546.087 803.54 551.66C796.37 566.99 782.1 574.98 765.2 575.8C748.91 576.58 734.41 573.76 722.56 561.96C714.8 554.24 711.81 545.15 710.6 534.47C710.538 533.935 710.346 533.422 710.039 532.978C709.732 532.533 709.32 532.17 708.84 531.92C701.53 528.1 695.82 521.9 693.07 514.31C691.943 511.19 691.39 506.483 691.41 500.19C691.436 492.33 691.513 487.56 691.64 485.88C692.11 479.85 693.7 477.29 697.27 472.05C697.95 471.05 698.213 469.537 698.06 467.51C697.553 460.977 696.716 454.493 695.55 448.06C702.403 441.18 708.473 433.513 713.76 425.06C718.4 437.513 721.37 450.48 722.67 463.96C722.69 464.161 722.783 464.346 722.931 464.481C723.078 464.616 723.271 464.691 723.47 464.69H747.69C747.974 464.69 748.246 464.577 748.446 464.377C748.647 464.176 748.76 463.904 748.76 463.62C748.613 443.28 748.573 421.33 748.64 397.77C748.653 394.537 748.52 392.283 748.24 391.01C748.108 390.377 747.846 389.778 747.47 389.25C740.23 379.11 730.27 372.61 720.57 361.68C718.636 359.507 717.386 357.647 716.82 356.1C714.89 350.88 715.41 345.35 719.8 341.57C723.41 338.46 728.95 339.07 732.71 341.81C735.29 343.69 737.64 345.923 739.76 348.51C747.6 358.09 751.51 363.5 758.22 369.58C758.438 369.777 758.725 369.88 759.019 369.867C759.313 369.854 759.59 369.725 759.79 369.51C766.736 362.07 774.083 353.763 781.83 344.59C784.636 341.263 787.75 339.507 791.17 339.32C802.08 338.73 804.52 351.5 799.64 358.66C797.826 361.32 795.556 363.963 792.83 366.59C786.25 372.923 780.813 378.317 776.52 382.77C773.13 386.28 770.32 388.89 770.33 393.23C770.35 413.943 770.443 437.46 770.61 463.78C770.61 464.048 770.716 464.305 770.906 464.494C771.095 464.684 771.352 464.79 771.62 464.79H795.79C796.155 464.79 796.508 464.66 796.785 464.423C797.062 464.186 797.245 463.859 797.3 463.5C799.74 448.1 801.8 434.7 808.42 420.69C812.313 412.45 816.82 405.77 821.94 400.65C832.85 389.73 840.92 381.36 847.26 368.5ZM714.29 498.32C714.283 504.407 714.29 507.823 714.31 508.57C714.318 508.819 714.421 509.056 714.598 509.229C714.776 509.403 715.013 509.5 715.26 509.5H802.8C803.142 509.499 803.474 509.382 803.741 509.168C804.009 508.953 804.195 508.654 804.27 508.32C804.963 505.28 805.31 501.98 805.31 498.42C805.316 494.867 804.98 491.57 804.3 488.53C804.227 488.194 804.041 487.893 803.774 487.676C803.507 487.46 803.174 487.341 802.83 487.34L715.29 487.13C715.043 487.13 714.806 487.227 714.628 487.401C714.451 487.574 714.348 487.811 714.34 488.06C714.313 488.807 714.296 492.227 714.29 498.32ZM783.71 531.38L734.93 530.96C734.73 530.96 734.538 531.039 734.396 531.179C734.254 531.319 734.172 531.51 734.17 531.71L734.16 532.51C734.136 535.113 734.695 537.696 735.804 540.112C736.913 542.527 738.551 544.727 740.624 546.586C742.697 548.445 745.164 549.927 747.884 550.947C750.605 551.967 753.526 552.505 756.48 552.53L761.8 552.57C767.763 552.622 773.501 550.584 777.75 546.904C781.999 543.225 784.413 538.206 784.46 532.95L784.47 532.15C784.471 532.049 784.452 531.949 784.415 531.856C784.377 531.763 784.321 531.678 784.251 531.606C784.18 531.535 784.096 531.478 784.003 531.439C783.91 531.4 783.81 531.38 783.71 531.38Z" fill="#2C9BCE"/>
<path d="M805.31 498.42C805.31 501.98 804.963 505.28 804.27 508.32C804.195 508.654 804.009 508.953 803.741 509.168C803.474 509.382 803.142 509.499 802.8 509.5H715.26C715.013 509.5 714.776 509.403 714.598 509.229C714.421 509.056 714.317 508.819 714.31 508.57C714.29 507.823 714.283 504.407 714.29 498.32C714.296 492.227 714.313 488.807 714.34 488.06C714.347 487.811 714.451 487.574 714.628 487.401C714.806 487.227 715.043 487.13 715.29 487.13L802.83 487.34C803.174 487.341 803.507 487.46 803.774 487.676C804.041 487.893 804.227 488.194 804.3 488.53C804.98 491.57 805.316 494.867 805.31 498.42Z" fill="#7DD5F1"/>
<path d="M163.41 501.08C165.684 503.027 168.21 504.413 170.99 505.24C175.717 506.633 180.42 508.057 185.1 509.51C177.567 524.11 169.674 538.49 161.42 552.65C159.76 555.5 158.93 558.54 159.13 561.87C159.584 569.063 163.287 573.257 170.24 574.45C173.77 575.06 176.71 574.43 180.25 574.07C185.24 573.57 188.99 574.57 194.26 576.48C200.1 578.587 204.28 582.233 206.8 587.42C212.31 598.77 210.22 609.22 206.74 620.99C204.96 627.04 204.63 632.45 208.06 638.52C209.21 640.55 212.01 642.28 214.18 644.06C222.95 651.26 221.46 661.19 216.93 670.25C216.676 670.76 216.577 671.333 216.646 671.899C216.716 672.464 216.95 672.997 217.32 673.43C222.96 680.02 226.91 684.05 228.19 692.29C229.424 700.183 229.394 707.883 228.1 715.39C225.8 728.68 222.69 738.48 230.44 749.31C235.887 756.91 243.327 760.953 252.76 761.44C269.29 762.28 287.02 761.37 300.39 760.56C312.357 759.827 325.25 758.257 339.07 755.85C352.97 753.423 366.937 749.463 380.97 743.97C393.32 739.13 404.09 732.59 413.95 725.2C415.217 724.253 416.97 723.643 419.21 723.37C424.76 722.68 430.77 727.38 431.84 732.78C432.8 737.633 431.164 741.657 426.93 744.85C409.13 758.24 388.83 767.98 367.97 774.24C367.791 774.295 367.626 774.391 367.49 774.52C367.354 774.649 367.25 774.809 367.187 774.985C367.124 775.161 367.103 775.349 367.126 775.534C367.149 775.719 367.216 775.896 367.32 776.05C368.027 777.117 369.11 778.51 370.57 780.23C370.723 780.41 370.871 780.594 371.01 780.78C373.13 783.56 374.844 788.413 376.15 795.34C378.43 807.433 381.034 821.74 383.96 838.26C385.42 846.467 386.94 854.117 388.52 861.21C388.86 862.717 389.767 863.437 391.24 863.37C394.64 863.217 405.53 863.343 423.91 863.75C457.25 864.49 481.58 864.14 540.75 864.17C583.67 864.18 619.12 863.58 658.31 863.82C659.944 866.9 661.044 869.657 661.61 872.09C662.657 876.637 661.694 880.337 658.72 883.19C655.854 885.943 652.197 887.32 647.75 887.32C639.717 887.32 632.634 887.32 626.5 887.32C521.4 887.287 445.817 887.297 399.75 887.35C393.177 887.363 387.917 887.2 383.97 886.86C383.28 886.807 382.597 886.659 381.94 886.42C375.02 883.89 368.02 878.94 366.47 871.52C365.977 869.173 362.2 849.467 355.14 812.4C354.787 810.527 353.994 806.663 352.76 800.81C350.63 790.69 345.72 783.13 334.54 781.67C333.087 781.483 330.304 781.437 326.19 781.53C318.03 781.73 310.18 783.49 302.03 783.64C296.42 783.75 291.71 784.55 285.65 784.65C267.477 784.957 255.08 784.913 248.46 784.52C225.37 783.13 206.84 764.8 202.67 742.4C201.97 738.63 202.15 731.68 203.03 727.24C203.49 724.913 204.257 720.527 205.33 714.08C206.58 706.56 206.45 698.01 202.08 691.69C200 688.7 196.52 685.7 194.73 682.41C191.01 675.58 190.17 667.91 194.51 661.3C194.707 661.002 194.794 660.644 194.756 660.29C194.718 659.935 194.556 659.606 194.3 659.36C184.627 649.9 181.187 638.27 183.98 624.47C184.274 623.01 185.47 618.623 187.57 611.31C188.81 607.01 189.07 602.74 185.86 599.44C183.98 597.51 182.94 597.39 180.25 598.03C175.89 599.077 172.284 599.33 169.43 598.79C158.61 596.75 150.017 591.677 143.65 583.57C138.55 577.083 136.05 569.963 136.15 562.21C136.22 557.13 136.03 553.36 137.36 549.61C138.587 546.177 140.22 542.647 142.26 539.02C149.36 526.42 156.41 513.773 163.41 501.08Z" fill="#258CC0"/>
<path d="M783.71 531.38C783.811 531.38 783.91 531.4 784.003 531.439C784.096 531.478 784.18 531.535 784.251 531.606C784.322 531.678 784.377 531.763 784.415 531.856C784.453 531.949 784.471 532.049 784.47 532.15L784.46 532.95C784.413 538.206 782 543.225 777.75 546.904C773.501 550.584 767.763 552.622 761.8 552.57L756.48 552.53C753.526 552.505 750.605 551.967 747.884 550.947C745.164 549.927 742.697 548.445 740.624 546.586C738.551 544.727 736.914 542.527 735.804 540.112C734.695 537.696 734.137 535.113 734.16 532.51L734.17 531.71C734.173 531.51 734.254 531.319 734.396 531.179C734.538 531.039 734.73 530.96 734.93 530.96L783.71 531.38Z" fill="#7DD5F1"/>
</svg>
