<svg width="1024" height="1024" viewBox="0 0 1024 1024" fill="none" xmlns="http://www.w3.org/2000/svg">
<path d="M511.12 217.81C503.9 216.023 497.443 214.783 491.75 214.09C477.837 212.383 464.34 212.44 451.26 214.26C445.84 215.01 437.77 216.19 430.74 218.14C410.21 223.81 390.94 233.33 374.25 246.75C367.783 251.95 362.37 256.787 358.01 261.26C339.15 280.63 325.53 304.05 318.39 330.07C312.723 350.723 311.407 372.367 314.44 395C316.08 407.253 319.47 420.043 324.61 433.37C336.84 465.07 360.56 493.62 389.59 511.29C398.917 516.963 407.53 521.377 415.43 524.53C435.257 532.443 456.42 536.043 478.92 535.33C509.333 534.37 537.35 525.427 562.97 508.5C573.31 501.67 582.87 492.43 591.75 482.74C612.08 460.57 624.59 434.15 630.42 404.88C632.54 394.267 633.457 382.887 633.17 370.74C632.577 345.58 626.78 322.167 615.78 300.5C606.767 282.747 594.85 267.283 580.03 254.11C560.7 236.93 536.66 224.11 511.12 217.81Z" stroke="#F9B60E" stroke-width="2"/>
<path d="M534.178 297.816C528.532 297.638 523.011 300.853 518.829 306.752C514.647 312.651 512.147 320.751 511.879 329.271C511.612 337.791 513.598 346.032 517.401 352.182C521.204 358.332 526.513 361.887 532.159 362.064C537.806 362.242 543.327 359.027 547.509 353.128C551.691 347.229 554.191 339.129 554.458 330.609C554.726 322.089 552.74 313.848 548.937 307.698C545.133 301.548 539.825 297.993 534.178 297.816Z" stroke="#F9B60E" stroke-width="2"/>
<path d="M414.434 299.463C411.608 299.335 408.772 300.036 406.089 301.528C403.405 303.019 400.926 305.271 398.792 308.156C396.659 311.04 394.914 314.499 393.656 318.337C392.398 322.175 391.652 326.316 391.461 330.523C391.075 339.02 392.972 347.271 396.735 353.463C400.498 359.654 405.817 363.278 411.524 363.537C414.35 363.665 417.186 362.964 419.87 361.472C422.553 359.981 425.033 357.729 427.166 354.844C429.299 351.96 431.044 348.501 432.302 344.663C433.56 340.825 434.306 336.684 434.497 332.477C434.883 323.98 432.986 315.729 429.223 309.537C425.461 303.346 420.141 299.722 414.434 299.463Z" stroke="#F9B60E" stroke-width="2"/>
<path d="M570.17 405.4C567.2 398.5 556.87 398.15 553.61 405.12C550.81 411.133 548.076 416.313 545.41 420.66C535.643 436.58 521.786 447.747 503.84 454.16C495.173 457.26 485.49 458.88 474.79 459.02C444.923 459.413 421.373 448.28 404.14 425.62C399.73 419.81 396.96 414.32 392.7 406.58C389.42 400.6 383.24 398.61 377.57 402.91C373.57 405.94 374.13 412.11 375.89 416.43C379.09 424.283 383.226 431.517 388.3 438.13C390.83 441.42 393.12 443.71 396.51 447.41C411.54 463.78 432.82 474.71 454.96 477.59C461.486 478.443 469.08 478.76 477.74 478.54C505.386 477.84 528.756 468.217 547.85 449.67C555.84 441.91 562.06 432.24 566.95 422.45C568.03 420.29 569.01 417.29 570 414.78C571 412.26 571.3 408.02 570.17 405.4Z" stroke="#F9B60E" stroke-width="2"/>
<path d="M702.581 226.15C702.632 226.368 702.633 226.596 702.585 226.815C702.538 227.034 702.441 227.239 702.304 227.416C702.167 227.592 701.992 227.735 701.793 227.835C701.593 227.934 701.374 227.987 701.151 227.99C684.144 228.13 664.351 228.197 641.771 228.19C639.864 228.19 638.361 227.963 637.261 227.51C636.964 227.385 636.699 227.201 636.481 226.97C623.774 213.703 610.601 202.483 596.961 193.31C573.134 177.29 546.834 166.15 518.061 159.89C515.554 159.343 508.987 158.42 498.361 157.12C491.014 156.22 484.414 155.76 478.561 155.74C456.461 155.66 434.471 157.95 413.421 163.99C369.361 176.63 330.721 203.83 302.411 239.9C299.057 244.173 295.341 249.727 291.261 256.56C285.901 265.54 282.547 271.34 281.201 273.96C265.041 305.35 257.231 342.02 257.801 377.79C258.631 429.06 277.661 477.92 311.011 516.51C321.504 528.65 333.987 539.91 348.461 550.29C375.681 569.797 405.904 582.303 439.131 587.81C445.344 588.837 453.044 589.58 462.231 590.04C495.764 591.707 527.644 585.9 557.871 572.62C597.131 555.38 630.771 527.32 653.731 490.73C666.251 470.78 676.011 449.45 682.111 426.33C682.259 425.766 682.584 425.265 683.038 424.901C683.492 424.538 684.05 424.33 684.631 424.31C698.951 423.823 712.987 425.467 726.741 429.24C730.361 430.24 733.521 431.7 733.651 435.8C734.211 454.107 732.617 472.493 728.871 490.96C724.651 511.733 717.034 532.35 706.021 552.81C700.791 562.54 693.411 573.24 687.201 583.16C679.307 595.767 672.244 610.293 666.011 626.74C660.851 640.36 657.891 654.113 657.131 668C656.151 686 656.524 701.5 658.251 714.5C662.144 743.793 667.527 771.42 674.401 797.38C675.067 799.907 677.311 806.903 681.131 818.37C683.641 825.89 677.231 831.91 670.871 834.65C669.864 835.09 666.504 835.987 660.791 837.34C646.111 840.82 630.887 844.4 615.121 848.08C553.541 862.433 517.307 870.87 506.421 873.39C458.447 884.49 420.744 893.31 393.311 899.85C385.921 901.61 376.271 901.4 375.881 891.25C375.201 873.44 374.711 858.62 372.571 842.99C370.224 825.803 367.481 809.793 364.341 794.96C361.211 780.14 355.721 766.18 338.501 764C333.501 763.36 326.441 763.76 319.521 764.48C313.407 765.107 309.514 765.46 307.841 765.54C303.161 765.747 299.271 766 296.171 766.3C282.731 767.613 269.341 768.183 256.001 768.01C251.171 767.95 245.511 767.96 240.611 766.51C224.671 761.797 214.877 751.497 211.231 735.61C210.504 732.437 210.084 728.013 209.971 722.34C209.864 716.627 210.031 712.173 210.471 708.98C212.031 697.69 213.561 688.9 210.341 678.71C208.741 673.67 205.431 668.53 202.541 663.27C199.301 657.38 196.161 652.27 200.191 645.99C202.291 642.73 206.161 639.5 208.141 636.76C208.287 636.558 208.379 636.322 208.409 636.074C208.439 635.827 208.405 635.575 208.311 635.344C208.217 635.113 208.066 634.91 207.872 634.753C207.677 634.597 207.447 634.493 207.201 634.45C198.461 632.92 190.291 627.19 191.051 617.27C191.611 609.92 194.401 602.83 196.401 595.97C197.447 592.343 197.607 588.93 196.881 585.73C196.271 583.05 191.881 582.74 189.271 582.29C172.771 579.42 153.771 577.04 144.821 562.24C138.131 551.18 143.161 539.99 149.311 530.05C163.704 506.77 176.994 483.907 189.181 461.46C195.321 450.16 199.987 440.573 203.181 432.7C205.894 425.987 207.497 419.917 207.991 414.49C208.551 408.26 209.001 400.41 209.191 393.48C209.604 378.333 210.021 368.997 210.441 365.47C211.251 358.7 212.331 349.5 213.411 344.18C219.897 312.02 231.784 281.727 249.071 253.3C265.601 226.11 287.191 202.38 311.901 182.42C320.394 175.567 329.807 169.067 340.141 162.92C375.814 141.72 414.444 128.963 456.031 124.65C468.504 123.357 481.827 122.85 496.001 123.13C502.891 123.27 513.721 124.2 518.961 124.65C523.101 125.01 528.781 125.813 536.001 127.06C543.434 128.34 549.071 129.437 552.911 130.35C588.057 138.723 620.374 153.74 649.861 175.4C668.071 188.77 685.951 204.76 700.511 222.49C701.637 223.863 702.327 225.083 702.581 226.15Z" fill="#FEB41F"/>
<path d="M340.32 253.08C350.6 241.633 362.98 231.267 377.46 221.98C400.227 207.38 425.227 198.52 452.46 195.4C500.65 189.88 549.86 206.01 586.67 235.82C611.85 256.207 629.89 282.177 640.79 313.73C665.44 385.07 645.01 464.58 586.5 512.96C558.18 536.367 525.454 549.903 488.32 553.57C483.28 554.07 476.32 554.207 467.44 553.98C459.314 553.78 452.397 553.19 446.69 552.21C413.964 546.59 385.324 533.677 360.77 513.47C329.037 487.357 308.4 454.343 298.86 414.43C296.18 403.243 294.644 391.007 294.25 377.72C292.89 331.65 309.74 287.13 340.32 253.08ZM511.12 217.81C503.9 216.023 497.444 214.783 491.75 214.09C477.837 212.383 464.34 212.44 451.26 214.26C445.84 215.01 437.77 216.19 430.74 218.14C410.21 223.81 390.94 233.33 374.25 246.75C367.784 251.95 362.37 256.787 358.01 261.26C339.15 280.63 325.53 304.05 318.39 330.07C312.724 350.723 311.407 372.367 314.44 395C316.08 407.253 319.47 420.043 324.61 433.37C336.84 465.07 360.56 493.62 389.59 511.29C398.917 516.963 407.53 521.377 415.43 524.53C435.257 532.443 456.42 536.043 478.92 535.33C509.334 534.37 537.35 525.427 562.97 508.5C573.31 501.67 582.87 492.43 591.75 482.74C612.08 460.57 624.59 434.15 630.42 404.88C632.54 394.267 633.457 382.887 633.17 370.74C632.577 345.58 626.78 322.167 615.78 300.5C606.767 282.747 594.85 267.283 580.03 254.11C560.7 236.93 536.66 224.11 511.12 217.81Z" fill="#F29D08"/>
<path d="M511.12 217.81C536.66 224.11 560.7 236.93 580.03 254.11C594.85 267.283 606.767 282.747 615.78 300.5C626.78 322.167 632.577 345.58 633.17 370.74C633.457 382.887 632.54 394.267 630.42 404.88C624.59 434.15 612.08 460.57 591.75 482.74C582.87 492.43 573.31 501.67 562.97 508.5C537.35 525.427 509.333 534.37 478.92 535.33C456.42 536.043 435.257 532.443 415.43 524.53C407.53 521.377 398.917 516.963 389.59 511.29C360.56 493.62 336.84 465.07 324.61 433.37C319.47 420.043 316.08 407.253 314.44 395C311.407 372.367 312.723 350.723 318.39 330.07C325.53 304.05 339.15 280.63 358.01 261.26C362.37 256.787 367.783 251.95 374.25 246.75C390.94 233.33 410.21 223.81 430.74 218.14C437.77 216.19 445.84 215.01 451.26 214.26C464.34 212.44 477.837 212.383 491.75 214.09C497.443 214.783 503.9 216.023 511.12 217.81ZM534.179 297.816C528.533 297.638 523.012 300.853 518.83 306.752C514.648 312.651 512.148 320.751 511.88 329.271C511.613 337.791 513.599 346.032 517.402 352.182C521.205 358.332 526.514 361.887 532.16 362.064C537.807 362.242 543.328 359.027 547.51 353.128C551.692 347.229 554.192 339.129 554.459 330.609C554.727 322.089 552.741 313.848 548.938 307.698C545.134 301.548 539.826 297.993 534.179 297.816ZM414.435 299.463C411.609 299.335 408.773 300.036 406.089 301.528C403.406 303.019 400.926 305.271 398.793 308.156C396.66 311.04 394.915 314.499 393.657 318.337C392.399 322.175 391.653 326.316 391.462 330.523C391.076 339.02 392.973 347.271 396.736 353.463C400.498 359.654 405.818 363.278 411.525 363.537C414.351 363.665 417.187 362.964 419.87 361.472C422.554 359.981 425.033 357.729 427.167 354.844C429.3 351.96 431.045 348.501 432.303 344.663C433.561 340.825 434.307 336.684 434.498 332.477C434.884 323.98 432.987 315.729 429.224 309.537C425.461 303.346 420.142 299.722 414.435 299.463ZM570.17 405.4C567.2 398.5 556.87 398.15 553.61 405.12C550.81 411.133 548.077 416.313 545.41 420.66C535.643 436.58 521.787 447.747 503.84 454.16C495.173 457.26 485.49 458.88 474.79 459.02C444.923 459.413 421.373 448.28 404.14 425.62C399.73 419.81 396.96 414.32 392.7 406.58C389.42 400.6 383.24 398.61 377.57 402.91C373.57 405.94 374.13 412.11 375.89 416.43C379.09 424.283 383.227 431.517 388.3 438.13C390.83 441.42 393.12 443.71 396.51 447.41C411.54 463.78 432.82 474.71 454.96 477.59C461.487 478.443 469.08 478.76 477.74 478.54C505.387 477.84 528.757 468.217 547.85 449.67C555.84 441.91 562.06 432.24 566.95 422.45C568.03 420.29 569.01 417.29 570 414.78C571 412.26 571.3 408.02 570.17 405.4Z" fill="#FFCE14"/>
<path d="M782.139 420.52C782.133 420.301 782.047 420.092 781.898 419.932C781.749 419.772 781.547 419.672 781.329 419.65C776.263 419.177 771.919 418.81 768.299 418.55C762.053 418.11 754.116 416.923 744.489 414.99C729.519 411.97 715.229 405 704.669 393.65C693.579 381.72 687.359 368.63 683.779 352.66C682.873 348.62 682.269 342.007 681.969 332.82C681.622 321.973 681.473 310.62 681.519 298.76C681.546 290.687 680.889 282.833 679.549 275.2C677.589 264.07 671.839 260.98 661.389 259.43C660.089 259.237 658.742 258.193 657.349 256.3C657.22 256.123 657.128 255.922 657.08 255.708C657.032 255.495 657.028 255.274 657.069 255.06C657.779 251.32 661.059 247.56 664.529 246.53C665.589 246.217 668.266 246.09 672.559 246.15C681.049 246.26 688.519 245.33 695.319 247.7C711.349 253.28 718.449 266.44 721.249 282.26C723.229 293.46 724.286 301.46 724.419 306.26C724.929 324.31 725.259 337.36 727.959 353.51C729.233 361.09 731.479 368.187 734.699 374.8C739.949 385.56 749.419 391.36 761.489 393.68C767.916 394.92 774.419 395.773 780.999 396.24C781.151 396.25 781.303 396.228 781.446 396.177C781.589 396.126 781.719 396.047 781.83 395.944C781.941 395.841 782.029 395.716 782.089 395.578C782.149 395.44 782.18 395.291 782.179 395.14C782.179 367.593 782.183 335.09 782.189 297.63C782.189 288.74 781.519 279.62 780.039 271.24C779.046 265.667 776.036 262.277 771.009 261.07C768.036 260.357 764.613 259.86 760.739 259.58C758.406 259.413 756.063 258.73 753.709 257.53C747.909 254.57 752.739 247.14 755.519 243.5C756.306 242.473 757.466 241.963 758.999 241.97C769.339 242.043 797.243 242.047 842.709 241.98C846.789 241.98 849.979 241.52 851.109 245.62C851.609 247.413 851.829 249.637 851.769 252.29C851.689 255.983 849.923 258.03 846.469 258.43C845.036 258.59 840.666 259.17 833.359 260.17C827.573 260.963 824.133 264.403 823.039 270.49C822.146 275.423 821.693 279.343 821.679 282.25C821.579 306.137 821.583 343.497 821.689 394.33C821.691 394.503 821.729 394.673 821.8 394.83C821.871 394.987 821.974 395.128 822.102 395.243C822.23 395.358 822.38 395.444 822.543 395.497C822.707 395.55 822.879 395.568 823.049 395.55C833.029 394.55 843.749 393.36 852.629 389.34C863.576 384.373 870.673 375.49 873.919 362.69C875.766 355.417 877.039 348.437 877.739 341.75C878.479 334.677 879.293 320.783 880.179 300.07C880.699 287.71 882.779 275.97 888.539 265.04C894.249 254.17 903.409 248.78 914.289 244.29C918.019 242.75 920.629 242.18 924.669 242.08C930.003 241.94 936.509 241.95 944.189 242.11C948.599 242.2 947.849 247.75 947.809 251.3C947.776 254.54 946.146 256.493 942.919 257.16C939.809 257.8 934.369 258.65 931.539 261.26C928.959 263.62 927.193 266.207 926.239 269.02C922.739 279.4 921.519 291.53 921.689 304.48C921.842 316.647 921.786 326.727 921.519 334.72C920.649 360.5 910.919 383.06 890.999 399.52C881.149 407.65 866.779 412.78 854.189 415.12C843.603 417.087 833.059 418.3 822.559 418.76C822.341 418.768 822.133 418.86 821.981 419.019C821.828 419.177 821.742 419.389 821.739 419.61C821.626 431.703 821.613 444.093 821.699 456.78C821.719 460.38 821.956 463.837 822.409 467.15C823.689 476.59 824.159 482.6 827.599 489.2C830.049 493.89 834.529 495.88 840.279 496.75C842.746 497.117 845.626 497.637 848.919 498.31C852.649 499.07 851.739 508.19 851.569 511C851.219 516.65 846.249 516.04 842.259 516.05C815.746 516.097 787.166 516.097 756.519 516.05C753.999 516.05 752.329 514.953 751.509 512.76C750.839 511 750.989 504.03 751.659 502.11C752.632 499.35 754.583 497.837 757.509 497.57C763.319 497.04 768.769 496.52 772.529 493.41C777.239 489.51 779.129 483.82 780.089 477.87C781.259 470.65 782.189 463.39 782.209 454.66C782.263 437.22 782.239 425.84 782.139 420.52Z" fill="#F29D08"/>
<path d="M554.46 330.609C555.017 312.867 545.938 298.185 534.18 297.816C522.422 297.446 512.438 311.529 511.881 329.271C511.323 347.013 520.403 361.695 532.161 362.064C543.918 362.434 553.902 348.351 554.46 330.609Z" fill="#F29D08"/>
<path d="M434.498 332.477C435.302 314.784 426.319 300.003 414.435 299.463C402.551 298.923 392.266 312.829 391.463 330.523C390.659 348.216 399.642 362.997 411.526 363.537C423.41 364.077 433.695 350.171 434.498 332.477Z" fill="#F29D08"/>
<path d="M553.61 405.12C556.87 398.15 567.2 398.5 570.17 405.4C571.3 408.02 571 412.26 570 414.78C569.01 417.29 568.03 420.29 566.95 422.45C562.06 432.24 555.84 441.91 547.85 449.67C528.756 468.217 505.386 477.84 477.74 478.54C469.08 478.76 461.486 478.443 454.96 477.59C432.82 474.71 411.54 463.78 396.51 447.41C393.12 443.71 390.83 441.42 388.3 438.13C383.226 431.517 379.09 424.283 375.89 416.43C374.13 412.11 373.57 405.94 377.57 402.91C383.24 398.61 389.42 400.6 392.7 406.58C396.96 414.32 399.73 419.81 404.14 425.62C421.373 448.28 444.923 459.413 474.79 459.02C485.49 458.88 495.173 457.26 503.84 454.16C521.786 447.747 535.643 436.58 545.41 420.66C548.076 416.313 550.81 411.133 553.61 405.12Z" fill="#F29D08"/>
</svg>
