<svg width="1024" height="1024" viewBox="0 0 1024 1024" fill="none" xmlns="http://www.w3.org/2000/svg">
<path d="M821.111 220.65L793.551 233.1" stroke="#60C7E8" stroke-width="2"/>
<path d="M717.87 246.65C710.33 256.1 703.68 264.29 692.49 269.58" stroke="#60C7E8" stroke-width="2"/>
<path d="M672.52 305.19C667.393 309.13 663.62 313.03 661.2 316.89C658.3 321.517 655.613 325.523 653.14 328.91C650.527 332.477 647.2 334.933 643.16 336.28C643.1 336.3 643.036 336.306 642.973 336.297C642.91 336.289 642.85 336.265 642.798 336.23C642.746 336.194 642.702 336.146 642.671 336.091C642.641 336.035 642.623 335.973 642.62 335.91L642.33 327.53" stroke="#60C7E8" stroke-width="2"/>
<path d="M789.32 366.46C780.374 371.02 771.244 375.007 761.93 378.42C757.324 380.113 753.454 382.667 750.32 386.08" stroke="#51B8E4" stroke-width="2"/>
<path d="M726.049 436.67C719.669 443.65 712.716 450.02 705.189 455.78" stroke="#51B8E4" stroke-width="2"/>
<path d="M672.66 519.71C672.44 520.43 672.36 521.21 672.42 522.05C672.446 522.374 672.362 522.698 672.18 522.97C667.494 530.063 661.78 537.793 655.04 546.16C650.58 551.7 647.25 554.05 642.32 547.78" stroke="#51B8E4" stroke-width="2"/>
<path d="M567.99 585.92C558.843 590.98 549.91 596.327 541.19 601.96C534.71 606.147 527.763 606.813 520.35 603.96" stroke="#51B8E4" stroke-width="2"/>
<path d="M555.03 263.39C554.504 269.55 553.09 274.957 550.79 279.61C544.997 291.337 540.453 301.247 537.16 309.34" stroke="#60C7E8" stroke-width="2"/>
<path d="M241.72 521.05C230.75 530.27 222.21 541.28 212.67 551.97" stroke="#60C7E8" stroke-width="2"/>
<path d="M821.111 220.65L793.551 233.1C787.401 216.51 772.941 206.29 755.281 206.73C746.367 206.957 738.354 210.12 731.241 216.22C722.174 223.993 717.717 234.137 717.871 246.65C710.331 256.1 703.681 264.29 692.491 269.58L690.211 263.35C690.108 263.071 689.922 262.83 689.677 262.66C689.432 262.49 689.14 262.4 688.841 262.4H673.581C673.321 262.4 673.071 262.503 672.888 262.687C672.704 262.871 672.601 263.12 672.601 263.38L672.521 305.19C667.394 309.13 663.621 313.03 661.201 316.89C658.301 321.517 655.614 325.523 653.141 328.91C650.527 332.477 647.201 334.933 643.161 336.28C643.1 336.3 643.036 336.306 642.974 336.297C642.911 336.289 642.851 336.265 642.799 336.229C642.746 336.194 642.703 336.146 642.672 336.091C642.641 336.035 642.624 335.973 642.621 335.91L642.331 327.53C642.284 303.49 642.281 279.44 642.321 255.38C642.334 249.18 642.821 244.95 643.781 242.69C645.547 238.537 648.661 235.463 653.121 233.47C655.381 232.457 658.527 232.013 662.561 232.14C662.861 232.153 671.481 232.18 688.421 232.22C688.784 232.221 689.137 232.099 689.422 231.873C689.707 231.648 689.907 231.333 689.991 230.98C695.741 206.38 712.871 187.24 737.141 179.49C746.594 176.477 756.091 175.58 765.631 176.8C790.531 179.98 812.391 196.78 821.111 220.65Z" fill="#66CEEA"/>
<path d="M555.031 263.39C554.504 269.55 553.09 274.957 550.79 279.61C544.997 291.337 540.454 301.247 537.16 309.34C522.287 287.4 503.684 269.6 481.35 255.94C450.664 237.173 416.797 228.35 379.751 229.47C308.621 231.61 247.01 274.74 218.471 339.38C210.217 358.073 205.44 377.533 204.14 397.76C201.207 443.513 213.734 484.61 241.721 521.05C230.751 530.27 222.21 541.28 212.67 551.97C182.397 514.637 165.62 471.9 162.34 423.76C162.054 419.547 162.004 412.77 162.191 403.43C162.357 395.323 162.791 388.56 163.491 383.14C170.004 332.647 190.694 289.613 225.56 254.04C254.24 224.78 288.487 204.783 328.3 194.05C353.527 187.25 378.844 184.977 404.251 187.23C462.79 192.43 516.251 219.1 555.031 263.39Z" fill="#66CEEA"/>
<path d="M821.11 220.65C825.34 232.14 826.83 244.12 824.47 256.21C818.96 284.35 798.06 306.49 769.24 312.44C762.594 313.813 755.767 314.06 748.76 313.18C722.95 309.93 702.41 293.51 692.49 269.58C703.68 264.29 710.33 256.1 717.87 246.65C720.23 279.64 759.73 294.89 783.46 271.73C791.634 263.757 795.56 253.84 795.24 241.98C795.2 240.267 794.637 237.307 793.55 233.1L821.11 220.65Z" fill="#5ABFE6"/>
<path d="M555.03 263.39C584.61 298.05 601.953 338.097 607.06 383.53C607.953 391.497 608.527 397.813 608.78 402.48C608.79 402.675 608.876 402.858 609.019 402.992C609.162 403.126 609.352 403.2 609.55 403.2H641.25C641.486 403.2 641.712 403.106 641.879 402.939C642.046 402.772 642.14 402.546 642.14 402.31L642.33 327.53L642.62 335.91C642.623 335.973 642.64 336.035 642.671 336.091C642.702 336.146 642.745 336.194 642.798 336.23C642.85 336.265 642.91 336.289 642.973 336.297C643.036 336.306 643.1 336.3 643.16 336.28C647.2 334.933 650.527 332.477 653.14 328.91C655.613 325.523 658.3 321.517 661.2 316.89C663.62 313.03 667.393 309.13 672.52 305.19L672.57 402.21C672.57 402.343 672.596 402.474 672.647 402.596C672.698 402.719 672.772 402.83 672.866 402.924C672.96 403.018 673.071 403.092 673.193 403.143C673.316 403.194 673.447 403.22 673.58 403.22H694.15C694.54 403.22 694.919 403.097 695.233 402.869C695.548 402.641 695.781 402.319 695.9 401.95C704.4 375.6 728.29 357.69 755.82 357.35C767.453 357.203 778.62 360.24 789.32 366.46C780.373 371.02 771.243 375.007 761.93 378.42C757.323 380.113 753.453 382.667 750.32 386.08C726.67 390.86 714.04 415.19 726.05 436.67C719.67 443.65 712.717 450.02 705.19 455.78C700.183 449.2 696.76 441.88 694.92 433.82C694.861 433.556 694.713 433.32 694.5 433.151C694.287 432.982 694.023 432.89 693.75 432.89H673.77C673.481 432.89 673.204 433.005 672.999 433.209C672.795 433.414 672.68 433.691 672.68 433.98L672.66 519.71C672.44 520.43 672.36 521.21 672.42 522.05C672.446 522.373 672.361 522.698 672.18 522.97C667.493 530.063 661.78 537.793 655.04 546.16C650.58 551.7 647.25 554.05 642.32 547.78L642.29 434.44C642.29 434.037 642.13 433.65 641.845 433.365C641.56 433.08 641.173 432.92 640.77 432.92H608.64C608.247 432.919 607.868 433.062 607.573 433.322C607.278 433.582 607.089 433.94 607.04 434.33C600.787 483.803 580.75 526.63 546.93 562.81C546.654 563.106 546.503 563.496 546.509 563.899C546.514 564.302 546.676 564.686 546.96 564.97L567.99 585.92C558.843 590.98 549.91 596.327 541.19 601.96C534.71 606.147 527.763 606.813 520.35 603.96L511.34 595.09C511.097 594.852 510.779 594.706 510.44 594.675C510.101 594.644 509.762 594.73 509.48 594.92C479.6 615.127 446.77 627.277 410.99 631.37C408.977 631.597 404.96 632.01 398.94 632.61C393.8 633.13 384.327 633.077 370.52 632.45C328.407 630.557 290.04 617.1 255.42 592.08C239.407 580.507 225.157 567.137 212.67 551.97C222.21 541.28 230.75 530.27 241.72 521.05C250.727 532.577 261.017 542.86 272.59 551.9C301.163 574.247 333.553 586.983 369.76 590.11C374.02 590.477 380.79 590.597 390.07 590.47C410.35 590.21 431.31 586.11 449.48 579.17C486.5 565.023 515.99 541.36 537.95 508.18C556.77 479.74 566.74 447.44 567.52 413.14C568.36 375.947 558.24 341.347 537.16 309.34C540.453 301.247 544.997 291.337 550.79 279.61C553.09 274.957 554.503 269.55 555.03 263.39Z" fill="#5ABFE6"/>
<path d="M452.275 305.75L283.469 473.382C275.929 480.87 275.886 493.052 283.374 500.591L283.655 500.875C291.143 508.415 303.325 508.458 310.865 500.97L479.672 333.338C487.211 325.85 487.254 313.668 479.767 306.129L479.485 305.845C471.997 298.305 459.815 298.262 452.275 305.75Z" fill="#66CEEA"/>
<path d="M705.189 455.78C712.716 450.02 719.669 443.65 726.049 436.67C735.279 451.74 753.039 457.48 769.279 450.93C792.949 441.37 797.699 410.73 778.739 394.07C771.206 387.457 761.733 384.793 750.319 386.08C753.453 382.667 757.323 380.113 761.929 378.42C771.243 375.007 780.373 371.02 789.319 366.46C804.919 376.28 814.669 390.25 818.569 408.37C824.579 436.33 808.029 465.59 782.489 476.91C755.579 488.83 722.409 480.08 705.189 455.78Z" fill="#47B0E1"/>
<path d="M672.659 519.71L672.689 575.77C672.689 576.064 672.806 576.347 673.015 576.555C673.223 576.763 673.505 576.88 673.799 576.88H691.969C692.366 576.879 692.752 576.751 693.071 576.513C693.389 576.276 693.624 575.941 693.739 575.56C704.189 541.31 739.329 520.93 774.299 529.63C787.769 532.98 800.319 540.86 809.119 551.99C820.253 566.057 825.066 582.277 823.559 600.65C821.129 630.3 799.139 654.21 770.129 660.38C734.099 668.04 698.609 643.98 690.859 608.03C690.777 607.653 690.569 607.316 690.269 607.074C689.969 606.832 689.595 606.7 689.21 606.7C675.91 606.68 666.883 606.7 662.129 606.76C658.376 606.807 655.51 606.46 653.53 605.72C647.31 603.39 643.66 598.01 642.65 591.51C642.443 590.197 642.336 586.84 642.33 581.44C642.303 570.227 642.299 559.007 642.319 547.78C647.249 554.05 650.579 551.7 655.039 546.16C661.779 537.793 667.493 530.063 672.179 522.97C672.361 522.698 672.446 522.373 672.419 522.05C672.359 521.21 672.439 520.43 672.659 519.71ZM793.191 589.9C792.59 585.145 791.055 580.555 788.674 576.392C786.294 572.229 783.113 568.575 779.315 565.639C775.516 562.702 771.174 560.541 766.536 559.278C761.899 558.015 757.056 557.675 752.285 558.278C742.649 559.495 733.89 564.478 727.935 572.13C721.979 579.781 719.315 589.476 720.528 599.08C721.129 603.835 722.664 608.425 725.044 612.588C727.425 616.751 730.606 620.405 734.404 623.341C738.203 626.278 742.545 628.439 747.183 629.702C751.82 630.965 756.663 631.305 761.434 630.702C771.07 629.485 779.829 624.502 785.784 616.85C791.74 609.199 794.404 599.504 793.191 589.9Z" fill="#47B0E1"/>
<path d="M567.99 585.92L600.45 618.17C600.7 618.416 601.026 618.569 601.373 618.603C601.721 618.638 602.069 618.552 602.36 618.36C609.473 613.653 616.37 613.943 623.05 619.23C624.023 619.997 626.486 622.357 630.44 626.31C675.753 671.643 723.286 718.86 773.04 767.96C775.406 770.3 777.69 772.69 779.89 775.13C803.74 801.65 785.52 841.86 750.27 842.92C740.75 843.2 731.31 839.6 723.86 833.72C722.88 832.947 719.143 829.323 712.65 822.85C685.09 795.383 637.28 747.863 569.22 680.29C562.53 673.64 559.83 664.88 566.21 656.92C567.796 654.94 568.67 653.843 568.83 653.63C569.003 653.403 569.089 653.121 569.071 652.836C569.052 652.551 568.931 652.283 568.73 652.08L520.35 603.96C527.763 606.813 534.71 606.147 541.19 601.96C549.91 596.327 558.843 590.98 567.99 585.92Z" fill="#47B0E1"/>
</svg>
