<svg width="1024" height="1024" viewBox="0 0 1024 1024" fill="none" xmlns="http://www.w3.org/2000/svg">
<path d="M478.201 241.25C475.781 256.59 473.011 269.95 462.891 281.98" stroke="#FF7314" stroke-width="2"/>
<path d="M370.41 535.96C374.35 539.74 376.963 543.96 378.25 548.62C380.517 556.847 381.21 565.607 380.33 574.9" stroke="#FF7314" stroke-width="2"/>
<path d="M555.981 662.59C552.568 678.39 545.621 692.15 535.141 703.87C526.841 713.15 516.331 723.41 507.501 733.87C501.361 741.14 494.811 749.54 488.251 755.81C479.221 764.44 470.571 769.98 458.051 778.49C448.221 785.18 440.421 791.37 429.651 799.67C426.725 801.93 422.155 804.61 415.941 807.71" stroke="#FF600F" stroke-width="2"/>
<path d="M307.211 731.04C322.031 721.71 333.611 710.77 347.511 697.9C355.861 690.17 364.851 683.3 368.751 672.05" stroke="#FF7314" stroke-width="2"/>
<path d="M689.611 224.49C693.791 229.73 692.461 235.01 688.381 239.87C683.101 246.157 677.351 252.114 671.131 257.74" stroke="#FF600F" stroke-width="2"/>
<path d="M650.432 602.79C659.032 600.32 666.362 597.41 670.882 589.4C675.932 580.46 678.812 569.09 682.682 561.72C685.748 555.867 688.778 549.934 691.772 543.92" stroke="#FF600F" stroke-width="2"/>
<path d="M654.09 118.1H652.79C645.82 118.1 640.17 123.75 640.17 130.72V179.08C640.17 186.05 645.82 191.7 652.79 191.7H654.09C661.06 191.7 666.71 186.05 666.71 179.08V130.72C666.71 123.75 661.06 118.1 654.09 118.1Z" fill="#FF6811"/>
<path d="M522.931 152.533L522.304 152.925C516.051 156.832 514.15 165.068 518.057 171.321L544.913 214.3C548.82 220.553 557.056 222.454 563.309 218.547L563.937 218.155C570.189 214.248 572.091 206.012 568.184 199.759L541.327 156.78C537.42 150.527 529.184 148.626 522.931 152.533Z" fill="#FF6811"/>
<path d="M790.304 153.027L789.693 152.646C783.506 148.78 775.356 150.661 771.49 156.848L744.295 200.37C740.428 206.557 742.31 214.707 748.497 218.573L749.108 218.955C755.295 222.821 763.444 220.939 767.311 214.752L794.506 171.23C798.372 165.043 796.491 156.893 790.304 153.027Z" fill="#FF570C"/>
<path d="M478.2 241.25C475.78 256.59 473.01 269.95 462.89 281.98C457.057 275.573 451.67 270.257 446.73 266.03C423.584 246.25 396.584 234.67 365.73 231.29C358.44 230.5 350.78 230.86 343.76 230.74C338.754 230.667 333.274 230.967 327.32 231.64C260.26 239.27 206.95 291.2 195.45 357.58C194.417 363.533 193.83 370.507 193.69 378.5C193.517 388.62 193.637 395.623 194.05 399.51C197.49 432.217 209.517 460.6 230.13 484.66C251.44 509.53 279.79 526.61 311.62 533.87C319.76 535.723 327.264 536.793 334.13 537.08C340.744 537.353 348.43 537.39 357.19 537.19C361.5 537.09 366 536.35 370.41 535.96C374.35 539.74 376.964 543.96 378.25 548.62C380.517 556.847 381.21 565.607 380.33 574.9C371.017 576.473 363.824 577.393 358.75 577.66C355.984 577.8 348.497 577.81 336.29 577.69C331.79 577.643 327.78 577.327 324.26 576.74C319.57 575.96 314.05 575.57 308.31 574.42C272.684 567.26 241.66 551.21 215.24 526.27C176.65 489.84 154.26 441.15 152.92 388.06C151.67 338.7 169.74 291.83 202.8 255.03C204.22 253.45 207.537 250.1 212.75 244.98C216.984 240.833 220.45 237.64 223.15 235.4C256.85 207.407 295.39 192.393 338.77 190.36C356.917 189.507 375.36 191.413 394.1 196.08C426.054 204.04 454.087 219.097 478.2 241.25Z" fill="#FF7D16"/>
<path d="M689.61 224.49C693.79 229.73 692.46 235.01 688.38 239.87C683.1 246.157 677.35 252.113 671.13 257.74C665.504 257.467 660.877 257.33 657.25 257.33C648.684 257.323 640.024 258.15 631.271 259.81C600.137 265.697 573.877 280.247 552.49 303.46C552.397 303.563 552.278 303.641 552.146 303.686C552.014 303.73 551.873 303.741 551.736 303.716C551.599 303.691 551.47 303.631 551.363 303.543C551.255 303.454 551.172 303.34 551.12 303.21C547.667 294.383 543.394 285.707 538.3 277.18C536.787 274.647 535.7 272.774 535.04 271.56C534.968 271.43 534.938 271.28 534.956 271.131C534.974 270.982 535.039 270.842 535.141 270.73C537.147 268.497 538.8 266.787 540.1 265.6C566.67 241.36 600.71 227.01 636.17 222.68C640.03 222.21 644.13 222.28 648.12 221.63C648.987 221.484 650.581 221.384 652.901 221.33C665.321 221.044 677.557 222.097 689.61 224.49Z" fill="#FF6811"/>
<path d="M650.43 602.79C659.03 600.32 666.36 597.41 670.88 589.4C675.93 580.46 678.81 569.09 682.68 561.72C685.746 555.867 688.776 549.934 691.77 543.92L691.75 566.1C691.75 566.421 691.877 566.729 692.104 566.956C692.331 567.183 692.639 567.31 692.96 567.31H721.47C721.85 567.311 722.217 567.168 722.497 566.908C722.777 566.648 722.949 566.292 722.98 565.91C724.59 545.3 733.3 525.84 745.59 508.82C759.41 489.68 768.53 477.91 777.97 461.47C815.62 395.88 790.35 315.22 727.93 276.83C710.58 266.15 691.37 260.07 671.13 257.74C677.35 252.114 683.1 246.157 688.38 239.87C692.46 235.01 693.79 229.73 689.61 224.49C738.91 234.16 780.37 264.01 806.38 306.63C821.82 331.91 830.65 361.1 831.71 390.73C831.97 398.117 831.623 405.63 830.67 413.27C826.936 443.237 816.456 470.484 799.23 495.01C795.21 500.737 786.486 512.594 773.06 530.58C763.18 543.827 757.756 558.63 756.79 574.99C756 588.38 747.48 597.39 735.21 601.55C732.81 602.364 729.45 602.777 725.13 602.79C700.256 602.857 675.356 602.857 650.43 602.79Z" fill="#FF570C"/>
<path d="M555.979 662.59C552.566 678.39 545.619 692.15 535.139 703.87C526.839 713.15 516.329 723.41 507.499 733.87C501.359 741.14 494.809 749.54 488.249 755.81C479.219 764.44 470.569 769.98 458.049 778.49C448.219 785.18 440.419 791.37 429.649 799.67C426.722 801.93 422.152 804.61 415.939 807.71C407.532 808.57 399.509 810.867 391.869 814.6C390.342 815.347 388.096 817.527 385.129 821.14C375.849 832.45 368.269 842.24 356.969 851.17C334.589 868.84 305.799 877.12 277.359 872.71C245.839 867.83 218.559 849.4 202.729 821.55C200.009 816.77 200.669 809.53 206.019 806.92C207.032 806.427 208.886 806.18 211.579 806.18C243.619 806.213 267.266 806.223 282.519 806.21C284.606 806.21 286.189 805.563 287.269 804.27C289.209 801.957 290.482 800.403 291.089 799.61C298.429 790.063 308.262 776.56 320.589 759.1C323.619 754.82 322.339 752.32 319.379 748.2C315.292 742.5 311.236 736.78 307.209 731.04C322.029 721.71 333.609 710.77 347.509 697.9C355.859 690.17 364.849 683.3 368.749 672.05C374.679 679.44 380.439 687.87 387.719 697.53C389.012 699.243 390.569 700.6 392.389 701.6C400.689 706.15 411.749 711.26 421.249 711.27C459.082 711.337 484.016 711.33 496.049 711.25C497.309 711.243 498.349 711.2 499.169 711.12C499.286 711.108 499.399 711.066 499.495 710.998C499.592 710.93 499.67 710.839 499.721 710.733C499.772 710.626 499.795 710.509 499.788 710.391C499.78 710.273 499.743 710.159 499.679 710.06C469.592 663.407 439.566 616.85 409.599 570.39C408.652 568.917 407.422 568.4 405.909 568.84C397.602 571.26 389.076 573.28 380.329 574.9C381.209 565.607 380.516 556.847 378.249 548.62C376.962 543.96 374.349 539.74 370.409 535.96C376.616 534.793 380.579 534.007 382.299 533.6C412.429 526.43 439.479 509.46 460.309 486.59C491.169 452.71 504.789 407.96 499.029 362.49C495.202 332.27 483.156 305.433 462.889 281.98C473.009 269.95 475.779 256.59 478.199 241.25C514.426 274.837 534.832 316.35 539.419 365.79C539.899 371.01 539.929 380.42 539.509 394.02C539.276 401.64 538.096 410.77 535.969 421.41C528.859 456.89 511.309 489.7 486.889 515.92C482.342 520.8 477.212 525.973 471.499 531.44C471.286 531.645 471.152 531.919 471.119 532.213C471.086 532.507 471.157 532.803 471.319 533.05L555.979 662.59Z" fill="#FF6811"/>
<path d="M691.771 543.92C688.777 549.933 685.747 555.867 682.681 561.72C678.811 569.09 675.931 580.46 670.881 589.4C666.361 597.41 659.031 600.32 650.431 602.79C635.657 602.87 620.864 602.84 606.051 602.7C601.384 602.66 598.061 602.224 596.081 601.39C589.701 598.72 582.701 592.96 582.231 585.66C581.904 580.633 583.037 576.23 585.631 572.45C588.441 568.35 594.861 567.31 599.471 567.3C608.751 567.273 615.357 567.273 619.291 567.3C619.414 567.301 619.536 567.278 619.65 567.232C619.764 567.186 619.867 567.118 619.955 567.031C620.042 566.945 620.112 566.842 620.159 566.728C620.206 566.615 620.231 566.493 620.231 566.37C620.171 537.423 620.174 503.72 620.241 465.26C620.247 462.147 619.604 459.94 618.311 458.64C613.431 453.754 609.811 449.99 607.451 447.35C599.141 438.07 587.151 424.23 594.621 411.46C596.481 408.287 598.957 405.89 602.051 404.27C623.491 393.05 639.251 418.01 648.391 433.13C648.744 433.704 649.614 434.297 651.001 434.91C651.324 435.055 651.674 435.137 652.031 435.15C658.891 435.42 663.561 436.47 666.701 430.92C671.334 422.727 676.867 415.444 683.301 409.07C684.621 407.764 686.581 406.347 689.181 404.82C695.331 401.2 701.731 400.4 708.521 402.98C716.371 405.96 722.801 413.89 721.171 422.68C719.931 429.39 715.791 435.87 710.511 441.79C705.711 447.184 700.491 452.62 694.851 458.1C692.411 460.47 692.711 462.88 692.701 466.83C692.614 492.563 692.304 518.26 691.771 543.92ZM664.211 464.86C664.211 464.568 664.095 464.289 663.888 464.082C663.682 463.876 663.402 463.76 663.111 463.76H649.751C649.459 463.76 649.179 463.876 648.973 464.082C648.766 464.289 648.651 464.568 648.651 464.86V566.16C648.651 566.452 648.766 566.732 648.973 566.938C649.179 567.144 649.459 567.26 649.751 567.26H663.111C663.402 567.26 663.682 567.144 663.888 566.938C664.095 566.732 664.211 566.452 664.211 566.16V464.86Z" fill="#FF6811"/>
<path d="M629.72 661.56C629.64 661.354 629.5 661.176 629.318 661.049C629.137 660.923 628.921 660.853 628.7 660.85C621.65 660.71 614.28 659.85 607.61 656.88C597.22 652.27 592.68 639.74 598.88 629.78C601.4 625.727 604.853 623.09 609.24 621.87C610.833 621.423 615.213 621.2 622.38 621.2C683.666 621.174 718.203 621.174 725.99 621.2C729.063 621.214 732.04 622.274 734.92 624.38C740.346 628.347 743.183 633.927 743.43 641.12C743.443 641.452 743.416 641.788 743.35 642.12C741.763 650.127 737.11 655.734 729.39 658.94C728.883 659.153 727.216 659.557 724.39 660.15C719.47 661.2 714.75 660.77 708.89 660.85C708.556 660.853 708.23 660.952 707.95 661.137C707.67 661.321 707.448 661.583 707.31 661.89C706.923 662.75 705.953 664.867 704.4 668.24C700.59 676.51 694.09 680.09 684.91 679.79C684.796 679.783 673.16 679.787 650 679.8C646.1 679.8 642.186 678.5 638.26 675.9C633.79 672.93 631.45 666.01 629.72 661.56Z" fill="#FF570C"/>
<path d="M368.75 672.05C364.85 683.3 355.86 690.17 347.51 697.9C333.61 710.77 322.03 721.71 307.21 731.04C301.324 722.28 295.047 713.807 288.38 705.62C287.54 704.587 286.527 703.863 285.34 703.45C284.594 703.19 283.35 703.077 281.61 703.11C261.877 703.497 239.55 703.607 214.63 703.44C209.824 703.407 206.67 702.92 205.17 701.98C199.3 698.3 199.75 692.06 202.77 686.23C216.54 659.56 241.66 640.71 271.29 635.09C297.95 630.03 322.494 634.95 344.92 649.85C354.194 656.01 362.137 663.41 368.75 672.05Z" fill="#FF7D16"/>
<path d="M415.939 807.71C422.153 804.61 426.723 801.93 429.649 799.67C440.419 791.37 448.219 785.18 458.049 778.49C470.569 769.98 479.219 764.44 488.249 755.81C494.809 749.54 501.359 741.14 507.499 733.87C516.329 723.41 526.839 713.15 535.139 703.87C545.619 692.15 552.566 678.39 555.979 662.59L587.029 710.12C587.269 710.485 587.595 710.785 587.977 710.993C588.36 711.201 588.786 711.31 589.219 711.31C647.239 711.316 709.663 711.276 776.489 711.19C807.509 711.15 831.399 736.47 832.719 767.06C833.499 785.1 823.649 803.41 809.839 814.29C803.386 819.37 796.776 823.016 790.009 825.23C777.349 829.36 762.229 827.89 748.959 823.5C730.129 817.27 714.719 812.05 697.639 808.77C693.819 808.036 687.376 807.67 678.309 807.67C590.863 807.696 503.406 807.71 415.939 807.71ZM794.489 768.74C794.489 765.744 793.899 762.778 792.753 760.011C791.607 757.243 789.927 754.729 787.809 752.611C785.69 750.493 783.176 748.812 780.408 747.666C777.641 746.52 774.675 745.93 771.679 745.93C765.63 745.93 759.828 748.333 755.55 752.611C751.273 756.888 748.869 762.69 748.869 768.74C748.869 774.789 751.273 780.591 755.55 784.869C759.828 789.147 765.63 791.55 771.679 791.55C774.675 791.55 777.641 790.96 780.408 789.814C783.176 788.667 785.69 786.987 787.809 784.869C789.927 782.751 791.607 780.236 792.753 777.469C793.899 774.701 794.489 771.735 794.489 768.74Z" fill="#FF570C"/>
</svg>
