<svg width="1024" height="1024" viewBox="0 0 1024 1024" fill="none" xmlns="http://www.w3.org/2000/svg">
<path d="M537.291 797.73C537.511 795.89 537.648 794.087 537.701 792.32C538.014 782.314 538.331 772.134 538.651 761.78C538.911 753.71 539.941 745.37 540.401 739.39C541.201 729.037 544.808 720.24 551.221 713C561.521 701.38 574.571 700.81 589.111 701.79C598.398 702.417 606.018 703.027 611.971 703.62C622.578 704.68 633.928 704.977 646.021 704.51C653.781 704.21 659.051 703.484 661.831 702.33C667.164 700.13 671.488 697.007 674.801 692.96C677.121 690.12 678.261 686.36 678.221 681.68C678.101 668.574 677.948 658.517 677.761 651.51C677.601 645.78 678.021 636.81 680.961 631.22C682.648 628.014 685.148 625.407 688.461 623.4" stroke="#FE6604" stroke-width="2"/>
<path d="M688.46 623.4C687.266 609.074 687.136 595.137 688.07 581.59C688.236 579.124 688.593 577.3 689.14 576.12C691.8 570.36 693.58 565.5 700.86 564.57C709.966 563.417 719.676 562.727 729.99 562.5C732.9 562.44 737.67 561.83 738.07 558.32C738.33 556.027 737.823 553.737 736.55 551.45C731.44 542.22 724.94 532.98 720.39 524.78C714.9 514.9 708.07 503.89 702.07 494.27C700.97 492.504 698.17 487.45 693.67 479.11C690.87 473.924 687.983 468.784 685.01 463.69" stroke="#FE6C07" stroke-width="2"/>
<path d="M685.01 463.69C678.61 451.98 678.68 441.14 679.79 427.51C680.17 422.837 680.197 415.677 679.87 406.03C679.717 401.37 678.654 393.263 676.68 381.71C675.52 374.93 672.82 366.68 670.68 360.06C665.18 342.95 655.7 326.65 643.95 311.97C630.56 295.22 613.83 282.57 595.03 271.95C577.36 261.97 558.01 255.97 537.93 252.59C513.924 248.537 490.024 247.76 466.23 250.26" stroke="#FE720A" stroke-width="2"/>
<path d="M466.23 250.26L443.42 213.97" stroke="#FC5601" stroke-width="2"/>
<path d="M685.011 463.69C679.291 463.35 674.164 462.58 669.631 461.38C661.521 459.23 656.771 458.02 649.731 457.18C642.081 456.27 636.641 456.26 633.201 449.01" stroke="#FF8210" stroke-width="2"/>
<path d="M385.061 359.84L314.641 337.95" stroke="#FF8210" stroke-width="2"/>
<path d="M557.23 547.31C561.09 558.57 572.8 563.43 583.68 567.62C602.434 574.833 621.74 581.897 641.6 588.81C649.334 591.503 656.267 594.853 662.401 598.86C665.301 600.753 669.757 604.717 675.771 610.75C679.784 614.77 684.014 618.987 688.461 623.4" stroke="#FF750A" stroke-width="2"/>
<path d="M466.231 250.26C446.897 252.487 428.061 256.77 409.721 263.11C404.181 265.03 397.821 267.9 393.461 269.76C389.214 271.567 385.267 273.48 381.621 275.5C360.687 287.1 342.884 301.67 328.211 319.21C324.084 324.144 319.561 330.39 314.641 337.95" stroke="#FD6C0A" stroke-width="2"/>
<path d="M314.641 337.95C312.094 341.69 309.767 345.604 307.661 349.69C304.441 355.937 302.371 360.09 301.451 362.15C300.257 364.83 298.104 370.334 294.991 378.66C292.671 384.87 290.731 392.67 288.981 399.23C287.567 404.53 286.481 411.69 285.721 420.71" stroke="#FD6507" stroke-width="2"/>
<path d="M285.72 420.71C283.86 436.81 284.44 452.51 287.97 468.51C289.53 475.55 290.984 481.62 292.33 486.72C296.864 503.827 304.2 520.147 314.34 535.68C322.91 548.82 332.63 561.97 340.19 575.94C346.12 586.88 351.29 596.56 355.2 607.66C358.034 615.707 359.464 619.77 359.49 619.85C361.817 626.73 363.544 633.387 364.67 639.82C365.97 647.25 367.77 655.85 368.29 664.07C368.997 675.143 369.35 680.75 369.35 680.89C369.74 690.92 368.38 699.7 368.19 708.91C368 718.4 366.39 725.89 364.92 736.84C364.24 741.89 362.98 746.12 362.15 750.81C361.717 753.25 360.86 756.703 359.58 761.17C356.074 773.423 352.947 785.813 350.2 798.34" stroke="#FD5F04" stroke-width="2"/>
<path d="M385.331 422.23C368.071 428.2 351.751 431.19 333.671 427.47C328.424 426.397 323.201 425.233 318.001 423.98C307.721 421.5 296.631 421.36 285.721 420.71" stroke="#FF750A" stroke-width="2"/>
<path d="M177.37 179.79C177.151 179.851 176.958 179.981 176.82 180.16C176.683 180.339 176.609 180.557 176.61 180.78C176.53 210.6 176.526 243.153 176.6 278.44C176.606 282.833 176.3 285.853 175.68 287.5C172.78 295.16 165.36 300.19 157.03 299.9C153.963 299.793 151.596 299.293 149.93 298.4C145.33 295.933 142.1 292.577 140.24 288.33C139.246 286.063 138.756 281.95 138.77 275.99C138.81 257.417 138.816 221.283 138.79 167.59C138.783 161.857 139.146 157.84 139.88 155.54C142.83 146.27 150.84 141.1 160.52 141.13C186.313 141.21 225.81 141.223 279.01 141.17C285.84 141.16 292.56 145.8 295.46 152.24C299.76 161.81 296.17 173.29 286.54 178.29C282.52 180.38 276.05 179.77 270.75 179.77C220.756 179.777 190.013 179.753 178.52 179.7C178 179.693 177.616 179.723 177.37 179.79Z" fill="#FB4F00"/>
<path d="M842.16 180.56C842.097 180.341 841.965 180.148 841.782 180.011C841.6 179.874 841.378 179.8 841.15 179.8C793.304 179.74 760.223 179.74 741.91 179.8C737.23 179.813 733.7 179.323 731.32 178.33C715.81 171.84 716.17 148.87 731.32 142.53C733.493 141.623 737.193 141.173 742.42 141.18C780.373 141.273 819.547 141.28 859.94 141.2C869.93 141.18 878.34 148.83 880.73 158.1C881.077 159.446 881.24 164.226 881.22 172.44C881.107 213.12 881.113 247.306 881.24 275C881.25 277.96 881.42 282.15 880.47 284.92C877.91 292.453 873.16 297.236 866.22 299.27C861.993 300.51 857.753 300.08 853.5 297.98C848.18 295.35 842.3 289.34 842.3 283.01C842.34 223.183 842.34 189.43 842.3 181.75C842.3 181.263 842.253 180.866 842.16 180.56Z" fill="#FD5C01"/>
<path d="M537.29 797.73C537.51 795.89 537.647 794.087 537.7 792.32C538.013 782.313 538.33 772.133 538.65 761.78C538.91 753.71 539.94 745.37 540.4 739.39C541.2 729.037 544.807 720.24 551.22 713C561.52 701.38 574.57 700.81 589.11 701.79C598.397 702.417 606.017 703.027 611.97 703.62C622.577 704.68 633.927 704.977 646.02 704.51C653.78 704.21 659.05 703.483 661.83 702.33C667.163 700.13 671.487 697.007 674.8 692.96C677.12 690.12 678.26 686.36 678.22 681.68C678.1 668.573 677.947 658.517 677.76 651.51C677.6 645.78 678.02 636.81 680.96 631.22C682.647 628.013 685.147 625.407 688.46 623.4C687.267 609.073 687.137 595.137 688.07 581.59C688.237 579.123 688.593 577.3 689.14 576.12C691.8 570.36 693.58 565.5 700.86 564.57C709.967 563.417 719.677 562.727 729.99 562.5C732.9 562.44 737.67 561.83 738.07 558.32C738.33 556.027 737.823 553.737 736.55 551.45C731.44 542.22 724.94 532.98 720.39 524.78C714.9 514.9 708.07 503.89 702.07 494.27C700.97 492.503 698.17 487.45 693.67 479.11C690.87 473.923 687.983 468.783 685.01 463.69C678.61 451.98 678.68 441.14 679.79 427.51C680.17 422.837 680.197 415.677 679.87 406.03C679.717 401.37 678.653 393.263 676.68 381.71C675.52 374.93 672.82 366.68 670.68 360.06C665.18 342.95 655.7 326.65 643.95 311.97C630.56 295.22 613.83 282.57 595.03 271.95C577.36 261.97 558.01 255.97 537.93 252.59C513.923 248.537 490.023 247.76 466.23 250.26L443.42 213.97C456.287 211.757 471.397 210.53 488.75 210.29C510.037 210.003 529.22 211.363 546.3 214.37C587.09 221.54 625.56 238.81 656.1 266.87C671.233 280.763 683.867 296.697 694 314.67C706.893 337.53 715.027 362.477 718.4 389.51C719.273 396.537 719.73 403.57 719.77 410.61C719.79 415.943 719.697 422.99 719.49 431.75C719.297 439.697 720.283 446.7 722.45 452.76C723.33 455.22 725.407 459.09 728.68 464.37C732.78 470.983 746.41 493.707 769.57 532.54C774.743 541.22 777.703 547.177 778.45 550.41C779.87 556.543 779.87 562.723 778.45 568.95C775.02 583.99 762.66 595.04 747.84 598.96C744.01 599.97 738.15 600.2 734.5 600.49C726.02 601.16 727.27 609.16 728.28 615.39C729.42 622.377 728.523 628.917 725.59 635.01C724.1 638.1 720.82 642.07 718.99 644.21C718.609 644.663 718.341 645.202 718.21 645.78C717.563 648.74 717.447 651.227 717.86 653.24C720.54 666.333 720.353 679.293 717.3 692.12C710.62 720.17 686.5 740.66 657.96 744.21C651.29 745.04 644.82 745.69 637.67 745.09C628.703 744.337 623.063 743.92 620.75 743.84C613.53 743.587 605.627 743.026 597.04 742.16C592.087 741.66 588.72 741.7 586.94 742.28C576.72 745.61 577.85 754.11 577.99 765.27C578.043 769.577 578.057 774.57 578.03 780.25C577.98 787.54 575.24 794.09 568.26 796.84C566.787 797.42 563.587 797.717 558.66 797.73C551.533 797.743 544.41 797.743 537.29 797.73Z" fill="#FD5C01"/>
<path d="M443.42 213.97L466.23 250.26C446.897 252.487 428.06 256.77 409.72 263.11C404.18 265.03 397.82 267.9 393.46 269.76C389.213 271.567 385.267 273.48 381.62 275.5C360.687 287.1 342.883 301.67 328.21 319.21C324.083 324.144 319.56 330.39 314.64 337.95C312.093 341.69 309.767 345.604 307.66 349.69C304.44 355.937 302.37 360.09 301.45 362.15C300.257 364.83 298.103 370.334 294.99 378.66C292.67 384.87 290.73 392.67 288.98 399.23C287.567 404.53 286.48 411.69 285.72 420.71C283.86 436.81 284.44 452.51 287.97 468.51C289.53 475.55 290.983 481.62 292.33 486.72C296.863 503.827 304.2 520.147 314.34 535.68C322.91 548.82 332.63 561.97 340.19 575.94C346.12 586.88 351.29 596.56 355.2 607.66C358.033 615.707 359.463 619.77 359.49 619.85C361.817 626.73 363.543 633.387 364.67 639.82C365.97 647.25 367.77 655.85 368.29 664.07C368.997 675.144 369.35 680.75 369.35 680.89C369.74 690.92 368.38 699.7 368.19 708.91C368 718.4 366.39 725.89 364.92 736.84C364.24 741.89 362.98 746.12 362.15 750.81C361.717 753.25 360.86 756.703 359.58 761.17C356.073 773.424 352.947 785.814 350.2 798.34C344.867 798.847 339.63 798.83 334.49 798.29C321.35 796.92 315.3 785.87 317.83 773.54C318.05 772.467 319.687 765.624 322.74 753.01C325.807 740.297 328.013 727.06 329.36 713.3C329.887 707.907 330.187 703.7 330.26 700.68C330.407 694.567 330.573 690.344 330.76 688.01C331.34 680.6 330.56 674.47 330.36 667.16C330.293 664.754 330.007 661.98 329.5 658.84C327.347 645.447 324.057 633.194 319.63 622.08C313.603 606.954 306.273 592.624 297.64 579.09C296.94 577.99 290.793 568.487 279.2 550.58C267.833 533 259.267 513.324 253.5 491.55C244.913 459.104 244.09 426.51 251.03 393.77C266.01 323.13 313.18 262.2 379.55 232.83C400.097 223.737 421.387 217.45 443.42 213.97Z" fill="#FB4F00"/>
<path d="M685.011 463.69C679.291 463.35 674.164 462.58 669.631 461.38C661.521 459.23 656.771 458.02 649.731 457.18C642.081 456.27 636.641 456.26 633.201 449.01C631.894 439.204 627.621 431.224 620.381 425.07C609.871 416.14 599.961 419.09 589.061 426.1C588.034 426.76 586.987 427.34 585.921 427.84C581.651 429.84 577.281 427.78 577.281 423C577.261 386.76 577.221 366.587 577.161 362.48C577.101 358.42 574.834 356.42 570.361 356.48C549.427 356.754 530.904 356.774 514.791 356.54C509.811 356.47 508.601 351.87 511.181 348.11C519.041 336.663 520.297 325.234 514.951 313.82C510.101 303.48 499.781 294.74 488.371 292.98C474.677 290.867 463.244 294.69 454.071 304.45C447.304 311.657 444.194 320.23 444.741 330.17C445.091 336.48 447.831 342.03 451.521 347.25C453.561 350.14 455.121 353.81 451.361 355.76C450.127 356.407 448.951 356.72 447.831 356.7C429.617 356.454 411.317 356.69 392.931 357.41C390.631 357.497 388.007 358.307 385.061 359.84L314.641 337.95C319.561 330.39 324.084 324.143 328.211 319.21C342.884 301.67 360.687 287.1 381.621 275.5C385.267 273.48 389.214 271.567 393.461 269.76C397.821 267.9 404.181 265.03 409.721 263.11C428.061 256.77 446.897 252.487 466.231 250.26C490.024 247.76 513.924 248.537 537.931 252.59C558.011 255.97 577.361 261.97 595.031 271.95C613.831 282.57 630.561 295.22 643.951 311.97C655.701 326.65 665.181 342.95 670.681 360.06C672.821 366.68 675.521 374.93 676.681 381.71C678.654 393.263 679.717 401.37 679.871 406.03C680.197 415.677 680.171 422.837 679.791 427.51C678.681 441.14 678.611 451.98 685.011 463.69Z" fill="#FF8813"/>
<path d="M385.061 359.84C384.581 378.34 384.424 396.727 384.591 415C384.604 416.214 384.851 418.624 385.331 422.23C368.071 428.2 351.751 431.19 333.671 427.47C328.424 426.397 323.201 425.234 318.001 423.98C307.721 421.5 296.631 421.36 285.721 420.71C286.481 411.69 287.567 404.53 288.981 399.23C290.731 392.67 292.671 384.87 294.991 378.66C298.104 370.334 300.257 364.83 301.451 362.15C302.371 360.09 304.441 355.937 307.661 349.69C309.767 345.604 312.094 341.69 314.641 337.95L385.061 359.84Z" fill="#FF7B0D"/>
<path d="M385.33 422.23C385.76 427.07 387.65 434.24 394.34 429.86C399.134 426.713 403.724 424.227 408.11 422.4C412.997 420.367 418.724 419.777 425.29 420.63C426.037 420.73 427.78 421.41 430.52 422.67C439.22 426.68 445.65 436.18 448.09 444.99C452.6 461.29 446.66 477.31 431.42 485.33C425.56 488.41 416.82 488.59 410.43 486.31C406.584 484.937 402.724 482.96 398.85 480.38C396.94 479.11 394.62 476.76 392.64 476.51C387.81 475.91 386.28 480.56 385.76 484.51C385.354 487.577 385.06 491.01 384.88 494.81C384.62 500.337 384.53 514.963 384.61 538.69C384.62 543.07 385.89 547.34 390.75 547.33C446.23 547.29 501.724 547.283 557.23 547.31C561.09 558.57 572.8 563.43 583.68 567.62C602.434 574.833 621.74 581.897 641.6 588.81C649.334 591.503 656.267 594.853 662.4 598.86C665.3 600.753 669.757 604.717 675.77 610.75C679.784 614.77 684.014 618.987 688.46 623.4C685.147 625.407 682.647 628.013 680.96 631.22C678.02 636.81 677.6 645.78 677.76 651.51C677.947 658.517 678.1 668.573 678.22 681.68C678.26 686.36 677.12 690.12 674.8 692.96C671.487 697.007 667.164 700.13 661.83 702.33C659.05 703.483 653.78 704.21 646.02 704.51C633.927 704.977 622.577 704.68 611.97 703.62C606.017 703.027 598.397 702.417 589.11 701.79C574.57 700.81 561.52 701.38 551.22 713C544.807 720.24 541.2 729.037 540.4 739.39C539.94 745.37 538.91 753.71 538.65 761.78C538.33 772.133 538.014 782.313 537.7 792.32C537.647 794.087 537.51 795.89 537.29 797.73C482.53 797.783 427.767 797.8 373 797.78C363.754 797.773 356.154 797.96 350.2 798.34C352.947 785.813 356.074 773.423 359.58 761.17C360.86 756.703 361.717 753.25 362.15 750.81C362.98 746.12 364.24 741.89 364.92 736.84C366.39 725.89 368 718.4 368.19 708.91C368.38 699.7 369.74 690.92 369.35 680.89C369.35 680.75 368.997 675.143 368.29 664.07C367.77 655.85 365.97 647.25 364.67 639.82C363.544 633.387 361.817 626.73 359.49 619.85C359.464 619.77 358.034 615.706 355.2 607.66C351.29 596.56 346.12 586.88 340.19 575.94C332.63 561.97 322.91 548.82 314.34 535.68C304.2 520.147 296.864 503.827 292.33 486.72C290.984 481.62 289.53 475.55 287.97 468.51C284.44 452.51 283.86 436.81 285.72 420.71C296.63 421.36 307.72 421.5 318 423.98C323.2 425.233 328.424 426.397 333.67 427.47C351.75 431.19 368.07 428.2 385.33 422.23Z" fill="#FF6F07"/>
<path d="M685.01 463.69C687.984 468.783 690.87 473.923 693.67 479.11C698.17 487.45 700.97 492.503 702.07 494.27C708.07 503.89 714.9 514.9 720.391 524.78C724.941 532.98 731.44 542.22 736.55 551.45C737.824 553.736 738.33 556.026 738.07 558.32C737.671 561.83 732.9 562.44 729.99 562.5C719.677 562.726 709.967 563.416 700.86 564.57C693.58 565.5 691.801 570.36 689.141 576.12C688.594 577.3 688.237 579.123 688.07 581.59C687.137 595.136 687.267 609.073 688.461 623.4C684.014 618.986 679.784 614.77 675.771 610.75C669.757 604.716 665.301 600.753 662.401 598.86C656.267 594.853 649.334 591.503 641.6 588.81C621.74 581.896 602.434 574.833 583.68 567.62C572.8 563.43 561.09 558.57 557.23 547.31C564.257 547.436 568.864 547.366 571.05 547.1C573.357 546.826 575.184 545.573 576.531 543.34C577.224 542.18 577.504 539.906 577.37 536.52C577.07 528.88 577.36 512.48 576.75 500.52C576.4 493.81 575.001 482.72 580.031 480C582.321 478.76 584.68 479.4 586.87 480.88C593.06 485.1 597.33 488.13 604.76 488.8C609.787 489.253 614.387 487.926 618.56 484.82C628.28 477.573 633.18 467.8 633.26 455.5C633.274 453.426 633.254 451.263 633.201 449.01C636.641 456.26 642.08 456.27 649.73 457.18C656.77 458.02 661.52 459.23 669.63 461.38C674.164 462.58 679.29 463.35 685.01 463.69Z" fill="#FF7B0D"/>
<path d="M841.3 839.39C841.571 839.327 841.812 839.173 841.985 838.956C842.157 838.738 842.251 838.468 842.25 838.19L842.29 738C842.29 737.86 842.307 737.719 842.341 737.58C844.951 726.39 856.081 718.35 867.65 721.82C873.957 723.706 878.251 728.2 880.531 735.3C881.471 738.23 881.12 742.23 881.13 745.54C881.224 799.16 881.204 836.066 881.07 856.26C881 867.95 872.24 878.04 860.24 878.03C818.48 877.963 777.264 877.92 736.591 877.9C732.724 877.9 728.874 876.146 725.04 872.64C720.17 868.18 718.55 860.84 720.1 854.38C721.72 847.66 725.56 843.17 731.62 840.91C734.187 839.95 738.11 839.48 743.39 839.5C752.237 839.533 784.524 839.536 840.25 839.51C840.61 839.51 840.96 839.47 841.3 839.39Z" fill="#FD5C01"/>
<path d="M177.42 839.21C178.673 839.49 180.367 839.62 182.5 839.6C195.92 839.507 226.163 839.463 273.23 839.47C279.25 839.47 283.477 839.983 285.91 841.01C297.56 845.9 301.13 861.44 292.59 871.36C288.73 875.847 283.537 878.077 277.01 878.05C234.15 877.87 196.877 877.867 165.19 878.04C158.81 878.073 154.43 877.617 152.05 876.67C145.817 874.197 141.667 869.467 139.6 862.48C138.967 860.34 138.643 856.93 138.63 852.25C138.61 844.35 138.633 808.35 138.7 744.25C138.7 742.16 138.59 737.76 139.34 735.26C142 726.39 148.94 721.01 158.8 721.21C163.54 721.31 167.683 723.26 171.23 727.06C175.58 731.73 176.6 735.6 176.59 742.52C176.577 761.607 176.597 793.517 176.65 838.25C176.649 838.474 176.725 838.691 176.865 838.866C177.006 839.041 177.201 839.162 177.42 839.21Z" fill="#FB4F00"/>
</svg>
