<svg width="1024" height="1024" viewBox="0 0 1024 1024" fill="none" xmlns="http://www.w3.org/2000/svg">
<path d="M506.96 573.5C499.43 561.78 495.01 550.62 496.84 536.31" stroke="#FF7105" stroke-width="2"/>
<path d="M358.9 309.76C371.84 300.7 379.06 288.72 383.92 274.05" stroke="#FF7105" stroke-width="2"/>
<path d="M697.31 672.22C693.35 660.89 691.66 651 699.18 640.45" stroke="#FF8900" stroke-width="2"/>
<path d="M742.651 588.81C744.701 577.84 743.891 568.72 735.781 560.23" stroke="#FF9000" stroke-width="2"/>
<path d="M606.041 761.89L603.231 761.56C603.092 761.544 602.964 761.479 602.867 761.377C602.77 761.275 602.712 761.142 602.701 761L600.451 730.29" stroke="#FF7805" stroke-width="2"/>
<path d="M397.563 153.451L396.683 153.449C389.431 153.437 383.542 159.305 383.53 166.556L383.428 224.716C383.416 231.968 389.284 237.856 396.535 237.869L397.415 237.871C404.667 237.883 410.556 232.015 410.568 224.764L410.67 166.604C410.682 159.352 404.814 153.463 397.563 153.451Z" fill="#FF7800"/>
<path d="M298.545 248.653L259.445 209.688C254.746 205.006 247.142 205.02 242.46 209.718L239.905 212.282C235.223 216.981 235.236 224.585 239.934 229.267L279.035 268.231C283.733 272.913 291.337 272.9 296.019 268.201L298.575 265.637C303.257 260.939 303.243 253.335 298.545 248.653Z" fill="#FF690A"/>
<path d="M535.272 209.752L495.451 249.296C490.717 253.997 490.69 261.645 495.391 266.379L497.406 268.409C502.107 273.143 509.756 273.169 514.49 268.468L554.311 228.924C559.045 224.223 559.072 216.575 554.37 211.841L552.355 209.811C547.654 205.077 540.006 205.051 535.272 209.752Z" fill="#FF8700"/>
<path d="M506.96 573.5C499.43 561.78 495.01 550.62 496.84 536.31C504.987 527.703 512.22 518.21 518.54 507.83C520.514 504.59 522.24 501.133 523.72 497.46C529.34 483.45 533.51 468.94 534.28 453.74C534.67 446.18 534.56 435.65 534.55 429.73C534.55 420.31 531.66 408.63 528.87 399.37C522.66 378.72 509.86 359.95 494.76 343.97C476.11 324.25 448.73 312.49 423.05 306.24C412.91 303.77 404.32 303.78 392.62 303.77C380.23 303.75 370.2 307 358.9 309.76C371.84 300.7 379.06 288.72 383.92 274.05C396.487 272.65 408.94 272.917 421.28 274.85C433.28 276.73 446.1 280.91 458.83 284.7C468.46 287.56 476.83 292.73 486.23 299.03C493.677 304.03 500.714 309.163 507.34 314.43C511.41 317.67 517 323.08 520.8 327.62C530.367 339.08 537.194 348.047 541.28 354.52C552.347 372.04 559.64 391.043 563.16 411.53C564.227 417.737 565.074 425.727 565.7 435.5C566.334 445.4 565.71 455.157 563.83 464.77C561.97 474.297 560.244 482.763 558.65 490.17C557.89 493.683 556.614 497.327 554.82 501.1C550.73 509.72 546.99 519.32 541.55 528.53C537.45 535.48 533.45 539.98 526.9 548.41C521.84 554.91 513.15 564.72 506.96 573.5Z" fill="#FF7800"/>
<path d="M383.921 274.05C379.061 288.72 371.841 300.7 358.901 309.76C357.267 310.313 353.927 311.347 348.881 312.86C343.967 314.327 338.727 316.6 333.161 319.68C317.761 328.2 303.061 338.78 291.691 352.49C281.257 365.07 273.264 379.35 267.711 395.33C263.801 406.62 260.731 418.69 260.361 430.75C259.881 446.23 260.781 460.9 264.431 474.91C269.991 496.297 279.971 515.257 294.371 531.79C295.304 532.863 298.324 536.13 303.431 541.59C320.444 559.777 330.261 581.503 332.881 606.77C333.841 616.06 333.071 625.59 333.821 634.89C333.856 635.301 334.045 635.685 334.35 635.964C334.656 636.244 335.055 636.399 335.471 636.4H459.991C460.277 636.399 460.553 636.292 460.765 636.1C460.977 635.908 461.111 635.645 461.141 635.36C461.431 632.64 462.051 629.92 462.101 627.17C462.207 620.543 462.307 616.073 462.401 613.76C463.407 588.62 471.997 566.157 488.171 546.37C490.851 543.09 493.741 539.737 496.841 536.31C495.011 550.62 499.431 561.78 506.961 573.5C501.721 580.26 498.067 587.02 496.001 593.78C495.274 596.147 494.474 600.177 493.601 605.87C492.031 616.14 493.791 629.03 492.251 637.73C491.581 641.49 491.421 643.89 490.141 646.89C487.721 652.583 485.124 656.813 482.351 659.58C480.744 661.187 478.111 662.62 474.451 663.88C472.717 664.48 469.717 664.78 465.451 664.78C375.571 664.733 330.357 664.717 329.811 664.73C325.524 664.85 322.284 664.427 320.091 663.46C311.001 659.45 307.491 653.01 304.751 643.79C304.131 641.703 303.847 638.153 303.901 633.14C303.954 627.653 303.614 620.437 302.881 611.49C302.227 603.523 301.061 597.107 299.381 592.24C295.221 580.23 289.231 570.79 281.091 561.47C277.384 557.223 272.744 552.097 267.171 546.09C260.271 538.65 254.791 528.28 248.071 516.43C236.411 495.837 230.384 473.69 229.991 449.99C229.791 437.67 229.621 425.05 231.561 413.01C235.801 386.8 246.221 362.43 262.481 341.54C270.271 331.54 276.851 322.46 287.081 314.62C301.511 303.58 311.631 295.74 325.961 289.47C332.741 286.497 342.684 282.867 355.791 278.58C365.277 275.473 374.654 273.963 383.921 274.05Z" fill="#FF690A"/>
<path d="M745.05 497.84C745.094 497.762 745.116 497.674 745.115 497.584C745.114 497.495 745.09 497.407 745.044 497.33C744.998 497.253 744.933 497.189 744.855 497.145C744.777 497.101 744.689 497.079 744.6 497.08C737.88 497.24 728.346 497.283 716 497.21C710.1 497.18 702.89 497.64 697.01 497.65C646.943 497.71 617.19 497.723 607.75 497.69C605.97 497.683 603.436 497.233 600.15 496.34C595.816 495.166 592.66 492.59 590.68 488.61C587.83 482.87 589.36 477.54 592.6 472.34C595.606 467.533 600.22 465.133 606.44 465.14C646.646 465.186 692.546 465.203 744.14 465.19C744.249 465.191 744.356 465.152 744.438 465.08C744.521 465.008 744.575 464.908 744.59 464.8C744.67 464.173 744.443 463.603 743.91 463.09C732.283 451.85 722.546 442.09 714.7 433.81C711.07 429.97 709.38 425.21 711.63 420.02C712.95 416.98 714.99 414.733 717.75 413.28C719.656 412.286 722.346 411.896 725.82 412.11C726.913 412.176 731.526 412.176 739.66 412.11C747.06 412.05 751.5 413.2 756.38 418.11C783.426 445.35 800.5 462.61 807.6 469.89C810.826 473.203 812.91 476.866 813.85 480.88C814.76 484.71 809.13 491.06 806.48 493.73C789.646 510.636 773.436 526.843 757.85 542.35C752.42 547.76 747.82 550.11 740.36 549.88C738.06 549.806 734.306 549.786 729.1 549.82C721.87 549.87 717.52 550.29 713.21 545.1C707.85 538.64 711.94 532.06 716.69 526.81C723.843 518.91 732.903 509.76 743.87 499.36C744.35 498.9 744.743 498.393 745.05 497.84Z" fill="#FF8700"/>
<path d="M697.31 672.22C693.35 660.89 691.66 651 699.18 640.45C729.753 640.31 760.443 640.29 791.25 640.39C792.596 640.39 793.67 640 794.47 639.22C801.363 632.5 806.903 626.89 811.09 622.39C811.212 622.259 811.278 622.085 811.274 621.906C811.27 621.727 811.197 621.556 811.07 621.43C809.29 619.643 805.79 616.07 800.57 610.71C799.83 609.957 797.84 607.097 794.6 602.13C790.826 596.363 785.896 592.417 779.81 590.29C777.09 589.337 772.503 588.843 766.05 588.81C758.276 588.777 750.476 588.777 742.65 588.81C744.7 577.84 743.89 568.72 735.78 560.23C743.33 560.17 750.59 560.34 757.98 559.64C760.413 559.407 762.34 559.28 763.76 559.26C775.08 559.087 787.243 559.087 800.25 559.26C807.12 559.35 810.67 561.39 815.93 566.65C841.43 592.17 858.366 609.297 866.74 618.03C875.29 626.96 869.23 633.96 861.63 641.51C855.936 647.17 840.11 663.003 814.15 689.01C809.36 693.82 806.71 695.15 799.99 695.25C792.99 695.357 786.986 695.333 781.98 695.18C775.84 694.99 769.51 690.17 770.15 683.55C770.58 679.1 773.2 675.9 776.43 673.12C776.544 673.021 776.625 672.89 776.663 672.745C776.7 672.599 776.692 672.445 776.64 672.304C776.588 672.162 776.494 672.04 776.371 671.954C776.247 671.867 776.1 671.821 775.95 671.82L697.31 672.22Z" fill="#FF9900"/>
<path d="M735.781 560.23C743.891 568.72 744.701 577.84 742.651 588.81C681.941 588.73 613.301 589.42 561.331 589.12C556.711 589.093 553.35 587.496 551.25 584.33C547.237 578.27 547.224 572.153 551.211 565.98C552.611 563.806 554.254 562.186 556.141 561.12C557.221 560.506 559.497 560.2 562.97 560.2C620.717 560.133 678.321 560.143 735.781 560.23Z" fill="#FF8700"/>
<path d="M699.181 640.45C691.661 651 693.351 660.89 697.311 672.22C643.104 672.4 588.917 672.48 534.751 672.46C529.611 672.46 525.371 671.84 522.201 667.67C520.607 665.557 519.831 662.317 519.871 657.95C519.941 651.05 521.841 644.86 528.211 641.38C529.644 640.593 532.241 640.167 536.001 640.1C542.561 639.973 567.227 640.157 610.001 640.65C622.541 640.797 652.267 640.73 699.181 640.45Z" fill="#FF7800"/>
<path d="M606.039 761.89L603.229 761.56C603.091 761.544 602.962 761.479 602.865 761.377C602.768 761.275 602.71 761.141 602.699 761L600.449 730.29C626.056 730.323 651.656 730.243 677.249 730.05C678.383 730.043 679.359 729.91 680.179 729.65C680.356 729.594 680.517 729.498 680.651 729.37C680.785 729.243 680.888 729.086 680.952 728.913C681.017 728.739 681.041 728.554 681.023 728.369C681.005 728.185 680.946 728.008 680.849 727.85C680.563 727.376 680.239 726.966 679.879 726.62C672.046 718.973 665.636 712.636 660.649 707.61C656.929 703.86 653.109 698.37 654.729 693.2C656.929 686.12 663.369 683.34 670.509 683.33C677.589 683.31 682.756 683.373 686.009 683.52C690.903 683.733 695.039 685.59 698.419 689.09C715.799 707.103 730.336 722.006 742.029 733.8C743.836 735.613 745.289 737.353 746.389 739.02C750.899 745.83 746.809 752.21 741.759 757.26C716.579 782.453 702.509 796.633 699.549 799.8C695.529 804.1 693.269 807.17 688.639 807.92C687.433 808.113 685.003 808.216 681.349 808.23C675.883 808.25 671.183 808.223 667.249 808.15C661.919 808.05 657.809 806.35 655.559 801.59C652.729 795.57 655.719 790.86 660.029 786.28C666.723 779.173 674.303 771.576 682.769 763.49C682.853 763.411 682.918 763.314 682.96 763.207C683.002 763.1 683.019 762.986 683.012 762.871C683.004 762.756 682.971 762.645 682.916 762.544C682.86 762.444 682.782 762.357 682.689 762.29C682.556 762.203 682.306 762.163 681.939 762.17C656.639 762.603 631.339 762.51 606.039 761.89Z" fill="#FF8700"/>
<path d="M350.391 776.42C349.551 776.04 347.994 775.414 345.721 774.54C327.681 767.63 314.191 751.48 314.191 731.75C314.184 715.177 314.167 706.307 314.141 705.14C314.021 700.48 314.454 697.114 315.441 695.04C318.741 688.14 324.521 685.8 332.221 686.12C332.594 686.134 335.777 686.184 341.771 686.27C342.388 686.277 343.006 686.357 343.611 686.51C350.184 688.184 357.984 689.017 367.011 689.01C404.971 688.97 427.047 688.917 433.241 688.85C436.221 688.824 441.324 688.034 448.551 686.48C449.103 686.361 449.662 686.294 450.221 686.28C460.654 686.047 466.941 686.064 469.081 686.33C469.967 686.444 471.487 687.09 473.641 688.27C479.701 691.6 480.721 696.19 480.711 703.45C480.697 718.97 480.697 727.57 480.711 729.25C480.744 734.77 480.361 739.374 479.561 743.06C476.181 758.64 462.491 770.8 447.681 775.71C446.734 776.026 445.934 776.676 445.431 777.54C441.111 785 437.741 787.02 428.761 787.04C414.221 787.074 393.821 787.07 367.561 787.03C358.371 787.01 356.111 783.73 351.261 777.12C351.038 776.812 350.737 776.571 350.391 776.42ZM448.741 720.9L346.741 720.72C346.04 720.72 345.369 720.998 344.874 721.493C344.379 721.989 344.101 722.66 344.101 723.36L344.091 726.48C344.083 732.209 346.379 737.706 350.475 741.762C354.571 745.819 360.13 748.102 365.931 748.11L429.471 748.23C432.343 748.234 435.187 747.68 437.842 746.598C440.497 745.516 442.91 743.928 444.944 741.925C446.978 739.922 448.592 737.543 449.695 734.924C450.797 732.305 451.367 729.497 451.371 726.66L451.381 723.54C451.381 722.84 451.102 722.169 450.607 721.673C450.112 721.178 449.441 720.9 448.741 720.9Z" fill="#FF690A"/>
<path d="M600.449 730.29L602.699 761C602.71 761.142 602.768 761.275 602.865 761.377C602.962 761.479 603.091 761.544 603.229 761.56L606.039 761.89C578.673 761.863 551.303 761.847 523.929 761.84C518.089 761.84 514.039 761.13 510.839 756.69C505.549 749.37 506.229 742.46 511.349 735.34C513.629 732.173 516.849 730.58 521.009 730.56C547.489 730.393 573.969 730.303 600.449 730.29Z" fill="#FF690A"/>
</svg>
