<svg width="1024" height="1024" viewBox="0 0 1024 1024" fill="none" xmlns="http://www.w3.org/2000/svg">
<path d="M598.611 202.42C593.044 199.38 588.071 197.02 583.691 195.34C550.684 182.7 517.061 180.487 482.821 188.7C457.961 194.667 435.861 205.627 416.521 221.58C408.981 227.8 404.038 232.09 401.691 234.45C390.038 246.183 379.858 259.737 371.151 275.11C362.364 290.643 356.191 306.423 352.631 322.45C348.564 340.777 347.438 359.213 349.251 377.76C350.764 393.22 354.474 408.447 360.381 423.44" stroke="#F7BB16" stroke-width="2"/>
<path d="M606.731 256.18C597.591 260.673 588.821 265.503 580.421 270.67C579.315 271.35 575.015 274.027 567.521 278.7C555.751 286.05 540.421 297.46 533.401 302.4C525.848 307.72 520.321 311.723 516.821 314.41C507.575 321.503 502.128 325.61 500.481 326.73C499.028 327.723 497.365 328.073 495.491 327.78C489.165 326.773 482.918 326.473 476.751 326.88C469.191 327.387 462.105 329.58 455.491 333.46C446.218 338.893 439.525 346.263 435.411 355.57C433.765 359.297 432.711 362.943 432.251 366.51C431.671 371.057 431.611 374.827 432.071 377.82C433.131 384.613 434.401 389.817 435.881 393.43C439.761 402.89 446.331 409.89 453.761 417.57C454.096 417.924 454.337 418.354 454.461 418.82C454.815 420.14 454.938 421.54 454.831 423.02C454.451 428.26 453.855 434.213 453.041 440.88C452.375 446.387 451.238 452.24 449.631 458.44C447.518 466.6 445.201 474 442.681 480.64C439.715 488.453 435.725 495.147 430.711 500.72C428.201 503.51 424.251 506.47 421.101 507.4C418.201 508.247 416.398 508.99 415.691 509.63" stroke="#F7BB16" stroke-width="2"/>
<path d="M656.18 364.31C637.72 366.523 619.184 368.123 600.57 369.11C593.03 369.51 584.61 370.66 578.44 371.92C559.714 375.747 545.964 378.843 537.19 381.21C533.53 382.19 531.217 382.853 530.25 383.2C529.808 383.357 529.415 383.63 529.113 383.99C528.811 384.351 528.61 384.786 528.531 385.25C525.851 400.79 513.6 417.05 498.56 422.93C493.5 424.903 487.984 426.123 482.01 426.59C481.777 426.605 481.559 426.711 481.402 426.885C481.245 427.058 481.162 427.286 481.17 427.52C481.317 433.42 481.767 438.687 482.52 443.32C483.294 448.073 484.55 453.313 486.29 459.04C490.11 471.55 494.74 480.28 502.8 490.93C505.807 494.897 509.02 498.257 512.44 501.01C522.99 509.48 533.98 515.83 546.48 522.49C556.66 527.91 567.334 532.007 578.5 534.78C579.24 534.96 579.6 535.26 579.58 535.68" stroke="#F7BB16" stroke-width="2"/>
<path d="M575.121 605.28C574.301 607.32 574.148 609.357 574.661 611.39C574.733 611.684 574.882 611.954 575.091 612.17C578.961 616.28 580.931 617.46 581.671 622.25C582.571 628.05 577.001 629.42 572.541 628.69C569.575 628.203 565.231 626.817 559.511 624.53C557.691 623.8 556.791 623.67 556.381 621.39C553.171 603.29 552.511 586.17 552.281 568.47C552.278 568.095 552.187 567.728 552.014 567.397C551.842 567.067 551.594 566.783 551.291 566.57C545.985 562.823 542.035 559.987 539.441 558.06C528.855 550.2 519.888 541.337 512.541 531.47C503.348 519.13 495.108 507.293 487.821 495.96C480.895 485.18 475.005 473.69 470.151 461.49C470.114 461.391 470.049 461.306 469.964 461.243C469.879 461.181 469.778 461.145 469.673 461.14C469.567 461.134 469.463 461.16 469.372 461.213C469.281 461.267 469.208 461.345 469.161 461.44C468.388 462.933 467.675 464.897 467.021 467.33C466.248 470.183 464.765 474.45 462.571 480.13C457.731 492.62 447.411 504.17 437.001 512.67C432.131 516.64 424.351 521.14 419.491 524.24C418.345 524.973 417.025 525.517 415.531 525.87" stroke="#F7BB16" stroke-width="2"/>
<path d="M651.261 475.33C646.831 474.48 640.211 473.77 636.231 476.22C635.564 476.633 635.124 477.59 634.911 479.09C634.889 479.265 634.901 479.442 634.948 479.612C634.994 479.782 635.073 479.941 635.181 480.08C637.734 483.387 641.008 485.933 645.001 487.72C645.148 487.785 645.309 487.811 645.47 487.797C645.631 487.783 645.786 487.729 645.921 487.64L647.191 486.79" stroke="#F7BB16" stroke-width="2"/>
<path d="M659.611 339.79C659.091 338.937 657.621 338.707 655.201 339.1C637.208 342.06 627.531 343.637 626.171 343.83C619.841 344.74 615.691 346.06 609.511 346.98C606.151 347.473 602.004 348.343 597.071 349.59C583.784 352.943 573.371 355.66 565.831 357.74C562.511 358.66 557.461 359.73 553.771 360.89C535.004 366.81 521.061 371.13 511.941 373.85C511.652 373.933 511.397 374.108 511.213 374.349C511.03 374.59 510.927 374.885 510.921 375.19C510.861 377.683 510.601 380.34 510.141 383.16C508.441 393.5 501.941 402.85 491.961 406.71C484.301 409.68 474.921 410.43 467.351 406.93C458.431 402.8 453.371 396.11 449.721 387.25C447.261 381.28 447.721 375.75 447.861 368.17C447.868 367.745 447.928 367.325 448.041 366.92C451.234 355.507 458.341 348.25 469.361 345.15C474.521 343.69 480.561 343.677 487.481 345.11C487.64 345.143 487.795 345.201 487.941 345.28L494.531 348.92C495.009 349.184 495.556 349.295 496.098 349.238C496.64 349.18 497.151 348.958 497.561 348.6C499.748 346.713 501.348 345.387 502.361 344.62C516.834 333.633 535.764 319.957 559.151 303.59C565.251 299.323 569.278 296.58 571.231 295.36C575.731 292.573 579.844 289.947 583.571 287.48C584.291 287.007 590.171 283.497 601.211 276.95C607.098 273.457 612.874 269.773 618.541 265.9" stroke="#F7BB16" stroke-width="2"/>
<path d="M658.19 753.94C654.977 755.833 651.55 756.81 647.91 756.87C617.83 757.41 589.44 757.06 555.51 757.27C533.263 757.403 511.42 757.417 489.98 757.31C439.6 757.043 402.007 757 377.2 757.18C371.673 757.22 366.717 756.457 362.33 754.89" stroke="#F7BB16" stroke-width="2"/>
<path d="M638.941 778.84C623.695 778.773 608.461 778.657 593.241 778.49C588.835 778.437 584.568 778.617 580.441 779.03" stroke="#F7BB16" stroke-width="2"/>
<path d="M536.352 778.82C514.072 778.48 496.855 778.32 484.702 778.34C483.369 778.34 481.775 778.543 479.922 778.95" stroke="#F7BB16" stroke-width="2"/>
<path d="M442.04 778.87C424.167 778.497 406.114 778.46 387.88 778.76C385.634 778.8 383.337 778.877 380.99 778.99" stroke="#F7BB16" stroke-width="2"/>
<path d="M590.191 892L605.971 892.14C606.028 892.141 606.085 892.129 606.137 892.105C606.189 892.082 606.236 892.047 606.273 892.003C606.311 891.96 606.34 891.908 606.357 891.853C606.373 891.797 606.379 891.738 606.371 891.68C606.071 889.327 605.925 887.517 605.931 886.25C606.098 854.97 606.081 825.1 605.881 796.64C605.881 796.561 605.866 796.482 605.835 796.41C605.804 796.337 605.759 796.271 605.702 796.216C605.645 796.161 605.577 796.118 605.503 796.089C605.429 796.061 605.351 796.047 605.271 796.05L590.191 796.59" stroke="#F7BB16" stroke-width="2"/>
<path d="M650.031 910.46C648.217 910.1 645.957 909.923 643.251 909.93C555.917 909.957 468.584 909.973 381.251 909.98C378.244 909.98 374.511 910.25 370.051 910.79" stroke="#F7BB16" stroke-width="2"/>
<path d="M391.141 891.76L406.871 891.91C406.968 891.911 407.064 891.893 407.154 891.857C407.243 891.82 407.325 891.766 407.394 891.697C407.463 891.628 407.517 891.546 407.555 891.456C407.592 891.365 407.611 891.268 407.611 891.17V796.96C407.611 796.862 407.592 796.765 407.554 796.675C407.516 796.584 407.461 796.502 407.391 796.433C407.321 796.364 407.238 796.31 407.147 796.274C407.056 796.237 406.959 796.219 406.861 796.22L391.121 796.33" stroke="#F7BB16" stroke-width="2"/>
<path d="M488.901 891.4C489.134 891.76 489.421 891.943 489.761 891.95C494.954 892.083 499.934 892.117 504.701 892.05C504.871 892.047 505.034 891.978 505.154 891.856C505.274 891.735 505.341 891.571 505.341 891.4V796.95C505.341 796.831 505.317 796.713 505.271 796.603C505.225 796.493 505.158 796.394 505.073 796.31C504.989 796.226 504.888 796.16 504.778 796.116C504.668 796.071 504.55 796.049 504.431 796.05L488.891 796.25" stroke="#F7BB16" stroke-width="2"/>
<path d="M469.96 374.32L471.7 375.17C471.813 375.226 471.913 375.307 471.992 375.405C472.072 375.503 472.129 375.618 472.16 375.74C473.82 382.38 475.66 387.39 482.59 387.63C495.52 388.08 498.12 360.13 479.52 364.2C474.25 365.36 471.86 368.67 469.68 373.53C469.615 373.672 469.607 373.834 469.659 373.982C469.712 374.13 469.82 374.251 469.96 374.32Z" stroke="#F7BB16" stroke-width="2"/>
<path d="M510.76 697.07C510.704 697.043 510.643 697.028 510.58 697.028C510.518 697.028 510.456 697.043 510.4 697.07L416.86 743.47C416.776 743.51 416.708 743.578 416.668 743.662C416.627 743.746 416.616 743.841 416.637 743.932C416.658 744.023 416.71 744.104 416.783 744.162C416.856 744.22 416.947 744.251 417.04 744.25H605.01C605.104 744.251 605.194 744.22 605.268 744.162C605.341 744.104 605.392 744.023 605.413 743.932C605.434 743.841 605.424 743.746 605.383 743.662C605.343 743.578 605.275 743.51 605.19 743.47L510.76 697.07Z" stroke="#F7BB16" stroke-width="2"/>
<path d="M598.611 202.42C593.044 199.38 588.071 197.02 583.691 195.34C550.684 182.7 517.061 180.487 482.821 188.7C457.961 194.667 435.861 205.627 416.521 221.58C408.981 227.8 404.038 232.09 401.691 234.45C390.038 246.183 379.858 259.737 371.151 275.11C362.364 290.643 356.191 306.423 352.631 322.45C348.564 340.777 347.438 359.213 349.251 377.76C350.764 393.22 354.474 408.447 360.381 423.44L324.331 456.45C324.22 456.551 324.091 456.629 323.949 456.679C323.808 456.729 323.658 456.75 323.508 456.74C323.358 456.731 323.211 456.692 323.076 456.625C322.94 456.558 322.82 456.464 322.721 456.35C322.181 455.73 321.744 455.133 321.411 454.56C300.324 417.787 289.251 378.163 288.191 335.69C287.884 323.55 288.681 311.3 290.581 298.94C293.561 279.54 298.201 260.4 305.991 241.73C334.351 173.8 393.151 121.76 465.311 104.84C485.991 99.9933 508.468 98.0167 532.741 98.91C536.794 99.0567 539.798 99.28 541.751 99.58C545.641 100.18 549.141 100.1 553.721 100.71C591.481 105.763 627.538 118.623 661.891 139.29C662.062 139.394 662.207 139.536 662.314 139.705C662.422 139.873 662.489 140.065 662.512 140.264C662.534 140.462 662.51 140.664 662.442 140.852C662.375 141.04 662.265 141.211 662.121 141.35L598.611 202.42Z" fill="#FFCF20"/>
<path d="M598.611 202.42L580.371 219.73C580.19 219.9 579.963 220.015 579.718 220.059C579.473 220.103 579.221 220.076 578.991 219.98C559.891 212 539.831 208.293 518.811 208.86C516.011 208.933 513.638 209.1 511.691 209.36C508.421 209.8 505.711 209.65 502.201 210.23C488.994 212.397 478.451 214.847 470.571 217.58C443.684 226.913 421.361 241.997 403.601 262.83C383.511 286.38 369.461 316.58 366.071 347.3C364.691 359.8 364.961 375.45 367.351 388.47C368.758 396.123 370.504 403.41 372.591 410.33C372.667 410.577 372.673 410.84 372.61 411.09C372.546 411.341 372.415 411.569 372.231 411.75L360.381 423.44C354.474 408.447 350.764 393.22 349.251 377.76C347.438 359.213 348.564 340.777 352.631 322.45C356.191 306.423 362.364 290.643 371.151 275.11C379.858 259.737 390.038 246.183 401.691 234.45C404.038 232.09 408.981 227.8 416.521 221.58C435.861 205.627 457.961 194.667 482.821 188.7C517.061 180.487 550.684 182.7 583.691 195.34C588.071 197.02 593.044 199.38 598.611 202.42Z" fill="#EFA70B"/>
<path d="M688.78 723.88L688.93 724.18C688.967 724.254 689.029 724.314 689.105 724.35C689.18 724.386 689.267 724.396 689.35 724.38C694.343 723.393 698.517 722.457 701.87 721.57C709.67 719.517 716.25 717.98 721.61 716.96C724.697 716.367 727.637 716.08 730.43 716.1C738.62 716.16 745.18 715.45 752.36 717.12C758.913 718.633 763.153 719.733 765.08 720.42C768.393 721.6 774.43 724.33 783.19 728.61C785.657 729.81 787.793 731.107 789.6 732.5C789.655 732.542 789.699 732.595 789.73 732.657C789.761 732.718 789.777 732.786 789.777 732.854C789.777 732.922 789.761 732.989 789.73 733.049C789.699 733.109 789.655 733.161 789.6 733.2C783.03 737.99 776.09 743.22 768.29 746.78C759.31 750.867 749.553 753.607 739.02 755C738.053 755.133 734.217 755.193 727.51 755.18C722.93 755.173 719.103 754.913 716.03 754.4C705.55 752.647 695.67 749.243 686.39 744.19C680.97 741.24 675.31 736.78 670.39 733.89C664.57 730.483 658.883 726.79 653.33 722.81C652.878 722.484 652.538 722.025 652.359 721.498C652.18 720.971 652.17 720.402 652.33 719.87C655.27 710.103 657.593 700.567 659.3 691.26C663.73 667.18 679.21 647.36 700.85 636.31C700.93 636.27 701.018 636.251 701.107 636.253C701.196 636.256 701.284 636.281 701.361 636.326C701.438 636.37 701.503 636.433 701.55 636.509C701.597 636.585 701.625 636.671 701.63 636.76C701.83 641.23 702.87 645.7 703.01 650.69C703.42 665.62 698.88 680.33 691.74 692.99C687.45 700.59 681.08 705.7 672.56 713.31C672.36 713.49 672.197 713.717 672.07 713.99C672.018 714.106 672.001 714.234 672.023 714.359C672.045 714.484 672.104 714.599 672.193 714.69C672.282 714.781 672.396 714.843 672.52 714.868C672.644 714.893 672.773 714.88 672.89 714.83C684.557 709.83 695.55 704.51 705.87 698.87C712.923 695.01 718.873 690.133 723.72 684.24C724.32 683.513 724.42 682.02 724.02 679.76C723.16 674.92 722.47 672.83 722.23 668.42C722.01 664.367 721.68 660.393 721.24 656.5C720.68 651.53 721.97 646.13 722.1 641.92C722.37 633.36 724.93 624.3 727.83 616.57C728.883 613.77 730.847 609.39 733.72 603.43C738.81 592.9 745.54 584.28 753.17 576.36C753.22 576.307 753.281 576.267 753.349 576.243C753.418 576.218 753.491 576.21 753.563 576.219C753.636 576.228 753.706 576.253 753.768 576.293C753.83 576.333 753.882 576.387 753.92 576.45C760.433 587.41 764.127 599.173 765 611.74C766.41 631.94 756.75 650.51 745.61 666.81C745.534 666.921 745.499 667.054 745.509 667.187C745.52 667.32 745.577 667.446 745.67 667.543C745.763 667.641 745.887 667.705 746.021 667.724C746.155 667.743 746.293 667.717 746.41 667.65C749.503 665.803 752.82 663.373 756.36 660.36C761.7 655.82 769.227 648.597 778.94 638.69C785.193 632.317 790.2 624.733 793.96 615.94C794.473 614.74 794.47 613.527 793.95 612.3C792.19 608.1 787.75 601.52 785.56 595.79C780.613 582.863 777.633 570.59 776.62 558.97C775.967 551.53 776.317 542.003 777.67 530.39C778.237 525.523 779.207 520.823 780.58 516.29C782.073 511.363 783.62 506.8 785.22 502.6C785.278 502.448 785.372 502.313 785.493 502.204C785.614 502.095 785.758 502.017 785.915 501.975C786.072 501.933 786.237 501.929 786.396 501.963C786.555 501.997 786.704 502.068 786.83 502.17C801.07 513.79 809.893 528.6 813.3 546.6C813.593 548.173 813.783 550.12 813.87 552.44C814.06 557.46 814.87 561.54 814.41 566.71C813.95 571.917 813.683 574.703 813.61 575.07C812.35 581.35 811.537 585.627 811.17 587.9C811.158 587.973 811.166 588.049 811.195 588.118C811.223 588.186 811.27 588.246 811.33 588.29C811.39 588.333 811.461 588.359 811.536 588.365C811.61 588.37 811.684 588.354 811.75 588.32C813.3 587.54 816.27 581.33 818.85 576.7C820.817 573.16 822.5 569.663 823.9 566.21C827.04 558.423 829.867 550.91 832.38 543.67C834.713 536.957 836.037 530.153 836.35 523.26C836.397 522.207 836.253 521.12 835.92 520C835.828 519.705 835.659 519.436 835.43 519.22C828.717 513.013 824.533 508.973 822.88 507.1C814.78 497.933 807.633 487.95 801.44 477.15C799.627 473.99 798.003 470.023 796.57 465.25C793.017 453.463 790.993 444.623 790.5 438.73C789.96 432.277 789.887 425.873 790.28 419.52C790.289 419.384 790.329 419.251 790.398 419.133C790.467 419.015 790.563 418.914 790.677 418.84C790.792 418.765 790.922 418.718 791.058 418.702C791.194 418.687 791.332 418.703 791.46 418.75C802.84 423.017 812.697 429.53 821.03 438.29C834.23 452.16 839.39 469.37 841.91 487.87C841.923 487.986 841.977 488.092 842.063 488.169C842.149 488.246 842.26 488.29 842.377 488.291C842.494 488.292 842.608 488.251 842.698 488.176C842.789 488.1 842.85 487.995 842.87 487.88C843.27 485.6 843.89 483.72 844 481.72C844.56 471.72 846.26 461.72 845.96 451.47C845.59 438.67 846.12 430.83 843.09 421.19C842.25 418.56 841.27 417.14 838.59 416.02C823.93 409.91 810.05 400.65 798.64 389.87C794.927 386.357 791.863 382.84 789.45 379.32C780.83 366.75 774.66 353.54 773.51 338.22C773.503 338.112 773.521 338.005 773.563 337.905C773.604 337.806 773.667 337.718 773.747 337.647C773.828 337.576 773.923 337.525 774.026 337.498C774.128 337.471 774.236 337.468 774.34 337.49C795.93 341.78 815.74 352.91 828.79 370.9C831.87 375.16 835.43 381.97 837.7 386C837.728 386.052 837.767 386.096 837.815 386.13C837.863 386.164 837.919 386.187 837.977 386.197C838.036 386.206 838.096 386.202 838.154 386.186C838.211 386.169 838.265 386.14 838.31 386.1C838.45 385.973 838.497 385.783 838.45 385.53C837.77 381.877 836.817 378.1 835.59 374.2C831.257 360.353 828.577 352.37 827.55 350.25C824.33 343.61 822.18 339.407 821.1 337.64C819.653 335.287 817.017 332.173 813.19 328.3C806.1 321.12 801 316.57 795.93 310.27C781.75 292.61 773.19 271.53 769.21 249C767.68 240.33 768.16 231.88 768.18 222.75C768.18 222.37 768.26 222.03 768.42 221.73C768.481 221.613 768.586 221.525 768.713 221.484C768.84 221.443 768.978 221.452 769.1 221.51C773.967 223.783 778.56 226.567 782.88 229.86C796.333 240.14 807.54 252.357 816.5 266.51C817.467 268.037 818.843 270.777 820.63 274.73C822.13 278.043 823.267 280.873 824.04 283.22C829.04 298.3 832.22 310.343 833.58 319.35C834.64 326.343 835.443 330.723 835.99 332.49C839.12 342.66 840.7 349.15 844.26 357.57C846.853 363.703 848.623 367.76 849.57 369.74C849.616 369.836 849.693 369.912 849.788 369.956C849.884 370.001 849.992 370.01 850.095 369.983C850.198 369.956 850.29 369.895 850.354 369.808C850.419 369.722 850.453 369.617 850.45 369.51C850.22 364.6 848.79 360.19 848.34 355.77C847.04 343.06 847.16 329.81 850.23 317.74C853.53 304.713 859.033 292.743 866.74 281.83C866.793 281.755 866.863 281.694 866.945 281.652C867.027 281.611 867.118 281.59 867.21 281.592C867.302 281.594 867.392 281.619 867.472 281.664C867.553 281.709 867.62 281.773 867.67 281.85C875.36 293.89 879.78 307.68 881.56 321.74C881.78 323.48 881.897 328.483 881.91 336.75C881.93 350.87 878.47 363.46 872.17 376.21C868.257 384.123 864.083 391.277 859.65 397.67C858.95 398.67 858.47 401.01 858.55 402.55C859.15 414.07 859.21 426.973 858.73 441.26C858.683 442.667 858.88 445.397 859.32 449.45C860.06 456.38 860.47 462.42 860.85 469.1C860.855 469.204 860.898 469.303 860.97 469.379C861.043 469.454 861.14 469.5 861.244 469.509C861.348 469.517 861.452 469.487 861.536 469.425C861.62 469.363 861.678 469.272 861.7 469.17C864.02 458.857 866.513 449.363 869.18 440.69C875.31 420.74 889.48 403.01 906.96 390.99C907.1 390.896 907.26 390.838 907.428 390.822C907.595 390.805 907.764 390.83 907.919 390.894C908.075 390.958 908.212 391.06 908.318 391.19C908.425 391.32 908.498 391.475 908.53 391.64C909.01 394.18 909.6 398.377 910.3 404.23C910.9 409.21 911.093 413.413 910.88 416.84C909.98 431.153 907.247 444.097 902.68 455.67C899.027 464.917 893.157 473.797 885.07 482.31C877.763 490.003 869.573 497.23 860.5 503.99C859.833 504.49 859.197 505.863 858.59 508.11C857.577 511.83 856.51 515.69 855.39 519.69C852.19 531.06 847.15 541.63 844.1 553.04C841.907 561.253 839.573 568.99 837.1 576.25C837.058 576.37 837.062 576.502 837.111 576.62C837.16 576.738 837.251 576.833 837.365 576.888C837.48 576.942 837.61 576.95 837.729 576.912C837.849 576.874 837.949 576.791 838.01 576.68C841.13 571.4 842.71 568.73 842.75 568.67C843.81 566.743 845.583 564.203 848.07 561.05C854.81 552.52 860.39 542.68 869.61 534.67C882.377 523.57 896.817 515.543 912.93 510.59C913.002 510.567 913.078 510.56 913.154 510.568C913.229 510.576 913.302 510.6 913.367 510.637C913.433 510.675 913.49 510.726 913.535 510.786C913.581 510.847 913.613 510.916 913.63 510.99C913.77 511.637 913.773 512.367 913.64 513.18C912.76 518.54 911.79 524.87 909.94 530.13C900.69 556.5 884.76 580.3 859.18 593.16C851.213 597.167 844.683 599.973 839.59 601.58C832.563 603.787 828.17 605.313 826.41 606.16C825.25 606.713 823.577 608.38 821.39 611.16C814.09 620.46 809.117 626.567 806.47 629.48C800.85 635.68 796.01 639.85 790.73 646.69C786.47 652.203 781.733 657.563 776.52 662.77C776.432 662.856 776.377 662.971 776.366 663.094C776.354 663.217 776.387 663.34 776.458 663.441C776.529 663.542 776.633 663.614 776.753 663.645C776.872 663.676 776.999 663.664 777.11 663.61C779.577 662.463 782.077 661.037 784.61 659.33C790.71 655.23 798.52 650.99 803.25 648.17C808.383 645.103 812.197 643.007 814.69 641.88C832.45 633.9 852.22 630.87 871.65 632.41C872.39 632.463 872.93 632.563 873.27 632.71C873.372 632.754 873.463 632.818 873.538 632.899C873.614 632.98 873.672 633.075 873.708 633.18C873.745 633.284 873.76 633.395 873.751 633.505C873.743 633.615 873.712 633.722 873.66 633.82C858.07 663.26 826.7 685.98 793.22 688.48C786.18 689.007 779.98 689.033 774.62 688.56C767.787 687.953 763.86 687.663 762.84 687.69C760.07 687.77 756.87 685.81 754.04 687.55C745.493 692.79 737.613 697.05 730.4 700.33C720.76 704.72 715.45 708.4 706.3 714.54C701.06 718.053 695.32 720.923 689.08 723.15C689.01 723.175 688.946 723.214 688.892 723.266C688.838 723.317 688.795 723.379 688.767 723.448C688.739 723.517 688.725 723.591 688.727 723.665C688.73 723.74 688.748 723.813 688.78 723.88Z" fill="#FFCF20"/>
<path d="M170.689 369.56C170.699 369.635 170.732 369.704 170.784 369.759C170.836 369.814 170.904 369.852 170.978 369.866C171.052 369.88 171.128 369.871 171.197 369.839C171.265 369.808 171.322 369.756 171.359 369.69C176.909 360.05 180.179 348.8 183.589 337.5C184.969 332.92 186.116 327.847 187.029 322.28C189.063 309.893 192.389 296.637 197.009 282.51C198.903 276.703 200.886 272.03 202.959 268.49C214.686 248.397 230.653 232.977 250.859 222.23C250.924 222.195 250.996 222.174 251.069 222.168C251.143 222.162 251.217 222.172 251.287 222.196C251.356 222.221 251.42 222.26 251.474 222.31C251.528 222.361 251.571 222.422 251.599 222.49C251.719 222.763 251.783 223.1 251.789 223.5C251.859 231 252.059 237.86 250.909 245.74C247.219 271.07 237.819 295.27 220.919 314.67C215.906 320.423 210.286 326.303 204.059 332.31C198.689 337.49 195.149 346.23 192.629 351.22C191.296 353.86 189.979 357.5 188.679 362.14C185.899 372.093 183.633 380.473 181.879 387.28C181.854 387.38 181.848 387.484 181.863 387.586C181.878 387.688 181.913 387.786 181.967 387.873C182.02 387.961 182.09 388.037 182.173 388.097C182.256 388.156 182.35 388.198 182.449 388.22H182.479C182.689 388.268 182.909 388.242 183.102 388.145C183.295 388.049 183.45 387.888 183.539 387.69C187.486 378.963 192.063 371.403 197.269 365.01C208.969 350.63 227.459 341.79 245.569 337.85C245.836 337.79 245.999 337.77 246.059 337.79C246.251 337.849 246.416 337.974 246.525 338.142C246.635 338.31 246.682 338.511 246.659 338.71C245.173 352.87 240.483 365.81 232.589 377.53C220.449 395.57 199.919 409.32 179.449 418.34C179.129 418.481 178.844 418.691 178.613 418.953C178.381 419.215 178.209 419.525 178.109 419.86C176.009 426.81 174.799 433.3 174.839 441.83C174.893 455.31 174.989 464.283 175.129 468.75C175.263 473.257 176.049 479.443 177.489 487.31C177.556 487.69 177.716 488.17 177.969 488.75C177.999 488.819 178.049 488.876 178.112 488.916C178.176 488.956 178.25 488.975 178.325 488.972C178.399 488.969 178.471 488.943 178.531 488.898C178.591 488.853 178.635 488.791 178.659 488.72C178.986 487.793 179.453 484.87 180.059 479.95C180.589 475.71 181.669 472.54 182.829 468.32C189.259 444.93 205.999 426.61 229.319 419.3C229.393 419.277 229.47 419.271 229.546 419.283C229.622 419.294 229.694 419.322 229.758 419.366C229.821 419.409 229.874 419.466 229.913 419.533C229.951 419.599 229.974 419.673 229.979 419.75C231.106 436.517 228.679 452.837 222.699 468.71C220.666 474.097 217.766 479.677 213.999 485.45C208.966 493.15 205.379 498.337 203.239 501.01C198.313 507.157 192.413 513.13 185.539 518.93C185.129 519.275 184.804 519.709 184.588 520.198C184.373 520.687 184.274 521.218 184.299 521.75C184.739 531.29 186.419 539.17 189.909 548.62C193.799 559.12 196.029 565.37 200.929 574.1C202.949 577.7 205.609 582.26 208.909 587.78C208.957 587.86 209.022 587.928 209.1 587.979C209.177 588.031 209.264 588.064 209.355 588.076C209.446 588.089 209.538 588.08 209.623 588.052C209.709 588.023 209.786 587.974 209.849 587.91C210.123 587.63 210.189 587.24 210.049 586.74C209.436 584.533 208.623 580.657 207.609 575.11C205.779 565.15 205.859 555.35 207.469 545.25C208.516 538.677 210.276 532.927 212.749 528C217.663 518.193 224.473 509.66 233.179 502.4C233.246 502.344 233.324 502.304 233.409 502.284C233.493 502.263 233.581 502.261 233.666 502.28C233.751 502.298 233.83 502.335 233.898 502.389C233.967 502.443 234.022 502.512 234.059 502.59C236.373 507.39 238.263 512.307 239.729 517.34C241.409 523.13 241.919 527.47 243.059 533.9C243.433 536.007 243.659 538.243 243.739 540.61C244.073 550.977 244.056 557.94 243.689 561.5C241.889 579.16 235.869 595.97 228.029 611.79C226.699 614.48 227.889 616 228.979 618.34C232.013 624.867 234.789 629.647 237.309 632.68C239.816 635.693 246.669 643.083 257.869 654.85C262.889 660.12 267.539 663.42 273.629 667.6C274.036 667.88 274.426 667.973 274.799 667.88C274.884 667.857 274.963 667.815 275.028 667.757C275.094 667.698 275.145 667.625 275.177 667.544C275.209 667.462 275.221 667.374 275.213 667.286C275.205 667.199 275.176 667.114 275.129 667.04C264.919 651.33 255.699 633.95 256.299 614.47C256.706 601.43 260.353 589.127 267.239 577.56C267.306 577.45 267.397 577.356 267.506 577.286C267.614 577.216 267.737 577.171 267.865 577.156C267.993 577.14 268.123 577.154 268.245 577.197C268.367 577.239 268.478 577.309 268.569 577.4C276.289 585.107 282.579 593.653 287.439 603.04C289.353 606.74 291.809 612.123 294.809 619.19C295.543 620.917 296.689 624.91 298.249 631.17C300.119 638.67 299.579 645.11 300.609 652.82C300.943 655.32 300.909 658.433 300.509 662.16C299.916 667.64 299.056 673.153 297.929 678.7C297.583 680.407 297.489 681.99 297.649 683.45C297.707 684 297.951 684.512 298.339 684.9C302.693 689.307 306.483 692.767 309.709 695.28C312.509 697.473 316.926 699.91 322.959 702.59C324.833 703.423 332.886 707.183 347.119 713.87C347.633 714.11 348.239 714.22 348.939 714.2C349.051 714.195 349.158 714.158 349.248 714.092C349.339 714.027 349.408 713.936 349.447 713.832C349.487 713.728 349.494 713.614 349.47 713.505C349.445 713.397 349.39 713.297 349.309 713.22C348.209 712.147 343.996 708.187 336.669 701.34C333.349 698.24 330.346 693.983 327.659 688.57C319.586 672.283 317.183 655.007 320.449 636.74C320.467 636.639 320.508 636.544 320.568 636.461C320.629 636.379 320.708 636.312 320.799 636.265C320.891 636.219 320.991 636.194 321.094 636.193C321.196 636.192 321.297 636.215 321.389 636.26C324.829 637.973 328.109 639.877 331.229 641.97C345.083 651.277 354.493 664.043 359.459 680.27C361.246 686.11 362.556 691.357 363.389 696.01C364.789 703.76 367.169 710.52 368.609 717.97C368.929 719.617 368.519 720.907 367.379 721.84C364.666 724.06 359.316 727.447 351.329 732C348.549 733.58 344.929 735.877 340.469 738.89C327.843 747.417 313.679 752.753 297.979 754.9C295.339 755.26 291.236 755.41 285.669 755.35C280.889 755.297 276.803 754.953 273.409 754.32C256.563 751.147 241.586 744.13 228.479 733.27C228.422 733.223 228.377 733.162 228.347 733.094C228.318 733.026 228.305 732.951 228.31 732.877C228.315 732.803 228.337 732.731 228.376 732.667C228.414 732.603 228.466 732.55 228.529 732.51C242.859 723.54 260.159 716.28 276.979 716.12C279.946 716.093 284.306 716.077 290.059 716.07C293.913 716.063 298.099 716.56 302.619 717.56C311.479 719.527 319.893 721.64 327.859 723.9C328.566 724.1 329.576 724.227 330.889 724.28C331.021 724.284 331.15 724.242 331.255 724.161C331.359 724.081 331.432 723.966 331.462 723.838C331.491 723.709 331.475 723.574 331.417 723.456C331.358 723.338 331.26 723.244 331.139 723.19C328.166 721.877 325.276 720.493 322.469 719.04C316.039 715.7 309.289 710.95 303.919 707.61C301.806 706.297 298.159 704.503 292.979 702.23C284.573 698.537 276.169 693.963 267.769 688.51C266.809 687.889 265.692 687.556 264.549 687.55C257.609 687.51 250.909 688.84 244.469 688.9C234.549 688.993 226.369 688.453 219.929 687.28C204.816 684.52 190.376 677.873 176.609 667.34C175.656 666.613 173.063 664.39 168.829 660.67C160.559 653.42 153.619 643.86 148.639 634.62C148.446 634.273 148.309 633.93 148.229 633.59C148.201 633.473 148.199 633.352 148.223 633.234C148.247 633.117 148.297 633.006 148.368 632.91C148.44 632.814 148.532 632.734 148.637 632.677C148.743 632.62 148.859 632.587 148.979 632.58C159.266 631.913 168.306 632.017 176.099 632.89C179.186 633.23 185.779 634.723 195.879 637.37C203.753 639.437 212.256 643.347 221.389 649.1C232.936 656.367 239.643 660.583 241.509 661.75C242.069 662.097 242.513 662.3 242.839 662.36C242.921 662.375 243.006 662.364 243.081 662.328C243.157 662.293 243.219 662.235 243.26 662.162C243.301 662.089 243.318 662.006 243.309 661.923C243.299 661.84 243.265 661.762 243.209 661.7C237.496 655.447 232.969 649.96 229.629 645.24C227.389 642.067 224.979 639.183 222.399 636.59C215.126 629.263 207.599 620.34 199.819 609.82C199.646 609.58 198.629 608.507 196.769 606.6C196.474 606.298 196.109 606.078 195.709 605.96C175.039 599.82 154.429 592.11 138.999 576.34C131.379 568.55 125.369 561.55 120.449 552.34C118.363 548.433 116.743 545.287 115.589 542.9C110.863 533.113 107.733 522.78 106.199 511.9C106.181 511.775 106.195 511.646 106.239 511.528C106.283 511.409 106.356 511.303 106.451 511.219C106.546 511.136 106.661 511.077 106.785 511.05C106.909 511.022 107.037 511.025 107.159 511.06C124.359 516.01 139.519 524.65 152.809 536.3C158.583 541.367 163.209 546.287 166.689 551.06C172.543 559.107 177.923 567.373 182.829 575.86C182.864 575.922 182.915 575.973 182.977 576.008C183.039 576.043 183.109 576.06 183.18 576.058C183.251 576.056 183.32 576.035 183.38 575.996C183.44 575.958 183.488 575.904 183.519 575.84C183.989 574.86 182.689 571.72 181.569 568.45C179.369 562.05 177.769 553.82 175.669 549.1C170.283 536.953 166.113 524.37 163.159 511.35C162.726 509.45 162.076 507.677 161.209 506.03C160.846 505.35 160.35 504.752 159.749 504.27C154.429 500.05 149.336 495.75 144.469 491.37C134.689 482.55 125.619 473.19 120.029 460.61C112.179 442.96 109.069 423.85 110.369 404.51C110.623 400.677 111.276 396.767 112.329 392.78C112.356 392.679 112.407 392.586 112.477 392.509C112.547 392.431 112.635 392.372 112.732 392.335C112.83 392.297 112.935 392.284 113.039 392.295C113.142 392.307 113.242 392.343 113.329 392.4C133.819 405.9 148.369 427.07 154.849 450.39C154.943 450.737 155.849 454.293 157.569 461.06C157.629 461.286 157.666 461.517 157.679 461.75C157.833 463.983 158.283 466.09 159.029 468.07C159.063 468.156 159.126 468.228 159.206 468.275C159.287 468.321 159.38 468.338 159.472 468.324C159.564 468.31 159.648 468.266 159.711 468.198C159.774 468.13 159.812 468.043 159.819 467.95C160.339 460.47 161.809 452.61 161.759 444.44C161.733 439.653 161.636 435.763 161.469 432.77C160.909 422.41 161.299 414.35 162.219 404.76C162.579 400.92 161.649 398.81 159.509 395.31C152.649 384.143 147.536 374.07 144.169 365.09C138.409 349.72 137.789 330.61 140.879 314.53C143.053 303.27 147.399 292.657 153.919 282.69C153.966 282.618 154.031 282.559 154.108 282.521C154.185 282.482 154.271 282.465 154.357 282.471C154.443 282.477 154.526 282.506 154.596 282.555C154.667 282.605 154.723 282.672 154.759 282.75C156.999 287.49 160.046 293.61 163.899 301.11C165.759 304.723 167.913 310.713 170.359 319.08C171.769 323.88 171.809 327.88 172.669 332.94C173.619 338.48 173.349 347.15 172.919 350.98C172.033 358.693 171.546 363.08 171.459 364.14C171.309 365.86 170.469 367.9 170.689 369.56Z" fill="#FFCF20"/>
<path d="M606.73 256.18C597.59 260.673 588.82 265.503 580.42 270.67C579.314 271.35 575.014 274.027 567.52 278.7C555.75 286.05 540.42 297.46 533.4 302.4C525.847 307.72 520.32 311.723 516.82 314.41C507.574 321.503 502.127 325.61 500.48 326.73C499.027 327.723 497.364 328.073 495.49 327.78C489.164 326.773 482.917 326.473 476.75 326.88C469.19 327.387 462.104 329.58 455.49 333.46C446.217 338.893 439.524 346.263 435.41 355.57C433.764 359.297 432.71 362.943 432.25 366.51C431.67 371.057 431.61 374.827 432.07 377.82C433.13 384.613 434.4 389.817 435.88 393.43C439.76 402.89 446.33 409.89 453.76 417.57C454.095 417.924 454.336 418.354 454.46 418.82C454.814 420.14 454.937 421.54 454.83 423.02C454.45 428.26 453.854 434.213 453.04 440.88C452.374 446.387 451.237 452.24 449.63 458.44C447.517 466.6 445.2 474 442.68 480.64C439.714 488.453 435.724 495.147 430.71 500.72C428.2 503.51 424.25 506.47 421.1 507.4C418.2 508.247 416.397 508.99 415.69 509.63C401.23 509.937 387.167 509.93 373.5 509.61C371.574 509.563 369.887 509.36 368.44 509C368.337 508.975 368.24 508.926 368.158 508.857C368.076 508.789 368.01 508.702 367.966 508.604C367.922 508.506 367.9 508.399 367.903 508.291C367.905 508.183 367.932 508.077 367.98 507.98C368.447 507.087 368.924 506.317 369.41 505.67C373.73 499.957 378.024 493.83 382.29 487.29C396.14 466.07 404.58 438.48 395.47 413.78C393.51 408.47 389.2 398.74 387.57 390.59C387.197 388.71 386.55 384.97 385.63 379.37C384.87 374.73 384.397 367.863 384.21 358.77C383.737 335.63 389.237 314.21 400.71 294.51C407.45 282.937 415.47 272.7 424.77 263.8C434.504 254.487 445.26 246.817 457.04 240.79C484.62 226.69 517.2 222.88 547.48 228.74C559.627 231.093 570.167 234.397 579.1 238.65C588.074 242.923 597.284 248.767 606.73 256.18Z" fill="#FFCF20"/>
<path d="M659.609 339.79C659.089 338.937 657.619 338.707 655.199 339.1C637.206 342.06 627.529 343.637 626.169 343.83C619.839 344.74 615.689 346.06 609.509 346.98C606.149 347.473 602.002 348.343 597.069 349.59C583.782 352.943 573.369 355.66 565.829 357.74C562.509 358.66 557.459 359.73 553.769 360.89C535.003 366.81 521.059 371.13 511.939 373.85C511.65 373.933 511.395 374.108 511.211 374.349C511.028 374.59 510.925 374.885 510.919 375.19C510.859 377.683 510.599 380.34 510.139 383.16C508.439 393.5 501.939 402.85 491.959 406.71C484.299 409.68 474.919 410.43 467.349 406.93C458.429 402.8 453.369 396.11 449.719 387.25C447.259 381.28 447.719 375.75 447.859 368.17C447.866 367.745 447.926 367.325 448.039 366.92C451.232 355.507 458.339 348.25 469.359 345.15C474.519 343.69 480.559 343.677 487.479 345.11C487.638 345.143 487.793 345.201 487.939 345.28L494.529 348.92C495.007 349.184 495.554 349.295 496.096 349.238C496.638 349.18 497.149 348.958 497.559 348.6C499.746 346.713 501.346 345.387 502.359 344.62C516.832 333.633 535.763 319.957 559.149 303.59C565.249 299.323 569.276 296.58 571.229 295.36C575.729 292.573 579.842 289.947 583.569 287.48C584.289 287.007 590.169 283.497 601.209 276.95C607.096 273.457 612.872 269.773 618.539 265.9C630.239 258.38 644.072 250.343 660.039 241.79C661.352 241.09 662.499 241.233 663.479 242.22C664.426 243.173 665.696 245.31 667.289 248.63C672.909 260.343 676.883 272.727 679.209 285.78C679.383 286.753 679.906 290.58 680.779 297.26C682.289 308.79 682.269 321.7 680.839 332.28C680.559 334.34 680.279 335.24 678.139 336.07C676.699 336.623 675.749 336.953 675.289 337.06C670.369 338.173 665.142 339.083 659.609 339.79ZM469.959 374.32L471.699 375.17C471.812 375.226 471.912 375.307 471.991 375.405C472.071 375.503 472.128 375.618 472.159 375.74C473.819 382.38 475.659 387.39 482.589 387.63C495.519 388.08 498.119 360.13 479.519 364.2C474.249 365.36 471.859 368.67 469.679 373.53C469.613 373.672 469.606 373.834 469.658 373.982C469.711 374.13 469.819 374.251 469.959 374.32Z" fill="#FFCF20"/>
<path d="M618.539 265.9C612.873 269.773 607.096 273.457 601.209 276.95C590.169 283.497 584.289 287.007 583.569 287.48C579.843 289.947 575.729 292.573 571.229 295.36C569.276 296.58 565.249 299.323 559.149 303.59C535.763 319.957 516.833 333.633 502.359 344.62C501.346 345.387 499.746 346.713 497.559 348.6C497.149 348.958 496.639 349.18 496.097 349.238C495.554 349.295 495.007 349.184 494.529 348.92L487.939 345.28C487.794 345.2 487.639 345.143 487.479 345.11C480.559 343.677 474.519 343.69 469.359 345.15C458.339 348.25 451.233 355.507 448.039 366.92C447.926 367.325 447.866 367.745 447.859 368.17C447.719 375.75 447.259 381.28 449.719 387.25C453.369 396.11 458.429 402.8 467.349 406.93C474.919 410.43 484.299 409.68 491.959 406.71C501.939 402.85 508.439 393.5 510.139 383.16C510.599 380.34 510.859 377.683 510.919 375.19C510.926 374.885 511.028 374.59 511.212 374.349C511.395 374.108 511.65 373.933 511.939 373.85C521.059 371.13 535.003 366.81 553.769 360.89C557.459 359.73 562.509 358.66 565.829 357.74C573.369 355.66 583.783 352.943 597.069 349.59C602.003 348.343 606.149 347.473 609.509 346.98C615.689 346.06 619.839 344.74 626.169 343.83C627.529 343.637 637.206 342.06 655.199 339.1C657.619 338.707 659.089 338.937 659.609 339.79C656.829 347.497 655.686 355.67 656.179 364.31C637.719 366.523 619.183 368.123 600.569 369.11C593.029 369.51 584.609 370.66 578.439 371.92C559.713 375.747 545.963 378.843 537.189 381.21C533.529 382.19 531.216 382.853 530.249 383.2C529.807 383.357 529.414 383.63 529.112 383.99C528.809 384.351 528.608 384.786 528.529 385.25C525.849 400.79 513.599 417.05 498.559 422.93C493.499 424.903 487.983 426.123 482.009 426.59C481.776 426.605 481.558 426.711 481.401 426.885C481.244 427.058 481.161 427.286 481.169 427.52C481.316 433.42 481.766 438.687 482.519 443.32C483.293 448.073 484.549 453.313 486.289 459.04C490.109 471.55 494.739 480.28 502.799 490.93C505.806 494.897 509.019 498.257 512.439 501.01C522.989 509.48 533.979 515.83 546.479 522.49C556.659 527.91 567.333 532.007 578.499 534.78C579.239 534.96 579.599 535.26 579.579 535.68C578.739 537.96 578.246 539.863 578.099 541.39C577.349 549.18 576.179 557.88 575.689 565.46C575.529 567.913 575.009 575.76 574.129 589C573.743 594.733 573.653 599.73 573.859 603.99C573.893 604.71 574.313 605.14 575.119 605.28C574.299 607.32 574.146 609.357 574.659 611.39C574.731 611.684 574.88 611.954 575.089 612.17C578.959 616.28 580.929 617.46 581.669 622.25C582.569 628.05 576.999 629.42 572.539 628.69C569.573 628.203 565.229 626.817 559.509 624.53C557.689 623.8 556.789 623.67 556.379 621.39C553.169 603.29 552.509 586.17 552.279 568.47C552.276 568.095 552.185 567.728 552.012 567.397C551.84 567.067 551.592 566.783 551.289 566.57C545.983 562.823 542.033 559.987 539.439 558.06C528.853 550.2 519.886 541.337 512.539 531.47C503.346 519.13 495.106 507.293 487.819 495.96C480.893 485.18 475.003 473.69 470.149 461.49C470.112 461.391 470.047 461.306 469.962 461.243C469.877 461.181 469.776 461.145 469.671 461.14C469.565 461.134 469.461 461.16 469.37 461.213C469.279 461.267 469.206 461.346 469.159 461.44C468.386 462.933 467.673 464.897 467.019 467.33C466.246 470.183 464.763 474.45 462.569 480.13C457.729 492.62 447.409 504.17 436.999 512.67C432.129 516.64 424.349 521.14 419.489 524.24C418.343 524.973 417.023 525.517 415.529 525.87C416.429 520.39 416.483 514.977 415.689 509.63C416.396 508.99 418.199 508.247 421.099 507.4C424.249 506.47 428.199 503.51 430.709 500.72C435.723 495.147 439.713 488.453 442.679 480.64C445.199 474 447.516 466.6 449.629 458.44C451.236 452.24 452.373 446.387 453.039 440.88C453.853 434.213 454.449 428.26 454.829 423.02C454.936 421.54 454.813 420.14 454.459 418.82C454.335 418.354 454.094 417.924 453.759 417.57C446.329 409.89 439.759 402.89 435.879 393.43C434.399 389.817 433.129 384.613 432.069 377.82C431.609 374.827 431.669 371.057 432.249 366.51C432.709 362.943 433.763 359.297 435.409 355.57C439.523 346.263 446.216 338.893 455.489 333.46C462.103 329.58 469.189 327.387 476.749 326.88C482.916 326.473 489.163 326.773 495.489 327.78C497.363 328.073 499.026 327.723 500.479 326.73C502.126 325.61 507.573 321.503 516.819 314.41C520.319 311.723 525.846 307.72 533.399 302.4C540.419 297.46 555.749 286.05 567.519 278.7C575.013 274.027 579.313 271.35 580.419 270.67C588.819 265.503 597.589 260.673 606.729 256.18L618.539 265.9Z" fill="#EFA70B"/>
<path d="M469.68 373.53C471.86 368.67 474.25 365.36 479.52 364.2C498.12 360.13 495.52 388.08 482.59 387.63C475.66 387.39 473.82 382.38 472.16 375.74C472.129 375.618 472.072 375.503 471.992 375.405C471.913 375.307 471.813 375.226 471.7 375.17L469.96 374.32C469.82 374.251 469.712 374.13 469.659 373.982C469.607 373.834 469.615 373.672 469.68 373.53Z" fill="#EFA70B"/>
<path d="M656.18 364.31C660.25 381.05 667.89 398.52 673.56 413.19C676.667 421.237 678.69 428.033 679.63 433.58C679.797 434.56 679.827 436.787 679.72 440.26C679.707 440.559 679.653 440.858 679.56 441.15C678.38 444.657 676.087 447.177 672.68 448.71C665.78 451.82 658.26 452.53 651.44 453.26C651.053 453.303 650.691 453.473 650.409 453.742C650.127 454.011 649.942 454.365 649.88 454.75C649.727 455.763 649.797 456.84 650.09 457.98C651.13 461.993 652.07 466.033 652.91 470.1C653.36 472.28 652.64 473.75 651.26 475.33C646.83 474.48 640.21 473.77 636.23 476.22C635.564 476.633 635.124 477.59 634.91 479.09C634.888 479.265 634.901 479.442 634.947 479.612C634.993 479.782 635.073 479.941 635.18 480.08C637.734 483.387 641.007 485.933 645 487.72C645.147 487.785 645.309 487.811 645.469 487.797C645.63 487.783 645.785 487.729 645.92 487.64L647.19 486.79C647.56 492.26 644.88 496.23 641.79 500.4C641.393 500.933 641.117 501.545 640.982 502.195C640.847 502.845 640.857 503.516 641.01 504.16C641.71 507.11 643.53 510.17 644.2 513.03C646.51 522.92 641.03 534.97 630.94 538.42C624.734 540.533 618.167 541.303 611.24 540.73C600.827 539.87 591.664 538.32 583.75 536.08C583.06 535.881 582.348 535.77 581.63 535.75L579.58 535.68C579.6 535.26 579.24 534.96 578.5 534.78C567.334 532.007 556.66 527.91 546.48 522.49C533.98 515.83 522.99 509.48 512.44 501.01C509.02 498.257 505.807 494.897 502.8 490.93C494.74 480.28 490.11 471.55 486.29 459.04C484.55 453.313 483.294 448.073 482.52 443.32C481.767 438.687 481.317 433.42 481.17 427.52C481.162 427.286 481.245 427.058 481.402 426.885C481.559 426.711 481.777 426.605 482.01 426.59C487.984 426.123 493.5 424.903 498.56 422.93C513.6 417.05 525.851 400.79 528.531 385.25C528.61 384.786 528.811 384.351 529.113 383.99C529.415 383.63 529.808 383.357 530.25 383.2C531.217 382.853 533.53 382.19 537.19 381.21C545.964 378.843 559.714 375.747 578.44 371.92C584.61 370.66 593.03 369.51 600.57 369.11C619.184 368.123 637.72 366.523 656.18 364.31Z" fill="#FFCF20"/>
<path d="M575.12 605.28C586.27 609.26 597.25 616.25 605.55 623.62C615.19 632.18 623.796 640.733 631.37 649.28C632.77 650.86 633.953 652.447 634.92 654.04C635.033 654.229 635.068 654.455 635.017 654.668C634.967 654.881 634.835 655.065 634.65 655.18C624.15 661.8 612.67 665.533 600.21 666.38C581.86 667.62 563.21 666.79 545.43 663.19C535.303 661.137 524.976 658.44 514.45 655.1C502.23 651.23 491.12 645.92 478.5 640.76C478.313 640.687 473.61 638.4 464.39 633.9C455.47 629.55 443.31 621.84 433.63 617.86C423.19 613.56 412.16 608.51 403.44 605.18C378.113 595.527 351.883 589.657 324.75 587.57C324.687 587.565 324.627 587.542 324.577 587.505C324.527 587.467 324.488 587.416 324.466 587.357C324.444 587.298 324.439 587.234 324.452 587.173C324.465 587.111 324.496 587.055 324.54 587.01C327.5 584.13 331.36 581.19 335 579.25C347.81 572.4 361.06 568.05 375.24 565.03C375.946 564.877 377.01 564.137 378.43 562.81C378.794 562.472 379.255 562.255 379.75 562.19C381.83 561.94 385.14 562.31 387.97 561.93C392.103 561.377 396.653 560.987 401.62 560.76C401.966 560.745 402.302 560.648 402.602 560.477C402.901 560.307 403.154 560.068 403.34 559.78C407.586 553.213 410.8 546.427 412.98 539.42C414.18 535.55 414.62 530.38 415.53 525.87C417.023 525.517 418.343 524.973 419.49 524.24C424.35 521.14 432.13 516.64 437 512.67C447.41 504.17 457.73 492.62 462.57 480.13C464.763 474.45 466.246 470.183 467.02 467.33C467.673 464.897 468.386 462.933 469.16 461.44C469.206 461.345 469.28 461.267 469.37 461.213C469.461 461.16 469.566 461.134 469.671 461.14C469.776 461.145 469.878 461.181 469.963 461.243C470.048 461.306 470.113 461.391 470.15 461.49C475.003 473.69 480.893 485.18 487.82 495.96C495.106 507.293 503.346 519.13 512.54 531.47C519.886 541.337 528.853 550.2 539.44 558.06C542.033 559.987 545.983 562.823 551.29 566.57C551.593 566.783 551.841 567.067 552.013 567.397C552.185 567.728 552.276 568.095 552.28 568.47C552.51 586.17 553.17 603.29 556.38 621.39C556.79 623.67 557.69 623.8 559.51 624.53C565.23 626.817 569.573 628.203 572.54 628.69C577 629.42 582.57 628.05 581.67 622.25C580.93 617.46 578.96 616.28 575.09 612.17C574.88 611.954 574.732 611.684 574.66 611.39C574.146 609.357 574.3 607.32 575.12 605.28Z" fill="#FFCF20"/>
<path d="M651.259 475.33C650.493 476.623 649.383 477.7 647.929 478.56C647.787 478.645 647.664 478.759 647.568 478.895C647.471 479.031 647.404 479.186 647.369 479.35C647.129 480.51 647.769 481.4 647.629 482.66C647.476 484.047 647.329 485.423 647.189 486.79L645.919 487.64C645.784 487.729 645.629 487.783 645.468 487.797C645.307 487.811 645.146 487.785 644.999 487.72C641.006 485.933 637.733 483.387 635.179 480.08C635.071 479.941 634.992 479.782 634.946 479.612C634.899 479.442 634.887 479.265 634.909 479.09C635.123 477.59 635.563 476.633 636.229 476.22C640.209 473.77 646.829 474.48 651.259 475.33Z" fill="#EFA70B"/>
<path d="M658.189 753.94C654.976 755.833 651.549 756.81 647.909 756.87C617.829 757.41 589.439 757.06 555.509 757.27C533.263 757.403 511.419 757.417 489.979 757.31C439.599 757.043 402.006 757 377.199 757.18C371.673 757.22 366.716 756.457 362.329 754.89C361.276 750.21 362.446 747.127 365.839 745.64C398.939 731.087 443.133 711.757 498.419 687.65C501.359 686.37 504.026 685.3 506.419 684.44C509.549 683.32 511.739 683.79 514.969 685.15C549.639 699.68 589.039 717.03 653.869 745.4C657.636 747.047 659.076 749.893 658.189 753.94ZM510.759 697.07C510.703 697.043 510.642 697.028 510.579 697.028C510.517 697.028 510.455 697.043 510.399 697.07L416.859 743.47C416.775 743.51 416.707 743.578 416.667 743.662C416.626 743.746 416.616 743.841 416.636 743.932C416.657 744.023 416.709 744.104 416.782 744.162C416.855 744.22 416.946 744.251 417.039 744.25H605.009C605.103 744.251 605.193 744.22 605.267 744.162C605.34 744.104 605.391 744.023 605.412 743.932C605.433 743.841 605.423 743.746 605.382 743.662C605.342 743.578 605.274 743.51 605.189 743.47L510.759 697.07Z" fill="#EFA70B"/>
<path d="M510.76 697.07L605.19 743.47C605.275 743.51 605.342 743.578 605.383 743.662C605.424 743.746 605.434 743.841 605.413 743.932C605.392 744.023 605.341 744.104 605.268 744.162C605.194 744.22 605.104 744.251 605.01 744.25H417.04C416.947 744.251 416.856 744.22 416.783 744.162C416.71 744.104 416.658 744.023 416.637 743.932C416.616 743.841 416.627 743.746 416.668 743.662C416.708 743.578 416.776 743.51 416.86 743.47L510.4 697.07C510.456 697.043 510.518 697.028 510.58 697.028C510.643 697.028 510.704 697.043 510.76 697.07Z" fill="#FFCF20"/>
<path d="M658.19 753.94C658.117 756.927 656.99 759.107 654.81 760.48C653.123 761.533 650.657 762.01 647.41 761.91C643.283 761.77 640.247 761.8 638.3 762C638.18 762.011 638.064 762.046 637.958 762.103C637.851 762.16 637.757 762.238 637.681 762.331C637.605 762.425 637.548 762.534 637.513 762.65C637.479 762.767 637.467 762.889 637.48 763.01C638.02 768.07 639.28 773.42 638.94 778.84C623.693 778.773 608.46 778.657 593.24 778.49C588.833 778.437 584.567 778.617 580.44 779.03L536.35 778.82C514.07 778.48 496.853 778.32 484.7 778.34C483.367 778.34 481.773 778.543 479.92 778.95L442.04 778.87C424.167 778.497 406.113 778.46 387.88 778.76C385.633 778.8 383.337 778.877 380.99 778.99L382.81 763.21C382.828 763.049 382.813 762.886 382.764 762.732C382.716 762.577 382.637 762.434 382.53 762.312C382.424 762.19 382.294 762.091 382.147 762.022C382.001 761.953 381.842 761.914 381.68 761.91C378.72 761.823 375.797 761.82 372.91 761.9C367.46 762.05 362.58 761.11 362.33 754.89C366.717 756.457 371.673 757.22 377.2 757.18C402.007 757 439.6 757.043 489.98 757.31C511.42 757.417 533.263 757.403 555.51 757.27C589.44 757.06 617.83 757.41 647.91 756.87C651.55 756.81 654.977 755.833 658.19 753.94Z" fill="#FFCF20"/>
<path d="M536.351 778.82C536.324 782.473 536.297 785.95 536.271 789.25C536.244 791.703 535.944 793.55 535.371 794.79C535.219 795.124 534.974 795.407 534.666 795.606C534.357 795.805 533.998 795.91 533.631 795.91H528.851C528.53 795.91 528.222 796.039 527.995 796.267C527.768 796.496 527.641 796.806 527.641 797.13V890.96C527.641 891.12 527.672 891.278 527.734 891.425C527.795 891.573 527.885 891.707 527.999 891.819C528.112 891.932 528.247 892.021 528.395 892.081C528.543 892.141 528.701 892.171 528.861 892.17L590.191 892L605.971 892.14C606.028 892.141 606.084 892.129 606.136 892.105C606.188 892.082 606.235 892.047 606.273 892.003C606.311 891.96 606.339 891.908 606.356 891.853C606.373 891.797 606.378 891.738 606.371 891.68C606.071 889.327 605.924 887.517 605.931 886.25C606.097 854.97 606.081 825.1 605.881 796.64C605.881 796.561 605.865 796.482 605.834 796.41C605.803 796.337 605.758 796.271 605.701 796.216C605.644 796.161 605.577 796.118 605.503 796.089C605.429 796.061 605.35 796.047 605.271 796.05L590.191 796.59C588.764 796.17 587.067 795.93 585.101 795.87C583.467 795.817 582.337 795.443 581.711 794.75C580.911 793.87 580.524 792.713 580.551 791.28C580.637 787.413 580.601 783.33 580.441 779.03C584.567 778.617 588.834 778.437 593.241 778.49C608.461 778.657 623.694 778.773 638.941 778.84C639.054 783.027 639.014 787.093 638.821 791.04C638.521 796.87 633.951 795.99 629.871 795.96C629.629 795.96 629.398 796.055 629.227 796.224C629.057 796.392 628.961 796.621 628.961 796.86V891.34C628.961 891.556 629.046 891.763 629.197 891.916C629.349 892.07 629.555 892.157 629.771 892.16C633.571 892.22 637.644 892.217 641.991 892.15C644.691 892.103 646.867 893.077 648.521 895.07C649.367 896.083 649.814 897.663 649.861 899.81C649.941 903.143 649.997 906.693 650.031 910.46C648.217 910.1 645.957 909.923 643.251 909.93C555.917 909.957 468.584 909.973 381.251 909.98C378.244 909.98 374.511 910.25 370.051 910.79C370.171 908.19 370.214 905.677 370.181 903.25C370.134 899.19 370.357 896.803 370.851 896.09C373.091 892.84 375.301 891.97 379.761 892.16C381.821 892.24 384.994 892.207 389.281 892.06C390.134 892.027 390.754 891.927 391.141 891.76L406.871 891.91C406.967 891.911 407.063 891.893 407.153 891.857C407.243 891.82 407.325 891.766 407.393 891.697C407.462 891.628 407.517 891.546 407.554 891.456C407.592 891.365 407.611 891.268 407.611 891.17V796.96C407.611 796.862 407.591 796.765 407.554 796.675C407.516 796.584 407.46 796.502 407.391 796.433C407.321 796.364 407.238 796.31 407.147 796.273C407.056 796.237 406.959 796.219 406.861 796.22L391.121 796.33C389.927 796.117 388.607 796.013 387.161 796.02C385.334 796.033 384.061 795.81 383.341 795.35C382.014 794.51 381.297 793.14 381.191 791.24C381.064 788.88 380.997 784.797 380.991 778.99C383.337 778.877 385.634 778.8 387.881 778.76C406.114 778.46 424.167 778.497 442.041 778.87C441.847 783.25 441.701 787.64 441.601 792.04C441.574 793.227 441.001 794.277 439.881 795.19C438.201 796.56 432.111 795.99 430.361 795.92C430.274 795.916 430.188 795.93 430.107 795.96C430.026 795.99 429.951 796.037 429.889 796.097C429.826 796.156 429.776 796.228 429.742 796.308C429.708 796.388 429.691 796.473 429.691 796.56V891C429.691 891.313 429.816 891.613 430.039 891.834C430.263 892.056 430.565 892.18 430.881 892.18C462.941 892.107 481.731 892.067 487.251 892.06C488.611 892.053 489.161 891.833 488.901 891.4C489.134 891.76 489.421 891.943 489.761 891.95C494.954 892.083 499.934 892.117 504.701 892.05C504.871 892.047 505.034 891.978 505.154 891.856C505.274 891.735 505.341 891.571 505.341 891.4V796.95C505.341 796.831 505.317 796.713 505.271 796.603C505.225 796.493 505.158 796.394 505.074 796.31C504.989 796.226 504.889 796.16 504.778 796.116C504.668 796.071 504.55 796.049 504.431 796.05L488.891 796.25C488.004 796.137 487.021 796.083 485.941 796.09C482.071 796.1 479.641 794.29 479.921 790C480.047 788.147 480.047 784.463 479.921 778.95C481.774 778.543 483.367 778.34 484.701 778.34C496.854 778.32 514.071 778.48 536.351 778.82Z" fill="#EFA70B"/>
<path d="M391.139 891.76L391.119 796.33L406.859 796.22C406.957 796.219 407.054 796.237 407.145 796.274C407.236 796.31 407.319 796.364 407.389 796.433C407.459 796.502 407.514 796.584 407.552 796.675C407.59 796.765 407.609 796.862 407.609 796.96V891.17C407.609 891.268 407.59 891.365 407.553 891.456C407.515 891.546 407.461 891.628 407.392 891.697C407.323 891.766 407.241 891.82 407.152 891.857C407.062 891.893 406.966 891.911 406.869 891.91L391.139 891.76Z" fill="#FFCF20"/>
<path d="M488.901 891.4L488.891 796.25L504.431 796.05C504.55 796.049 504.668 796.071 504.778 796.116C504.888 796.16 504.989 796.226 505.073 796.31C505.158 796.394 505.225 796.493 505.271 796.603C505.317 796.713 505.341 796.831 505.341 796.95V891.4C505.341 891.571 505.274 891.735 505.154 891.856C505.034 891.978 504.871 892.047 504.701 892.05C499.934 892.117 494.954 892.083 489.761 891.95C489.421 891.943 489.134 891.76 488.901 891.4Z" fill="#FFCF20"/>
<path d="M590.189 892V796.59L605.269 796.05C605.349 796.047 605.427 796.061 605.501 796.089C605.575 796.117 605.643 796.16 605.7 796.215C605.757 796.271 605.802 796.336 605.833 796.409C605.864 796.482 605.88 796.561 605.879 796.64C606.079 825.1 606.096 854.97 605.929 886.25C605.923 887.517 606.069 889.327 606.369 891.68C606.377 891.738 606.372 891.797 606.355 891.853C606.338 891.908 606.309 891.96 606.271 892.003C606.234 892.047 606.187 892.081 606.135 892.105C606.083 892.129 606.026 892.141 605.969 892.14L590.189 892Z" fill="#FFCF20"/>
<path d="M650.029 910.46C653.096 910.78 656.236 910.963 659.449 911.01C663.656 911.07 666.329 911.317 667.469 911.75C673.329 913.98 678.029 921.06 673.779 926.95C669.989 932.19 666.639 931.9 659.509 931.9C572.276 931.907 469.939 931.907 352.499 931.9C351.479 931.9 350.373 931.557 349.179 930.87C343.606 927.67 342.176 923.18 344.889 917.4C345.936 915.167 347.673 913.463 350.099 912.29C351.733 911.497 354.129 911.067 357.289 911C361.529 910.907 365.783 910.837 370.049 910.79C374.509 910.25 378.243 909.98 381.249 909.98C468.583 909.973 555.916 909.957 643.249 909.93C645.956 909.923 648.216 910.1 650.029 910.46Z" fill="#FFCF20"/>
</svg>
