<svg width="1024" height="1024" viewBox="0 0 1024 1024" fill="none" xmlns="http://www.w3.org/2000/svg">
<path d="M682.31 708.88C682.257 682.14 682.15 655.43 681.99 628.75C681.964 624.757 681.76 622.01 681.38 620.51C679.93 614.74 674.13 613.75 669.02 614.52C665.947 614.98 663.774 616.457 662.5 618.95C662.374 619.203 662.277 619.471 662.21 619.75C661.697 622.017 661.444 624.517 661.45 627.25C661.53 654.497 661.68 681.713 661.9 708.9" stroke="#7CD1BE" stroke-width="2"/>
<path d="M594.5 198.95C594.44 198.87 594.27 198.783 593.99 198.69C559.35 186.923 524.63 182.673 489.83 185.94C458.477 188.88 428.157 196.89 398.87 209.97C379.223 218.737 361.567 229.54 345.9 242.38C345.615 242.619 345.298 242.814 344.96 242.96C340.073 245.107 335.707 244.8 331.86 242.04C325.36 237.39 325.52 227.28 332.03 222.54C335.903 219.72 339.43 217.16 342.61 214.86C357.35 204.227 372.93 195.137 389.35 187.59C439 164.79 493.48 155.27 547.5 162.48C565.913 164.94 583.833 169.41 601.26 175.89C601.381 175.936 601.513 175.943 601.637 175.911C601.762 175.879 601.874 175.808 601.958 175.709C602.042 175.61 602.094 175.486 602.107 175.356C602.12 175.226 602.093 175.095 602.03 174.98C596.99 165.913 592.09 158.013 587.33 151.28C585.15 148.2 583.93 145.673 583.67 143.7C581.86 129.66 598.84 123.69 606.3 135.28C613.97 147.19 619.34 156.61 628.25 172.03C632.14 178.77 637.82 186.08 640.74 190.81C644.8 197.39 641.62 205.51 634.86 209.13C632.473 210.41 628.003 212.433 621.45 215.2C607.39 221.127 593.813 227.013 580.72 232.86C573.95 235.89 568.78 237.09 563.45 232.01C556.93 225.8 559.58 215.5 567.77 211.97C577.717 207.683 586.537 203.74 594.23 200.14C594.337 200.091 594.431 200.017 594.505 199.926C594.58 199.834 594.632 199.726 594.658 199.611C594.684 199.497 594.683 199.377 594.656 199.262C594.628 199.148 594.575 199.041 594.5 198.95Z" fill="#57BAAA"/>
<path d="M853.994 336.246C842.142 284.908 791.588 252.744 741.08 264.405C690.571 276.066 659.233 327.136 671.086 378.474C682.938 429.811 733.491 461.976 784 450.315C834.509 438.654 865.847 387.584 853.994 336.246Z" fill="#A0E7D1"/>
<path d="M351.703 344.367C343.906 292.198 296.176 256.095 245.093 263.729C194.011 271.363 158.921 319.844 166.718 372.013C174.514 424.183 222.245 460.285 273.328 452.651C324.41 445.017 359.5 396.536 351.703 344.367Z" fill="#57BAAA"/>
<path d="M511.66 369.19C511.994 369.097 512.264 368.947 512.47 368.74C529.01 352.1 551.04 341.14 574.77 344.44C580.91 345.3 588.81 348 594.84 350.43C608.15 355.8 619.23 366.99 626.79 378.95C635.05 392.02 637.58 406.77 636.69 421.82C635.68 439.11 628.12 454.19 616.64 466.9C607.11 477.45 593.68 490.39 583.14 501.39C562.92 522.483 543.544 542.433 525.01 561.24C521.11 565.193 518.274 567.42 516.5 567.92C508.94 570.05 505.06 567.22 499.35 561.39C474.19 535.677 449.164 510.457 424.27 485.73C414.844 476.363 409.494 471.047 408.22 469.78C395.467 457.06 388.527 441.57 387.4 423.31C386.48 408.36 388.37 394.69 395.92 381.43C406.134 363.47 420.697 351.92 439.61 346.78C448.53 344.353 457.327 343.837 466 345.23C483.51 348.04 499.06 356.5 510.94 369C511.03 369.096 511.146 369.165 511.273 369.199C511.4 369.232 511.535 369.229 511.66 369.19ZM512.64 540.11C513.547 539.47 514.397 538.747 515.19 537.94C524.477 528.453 550.614 501.733 593.6 457.78C602.29 448.88 608.63 441.05 611.96 430.72C616.73 415.93 613.92 398.2 603.58 385.93C594.46 375.1 582.89 367.53 568.63 366.82C549 365.85 533.1 378.83 522 393.69C520.027 396.323 518.42 397.903 517.18 398.43C511.98 400.64 507.06 399.54 503.53 395.22C489.82 378.39 475.83 365.78 452.53 367.78C428.85 369.8 410.31 390.78 409.87 414.25C409.65 426.41 411.85 436.83 419.25 446.25C420.884 448.337 423.01 450.72 425.63 453.4C444.63 472.86 459.56 487.43 477.2 505.69C489.414 518.323 500.717 529.753 511.11 539.98C511.312 540.179 511.576 540.301 511.856 540.325C512.136 540.349 512.414 540.273 512.64 540.11Z" fill="#57BAAA"/>
<path d="M682.31 708.88C682.257 682.14 682.15 655.43 681.99 628.75C681.964 624.757 681.76 622.01 681.38 620.51C679.93 614.74 674.13 613.75 669.02 614.52C665.947 614.98 663.774 616.457 662.5 618.95C662.374 619.203 662.277 619.471 662.21 619.75C661.697 622.017 661.444 624.517 661.45 627.25C661.53 654.497 661.68 681.713 661.9 708.9C651.24 708.92 640.767 708.923 630.48 708.91C625.534 708.897 621.94 708.463 619.7 707.61C613.734 705.33 609.83 701.313 607.99 695.56C607.444 693.853 607.16 688.113 607.14 678.34C607.08 646.887 606.967 620.58 606.8 599.42C606.7 586.15 608.32 573.81 612.4 562.35C618.32 545.717 627.23 530.973 639.13 518.12C651.96 504.26 668.98 492.04 687.48 485.27C704.12 479.17 722.12 476.093 741.48 476.04C762.167 475.987 778.757 475.95 791.25 475.93C803.524 475.903 815.52 477.513 827.24 480.76C836.17 483.24 845.3 485.92 853.3 490.19C866.587 497.283 877.43 505.11 885.83 513.67C904.42 532.61 915.46 555.78 919.67 581.82C920.524 587.1 920.92 594.403 920.86 603.73C920.7 629.44 921.78 666.62 921.69 691.87C921.69 692.592 921.569 693.305 921.33 693.98C920.524 696.293 919.267 698.667 917.56 701.1C913.45 706.96 904.83 708.88 898 708.88C826.36 708.893 754.464 708.893 682.31 708.88Z" fill="#A0E7D1"/>
<path d="M191.35 481.42C203.09 478.41 214.93 476.82 227.63 477.01C231.45 477.063 244.254 477.027 266.04 476.9C286.1 476.787 298.89 477.057 304.41 477.71C329.73 480.723 352.42 490.413 372.48 506.78C395.73 525.73 410.72 554.98 414.86 585.44C415.46 589.86 415.794 602.277 415.86 622.69C415.96 657.38 416.04 678.13 416 690.7C415.97 702.26 406.36 709.02 395.74 709.01C304.247 708.943 214.204 708.933 125.61 708.98C120.937 708.98 117.504 708.593 115.31 707.82C109.31 705.7 104.65 700.91 102.77 694.81C102.337 693.397 102.114 690.653 102.1 686.58C101.987 639.407 101.857 610.047 101.71 598.5C101.03 543.38 138.62 494.94 191.35 481.42Z" fill="#57BAAA"/>
<path d="M682.31 708.88L661.9 708.9C661.68 681.713 661.53 654.497 661.45 627.25C661.444 624.517 661.697 622.017 662.21 619.75C662.277 619.471 662.374 619.203 662.5 618.95C663.774 616.457 665.947 614.98 669.02 614.52C674.13 613.75 679.93 614.74 681.38 620.51C681.76 622.01 681.964 624.757 681.99 628.75C682.15 655.43 682.257 682.14 682.31 708.88Z" fill="#57BAAA"/>
<path d="M405.08 780.22C404.985 780.243 404.899 780.294 404.834 780.366C404.768 780.439 404.725 780.529 404.711 780.626C404.697 780.723 404.713 780.822 404.755 780.91C404.798 780.998 404.866 781.071 404.95 781.12C411.29 785.047 418.047 788.433 425.22 791.28C463.47 806.48 505.88 810.74 546.93 805.67C563.41 803.63 578.714 800.193 592.84 795.36C612.974 788.473 632.144 779.877 650.35 769.57C659.097 764.623 667.757 758.34 676.33 750.72C679.077 748.273 681.124 746.773 682.47 746.22C693.69 741.61 703.75 753.45 697.7 763.85C696.774 765.437 694.774 767.35 691.7 769.59C678.66 779.083 669.877 785.343 665.35 788.37C657.07 793.917 646.777 799.453 634.47 804.98C602.68 819.24 567.73 829.25 534.08 831.53C494.034 834.237 455.484 828.84 418.43 815.34C412.03 813.013 406.477 810.577 401.77 808.03C401.27 807.763 400.854 807.633 400.52 807.64C400.391 807.643 400.264 807.678 400.151 807.742C400.038 807.806 399.943 807.898 399.875 808.008C399.806 808.118 399.766 808.244 399.758 808.373C399.751 808.503 399.775 808.632 399.83 808.75C404.064 817.897 407.877 826.7 411.27 835.16C412.25 837.607 412.26 840.407 411.3 843.56C409.68 848.84 404.56 851.37 399.17 851.14C394.337 850.933 390.717 848.11 388.31 842.67C382.604 829.81 376.004 814.843 368.51 797.77C367.85 796.27 365.737 792.15 362.17 785.41C360.37 782.01 359.374 779.483 359.18 777.83C358.31 770.41 362.18 764.58 369.5 762.97C380.71 760.51 390.4 758.79 401.55 755.79C413.97 752.443 425.32 749.31 435.6 746.39C441.49 744.71 447.73 747.14 450.32 752.95C452.7 758.283 451.587 763.06 446.98 767.28C444.54 769.52 440.06 770.52 436.37 771.63C426.817 774.49 416.387 777.353 405.08 780.22Z" fill="#57BAAA"/>
</svg>
