<svg width="1024" height="1024" viewBox="0 0 1024 1024" fill="none" xmlns="http://www.w3.org/2000/svg">
<path d="M597.76 214.75C597.767 214.75 598.797 215.043 600.85 215.63C600.915 215.649 600.97 215.691 601.005 215.748C601.04 215.806 601.053 215.874 601.04 215.94L601.03 215.95C601.016 216.025 600.975 216.092 600.916 216.138C600.857 216.184 600.784 216.206 600.71 216.2C599.457 216.107 596.907 215.383 593.06 214.03C592.187 213.73 589.957 213.123 586.37 212.21C584.817 211.817 583.71 211.16 583.05 210.24C580.27 206.33 577.83 203.58 575.03 199.28C566.92 186.86 553.39 177.96 539.47 173.27C528.05 169.417 516.444 167.137 504.65 166.43C495.664 165.89 487.37 165.823 479.77 166.23C461.49 167.203 444.82 172.32 429.76 181.58C413.76 191.41 402.31 206.1 394.9 222.92C385.447 244.34 382.08 266.783 384.8 290.25C384.88 290.937 384.897 291.937 384.85 293.25C384.837 293.567 384.888 293.883 385 294.18C385.77 296.29 385.46 298.58 386.21 300.5C386.245 300.595 386.31 300.677 386.395 300.732C386.481 300.788 386.581 300.814 386.683 300.807C386.784 300.8 386.881 300.761 386.958 300.695C387.035 300.629 387.088 300.539 387.11 300.44C388.404 294.967 389.704 290.077 391.01 285.77C396.19 268.72 406.24 252.56 418.44 239.45C421.51 236.15 424.17 234.36 428.18 236.85C435.48 241.39 440.32 244.57 447.93 246.58C478.75 254.68 511.08 253.76 541.63 244.63C553.3 241.14 563.52 233.21 571.94 226.39C572.398 226.016 572.94 225.757 573.519 225.635C574.098 225.514 574.699 225.532 575.27 225.69C576.97 226.15 578.487 226.98 579.82 228.18C592.08 239.24 598.92 245.487 600.34 246.92C601.187 247.78 603.12 249.687 606.14 252.64C619.04 265.26 627.63 282.46 632.07 299.98C632.086 300.059 632.129 300.129 632.192 300.179C632.255 300.229 632.334 300.255 632.414 300.253C632.494 300.25 632.571 300.22 632.631 300.166C632.69 300.113 632.729 300.04 632.74 299.96C637.49 273.36 636.77 245.95 616.75 225.56C613.997 222.753 611.897 221 610.45 220.3C606.457 218.36 604.087 217.103 603.34 216.53C602.107 215.57 600.33 214.817 598.01 214.27C597.95 214.257 597.887 214.263 597.831 214.289C597.775 214.315 597.729 214.359 597.701 214.414C597.672 214.469 597.663 214.531 597.673 214.592C597.684 214.653 597.715 214.708 597.76 214.75Z" stroke="#54AFDF" stroke-width="2"/>
<path d="M427.329 262.54C426.897 262.428 426.443 262.435 426.015 262.56C425.587 262.685 425.201 262.923 424.899 263.25C422.906 265.39 421.186 267.88 419.739 270.72C414.292 281.413 410.506 293.107 408.379 305.8C406.866 314.873 406.092 321.703 406.059 326.29C406.019 332.517 406.002 338.997 406.009 345.73C406.009 345.894 405.976 346.056 405.913 346.206C405.849 346.357 405.755 346.493 405.638 346.607C405.52 346.721 405.381 346.81 405.228 346.869C405.076 346.928 404.913 346.955 404.749 346.95C404.149 346.93 403.682 346.837 403.349 346.67C397.802 343.91 393.326 341.707 389.919 340.06C386.679 338.49 378.839 340.82 377.249 343.77C376.222 345.67 375.062 348.24 373.769 351.48C371.559 357.03 371.349 362 372.689 367.09C375.599 378.08 385.089 387.17 396.539 388.23C399.212 388.483 402.039 388.563 405.019 388.47C405.705 388.448 406.378 388.655 406.932 389.059C407.487 389.463 407.89 390.041 408.079 390.7C411.246 401.787 415.456 412.4 420.709 422.54C434.019 448.23 457.629 469.45 485.799 476.36C514.066 483.293 540.306 478.76 564.519 462.76C574.379 456.253 582.116 449.42 587.729 442.26C599.399 427.39 608.039 408.08 614.619 389.42C614.745 389.063 614.986 388.757 615.305 388.552C615.624 388.348 616.002 388.255 616.379 388.29C627.019 389.277 635.759 385.81 642.599 377.89C646.166 373.757 648.269 369.64 648.909 365.54C650.196 357.38 648.459 349.667 643.699 342.4C643.199 341.64 642.47 341.062 641.619 340.75C635.689 338.57 631.039 340.35 625.589 343.2C623.229 344.44 615.419 346.85 615.159 342.27C614.299 327.52 613.709 315.61 610.629 303.38C605.056 281.227 592.852 263.627 574.019 250.58C573.86 250.468 573.669 250.41 573.474 250.415C573.279 250.42 573.092 250.489 572.939 250.61C569.472 253.39 565.612 255.813 561.359 257.88C545.406 265.633 528.196 270.577 509.729 272.71C492.042 274.757 472.659 274.103 451.579 270.75C444.469 269.62 438.619 267.09 432.869 264.64C430.182 263.5 428.336 262.8 427.329 262.54Z" stroke="#73BAE0" stroke-width="2"/>
<path d="M471.109 495.16C471.042 495.136 470.971 495.126 470.9 495.132C470.829 495.138 470.76 495.159 470.698 495.194C470.636 495.23 470.583 495.278 470.542 495.336C470.5 495.394 470.472 495.46 470.459 495.53C469.052 503.123 466.052 509.723 461.459 515.33C461.21 515.634 461.045 516 460.982 516.389C460.919 516.779 460.959 517.179 461.099 517.55C466.709 532.34 475.469 543.54 490.369 550.22C501.129 555.05 514.179 555.24 525.239 551.14C534.109 547.86 542.879 542.11 548.439 534.18C552.572 528.3 555.769 521.933 558.029 515.08C558.137 514.763 558.165 514.423 558.111 514.09C558.057 513.757 557.922 513.442 557.719 513.17C553.919 508.143 551.192 502.623 549.539 496.61C549.511 496.511 549.464 496.418 549.4 496.338C549.337 496.257 549.258 496.19 549.168 496.141C549.079 496.092 548.981 496.061 548.879 496.05C548.778 496.04 548.676 496.05 548.579 496.08C523.659 503.58 495.979 504.34 471.109 495.16Z" stroke="#73BAE0" stroke-width="2"/>
<path d="M433.97 731.3C427.43 728.153 419.473 724.533 410.1 720.44C391.927 712.507 374.107 705.987 356.64 700.88C354.387 700.22 352.507 699.157 351 697.69C347.94 694.72 347.16 689.19 350.22 685.9C354.38 681.44 360.34 681.54 365.75 683.51C372.297 685.89 376.07 687.253 377.07 687.6C378.623 688.127 379.927 688.457 380.98 688.59C381.125 688.607 381.272 688.593 381.411 688.549C381.55 688.505 381.679 688.432 381.787 688.334C381.896 688.237 381.983 688.118 382.042 687.984C382.101 687.851 382.131 687.706 382.13 687.56C381.923 664.013 381.88 639.243 382 613.25C382.03 605.8 388.75 600.9 395.53 604.35C400.32 606.79 400.82 611.1 400.83 616.56C400.857 627.793 400.88 653.47 400.9 693.59C400.9 695.72 400.56 697 402.73 697.65C418.43 702.41 434.61 709.97 449.25 717.57C449.744 717.828 450.291 717.967 450.848 717.978C451.405 717.988 451.957 717.869 452.46 717.63C464.413 711.917 473.86 707.65 480.8 704.83C484.747 703.23 488.88 702.01 493.2 701.17C514.31 697.08 538.37 698.11 558.37 706.63C563.92 709 566.08 711.93 568.53 716.81C568.623 716.991 568.766 717.142 568.942 717.243C569.118 717.344 569.318 717.392 569.52 717.38C570.713 717.307 571.86 717.007 572.96 716.48C587.56 709.58 601.86 702.98 616.84 697.57C617.142 697.461 617.402 697.263 617.587 697.001C617.771 696.74 617.87 696.429 617.87 696.11C617.87 677.337 617.97 649.973 618.17 614.02C618.197 609.06 620.05 605.747 623.73 604.08C629.34 601.54 635.46 604.46 636.93 610.55C636.983 610.763 637.01 610.981 637.01 611.2L637.33 688.2C637.329 688.325 637.359 688.449 637.416 688.56C637.473 688.672 637.556 688.768 637.658 688.84C637.76 688.913 637.878 688.96 638.002 688.977C638.126 688.994 638.252 688.982 638.37 688.94C643.73 687.067 649.877 685.02 656.81 682.8C662.53 680.96 667.14 681.913 670.64 685.66C672.22 687.347 672.92 689.557 672.74 692.29C672.45 696.49 668.54 699.14 664.64 700.42C658.013 702.613 649.263 705.78 638.39 709.92C618.54 717.47 600.85 725.27 584.52 734.2C584.101 734.429 583.787 734.811 583.643 735.268C583.5 735.724 583.538 736.22 583.75 736.65C589.17 747.66 589.65 759.28 588.38 771.19C588.365 771.325 588.384 771.462 588.434 771.588C588.484 771.714 588.565 771.826 588.668 771.914C588.772 772.002 588.896 772.063 589.029 772.092C589.161 772.121 589.299 772.117 589.43 772.08C615.323 764.84 642.057 757.703 669.63 750.67C675.52 749.16 682.44 747 687.21 744.05C696.297 738.43 703.307 730.777 708.24 721.09C714.21 709.39 714.13 694.97 710.53 682.72C710.017 680.973 701.163 650.153 683.97 590.26C681.14 580.41 677.93 571.4 672.62 563.95C670.42 560.87 668.993 558.937 668.34 558.15C656.147 543.523 641.543 533.883 624.53 529.23C615.643 526.797 602.963 524.457 586.49 522.21C583.98 521.86 581.97 521.19 579.9 520.88C579.721 520.852 579.538 520.887 579.382 520.978C579.225 521.069 579.104 521.211 579.04 521.38C576.627 527.74 573.227 534.647 568.84 542.1C556.59 562.92 531.75 575.84 507.81 575.34C489.383 574.953 473.457 568.09 460.03 554.75C454.323 549.083 449.967 543.273 446.96 537.32C443.953 531.36 441.55 526.043 439.75 521.37C439.693 521.226 439.589 521.105 439.455 521.026C439.32 520.948 439.164 520.918 439.01 520.94C426.343 522.96 414.92 525.07 404.74 527.27C390.09 530.43 376.48 535.8 365.35 545.35C356.277 553.137 349.073 562.16 343.74 572.42C341.307 577.113 338.12 586.363 334.18 600.17C323.613 637.19 316.303 662.607 312.25 676.42C309.243 686.687 307.663 694.113 307.51 698.7C306.99 714.3 313.36 726.38 323.13 738.37C326.117 742.023 329.453 744.423 333.14 745.57C339.9 747.67 344.5 749.24 349.93 750.71C382.043 759.457 407.457 766.237 426.17 771.05C428.343 771.61 430.153 772.017 431.6 772.27C431.709 772.288 431.822 772.278 431.926 772.239C432.03 772.201 432.122 772.137 432.194 772.052C432.265 771.967 432.314 771.865 432.334 771.756C432.355 771.647 432.346 771.535 432.31 771.43C430.677 766.89 430.157 762.247 430.75 757.5C431.71 749.84 432.937 743.08 434.43 737.22C434.483 737.027 434.69 735.737 435.05 733.35C435.114 732.939 435.044 732.518 434.85 732.148C434.655 731.779 434.347 731.482 433.97 731.3Z" stroke="#54AFDF" stroke-width="2"/>
<path d="M565.61 745.14C563.02 746.83 559.9 749.62 556.79 751.25C541.563 759.203 525.193 761.293 507.68 757.52C503.22 756.56 496.92 754.36 498.47 748.62C498.575 748.224 498.759 747.853 499.01 747.53C502.67 742.783 507.667 740.573 514 740.9C520.7 741.25 531.07 742.06 536.45 739.69C542.19 737.15 547.43 733.603 552.17 729.05C552.256 728.967 552.324 728.867 552.371 728.756C552.417 728.646 552.44 728.526 552.439 728.406C552.438 728.286 552.413 728.166 552.365 728.055C552.317 727.944 552.247 727.844 552.16 727.76C550.62 726.293 548.747 725.117 546.54 724.23C532.54 718.59 516.62 717.56 502 719.18C485.5 721.01 467.01 728.59 455.07 740.55C452.817 742.81 451.363 744.867 450.71 746.72C449.21 750.973 448.72 756.213 449.24 762.44C449.9 770.35 457.39 776.42 464.39 778.87C468.977 780.47 474.08 781.703 479.7 782.57C497.687 785.363 515.947 785.727 534.48 783.66C541.58 782.873 548.743 781.433 555.97 779.34C562.74 777.37 567.98 773.86 570.43 767.85C573.67 759.917 572.657 752.45 567.39 745.45C567.188 745.182 566.892 745 566.561 744.943C566.231 744.885 565.89 744.956 565.61 745.14Z" stroke="#73BAE0" stroke-width="2"/>
<path d="M505.96 821.03C485.94 812.89 472.07 808.27 449.24 800.49C441.474 797.843 430.127 794.553 415.2 790.62C392.147 784.547 372.18 779.243 355.3 774.71C342.7 771.33 331.474 768.477 321.62 766.15C318.034 765.303 313.24 764.833 307.24 764.74C279.64 764.29 257.43 789.98 260.56 817.07C263 838.26 279.2 854.66 299.2 859.55C303.66 860.637 311.907 861.153 323.94 861.1C357.36 860.953 418.737 860.943 508.07 861.07C508.156 861.07 508.24 861.053 508.319 861.019C508.397 860.986 508.468 860.937 508.527 860.875C508.586 860.813 508.632 860.74 508.661 860.66C508.691 860.58 508.705 860.495 508.7 860.41L506.75 822.14C506.739 821.899 506.659 821.666 506.518 821.469C506.378 821.272 506.185 821.12 505.96 821.03Z" stroke="#54AFDF" stroke-width="2"/>
<path d="M516.02 805.88C516.007 805.878 515.994 805.879 515.981 805.882C515.968 805.885 515.956 805.891 515.945 805.899C515.935 805.907 515.926 805.917 515.919 805.928C515.912 805.939 515.907 805.952 515.905 805.965C515.903 805.978 515.904 805.992 515.907 806.004C515.91 806.017 515.916 806.029 515.924 806.04C515.932 806.051 515.942 806.06 515.953 806.067C515.965 806.074 515.977 806.078 515.99 806.08C533.81 812.26 549.46 817.53 562.94 821.89C574.98 825.79 586.37 830.54 598.46 834.37C606.787 837.003 612.467 839.31 615.5 841.29C622.62 845.95 627.854 851.487 631.2 857.9C631.607 858.68 631.754 859.62 631.64 860.72C631.636 860.761 631.64 860.802 631.652 860.84C631.665 860.879 631.685 860.915 631.711 860.945C631.737 860.975 631.77 860.999 631.806 861.016C631.842 861.032 631.881 861.04 631.92 861.04C657.927 860.873 681.15 860.86 701.59 861C709.197 861.053 714.62 860.717 717.86 859.99C732.18 856.77 744.45 849.23 752.19 836.77C758.864 826.043 761.2 814.887 759.2 803.3C755.75 783.23 738.56 766.86 718.14 765.11C710.247 764.43 702.657 765.017 695.37 766.87C661.364 775.523 628.217 784.117 595.93 792.65C580.204 796.803 567.167 800.04 556.82 802.36C547.434 804.46 538.907 805.61 531.24 805.81C528.16 805.89 523.087 805.913 516.02 805.88Z" stroke="#54AFDF" stroke-width="2"/>
<path d="M606.22 856.28C606.213 856.215 606.188 856.153 606.148 856.101C606.107 856.05 606.052 856.011 605.99 855.99L525.57 828.35C525.517 828.332 525.461 828.327 525.406 828.336C525.351 828.345 525.299 828.367 525.254 828.4C525.21 828.434 525.174 828.478 525.151 828.528C525.127 828.579 525.117 828.634 525.12 828.69L527.37 860.79C527.375 860.877 527.413 860.958 527.476 861.018C527.539 861.077 527.623 861.11 527.71 861.11H606.19C606.235 861.109 606.28 861.098 606.321 861.079C606.363 861.061 606.4 861.034 606.431 861C606.462 860.966 606.485 860.927 606.501 860.884C606.516 860.841 606.522 860.796 606.52 860.75L606.22 856.28Z" stroke="#73BAE0" stroke-width="2"/>
<path d="M823.421 231.71C823.141 231.137 822.97 230.49 822.91 229.77C822.497 224.677 822.141 220.63 821.841 217.63C820.501 204.43 814.85 192.63 803.47 185.08C784.33 172.36 762.661 186.41 753.071 203.81C751.017 207.53 749.487 210.337 748.481 212.23C748.137 212.872 747.605 213.393 746.957 213.722C746.31 214.051 745.578 214.173 744.861 214.07C743.321 213.843 741.464 213.653 739.291 213.5C725.831 212.54 712.061 218.77 706.491 231.48C700.301 245.58 703.761 261.05 715.921 270.05C720.674 273.577 726.384 275.32 733.051 275.28C764.931 275.087 798.167 275.047 832.761 275.16C848.431 275.21 859.471 264.31 855.081 248.12C853.901 243.753 851.104 239.583 846.691 235.61C840.311 229.86 834.231 231.54 826.261 233.11C825.699 233.222 825.116 233.145 824.603 232.892C824.089 232.639 823.674 232.224 823.421 231.71Z" stroke="#73BAE0" stroke-width="2"/>
<path d="M278.099 230.5C277.437 230.389 276.819 230.094 276.315 229.649C275.811 229.203 275.442 228.625 275.249 227.98C273.269 221.3 271.579 215.14 267.909 209.71C258.849 196.3 245.229 187.17 228.879 193.1C224.859 194.553 220.793 197.327 216.679 201.42C210.939 207.12 206.629 213.34 204.519 221.08C203.246 225.747 202.479 228.46 202.219 229.22C200.929 232.97 195.609 232.08 192.779 231.15C189.253 229.997 185.226 230.603 180.699 232.97C172.553 237.237 167.886 243.473 166.699 251.68C165.379 260.87 169.429 270.56 178.289 274.06C180.263 274.833 183.806 275.21 188.919 275.19C230.779 275.05 264.643 275.067 290.509 275.24C295.583 275.28 300.043 273.5 303.889 269.9C308.969 265.14 311.409 260.33 311.719 253.75C311.846 251.097 311.859 249.343 311.759 248.49C310.379 236.16 300.119 229.17 288.479 229.39C286.313 229.437 283.799 229.787 280.939 230.44C280.046 230.647 279.099 230.667 278.099 230.5Z" stroke="#73BAE0" stroke-width="2"/>
<path d="M165.981 249.67L168.291 242.14C168.295 242.125 168.297 242.109 168.295 242.093C168.294 242.078 168.289 242.062 168.282 242.049C168.274 242.035 168.264 242.022 168.252 242.012C168.24 242.002 168.226 241.995 168.211 241.99L168.171 241.98C167.912 241.903 167.544 242.221 167.147 242.863C166.749 243.506 166.355 244.422 166.051 245.41L165.961 245.7C165.809 246.193 165.684 246.688 165.594 247.158C165.503 247.628 165.448 248.064 165.433 248.439C165.417 248.814 165.44 249.123 165.502 249.346C165.563 249.569 165.661 249.703 165.791 249.74L165.831 249.75C165.846 249.755 165.862 249.756 165.877 249.755C165.893 249.753 165.908 249.749 165.922 249.741C165.936 249.734 165.949 249.724 165.959 249.712C165.969 249.699 165.976 249.685 165.981 249.67Z" stroke="#54AFDF" stroke-width="2"/>
<path d="M479.45 335.22C471.73 341.91 461.94 346.33 452.59 339.47C448.8 336.69 446.96 331.1 441.29 331.34C427.05 331.95 430.63 348.6 437.5 354.73C449.52 365.45 468.07 366.29 482.09 358.08C488.41 354.39 497.63 345.77 493.61 337.89C490.95 332.68 483.78 331.47 479.45 335.22Z" stroke="#73BAE0" stroke-width="2"/>
<path d="M590.38 335.09C584.29 328.56 578.23 332.03 572.65 337.28C566.25 343.31 558.18 343.99 550.35 339.62C549.83 339.327 547.51 337.633 543.39 334.54C540.17 332.12 534.65 332.39 531.59 335.11C524.47 341.43 532.83 351.91 538.46 356.08C550.66 365.09 566.89 366.27 580.4 358.88C587.38 355.053 591.13 349.323 591.65 341.69C591.817 339.29 591.594 337.397 590.98 336.01C590.828 335.672 590.626 335.362 590.38 335.09Z" stroke="#73BAE0" stroke-width="2"/>
<path d="M509.3 415.32C502.82 415.35 495.661 413.55 490.691 409.58C487.204 406.787 485.271 405.25 484.891 404.97C479.241 400.81 471.221 404.59 470.451 411.5C469.691 418.27 473.671 422.98 479.211 426.26C488.711 431.867 498.771 434.647 509.391 434.6C520.011 434.547 530.04 431.673 539.48 425.98C545 422.65 548.93 417.91 548.11 411.14C547.28 404.24 539.22 400.53 533.61 404.75C533.237 405.03 531.317 406.58 527.85 409.4C522.92 413.43 515.77 415.29 509.3 415.32Z" stroke="#73BAE0" stroke-width="2"/>
<path d="M793.14 538.88C788.42 544.49 785.62 547.41 784.45 552.31C784.281 553.015 783.925 553.661 783.419 554.181C782.914 554.7 782.279 555.073 781.58 555.26C778.873 555.98 776.467 556.527 774.36 556.9C765.02 558.53 757.1 566.04 756.69 576C756.42 582.72 757.41 588.23 763.57 591.7C767.143 593.707 771.457 594.727 776.51 594.76C792.717 594.86 816.717 594.897 848.51 594.87C854.237 594.863 858.99 593.23 862.77 589.97C863.023 589.751 863.254 589.503 863.46 589.23C868.92 581.97 867.77 571.69 860.5 565.96C857.3 563.45 852.9 561.77 848.5 562.63C847.293 562.863 845.303 563.007 842.53 563.06C839.95 563.1 838.307 561.967 837.6 559.66C836.58 556.353 835.347 551.323 833.9 544.57C832.88 539.797 830.48 535.967 826.7 533.08C814.57 523.8 802.16 528.13 793.14 538.88Z" stroke="#73BAE0" stroke-width="2"/>
<path d="M174.49 561.37H173.47C173.311 561.37 173.152 561.394 173 561.44C170.6 562.2 168.593 562.397 166.98 562.03C160.9 560.65 151.81 561.99 147.87 567.02C141.25 575.44 144.34 585.31 151.01 592.65C151.314 592.981 151.673 593.255 152.07 593.46C154.87 594.913 157.266 595.627 159.26 595.6C186.72 595.16 213.383 595.047 239.25 595.26C241.603 595.28 244.51 594.837 247.97 593.93C248.373 593.824 248.749 593.644 249.08 593.4C261.06 584.64 254.43 565.17 240.24 564.82C235.35 564.69 229.29 566.2 226.02 561.65C225.769 561.301 225.592 560.902 225.5 560.48C225.206 559.067 224.963 555.817 224.77 550.73C224.71 549.11 224.023 546.97 222.71 544.31C218.13 535.06 209.4 528.08 198.77 528.74C193.076 529.093 188.456 531.56 184.91 536.14C182.863 538.793 181.59 540.79 181.09 542.13C178.923 547.95 177.413 551.757 176.56 553.55C176.39 553.903 176.321 554.297 176.36 554.69C176.546 556.73 176.163 558.8 175.21 560.9C175.148 561.04 175.047 561.158 174.919 561.242C174.792 561.325 174.642 561.37 174.49 561.37Z" stroke="#73BAE0" stroke-width="2"/>
<path d="M250.459 571.91C251.039 572.61 251.582 573.353 252.089 574.14C252.102 574.152 252.118 574.159 252.136 574.162C252.153 574.165 252.171 574.162 252.187 574.155C252.203 574.147 252.217 574.135 252.226 574.12C252.235 574.105 252.24 574.088 252.239 574.07C251.939 573.117 251.489 572.277 250.889 571.55C250.296 570.823 249.559 570.22 248.679 569.74C248.661 569.734 248.641 569.734 248.623 569.74C248.604 569.746 248.589 569.757 248.577 569.773C248.566 569.789 248.56 569.808 248.561 569.827C248.561 569.846 248.567 569.865 248.579 569.88C249.252 570.527 249.879 571.203 250.459 571.91Z" stroke="#73BAE0" stroke-width="2"/>
<path d="M719.109 745.12C725.499 745.57 731.939 746.86 737.699 749.12C760.759 758.16 774.873 775.21 780.039 800.27C781.473 807.21 781.783 813.55 780.969 819.29C780.183 824.857 778.436 830.98 775.729 837.66C766.549 860.32 744.449 876.54 720.709 881.16C715.136 882.24 705.463 882.743 691.689 882.67C677.056 882.583 556.249 882.577 329.269 882.65C314.309 882.65 304.323 882.167 299.309 881.2C277.543 877.007 260.383 864.89 247.829 844.85C239.419 831.45 237.249 813.18 240.689 797.95C242.889 788.23 248.139 775.3 255.389 767.39C267.216 754.49 281.906 747.06 299.459 745.1C299.631 745.08 299.795 745.017 299.936 744.917C300.077 744.817 300.191 744.683 300.266 744.528C300.342 744.373 300.377 744.201 300.369 744.028C300.361 743.855 300.309 743.688 300.219 743.54C288.669 724.85 283.489 706.74 288.859 684.82C293.149 667.29 298.879 648.76 304.579 628.58C312.419 600.833 317.369 583.78 319.429 577.42C324.116 562.96 331.726 549.89 342.259 538.21C355.699 523.303 371.949 513.637 391.009 509.21C408.556 505.137 425.663 501.947 442.329 499.64C445.929 499.14 447.969 497.64 448.439 493.98C449.449 485.97 446.459 482.16 439.729 477.77C436.889 475.923 434.033 473.69 431.159 471.07C419.406 460.343 409.816 447.857 402.389 433.61C398.583 426.31 395.173 418.913 392.159 411.42C391.959 410.92 391.639 410.476 391.228 410.126C390.817 409.776 390.327 409.53 389.799 409.41C375.659 406.163 365.036 398.41 357.929 386.15C351.879 375.72 350.559 362.85 351.759 350.99C352.869 340.05 358.549 331.38 366.499 324.01C367.002 323.54 367.38 322.953 367.596 322.301C367.813 321.649 367.862 320.954 367.739 320.28C365.406 307.427 363.696 295.24 362.609 283.72C362.403 281.547 362.333 276.597 362.399 268.87C362.569 248.36 368.649 227.18 377.349 208.89C386.683 189.283 400.859 174.137 419.879 163.45C435.009 154.95 449.819 149.35 466.939 147.14C490.313 144.127 512.876 145.277 534.629 150.59C558.739 156.48 581.419 169.81 595.629 190.79C595.983 191.303 596.716 191.93 597.829 192.67C598.219 192.935 598.653 193.128 599.109 193.24C611.999 196.6 624.049 203.06 633.259 212.36C649.319 228.58 656.999 253.2 656.499 276C656.189 289.74 653.619 305.47 651.689 317.25C651.529 318.223 651.439 319.357 651.419 320.65C651.41 321.153 651.518 321.652 651.735 322.107C651.952 322.561 652.272 322.96 652.669 323.27C662.539 330.98 668.659 340.67 669.489 353.49C670.249 365.17 668.759 375.85 662.989 386.23C657.756 395.643 650.073 402.377 639.939 406.43C637.133 407.55 634.019 408.673 630.599 409.8C627.719 410.74 625.509 417.47 622.789 423.57C612.469 446.72 597.249 467.05 575.829 480.57C570.879 483.69 570.959 492.59 573.119 496.89C574.529 499.7 579.449 500.13 583.169 500.42C584.216 500.5 585.939 500.743 588.339 501.15C602.473 503.543 615.389 506.04 627.089 508.64C640.409 511.61 651.299 516.17 662.579 524.53C677.959 535.93 690.599 551.29 698.349 568.6C700.156 572.633 702.489 579.67 705.349 589.71C713.423 618.09 721.563 646.683 729.769 675.49C730.969 679.69 732.429 685.47 733.039 689.97C735.759 709.943 730.926 727.9 718.539 743.84C718.449 743.953 718.392 744.089 718.374 744.232C718.356 744.375 718.377 744.521 718.436 744.653C718.495 744.785 718.589 744.898 718.707 744.981C718.826 745.063 718.965 745.111 719.109 745.12ZM597.759 214.75C597.766 214.75 598.796 215.043 600.849 215.63C600.914 215.649 600.969 215.691 601.004 215.748C601.039 215.806 601.052 215.874 601.039 215.94L601.029 215.95C601.015 216.025 600.974 216.091 600.915 216.138C600.856 216.184 600.783 216.206 600.709 216.2C599.456 216.107 596.906 215.383 593.059 214.03C592.186 213.73 589.956 213.123 586.369 212.21C584.816 211.817 583.709 211.16 583.049 210.24C580.269 206.33 577.829 203.58 575.029 199.28C566.919 186.86 553.389 177.96 539.469 173.27C528.049 169.417 516.443 167.137 504.649 166.43C495.663 165.89 487.369 165.823 479.769 166.23C461.489 167.203 444.819 172.32 429.759 181.58C413.759 191.41 402.309 206.1 394.899 222.92C385.446 244.34 382.079 266.783 384.799 290.25C384.879 290.937 384.896 291.937 384.849 293.25C384.836 293.567 384.887 293.883 384.999 294.18C385.769 296.29 385.459 298.58 386.209 300.5C386.244 300.595 386.309 300.677 386.394 300.732C386.48 300.787 386.58 300.814 386.682 300.807C386.783 300.8 386.88 300.761 386.957 300.695C387.034 300.629 387.087 300.539 387.109 300.44C388.403 294.967 389.703 290.077 391.009 285.77C396.189 268.72 406.239 252.56 418.439 239.45C421.509 236.15 424.169 234.36 428.179 236.85C435.479 241.39 440.319 244.57 447.929 246.58C478.749 254.68 511.079 253.76 541.629 244.63C553.299 241.14 563.519 233.21 571.939 226.39C572.397 226.016 572.939 225.757 573.518 225.635C574.098 225.514 574.698 225.532 575.269 225.69C576.969 226.15 578.486 226.98 579.819 228.18C592.079 239.24 598.919 245.487 600.339 246.92C601.186 247.78 603.119 249.687 606.139 252.64C619.039 265.26 627.629 282.46 632.069 299.98C632.085 300.059 632.128 300.129 632.191 300.179C632.254 300.229 632.333 300.255 632.413 300.253C632.493 300.25 632.57 300.22 632.63 300.166C632.689 300.112 632.728 300.039 632.739 299.96C637.489 273.36 636.769 245.95 616.749 225.56C613.996 222.753 611.896 221 610.449 220.3C606.456 218.36 604.086 217.103 603.339 216.53C602.106 215.57 600.329 214.817 598.009 214.27C597.949 214.257 597.886 214.263 597.83 214.289C597.774 214.315 597.728 214.359 597.7 214.414C597.671 214.469 597.662 214.531 597.672 214.592C597.683 214.653 597.714 214.708 597.759 214.75ZM427.329 262.54C426.897 262.428 426.443 262.435 426.015 262.56C425.587 262.685 425.201 262.923 424.899 263.25C422.906 265.39 421.186 267.88 419.739 270.72C414.293 281.413 410.506 293.107 408.379 305.8C406.866 314.873 406.093 321.703 406.059 326.29C406.019 332.517 406.003 338.997 406.009 345.73C406.009 345.894 405.977 346.056 405.913 346.206C405.849 346.357 405.756 346.493 405.638 346.607C405.52 346.721 405.381 346.81 405.228 346.869C405.076 346.928 404.913 346.955 404.749 346.95C404.149 346.93 403.683 346.837 403.349 346.67C397.803 343.91 393.326 341.707 389.919 340.06C386.679 338.49 378.839 340.82 377.249 343.77C376.223 345.67 375.063 348.24 373.769 351.48C371.559 357.03 371.349 362 372.689 367.09C375.599 378.08 385.089 387.17 396.539 388.23C399.213 388.483 402.039 388.563 405.019 388.47C405.705 388.448 406.378 388.655 406.932 389.059C407.487 389.463 407.89 390.041 408.079 390.7C411.246 401.787 415.456 412.4 420.709 422.54C434.019 448.23 457.629 469.45 485.799 476.36C514.066 483.293 540.306 478.76 564.519 462.76C574.379 456.253 582.116 449.42 587.729 442.26C599.399 427.39 608.039 408.08 614.619 389.42C614.745 389.062 614.986 388.757 615.305 388.552C615.624 388.348 616.002 388.255 616.379 388.29C627.019 389.277 635.759 385.81 642.599 377.89C646.166 373.757 648.269 369.64 648.909 365.54C650.196 357.38 648.459 349.667 643.699 342.4C643.199 341.64 642.47 341.062 641.619 340.75C635.689 338.57 631.039 340.35 625.589 343.2C623.229 344.44 615.419 346.85 615.159 342.27C614.299 327.52 613.709 315.61 610.629 303.38C605.056 281.227 592.853 263.627 574.019 250.58C573.86 250.467 573.669 250.41 573.474 250.415C573.28 250.42 573.092 250.489 572.939 250.61C569.473 253.39 565.613 255.813 561.359 257.88C545.406 265.633 528.196 270.577 509.729 272.71C492.043 274.757 472.659 274.103 451.579 270.75C444.469 269.62 438.619 267.09 432.869 264.64C430.183 263.5 428.336 262.8 427.329 262.54ZM471.109 495.16C471.042 495.136 470.971 495.126 470.9 495.132C470.829 495.138 470.76 495.159 470.699 495.194C470.637 495.23 470.583 495.278 470.542 495.336C470.501 495.394 470.472 495.46 470.459 495.53C469.053 503.123 466.053 509.723 461.459 515.33C461.21 515.634 461.046 515.999 460.983 516.389C460.919 516.779 460.96 517.179 461.099 517.55C466.709 532.34 475.469 543.54 490.369 550.22C501.129 555.05 514.179 555.24 525.239 551.14C534.109 547.86 542.879 542.11 548.439 534.18C552.573 528.3 555.769 521.933 558.029 515.08C558.137 514.763 558.165 514.423 558.111 514.09C558.057 513.757 557.923 513.441 557.719 513.17C553.919 508.143 551.193 502.623 549.539 496.61C549.511 496.511 549.464 496.418 549.401 496.338C549.337 496.257 549.258 496.19 549.169 496.141C549.079 496.091 548.981 496.061 548.88 496.05C548.778 496.04 548.676 496.05 548.579 496.08C523.659 503.58 495.979 504.34 471.109 495.16ZM433.969 731.3C427.429 728.153 419.473 724.533 410.099 720.44C391.926 712.507 374.106 705.987 356.639 700.88C354.386 700.22 352.506 699.157 350.999 697.69C347.939 694.72 347.159 689.19 350.219 685.9C354.379 681.44 360.339 681.54 365.749 683.51C372.296 685.89 376.069 687.253 377.069 687.6C378.623 688.127 379.926 688.457 380.979 688.59C381.124 688.607 381.271 688.593 381.41 688.549C381.55 688.505 381.678 688.432 381.787 688.334C381.895 688.237 381.982 688.117 382.041 687.984C382.1 687.851 382.13 687.706 382.129 687.56C381.923 664.013 381.879 639.243 381.999 613.25C382.029 605.8 388.749 600.9 395.529 604.35C400.319 606.79 400.819 611.1 400.829 616.56C400.856 627.793 400.879 653.47 400.899 693.59C400.899 695.72 400.559 697 402.729 697.65C418.429 702.41 434.609 709.97 449.249 717.57C449.743 717.828 450.29 717.967 450.847 717.978C451.404 717.988 451.956 717.869 452.459 717.63C464.413 711.917 473.859 707.65 480.799 704.83C484.746 703.23 488.879 702.01 493.199 701.17C514.309 697.08 538.369 698.11 558.369 706.63C563.919 709 566.079 711.93 568.529 716.81C568.622 716.991 568.765 717.142 568.941 717.243C569.117 717.344 569.318 717.392 569.519 717.38C570.713 717.307 571.859 717.007 572.959 716.48C587.559 709.58 601.859 702.98 616.839 697.57C617.141 697.461 617.402 697.262 617.586 697.001C617.77 696.74 617.869 696.429 617.869 696.11C617.869 677.337 617.969 649.973 618.169 614.02C618.196 609.06 620.049 605.747 623.729 604.08C629.339 601.54 635.459 604.46 636.929 610.55C636.982 610.763 637.009 610.981 637.009 611.2L637.329 688.2C637.329 688.325 637.358 688.449 637.415 688.56C637.472 688.672 637.555 688.768 637.657 688.84C637.759 688.913 637.877 688.96 638.001 688.977C638.125 688.994 638.251 688.982 638.369 688.94C643.729 687.067 649.876 685.02 656.809 682.8C662.529 680.96 667.139 681.913 670.639 685.66C672.219 687.347 672.919 689.557 672.739 692.29C672.449 696.49 668.539 699.14 664.639 700.42C658.013 702.613 649.263 705.78 638.389 709.92C618.539 717.47 600.849 725.27 584.519 734.2C584.1 734.428 583.786 734.811 583.643 735.268C583.499 735.724 583.537 736.219 583.749 736.65C589.169 747.66 589.649 759.28 588.379 771.19C588.364 771.325 588.383 771.462 588.433 771.588C588.483 771.714 588.564 771.826 588.668 771.914C588.771 772.002 588.895 772.063 589.028 772.092C589.161 772.121 589.298 772.117 589.429 772.08C615.323 764.84 642.056 757.703 669.629 750.67C675.519 749.16 682.439 747 687.209 744.05C696.296 738.43 703.306 730.777 708.239 721.09C714.209 709.39 714.129 694.97 710.529 682.72C710.016 680.973 701.163 650.153 683.969 590.26C681.139 580.41 677.929 571.4 672.619 563.95C670.419 560.87 668.993 558.937 668.339 558.15C656.146 543.523 641.543 533.883 624.529 529.23C615.643 526.797 602.963 524.457 586.489 522.21C583.979 521.86 581.969 521.19 579.899 520.88C579.72 520.852 579.537 520.887 579.381 520.978C579.224 521.069 579.104 521.211 579.039 521.38C576.626 527.74 573.226 534.647 568.839 542.1C556.589 562.92 531.749 575.84 507.809 575.34C489.383 574.953 473.456 568.09 460.029 554.75C454.323 549.083 449.966 543.273 446.959 537.32C443.953 531.36 441.549 526.043 439.749 521.37C439.692 521.225 439.588 521.104 439.454 521.026C439.32 520.948 439.163 520.918 439.009 520.94C426.343 522.96 414.919 525.07 404.739 527.27C390.089 530.43 376.479 535.8 365.349 545.35C356.276 553.137 349.073 562.16 343.739 572.42C341.306 577.113 338.119 586.363 334.179 600.17C323.613 637.19 316.303 662.607 312.249 676.42C309.243 686.687 307.663 694.113 307.509 698.7C306.989 714.3 313.359 726.38 323.129 738.37C326.116 742.023 329.453 744.423 333.139 745.57C339.899 747.67 344.499 749.24 349.929 750.71C382.043 759.457 407.456 766.237 426.169 771.05C428.343 771.61 430.153 772.017 431.599 772.27C431.709 772.288 431.821 772.278 431.925 772.239C432.029 772.201 432.122 772.137 432.193 772.052C432.265 771.967 432.313 771.865 432.333 771.756C432.354 771.647 432.345 771.535 432.309 771.43C430.676 766.89 430.156 762.247 430.749 757.5C431.709 749.84 432.936 743.08 434.429 737.22C434.483 737.027 434.689 735.737 435.049 733.35C435.114 732.939 435.043 732.518 434.849 732.148C434.654 731.779 434.346 731.482 433.969 731.3ZM565.609 745.14C563.019 746.83 559.899 749.62 556.789 751.25C541.563 759.203 525.193 761.293 507.679 757.52C503.219 756.56 496.919 754.36 498.469 748.62C498.575 748.224 498.758 747.853 499.009 747.53C502.669 742.783 507.666 740.573 513.999 740.9C520.699 741.25 531.069 742.06 536.449 739.69C542.189 737.15 547.429 733.603 552.169 729.05C552.255 728.967 552.324 728.867 552.37 728.756C552.416 728.646 552.44 728.526 552.439 728.406C552.438 728.286 552.413 728.166 552.365 728.055C552.317 727.944 552.247 727.844 552.159 727.76C550.619 726.293 548.746 725.117 546.539 724.23C532.539 718.59 516.619 717.56 501.999 719.18C485.499 721.01 467.009 728.59 455.069 740.55C452.816 742.81 451.363 744.867 450.709 746.72C449.209 750.973 448.719 756.213 449.239 762.44C449.899 770.35 457.389 776.42 464.389 778.87C468.976 780.47 474.079 781.703 479.699 782.57C497.686 785.363 515.946 785.727 534.479 783.66C541.579 782.873 548.743 781.433 555.969 779.34C562.739 777.37 567.979 773.86 570.429 767.85C573.669 759.917 572.656 752.45 567.389 745.45C567.188 745.182 566.891 745 566.561 744.943C566.23 744.885 565.89 744.956 565.609 745.14ZM505.959 821.03C485.939 812.89 472.069 808.27 449.239 800.49C441.473 797.843 430.126 794.553 415.199 790.62C392.146 784.547 372.179 779.243 355.299 774.71C342.699 771.33 331.473 768.477 321.619 766.15C318.033 765.303 313.239 764.833 307.239 764.74C279.639 764.29 257.429 789.98 260.559 817.07C262.999 838.26 279.199 854.66 299.199 859.55C303.659 860.637 311.906 861.153 323.939 861.1C357.359 860.953 418.736 860.943 508.069 861.07C508.155 861.07 508.239 861.053 508.318 861.019C508.396 860.986 508.467 860.937 508.526 860.875C508.585 860.813 508.63 860.74 508.66 860.66C508.69 860.58 508.703 860.495 508.699 860.41L506.749 822.14C506.738 821.899 506.657 821.666 506.517 821.469C506.377 821.272 506.184 821.12 505.959 821.03ZM516.019 805.88C516.006 805.878 515.993 805.879 515.98 805.882C515.967 805.885 515.955 805.891 515.944 805.899C515.934 805.907 515.924 805.917 515.918 805.928C515.911 805.939 515.906 805.952 515.904 805.965C515.902 805.978 515.903 805.992 515.906 806.004C515.909 806.017 515.915 806.029 515.923 806.04C515.931 806.051 515.941 806.06 515.952 806.067C515.964 806.073 515.976 806.078 515.989 806.08C533.809 812.26 549.459 817.53 562.939 821.89C574.979 825.79 586.369 830.54 598.459 834.37C606.786 837.003 612.466 839.31 615.499 841.29C622.619 845.95 627.853 851.487 631.199 857.9C631.606 858.68 631.753 859.62 631.639 860.72C631.635 860.761 631.639 860.802 631.651 860.84C631.664 860.879 631.684 860.915 631.71 860.945C631.736 860.975 631.769 860.999 631.805 861.016C631.841 861.032 631.88 861.04 631.919 861.04C657.926 860.873 681.149 860.86 701.589 861C709.196 861.053 714.619 860.717 717.859 859.99C732.179 856.77 744.449 849.23 752.189 836.77C758.863 826.043 761.199 814.887 759.199 803.3C755.749 783.23 738.559 766.86 718.139 765.11C710.246 764.43 702.656 765.017 695.369 766.87C661.363 775.523 628.216 784.117 595.929 792.65C580.203 796.803 567.166 800.04 556.819 802.36C547.433 804.46 538.906 805.61 531.239 805.81C528.159 805.89 523.086 805.913 516.019 805.88ZM606.219 856.28C606.213 856.215 606.188 856.152 606.147 856.101C606.106 856.049 606.052 856.011 605.989 855.99L525.569 828.35C525.517 828.332 525.46 828.327 525.405 828.336C525.35 828.345 525.298 828.367 525.254 828.4C525.209 828.434 525.174 828.478 525.15 828.528C525.127 828.579 525.116 828.634 525.119 828.69L527.369 860.79C527.374 860.877 527.412 860.958 527.476 861.018C527.539 861.077 527.623 861.11 527.709 861.11H606.189C606.235 861.109 606.28 861.098 606.321 861.079C606.363 861.06 606.4 861.033 606.431 861C606.461 860.966 606.485 860.927 606.5 860.884C606.516 860.841 606.522 860.795 606.519 860.75L606.219 856.28Z" fill="#3085C0"/>
<path d="M841.679 210.2C842.141 210.988 842.895 211.563 843.779 211.8C851.849 213.97 859.179 216.64 865.199 222.18C883.419 238.91 882.119 267.14 864.499 283.84C857.939 290.05 850.029 293.53 841.199 295.11C835.499 296.13 828.249 296.58 821.569 296.59C775.656 296.597 747.633 296.58 737.499 296.54C731.189 296.51 723.389 295.83 717.339 293.69C692.379 284.87 679.389 260.55 684.429 234.53C687.236 220.023 694.906 208.89 707.439 201.13C711.719 198.483 717.376 196.177 724.409 194.21C728.059 193.19 731.829 193.01 735.979 192.24C736.357 192.168 736.716 192.018 737.033 191.799C737.35 191.58 737.618 191.298 737.819 190.97C749.909 171.23 771.349 156.42 795.379 159.92C803.513 161.107 811.199 164.62 818.439 170.46C830.839 180.46 837.159 193.72 841.159 209.08C841.239 209.373 841.413 209.747 841.679 210.2ZM823.419 231.71C823.139 231.137 822.969 230.49 822.909 229.77C822.496 224.677 822.139 220.63 821.839 217.63C820.499 204.43 814.849 192.63 803.469 185.08C784.329 172.36 762.659 186.41 753.069 203.81C751.016 207.53 749.486 210.337 748.479 212.23C748.135 212.872 747.604 213.393 746.956 213.722C746.309 214.051 745.576 214.173 744.859 214.07C743.319 213.843 741.463 213.653 739.289 213.5C725.829 212.54 712.059 218.77 706.489 231.48C700.299 245.58 703.759 261.05 715.919 270.05C720.673 273.577 726.383 275.32 733.049 275.28C764.929 275.087 798.166 275.047 832.759 275.16C848.429 275.21 859.469 264.31 855.079 248.12C853.899 243.753 851.103 239.583 846.689 235.61C840.309 229.86 834.229 231.54 826.259 233.11C825.698 233.222 825.115 233.145 824.602 232.892C824.088 232.639 823.672 232.223 823.419 231.71Z" fill="#3085C0"/>
<path d="M598.01 214.27C600.33 214.817 602.107 215.57 603.34 216.53C604.087 217.103 606.457 218.36 610.45 220.3C611.897 221 613.997 222.753 616.75 225.56C636.77 245.95 637.49 273.36 632.74 299.96C632.729 300.04 632.69 300.113 632.631 300.166C632.571 300.22 632.494 300.25 632.414 300.253C632.334 300.255 632.255 300.229 632.192 300.179C632.129 300.129 632.086 300.059 632.07 299.98C627.63 282.46 619.04 265.26 606.14 252.64C603.12 249.687 601.187 247.78 600.34 246.92C598.92 245.487 592.08 239.24 579.82 228.18C578.487 226.98 576.97 226.15 575.27 225.69C574.699 225.532 574.098 225.514 573.519 225.635C572.94 225.757 572.398 226.016 571.94 226.39C563.52 233.21 553.3 241.14 541.63 244.63C511.08 253.76 478.75 254.68 447.93 246.58C440.32 244.57 435.48 241.39 428.18 236.85C424.17 234.36 421.51 236.15 418.44 239.45C406.24 252.56 396.19 268.72 391.01 285.77C389.704 290.077 388.404 294.967 387.11 300.44C387.088 300.539 387.035 300.629 386.958 300.695C386.881 300.761 386.784 300.8 386.683 300.807C386.581 300.814 386.481 300.788 386.395 300.732C386.31 300.677 386.245 300.595 386.21 300.5C385.46 298.58 385.77 296.29 385 294.18C384.888 293.883 384.837 293.567 384.85 293.25C384.897 291.937 384.88 290.937 384.8 290.25C382.08 266.783 385.447 244.34 394.9 222.92C402.31 206.1 413.76 191.41 429.76 181.58C444.82 172.32 461.49 167.203 479.77 166.23C487.37 165.823 495.664 165.89 504.65 166.43C516.444 167.137 528.05 169.417 539.47 173.27C553.39 177.96 566.92 186.86 575.03 199.28C577.83 203.58 580.27 206.33 583.05 210.24C583.71 211.16 584.817 211.817 586.37 212.21C589.957 213.123 592.187 213.73 593.06 214.03C596.907 215.383 599.457 216.107 600.71 216.2C600.784 216.206 600.857 216.184 600.916 216.138C600.975 216.092 601.016 216.025 601.03 215.95L601.04 215.94C601.053 215.874 601.04 215.806 601.005 215.748C600.97 215.691 600.915 215.649 600.85 215.63C598.797 215.043 597.767 214.75 597.76 214.75C597.715 214.708 597.684 214.653 597.673 214.592C597.663 214.531 597.672 214.469 597.701 214.414C597.729 214.359 597.775 214.315 597.831 214.289C597.887 214.263 597.95 214.257 598.01 214.27Z" fill="#77D9FE"/>
<path d="M290.89 207.66C291.191 208.19 291.612 208.641 292.119 208.976C292.627 209.312 293.206 209.522 293.81 209.59C315.21 211.94 330.17 226.22 332.98 247.58C333.627 252.507 333.357 257.423 332.17 262.33C328.08 279.24 315.62 290.96 298.83 295.05C294.12 296.2 288.03 296.59 282.35 296.6C260.064 296.66 227.46 296.633 184.54 296.52C175.88 296.493 167.76 293.37 160.18 287.15C149.087 278.043 143.79 265.973 144.29 250.94C145.04 228.53 162.64 213.15 183.82 210.15C184.452 210.061 185.051 209.816 185.561 209.437C186.071 209.057 186.477 208.556 186.74 207.98C191.42 197.847 197.853 189.393 206.04 182.62C213.35 176.59 224.49 171.89 234.25 170.94C250.13 169.41 265.66 175.36 276.7 187.07C281.574 192.23 285.217 197.06 287.63 201.56C289.797 205.613 290.884 207.647 290.89 207.66ZM278.1 230.5C277.438 230.389 276.819 230.094 276.316 229.649C275.812 229.203 275.443 228.625 275.25 227.98C273.27 221.3 271.58 215.14 267.91 209.71C258.85 196.3 245.23 187.17 228.88 193.1C224.86 194.553 220.793 197.327 216.68 201.42C210.94 207.12 206.63 213.34 204.52 221.08C203.247 225.747 202.48 228.46 202.22 229.22C200.93 232.97 195.61 232.08 192.78 231.15C189.253 229.997 185.227 230.603 180.7 232.97C172.553 237.237 167.887 243.473 166.7 251.68C165.38 260.87 169.43 270.56 178.29 274.06C180.263 274.833 183.807 275.21 188.92 275.19C230.78 275.05 264.644 275.067 290.51 275.24C295.584 275.28 300.044 273.5 303.89 269.9C308.97 265.14 311.41 260.33 311.72 253.75C311.847 251.097 311.86 249.343 311.76 248.49C310.38 236.16 300.12 229.17 288.48 229.39C286.314 229.437 283.8 229.787 280.94 230.44C280.047 230.647 279.1 230.667 278.1 230.5ZM165.98 249.67L168.29 242.14C168.295 242.125 168.296 242.109 168.295 242.093C168.293 242.078 168.289 242.062 168.281 242.048C168.274 242.034 168.264 242.022 168.252 242.012C168.239 242.002 168.225 241.995 168.21 241.99L168.17 241.98C167.912 241.903 167.543 242.22 167.146 242.863C166.749 243.506 166.355 244.422 166.05 245.41L165.96 245.7C165.809 246.192 165.684 246.688 165.593 247.158C165.503 247.628 165.448 248.063 165.432 248.439C165.416 248.814 165.44 249.123 165.501 249.346C165.563 249.569 165.661 249.703 165.79 249.74L165.83 249.75C165.845 249.755 165.861 249.756 165.877 249.755C165.893 249.753 165.908 249.749 165.922 249.741C165.936 249.734 165.948 249.724 165.958 249.711C165.968 249.699 165.976 249.685 165.98 249.67Z" fill="#3085C0"/>
<path d="M823.421 231.71C823.674 232.224 824.089 232.639 824.603 232.892C825.116 233.145 825.699 233.222 826.261 233.11C834.231 231.54 840.311 229.86 846.691 235.61C851.104 239.583 853.901 243.753 855.081 248.12C859.471 264.31 848.431 275.21 832.761 275.16C798.167 275.047 764.931 275.087 733.051 275.28C726.384 275.32 720.674 273.577 715.921 270.05C703.761 261.05 700.301 245.58 706.491 231.48C712.061 218.77 725.831 212.54 739.291 213.5C741.464 213.653 743.321 213.843 744.861 214.07C745.578 214.173 746.31 214.051 746.957 213.722C747.605 213.393 748.137 212.872 748.481 212.23C749.487 210.337 751.017 207.53 753.071 203.81C762.661 186.41 784.33 172.36 803.47 185.08C814.85 192.63 820.501 204.43 821.841 217.63C822.141 220.63 822.497 224.677 822.91 229.77C822.97 230.49 823.141 231.137 823.421 231.71Z" fill="#B6EEFF"/>
<path d="M278.099 230.5C279.099 230.667 280.046 230.647 280.939 230.44C283.799 229.787 286.313 229.437 288.479 229.39C300.119 229.17 310.379 236.16 311.759 248.49C311.859 249.343 311.846 251.097 311.719 253.75C311.409 260.33 308.969 265.14 303.889 269.9C300.043 273.5 295.583 275.28 290.509 275.24C264.643 275.067 230.779 275.05 188.919 275.19C183.806 275.21 180.263 274.833 178.289 274.06C169.429 270.56 165.379 260.87 166.699 251.68C167.886 243.473 172.553 237.237 180.699 232.97C185.226 230.603 189.253 229.997 192.779 231.15C195.609 232.08 200.929 232.97 202.219 229.22C202.479 228.46 203.246 225.747 204.519 221.08C206.629 213.34 210.939 207.12 216.679 201.42C220.793 197.327 224.859 194.553 228.879 193.1C245.229 187.17 258.849 196.3 267.909 209.71C271.579 215.14 273.269 221.3 275.249 227.98C275.442 228.625 275.811 229.203 276.315 229.649C276.819 230.094 277.437 230.389 278.099 230.5Z" fill="#B6EEFF"/>
<path d="M165.981 249.67C165.976 249.685 165.969 249.699 165.959 249.711C165.949 249.724 165.936 249.734 165.922 249.741C165.908 249.749 165.893 249.753 165.877 249.755C165.862 249.756 165.846 249.755 165.831 249.75L165.791 249.74C165.661 249.703 165.563 249.569 165.502 249.346C165.44 249.123 165.417 248.814 165.433 248.439C165.448 248.063 165.503 247.628 165.594 247.158C165.684 246.688 165.809 246.193 165.961 245.7L166.051 245.41C166.355 244.422 166.749 243.506 167.147 242.863C167.544 242.22 167.912 241.903 168.171 241.98L168.211 241.99C168.226 241.995 168.24 242.002 168.252 242.012C168.264 242.022 168.274 242.034 168.282 242.048C168.289 242.062 168.294 242.078 168.295 242.093C168.297 242.109 168.295 242.125 168.291 242.14L165.981 249.67Z" fill="#77D9FE"/>
<path d="M427.329 262.54C428.336 262.8 430.182 263.5 432.869 264.64C438.619 267.09 444.469 269.62 451.579 270.75C472.659 274.103 492.042 274.757 509.729 272.71C528.196 270.577 545.406 265.633 561.359 257.88C565.612 255.813 569.472 253.39 572.939 250.61C573.092 250.489 573.279 250.42 573.474 250.415C573.669 250.409 573.86 250.467 574.019 250.58C592.852 263.627 605.056 281.227 610.629 303.38C613.709 315.61 614.299 327.52 615.159 342.27C615.419 346.85 623.229 344.44 625.589 343.2C631.039 340.35 635.689 338.57 641.619 340.75C642.47 341.062 643.199 341.64 643.699 342.4C648.459 349.667 650.196 357.38 648.909 365.54C648.269 369.64 646.166 373.757 642.599 377.89C635.759 385.81 627.019 389.277 616.379 388.29C616.002 388.255 615.624 388.348 615.305 388.552C614.986 388.757 614.745 389.062 614.619 389.42C608.039 408.08 599.399 427.39 587.729 442.26C582.116 449.42 574.379 456.253 564.519 462.76C540.306 478.76 514.066 483.293 485.799 476.36C457.629 469.45 434.019 448.23 420.709 422.54C415.456 412.4 411.246 401.787 408.079 390.7C407.89 390.041 407.487 389.463 406.932 389.059C406.378 388.655 405.705 388.448 405.019 388.47C402.039 388.563 399.212 388.483 396.539 388.23C385.089 387.17 375.599 378.08 372.689 367.09C371.349 362 371.559 357.03 373.769 351.48C375.062 348.24 376.222 345.67 377.249 343.77C378.839 340.82 386.679 338.49 389.919 340.06C393.326 341.707 397.802 343.91 403.349 346.67C403.682 346.837 404.149 346.93 404.749 346.95C404.913 346.955 405.076 346.928 405.228 346.869C405.381 346.81 405.52 346.721 405.638 346.607C405.755 346.493 405.849 346.357 405.913 346.206C405.976 346.056 406.009 345.894 406.009 345.73C406.002 338.997 406.019 332.517 406.059 326.29C406.092 321.703 406.866 314.873 408.379 305.8C410.506 293.107 414.292 281.413 419.739 270.72C421.186 267.88 422.906 265.39 424.899 263.25C425.201 262.923 425.587 262.685 426.015 262.56C426.443 262.435 426.897 262.428 427.329 262.54ZM479.449 335.22C471.729 341.91 461.939 346.33 452.589 339.47C448.799 336.69 446.959 331.1 441.289 331.34C427.049 331.95 430.629 348.6 437.499 354.73C449.519 365.45 468.069 366.29 482.089 358.08C488.409 354.39 497.629 345.77 493.609 337.89C490.949 332.68 483.779 331.47 479.449 335.22ZM590.379 335.09C584.289 328.56 578.229 332.03 572.649 337.28C566.249 343.31 558.179 343.99 550.349 339.62C549.829 339.327 547.509 337.633 543.389 334.54C540.169 332.12 534.649 332.39 531.589 335.11C524.469 341.43 532.829 351.91 538.459 356.08C550.659 365.09 566.889 366.27 580.399 358.88C587.379 355.053 591.129 349.323 591.649 341.69C591.816 339.29 591.592 337.397 590.979 336.01C590.827 335.672 590.624 335.362 590.379 335.09ZM509.299 415.32C502.819 415.35 495.659 413.55 490.689 409.58C487.202 406.787 485.269 405.25 484.889 404.97C479.239 400.81 471.219 404.59 470.449 411.5C469.689 418.27 473.669 422.98 479.209 426.26C488.709 431.867 498.769 434.647 509.389 434.6C520.009 434.547 530.039 431.673 539.479 425.98C544.999 422.65 548.929 417.91 548.109 411.14C547.279 404.24 539.219 400.53 533.609 404.75C533.236 405.03 531.316 406.58 527.849 409.4C522.919 413.43 515.769 415.29 509.299 415.32Z" fill="#B6EEFF"/>
<path d="M452.59 339.47C461.94 346.33 471.73 341.91 479.45 335.22C483.78 331.47 490.95 332.68 493.61 337.89C497.63 345.77 488.41 354.39 482.09 358.08C468.07 366.29 449.52 365.45 437.5 354.73C430.63 348.6 427.05 331.95 441.29 331.34C446.96 331.1 448.8 336.69 452.59 339.47Z" fill="#3085C0"/>
<path d="M590.98 336.01C591.594 337.397 591.817 339.29 591.65 341.69C591.13 349.323 587.38 355.053 580.4 358.88C566.89 366.27 550.66 365.09 538.46 356.08C532.83 351.91 524.47 341.43 531.59 335.11C534.65 332.39 540.17 332.12 543.39 334.54C547.51 337.633 549.83 339.327 550.35 339.62C558.18 343.99 566.25 343.31 572.65 337.28C578.23 332.03 584.29 328.56 590.38 335.09C590.626 335.362 590.828 335.672 590.98 336.01Z" fill="#3085C0"/>
<path d="M257.55 433.64C263.09 427.787 268.647 421.83 274.22 415.77C280.3 409.16 291.19 411.21 292.58 420.99C293.29 426.05 290.04 429.64 286.17 434C273.21 448.62 263.03 459.997 255.63 468.13C249.58 474.77 241.56 473.46 235.92 467.33C235.7 467.09 225.42 455.783 205.08 433.41C202.16 430.203 200.447 427.85 199.94 426.35C197.82 420.15 201.26 412.96 208.37 412.36C212.304 412.033 215.62 413.387 218.32 416.42C225.094 424.06 230.234 429.647 233.74 433.18C234.047 433.487 234.334 433.657 234.6 433.69C234.695 433.701 234.792 433.692 234.883 433.664C234.974 433.635 235.058 433.588 235.13 433.525C235.202 433.462 235.259 433.384 235.299 433.297C235.339 433.21 235.36 433.116 235.36 433.02C235.187 408.34 235.17 378.417 235.31 343.25C235.337 337.663 237.457 334.223 241.67 332.93C245.484 331.75 248.947 332.227 252.06 334.36C256.32 337.26 255.8 342.13 255.8 347.62C255.807 363.173 255.824 390.217 255.85 428.75C255.85 429.803 255.96 431.283 256.18 433.19C256.196 433.34 256.255 433.482 256.35 433.599C256.445 433.716 256.572 433.803 256.716 433.85C256.86 433.898 257.015 433.903 257.163 433.866C257.311 433.828 257.445 433.75 257.55 433.64Z" fill="#3085C0"/>
<path d="M765.34 435.2C765.467 435.216 765.595 435.204 765.716 435.167C765.838 435.13 765.95 435.068 766.046 434.985C766.141 434.902 766.218 434.8 766.27 434.685C766.323 434.57 766.35 434.446 766.35 434.32C766.303 396.607 766.3 366.75 766.34 344.75C766.34 341.69 766.6 338.45 768.58 336.24C774.11 330.06 785.56 331.94 785.56 341.52C785.58 399.273 785.597 429.877 785.61 433.33C785.61 433.737 785.71 434.197 785.91 434.71C785.973 434.877 786.077 435.026 786.214 435.141C786.351 435.256 786.515 435.334 786.691 435.368C786.867 435.403 787.05 435.391 787.221 435.335C787.392 435.28 787.547 435.181 787.67 435.05C792.837 429.583 798.184 423.637 803.71 417.21C810.95 408.77 823.57 415.21 820.22 426.47C819.807 427.863 818.507 429.827 816.32 432.36C808.933 440.92 798.98 452.463 786.46 466.99C782.313 471.797 777.367 473.017 771.62 470.65C769.14 469.64 766.94 466.87 764.93 464.51C764.79 464.35 755.293 453.2 736.44 431.06C734.09 428.29 732.17 424.94 732.24 421.46C732.327 417.167 734.277 414.33 738.09 412.95C742.45 411.37 745.35 413.15 748.6 416.49C753.04 421.05 758.463 427.143 764.87 434.77C765.11 435.05 765.267 435.193 765.34 435.2Z" fill="#3085C0"/>
<path d="M509.391 434.6C498.771 434.647 488.711 431.867 479.211 426.26C473.671 422.98 469.691 418.27 470.451 411.5C471.221 404.59 479.241 400.81 484.891 404.97C485.271 405.25 487.204 406.787 490.691 409.58C495.661 413.55 502.82 415.35 509.3 415.32C515.771 415.29 522.92 413.43 527.85 409.4C531.317 406.58 533.237 405.03 533.61 404.75C539.22 400.53 547.28 404.24 548.11 411.14C548.93 417.91 545 422.65 539.48 425.98C530.04 431.673 520.011 434.547 509.391 434.6Z" fill="#3085C0"/>
<path d="M471.111 495.16C495.981 504.34 523.661 503.58 548.581 496.08C548.678 496.05 548.78 496.04 548.881 496.05C548.982 496.061 549.081 496.091 549.17 496.141C549.26 496.19 549.339 496.257 549.402 496.338C549.466 496.418 549.513 496.511 549.541 496.61C551.194 502.623 553.921 508.143 557.721 513.17C557.924 513.441 558.059 513.757 558.113 514.09C558.167 514.423 558.139 514.763 558.031 515.08C555.771 521.933 552.574 528.3 548.441 534.18C542.881 542.11 534.111 547.86 525.241 551.14C514.181 555.24 501.131 555.05 490.371 550.22C475.471 543.54 466.711 532.34 461.101 517.55C460.961 517.179 460.921 516.779 460.984 516.389C461.047 515.999 461.212 515.634 461.461 515.33C466.054 509.723 469.054 503.123 470.461 495.53C470.474 495.46 470.502 495.394 470.544 495.336C470.585 495.278 470.638 495.23 470.7 495.194C470.762 495.159 470.831 495.138 470.902 495.132C470.973 495.126 471.044 495.136 471.111 495.16Z" fill="#B6EEFF"/>
<path d="M859.709 541.93C867.896 543.957 874.492 547.793 879.499 553.44C890.169 565.46 892.899 581.46 885.719 595.76C880.512 606.147 872.179 612.54 860.719 614.94C855.266 616.087 847.859 616.637 838.499 616.59C832.906 616.57 813.656 616.577 780.749 616.61C767.269 616.63 755.219 614.11 745.669 603.83C737.429 594.937 733.899 584.23 735.079 571.71C736.419 557.4 746.279 545.19 759.199 539.93C761.586 538.963 764.079 538.073 766.679 537.26C767.835 536.9 768.808 536.117 769.399 535.07C777.789 520.31 788.589 508.51 806.169 506.6C823.139 504.74 837.979 510.95 848.459 524.21C852.452 529.263 855.469 534.52 857.509 539.98C857.688 540.46 857.982 540.889 858.366 541.229C858.75 541.569 859.211 541.81 859.709 541.93ZM793.139 538.88C788.419 544.49 785.619 547.41 784.449 552.31C784.28 553.015 783.924 553.661 783.419 554.181C782.914 554.7 782.278 555.073 781.579 555.26C778.872 555.98 776.466 556.527 774.359 556.9C765.019 558.53 757.099 566.04 756.689 576C756.419 582.72 757.409 588.23 763.569 591.7C767.142 593.707 771.456 594.727 776.509 594.76C792.716 594.86 816.716 594.897 848.509 594.87C854.236 594.863 858.989 593.23 862.769 589.97C863.022 589.751 863.253 589.503 863.459 589.23C868.919 581.97 867.769 571.69 860.499 565.96C857.299 563.45 852.899 561.77 848.499 562.63C847.292 562.863 845.302 563.007 842.529 563.06C839.949 563.1 838.306 561.967 837.599 559.66C836.579 556.353 835.346 551.323 833.899 544.57C832.879 539.797 830.479 535.967 826.699 533.08C814.569 523.8 802.159 528.13 793.139 538.88Z" fill="#3085C0"/>
<path d="M246.06 543.69C246.161 544.001 246.342 544.28 246.584 544.499C246.826 544.718 247.121 544.87 247.44 544.94C258.974 547.42 267.334 554.107 272.52 565C275.3 570.84 276.407 577.33 275.84 584.47C274.641 599.65 263.63 612.07 248.58 615.26C244.46 616.133 239.35 616.573 233.25 616.58C195.804 616.627 172.721 616.637 164 616.61C149.37 616.57 137.37 612.74 129.15 599.7C120.61 586.14 121.311 568.65 130.801 555.85C136.601 548.037 144.78 543.197 155.34 541.33C155.826 541.243 156.279 541.027 156.653 540.705C157.027 540.383 157.31 539.967 157.471 539.5C163.73 521.1 179.8 508.2 199.78 508.21C205.647 508.21 210.394 508.833 214.021 510.08C229.881 515.5 240.91 527.58 246.06 543.69ZM174.491 561.37H173.471C173.311 561.37 173.153 561.394 173 561.44C170.6 562.2 168.594 562.397 166.98 562.03C160.9 560.65 151.81 561.99 147.87 567.02C141.25 575.44 144.34 585.31 151.01 592.65C151.315 592.981 151.673 593.255 152.071 593.46C154.871 594.913 157.267 595.627 159.26 595.6C186.72 595.16 213.384 595.047 239.25 595.26C241.604 595.28 244.51 594.837 247.97 593.93C248.373 593.824 248.75 593.644 249.08 593.4C261.061 584.64 254.43 565.17 240.241 564.82C235.351 564.69 229.29 566.2 226.021 561.65C225.77 561.3 225.593 560.902 225.5 560.48C225.207 559.067 224.964 555.817 224.771 550.73C224.711 549.11 224.024 546.97 222.711 544.31C218.131 535.06 209.4 528.08 198.771 528.74C193.077 529.093 188.457 531.56 184.911 536.14C182.864 538.793 181.59 540.79 181.09 542.13C178.924 547.95 177.414 551.757 176.56 553.55C176.39 553.903 176.321 554.297 176.361 554.69C176.547 556.73 176.164 558.8 175.211 560.9C175.149 561.04 175.048 561.158 174.92 561.241C174.792 561.325 174.643 561.37 174.491 561.37Z" fill="#3085C0"/>
<path d="M433.97 731.3C434.347 731.482 434.655 731.779 434.85 732.148C435.044 732.518 435.114 732.939 435.05 733.35C434.69 735.737 434.483 737.027 434.43 737.22C432.937 743.08 431.71 749.84 430.75 757.5C430.157 762.247 430.677 766.89 432.31 771.43C432.346 771.535 432.355 771.647 432.334 771.756C432.314 771.865 432.265 771.967 432.194 772.052C432.122 772.137 432.03 772.201 431.926 772.239C431.822 772.278 431.709 772.288 431.6 772.27C430.153 772.017 428.343 771.61 426.17 771.05C407.457 766.237 382.043 759.457 349.93 750.71C344.5 749.24 339.9 747.67 333.14 745.57C329.453 744.423 326.117 742.023 323.13 738.37C313.36 726.38 306.99 714.3 307.51 698.7C307.663 694.113 309.243 686.687 312.25 676.42C316.303 662.607 323.613 637.19 334.18 600.17C338.12 586.363 341.307 577.113 343.74 572.42C349.073 562.16 356.277 553.137 365.35 545.35C376.48 535.8 390.09 530.43 404.74 527.27C414.92 525.07 426.343 522.96 439.01 520.94C439.164 520.918 439.32 520.948 439.455 521.026C439.589 521.104 439.693 521.225 439.75 521.37C441.55 526.043 443.953 531.36 446.96 537.32C449.967 543.273 454.323 549.083 460.03 554.75C473.457 568.09 489.383 574.953 507.81 575.34C531.75 575.84 556.59 562.92 568.84 542.1C573.227 534.647 576.627 527.74 579.04 521.38C579.104 521.211 579.225 521.069 579.382 520.978C579.538 520.887 579.721 520.852 579.9 520.88C581.97 521.19 583.98 521.86 586.49 522.21C602.963 524.457 615.643 526.797 624.53 529.23C641.543 533.883 656.147 543.523 668.34 558.15C668.993 558.937 670.42 560.87 672.62 563.95C677.93 571.4 681.14 580.41 683.97 590.26C701.163 650.153 710.017 680.973 710.53 682.72C714.13 694.97 714.21 709.39 708.24 721.09C703.307 730.777 696.297 738.43 687.21 744.05C682.44 747 675.52 749.16 669.63 750.67C642.057 757.703 615.323 764.84 589.43 772.08C589.299 772.117 589.161 772.121 589.029 772.092C588.896 772.063 588.772 772.002 588.668 771.914C588.565 771.826 588.484 771.714 588.434 771.588C588.384 771.462 588.365 771.325 588.38 771.19C589.65 759.28 589.17 747.66 583.75 736.65C583.538 736.219 583.5 735.724 583.643 735.268C583.787 734.811 584.101 734.428 584.52 734.2C600.85 725.27 618.54 717.47 638.39 709.92C649.263 705.78 658.013 702.613 664.64 700.42C668.54 699.14 672.45 696.49 672.74 692.29C672.92 689.557 672.22 687.347 670.64 685.66C667.14 681.913 662.53 680.96 656.81 682.8C649.877 685.02 643.73 687.067 638.37 688.94C638.252 688.982 638.126 688.994 638.002 688.977C637.878 688.96 637.76 688.913 637.658 688.84C637.556 688.768 637.473 688.672 637.416 688.56C637.359 688.449 637.329 688.325 637.33 688.2L637.01 611.2C637.01 610.981 636.983 610.763 636.93 610.55C635.46 604.46 629.34 601.54 623.73 604.08C620.05 605.747 618.197 609.06 618.17 614.02C617.97 649.973 617.87 677.337 617.87 696.11C617.87 696.429 617.771 696.74 617.587 697.001C617.402 697.262 617.142 697.461 616.84 697.57C601.86 702.98 587.56 709.58 572.96 716.48C571.86 717.007 570.713 717.307 569.52 717.38C569.318 717.392 569.118 717.344 568.942 717.243C568.766 717.142 568.623 716.991 568.53 716.81C566.08 711.93 563.92 709 558.37 706.63C538.37 698.11 514.31 697.08 493.2 701.17C488.88 702.01 484.747 703.23 480.8 704.83C473.86 707.65 464.413 711.917 452.46 717.63C451.957 717.869 451.405 717.988 450.848 717.978C450.291 717.967 449.744 717.828 449.25 717.57C434.61 709.97 418.43 702.41 402.73 697.65C400.56 697 400.9 695.72 400.9 693.59C400.88 653.47 400.857 627.793 400.83 616.56C400.82 611.1 400.32 606.79 395.53 604.35C388.75 600.9 382.03 605.8 382 613.25C381.88 639.243 381.923 664.013 382.13 687.56C382.131 687.706 382.101 687.851 382.042 687.984C381.983 688.117 381.896 688.237 381.787 688.334C381.679 688.432 381.55 688.505 381.411 688.549C381.272 688.593 381.125 688.607 380.98 688.59C379.927 688.457 378.623 688.127 377.07 687.6C376.07 687.253 372.297 685.89 365.75 683.51C360.34 681.54 354.38 681.44 350.22 685.9C347.16 689.19 347.94 694.72 351 697.69C352.507 699.157 354.387 700.22 356.64 700.88C374.107 705.987 391.927 712.507 410.1 720.44C419.473 724.533 427.43 728.153 433.97 731.3Z" fill="#77D9FE"/>
<path d="M784.45 552.31C785.62 547.41 788.42 544.49 793.14 538.88C802.16 528.13 814.57 523.8 826.7 533.08C830.48 535.967 832.88 539.797 833.9 544.57C835.347 551.323 836.58 556.353 837.6 559.66C838.307 561.967 839.95 563.1 842.53 563.06C845.303 563.007 847.293 562.863 848.5 562.63C852.9 561.77 857.3 563.45 860.5 565.96C867.77 571.69 868.92 581.97 863.46 589.23C863.254 589.503 863.023 589.751 862.77 589.97C858.99 593.23 854.237 594.863 848.51 594.87C816.717 594.897 792.717 594.86 776.51 594.76C771.457 594.727 767.143 593.707 763.57 591.7C757.41 588.23 756.42 582.72 756.69 576C757.1 566.04 765.02 558.53 774.36 556.9C776.467 556.527 778.873 555.98 781.58 555.26C782.279 555.073 782.914 554.7 783.419 554.181C783.925 553.661 784.281 553.015 784.45 552.31Z" fill="#B6EEFF"/>
<path d="M175.21 560.9C176.163 558.8 176.546 556.73 176.36 554.69C176.321 554.297 176.39 553.903 176.56 553.55C177.413 551.757 178.923 547.95 181.09 542.13C181.59 540.79 182.863 538.793 184.91 536.14C188.456 531.56 193.076 529.093 198.77 528.74C209.4 528.08 218.13 535.06 222.71 544.31C224.023 546.97 224.71 549.11 224.77 550.73C224.963 555.817 225.206 559.067 225.5 560.48C225.592 560.902 225.769 561.3 226.02 561.65C229.29 566.2 235.35 564.69 240.24 564.82C254.43 565.17 261.06 584.64 249.08 593.4C248.749 593.644 248.373 593.824 247.97 593.93C244.51 594.837 241.603 595.28 239.25 595.26C213.383 595.047 186.72 595.16 159.26 595.6C157.266 595.627 154.87 594.913 152.07 593.46C151.673 593.255 151.314 592.981 151.01 592.65C144.34 585.31 141.25 575.44 147.87 567.02C151.81 561.99 160.9 560.65 166.98 562.03C168.593 562.397 170.6 562.2 173 561.44C173.152 561.394 173.311 561.37 173.47 561.37H174.49C174.642 561.37 174.792 561.325 174.919 561.242C175.047 561.158 175.148 561.04 175.21 560.9ZM250.46 571.91C251.04 572.61 251.583 573.353 252.09 574.14C252.103 574.152 252.119 574.159 252.137 574.162C252.154 574.165 252.172 574.162 252.188 574.155C252.204 574.147 252.217 574.135 252.227 574.12C252.236 574.105 252.24 574.088 252.24 574.07C251.94 573.117 251.49 572.277 250.89 571.55C250.296 570.823 249.56 570.22 248.68 569.74C248.662 569.734 248.642 569.734 248.624 569.74C248.605 569.746 248.589 569.757 248.578 569.773C248.567 569.789 248.561 569.808 248.561 569.827C248.562 569.846 248.568 569.865 248.58 569.88C249.253 570.527 249.88 571.203 250.46 571.91Z" fill="#B6EEFF"/>
<path d="M250.891 571.55C251.491 572.277 251.941 573.117 252.241 574.07C252.242 574.088 252.237 574.105 252.228 574.12C252.218 574.135 252.205 574.147 252.189 574.155C252.173 574.162 252.155 574.165 252.138 574.162C252.12 574.159 252.104 574.152 252.091 574.14C251.584 573.353 251.041 572.61 250.461 571.91C249.881 571.203 249.254 570.527 248.581 569.88C248.569 569.865 248.563 569.846 248.563 569.827C248.562 569.808 248.568 569.789 248.579 569.773C248.59 569.757 248.606 569.746 248.625 569.74C248.643 569.734 248.663 569.734 248.681 569.74C249.561 570.22 250.298 570.823 250.891 571.55Z" fill="#3085C0"/>
<path d="M565.61 745.14C565.89 744.956 566.231 744.885 566.561 744.943C566.892 745 567.188 745.182 567.39 745.45C572.657 752.45 573.67 759.917 570.43 767.85C567.98 773.86 562.74 777.37 555.97 779.34C548.743 781.433 541.58 782.873 534.48 783.66C515.947 785.727 497.687 785.363 479.7 782.57C474.08 781.703 468.977 780.47 464.39 778.87C457.39 776.42 449.9 770.35 449.24 762.44C448.72 756.213 449.21 750.973 450.71 746.72C451.363 744.867 452.817 742.81 455.07 740.55C467.01 728.59 485.5 721.01 502 719.18C516.62 717.56 532.54 718.59 546.54 724.23C548.747 725.117 550.62 726.293 552.16 727.76C552.247 727.844 552.317 727.944 552.365 728.055C552.413 728.166 552.438 728.285 552.439 728.406C552.44 728.526 552.417 728.645 552.371 728.756C552.324 728.867 552.256 728.967 552.17 729.05C547.43 733.603 542.19 737.15 536.45 739.69C531.07 742.06 520.7 741.25 514 740.9C507.667 740.573 502.67 742.783 499.01 747.53C498.759 747.853 498.575 748.224 498.47 748.62C496.92 754.36 503.22 756.56 507.68 757.52C525.193 761.293 541.563 759.203 556.79 751.25C559.9 749.62 563.02 746.83 565.61 745.14Z" fill="#B6EEFF"/>
<path d="M505.96 821.03C506.185 821.12 506.378 821.272 506.518 821.469C506.659 821.666 506.739 821.899 506.75 822.14L508.7 860.41C508.705 860.495 508.691 860.58 508.661 860.66C508.632 860.74 508.586 860.813 508.527 860.875C508.468 860.937 508.397 860.986 508.319 861.019C508.24 861.053 508.156 861.07 508.07 861.07C418.737 860.943 357.36 860.953 323.94 861.1C311.907 861.153 303.66 860.637 299.2 859.55C279.2 854.66 263 838.26 260.56 817.07C257.43 789.98 279.64 764.29 307.24 764.74C313.24 764.833 318.034 765.303 321.62 766.15C331.474 768.477 342.7 771.33 355.3 774.71C372.18 779.243 392.147 784.547 415.2 790.62C430.127 794.553 441.474 797.843 449.24 800.49C472.07 808.27 485.94 812.89 505.96 821.03Z" fill="#77D9FE"/>
<path d="M516.02 805.88C523.087 805.913 528.16 805.89 531.24 805.81C538.907 805.61 547.434 804.46 556.82 802.36C567.167 800.04 580.204 796.803 595.93 792.65C628.217 784.117 661.364 775.523 695.37 766.87C702.657 765.017 710.247 764.43 718.14 765.11C738.56 766.86 755.75 783.23 759.2 803.3C761.2 814.887 758.864 826.043 752.19 836.77C744.45 849.23 732.18 856.77 717.86 859.99C714.62 860.717 709.197 861.053 701.59 861C681.15 860.86 657.927 860.873 631.92 861.04C631.881 861.04 631.842 861.032 631.806 861.016C631.77 860.999 631.737 860.975 631.711 860.945C631.685 860.915 631.665 860.879 631.652 860.84C631.64 860.802 631.636 860.761 631.64 860.72C631.754 859.62 631.607 858.68 631.2 857.9C627.854 851.487 622.62 845.95 615.5 841.29C612.467 839.31 606.787 837.003 598.46 834.37C586.37 830.54 574.98 825.79 562.94 821.89C549.46 817.53 533.81 812.26 515.99 806.08C515.977 806.078 515.965 806.073 515.953 806.067C515.942 806.06 515.932 806.051 515.924 806.04C515.916 806.029 515.91 806.017 515.907 806.004C515.904 805.991 515.903 805.978 515.905 805.965C515.907 805.952 515.912 805.939 515.919 805.928C515.926 805.916 515.935 805.907 515.945 805.899C515.956 805.891 515.968 805.885 515.981 805.882C515.994 805.879 516.007 805.878 516.02 805.88Z" fill="#77D9FE"/>
<path d="M606.22 856.28L606.52 860.75C606.522 860.795 606.516 860.841 606.501 860.884C606.485 860.927 606.462 860.966 606.431 861C606.4 861.033 606.363 861.061 606.321 861.079C606.28 861.098 606.235 861.109 606.19 861.11H527.71C527.623 861.11 527.539 861.077 527.476 861.018C527.413 860.958 527.375 860.877 527.37 860.79L525.12 828.69C525.117 828.634 525.127 828.579 525.151 828.528C525.174 828.478 525.21 828.434 525.254 828.4C525.299 828.367 525.351 828.345 525.406 828.336C525.461 828.327 525.517 828.332 525.57 828.35L605.99 855.99C606.052 856.011 606.107 856.05 606.148 856.101C606.188 856.152 606.213 856.215 606.22 856.28Z" fill="#B6EEFF"/>
</svg>
