<svg width="1024" height="1024" viewBox="0 0 1024 1024" fill="none" xmlns="http://www.w3.org/2000/svg">
<path d="M368.51 250.43C368.603 259.043 368.603 265.57 368.51 270.01C368.39 275.79 367.143 280.603 364.77 284.45C349.46 309.3 312.26 299.54 310.45 270.18C310.063 263.84 309.986 257.34 310.22 250.68C310.224 250.589 310.209 250.497 310.177 250.412C310.144 250.327 310.095 250.249 310.031 250.183C309.967 250.117 309.891 250.066 309.806 250.031C309.722 249.996 309.631 249.979 309.54 249.98C302.346 250.053 289.6 250.083 271.3 250.07C245.84 250.05 227.15 267.8 227.13 293.5C227.123 301.047 227.153 316.343 227.22 339.39C227.22 339.485 227.239 339.578 227.275 339.665C227.312 339.753 227.366 339.832 227.434 339.899C227.501 339.966 227.582 340.019 227.67 340.055C227.759 340.091 227.854 340.11 227.95 340.11L679.59 339.24C679.687 339.24 679.782 339.221 679.872 339.183C679.961 339.146 680.042 339.091 680.11 339.023C680.177 338.954 680.231 338.872 680.267 338.782C680.303 338.693 680.321 338.597 680.32 338.5C680.29 316.36 680.52 301.94 680.17 290.4C679.48 267.62 661.85 250.56 639.23 250.11C630.723 249.943 619.783 249.893 606.41 249.96C606.338 249.96 606.267 249.974 606.201 250.003C606.135 250.032 606.076 250.074 606.027 250.126C605.978 250.179 605.941 250.241 605.917 250.309C605.894 250.376 605.884 250.448 605.89 250.52C606.183 255.88 606.17 262.433 605.85 270.18C604.48 302.85 558.96 309.22 548.89 278.09C547.91 275.05 547.423 270.497 547.43 264.43C547.443 257.637 547.486 253.033 547.56 250.62C547.561 250.542 547.547 250.464 547.518 250.391C547.489 250.318 547.445 250.252 547.391 250.196C547.336 250.14 547.27 250.096 547.198 250.066C547.126 250.036 547.048 250.02 546.97 250.02H368.92C368.866 250.02 368.813 250.031 368.763 250.051C368.713 250.072 368.668 250.102 368.63 250.14C368.592 250.178 368.562 250.223 368.541 250.273C368.52 250.323 368.51 250.376 368.51 250.43Z" stroke="#4CAAE6" stroke-width="2"/>
<path d="M679.909 372.34H227.259C227.183 372.34 227.109 372.371 227.054 372.425C227 372.479 226.969 372.553 226.969 372.63C226.969 459.003 226.959 545.71 226.939 632.75C226.933 648.063 232.086 660.223 242.399 669.23C250.209 676.05 260.929 680.36 270.779 680.74C274.433 680.887 279.839 680.957 286.999 680.95C367.953 680.877 438.749 680.88 499.389 680.96C499.492 680.961 499.594 680.939 499.689 680.898C499.783 680.856 499.867 680.795 499.936 680.719C500.005 680.642 500.057 680.552 500.089 680.454C500.12 680.356 500.131 680.252 500.119 680.15C497.119 654.163 500.123 629.073 509.129 604.88C512.583 595.613 515.959 587.65 519.259 580.99C532.999 553.26 553.989 530.35 579.599 513.09C609.109 493.21 644.119 482.75 679.719 482.98C679.817 482.981 679.915 482.963 680.006 482.927C680.097 482.89 680.179 482.836 680.249 482.767C680.319 482.698 680.374 482.616 680.412 482.525C680.45 482.435 680.469 482.338 680.469 482.24V372.9C680.469 372.826 680.455 372.754 680.427 372.686C680.399 372.618 680.357 372.556 680.305 372.504C680.253 372.452 680.192 372.411 680.124 372.383C680.056 372.354 679.983 372.34 679.909 372.34Z" stroke="#80C0E9" stroke-width="2"/>
<path d="M645.12 518.94C619.867 524.76 597.66 536.717 578.5 554.81C558.5 573.703 544.88 596.147 537.64 622.14C534.62 632.98 532.9 645.263 532.48 658.99C531.933 676.917 534.507 693.943 540.2 710.07C560.38 767.25 612.62 806.6 673.8 807.11C680.747 807.17 686.313 807.093 690.5 806.88C698.02 806.5 706.003 805.263 714.45 803.17C748.93 794.6 778.7 774.3 798.99 744.86C819.137 715.627 827.423 682.073 823.85 644.2C818.35 585.87 775.02 536.28 719.16 520.75C694.427 513.877 669.747 513.273 645.12 518.94Z" stroke="#80C0E9" stroke-width="2"/>
<path d="M421.279 545.53C400.906 524.75 379.506 503.293 357.079 481.16C343.879 468.12 325.049 472.15 315.699 487.53C309.499 497.72 311.779 510.47 320.239 518.89C344.409 542.93 356.959 555.74 379.689 577.95C391.936 589.91 400.536 598.507 405.489 603.74C412.859 611.51 424.279 612.13 433.439 607.77C436.266 606.423 440.092 603.287 444.919 598.36C459.619 583.327 482.242 560.51 512.789 529.91C537.519 505.14 559.849 481.46 583.419 458.07C588.529 453 591.439 448.36 591.559 441.69C591.726 432.237 588.682 424.64 582.429 418.9C577.149 414.053 571.356 411.477 565.049 411.17C558.942 410.87 553.192 413.407 547.799 418.78C527.066 439.44 508.399 458.283 491.799 475.31C468.859 498.84 445.349 521.78 422.029 545.53C421.981 545.58 421.922 545.621 421.858 545.648C421.794 545.676 421.724 545.69 421.654 545.69C421.584 545.69 421.515 545.676 421.45 545.648C421.386 545.621 421.328 545.58 421.279 545.53Z" stroke="#80C0E9" stroke-width="2"/>
<path d="M707.199 648.4C703.829 643.16 701.419 638.92 696.049 635.36C695.733 635.151 695.472 634.867 695.291 634.532C695.109 634.197 695.013 633.822 695.009 633.44C694.909 617.36 694.906 594.72 694.999 565.52C695.013 559.76 693.116 555.063 689.309 551.43C678.879 541.5 662.139 549.13 661.989 563.28C661.903 570.733 661.899 593.563 661.979 631.77C661.983 632.351 661.839 632.924 661.561 633.435C661.283 633.945 660.88 634.377 660.389 634.69C649.769 641.51 644.429 653.26 645.399 665.86C646.139 675.467 650.536 683.233 658.589 689.16C668.099 696.18 678.779 699.39 689.969 693.76C695.869 690.793 700.773 686.953 704.679 682.24C704.82 682.071 704.996 681.935 705.195 681.841C705.394 681.748 705.61 681.7 705.829 681.7C739.983 681.58 758.543 681.553 761.509 681.62C765.403 681.7 768.199 681.437 769.899 680.83C777.809 677.97 781.889 669.96 780.769 661.77C779.869 655.16 774.349 648.72 767.259 648.68C748.466 648.58 728.663 648.603 707.849 648.75C707.722 648.753 707.595 648.723 707.481 648.662C707.367 648.6 707.27 648.51 707.199 648.4Z" stroke="#80C0E9" stroke-width="2"/>
<path d="M605.69 216.01C605.698 216.311 605.825 216.596 606.042 216.804C606.259 217.012 606.55 217.125 606.85 217.12C619.39 216.81 633.98 216.49 645.01 217.8C679.4 221.91 705.54 244.91 711.3 279.41C711.98 283.497 712.324 290.627 712.33 300.8C712.41 405.573 712.424 467.163 712.37 485.57C712.368 486.033 712.529 486.481 712.826 486.836C713.122 487.191 713.535 487.43 713.99 487.51C725.45 489.557 736.97 492.89 748.55 497.51C758.957 501.657 769.774 507.66 781 515.52C792.054 523.253 800.71 530.507 806.97 537.28C824.41 556.167 837.557 577.47 846.41 601.19C857.12 629.88 859.56 660.61 854.43 690.97C852.944 699.73 850.26 709.727 846.38 720.96C842.84 731.207 838.52 740.593 833.42 749.12C823.394 765.88 812.127 780.043 799.62 791.61C779.054 810.643 755.124 824.277 727.83 832.51C700.344 840.797 671.477 841.657 641.23 835.09C638.317 834.457 632.184 832.657 622.83 829.69C615.17 827.263 609.137 825.1 604.73 823.2C570.497 808.407 543.854 784.74 524.8 752.2C517.787 740.22 512.164 727.707 507.93 714.66C507.823 714.334 507.615 714.05 507.337 713.849C507.058 713.648 506.724 713.54 506.38 713.54C414.38 713.473 337.597 713.483 276.03 713.57C267.237 713.583 258.48 712.233 249.76 709.52C231.32 703.78 216.977 692.777 206.73 676.51C197.14 661.3 194.56 645.58 194.57 627.67C194.597 570.863 194.604 462.557 194.59 302.75C194.59 290.96 195.19 280.08 198.39 269.89C206.2 245 226.22 226.87 251.24 220.07C258.6 218.063 268.19 217.01 280.01 216.91C288.284 216.837 297.987 216.907 309.12 217.12C309.32 217.124 309.519 217.088 309.704 217.014C309.89 216.939 310.059 216.828 310.201 216.687C310.342 216.547 310.454 216.379 310.53 216.193C310.606 216.008 310.643 215.81 310.64 215.61C310.6 211.617 310.564 205.97 310.53 198.67C310.49 191.137 311.1 185.603 312.36 182.07C316.57 170.23 328.73 161.54 341.84 162.69C353.75 163.73 364.59 172.8 367.25 184.55C367.684 186.45 367.89 191.6 367.87 200C367.857 208.38 367.854 213.543 367.86 215.49C367.86 215.88 368.016 216.254 368.294 216.529C368.571 216.805 368.948 216.96 369.34 216.96H546.45C546.663 216.96 546.873 216.918 547.069 216.835C547.265 216.752 547.442 216.631 547.589 216.479C547.737 216.327 547.852 216.147 547.928 215.949C548.004 215.752 548.038 215.541 548.03 215.33C547.984 214.057 547.934 208.873 547.88 199.78C547.84 192.413 548.12 187.25 548.72 184.29C551.05 172.88 560.9 163.86 572.45 162.5C591.68 160.24 605.65 174.77 605.61 194.04C605.577 205.293 605.604 212.617 605.69 216.01ZM368.51 250.43C368.604 259.043 368.604 265.57 368.51 270.01C368.39 275.79 367.144 280.603 364.77 284.45C349.46 309.3 312.26 299.54 310.45 270.18C310.064 263.84 309.987 257.34 310.22 250.68C310.224 250.589 310.21 250.498 310.177 250.412C310.145 250.327 310.095 250.249 310.032 250.183C309.968 250.118 309.891 250.066 309.807 250.031C309.722 249.996 309.632 249.979 309.54 249.98C302.347 250.053 289.6 250.083 271.3 250.07C245.84 250.05 227.15 267.8 227.13 293.5C227.124 301.047 227.154 316.343 227.22 339.39C227.22 339.485 227.239 339.578 227.276 339.666C227.313 339.753 227.366 339.832 227.434 339.899C227.502 339.966 227.582 340.019 227.671 340.055C227.76 340.091 227.854 340.11 227.95 340.11L679.59 339.24C679.687 339.24 679.783 339.221 679.872 339.184C679.961 339.146 680.042 339.092 680.11 339.023C680.178 338.954 680.232 338.872 680.268 338.782C680.304 338.693 680.322 338.597 680.32 338.5C680.29 316.36 680.52 301.94 680.17 290.4C679.48 267.62 661.85 250.56 639.23 250.11C630.724 249.943 619.784 249.893 606.41 249.96C606.339 249.96 606.267 249.974 606.202 250.003C606.136 250.032 606.077 250.074 606.028 250.126C605.979 250.179 605.941 250.241 605.918 250.309C605.894 250.377 605.885 250.448 605.89 250.52C606.184 255.88 606.17 262.433 605.85 270.18C604.48 302.85 558.96 309.22 548.89 278.09C547.91 275.05 547.424 270.497 547.43 264.43C547.444 257.637 547.487 253.033 547.56 250.62C547.562 250.542 547.547 250.464 547.518 250.391C547.489 250.318 547.446 250.252 547.391 250.196C547.336 250.141 547.271 250.096 547.198 250.066C547.126 250.036 547.049 250.02 546.97 250.02H368.92C368.867 250.02 368.813 250.031 368.763 250.051C368.714 250.072 368.669 250.102 368.63 250.14C368.592 250.178 368.562 250.223 368.542 250.273C368.521 250.323 368.51 250.376 368.51 250.43ZM679.91 372.34H227.26C227.183 372.34 227.11 372.371 227.055 372.425C227.001 372.479 226.97 372.553 226.97 372.63C226.97 459.003 226.96 545.71 226.94 632.75C226.934 648.063 232.087 660.223 242.4 669.23C250.21 676.05 260.93 680.36 270.78 680.74C274.434 680.887 279.84 680.957 287 680.95C367.954 680.877 438.75 680.88 499.39 680.96C499.493 680.961 499.595 680.94 499.689 680.898C499.784 680.856 499.868 680.795 499.937 680.719C500.006 680.642 500.058 680.552 500.09 680.454C500.121 680.356 500.132 680.252 500.12 680.15C497.12 654.163 500.124 629.073 509.13 604.88C512.584 595.613 515.96 587.65 519.26 580.99C533 553.26 553.99 530.35 579.6 513.09C609.11 493.21 644.12 482.75 679.72 482.98C679.818 482.981 679.916 482.963 680.007 482.927C680.098 482.89 680.18 482.836 680.25 482.767C680.32 482.698 680.375 482.616 680.413 482.526C680.451 482.435 680.47 482.338 680.47 482.24V372.9C680.47 372.826 680.456 372.754 680.428 372.686C680.4 372.618 680.358 372.556 680.306 372.504C680.254 372.452 680.193 372.411 680.125 372.383C680.057 372.355 679.984 372.34 679.91 372.34ZM645.12 518.94C619.867 524.76 597.66 536.717 578.5 554.81C558.5 573.703 544.88 596.147 537.64 622.14C534.62 632.98 532.9 645.263 532.48 658.99C531.934 676.917 534.507 693.943 540.2 710.07C560.38 767.25 612.62 806.6 673.8 807.11C680.747 807.17 686.314 807.093 690.5 806.88C698.02 806.5 706.004 805.263 714.45 803.17C748.93 794.6 778.7 774.3 798.99 744.86C819.137 715.627 827.424 682.073 823.85 644.2C818.35 585.87 775.02 536.28 719.16 520.75C694.427 513.877 669.747 513.273 645.12 518.94Z" fill="#2889D3"/>
<path d="M368.51 250.43C368.51 250.376 368.52 250.323 368.541 250.273C368.562 250.223 368.592 250.178 368.63 250.14C368.668 250.102 368.713 250.072 368.763 250.051C368.813 250.031 368.866 250.02 368.92 250.02H546.97C547.048 250.02 547.126 250.036 547.198 250.066C547.27 250.096 547.336 250.14 547.391 250.196C547.445 250.252 547.489 250.318 547.518 250.391C547.547 250.464 547.561 250.542 547.56 250.62C547.486 253.033 547.443 257.637 547.43 264.43C547.423 270.497 547.91 275.05 548.89 278.09C558.96 309.22 604.48 302.85 605.85 270.18C606.17 262.433 606.183 255.88 605.89 250.52C605.884 250.448 605.894 250.376 605.917 250.309C605.941 250.241 605.978 250.179 606.027 250.126C606.076 250.074 606.135 250.032 606.201 250.003C606.267 249.974 606.338 249.96 606.41 249.96C619.783 249.893 630.723 249.943 639.23 250.11C661.85 250.56 679.48 267.62 680.17 290.4C680.52 301.94 680.29 316.36 680.32 338.5C680.321 338.597 680.303 338.693 680.267 338.782C680.231 338.872 680.177 338.954 680.11 339.023C680.042 339.091 679.961 339.146 679.872 339.183C679.782 339.221 679.687 339.24 679.59 339.24L227.95 340.11C227.854 340.11 227.759 340.091 227.67 340.055C227.582 340.019 227.501 339.966 227.434 339.899C227.366 339.832 227.312 339.753 227.275 339.665C227.239 339.578 227.22 339.485 227.22 339.39C227.153 316.343 227.123 301.047 227.13 293.5C227.15 267.8 245.84 250.05 271.3 250.07C289.6 250.083 302.346 250.053 309.54 249.98C309.631 249.979 309.722 249.996 309.806 250.031C309.891 250.066 309.967 250.117 310.031 250.183C310.095 250.249 310.144 250.327 310.177 250.412C310.209 250.497 310.224 250.589 310.22 250.68C309.986 257.34 310.063 263.84 310.45 270.18C312.26 299.54 349.46 309.3 364.77 284.45C367.143 280.603 368.39 275.79 368.51 270.01C368.603 265.57 368.603 259.043 368.51 250.43Z" fill="#6FCBF8"/>
<path d="M679.909 372.34C679.983 372.34 680.056 372.354 680.124 372.383C680.192 372.411 680.253 372.452 680.305 372.504C680.357 372.556 680.399 372.618 680.427 372.686C680.455 372.754 680.469 372.826 680.469 372.9V482.24C680.469 482.338 680.45 482.435 680.412 482.525C680.374 482.616 680.319 482.698 680.249 482.767C680.179 482.836 680.097 482.89 680.006 482.927C679.915 482.963 679.817 482.981 679.719 482.98C644.119 482.75 609.109 493.21 579.599 513.09C553.989 530.35 532.999 553.26 519.259 580.99C515.959 587.65 512.583 595.613 509.129 604.88C500.123 629.073 497.119 654.163 500.119 680.15C500.131 680.252 500.12 680.356 500.089 680.454C500.057 680.552 500.005 680.642 499.936 680.719C499.867 680.795 499.783 680.856 499.689 680.898C499.594 680.939 499.492 680.961 499.389 680.96C438.749 680.88 367.953 680.877 286.999 680.95C279.839 680.957 274.433 680.887 270.779 680.74C260.929 680.36 250.209 676.05 242.399 669.23C232.086 660.223 226.933 648.063 226.939 632.75C226.959 545.71 226.969 459.003 226.969 372.63C226.969 372.553 227 372.479 227.054 372.425C227.109 372.371 227.183 372.34 227.259 372.34H679.909ZM421.279 545.53C400.906 524.75 379.506 503.293 357.079 481.16C343.879 468.12 325.049 472.15 315.699 487.53C309.499 497.72 311.779 510.47 320.239 518.89C344.409 542.93 356.959 555.74 379.689 577.95C391.936 589.91 400.536 598.507 405.489 603.74C412.859 611.51 424.279 612.13 433.439 607.77C436.266 606.423 440.093 603.287 444.919 598.36C459.619 583.327 482.243 560.51 512.789 529.91C537.519 505.14 559.849 481.46 583.419 458.07C588.529 453 591.439 448.36 591.559 441.69C591.726 432.237 588.683 424.64 582.429 418.9C577.149 414.053 571.356 411.477 565.049 411.17C558.943 410.87 553.193 413.407 547.799 418.78C527.066 439.44 508.399 458.283 491.799 475.31C468.859 498.84 445.349 521.78 422.029 545.53C421.981 545.581 421.923 545.621 421.858 545.648C421.794 545.676 421.724 545.69 421.654 545.69C421.584 545.69 421.515 545.676 421.451 545.648C421.386 545.621 421.328 545.581 421.279 545.53Z" fill="#D8F7FF"/>
<path d="M421.279 545.53C421.328 545.581 421.386 545.621 421.45 545.648C421.515 545.676 421.584 545.69 421.654 545.69C421.724 545.69 421.794 545.676 421.858 545.648C421.922 545.621 421.981 545.581 422.029 545.53C445.349 521.78 468.859 498.84 491.799 475.31C508.399 458.283 527.066 439.44 547.799 418.78C553.192 413.407 558.942 410.87 565.049 411.17C571.356 411.477 577.149 414.053 582.429 418.9C588.682 424.64 591.726 432.237 591.559 441.69C591.439 448.36 588.529 453 583.419 458.07C559.849 481.46 537.519 505.14 512.789 529.91C482.242 560.51 459.619 583.327 444.919 598.36C440.092 603.287 436.266 606.423 433.439 607.77C424.279 612.13 412.859 611.51 405.489 603.74C400.536 598.507 391.936 589.91 379.689 577.95C356.959 555.74 344.409 542.93 320.239 518.89C311.779 510.47 309.499 497.72 315.699 487.53C325.049 472.15 343.879 468.12 357.079 481.16C379.506 503.293 400.906 524.75 421.279 545.53Z" fill="#2889D3"/>
<path d="M719.16 520.75C775.02 536.28 818.35 585.87 823.85 644.2C827.423 682.073 819.137 715.627 798.99 744.86C778.7 774.3 748.93 794.6 714.45 803.17C706.003 805.263 698.02 806.5 690.5 806.88C686.313 807.093 680.747 807.17 673.8 807.11C612.62 806.6 560.38 767.25 540.2 710.07C534.507 693.943 531.933 676.917 532.48 658.99C532.9 645.263 534.62 632.98 537.64 622.14C544.88 596.147 558.5 573.703 578.5 554.81C597.66 536.717 619.867 524.76 645.12 518.94C669.747 513.273 694.427 513.877 719.16 520.75ZM707.2 648.4C703.83 643.16 701.42 638.92 696.05 635.36C695.733 635.151 695.473 634.867 695.291 634.532C695.11 634.197 695.013 633.822 695.01 633.44C694.91 617.36 694.907 594.72 695 565.52C695.013 559.76 693.117 555.063 689.31 551.43C678.88 541.5 662.14 549.13 661.99 563.28C661.903 570.733 661.9 593.563 661.98 631.77C661.983 632.351 661.839 632.924 661.561 633.435C661.283 633.945 660.88 634.377 660.39 634.69C649.77 641.51 644.43 653.26 645.4 665.86C646.14 675.467 650.537 683.233 658.59 689.16C668.1 696.18 678.78 699.39 689.97 693.76C695.87 690.793 700.773 686.953 704.68 682.24C704.821 682.071 704.997 681.935 705.196 681.841C705.394 681.748 705.611 681.7 705.83 681.7C739.983 681.58 758.543 681.553 761.51 681.62C765.403 681.7 768.2 681.437 769.9 680.83C777.81 677.97 781.89 669.96 780.77 661.77C779.87 655.16 774.35 648.72 767.26 648.68C748.467 648.58 728.663 648.603 707.85 648.75C707.722 648.753 707.595 648.723 707.481 648.662C707.367 648.6 707.271 648.51 707.2 648.4Z" fill="#D8F7FF"/>
<path d="M707.199 648.4C707.27 648.51 707.367 648.6 707.481 648.662C707.595 648.723 707.722 648.753 707.849 648.75C728.663 648.603 748.466 648.58 767.259 648.68C774.349 648.72 779.869 655.16 780.769 661.77C781.889 669.96 777.809 677.97 769.899 680.83C768.199 681.437 765.403 681.7 761.509 681.62C758.543 681.553 739.983 681.58 705.829 681.7C705.61 681.7 705.394 681.748 705.195 681.841C704.996 681.935 704.82 682.071 704.679 682.24C700.773 686.953 695.869 690.793 689.969 693.76C678.779 699.39 668.099 696.18 658.589 689.16C650.536 683.233 646.139 675.467 645.399 665.86C644.429 653.26 649.769 641.51 660.389 634.69C660.88 634.377 661.283 633.945 661.561 633.435C661.839 632.924 661.983 632.351 661.979 631.77C661.899 593.563 661.903 570.733 661.989 563.28C662.139 549.13 678.879 541.5 689.309 551.43C693.116 555.063 695.013 559.76 694.999 565.52C694.906 594.72 694.909 617.36 695.009 633.44C695.013 633.822 695.109 634.197 695.291 634.532C695.472 634.867 695.733 635.151 696.049 635.36C701.419 638.92 703.829 643.16 707.199 648.4Z" fill="#2889D3"/>
</svg>
