<svg width="1024" height="1024" viewBox="0 0 1024 1024" fill="none" xmlns="http://www.w3.org/2000/svg">
<path d="M535.521 228.82C527.354 222.113 518.751 216.177 509.711 211.01C497.551 204.043 484.808 198.287 471.481 193.74C458.641 189.353 445.044 186.233 430.691 184.38C378.078 177.58 329.098 188.837 283.751 218.15C254.858 236.83 231.964 260.14 215.071 288.08C188.478 332.073 179.504 380.23 188.151 432.55" stroke="#5FB9EE" stroke-width="2"/>
<path d="M188.15 432.55C188.49 434.35 188.837 436.157 189.19 437.97C195.057 467.923 205.937 495.747 221.83 521.44C226.097 528.34 231.897 537.283 239.23 548.27C249.35 563.43 256.194 580.073 259.76 598.2C264.42 621.907 265.557 644.723 263.17 666.65" stroke="#54B4ED" stroke-width="2"/>
<path d="M263.171 666.65C260.041 692.61 252.351 717.25 237.871 739.03C237.832 739.088 237.805 739.152 237.791 739.22C237.778 739.288 237.778 739.359 237.792 739.427C237.806 739.495 237.833 739.559 237.873 739.617C237.912 739.674 237.962 739.723 238.021 739.76C240.894 741.573 247.698 745.943 258.431 752.87C269.761 760.18 280.111 767.54 290.841 774.42C326.994 797.64 365.691 815.763 406.931 828.79C414.471 831.17 416.521 839.11 413.681 845.96C410.501 853.65 402.551 854.01 395.521 852.7C387.681 851.24 379.934 849.073 372.281 846.2C350.774 838.133 332.461 830.103 317.341 822.11C300.621 813.277 288.488 806.34 280.941 801.3C258.668 786.42 246.474 778.287 244.361 776.9C234.134 770.187 225.898 765.25 219.651 762.09C217.258 760.877 215.004 761.06 212.891 762.64C201.621 771.04 187.011 782.39 174.411 794.15C150.821 816.14 137.141 845 131.471 876.4C131.461 876.459 131.463 876.519 131.479 876.576C131.494 876.633 131.522 876.687 131.56 876.732C131.598 876.778 131.645 876.815 131.699 876.84C131.753 876.866 131.811 876.879 131.871 876.88H571.211C571.28 876.881 571.348 876.865 571.409 876.833C571.47 876.802 571.523 876.757 571.563 876.701C571.604 876.645 571.63 876.581 571.64 876.513C571.65 876.445 571.643 876.375 571.621 876.31C569.151 869.34 565.091 861 562.251 855.69C552.824 838.003 541.268 823.653 527.581 812.64C512.708 800.66 496.328 791.303 478.441 784.57C470.748 781.677 461.978 778.967 452.131 776.44C441.401 773.68 434.021 770.8 433.821 759.29C433.714 753.003 433.811 738.457 434.111 715.65" stroke="#4AAFEE" stroke-width="2"/>
<path d="M434.11 715.65C434.15 711.817 434.137 707.933 434.07 704C434.037 701.913 433.707 700.023 433.08 698.33C432.912 697.871 432.629 697.463 432.259 697.143C431.888 696.823 431.441 696.601 430.96 696.5C413.09 692.62 397.42 684.26 382.57 674.19C373.3 667.9 368.21 658.26 375.32 647.88C378.15 643.73 380.88 644.04 385.08 646.43C391.034 649.823 394.06 651.547 394.16 651.6C418.49 664.3 442.8 670.65 470.88 673.65C476.58 674.257 484.714 674.833 495.28 675.38C511.787 676.233 524.224 670.877 532.59 659.31C539.21 650.15 542.12 638.83 540.39 627.62C539.03 618.81 534.93 612.28 527.51 607.26C523.87 604.8 517.26 602.73 513.97 599.37C508.11 593.39 506.17 585.37 510.89 578.09C513.25 574.457 516.61 572.08 520.97 570.96C525.957 569.673 529.387 569.003 531.26 568.95C540.66 568.67 545.72 568.497 546.44 568.43C553.57 567.75 553.57 559.53 552.86 554.07C552.067 548.003 551.567 543.24 551.36 539.78C550.48 525.14 560.86 515.32 575.03 514.95C579.37 514.837 587.03 515.137 598.01 515.85C600.68 516.02 608.56 515.64 609.07 512C609.65 507.85 608.39 505.88 606.3 501.46C603.447 495.413 600.554 489.4 597.62 483.42" stroke="#54B4ED" stroke-width="2"/>
<path d="M597.621 483.42C586.661 460.013 576.074 436.463 565.861 412.77C564.734 410.15 563.631 407.533 562.551 404.92" stroke="#5FB9EE" stroke-width="2"/>
<path d="M562.552 404.92C562.398 404.333 562.375 403.847 562.482 403.46" stroke="#3BA1E7" stroke-width="2"/>
<path d="M434.11 715.65C422.21 713.683 410.783 710.527 399.83 706.18C395.83 704.587 389.907 701.747 382.06 697.66C375.113 694.04 366.957 691.62 357.59 690.4C349.417 689.34 340.293 688.387 330.22 687.54C320.44 686.72 311.183 684.283 302.45 680.23C294.59 676.59 288.84 674.22 282.42 672.23C278.387 670.977 271.97 669.117 263.17 666.65" stroke="#6AD3FF" stroke-width="2"/>
<path d="M561.401 401.69C561.274 402.803 561.657 403.88 562.551 404.92" stroke="#66CBF8" stroke-width="2"/>
<path d="M597.621 483.42C581.921 485.553 567.784 485.92 555.211 484.52C543.691 483.233 533.938 482.527 525.951 482.4C515.644 482.24 502.771 482.977 487.331 484.61C480.311 485.35 471.371 487.61 464.061 489.12C460.034 489.953 456.198 489.687 452.551 488.32C448.764 486.907 446.801 486.183 446.661 486.15C439.381 484.41 431.731 483.89 420.091 482.6C404.081 480.83 389.441 480.43 372.911 479.48C361.381 478.82 343.221 475.62 328.251 474.03C312.021 472.31 295.791 472.19 279.461 471.27" stroke="#7FDDFF" stroke-width="2"/>
<path d="M279.46 471.27C273.68 457.38 274.12 440.32 283.55 428.02C290.17 419.38 302.81 414.96 313.16 418.15C317.5 419.483 320.224 420.297 321.33 420.59C329.3 422.71 336.3 416.66 335.31 408.48C333.18 390.83 307.53 389.71 294.86 392.4C269.97 397.7 251.92 416.19 247.82 441.57" stroke="#5FB9EE" stroke-width="2"/>
<path d="M247.82 441.57C238.974 437.09 229.637 434.307 219.81 433.22C209.05 432.03 198.52 431.04 188.15 432.55" stroke="#7FDDFF" stroke-width="2"/>
<path d="M279.462 471.27C285.282 485.5 297.872 496.9 312.202 502.05C317.362 503.903 321.895 504.523 325.802 503.91C329.355 503.357 331.588 503.223 332.502 503.51C335.055 504.317 336.832 505.57 337.832 507.27C342.012 514.357 341.448 520.527 336.142 525.78C330.062 531.8 317.262 530.55 310.292 528.92C301.932 526.96 293.745 523.497 285.732 518.53C259.352 502.18 243.302 472.99 247.822 441.57" stroke="#54B4ED" stroke-width="2"/>
<path d="M697.791 495.54C702.424 492.9 706.537 490.263 710.131 487.63C727.704 474.743 744.357 458.647 760.091 439.34C763.264 435.453 767.394 433.643 772.481 433.91C783.041 434.46 794.651 434.35 804.781 432.72C848.261 425.73 886.581 398.14 906.651 359.2C916.684 339.733 922.081 319.24 922.841 297.72C924.341 255.6 907.651 214.17 876.071 186.21C850.297 163.39 819.761 151.913 784.461 151.78C753.554 151.66 736.191 151.593 732.371 151.58C716.064 151.513 704.344 152.073 697.211 153.26C650.671 161.01 612.471 189.79 594.371 233.13C579.961 267.62 579.701 306.09 593.171 340.82C603.444 367.287 620.727 388.747 645.021 405.2C656.141 412.733 666.914 418.387 677.341 422.16C682.094 423.88 685.047 424.933 686.201 425.32C690.014 426.6 692.564 427.847 693.851 429.06C696.881 431.93 697.921 436.21 697.971 440.5C698.177 457.927 698.151 472.85 697.891 485.27C697.857 487.043 697.744 488.7 697.551 490.24C697.164 493.293 697.014 494.967 697.101 495.26C697.122 495.329 697.158 495.393 697.207 495.446C697.255 495.5 697.315 495.541 697.382 495.568C697.448 495.595 697.519 495.607 697.59 495.602C697.661 495.597 697.73 495.576 697.791 495.54Z" stroke="#82D4F8" stroke-width="2"/>
<path d="M855.33 241.383C855.327 239.58 854.969 237.795 854.276 236.13C853.583 234.466 852.569 232.954 851.292 231.681C850.015 230.409 848.499 229.4 846.832 228.713C845.165 228.026 843.379 227.674 841.576 227.677L666.097 227.983C662.455 227.99 658.966 229.442 656.395 232.022C653.825 234.601 652.384 238.096 652.391 241.737L652.391 242.157C652.395 243.96 652.753 245.745 653.446 247.41C654.139 249.074 655.153 250.586 656.43 251.859C657.707 253.131 659.222 254.14 660.889 254.827C662.556 255.514 664.342 255.866 666.145 255.863L841.625 255.557C845.266 255.55 848.756 254.098 851.327 251.518C853.897 248.939 855.337 245.444 855.331 241.803L855.33 241.383Z" stroke="#82D4F8" stroke-width="2"/>
<path d="M855.241 307.194C855.248 305.345 854.89 303.513 854.188 301.802C853.486 300.092 852.455 298.536 851.152 297.224C849.849 295.912 848.3 294.869 846.595 294.156C844.889 293.442 843.059 293.072 841.21 293.065L666.431 292.455C662.697 292.442 659.111 293.913 656.461 296.544C653.811 299.176 652.315 302.752 652.302 306.486L652.301 306.906C652.294 308.755 652.652 310.587 653.354 312.298C654.055 314.008 655.087 315.564 656.39 316.876C657.693 318.188 659.241 319.231 660.947 319.944C662.653 320.658 664.483 321.029 666.332 321.035L841.111 321.645C844.845 321.658 848.431 320.187 851.081 317.556C853.731 314.925 855.227 311.348 855.24 307.614L855.241 307.194Z" stroke="#82D4F8" stroke-width="2"/>
<path d="M778.792 371.62C778.795 369.805 778.441 368.008 777.749 366.33C777.057 364.652 776.042 363.126 774.761 361.841C773.48 360.555 771.958 359.535 770.283 358.837C768.607 358.14 766.811 357.779 764.996 357.776L666.316 357.604C664.501 357.601 662.703 357.955 661.026 358.647C659.348 359.338 657.822 360.354 656.537 361.635C655.251 362.916 654.231 364.437 653.533 366.113C652.836 367.788 652.475 369.585 652.472 371.4L652.471 372.06C652.468 373.875 652.822 375.672 653.514 377.35C654.205 379.028 655.22 380.554 656.501 381.839C657.783 383.125 659.304 384.145 660.98 384.843C662.655 385.54 664.452 385.901 666.267 385.904L764.946 386.076C766.761 386.079 768.559 385.725 770.237 385.033C771.915 384.342 773.44 383.326 774.726 382.045C776.011 380.764 777.032 379.243 777.729 377.567C778.427 375.892 778.787 374.095 778.791 372.28L778.792 371.62Z" stroke="#82D4F8" stroke-width="2"/>
<path d="M506.852 388.768C505.693 384.382 503.665 380.271 500.884 376.67C498.103 373.069 494.624 370.049 490.644 367.782C486.664 365.515 482.262 364.046 477.69 363.458C473.117 362.87 468.464 363.175 463.994 364.356C454.969 366.741 447.242 372.547 442.515 380.498C437.788 388.449 436.447 397.892 438.788 406.752C439.947 411.138 441.975 415.249 444.756 418.85C447.537 422.451 451.017 425.471 454.996 427.738C458.976 430.005 463.378 431.474 467.95 432.062C472.523 432.65 477.177 432.345 481.646 431.164C490.672 428.779 498.398 422.973 503.125 415.022C507.852 407.071 509.193 397.628 506.852 388.768Z" stroke="#5FB9EE" stroke-width="2"/>
<path d="M672.149 456.03C672.109 450.68 670.289 448.28 665.599 446.49C611.349 425.8 571.289 379.1 559.879 321.9C552.599 285.413 556.469 250.597 571.489 217.45C583.459 191.02 603.519 166.47 627.739 150.44C643.966 139.7 661.469 132.307 680.249 128.26C692.056 125.72 704.806 124.44 718.499 124.42C743.806 124.387 768.389 124.383 792.249 124.41C820.689 124.44 847.139 132.5 871.899 147.05C909.339 169.06 935.259 206.36 944.809 248.59C960.269 316.87 937.469 388.11 879.839 429.72C851.326 450.3 818.553 460.657 781.519 460.79C777.879 460.8 775.379 462.75 772.799 465.7C767.826 471.38 765.029 474.533 764.409 475.16C746.919 492.89 727.369 509.7 706.089 522.59C699.689 526.47 691.369 530.68 684.179 529.27C674.719 527.42 670.259 520.18 670.179 510.85C670.139 506.123 670.226 502.837 670.439 500.99C671.419 492.377 671.949 487.213 672.029 485.5C672.223 481.153 672.263 471.33 672.149 456.03ZM697.789 495.54C702.423 492.9 706.536 490.263 710.129 487.63C727.703 474.743 744.356 458.647 760.089 439.34C763.263 435.453 767.393 433.643 772.479 433.91C783.039 434.46 794.649 434.35 804.779 432.72C848.259 425.73 886.579 398.14 906.649 359.2C916.683 339.733 922.079 319.24 922.839 297.72C924.339 255.6 907.649 214.17 876.069 186.21C850.296 163.39 819.759 151.913 784.459 151.78C753.553 151.66 736.189 151.593 732.369 151.58C716.063 151.513 704.343 152.073 697.209 153.26C650.669 161.01 612.469 189.79 594.369 233.13C579.959 267.62 579.699 306.09 593.169 340.82C603.443 367.287 620.726 388.747 645.019 405.2C656.139 412.733 666.913 418.387 677.339 422.16C682.093 423.88 685.046 424.933 686.199 425.32C690.013 426.6 692.563 427.847 693.849 429.06C696.879 431.93 697.919 436.21 697.969 440.5C698.176 457.927 698.149 472.85 697.889 485.27C697.856 487.043 697.743 488.7 697.549 490.24C697.163 493.293 697.013 494.967 697.099 495.26C697.121 495.329 697.157 495.393 697.205 495.446C697.254 495.5 697.314 495.541 697.38 495.568C697.447 495.595 697.518 495.607 697.589 495.602C697.66 495.597 697.728 495.576 697.789 495.54Z" fill="#41B3F1"/>
<path d="M697.101 495.26C697.014 494.967 697.164 493.293 697.551 490.24C697.744 488.7 697.857 487.043 697.891 485.27C698.151 472.85 698.177 457.927 697.971 440.5C697.921 436.21 696.881 431.93 693.851 429.06C692.564 427.847 690.014 426.6 686.201 425.32C685.047 424.933 682.094 423.88 677.341 422.16C666.914 418.387 656.141 412.733 645.021 405.2C620.727 388.747 603.444 367.287 593.171 340.82C579.701 306.09 579.961 267.62 594.371 233.13C612.471 189.79 650.671 161.01 697.211 153.26C704.344 152.073 716.064 151.513 732.371 151.58C736.191 151.593 753.554 151.66 784.461 151.78C819.761 151.913 850.297 163.39 876.071 186.21C907.651 214.17 924.341 255.6 922.841 297.72C922.081 319.24 916.684 339.733 906.651 359.2C886.581 398.14 848.261 425.73 804.781 432.72C794.651 434.35 783.041 434.46 772.481 433.91C767.394 433.643 763.264 435.453 760.091 439.34C744.357 458.647 727.704 474.743 710.131 487.63C706.537 490.263 702.424 492.9 697.791 495.54C697.73 495.576 697.661 495.597 697.59 495.602C697.519 495.607 697.448 495.595 697.382 495.568C697.315 495.541 697.255 495.5 697.207 495.446C697.158 495.393 697.122 495.329 697.101 495.26ZM855.33 241.383C855.327 239.58 854.969 237.795 854.276 236.131C853.583 234.466 852.569 232.954 851.292 231.681C850.015 230.409 848.499 229.4 846.832 228.713C845.165 228.026 843.379 227.674 841.576 227.677L666.097 227.983C662.455 227.99 658.965 229.442 656.395 232.022C653.825 234.601 652.384 238.096 652.391 241.737L652.391 242.157C652.394 243.96 652.753 245.745 653.446 247.41C654.139 249.074 655.152 250.586 656.43 251.859C657.707 253.131 659.222 254.14 660.889 254.827C662.556 255.514 664.342 255.866 666.145 255.863L841.625 255.557C845.266 255.55 848.756 254.098 851.327 251.518C853.897 248.939 855.337 245.444 855.331 241.803L855.33 241.383ZM855.241 307.194C855.247 305.345 854.89 303.513 854.188 301.802C853.486 300.092 852.455 298.536 851.152 297.224C849.849 295.912 848.3 294.869 846.595 294.156C844.889 293.442 843.059 293.072 841.21 293.065L666.431 292.455C662.697 292.442 659.11 293.913 656.461 296.544C653.811 299.176 652.315 302.752 652.302 306.486L652.301 306.906C652.294 308.755 652.652 310.587 653.354 312.298C654.055 314.008 655.087 315.564 656.39 316.876C657.693 318.188 659.241 319.231 660.947 319.944C662.653 320.658 664.482 321.028 666.331 321.035L841.11 321.645C844.845 321.658 848.431 320.187 851.081 317.556C853.73 314.925 855.226 311.348 855.239 307.614L855.241 307.194ZM778.791 371.62C778.794 369.805 778.44 368.008 777.749 366.33C777.057 364.652 776.042 363.126 774.761 361.841C773.479 360.555 771.958 359.535 770.282 358.837C768.607 358.14 766.81 357.779 764.995 357.776L666.316 357.604C664.501 357.601 662.703 357.955 661.025 358.647C659.347 359.338 657.822 360.354 656.536 361.635C655.251 362.916 654.23 364.437 653.533 366.113C652.835 367.788 652.475 369.585 652.471 371.4L652.47 372.06C652.467 373.875 652.821 375.672 653.513 377.35C654.205 379.028 655.22 380.554 656.501 381.839C657.782 383.125 659.304 384.145 660.979 384.843C662.655 385.54 664.451 385.901 666.266 385.904L764.946 386.076C766.761 386.079 768.559 385.725 770.236 385.033C771.914 384.342 773.44 383.326 774.725 382.045C776.011 380.764 777.031 379.243 777.729 377.567C778.426 375.892 778.787 374.095 778.79 372.28L778.791 371.62Z" fill="#C2F5FF"/>
<path d="M535.52 228.82C527.353 222.113 518.75 216.177 509.71 211.01C497.55 204.043 484.807 198.287 471.48 193.74C458.64 189.353 445.043 186.233 430.69 184.38C378.077 177.58 329.097 188.837 283.75 218.15C254.857 236.83 231.963 260.14 215.07 288.08C188.477 332.073 179.503 380.23 188.15 432.55C188.49 434.35 188.837 436.157 189.19 437.97C195.057 467.923 205.937 495.747 221.83 521.44C226.097 528.34 231.897 537.283 239.23 548.27C249.35 563.43 256.193 580.073 259.76 598.2C264.42 621.907 265.557 644.723 263.17 666.65C260.04 692.61 252.35 717.25 237.87 739.03C237.831 739.088 237.804 739.152 237.79 739.22C237.777 739.288 237.777 739.359 237.791 739.427C237.805 739.495 237.832 739.559 237.872 739.617C237.911 739.674 237.961 739.723 238.02 739.76C240.893 741.573 247.697 745.943 258.43 752.87C269.76 760.18 280.11 767.54 290.84 774.42C326.993 797.64 365.69 815.763 406.93 828.79C414.47 831.17 416.52 839.11 413.68 845.96C410.5 853.65 402.55 854.01 395.52 852.7C387.68 851.24 379.933 849.073 372.28 846.2C350.773 838.133 332.46 830.103 317.34 822.11C300.62 813.277 288.487 806.34 280.94 801.3C258.667 786.42 246.473 778.287 244.36 776.9C234.133 770.187 225.897 765.25 219.65 762.09C217.257 760.877 215.003 761.06 212.89 762.64C201.62 771.04 187.01 782.39 174.41 794.15C150.82 816.14 137.14 845 131.47 876.4C131.46 876.459 131.463 876.519 131.478 876.576C131.493 876.633 131.521 876.687 131.559 876.732C131.597 876.778 131.645 876.815 131.698 876.84C131.752 876.866 131.811 876.879 131.87 876.88H571.21C571.279 876.881 571.347 876.865 571.408 876.833C571.469 876.802 571.522 876.757 571.562 876.701C571.603 876.645 571.629 876.581 571.639 876.513C571.649 876.445 571.642 876.375 571.62 876.31C569.15 869.34 565.09 861 562.25 855.69C552.823 838.003 541.267 823.653 527.58 812.64C512.707 800.66 496.327 791.303 478.44 784.57C470.747 781.677 461.977 778.967 452.13 776.44C441.4 773.68 434.02 770.8 433.82 759.29C433.713 753.003 433.81 738.457 434.11 715.65C434.15 711.817 434.137 707.933 434.07 704C434.037 701.913 433.707 700.023 433.08 698.33C432.912 697.871 432.629 697.463 432.258 697.143C431.888 696.823 431.441 696.601 430.96 696.5C413.09 692.62 397.42 684.26 382.57 674.19C373.3 667.9 368.21 658.26 375.32 647.88C378.15 643.73 380.88 644.04 385.08 646.43C391.033 649.823 394.06 651.547 394.16 651.6C418.49 664.3 442.8 670.65 470.88 673.65C476.58 674.257 484.713 674.833 495.28 675.38C511.787 676.233 524.223 670.877 532.59 659.31C539.21 650.15 542.12 638.83 540.39 627.62C539.03 618.81 534.93 612.28 527.51 607.26C523.87 604.8 517.26 602.73 513.97 599.37C508.11 593.39 506.17 585.37 510.89 578.09C513.25 574.457 516.61 572.08 520.97 570.96C525.957 569.673 529.387 569.003 531.26 568.95C540.66 568.67 545.72 568.497 546.44 568.43C553.57 567.75 553.57 559.53 552.86 554.07C552.067 548.003 551.567 543.24 551.36 539.78C550.48 525.14 560.86 515.32 575.03 514.95C579.37 514.837 587.03 515.137 598.01 515.85C600.68 516.02 608.56 515.64 609.07 512C609.65 507.85 608.39 505.88 606.3 501.46C603.447 495.413 600.553 489.4 597.62 483.42C586.66 460.013 576.073 436.463 565.86 412.77C564.733 410.15 563.63 407.533 562.55 404.92C562.397 404.333 562.373 403.847 562.48 403.46C575.86 423.32 592.27 440.267 611.71 454.3C613.377 455.5 614.687 457.007 615.64 458.82C618.407 464.053 620.277 467.787 621.25 470.02C623.703 475.647 629.113 487.207 637.48 504.7C642.65 515.53 637.74 529.44 625.92 533.9C623.373 534.867 620.173 535.673 616.32 536.32C606.413 537.993 596.743 539.16 587.31 539.82C582.76 540.13 580.3 541.32 579.9 545.97C579.44 551.49 580.35 561.65 578.68 569.18C574.9 586.21 560.61 588.31 545.94 590.66C545.851 590.675 545.766 590.711 545.694 590.764C545.621 590.818 545.563 590.889 545.523 590.969C545.484 591.05 545.465 591.138 545.468 591.227C545.471 591.316 545.496 591.403 545.54 591.48L545.89 592.13C546.016 592.355 546.185 592.555 546.39 592.72C554.877 599.593 561.14 607.55 565.18 616.59C567.893 622.683 568.96 629.66 568.38 637.52C565.77 672.79 543.77 702.65 505.76 702.84C492.59 702.91 477.1 700.71 467.01 700.44C462.47 700.32 461.29 704.05 461.33 708.31C461.357 710.883 461.12 719.863 460.62 735.25C460.54 737.71 460.623 740.623 460.87 743.99C461.157 747.977 463.243 750.53 467.13 751.65C476.683 754.397 487.057 758.267 498.25 763.26C526.78 775.99 551.83 795.92 570.47 819.83C583.983 837.15 593.217 856.807 598.17 878.8C599.39 884.2 600.29 889.19 598.36 893.71C595.07 901.41 587.82 903.16 579.76 903.18C460.46 903.4 399.28 903.42 313.12 902.97C248.33 902.62 194.1 903.66 126.18 903.49C120.787 903.477 117.063 902.997 115.01 902.05C110.31 899.883 107.203 896.133 105.69 890.8C105.263 889.293 105.077 886.367 105.13 882.02C105.203 875.84 105.917 869.337 107.27 862.51C112.49 836.29 123.44 812.98 140.12 792.58C149.173 781.507 159.133 771.477 170 762.49C173.773 759.37 179.27 754.92 186.49 749.14C194.417 742.793 199.797 738.223 202.63 735.43C217.897 720.37 228.173 702.917 233.46 683.07C236.813 670.47 238.447 656.167 238.36 640.16C238.28 625.933 236.363 611.66 232.61 597.34C229.71 586.287 225.58 576.763 220.22 568.77C212.293 556.963 205.567 546.63 200.04 537.77C181.967 508.783 169.633 478.033 163.04 445.52C160.487 432.913 158.87 418.773 158.19 403.1C155.38 338.25 179.67 276.39 225.32 230.45C255.553 200.01 292.033 178.783 334.76 166.77C354.66 161.17 374.017 157.74 392.83 156.48C409.64 155.36 427.42 155.72 443.89 158.22C473.077 162.653 500.33 172.69 525.65 188.33C532.08 192.3 540.22 196.66 542.88 202.89C543.79 205 543.57 206.59 542.62 208.87C539.96 215.27 537.593 221.92 535.52 228.82Z" fill="#348FDC"/>
<path d="M535.519 228.82C531.213 242.64 528.606 255.867 527.699 268.5C527.033 277.827 527.096 289.21 527.889 302.65C529.143 323.903 533.973 344.657 542.379 364.91C547.946 378.31 554.286 390.57 561.399 401.69C561.273 402.803 561.656 403.88 562.549 404.92C563.629 407.533 564.732 410.15 565.859 412.77C576.073 436.463 586.659 460.013 597.619 483.42C581.919 485.553 567.783 485.92 555.209 484.52C543.689 483.233 533.936 482.527 525.949 482.4C515.643 482.24 502.769 482.977 487.329 484.61C480.309 485.35 471.369 487.61 464.059 489.12C460.033 489.953 456.196 489.687 452.549 488.32C448.763 486.907 446.799 486.183 446.659 486.15C439.379 484.41 431.729 483.89 420.089 482.6C404.079 480.83 389.439 480.43 372.909 479.48C361.379 478.82 343.219 475.62 328.249 474.03C312.019 472.31 295.789 472.19 279.459 471.27C273.679 457.38 274.119 440.32 283.549 428.02C290.169 419.38 302.809 414.96 313.159 418.15C317.499 419.483 320.223 420.297 321.329 420.59C329.299 422.71 336.299 416.66 335.309 408.48C333.179 390.83 307.529 389.71 294.859 392.4C269.969 397.7 251.919 416.19 247.819 441.57C238.973 437.09 229.636 434.307 219.809 433.22C209.049 432.03 198.519 431.04 188.149 432.55C179.503 380.23 188.476 332.073 215.069 288.08C231.963 260.14 254.856 236.83 283.749 218.15C329.096 188.837 378.076 177.58 430.689 184.38C445.043 186.233 458.639 189.353 471.479 193.74C484.806 198.287 497.549 204.043 509.709 211.01C518.749 216.177 527.353 222.113 535.519 228.82ZM506.851 388.768C505.692 384.382 503.664 380.271 500.883 376.67C498.102 373.069 494.623 370.049 490.643 367.782C486.663 365.515 482.261 364.046 477.689 363.458C473.116 362.87 468.463 363.175 463.993 364.356C454.968 366.741 447.241 372.547 442.514 380.498C437.787 388.449 436.446 397.892 438.787 406.752C439.946 411.138 441.974 415.249 444.755 418.85C447.536 422.451 451.016 425.471 454.995 427.738C458.975 430.005 463.377 431.474 467.949 432.062C472.522 432.65 477.176 432.344 481.645 431.164C490.671 428.779 498.397 422.973 503.124 415.022C507.851 407.071 509.192 397.628 506.851 388.768Z" fill="#8AE2FF"/>
<path d="M841.575 227.677L666.095 227.983C658.512 227.996 652.376 234.154 652.389 241.737L652.39 242.157C652.403 249.74 658.561 255.876 666.144 255.863L841.624 255.557C849.206 255.544 855.343 249.386 855.33 241.803L855.329 241.383C855.316 233.8 849.158 227.664 841.575 227.677Z" fill="#41B3F1"/>
<path d="M841.208 293.065L666.43 292.455C658.653 292.428 652.328 298.71 652.3 306.486L652.299 306.906C652.272 314.682 658.554 321.008 666.33 321.035L841.109 321.645C848.885 321.672 855.211 315.39 855.238 307.614L855.239 307.194C855.266 299.418 848.985 293.092 841.208 293.065Z" fill="#41B3F1"/>
<path d="M764.994 357.776L666.314 357.604C658.682 357.591 652.483 363.767 652.47 371.4L652.469 372.06C652.456 379.692 658.632 385.891 666.265 385.904L764.945 386.076C772.577 386.089 778.775 379.913 778.789 372.28L778.79 371.62C778.803 363.988 772.627 357.79 764.994 357.776Z" fill="#41B3F1"/>
<path d="M481.646 431.164C500.442 426.198 511.727 407.217 506.853 388.768C501.979 370.32 482.791 359.39 463.995 364.356C445.2 369.322 433.914 388.303 438.789 406.752C443.663 425.2 462.851 436.13 481.646 431.164Z" fill="#348FDC"/>
<path d="M279.46 471.27C285.28 485.5 297.87 496.9 312.2 502.05C317.36 503.903 321.893 504.523 325.8 503.91C329.353 503.357 331.586 503.223 332.5 503.51C335.053 504.317 336.83 505.57 337.83 507.27C342.01 514.357 341.446 520.527 336.14 525.78C330.06 531.8 317.26 530.55 310.29 528.92C301.93 526.96 293.743 523.497 285.73 518.53C259.35 502.18 243.3 472.99 247.82 441.57C251.92 416.19 269.97 397.7 294.86 392.4C307.53 389.71 333.18 390.83 335.31 408.48C336.3 416.66 329.3 422.71 321.33 420.59C320.223 420.297 317.5 419.483 313.16 418.15C302.81 414.96 290.17 419.38 283.55 428.02C274.12 440.32 273.68 457.38 279.46 471.27Z" fill="#348FDC"/>
<path d="M561.401 401.69L562.481 403.46C562.374 403.847 562.397 404.333 562.551 404.92C561.657 403.88 561.274 402.803 561.401 401.69Z" fill="#41B3F1"/>
<path d="M247.82 441.57C243.3 472.99 259.35 502.18 285.73 518.53C293.744 523.497 301.93 526.96 310.29 528.92C317.26 530.55 330.06 531.8 336.14 525.78C341.447 520.527 342.01 514.357 337.83 507.27C336.83 505.57 335.054 504.317 332.5 503.51C331.587 503.223 329.354 503.357 325.8 503.91C321.894 504.523 317.36 503.903 312.2 502.05C297.87 496.9 285.28 485.5 279.46 471.27C295.79 472.19 312.02 472.31 328.25 474.03C343.22 475.62 361.38 478.82 372.91 479.48C389.44 480.43 404.08 480.83 420.09 482.6C431.73 483.89 439.38 484.41 446.66 486.15C446.8 486.183 448.764 486.907 452.55 488.32C456.197 489.687 460.034 489.953 464.06 489.12C471.37 487.61 480.31 485.35 487.33 484.61C502.77 482.977 515.644 482.24 525.95 482.4C533.937 482.527 543.69 483.233 555.21 484.52C567.784 485.92 581.92 485.553 597.62 483.42C600.554 489.4 603.447 495.413 606.3 501.46C608.39 505.88 609.65 507.85 609.07 512C608.56 515.64 600.68 516.02 598.01 515.85C587.03 515.137 579.37 514.837 575.03 514.95C560.86 515.32 550.48 525.14 551.36 539.78C551.567 543.24 552.067 548.003 552.86 554.07C553.57 559.53 553.57 567.75 546.44 568.43C545.72 568.497 540.66 568.67 531.26 568.95C529.387 569.003 525.957 569.673 520.97 570.96C516.61 572.08 513.25 574.457 510.89 578.09C506.17 585.37 508.11 593.39 513.97 599.37C517.26 602.73 523.87 604.8 527.51 607.26C534.93 612.28 539.03 618.81 540.39 627.62C542.12 638.83 539.21 650.15 532.59 659.31C524.224 670.877 511.787 676.233 495.28 675.38C484.714 674.833 476.58 674.257 470.88 673.65C442.8 670.65 418.49 664.3 394.16 651.6C394.06 651.547 391.034 649.823 385.08 646.43C380.88 644.04 378.15 643.73 375.32 647.88C368.21 658.26 373.3 667.9 382.57 674.19C397.42 684.26 413.09 692.62 430.96 696.5C431.441 696.601 431.888 696.823 432.259 697.143C432.63 697.463 432.912 697.871 433.08 698.33C433.707 700.023 434.037 701.913 434.07 704C434.137 707.933 434.15 711.817 434.11 715.65C422.21 713.683 410.784 710.527 399.83 706.18C395.83 704.587 389.907 701.747 382.06 697.66C375.114 694.04 366.957 691.62 357.59 690.4C349.417 689.34 340.294 688.387 330.22 687.54C320.44 686.72 311.184 684.283 302.45 680.23C294.59 676.59 288.84 674.22 282.42 672.23C278.387 670.977 271.97 669.117 263.17 666.65C265.557 644.723 264.42 621.907 259.76 598.2C256.194 580.073 249.35 563.43 239.23 548.27C231.897 537.283 226.097 528.34 221.83 521.44C205.937 495.747 195.057 467.923 189.19 437.97C188.837 436.157 188.49 434.35 188.15 432.55C198.52 431.04 209.05 432.03 219.81 433.22C229.637 434.307 238.974 437.09 247.82 441.57Z" fill="#74D8FE"/>
<path d="M434.111 715.65C433.811 738.457 433.714 753.003 433.821 759.29C434.021 770.8 441.401 773.68 452.131 776.44C461.978 778.967 470.748 781.677 478.441 784.57C496.328 791.303 512.708 800.66 527.581 812.64C541.268 823.653 552.824 838.003 562.251 855.69C565.091 861 569.151 869.34 571.621 876.31C571.643 876.375 571.65 876.445 571.64 876.513C571.63 876.581 571.604 876.645 571.563 876.701C571.523 876.757 571.47 876.802 571.409 876.833C571.348 876.865 571.28 876.881 571.211 876.88H131.871C131.811 876.879 131.753 876.866 131.699 876.84C131.645 876.815 131.598 876.778 131.56 876.732C131.522 876.687 131.494 876.633 131.479 876.576C131.463 876.519 131.461 876.459 131.471 876.4C137.141 845 150.821 816.14 174.411 794.15C187.011 782.39 201.621 771.04 212.891 762.64C215.004 761.06 217.258 760.877 219.651 762.09C225.898 765.25 234.134 770.187 244.361 776.9C246.474 778.287 258.668 786.42 280.941 801.3C288.488 806.34 300.621 813.277 317.341 822.11C332.461 830.103 350.774 838.133 372.281 846.2C379.934 849.073 387.681 851.24 395.521 852.7C402.551 854.01 410.501 853.65 413.681 845.96C416.521 839.11 414.471 831.17 406.931 828.79C365.691 815.763 326.994 797.64 290.841 774.42C280.111 767.54 269.761 760.18 258.431 752.87C247.698 745.943 240.894 741.573 238.021 739.76C237.962 739.723 237.912 739.674 237.873 739.617C237.833 739.559 237.806 739.495 237.792 739.427C237.778 739.359 237.778 739.288 237.791 739.22C237.805 739.152 237.832 739.088 237.871 739.03C252.351 717.25 260.041 692.61 263.171 666.65C271.971 669.117 278.388 670.977 282.421 672.23C288.841 674.22 294.591 676.59 302.451 680.23C311.184 684.283 320.441 686.72 330.221 687.54C340.294 688.387 349.418 689.34 357.591 690.4C366.958 691.62 375.114 694.04 382.061 697.66C389.908 701.747 395.831 704.587 399.831 706.18C410.784 710.527 422.211 713.683 434.111 715.65Z" fill="#5FCEFF"/>
</svg>
