<svg width="26" height="26" viewBox="0 0 26 26" fill="none" xmlns="http://www.w3.org/2000/svg">
<g clip-path="url(#clip0_690_12860)">
<path d="M11.4201 3.58006e-07C11.2861 7.13206e-05 11.1565 0.0477251 11.0544 0.134465C10.9523 0.221204 10.8843 0.34139 10.8626 0.473591L10.3128 3.8395C9.65166 4.03181 9.02124 4.29128 8.42709 4.61447L5.64934 2.63069C5.54059 2.55304 5.40784 2.51642 5.27465 2.52733C5.14146 2.53824 5.01645 2.59598 4.92178 2.6903L2.72255 4.88714C2.62857 4.98118 2.57074 5.10533 2.55923 5.23778C2.54772 5.37023 2.58327 5.50249 2.65962 5.61133L4.61376 8.4065C4.28556 9.00407 4.02031 9.63799 3.82327 10.3053L0.471423 10.8628C0.339615 10.885 0.219938 10.9532 0.133634 11.0552C0.0473307 11.1573 -1.51473e-05 11.2866 9.31512e-07 11.4203V14.529C-0.00024016 14.6618 0.0463249 14.7905 0.131523 14.8925C0.216721 14.9944 0.335108 15.0631 0.465903 15.0864L3.81996 15.6804C4.01593 16.3465 4.2795 16.9809 4.60824 17.5791L2.62981 20.3467C2.55215 20.4555 2.51553 20.5882 2.52644 20.7214C2.53736 20.8546 2.5951 20.9796 2.68943 21.0742L4.88756 23.2733C4.9814 23.3671 5.10528 23.425 5.23749 23.4367C5.36971 23.4484 5.50183 23.4132 5.6107 23.3373L8.41164 21.3767C9.00753 21.7018 9.63949 21.9632 10.3028 22.1572L10.8626 25.5275C10.8846 25.6595 10.9526 25.7794 11.0547 25.866C11.1568 25.9525 11.2863 26 11.4201 26H14.5291C14.6621 26.0002 14.7909 25.9535 14.8929 25.8681C14.9949 25.7827 15.0635 25.664 15.0866 25.533L15.6861 22.1495C16.3467 21.9525 16.9757 21.6872 17.5685 21.3601L20.3882 23.3384C20.497 23.4147 20.6293 23.4503 20.7618 23.4388C20.8942 23.4273 21.0184 23.3694 21.1124 23.2755L23.3106 21.0753C23.4053 20.9804 23.4632 20.8549 23.4739 20.7212C23.4846 20.5875 23.4475 20.4544 23.3691 20.3456L21.3586 17.5549C21.6801 16.965 21.9391 16.3398 22.1315 15.6837L25.533 15.0876C25.664 15.0644 25.7826 14.9958 25.8681 14.8939C25.9535 14.7919 26.0002 14.6631 26 14.5301V11.4214C25.9999 11.2874 25.9523 11.1578 25.8655 11.0557C25.7788 10.9536 25.6586 10.8856 25.5264 10.8639L22.1304 10.3086C21.9367 9.65325 21.677 9.02919 21.3553 8.43962L23.3382 5.61464C23.4145 5.5058 23.4501 5.37354 23.4386 5.24109C23.4271 5.10865 23.3692 4.98449 23.2752 4.89046L21.076 2.69251C20.9811 2.59779 20.8556 2.5399 20.7219 2.52918C20.5882 2.51846 20.4551 2.55562 20.3462 2.634L17.563 4.63545C16.97 4.30968 16.3406 4.04582 15.6784 3.85054L15.0866 0.468071C15.0637 0.336881 14.9952 0.217989 14.8932 0.132356C14.7912 0.046724 14.6623 -0.000149456 14.5291 3.58006e-07H11.4201ZM11.9015 1.13044H14.0544L14.6174 4.34401C14.6361 4.45179 14.6858 4.55182 14.7602 4.63196C14.8347 4.7121 14.9308 4.76892 15.0369 4.79552C15.8637 5.00151 16.6401 5.32805 17.3488 5.75705C17.4435 5.81445 17.5531 5.84276 17.6638 5.83844C17.7745 5.83412 17.8815 5.79737 17.9715 5.73276L20.6167 3.83178L22.1392 5.35411L20.2557 8.03779C20.1928 8.12731 20.1572 8.23317 20.1533 8.34251C20.1494 8.45186 20.1773 8.55999 20.2336 8.65379C20.6584 9.36083 20.9806 10.1323 21.1864 10.9544C21.2132 11.0615 21.2708 11.1584 21.352 11.2331C21.4332 11.3078 21.5345 11.3572 21.6435 11.375L24.8695 11.9027V14.0554L21.6369 14.6228C21.529 14.6419 21.429 14.6919 21.349 14.7668C21.2691 14.8416 21.2126 14.9381 21.1864 15.0445C20.983 15.8655 20.6606 16.637 20.2358 17.344C20.1788 17.4387 20.1508 17.5481 20.1553 17.6586C20.1599 17.769 20.1967 17.8758 20.2612 17.9655L22.1712 20.6161L20.6487 22.1395L17.9693 20.2595C17.8793 20.1965 17.7729 20.161 17.6631 20.1575C17.5533 20.154 17.4448 20.1825 17.351 20.2396C16.6458 20.6686 15.8686 20.9967 15.0447 21.2056C14.9391 21.2322 14.8434 21.2888 14.7691 21.3685C14.6949 21.4482 14.6453 21.5477 14.6262 21.6549L14.0555 24.8696H11.8993L11.3671 21.6692C11.349 21.5604 11.2994 21.4592 11.2245 21.3782C11.1495 21.2972 11.0525 21.2398 10.9454 21.2133C10.1182 21.0094 9.33827 20.6834 8.62471 20.2551C8.53103 20.199 8.4231 20.1712 8.31397 20.1751C8.20485 20.1791 8.09919 20.2145 8.00977 20.2772L5.35125 22.1395L3.82769 20.6139L5.70675 17.9876C5.77097 17.8976 5.80739 17.7908 5.81151 17.6803C5.81564 17.5699 5.78727 17.4606 5.72994 17.3661C5.29693 16.6507 4.96946 15.8709 4.7628 15.0401C4.73636 14.9343 4.67987 14.8384 4.60014 14.7639C4.52041 14.6895 4.42085 14.6397 4.31346 14.6206L1.13053 14.0554V11.8994L4.31125 11.3706C4.41999 11.3526 4.52108 11.3031 4.60209 11.2284C4.6831 11.1537 4.7405 11.0569 4.76722 10.95C4.97565 10.1163 5.30297 9.33667 5.73435 8.62288C5.79124 8.52917 5.81965 8.42094 5.81612 8.31137C5.81259 8.20181 5.77728 8.09563 5.71448 8.00577L3.8575 5.3519L5.38217 3.82846L8.0175 5.71179C8.10715 5.77571 8.21352 5.81206 8.32355 5.81637C8.43358 5.82069 8.54247 5.79278 8.63686 5.73607C9.34664 5.30982 10.1284 4.98639 10.9564 4.78337C11.0641 4.75688 11.1615 4.69932 11.2367 4.61786C11.3119 4.53641 11.3615 4.43464 11.3793 4.32524L11.9015 1.13044ZM13 8.47826C10.5092 8.47826 8.47788 10.5094 8.47788 13C8.47788 15.4906 10.5092 17.5217 13 17.5217C15.4908 17.5217 17.5221 15.4906 17.5221 13C17.5221 10.5094 15.4908 8.47826 13 8.47826ZM13 9.6087C14.8798 9.6087 16.3916 11.1203 16.3916 13C16.3916 14.8797 14.8798 16.3913 13 16.3913C11.1202 16.3913 9.60841 14.8797 9.60841 13C9.60841 11.1203 11.1202 9.6087 13 9.6087Z" fill="#6B6B6E"/>
</g>
<defs>
<clipPath id="clip0_690_12860">
<rect width="26" height="26" fill="white"/>
</clipPath>
</defs>
</svg>
