<svg width="1024" height="1024" viewBox="0 0 1024 1024" fill="none" xmlns="http://www.w3.org/2000/svg">
<path d="M617.789 676.59C618.089 681.66 618.649 686.47 618.649 691.83C618.642 740.503 618.656 791.563 618.689 845.01C618.696 852.577 618.216 857.72 617.249 860.44C614.399 868.46 607.559 875.18 599.039 877.33C597.026 877.837 593.642 878.09 588.889 878.09C506.902 878.037 400.499 878.043 269.679 878.11C259.659 878.11 253.272 877.64 250.519 876.7C243.186 874.18 238.062 868.957 235.149 861.03C233.509 856.57 233.609 850.4 233.779 845.66C233.784 845.534 233.752 845.409 233.687 845.301C233.621 845.193 233.525 845.107 233.411 845.054C233.296 845 233.169 844.982 233.044 845.001C232.919 845.02 232.803 845.075 232.709 845.16C218.379 857.82 200.079 862.89 180.769 860.86C152.119 857.86 130.289 836.21 124.059 808.58C123.032 804.027 122.512 796.613 122.499 786.34C122.479 766.54 122.452 752.313 122.419 743.66C122.413 742.461 122.008 741.296 121.269 740.35C112.229 728.81 106.416 716.063 103.829 702.11C102.689 695.97 102.132 685.533 102.159 670.8C102.199 649.033 102.222 609.6 102.229 552.5C102.229 550.767 102.369 548.127 102.649 544.58C104.059 526.71 116.199 513.75 134.769 514.21C137.379 514.28 140.279 515.15 142.839 516.06C143.032 516.131 143.238 516.161 143.443 516.148C143.649 516.136 143.85 516.081 144.034 515.987C144.217 515.894 144.38 515.763 144.512 515.603C144.644 515.444 144.741 515.259 144.799 515.06C146.366 509.673 149.392 504.957 153.879 500.91C173.309 483.42 202.919 496.49 203.969 522.52C203.973 522.632 204.002 522.741 204.054 522.84C204.106 522.939 204.18 523.026 204.269 523.094C204.359 523.162 204.463 523.209 204.574 523.233C204.684 523.256 204.799 523.255 204.909 523.23C216.329 520.49 225.969 522.563 233.829 529.45C240.519 535.31 243.849 544.04 243.869 552.74C243.882 556.187 243.876 559.953 243.849 564.04C243.848 564.177 243.881 564.311 243.944 564.433C244.007 564.554 244.098 564.658 244.211 564.736C244.323 564.814 244.453 564.863 244.588 564.879C244.724 564.896 244.861 564.879 244.989 564.83L322.269 535.21C322.56 535.099 322.81 534.901 322.987 534.642C323.164 534.383 323.259 534.075 323.259 533.76V512.71C323.259 512.19 323.136 511.677 322.9 511.213C322.663 510.749 322.32 510.347 321.899 510.04C301.369 495.13 284.719 475.5 275.389 451.62C270.636 439.467 267.652 427.11 266.439 414.55C266.152 411.557 266.016 405.71 266.029 397.01C266.036 390.363 266.389 384.537 267.089 379.53C269.876 359.583 276.629 341.543 287.349 325.41C309.729 291.74 345.029 272.24 385.499 270.77C390.079 270.603 396.539 270.777 404.879 271.29C406.849 271.41 408.499 272.06 410.499 272.13C410.613 272.135 410.726 272.117 410.833 272.077C410.939 272.037 411.037 271.975 411.119 271.896C411.201 271.816 411.267 271.721 411.311 271.615C411.356 271.509 411.379 271.395 411.379 271.28C411.346 248.507 411.356 229.663 411.409 214.75C411.429 209.377 411.559 204.783 411.799 200.97C413.349 176.47 432.239 154.41 456.439 149.77C464.899 148.15 476.409 148.81 484.999 148.81C620.599 148.81 714.766 148.8 767.499 148.78C836.559 148.76 878.559 148.797 893.499 148.89C919.199 149.05 941.439 168.9 946.069 193.82C946.589 196.64 946.849 201.287 946.849 207.76C946.842 347.747 946.856 480.93 946.889 607.31C946.896 619.19 946.399 627.273 945.399 631.56C939.439 657.08 916.409 675.99 889.749 675.99C779.236 675.997 688.776 675.993 618.369 675.98C618.29 675.98 618.212 675.996 618.14 676.027C618.068 676.058 618.002 676.103 617.948 676.16C617.894 676.217 617.852 676.285 617.824 676.359C617.797 676.433 617.785 676.511 617.789 676.59ZM613.999 653.38C686.399 653.4 778.656 653.403 890.769 653.39C906.129 653.38 918.989 642.62 923.259 628.41C924.179 625.343 924.639 620.177 924.639 612.91C924.612 373.07 924.616 238.13 924.649 208.09C924.656 202.857 924.336 198.987 923.689 196.48C920.629 184.68 910.829 175.21 899.339 172.38C897.086 171.82 889.999 171.543 878.079 171.55C657.966 171.577 521.692 171.577 469.259 171.55C464.912 171.55 461.622 171.897 459.389 172.59C446.909 176.47 438.792 184.463 435.039 196.57C434.259 199.077 433.862 201.72 433.849 204.5C433.802 212.64 433.796 237.267 433.829 278.38C433.83 278.62 433.901 278.854 434.035 279.051C434.169 279.249 434.358 279.402 434.579 279.49C454.126 287.123 470.676 298.967 484.229 315.02C500.302 334.053 509.766 356.64 512.619 382.78C514.266 397.887 513.786 412.29 511.179 425.99C504.379 461.723 486.249 490.14 456.789 511.24C456.594 511.379 456.436 511.563 456.326 511.777C456.217 511.991 456.159 512.228 456.159 512.47V533.26C456.16 533.576 456.255 533.884 456.434 534.144C456.612 534.405 456.865 534.605 457.159 534.72C482.306 544.48 506.812 554.017 530.679 563.33C532.999 564.237 535.176 565.07 537.209 565.83C554.642 572.323 569.639 582.573 582.199 596.58C596.792 612.847 607.042 631.513 612.949 652.58C613.016 652.811 613.155 653.013 613.344 653.157C613.533 653.302 613.763 653.38 613.999 653.38ZM391.179 509.11C428.309 508.6 461.099 486.56 478.489 454.22C489.309 434.1 492.919 411.47 490.989 388.77C486.809 339.53 451.569 301.03 402.229 294.04C399.276 293.627 394.596 293.463 388.189 293.55C381.782 293.643 377.112 293.937 374.179 294.43C325.049 302.78 290.889 342.25 288.079 391.58C286.779 414.33 291.009 436.85 302.389 456.67C320.669 488.51 354.059 509.63 391.179 509.11ZM221.459 654.68C221.677 654.61 221.867 654.473 222.002 654.287C222.137 654.102 222.209 653.879 222.209 653.65C222.236 635.377 222.262 602.52 222.289 555.08C222.289 551.96 222.102 549.94 221.729 549.02C220.029 544.85 215.469 542.39 210.999 543.52C206.239 544.73 203.999 548.43 204.009 553.26C204.029 560.247 204.019 582.247 203.979 619.26C203.979 623.373 203.832 626.01 203.539 627.17C201.919 633.62 194.069 636.73 188.429 633.76C184.702 631.793 182.862 628.54 182.909 624C182.982 617.513 182.996 585.983 182.949 529.41C182.942 525.09 182.632 522.25 182.019 520.89C179.419 515.14 171.759 514.06 167.359 518.29C165.439 520.13 164.472 522.783 164.459 526.25C164.426 539.69 164.386 571.78 164.339 622.52C164.332 628.36 162.169 632.21 157.849 634.07C154.199 635.64 151.099 635 147.739 633.16C144.099 631.17 143.059 627.66 143.059 623.5C143.066 596.333 143.062 571.493 143.049 548.98C143.049 544.22 142.289 540.18 138.149 537.93C134.279 535.83 128.369 536.73 125.919 540.92C124.666 543.06 124.039 544.833 124.039 546.24C123.992 600.6 123.986 644.523 124.019 678.01C124.039 692.65 125.599 705.52 132.729 717.99C148.249 745.11 180.099 758.1 210.229 749.51C227.056 744.71 240.416 735.15 250.309 720.83C254.022 715.443 256.719 709.803 258.399 703.91C264.639 682.05 270.882 660.09 277.129 638.03C278.599 632.85 278.929 629.1 275.239 625.5C270.819 621.2 263.899 622.44 259.999 627.1C258.646 628.72 257.446 630.65 256.399 632.89C249.366 647.983 243.182 660.897 237.849 671.63C237.727 671.876 237.552 672.092 237.335 672.262C237.119 672.432 236.867 672.55 236.599 672.61C224.299 675.44 213.639 680.82 208.319 692.84C207.369 694.96 206.759 698.15 205.749 700C200.169 710.21 184.739 706.21 185.119 694.73C185.206 692.083 185.709 689.607 186.629 687.3C193.069 671.153 204.679 660.28 221.459 654.68ZM389.839 531.42C375.126 531.493 360.789 528.517 346.829 522.49C346.709 522.438 346.578 522.417 346.448 522.429C346.318 522.441 346.193 522.485 346.085 522.558C345.976 522.63 345.888 522.729 345.828 522.845C345.767 522.961 345.737 523.09 345.739 523.22C345.879 531.31 345.219 540.64 346.889 548.21C350.069 562.63 360.399 573.74 374.369 578.28C379.549 579.96 384.589 580.6 390.089 580.57C395.589 580.54 400.619 579.86 405.779 578.12C419.709 573.45 429.919 562.23 432.959 547.78C434.559 540.2 433.799 530.87 433.859 522.78C433.86 522.65 433.828 522.523 433.767 522.408C433.706 522.294 433.617 522.196 433.509 522.125C433.401 522.054 433.276 522.01 433.147 521.999C433.018 521.987 432.888 522.009 432.769 522.06C418.862 528.227 404.552 531.347 389.839 531.42ZM244.569 610.67C244.856 610.61 245.132 610.44 245.399 610.16C252.659 602.69 263.569 599.61 273.939 601.59C283.932 603.51 291.329 609.013 296.129 618.1C299.956 625.353 300.892 632.653 298.939 640C298.292 642.433 292.936 661.707 282.869 697.82C279.296 710.627 276.332 719.3 273.979 723.84C269.399 732.673 263.606 740.327 256.599 746.8C256.362 747.018 256.174 747.282 256.044 747.576C255.915 747.871 255.849 748.189 255.849 748.51V854.37C255.849 854.839 256.036 855.29 256.368 855.622C256.699 855.954 257.15 856.14 257.619 856.14H518.899C519.231 856.14 519.549 856.008 519.783 855.774C520.017 855.539 520.149 855.222 520.149 854.89C520.169 772.663 520.169 726.05 520.149 715.05C520.142 712.323 520.462 710.35 521.109 709.13C526.339 699.3 539.579 702.14 541.629 712.83C541.776 713.583 541.846 715.473 541.839 718.5C541.832 799.787 541.836 845.317 541.849 855.09C541.849 855.235 541.878 855.379 541.934 855.513C541.99 855.647 542.072 855.769 542.175 855.871C542.278 855.974 542.4 856.055 542.535 856.109C542.67 856.164 542.814 856.191 542.959 856.19C554.032 856.117 569.632 856.117 589.759 856.19C594.206 856.21 596.429 854.067 596.429 849.76C596.396 795.113 596.396 747.853 596.429 707.98C596.436 693.2 596.352 684.717 596.179 682.53C593.689 652.09 578.679 621 555.149 601.37C548.169 595.557 541.302 591.327 534.549 588.68C499.449 574.94 472.789 564.517 454.569 557.41C454.447 557.363 454.316 557.342 454.185 557.347C454.054 557.353 453.925 557.385 453.807 557.442C453.689 557.5 453.584 557.58 453.498 557.68C453.413 557.779 453.348 557.895 453.309 558.02C448.176 574.347 438.122 586.55 423.149 594.63C387.799 613.71 338.609 599.65 326.859 558.66C326.807 558.479 326.719 558.311 326.599 558.166C326.479 558.022 326.331 557.904 326.163 557.82C325.995 557.736 325.812 557.688 325.626 557.68C325.439 557.671 325.253 557.702 325.079 557.77L244.419 588.7C244.252 588.762 244.109 588.874 244.009 589.021C243.909 589.168 243.856 589.342 243.859 589.52C243.932 595.253 243.929 602.11 243.849 610.09C243.848 610.179 243.868 610.267 243.906 610.347C243.944 610.428 244 610.498 244.069 610.554C244.138 610.61 244.219 610.649 244.306 610.669C244.392 610.689 244.482 610.69 244.569 610.67ZM232.899 764.03C232.719 763.997 232.542 764.023 232.369 764.11C220.899 769.83 208.459 773.74 195.859 773.92C189.372 774.013 185.376 774.007 183.869 773.9C170.056 772.88 157.176 768.65 145.229 761.21C145.138 761.155 145.035 761.126 144.929 761.124C144.823 761.122 144.718 761.149 144.626 761.2C144.533 761.252 144.456 761.328 144.402 761.419C144.348 761.51 144.32 761.614 144.319 761.72C144.366 774.187 144.439 784.77 144.539 793.47C144.726 809.283 150.949 821.733 163.209 830.82C183.489 845.87 212.569 840.02 226.319 819.13C231.092 811.87 233.486 803.493 233.499 794C233.506 785.333 233.412 775.467 233.219 764.4C233.22 764.312 233.188 764.225 233.129 764.158C233.071 764.09 232.989 764.044 232.899 764.03Z" fill="#7BCEBB"/>
<path d="M513.32 213.664L471.621 213.736C465.788 213.747 461.069 218.483 461.079 224.315L461.08 225.115C461.091 230.947 465.827 235.667 471.659 235.656L513.359 235.584C519.191 235.573 523.91 230.837 523.9 225.005L523.899 224.205C523.889 218.373 519.153 213.653 513.32 213.664Z" fill="#7BCEBB"/>
<path d="M601.061 213.73H558.461C552.623 213.73 547.891 218.462 547.891 224.3V225.08C547.891 230.918 552.623 235.65 558.461 235.65H601.061C606.898 235.65 611.631 230.918 611.631 225.08V224.3C611.631 218.462 606.898 213.73 601.061 213.73Z" fill="#7BCEBB"/>
<path d="M686.439 213.766L644.779 213.694C638.936 213.684 634.191 218.412 634.181 224.255L634.179 225.055C634.169 230.898 638.898 235.644 644.741 235.654L686.401 235.726C692.244 235.737 696.989 231.008 696.999 225.165L697.001 224.365C697.011 218.522 692.282 213.777 686.439 213.766Z" fill="#7BCEBB"/>
<path d="M773.839 213.766L732.179 213.694C726.342 213.684 721.601 218.408 721.591 224.245L721.59 225.025C721.579 230.863 726.303 235.604 732.141 235.614L773.801 235.686C779.639 235.697 784.379 230.973 784.389 225.135L784.391 224.355C784.401 218.517 779.677 213.777 773.839 213.766Z" fill="#7BCEBB"/>
<path d="M860.2 213.71H817.76C811.901 213.71 807.15 218.46 807.15 224.32V225.1C807.15 230.96 811.901 235.71 817.76 235.71H860.2C866.06 235.71 870.81 230.96 870.81 225.1V224.32C870.81 218.46 866.06 213.71 860.2 213.71Z" fill="#7BCEBB"/>
<path d="M706.491 333.41C706.857 333.163 709.311 330.637 713.851 325.83C724.351 314.71 738.961 307.89 753.831 306.23C780.461 303.25 805.441 314.02 820.431 336.48C828.171 348.067 832.034 360.57 832.021 373.99C832.011 380.24 832.071 385.12 830.731 390.97C828.731 399.69 825.308 407.727 820.461 415.08C818.234 418.453 813.787 423.463 807.121 430.11C802.401 434.823 797.647 439.573 792.861 444.36C742.481 494.807 715.794 521.54 712.801 524.56C705.721 531.68 700.151 526.45 694.151 520.46C636.851 463.213 605.228 431.567 599.281 425.52C587.241 413.3 579.761 395.69 579.011 377.95C578.278 360.677 583.044 345.467 593.311 332.32C616.661 302.43 658.621 296.68 689.491 318.23C695.091 322.13 701.841 329.67 705.591 333.33C705.708 333.446 705.862 333.517 706.026 333.532C706.191 333.546 706.355 333.503 706.491 333.41ZM705.521 500.12C705.921 500.12 706.241 500 706.481 499.76C718.954 487.367 747.141 459.377 791.041 415.79C795.487 411.377 798.584 407.96 800.331 405.54C812.031 389.35 813.881 367.96 803.371 350.98C796.541 339.95 785.301 331.73 772.511 329.08C758.471 326.17 741.951 329.57 731.151 339.64C726.518 343.947 721.151 349.42 715.051 356.06C712.084 359.3 708.991 360.917 705.771 360.91C702.551 360.903 699.461 359.277 696.501 356.03C690.427 349.37 685.081 343.877 680.461 339.55C669.701 329.44 653.191 325.99 639.141 328.85C626.341 331.45 615.071 339.63 608.201 350.64C597.631 367.58 599.411 388.98 611.051 405.21C612.791 407.637 615.877 411.063 620.311 415.49C664.057 459.23 692.144 487.317 704.571 499.75C704.811 499.997 705.128 500.12 705.521 500.12Z" fill="#7BCEBB"/>
<path d="M674.548 592.256L633.668 592.184C627.903 592.174 623.22 596.84 623.21 602.606L623.209 603.386C623.199 609.152 627.865 613.834 633.631 613.844L674.511 613.916C680.276 613.926 684.959 609.26 684.969 603.494L684.97 602.714C684.98 596.948 680.314 592.266 674.548 592.256Z" fill="#7BCEBB"/>
<path d="M760.021 592.187L718.301 592.333C712.53 592.353 707.868 597.048 707.888 602.819L707.891 603.579C707.911 609.351 712.606 614.013 718.377 613.993L760.097 613.847C765.868 613.827 770.53 609.132 770.51 603.361L770.508 602.601C770.488 596.829 765.793 592.167 760.021 592.187Z" fill="#7BCEBB"/>
<path d="M843.311 592.19H803.631C797.876 592.19 793.211 596.855 793.211 602.61V603.41C793.211 609.165 797.876 613.83 803.631 613.83H843.311C849.066 613.83 853.731 609.165 853.731 603.41V602.61C853.731 596.855 849.066 592.19 843.311 592.19Z" fill="#7BCEBB"/>
</svg>
