<svg width="1024" height="1024" viewBox="0 0 1024 1024" fill="none" xmlns="http://www.w3.org/2000/svg">
<path d="M280.172 88.0707L279.392 88.0694C273.947 88.0599 269.525 92.4666 269.515 97.9121L269.445 138.012C269.436 143.458 273.842 147.88 279.288 147.889L280.068 147.891C285.513 147.9 289.935 143.493 289.945 138.048L290.015 97.9479C290.024 92.5024 285.618 88.0802 280.172 88.0707Z" fill="#F5BF3B"/>
<path d="M209.54 173.62C207.99 179.43 202.74 181.92 196.98 180.56C193.873 179.833 190.89 178.053 188.03 175.22C182.097 169.333 173.777 161.07 163.07 150.43C161.41 148.777 160.477 147.087 160.27 145.36C159.37 137.78 162.347 133.387 169.2 132.18C172.253 131.64 175.15 132.767 177.89 135.56C188.79 146.667 198.487 156.307 206.98 164.48C209.87 167.26 210.52 169.93 209.54 173.62Z" fill="#F5BF3B"/>
<path d="M383.562 135.089L354.839 163.812C350.957 167.694 350.957 173.987 354.839 177.869L355.221 178.251C359.103 182.133 365.396 182.133 369.278 178.251L398.001 149.528C401.883 145.646 401.883 139.353 398.001 135.471L397.619 135.089C393.737 131.207 387.444 131.207 383.562 135.089Z" fill="#F5BF3B"/>
<path d="M211.34 294.08C206.3 285.24 203.84 277.46 202.44 267.76C201.7 262.64 200.81 258.31 200.61 253.76C199.58 229.14 210.18 206.57 229.03 191.02C252.68 171.5 284.01 167.15 312.12 178.89C328.28 185.63 341.56 200.19 350.31 215.44C356.66 226.51 358.86 237.85 359.21 250.35C359.89 274.8 348.78 297.6 329.76 313.03C299.91 337.25 257.13 338.09 227.74 312.78C221.79 307.65 215.51 301.4 211.34 294.08Z" fill="#F5BF3B"/>
<path d="M167.555 240.603L126.715 240.817C121.088 240.847 116.549 245.433 116.579 251.06L116.583 251.8C116.612 257.428 121.198 261.966 126.826 261.937L167.665 261.723C173.293 261.693 177.831 257.107 177.802 251.48L177.798 250.74C177.768 245.112 173.182 240.574 167.555 240.603Z" fill="#F5BF3B"/>
<path d="M432.671 240.607L395.272 240.673C389.655 240.682 385.11 245.244 385.119 250.86L385.121 251.68C385.131 257.297 389.692 261.842 395.308 261.833L432.708 261.767C438.325 261.758 442.87 257.196 442.861 251.58L442.859 250.76C442.849 245.143 438.288 240.598 432.671 240.607Z" fill="#F5BF3B"/>
<path d="M609.99 464.261L399.213 282.964C394.922 279.273 388.45 279.76 384.758 284.051L384.524 284.324C380.832 288.616 381.319 295.088 385.61 298.779L596.387 480.076C600.679 483.767 607.15 483.28 610.842 478.989L611.077 478.716C614.768 474.424 614.282 467.952 609.99 464.261Z" fill="#F5BF3B"/>
<path d="M856.12 638.21C855.902 638.611 855.554 638.926 855.133 639.104C854.712 639.282 854.242 639.312 853.8 639.19C849.267 637.95 844.9 636.34 840.7 634.36C838.14 633.15 837.74 631.73 837.87 628.82C838.26 619.74 839.64 609.39 839.84 600.71C840.14 588.01 838.973 573.277 836.34 556.51C830.16 517.177 816.087 480.97 794.12 447.89C790.98 443.163 787.587 438.297 783.94 433.29C772.47 417.54 757.5 403.99 742.41 391.86C713.75 368.827 681.543 352.453 645.79 342.74C633.39 339.373 623.533 337.25 616.22 336.37C612.273 335.897 608.53 335.387 604.99 334.84C600.25 334.1 596.887 333.753 594.9 333.8C590.72 333.9 586.54 333.01 581.35 332.98C566.003 332.9 553.703 333.383 544.45 334.43C536.983 335.27 532.257 335.82 530.27 336.08C522.61 337.08 514.743 338.49 506.67 340.31C505.47 340.583 504.09 340.937 502.53 341.37C497.07 342.883 492.733 341.213 489.52 336.36C485.66 330.54 490.26 322.16 496.75 320.77C497.83 320.537 503.573 319.35 513.98 317.21C532.107 313.483 550.533 311.607 569.26 311.58C580.887 311.567 591.47 311.913 601.01 312.62C604.743 312.9 611.173 313.73 620.3 315.11C651.48 319.84 681.69 330.18 709.8 344.97C741.14 361.457 768.18 382.827 790.92 409.08C803.54 423.653 815.283 440.737 826.15 460.33C839.137 483.73 848.753 509.957 855 539.01C855.253 540.19 856.36 547.343 858.32 560.47C859.46 568.077 860.067 575.29 860.14 582.11C860.26 592.523 860.18 601.607 859.9 609.36C859.59 618.1 858.33 626.37 857.54 633.8C857.38 635.3 856.907 636.77 856.12 638.21Z" fill="#F5BF3B"/>
<path d="M192.781 323.448L162.931 352.68C158.989 356.54 158.922 362.865 162.783 366.807L163.132 367.164C166.993 371.106 173.318 371.172 177.26 367.312L207.11 338.08C211.052 334.22 211.119 327.895 207.258 323.953L206.908 323.596C203.048 319.654 196.723 319.588 192.781 323.448Z" fill="#F5BF3B"/>
<path d="M582.782 539.229L365.724 323.682C361.837 319.821 355.556 319.843 351.696 323.731L351.188 324.242C347.328 328.129 347.35 334.41 351.237 338.271L568.295 553.818C572.182 557.679 578.463 557.657 582.324 553.769L582.831 553.258C586.692 549.371 586.67 543.09 582.782 539.229Z" fill="#F5BF3B"/>
<path d="M309.002 352.306L308.637 352.618C304.36 356.284 303.864 362.723 307.53 367L507.396 600.188C511.062 604.465 517.502 604.961 521.779 601.294L522.143 600.982C526.42 597.316 526.916 590.877 523.25 586.6L323.384 353.412C319.718 349.135 313.279 348.64 309.002 352.306Z" fill="#F5BF3B"/>
<path d="M250.723 355.136L250.608 355.216C245.86 358.516 244.686 365.041 247.986 369.789L450.064 660.542C453.364 665.29 459.889 666.464 464.637 663.164L464.752 663.084C469.5 659.784 470.674 653.259 467.374 648.511L265.296 357.758C261.996 353.01 255.471 351.836 250.723 355.136Z" fill="#F5BF3B"/>
<path d="M283.38 486.2C287.81 479.35 299.55 479.3 302.46 487.94C303.353 490.587 303.123 493.36 301.77 496.26C296.77 507.013 293.167 517.747 290.96 528.46C289.867 533.787 287.94 545.01 285.18 562.13C284.46 566.637 283.963 571.067 283.69 575.42C283.34 581.02 282.5 587.08 282.43 593.22C282.143 617.78 284.763 641.737 290.29 665.09C292.27 673.41 296.7 686.76 298.68 692.84C304.507 710.647 312.3 727.923 322.06 744.67C322.873 746.057 326.14 750.95 331.86 759.35C343.65 776.66 357.29 792.29 372.79 806.71C397.24 829.47 425.93 847.17 456.1 859.7C482.073 870.487 508.053 877.24 534.04 879.96C549.2 881.55 560.19 882.33 576.01 881.85C577.543 881.803 585.793 881.09 600.76 879.71C611.953 878.677 625.017 876.16 639.95 872.16C676.31 862.413 709.077 845.693 738.25 822C745.97 815.74 758.87 824.73 754.78 834.06C753.607 836.747 751.977 838.783 749.89 840.17C741.237 845.93 735.6 849.777 732.98 851.71C727.473 855.77 721.75 859.49 715.81 862.87C702.977 870.17 689.313 876.827 674.82 882.84C657.2 890.147 638.53 895.593 618.81 899.18C616.79 899.547 614.387 899.89 611.6 900.21C608.47 900.57 605.61 901.29 601.95 901.64C593.257 902.48 586.443 903.077 581.51 903.43C571.957 904.117 560.067 904.057 545.84 903.25C543.293 903.11 540.787 902.827 538.32 902.4C535.02 901.84 531.73 901.95 528.25 901.49C477.543 894.73 431.267 876.757 389.42 847.57C349.747 819.897 318.897 785.02 296.87 742.94C278.197 707.26 266.763 668.69 262.57 627.23C262.363 625.15 262.003 618.273 261.49 606.6C261.15 598.893 261.147 592.003 261.48 585.93C262.827 561.103 267.153 536.843 274.46 513.15C275.347 510.29 277.183 504.42 279.97 495.54C281.61 490.293 282.747 487.18 283.38 486.2Z" fill="#F5BF3B"/>
<path d="M583.67 634.49C583.984 634.519 584.297 634.426 584.544 634.231C584.792 634.035 584.955 633.752 585 633.44C588.706 608.773 599.256 587.763 616.65 570.41C632.303 554.803 650.2 544.957 670.34 540.87C698.23 535.22 728.24 540.7 750.73 558.53C758.24 564.48 765.56 570.68 771.61 577.97C785.576 594.81 794.24 613.967 797.6 635.44C797.91 637.39 797.85 638.95 798.16 640.77C798.211 641.061 798.359 641.326 798.578 641.522C798.798 641.718 799.077 641.834 799.37 641.85C807.616 642.33 816.33 643.997 825.51 646.85C847.423 653.67 862.726 667.867 871.42 689.44C874.78 697.76 876.89 706.287 877.75 715.02C877.943 716.993 877.983 720.77 877.87 726.35C877.58 740.96 871.7 758.39 862.8 769.9C850.38 785.96 832.76 797.25 812.72 801.11C810.073 801.617 807.423 801.903 804.77 801.97C801.5 802.05 797.72 802.33 794.08 802.33C622.706 802.31 519.51 802.333 484.49 802.4C477.23 802.413 470.556 801.22 464.47 798.82C447.48 792.13 436.05 776 434.21 757.91C433.423 750.17 434.323 742.837 436.91 735.91C446.29 710.75 469.38 704.93 492.98 700.7C493.26 700.649 493.519 700.515 493.722 700.316C493.926 700.116 494.064 699.86 494.12 699.58C498.57 677.74 509.88 656.87 529.62 644.95C541.54 637.75 554.916 634.08 569.75 633.94C574.543 633.9 579.183 634.083 583.67 634.49Z" fill="#F5BF3B"/>
</svg>
