<svg width="17" height="22" viewBox="0 0 17 22" fill="none" xmlns="http://www.w3.org/2000/svg">
<path d="M9.5275 8.58952C9.67875 8.13577 10.3195 8.13577 10.4708 8.58952L11.3576 11.2529C11.5528 11.8384 11.8817 12.3703 12.3183 12.8066C12.7548 13.2429 13.2869 13.5715 13.8725 13.7664L16.5345 14.6533C16.9883 14.8045 16.9883 15.4453 16.5345 15.5965L13.8711 16.4834C13.2857 16.6786 12.7537 17.0075 12.3174 17.444C11.8811 17.8805 11.5525 18.4127 11.3576 18.9983L10.4708 21.6603C10.4381 21.7596 10.375 21.8462 10.2903 21.9075C10.2056 21.9688 10.1037 22.0019 9.99913 22.0019C9.89456 22.0019 9.79265 21.9688 9.70796 21.9075C9.62327 21.8462 9.56011 21.7596 9.5275 21.6603L8.64063 18.9969C8.44556 18.4116 8.11687 17.8797 7.6806 17.4434C7.24432 17.0072 6.71246 16.6785 6.12713 16.4834L3.46375 15.5965C3.3644 15.5639 3.27787 15.5008 3.21653 15.4161C3.15519 15.3314 3.12216 15.2295 3.12216 15.1249C3.12216 15.0203 3.15519 14.9184 3.21653 14.8337C3.27787 14.749 3.3644 14.6859 3.46375 14.6533L6.12713 13.7664C6.71246 13.5713 7.24432 13.2426 7.6806 12.8064C8.11687 12.3701 8.44556 11.8382 8.64063 11.2529L9.5275 8.58952ZM4.21588 1.57839C4.2356 1.51885 4.27358 1.46703 4.32443 1.43031C4.37528 1.39358 4.4364 1.37381 4.49913 1.37381C4.56185 1.37381 4.62298 1.39358 4.67383 1.43031C4.72468 1.46703 4.76266 1.51885 4.78238 1.57839L5.3145 3.17614C5.55238 3.88839 6.11063 4.44664 6.82288 4.68452L8.42063 5.21664C8.48018 5.23636 8.53199 5.27434 8.56872 5.32519C8.60544 5.37604 8.62521 5.43717 8.62521 5.49989C8.62521 5.56262 8.60544 5.62375 8.56872 5.6746C8.53199 5.72545 8.48018 5.76343 8.42063 5.78314L6.82288 6.31527C6.4714 6.43192 6.152 6.62903 5.89013 6.8909C5.62827 7.15277 5.43116 7.47216 5.3145 7.82364L4.78238 9.42139C4.76266 9.48094 4.72468 9.53276 4.67383 9.56948C4.62298 9.60621 4.56185 9.62598 4.49913 9.62598C4.4364 9.62598 4.37528 9.60621 4.32443 9.56948C4.27358 9.53276 4.2356 9.48094 4.21588 9.42139L3.68375 7.82364C3.5671 7.47216 3.36999 7.15277 3.10813 6.8909C2.84626 6.62903 2.52686 6.43192 2.17538 6.31527L0.577629 5.78314C0.518084 5.76343 0.466267 5.72545 0.429541 5.6746C0.392814 5.62375 0.373047 5.56262 0.373047 5.49989C0.373047 5.43717 0.392814 5.37604 0.429541 5.32519C0.466267 5.27434 0.518084 5.23636 0.577629 5.21664L2.17538 4.68452C2.52686 4.56787 2.84626 4.37076 3.10813 4.10889C3.36999 3.84702 3.5671 3.52763 3.68375 3.17614L4.21588 1.57839ZM13.9358 0.136019C13.9493 0.0968679 13.9748 0.0629186 14.0085 0.0388914C14.0423 0.0148643 14.0827 0.00195312 14.1241 0.00195312C14.1656 0.00195313 14.206 0.0148643 14.2397 0.0388914C14.2735 0.0629186 14.2989 0.0968679 14.3125 0.136019L14.6673 1.20027C14.8254 1.67602 15.198 2.04864 15.6738 2.20677L16.738 2.56152C16.7772 2.57509 16.8111 2.60053 16.8351 2.63429C16.8592 2.66805 16.8721 2.70846 16.8721 2.74989C16.8721 2.79133 16.8592 2.83174 16.8351 2.8655C16.8111 2.89926 16.7772 2.9247 16.738 2.93827L15.6738 3.29302C15.4395 3.37139 15.2267 3.5031 15.052 3.67777C14.8773 3.85243 14.7456 4.06527 14.6673 4.29952L14.3125 5.36377C14.2989 5.40292 14.2735 5.43687 14.2397 5.4609C14.206 5.48492 14.1656 5.49784 14.1241 5.49784C14.0827 5.49784 14.0423 5.48492 14.0085 5.4609C13.9748 5.43687 13.9493 5.40292 13.9358 5.36377L13.581 4.29952C13.5026 4.06527 13.3709 3.85243 13.1963 3.67777C13.0216 3.5031 12.8088 3.37139 12.5745 3.29302L11.5116 2.93827C11.4725 2.9247 11.4385 2.89926 11.4145 2.8655C11.3905 2.83174 11.3776 2.79133 11.3776 2.74989C11.3776 2.70846 11.3905 2.66805 11.4145 2.63429C11.4385 2.60053 11.4725 2.57509 11.5116 2.56152L12.5759 2.20677C13.0516 2.04864 13.4243 1.67602 13.5824 1.20027L13.9358 0.136019Z" fill="url(#paint0_linear_284_2022)"/>
<defs>
<linearGradient id="paint0_linear_284_2022" x1="8.62393" y1="0.00195312" x2="8.62393" y2="22.0019" gradientUnits="userSpaceOnUse">
<stop offset="0.278846" stop-color="#51A2FF"/>
<stop offset="1" stop-color="#046EFF"/>
</linearGradient>
</defs>
</svg>
