<svg width="1024" height="1024" viewBox="0 0 1024 1024" fill="none" xmlns="http://www.w3.org/2000/svg">
<path d="M512.63 185.04C511.99 210.1 494.25 228.27 477.7 245.06C467.12 255.79 456.68 269.73 452.19 284.67C446.3 304.31 451 321.84 464.08 336.83C480.52 355.66 501.34 367.11 526.89 363.96C548.64 361.28 569.5 345.87 581.29 327.3C593 308.85 594.24 285.89 587.2 265.56C587.171 265.477 587.123 265.403 587.059 265.343C586.996 265.282 586.919 265.238 586.835 265.214C586.751 265.189 586.662 265.185 586.576 265.202C586.49 265.219 586.409 265.256 586.34 265.31C579.54 270.71 572.94 276.34 567.24 283.06C563.49 287.47 559.88 292.7 555.77 293.74C551.924 294.72 548.197 294.21 544.59 292.21C541.76 290.65 540.79 288.37 540.79 285.23C540.824 274.843 540.9 259.647 541.02 239.64C541.067 232.587 540.807 227.51 540.24 224.41C537.26 207.97 527.43 193.6 513.35 184.66C513.28 184.616 513.2 184.591 513.118 184.588C513.035 184.585 512.954 184.604 512.881 184.642C512.808 184.681 512.746 184.738 512.702 184.808C512.658 184.877 512.633 184.958 512.63 185.04Z" stroke="#F96D14" stroke-width="2"/>
<path d="M217.611 401.04H193.691C193.388 401.04 193.098 401.16 192.885 401.374C192.671 401.588 192.551 401.878 192.551 402.18V775.05C192.551 775.358 192.673 775.653 192.891 775.87C193.108 776.088 193.403 776.21 193.711 776.21H459.531C459.738 776.21 459.944 776.252 460.135 776.332C460.326 776.413 460.499 776.531 460.645 776.68C460.79 776.829 460.904 777.006 460.981 777.2C461.057 777.394 461.095 777.601 461.091 777.81C461.037 780.397 460.807 782.943 460.401 785.45C459.301 792.12 460.331 797.57 463.051 803.46C465.357 808.447 467.091 811.48 468.251 812.56C473.057 817.047 478.927 820.227 485.861 822.1C498.701 825.57 511.831 825.97 525.041 824.31C536.751 822.84 551.231 817.34 556.151 805.46C558.611 799.54 559.944 793.747 560.151 788.08C560.211 786.287 559.291 783.373 557.391 779.34C557.267 779.072 557.222 778.774 557.261 778.48C557.441 776.987 558.277 776.24 559.771 776.24C699.837 776.213 790.064 776.19 830.451 776.17C830.838 776.17 831.209 776.017 831.483 775.745C831.757 775.473 831.911 775.105 831.911 774.72V402.79C831.911 402.538 831.811 402.296 831.633 402.118C831.454 401.94 831.213 401.84 830.961 401.84H806.521C806.203 401.84 805.897 401.966 805.672 402.191C805.447 402.417 805.321 402.722 805.321 403.04C805.421 500.22 805.211 607.26 805.391 721.6C805.397 726.007 804.894 729.207 803.881 731.2C800.841 737.2 795.661 739.677 788.341 738.63C780.651 737.52 770.561 734.19 763.871 732.76C745.811 728.907 727.597 727.353 709.231 728.1C691.524 728.827 675.051 730.837 659.811 734.13C646.724 736.957 633.274 740.483 619.461 744.71C604.801 749.19 591.481 755.28 579.501 762.98C572.841 767.247 566.534 771.183 560.581 774.79C554.041 778.75 549.791 781.517 547.831 783.09C542.164 787.623 533.734 794.527 522.541 803.8C519.861 806.02 516.754 808.167 513.221 810.24C510.361 811.91 508.291 811.91 505.611 810.16C501.711 807.62 497.981 804.84 494.421 801.82C486.067 794.74 477.514 787.38 468.761 779.74C467.401 778.553 465.454 777.123 462.921 775.45C453.291 769.09 442.711 762.15 432.361 756.74C412.721 746.467 391.421 738.923 368.461 734.11C338.787 727.89 309.821 726.313 281.561 729.38C270.461 730.587 261.024 732.39 253.251 734.79C246.944 736.737 240.961 738.067 235.301 738.78C229.521 739.513 224.917 737.807 221.491 733.66C218.541 730.08 218.951 724.68 218.951 719.75C218.944 691.823 218.971 586.063 219.031 402.47C219.031 402.091 218.881 401.727 218.615 401.459C218.349 401.191 217.987 401.04 217.611 401.04Z" stroke="#F96D14" stroke-width="2"/>
<path d="M563.87 632.33C563.856 632.4 563.862 632.471 563.887 632.537C563.912 632.604 563.955 632.661 564.012 632.703C564.069 632.745 564.137 632.77 564.207 632.775C564.278 632.78 564.348 632.764 564.41 632.73C569.557 630.004 581.944 623.287 601.57 612.58C604.457 611.007 607.03 610.304 609.29 610.47C617.05 611.037 624.117 611.207 630.49 610.98C640.204 610.634 649.834 608.77 659.38 605.39C690.42 594.4 715.07 571.25 725.88 540.13C730.62 526.48 731.32 512.29 730.4 497.99C727.78 457.49 702.6 423.53 664.59 409.67C652.85 405.39 640.59 403.494 627.81 403.98C606.62 404.79 585.22 410.3 567.53 422.56C553.79 432.087 543.024 443.807 535.23 457.72C523.69 478.32 520.147 501.15 524.6 526.21C526.227 535.404 528.774 543.444 532.24 550.33C539.66 565.077 550.18 578.017 563.8 589.15C568.53 593.02 570.75 595.26 569.62 601.38C566.66 617.42 564.744 627.737 563.87 632.33Z" stroke="#F97B1E" stroke-width="2"/>
<path d="M563.729 255.61C563.723 255.709 563.748 255.807 563.801 255.891C563.855 255.975 563.933 256.039 564.025 256.076C564.117 256.112 564.218 256.119 564.314 256.095C564.41 256.07 564.496 256.016 564.559 255.94C571.506 247.96 579.683 240.984 589.089 235.01C592.109 233.09 594.679 233.58 596.799 236.48C608.426 252.394 614.596 270.157 615.309 289.77C616.809 330.64 588.969 362.95 553.789 379.79C543.529 384.704 533.273 387.68 523.019 388.72C517.219 389.307 510.353 388.664 502.419 386.79C481.969 381.95 462.809 367.96 448.519 352.72C437.759 341.24 428.799 327.03 427.209 311.49C427.049 309.917 426.993 306.197 427.039 300.33C427.249 276.29 440.299 252.69 456.449 235.19C466.309 224.51 474.499 216.34 481.639 205.41C487.166 196.944 489.533 188.044 488.739 178.71C488.149 171.77 484.739 161.27 483.409 155.96C483.259 155.355 483.298 154.72 483.519 154.14C484.453 151.66 485.829 149.8 487.649 148.56C488.093 148.253 488.602 148.054 489.135 147.98C489.668 147.905 490.211 147.956 490.719 148.13C528.279 160.86 561.399 187.78 563.609 230.28C564.049 238.714 564.089 247.157 563.729 255.61ZM512.629 185.04C511.989 210.1 494.249 228.27 477.699 245.06C467.119 255.79 456.679 269.73 452.189 284.67C446.299 304.31 450.999 321.84 464.079 336.83C480.519 355.66 501.339 367.11 526.889 363.96C548.639 361.28 569.499 345.87 581.289 327.3C592.999 308.85 594.239 285.89 587.199 265.56C587.17 265.478 587.122 265.403 587.058 265.343C586.995 265.282 586.918 265.238 586.834 265.214C586.75 265.189 586.661 265.185 586.575 265.202C586.489 265.219 586.408 265.256 586.339 265.31C579.539 270.71 572.939 276.34 567.239 283.06C563.489 287.47 559.879 292.7 555.769 293.74C551.923 294.72 548.196 294.21 544.589 292.21C541.759 290.65 540.789 288.37 540.789 285.23C540.823 274.844 540.899 259.647 541.019 239.64C541.066 232.587 540.806 227.51 540.239 224.41C537.259 207.97 527.429 193.6 513.349 184.66C513.279 184.616 513.199 184.591 513.117 184.588C513.034 184.585 512.953 184.604 512.88 184.642C512.807 184.681 512.745 184.738 512.701 184.808C512.657 184.878 512.632 184.958 512.629 185.04Z" fill="#F25417"/>
<path d="M512.63 185.04C512.633 184.958 512.658 184.877 512.702 184.808C512.746 184.738 512.808 184.681 512.881 184.642C512.954 184.604 513.035 184.585 513.118 184.588C513.2 184.591 513.28 184.616 513.35 184.66C527.43 193.6 537.26 207.97 540.24 224.41C540.807 227.51 541.067 232.587 541.02 239.64C540.9 259.647 540.824 274.843 540.79 285.23C540.79 288.37 541.76 290.65 544.59 292.21C548.197 294.21 551.924 294.72 555.77 293.74C559.88 292.7 563.49 287.47 567.24 283.06C572.94 276.34 579.54 270.71 586.34 265.31C586.409 265.256 586.49 265.219 586.576 265.202C586.662 265.185 586.751 265.189 586.835 265.214C586.919 265.238 586.996 265.282 587.059 265.343C587.123 265.403 587.171 265.477 587.2 265.56C594.24 285.89 593 308.85 581.29 327.3C569.5 345.87 548.64 361.28 526.89 363.96C501.34 367.11 480.52 355.66 464.08 336.83C451 321.84 446.3 304.31 452.19 284.67C456.68 269.73 467.12 255.79 477.7 245.06C494.25 228.27 511.99 210.1 512.63 185.04Z" fill="#FF8511"/>
<path d="M781.6 350.55C781.313 350.45 780.023 350.33 777.73 350.19C758.35 349.024 744.773 348.614 737 348.96C721.15 349.66 704.79 350.7 689 353.25C673.753 355.704 658.74 359.77 643.96 365.45C639.653 367.11 635.71 367.05 632.13 365.27C628.87 363.644 626.93 361.25 626.31 358.09C624.95 351.12 632.02 346.73 637.84 344.07C643.033 341.684 648.553 339.62 654.4 337.88C671.613 332.747 689.093 329.334 706.84 327.64C710.387 327.3 714.507 326.94 719.2 326.56C730.34 325.66 742.37 326 752.63 325.99C758.643 325.99 765.38 326.277 772.84 326.85C781.16 327.49 787.89 328.084 793.03 328.63C799.177 329.284 802.983 332.564 804.45 338.47C804.477 338.576 804.49 338.684 804.49 338.79L804.99 378.77C804.993 378.951 805.067 379.124 805.196 379.252C805.325 379.379 805.499 379.45 805.68 379.45C816.92 379.557 826.79 379.6 835.29 379.58C839.163 379.567 842.08 379.904 844.04 380.59C847.64 381.86 851.59 384.56 852.88 388.26C853.047 388.734 853.13 389.754 853.13 391.32C853.15 531.774 853.153 663.357 853.14 786.07C853.14 792.82 845.55 797.6 839.51 798.66C838.717 798.8 835.207 798.87 828.98 798.87C664.247 798.864 581.8 798.864 581.64 798.87C581.503 798.87 581.369 798.918 581.263 799.006C581.158 799.093 581.086 799.215 581.06 799.35C580.207 803.99 578.53 808.964 576.03 814.27C572.27 822.24 567.44 827.79 559.63 832.91C553.19 837.13 546.21 840.477 538.69 842.95C536.59 843.65 533.54 843.92 531 843.92C524.153 843.934 511.153 843.94 492 843.94C488.65 843.94 486.06 844.03 483.12 843.15C473.68 840.324 464.94 836.317 456.9 831.13C448.84 825.93 442.79 813.21 439.64 804.61C439.113 803.177 438.703 801.514 438.41 799.62C438.379 799.42 438.277 799.237 438.123 799.105C437.969 798.973 437.773 798.9 437.57 798.9C393.39 798.867 310.117 798.86 187.75 798.88C180.87 798.89 173.3 794.97 171.35 788.04C171.177 787.42 171.093 783.88 171.1 777.42C171.113 678.76 171.113 549.36 171.1 389.22C171.1 389.015 171.13 388.809 171.19 388.61C172.45 384.16 176.71 381.26 180.72 379.84C182.127 379.347 184.33 379.104 187.33 379.11C206.537 379.157 216.98 379.187 218.66 379.2C218.756 379.2 218.849 379.163 218.918 379.095C218.987 379.028 219.027 378.937 219.03 378.84L220.06 337.41C220.066 336.901 220.165 336.396 220.35 335.92C224.01 326.31 232.97 327.57 241.34 326.57C255.19 324.91 267.23 324.94 280.34 324.99C312.63 325.11 345.36 330.49 376.25 339.25C394.937 344.55 411.027 350.384 424.52 356.75C455.82 371.53 484.97 394.12 506.52 421.47C508.4 423.857 510.117 426.437 511.67 429.21C511.844 429.517 511.922 429.87 511.893 430.223C511.865 430.576 511.731 430.913 511.51 431.19L501.6 443.67C501.258 444.098 500.779 444.395 500.245 444.514C499.71 444.632 499.151 444.564 498.66 444.32C498.153 444.067 497.627 443.604 497.08 442.93C492.673 437.477 488.273 432.297 483.88 427.39C469.027 410.797 451.497 396.994 431.29 385.98C418.097 378.787 404.697 372.767 391.09 367.92C365.437 358.78 339.407 352.9 313 350.28C294.05 348.41 272.39 347.3 251.5 348.68C248.593 348.867 245.903 348.95 243.43 348.93C243.251 348.928 243.073 348.961 242.907 349.027C242.741 349.094 242.59 349.193 242.462 349.319C242.335 349.444 242.234 349.594 242.165 349.759C242.096 349.924 242.06 350.101 242.06 350.28V712.31C242.06 712.447 242.091 712.582 242.15 712.706C242.208 712.83 242.294 712.938 242.401 713.025C242.507 713.111 242.631 713.172 242.764 713.204C242.897 713.237 243.036 713.239 243.17 713.21C254.477 710.79 265.583 709.047 276.49 707.98C282.937 707.347 290.45 707.044 299.03 707.07C300.69 707.077 308.203 707.09 321.57 707.11C325.68 707.11 331.25 708 336.25 708.1C338.243 708.14 345.34 708.994 357.54 710.66C364.707 711.647 371.723 713.01 378.59 714.75C394.897 718.897 406.39 722.21 413.07 724.69C442.903 735.784 470.07 751.8 494.57 772.74C494.676 772.83 494.807 772.885 494.946 772.898C495.085 772.911 495.224 772.881 495.345 772.812C495.466 772.744 495.563 772.64 495.623 772.514C495.683 772.388 495.703 772.247 495.68 772.11C495.4 770.35 495.257 769.064 495.25 768.25C495.15 751.844 495.1 692.99 495.1 591.69C495.1 588.55 500.29 583.91 503.2 582.17C507.27 579.75 509.55 582.08 512.41 585.2C514.563 587.56 516.023 590.224 516.79 593.19C516.803 593.25 516.81 593.314 516.81 593.38L517.26 779.5C517.261 779.625 517.298 779.747 517.367 779.85C517.436 779.954 517.534 780.035 517.649 780.084C517.764 780.133 517.89 780.147 518.013 780.125C518.136 780.103 518.249 780.046 518.34 779.96C548.09 751.41 583.66 732.19 623.5 721.26C636.79 717.62 652.7 713.4 666.49 711.53C683.95 709.157 695.953 707.81 702.5 707.49C714.787 706.89 724.79 706.87 732.51 707.43C739.71 707.957 743.613 708.204 744.22 708.17C744.924 708.13 745.626 708.184 746.31 708.33C749.68 709.07 753.53 709.04 757.21 709.51C766.57 710.69 774.707 711.934 781.62 713.24C781.744 713.264 781.871 713.26 781.994 713.228C782.116 713.197 782.229 713.139 782.327 713.059C782.424 712.979 782.503 712.878 782.557 712.765C782.611 712.651 782.639 712.526 782.64 712.4L781.95 351.06C781.95 350.949 781.916 350.84 781.853 350.749C781.791 350.658 781.702 350.589 781.6 350.55ZM217.61 401.04H193.69C193.388 401.04 193.098 401.16 192.884 401.374C192.67 401.588 192.55 401.878 192.55 402.18V775.05C192.55 775.358 192.672 775.653 192.89 775.87C193.107 776.088 193.402 776.21 193.71 776.21H459.53C459.737 776.21 459.943 776.252 460.134 776.333C460.325 776.413 460.499 776.532 460.644 776.681C460.789 776.83 460.903 777.006 460.98 777.2C461.057 777.394 461.094 777.602 461.09 777.81C461.037 780.397 460.807 782.944 460.4 785.45C459.3 792.12 460.33 797.57 463.05 803.46C465.357 808.447 467.09 811.48 468.25 812.56C473.057 817.047 478.927 820.227 485.86 822.1C498.7 825.57 511.83 825.97 525.04 824.31C536.75 822.84 551.23 817.34 556.15 805.46C558.61 799.54 559.943 793.747 560.15 788.08C560.21 786.287 559.29 783.374 557.39 779.34C557.266 779.072 557.221 778.774 557.26 778.48C557.44 776.987 558.277 776.24 559.77 776.24C699.837 776.214 790.063 776.19 830.45 776.17C830.837 776.17 831.209 776.017 831.482 775.746C831.756 775.474 831.91 775.105 831.91 774.72V402.79C831.91 402.538 831.81 402.297 831.632 402.118C831.454 401.94 831.212 401.84 830.96 401.84H806.52C806.202 401.84 805.896 401.967 805.671 402.192C805.446 402.417 805.32 402.722 805.32 403.04C805.42 500.22 805.21 607.26 805.39 721.6C805.397 726.007 804.893 729.207 803.88 731.2C800.84 737.2 795.66 739.677 788.34 738.63C780.65 737.52 770.56 734.19 763.87 732.76C745.81 728.907 727.597 727.354 709.23 728.1C691.523 728.827 675.05 730.837 659.81 734.13C646.723 736.957 633.273 740.484 619.46 744.71C604.8 749.19 591.48 755.28 579.5 762.98C572.84 767.247 566.533 771.184 560.58 774.79C554.04 778.75 549.79 781.517 547.83 783.09C542.163 787.624 533.733 794.527 522.54 803.8C519.86 806.02 516.753 808.167 513.22 810.24C510.36 811.91 508.29 811.91 505.61 810.16C501.71 807.62 497.98 804.84 494.42 801.82C486.067 794.74 477.513 787.38 468.76 779.74C467.4 778.554 465.453 777.124 462.92 775.45C453.29 769.09 442.71 762.15 432.36 756.74C412.72 746.467 391.42 738.924 368.46 734.11C338.787 727.89 309.82 726.314 281.56 729.38C270.46 730.587 261.023 732.39 253.25 734.79C246.943 736.737 240.96 738.067 235.3 738.78C229.52 739.514 224.917 737.807 221.49 733.66C218.54 730.08 218.95 724.68 218.95 719.75C218.943 691.824 218.97 586.064 219.03 402.47C219.03 402.091 218.88 401.727 218.614 401.459C218.348 401.191 217.987 401.04 217.61 401.04Z" fill="#F25417"/>
<path d="M546.64 603.73C546.692 603.502 546.683 603.264 546.612 603.039C546.542 602.814 546.414 602.611 546.24 602.45C542 598.51 538.307 594.89 535.16 591.59C518.31 573.93 506.34 553.31 502.45 529.53C500.57 518.024 500.157 506.337 501.21 494.47C503.297 471.097 511.63 450.22 526.21 431.84C547.263 405.3 574.33 389.157 607.41 383.41C619.123 381.37 631.56 381.03 644.72 382.39C673.23 385.34 698.52 398.05 718.62 418.78C736.693 437.42 747.68 460.367 751.58 487.62C753.567 501.48 753.553 515.38 751.54 529.32C749.433 543.907 744.407 557.524 736.46 570.17C718.133 599.364 692.557 618.874 659.73 628.7C643.47 633.574 626.79 635.084 609.69 633.23C609.305 633.191 608.915 633.272 608.57 633.46C574.363 652.434 557.01 662.05 556.51 662.31C551.55 664.91 547.107 664.49 543.18 661.05C540 658.27 539.27 655.4 539.83 650.98C542.043 633.754 543.93 620.004 545.49 609.73C545.777 607.857 546.16 605.857 546.64 603.73ZM563.87 632.33C563.856 632.399 563.861 632.471 563.886 632.537C563.912 632.603 563.955 632.661 564.012 632.703C564.069 632.745 564.136 632.77 564.207 632.775C564.278 632.78 564.348 632.764 564.41 632.73C569.557 630.004 581.943 623.287 601.57 612.58C604.457 611.007 607.03 610.304 609.29 610.47C617.05 611.037 624.117 611.207 630.49 610.98C640.203 610.634 649.833 608.77 659.38 605.39C690.42 594.4 715.07 571.25 725.88 540.13C730.62 526.48 731.32 512.29 730.4 497.99C727.78 457.49 702.6 423.53 664.59 409.67C652.85 405.39 640.59 403.494 627.81 403.98C606.62 404.79 585.22 410.3 567.53 422.56C553.79 432.087 543.023 443.807 535.23 457.72C523.69 478.32 520.147 501.15 524.6 526.21C526.227 535.404 528.773 543.444 532.24 550.33C539.66 565.077 550.18 578.017 563.8 589.15C568.53 593.02 570.75 595.26 569.62 601.38C566.66 617.42 564.743 627.737 563.87 632.33Z" fill="#F25417"/>
<path d="M217.611 401.04C217.987 401.04 218.349 401.191 218.615 401.459C218.881 401.727 219.031 402.091 219.031 402.47C218.971 586.063 218.944 691.823 218.951 719.75C218.951 724.68 218.541 730.08 221.491 733.66C224.917 737.807 229.521 739.513 235.301 738.78C240.961 738.067 246.944 736.737 253.251 734.79C261.024 732.39 270.461 730.587 281.561 729.38C309.821 726.313 338.787 727.89 368.461 734.11C391.421 738.923 412.721 746.467 432.361 756.74C442.711 762.15 453.291 769.09 462.921 775.45C465.454 777.123 467.401 778.553 468.761 779.74C477.514 787.38 486.067 794.74 494.421 801.82C497.981 804.84 501.711 807.62 505.611 810.16C508.291 811.91 510.361 811.91 513.221 810.24C516.754 808.167 519.861 806.02 522.541 803.8C533.734 794.527 542.164 787.623 547.831 783.09C549.791 781.517 554.041 778.75 560.581 774.79C566.534 771.183 572.841 767.247 579.501 762.98C591.481 755.28 604.801 749.19 619.461 744.71C633.274 740.483 646.724 736.957 659.811 734.13C675.051 730.837 691.524 728.827 709.231 728.1C727.597 727.353 745.811 728.907 763.871 732.76C770.561 734.19 780.651 737.52 788.341 738.63C795.661 739.677 800.841 737.2 803.881 731.2C804.894 729.207 805.397 726.007 805.391 721.6C805.211 607.26 805.421 500.22 805.321 403.04C805.321 402.722 805.447 402.417 805.672 402.191C805.897 401.966 806.203 401.84 806.521 401.84H830.961C831.213 401.84 831.454 401.94 831.633 402.118C831.811 402.296 831.911 402.538 831.911 402.79V774.72C831.911 775.105 831.757 775.473 831.483 775.745C831.209 776.017 830.838 776.17 830.451 776.17C790.064 776.19 699.837 776.213 559.771 776.24C558.277 776.24 557.441 776.987 557.261 778.48C557.222 778.774 557.267 779.072 557.391 779.34C559.291 783.373 560.211 786.287 560.151 788.08C559.944 793.747 558.611 799.54 556.151 805.46C551.231 817.34 536.751 822.84 525.041 824.31C511.831 825.97 498.701 825.57 485.861 822.1C478.927 820.227 473.057 817.047 468.251 812.56C467.091 811.48 465.357 808.447 463.051 803.46C460.331 797.57 459.301 792.12 460.401 785.45C460.807 782.943 461.037 780.397 461.091 777.81C461.095 777.601 461.057 777.394 460.981 777.2C460.904 777.006 460.79 776.829 460.645 776.68C460.499 776.531 460.326 776.413 460.135 776.332C459.944 776.252 459.738 776.21 459.531 776.21H193.711C193.403 776.21 193.108 776.088 192.891 775.87C192.673 775.653 192.551 775.358 192.551 775.05V402.18C192.551 401.878 192.671 401.588 192.885 401.374C193.098 401.16 193.388 401.04 193.691 401.04H217.611Z" fill="#FF8511"/>
<path d="M563.87 632.33C564.744 627.736 566.66 617.42 569.62 601.38C570.75 595.26 568.53 593.02 563.8 589.15C550.18 578.016 539.66 565.076 532.24 550.33C528.774 543.443 526.227 535.403 524.6 526.21C520.147 501.15 523.69 478.32 535.23 457.72C543.024 443.806 553.79 432.086 567.53 422.56C585.22 410.3 606.62 404.79 627.81 403.98C640.59 403.493 652.85 405.39 664.59 409.67C702.6 423.53 727.78 457.49 730.4 497.99C731.32 512.29 730.62 526.48 725.88 540.13C715.07 571.25 690.42 594.4 659.38 605.39C649.834 608.77 640.204 610.633 630.49 610.98C624.117 611.206 617.05 611.036 609.29 610.47C607.03 610.303 604.457 611.006 601.57 612.58C581.944 623.286 569.557 630.003 564.41 632.73C564.348 632.764 564.278 632.779 564.207 632.774C564.137 632.77 564.069 632.745 564.012 632.703C563.955 632.661 563.912 632.603 563.887 632.537C563.862 632.471 563.856 632.399 563.87 632.33Z" fill="#FFA125"/>
<path d="M277.34 470.89C271.55 464.42 275.39 454.33 283.97 453.01C287.283 452.503 292.71 452.313 300.25 452.44C333.323 453 371.073 453.207 413.5 453.06C423.413 453.027 432.16 453.417 439.74 454.23C455.87 455.96 455.34 477.14 439.25 476.71C430.71 476.49 421.19 476.08 412.58 476.04C348.513 475.747 305.927 475.34 284.82 474.82C282.127 474.753 279.633 473.443 277.34 470.89Z" fill="#F25417"/>
<path d="M440.304 532.489L286.033 530.873C279.908 530.809 274.891 535.722 274.827 541.846L274.824 542.166C274.76 548.291 279.673 553.308 285.797 553.372L440.069 554.987C446.193 555.051 451.21 550.139 451.274 544.014L451.278 543.694C451.342 537.57 446.429 532.553 440.304 532.489Z" fill="#F25417"/>
<path d="M438.889 610.992L285.472 610.188C279.142 610.155 273.985 615.259 273.952 621.588L273.95 621.948C273.917 628.277 279.021 633.435 285.35 633.468L438.768 634.271C445.097 634.305 450.254 629.201 450.287 622.872L450.289 622.512C450.322 616.182 445.219 611.025 438.889 610.992Z" fill="#F25417"/>
</svg>
