<svg width="1024" height="1024" viewBox="0 0 1024 1024" fill="none" xmlns="http://www.w3.org/2000/svg">
<path d="M592.96 277.88C577.86 279.34 578.42 262.93 573.35 253.19C564.64 236.42 548.76 223.81 530.71 218.76C520.21 215.827 509.343 215.493 498.11 217.76C476.05 222.2 457.29 237.27 448.28 258.28C444.65 266.76 445.5 277.92 433.45 278.95C432.263 279.057 430.363 278.893 427.75 278.46C418.01 276.85 408.87 277.36 400.52 282.1C386.48 290.08 378.12 306.78 380.87 322.81C382.363 331.537 385.717 338.763 390.93 344.49C399.75 354.17 411.82 356.4 424.75 356.41C460.69 356.457 519.19 356.507 600.25 356.56C605.05 356.56 609.123 356.197 612.47 355.47C629.86 351.68 642.9 333.36 642.02 315.88C641.36 302.75 635.12 291.74 624.62 283.8C615.49 276.88 604.25 276.79 592.96 277.88Z" stroke="#8ADFC6" stroke-width="2"/>
<path d="M465.33 788.33C465.331 788.424 465.351 788.518 465.389 788.605C465.426 788.692 465.48 788.77 465.548 788.836C465.616 788.902 465.696 788.954 465.784 788.989C465.872 789.024 465.966 789.041 466.06 789.04C490.893 788.847 514.567 788.81 537.08 788.93C543.52 788.97 552.55 789.39 558.76 789.13C570.23 788.66 581.99 789.36 591.87 789.07C594.51 788.99 596.21 788.35 596.16 785.5C595.953 774.093 595.91 760.343 596.03 744.25C596.11 733.863 596.573 724.887 597.42 717.32C599.09 702.39 603.73 689.08 610.61 675.59C615.71 665.58 624.16 653.68 629.72 644.22C647.587 613.773 654.67 581.367 650.97 547C648.043 519.8 638.003 495.763 620.85 474.89C605.517 456.237 586.48 443.357 563.74 436.25C535.247 427.343 506.297 425.747 476.89 431.46C463.57 434.047 451.157 438.207 439.65 443.94C414.42 456.53 393.59 480.16 384.07 506.56C377.6 524.5 374.95 541.77 373.53 561.09C373.05 567.617 372.547 572.063 372.02 574.43C371.267 577.783 369.663 581.96 367.21 586.96C358.777 604.127 351.923 618.193 346.65 629.16C345.61 631.32 344.753 633.35 344.08 635.25C343.979 635.537 343.984 635.852 344.094 636.137C344.204 636.423 344.411 636.661 344.68 636.81C345.347 637.177 345.957 637.41 346.51 637.51C353.283 638.81 359.303 640.033 364.57 641.18C369.53 642.26 372.933 645.49 374.78 650.87C374.88 651.155 374.944 651.451 374.97 651.75C375.183 654.357 375.293 656.857 375.3 659.25C375.327 677.097 375.337 691.997 375.33 703.95C375.33 705.943 375.47 708.147 375.75 710.56C377.35 724.38 388.76 733.09 401.75 733.09C423.077 733.083 439.39 733.133 450.69 733.24C457.797 733.313 462.43 736.513 464.59 742.84C464.696 743.131 464.75 743.439 464.75 743.75L465.33 788.33Z" stroke="#96E3CC" stroke-width="2"/>
<path d="M511.97 81.1001H511.19C504.579 81.1001 499.22 86.4593 499.22 93.0701V150.97C499.22 157.581 504.579 162.94 511.19 162.94H511.97C518.581 162.94 523.94 157.581 523.94 150.97V93.0701C523.94 86.4593 518.581 81.1001 511.97 81.1001Z" fill="#65CBB1"/>
<path d="M620.404 109.671L619.857 109.379C613.894 106.195 606.478 108.448 603.294 114.411L576.663 164.286C573.479 170.25 575.732 177.665 581.695 180.849L582.242 181.141C588.205 184.325 595.621 182.072 598.805 176.109L625.436 126.233C628.62 120.27 626.367 112.855 620.404 109.671Z" fill="#65CBB1"/>
<path d="M403.952 109.421L403.406 109.714C397.521 112.869 395.309 120.198 398.464 126.082L425.239 176.017C428.394 181.901 435.722 184.114 441.607 180.959L442.153 180.666C448.038 177.51 450.25 170.182 447.095 164.298L420.32 114.363C417.165 108.478 409.837 106.266 403.952 109.421Z" fill="#65CBB1"/>
<path d="M425.85 254.63C426.897 251.837 427.877 249.307 428.79 247.04C443.84 209.56 487.48 187.8 526.73 194.32C549.44 198.09 571.11 210.44 584.83 229.02C590.27 236.373 594.654 244.533 597.98 253.5C598.162 253.987 598.487 254.407 598.912 254.703C599.337 255 599.843 255.159 600.36 255.16C607.19 255.15 610.76 254.87 616.11 256.02C621.864 257.253 626.817 259 630.97 261.26C661.41 277.84 674.39 315.48 657.47 346.5C648.97 362.07 633.06 374.46 615.53 378.4C611.07 379.407 604.027 379.897 594.4 379.87C529.187 379.703 477.64 379.703 439.76 379.87C423.88 379.937 414.397 379.677 411.31 379.09C404.057 377.71 397.457 375.55 391.51 372.61C374.4 364.15 362.29 346.87 358.59 328.24C357.704 323.753 357.444 318.58 357.81 312.72C359.08 292.38 370.76 274.22 387.5 263.26C392.094 260.253 397.647 257.923 404.16 256.27C410.75 254.6 418.08 255.22 424.99 255.23C425.179 255.23 425.362 255.172 425.516 255.064C425.67 254.957 425.787 254.805 425.85 254.63ZM592.96 277.88C577.86 279.34 578.42 262.93 573.35 253.19C564.64 236.42 548.76 223.81 530.71 218.76C520.21 215.827 509.344 215.493 498.11 217.76C476.05 222.2 457.29 237.27 448.28 258.28C444.65 266.76 445.5 277.92 433.45 278.95C432.264 279.057 430.364 278.893 427.75 278.46C418.01 276.85 408.87 277.36 400.52 282.1C386.48 290.08 378.12 306.78 380.87 322.81C382.364 331.537 385.717 338.763 390.93 344.49C399.75 354.17 411.82 356.4 424.75 356.41C460.69 356.457 519.19 356.507 600.25 356.56C605.05 356.56 609.124 356.197 612.47 355.47C629.86 351.68 642.9 333.36 642.02 315.88C641.36 302.75 635.12 291.74 624.62 283.8C615.49 276.88 604.25 276.79 592.96 277.88Z" fill="#65CBB1"/>
<path d="M573.35 253.19C578.42 262.93 577.86 279.34 592.96 277.88C604.25 276.79 615.49 276.88 624.62 283.8C635.12 291.74 641.36 302.75 642.02 315.88C642.9 333.36 629.86 351.68 612.47 355.47C609.123 356.197 605.05 356.56 600.25 356.56C519.19 356.507 460.69 356.457 424.75 356.41C411.82 356.4 399.75 354.17 390.93 344.49C385.717 338.763 382.363 331.537 380.87 322.81C378.12 306.78 386.48 290.08 400.52 282.1C408.87 277.36 418.01 276.85 427.75 278.46C430.363 278.893 432.263 279.057 433.45 278.95C445.5 277.92 444.65 266.76 448.28 258.28C457.29 237.27 476.05 222.2 498.11 217.76C509.343 215.493 520.21 215.827 530.71 218.76C548.76 223.81 564.64 236.42 573.35 253.19Z" fill="#AEF2DB"/>
<path d="M318.47 295.19C328.55 296.74 332.18 308.87 324.26 315.51C287.56 346.27 257.24 384.3 238.03 427.85C225.063 457.257 216.993 487.23 213.82 517.77C212.593 529.61 212.053 543.103 212.2 558.25C212.273 565.317 212.986 574.563 214.34 585.99C215.453 595.35 217.04 604.487 219.1 613.4C232.986 673.513 262.056 724.35 306.31 765.91C349.99 806.94 405.72 834.7 465.72 844.13C480.6 846.47 495.53 847.787 510.51 848.08C521.556 848.293 534.813 847.437 550.28 845.51C572.22 842.777 593.253 837.733 613.38 830.38C656.98 814.45 696.75 787.92 729.28 754.42C752.646 730.36 771.279 702.827 785.18 671.82C791.44 657.85 796.469 643.16 801.24 627.77C803.169 621.52 809.61 616.44 816.21 619.07C820.623 620.823 823.169 623.78 823.849 627.94C824.209 630.113 823.47 634.053 821.63 639.76C813.423 665.213 803.09 688.847 790.63 710.66C764.57 756.27 724.609 795.99 679.13 823.85C623.81 857.723 563.683 873.357 498.75 870.75C495.109 870.603 492.113 870.383 489.76 870.09C485.69 869.59 482.32 869.68 477.76 869.14C462.613 867.34 447.78 864.627 433.26 861C379.43 847.55 329.48 819.29 289.25 781.26C280.736 773.22 271.626 763.35 261.92 751.65C237.69 722.44 218.38 687.43 206.52 653.18C191.34 609.313 186.059 563.897 190.679 516.93C193.793 485.217 201.746 454.493 214.539 424.76C231.099 386.27 253.939 350.84 283.179 321.95C289.733 315.477 297.016 308.663 305.03 301.51C309.74 297.31 312.54 294.28 318.47 295.19Z" fill="#65CBB1"/>
<path d="M810.18 552.55C810.227 552.477 810.257 552.213 810.27 551.76C810.39 547.64 810.314 542.637 810.04 536.75C809.827 532.27 809.057 522.94 807.73 508.76C806.897 499.847 805.074 489.25 802.26 476.97C795.647 448.05 785.127 421.8 770.7 398.22C757.54 376.713 742.2 356.99 724.68 339.05C718.494 332.71 710.407 325.47 700.42 317.33C694.58 312.57 696.15 303.21 702.62 299.41C708.02 296.23 713.63 298.33 718.09 302.24C728.78 311.6 737.96 319.54 746.97 329.29C763.904 347.61 778.464 367.037 790.65 387.57C813.55 426.15 827.25 468.59 831.73 513.45C832.89 525.08 833.97 537.22 833.89 549.5C833.89 550.033 833.99 550.403 834.19 550.61C834.293 550.719 834.418 550.806 834.558 550.865C834.697 550.924 834.848 550.955 835.003 550.955C835.157 550.955 835.311 550.924 835.457 550.865C835.602 550.806 835.736 550.719 835.85 550.61C841.124 545.563 845.26 541.433 848.26 538.22C853.5 532.61 858.24 529.09 865.39 533.1C870.23 535.81 873.05 542.12 870.4 547.43C869.314 549.603 867.687 551.717 865.52 553.77C862.68 556.457 851.317 567.84 831.43 587.92C828.544 590.833 826.2 592.55 824.4 593.07C820.12 594.297 816.294 593.23 812.92 589.87C792.174 569.203 779.43 556.28 774.69 551.1C767.98 543.78 772.4 533.25 781.78 531.53C786.04 530.75 789.57 533.28 792.89 536.67C796.544 540.417 801.85 545.773 808.81 552.74C808.905 552.834 809.021 552.905 809.148 552.947C809.275 552.99 809.41 553.002 809.542 552.984C809.675 552.965 809.801 552.917 809.912 552.842C810.023 552.766 810.114 552.666 810.18 552.55Z" fill="#65CBB1"/>
<path d="M441.32 756.84C441.053 756.693 440.673 756.62 440.18 756.62C417.487 756.573 405.013 756.527 402.76 756.48C379.56 755.96 359.47 740.45 353.7 718.07C352.633 713.93 352.13 708.823 352.19 702.75C352.243 697.003 352.24 683.693 352.18 662.82C352.18 662.429 352.041 662.05 351.786 661.752C351.531 661.453 351.178 661.254 350.79 661.19C344.75 660.203 339.38 659.013 334.68 657.62C330.86 656.487 327.393 654.09 324.28 650.43C318.69 643.85 318.88 633.51 322.59 626.11C335.543 600.23 344.033 582.97 348.06 574.33C349.153 571.983 349.813 568.51 350.04 563.91C351.68 530.06 359.19 495.06 378.44 467.34C394.067 444.833 414.92 428.39 441 418.01C467.66 407.4 496.4 403.77 524.85 405.49C555.31 407.34 586.29 416.76 610.94 434.06C625.187 444.06 637.203 456.453 646.99 471.24C657.97 487.827 665.773 505.683 670.4 524.81C672.98 535.46 674.75 547.54 675.06 558.9C675.987 592.613 667.847 624.117 650.64 653.41C647.22 659.23 641.993 667.733 634.96 678.92C628.207 689.66 623.54 701.1 620.96 713.24C619.47 720.26 619.14 729.56 619.1 735.5C619.013 750.907 619.233 767.397 619.76 784.97C620.22 800.2 609.67 812.9 594 812.85C584.927 812.817 543.847 812.823 470.76 812.87C464.213 812.87 459.917 812.52 457.87 811.82C451.02 809.47 445.67 804.16 443.17 797.28C442.497 795.42 442.167 792.693 442.18 789.1C442.247 771.647 442.237 761.353 442.15 758.22C442.141 757.939 442.06 757.665 441.915 757.423C441.77 757.182 441.565 756.981 441.32 756.84ZM465.33 788.33C465.331 788.425 465.351 788.518 465.389 788.605C465.426 788.692 465.48 788.77 465.548 788.836C465.616 788.902 465.696 788.954 465.784 788.989C465.872 789.024 465.966 789.041 466.06 789.04C490.893 788.847 514.567 788.81 537.08 788.93C543.52 788.97 552.55 789.39 558.76 789.13C570.23 788.66 581.99 789.36 591.87 789.07C594.51 788.99 596.21 788.35 596.16 785.5C595.953 774.093 595.91 760.343 596.03 744.25C596.11 733.863 596.573 724.887 597.42 717.32C599.09 702.39 603.73 689.08 610.61 675.59C615.71 665.58 624.16 653.68 629.72 644.22C647.587 613.773 654.67 581.367 650.97 547C648.043 519.8 638.003 495.763 620.85 474.89C605.517 456.237 586.48 443.357 563.74 436.25C535.247 427.343 506.297 425.747 476.89 431.46C463.57 434.047 451.157 438.207 439.65 443.94C414.42 456.53 393.59 480.16 384.07 506.56C377.6 524.5 374.95 541.77 373.53 561.09C373.05 567.617 372.547 572.063 372.02 574.43C371.267 577.783 369.663 581.96 367.21 586.96C358.777 604.127 351.923 618.193 346.65 629.16C345.61 631.32 344.753 633.35 344.08 635.25C343.979 635.538 343.984 635.852 344.094 636.138C344.204 636.423 344.411 636.661 344.68 636.81C345.347 637.177 345.957 637.41 346.51 637.51C353.283 638.81 359.303 640.033 364.57 641.18C369.53 642.26 372.933 645.49 374.78 650.87C374.88 651.156 374.944 651.451 374.97 651.75C375.183 654.357 375.293 656.857 375.3 659.25C375.327 677.097 375.337 691.997 375.33 703.95C375.33 705.943 375.47 708.147 375.75 710.56C377.35 724.38 388.76 733.09 401.75 733.09C423.077 733.083 439.39 733.133 450.69 733.24C457.797 733.313 462.43 736.513 464.59 742.84C464.696 743.131 464.75 743.439 464.75 743.75L465.33 788.33Z" fill="#65CBB1"/>
<path d="M465.33 788.33L464.75 743.75C464.75 743.439 464.696 743.131 464.59 742.84C462.43 736.513 457.797 733.313 450.69 733.24C439.39 733.133 423.077 733.083 401.75 733.09C388.76 733.09 377.35 724.38 375.75 710.56C375.47 708.147 375.33 705.943 375.33 703.95C375.337 691.997 375.327 677.097 375.3 659.25C375.293 656.857 375.183 654.357 374.97 651.75C374.944 651.451 374.88 651.155 374.78 650.87C372.933 645.49 369.53 642.26 364.57 641.18C359.303 640.033 353.283 638.81 346.51 637.51C345.957 637.41 345.347 637.177 344.68 636.81C344.411 636.661 344.204 636.423 344.094 636.137C343.984 635.852 343.979 635.537 344.08 635.25C344.753 633.35 345.61 631.32 346.65 629.16C351.923 618.193 358.777 604.127 367.21 586.96C369.663 581.96 371.267 577.783 372.02 574.43C372.547 572.063 373.05 567.617 373.53 561.09C374.95 541.77 377.6 524.5 384.07 506.56C393.59 480.16 414.42 456.53 439.65 443.94C451.157 438.207 463.57 434.047 476.89 431.46C506.297 425.747 535.247 427.343 563.74 436.25C586.48 443.357 605.517 456.237 620.85 474.89C638.003 495.763 648.043 519.8 650.97 547C654.67 581.367 647.587 613.773 629.72 644.22C624.16 653.68 615.71 665.58 610.61 675.59C603.73 689.08 599.09 702.39 597.42 717.32C596.573 724.887 596.11 733.863 596.03 744.25C595.91 760.343 595.953 774.093 596.16 785.5C596.21 788.35 594.51 788.99 591.87 789.07C581.99 789.36 570.23 788.66 558.76 789.13C552.55 789.39 543.52 788.97 537.08 788.93C514.567 788.81 490.893 788.847 466.06 789.04C465.966 789.041 465.872 789.024 465.784 788.989C465.696 788.954 465.616 788.902 465.548 788.836C465.48 788.77 465.426 788.692 465.389 788.605C465.351 788.518 465.331 788.424 465.33 788.33Z" fill="#C7FAE7"/>
</svg>
