<svg width="1024" height="1024" viewBox="0 0 1024 1024" fill="none" xmlns="http://www.w3.org/2000/svg">
<path d="M323.31 353.64C323.427 353.734 323.571 353.789 323.721 353.797C323.871 353.805 324.019 353.766 324.146 353.686C324.273 353.605 324.371 353.487 324.427 353.348C324.484 353.209 324.495 353.056 324.46 352.91C323.553 349.177 321.803 345.053 319.21 340.54C312.01 328.027 303.063 316.24 292.37 305.18C286.203 298.813 280.56 294.14 275.44 291.16C274.793 290.78 273.694 290.47 272.14 290.23C271.879 290.189 271.613 290.203 271.358 290.272C271.103 290.341 270.865 290.463 270.66 290.63C268.393 292.49 266.993 294.363 266.46 296.25C266.337 296.693 266.339 297.161 266.466 297.602C266.593 298.044 266.84 298.441 267.18 298.75C272.19 303.34 278.96 308.09 284.73 313.58C295.397 323.733 305.46 334.397 314.92 345.57C317.133 348.177 319.93 350.867 323.31 353.64Z" stroke="#7CDCC3" stroke-width="2"/>
<path d="M440.62 415.93C425.49 411.03 407.93 412.34 392.74 416.99C384.11 419.64 374.5 424.9 367.03 428.23C357.696 432.39 347.69 434.827 337.01 435.54C326.916 436.22 316.656 434.54 306.23 430.5C300.57 428.31 294.31 424.51 288.67 421.81C271.81 413.717 254.666 411.204 237.24 414.27C205.16 419.91 175.45 445.43 162.11 475.3C158.876 482.534 156.423 489.517 154.75 496.25C151.363 509.824 149.536 520.497 149.27 528.27C148.803 541.624 148.776 551.944 149.19 559.23C150.07 574.77 152.11 590 156.55 604.76C167.176 640.08 183.45 672.557 205.37 702.19C209.07 707.197 214.266 713.397 220.96 720.79C236.67 738.16 258.91 748.21 282.27 744.66C285.883 744.113 290.563 742.887 296.31 740.98C306.2 737.71 314.41 735.24 322.99 733.95C333.93 732.297 344.68 733.327 355.24 737.04C359.78 738.64 364.826 740.554 370.38 742.78C384.25 748.34 403.31 746.32 417.29 739.8C425.336 736.047 432.876 731.177 439.91 725.19C440.121 725.005 440.294 724.785 440.42 724.54C440.926 723.587 441.176 722.407 441.17 721C440.93 616.447 440.913 514.99 441.12 416.63C441.123 416.476 441.076 416.326 440.986 416.2C440.896 416.074 440.768 415.979 440.62 415.93Z" stroke="#7CDCC3" stroke-width="2"/>
<path d="M193.39 571.06C195.543 568.1 196.347 564.71 195.8 560.89C194.067 548.663 194.31 536.257 196.53 523.67C198.68 511.45 204.77 498.89 213.38 489.61C217.247 485.443 221.05 481.18 224.79 476.82C229.27 471.607 229.223 466.763 224.65 462.29C224.293 461.939 223.829 461.717 223.331 461.661C222.832 461.605 222.328 461.717 221.9 461.98C203.37 473.36 187.16 494.97 182.46 516.23C180.83 523.63 179.6 532.07 179.03 540.48C178.57 547.51 178.87 576.66 192.52 571.72C192.872 571.59 193.175 571.36 193.39 571.06Z" stroke="#7CDCC3" stroke-width="2"/>
<path d="M350.971 396.06C350.942 396.197 350.951 396.339 350.996 396.472C351.041 396.604 351.121 396.722 351.227 396.813C351.333 396.904 351.462 396.965 351.6 396.989C351.738 397.013 351.88 397 352.011 396.95C357.651 394.8 362.491 393.19 367.631 390.89C387.831 381.86 410.451 376.8 432.241 379.58C435.874 380.04 438.444 380.36 439.951 380.54C440.136 380.561 440.324 380.542 440.502 380.485C440.68 380.428 440.844 380.333 440.982 380.208C441.121 380.082 441.232 379.928 441.308 379.756C441.383 379.584 441.422 379.398 441.421 379.21C441.221 344.57 441.151 301.833 441.211 251C441.218 245.773 441.581 240.69 442.301 235.75C447.151 202.44 470.151 176.91 503.251 169.84C508.478 168.727 518.178 168.217 532.351 168.31C548.778 168.417 577.738 168.413 619.231 168.3C635.741 168.26 648.351 167.68 663.431 168.16C664.431 168.193 670.818 168.227 682.591 168.26C727.698 168.4 760.888 168.42 782.161 168.32C794.668 168.26 803.841 168.8 809.681 169.94C828.528 173.62 844.211 182.933 856.731 197.88C866.811 209.92 872.181 226.55 873.521 242.57C873.688 244.537 873.771 251.663 873.771 263.95C873.738 550.57 873.741 712.673 873.781 750.26C873.794 764.493 873.631 773.143 873.291 776.21C872.244 785.55 870.188 793.933 867.121 801.36C859.771 819.17 844.571 833.13 827.211 841.96C817.401 846.94 807.211 848.99 796.681 849.68C795.648 849.753 789.528 849.783 778.321 849.77C711.208 849.703 627.181 849.707 526.241 849.78C511.941 849.787 499.801 847.76 489.821 843.7C464.381 833.34 447.271 812.37 442.621 785.7C441.788 780.907 441.281 774.65 441.101 766.93C441.101 766.697 441.051 766.503 440.951 766.35C440.802 766.127 440.58 765.964 440.325 765.891C440.07 765.818 439.799 765.839 439.561 765.95C438.601 766.377 434.118 768.24 426.111 771.54C417.678 775.02 408.568 777.45 398.781 778.83C386.771 780.52 377.281 779.19 364.251 776.19C358.311 774.82 353.931 772.54 347.691 770.37C341.784 768.317 336.151 767.473 330.791 767.84C329.684 767.913 326.718 768.433 321.891 769.4C315.161 770.75 309.511 773.23 301.811 775.79C291.224 779.31 280.058 780.773 268.311 780.18C254.091 779.47 238.701 774.4 226.491 767.5C206.321 756.1 189.521 738.41 175.861 719.39C158.281 694.903 143.811 668.707 132.451 640.8C124.391 620.993 118.861 600.89 115.861 580.49C115.081 575.197 114.464 568.753 114.011 561.16C113.471 552.133 113.248 545.66 113.341 541.74C113.381 540.107 113.648 535.27 114.141 527.23C115.031 512.72 117.801 498.62 121.831 484.09C130.531 452.72 147.551 423.64 173.391 404.67C208.041 379.24 254.601 370.95 294.551 388.47C311.104 395.73 319.864 399.57 320.831 399.99C321.069 400.09 321.326 400.137 321.583 400.127C321.841 400.117 322.093 400.05 322.322 399.932C322.55 399.813 322.749 399.646 322.905 399.441C323.06 399.237 323.168 399.001 323.221 398.75L330.341 365.28C330.382 365.091 330.379 364.895 330.333 364.707C330.286 364.52 330.198 364.345 330.074 364.195C329.95 364.046 329.793 363.927 329.616 363.846C329.439 363.766 329.246 363.726 329.051 363.73C320.704 363.95 313.861 363.837 308.521 363.39C285.471 361.45 263.621 354.97 245.021 341.48C228.028 329.153 215.004 313.003 205.951 293.03C201.251 282.67 198.161 272.233 196.681 261.72C196.408 259.807 196.094 256.997 195.741 253.29C194.931 245 195.421 237.57 196.941 229.33C196.98 229.126 197.074 228.938 197.214 228.786C197.354 228.634 197.533 228.524 197.731 228.47C201.591 227.41 205.934 226.753 210.761 226.5C223.108 225.853 235.101 226.63 246.741 228.83C255.434 230.47 264.731 233.667 274.631 238.42C287.231 244.473 297.874 251.317 306.561 258.95C325.951 275.98 337.441 299.33 343.801 323.8C343.826 323.894 343.875 323.98 343.944 324.05C344.012 324.119 344.098 324.17 344.192 324.196C344.286 324.222 344.385 324.224 344.479 324.2C344.574 324.176 344.661 324.128 344.731 324.06L345.251 323.54C345.436 323.361 345.592 323.152 345.711 322.92C355.158 304.82 366.964 288.56 381.131 274.14C384.324 270.887 387.701 268.093 391.261 265.76C405.121 256.67 420.411 269.86 417.701 284.63C416.961 288.66 413.671 291.63 410.521 294.28C404.381 299.44 394.991 305.58 388.791 311.95C381.504 319.437 375.561 327.86 370.961 337.22C361.794 355.867 355.131 375.48 350.971 396.06ZM751.941 204.85C751.741 208.47 752.181 213.44 750.991 217.25C747.781 227.55 738.571 235.23 728.171 237.18C721.361 238.46 711.251 237.77 705.251 237.36C701.471 237.093 697.801 236.957 694.241 236.95C675.221 236.917 651.534 236.913 623.181 236.94C612.281 236.94 600.631 238.06 591.461 237.75C579.401 237.33 570.734 231.94 565.461 221.58C563.851 218.42 562.521 213.63 562.761 210.38C562.974 207.533 563.124 205.62 563.211 204.64C563.221 204.517 563.205 204.394 563.163 204.278C563.121 204.162 563.055 204.057 562.968 203.97C562.882 203.882 562.777 203.815 562.662 203.772C562.547 203.728 562.424 203.711 562.301 203.72C549.701 204.64 536.904 204.723 523.911 203.97C518.131 203.63 513.548 203.807 510.161 204.5C493.301 207.94 481.481 219.72 477.641 236.53C476.381 242.1 476.651 250.65 476.651 256.5C476.631 492.26 476.634 662.08 476.661 765.96C476.661 774.553 477.038 780.383 477.791 783.45C481.811 799.81 496.261 811.08 512.811 812.97C516.078 813.343 520.058 813.523 524.751 813.51C554.951 813.43 641.678 813.433 784.931 813.52C794.951 813.527 801.954 813.013 805.941 811.98C823.501 807.43 838.041 790.98 838.041 772.24C838.021 429.24 838.031 256.027 838.071 252.6C838.171 242.56 837.681 235.703 836.601 232.03C832.671 218.66 821.121 208.13 807.281 204.84C803.968 204.053 798.768 203.783 791.681 204.03C779.274 204.477 766.304 204.497 752.771 204.09C752.559 204.084 752.354 204.161 752.199 204.303C752.044 204.445 751.951 204.641 751.941 204.85ZM323.311 353.64C323.428 353.734 323.572 353.788 323.721 353.797C323.871 353.805 324.02 353.766 324.147 353.686C324.273 353.605 324.372 353.487 324.428 353.348C324.484 353.209 324.496 353.056 324.461 352.91C323.554 349.177 321.804 345.053 319.211 340.54C312.011 328.027 303.064 316.24 292.371 305.18C286.204 298.813 280.561 294.14 275.441 291.16C274.794 290.78 273.694 290.47 272.141 290.23C271.88 290.189 271.613 290.203 271.358 290.272C271.103 290.341 270.866 290.463 270.661 290.63C268.394 292.49 266.994 294.363 266.461 296.25C266.338 296.692 266.34 297.16 266.467 297.602C266.594 298.043 266.841 298.441 267.181 298.75C272.191 303.34 278.961 308.09 284.731 313.58C295.398 323.733 305.461 334.397 314.921 345.57C317.134 348.177 319.931 350.867 323.311 353.64ZM440.621 415.93C425.491 411.03 407.931 412.34 392.741 416.99C384.111 419.64 374.501 424.9 367.031 428.23C357.698 432.39 347.691 434.827 337.011 435.54C326.918 436.22 316.658 434.54 306.231 430.5C300.571 428.31 294.311 424.51 288.671 421.81C271.811 413.717 254.668 411.203 237.241 414.27C205.161 419.91 175.451 445.43 162.111 475.3C158.878 482.533 156.424 489.517 154.751 496.25C151.364 509.823 149.538 520.497 149.271 528.27C148.804 541.623 148.778 551.943 149.191 559.23C150.071 574.77 152.111 590 156.551 604.76C167.178 640.08 183.451 672.557 205.371 702.19C209.071 707.197 214.268 713.397 220.961 720.79C236.671 738.16 258.911 748.21 282.271 744.66C285.884 744.113 290.564 742.887 296.311 740.98C306.201 737.71 314.411 735.24 322.991 733.95C333.931 732.297 344.681 733.327 355.241 737.04C359.781 738.64 364.828 740.553 370.381 742.78C384.251 748.34 403.311 746.32 417.291 739.8C425.338 736.047 432.878 731.177 439.911 725.19C440.122 725.005 440.295 724.784 440.421 724.54C440.928 723.587 441.178 722.407 441.171 721C440.931 616.447 440.914 514.99 441.121 416.63C441.124 416.476 441.077 416.325 440.987 416.199C440.897 416.073 440.769 415.979 440.621 415.93Z" fill="#4CCBAE"/>
<path d="M323.31 353.64C319.93 350.867 317.133 348.177 314.92 345.57C305.46 334.397 295.397 323.733 284.73 313.58C278.96 308.09 272.19 303.34 267.18 298.75C266.84 298.441 266.593 298.044 266.466 297.602C266.339 297.161 266.337 296.693 266.46 296.25C266.993 294.363 268.393 292.49 270.66 290.63C270.865 290.463 271.103 290.341 271.358 290.272C271.613 290.203 271.879 290.189 272.14 290.23C273.694 290.47 274.793 290.78 275.44 291.16C280.56 294.14 286.203 298.813 292.37 305.18C303.063 316.24 312.01 328.027 319.21 340.54C321.803 345.053 323.553 349.177 324.46 352.91C324.495 353.056 324.484 353.209 324.427 353.348C324.371 353.487 324.273 353.605 324.146 353.686C324.019 353.766 323.871 353.805 323.721 353.797C323.571 353.789 323.427 353.734 323.31 353.64Z" fill="#ACEDD8"/>
<path d="M707.629 387.55C732.675 387.55 752.979 367.246 752.979 342.2C752.979 317.154 732.675 296.85 707.629 296.85C682.583 296.85 662.279 317.154 662.279 342.2C662.279 367.246 682.583 387.55 707.629 387.55Z" fill="#4CCBAE"/>
<path d="M625.769 429.36C625.776 429.321 625.775 429.281 625.764 429.243C625.754 429.204 625.736 429.168 625.71 429.137C625.685 429.106 625.653 429.08 625.616 429.062C625.58 429.043 625.54 429.033 625.499 429.03L593.019 427.46C592.884 427.454 592.749 427.476 592.623 427.524C592.497 427.572 592.384 427.646 592.289 427.74C587.249 432.8 584.169 435.75 580.529 439.72C571.382 449.693 564.852 456.763 560.939 460.93C554.129 468.19 549.809 473.41 540.859 474.11C520.419 475.7 512.289 453.8 525.679 439.67C537.726 426.977 550.619 413.29 564.359 398.61C570.109 392.47 577.219 386.69 585.439 384.92C587.572 384.46 590.962 384.233 595.609 384.24C620.316 384.28 633.776 384.283 635.989 384.25C642.099 384.15 646.849 383.8 651.999 383.67C659.289 383.48 665.819 383.42 671.509 387.3C684.202 395.953 693.299 401.857 698.799 405.01C700.519 406.003 702.862 408.22 705.829 411.66C709.619 416.05 712.729 421.08 716.519 425.75C722.559 433.2 726.509 438.88 732.119 444.05C734.832 446.543 737.016 449.06 738.669 451.6C738.73 451.693 738.826 451.757 738.934 451.78C739.043 451.802 739.156 451.781 739.249 451.72C747.316 446.273 756.236 439.95 766.009 432.75C770.409 429.51 776.449 424.78 781.639 423.56C791.369 421.27 800.589 424.41 805.209 433.63C808.549 440.31 807.986 446.977 803.519 453.63C802.106 455.73 799.212 458.38 794.839 461.58C780.819 471.827 766.652 482.077 752.339 492.33C749.646 494.263 747.042 495.737 744.529 496.75C733.069 501.4 722.349 497.02 714.539 488.02C708.326 480.853 703.216 475.243 699.209 471.19C696.069 468.01 694.189 465.44 691.459 462.35C691.393 462.275 691.311 462.214 691.22 462.172C691.129 462.129 691.03 462.106 690.929 462.103C690.828 462.101 690.727 462.118 690.632 462.156C690.538 462.193 690.452 462.249 690.379 462.32C689.719 462.973 689.092 463.867 688.499 465C686.339 469.16 683.019 474.94 680.969 479.1C672.669 495.967 664.952 511.16 657.819 524.68C657.729 524.851 657.704 525.05 657.75 525.24C657.796 525.429 657.909 525.596 658.069 525.71C662.416 528.83 667.282 532.2 672.669 535.82C687.162 545.567 699.826 554.15 710.659 561.57C716.786 565.763 720.662 569.08 722.289 571.52C725.256 575.98 726.659 580.887 726.499 586.24C726.426 588.807 725.249 592.907 722.969 598.54C711.599 626.61 699.439 654.4 687.589 682.59C684.702 689.45 682.299 693.87 680.379 695.85C675.589 700.79 665.969 705.55 658.679 703.23C649.672 700.357 644.826 694.043 644.139 684.29C643.939 681.5 644.249 676.64 645.799 673.21C646.879 670.81 648.539 665.69 649.979 662.46C655.219 650.72 662.639 633.96 669.639 616.84C672.839 609.007 676.302 601.157 680.029 593.29C680.147 593.036 680.169 592.748 680.092 592.481C680.015 592.214 679.843 591.986 679.609 591.84C660.536 579.854 642.229 567.597 624.689 555.07C621.122 552.523 613.479 547.637 601.759 540.41C596.952 537.45 593.732 534.967 592.099 532.96C585.759 525.2 582.679 513.92 587.649 504.64C589.816 500.593 593.012 494.3 597.239 485.76C605.679 468.7 614.996 450.43 625.189 430.95C625.496 430.363 625.689 429.833 625.769 429.36Z" fill="#4CCBAE"/>
<path d="M440.62 415.93C440.768 415.979 440.896 416.073 440.986 416.199C441.076 416.325 441.123 416.476 441.12 416.63C440.913 514.99 440.93 616.447 441.17 721C441.176 722.407 440.926 723.587 440.42 724.54C440.294 724.784 440.121 725.005 439.91 725.19C432.876 731.177 425.336 736.047 417.29 739.8C403.31 746.32 384.25 748.34 370.38 742.78C364.826 740.553 359.78 738.64 355.24 737.04C344.68 733.327 333.93 732.297 322.99 733.95C314.41 735.24 306.2 737.71 296.31 740.98C290.563 742.887 285.883 744.113 282.27 744.66C258.91 748.21 236.67 738.16 220.96 720.79C214.266 713.397 209.07 707.197 205.37 702.19C183.45 672.557 167.176 640.08 156.55 604.76C152.11 590 150.07 574.77 149.19 559.23C148.776 551.943 148.803 541.623 149.27 528.27C149.536 520.497 151.363 509.823 154.75 496.25C156.423 489.517 158.876 482.533 162.11 475.3C175.45 445.43 205.16 419.91 237.24 414.27C254.666 411.203 271.81 413.717 288.67 421.81C294.31 424.51 300.57 428.31 306.23 430.5C316.656 434.54 326.916 436.22 337.01 435.54C347.69 434.827 357.696 432.39 367.03 428.23C374.5 424.9 384.11 419.64 392.74 416.99C407.93 412.34 425.49 411.03 440.62 415.93ZM193.39 571.06C195.543 568.1 196.346 564.71 195.8 560.89C194.066 548.663 194.31 536.257 196.53 523.67C198.68 511.45 204.77 498.89 213.38 489.61C217.246 485.443 221.05 481.18 224.79 476.82C229.27 471.607 229.223 466.763 224.65 462.29C224.293 461.939 223.829 461.717 223.33 461.661C222.832 461.605 222.328 461.717 221.9 461.98C203.37 473.36 187.16 494.97 182.46 516.23C180.83 523.63 179.6 532.07 179.03 540.48C178.57 547.51 178.87 576.66 192.52 571.72C192.871 571.59 193.174 571.36 193.39 571.06Z" fill="#ACEDD8"/>
<path d="M192.52 571.72C178.87 576.66 178.57 547.51 179.03 540.48C179.6 532.07 180.83 523.63 182.46 516.23C187.16 494.97 203.37 473.36 221.9 461.98C222.328 461.717 222.832 461.605 223.331 461.661C223.829 461.717 224.293 461.939 224.65 462.29C229.223 466.763 229.27 471.607 224.79 476.82C221.05 481.18 217.247 485.443 213.38 489.61C204.77 498.89 198.68 511.45 196.53 523.67C194.31 536.257 194.067 548.663 195.8 560.89C196.347 564.71 195.543 568.1 193.39 571.06C193.175 571.36 192.872 571.59 192.52 571.72Z" fill="#4CCBAE"/>
<path d="M584.26 546.72L620.26 571.48C620.459 571.615 620.601 571.819 620.66 572.055C620.719 572.29 620.691 572.541 620.58 572.76C611.207 591.167 603.137 607.04 596.37 620.38C593.197 626.64 588.367 630.97 581.88 633.37C578.06 634.79 560.184 641.403 528.25 653.21C522.497 655.33 518.48 656.37 516.2 656.33C497.06 655.97 489.61 632.28 503.32 619.91C505.487 617.95 509.84 615.747 516.38 613.3C537.667 605.34 551.63 600.107 558.27 597.6C558.64 597.461 558.976 597.248 559.258 596.974C559.54 596.701 559.762 596.372 559.91 596.01C566.464 580.123 574.267 563.77 583.32 546.95C583.363 546.869 583.423 546.799 583.495 546.743C583.567 546.687 583.65 546.647 583.739 546.625C583.828 546.603 583.92 546.601 584.01 546.617C584.1 546.633 584.185 546.668 584.26 546.72Z" fill="#4CCBAE"/>
<path d="M714.47 761.18H598.07C591.813 761.18 586.74 766.253 586.74 772.51V773.21C586.74 779.467 591.813 784.54 598.07 784.54H714.47C720.728 784.54 725.8 779.467 725.8 773.21V772.51C725.8 766.253 720.728 761.18 714.47 761.18Z" fill="#4CCBAE"/>
</svg>
