<svg width="1024" height="1024" viewBox="0 0 1024 1024" fill="none" xmlns="http://www.w3.org/2000/svg">
<path d="M800.17 301.36C800.05 314.333 799.953 327.31 799.88 340.29C799.867 343.683 799.28 346.377 798.12 348.37C795.21 353.39 791.21 356.8 785.13 357.09C781.14 357.28 775.81 357.35 772.88 355.35C768.94 352.65 766.297 349.103 764.95 344.71C764.897 344.531 764.87 344.349 764.87 344.17L764.33 301" stroke="#2085CF" stroke-width="2"/>
<path d="M870.611 393.28L844.271 393.65" stroke="#2085CF" stroke-width="2"/>
<path d="M844.271 393.65C757.204 393.523 670.614 393.457 584.501 393.45C574.081 393.45 563.664 393.533 553.251 393.7C547.791 393.79 543.521 394.19 540.141 398.56" stroke="#59ACE2" stroke-width="2"/>
<path d="M540.141 398.56C537.201 396.06 534.397 393.37 531.731 390.49C526.624 384.977 524.004 382.153 523.871 382.02C514.611 372.947 504.787 364.517 494.401 356.73C494.207 356.583 491.724 354.877 486.951 351.61C483.684 349.377 480.721 346.897 478.061 344.17" stroke="#2085CF" stroke-width="2"/>
<path d="M589.461 301.35C589.568 302.07 589.551 302.997 589.411 304.13C589.271 305.303 589.201 306.227 589.201 306.9C589.221 317.487 589.238 328.76 589.251 340.72C589.258 345.507 587.765 349.447 584.771 352.54C580.921 356.53 573.301 358.24 567.631 357.16C561.645 356.013 557.475 352.693 555.121 347.2C554.161 344.96 553.658 340.893 553.611 335C553.525 323.407 553.528 311.81 553.621 300.21" stroke="#2085CF" stroke-width="2"/>
<path d="M540.141 398.56C545.107 404.913 549.814 411.473 554.261 418.24C562.931 431.45 570.741 445.68 576.351 460.25C582.544 476.357 586.957 493.013 589.591 510.22C595.421 548.38 589.371 587.26 574.961 623.06C571.121 632.58 567.721 638.32 561.651 650.04C561.605 650.128 561.58 650.226 561.578 650.325C561.575 650.424 561.596 650.522 561.637 650.611C561.679 650.7 561.741 650.778 561.818 650.839C561.895 650.899 561.985 650.941 562.081 650.96C566.881 651.94 572.104 652.437 577.751 652.45C626.931 652.537 701.014 652.547 800.001 652.48C810.561 652.48 820.311 650.26 828.711 643.46C838.581 635.47 843.591 624.91 843.951 612.34C843.991 610.98 844.011 608.867 844.011 606C844.117 535.193 844.204 464.41 844.271 393.65" stroke="#60B9EC" stroke-width="2"/>
<path d="M498.371 683.68C502.324 680.893 505.948 677.593 509.241 673.78C509.301 673.711 509.335 673.623 509.339 673.531C509.342 673.438 509.315 673.346 509.261 673.27C509.181 673.157 509.071 673.06 508.931 672.98" stroke="#2085CF" stroke-width="2"/>
<path d="M508.931 672.98C511.231 670.273 513.524 667.553 515.811 664.82C555.951 616.78 571.921 552.58 556.171 492.04C540.621 432.29 498.681 381.74 441.121 357.89C433.341 354.663 426.194 352.23 419.681 350.59C375.791 339.5 327.971 343.61 286.941 363.18C247.361 382.06 214.721 412.85 194.521 451.61C179.481 480.45 172.517 512 173.631 546.26C175.851 614.38 212.671 674.68 270.721 709.5C305.081 730.1 345.151 737.68 384.251 734.67C397.457 733.657 411.054 730.883 425.041 726.35C452.601 717.423 477.044 703.2 498.371 683.68" stroke="#77C1EC" stroke-width="2"/>
<path d="M508.931 672.98L498.371 683.68" stroke="#70B4E2" stroke-width="2"/>
<path d="M376.028 377.087C376.036 376.072 375.843 375.065 375.461 374.125C375.079 373.184 374.515 372.328 373.803 371.605C373.09 370.883 372.242 370.307 371.307 369.912C370.371 369.517 369.368 369.31 368.353 369.303L367.513 369.297C365.463 369.283 363.491 370.084 362.031 371.523C360.571 372.963 359.743 374.923 359.729 376.973L359.613 393.493C359.606 394.508 359.799 395.515 360.181 396.455C360.563 397.396 361.127 398.252 361.839 398.974C362.552 399.697 363.4 400.273 364.335 400.668C365.271 401.063 366.274 401.27 367.289 401.277L368.129 401.282C370.179 401.297 372.151 400.496 373.611 399.057C375.071 397.617 375.899 395.657 375.913 393.607L376.028 377.087Z" stroke="#77C1EC" stroke-width="2"/>
<path d="M290.336 394.515C289.213 392.753 287.436 391.508 285.395 391.056C283.355 390.604 281.218 390.98 279.456 392.103L278.882 392.469C277.12 393.592 275.875 395.369 275.423 397.409C274.971 399.449 275.348 401.586 276.47 403.349L284.444 415.865C285.567 417.627 287.344 418.871 289.384 419.324C291.425 419.776 293.561 419.399 295.324 418.277L295.897 417.911C297.66 416.788 298.904 415.011 299.356 412.971C299.809 410.93 299.432 408.794 298.309 407.031L290.336 394.515Z" stroke="#77C1EC" stroke-width="2"/>
<path d="M355.331 513.85C354.424 513.37 353.768 512.97 353.361 512.65C349.868 509.89 332.904 496.69 302.471 473.05C297.811 469.42 291.351 468.73 286.591 472.29C281.801 475.88 280.071 482.19 282.731 487.53C283.811 489.71 286.241 491.89 288.151 493.35C303.698 505.27 320.881 518.52 339.701 533.1C339.951 533.291 340.145 533.546 340.264 533.84C340.384 534.133 340.424 534.454 340.381 534.77C339.021 544.943 341.488 553.25 347.781 559.69C368.391 580.75 405.261 562.77 397.571 532.9C397.477 532.532 397.482 532.146 397.586 531.78C397.689 531.415 397.888 531.084 398.161 530.82C425.288 504.547 455.558 475.577 488.971 443.91C493.221 439.89 495.851 437.77 496.241 432.5C496.881 424.04 489.451 418.13 481.231 419.75C478.771 420.237 476.338 421.633 473.931 423.94C440.471 456.04 409.888 485.467 382.181 512.22C381.867 512.526 381.479 512.745 381.055 512.857C380.631 512.969 380.185 512.97 379.761 512.86C371.561 510.77 364.231 510.23 356.491 513.88C356.308 513.964 356.108 514.005 355.907 514C355.705 513.995 355.509 513.943 355.331 513.85Z" stroke="#70B4E2" stroke-width="2"/>
<path d="M243.958 472.124C244.559 471.293 244.991 470.352 245.229 469.354C245.467 468.357 245.505 467.322 245.343 466.309C245.181 465.297 244.821 464.326 244.284 463.452C243.746 462.579 243.042 461.819 242.211 461.218L229.105 451.731C228.274 451.129 227.333 450.697 226.335 450.46C225.337 450.222 224.303 450.183 223.29 450.345C222.277 450.508 221.306 450.868 220.433 451.405C219.559 451.942 218.8 452.647 218.199 453.477L217.823 453.996C217.222 454.827 216.79 455.768 216.552 456.766C216.315 457.763 216.276 458.798 216.438 459.811C216.6 460.823 216.96 461.794 217.498 462.668C218.035 463.541 218.739 464.3 219.57 464.902L232.677 474.389C233.508 474.991 234.449 475.423 235.446 475.66C236.444 475.898 237.479 475.937 238.492 475.775C239.504 475.612 240.475 475.252 241.349 474.715C242.222 474.177 242.981 473.473 243.583 472.642L243.958 472.124Z" stroke="#77C1EC" stroke-width="2"/>
<path d="M227.031 539.67C227.031 537.649 226.228 535.711 224.799 534.282C223.37 532.853 221.432 532.05 219.411 532.05H200.571C198.55 532.05 196.612 532.853 195.183 534.282C193.754 535.711 192.951 537.649 192.951 539.67V540.45C192.951 542.471 193.754 544.409 195.183 545.838C196.612 547.267 198.55 548.07 200.571 548.07H219.411C221.432 548.07 223.37 547.267 224.799 545.838C226.228 544.409 227.031 542.471 227.031 540.45V539.67Z" stroke="#77C1EC" stroke-width="2"/>
<path d="M543.143 539.91C543.15 537.839 542.334 535.849 540.875 534.38C539.415 532.91 537.431 532.08 535.36 532.073L516.5 532.007C515.475 532.003 514.458 532.202 513.509 532.591C512.561 532.98 511.698 533.553 510.97 534.275C510.242 534.998 509.664 535.857 509.268 536.803C508.872 537.749 508.667 538.764 508.663 539.79L508.66 540.61C508.653 542.681 509.469 544.67 510.928 546.14C512.388 547.61 514.372 548.44 516.443 548.447L535.303 548.513C536.328 548.516 537.345 548.318 538.294 547.929C539.242 547.54 540.105 546.967 540.833 546.245C541.561 545.522 542.139 544.663 542.535 543.717C542.931 542.771 543.136 541.756 543.14 540.73L543.143 539.91Z" stroke="#77C1EC" stroke-width="2"/>
<path d="M245.059 608.068C243.828 606.392 241.982 605.274 239.926 604.96C237.871 604.645 235.775 605.16 234.099 606.391L220.576 616.325C219.746 616.934 219.044 617.701 218.511 618.582C217.978 619.463 217.623 620.44 217.467 621.457C217.311 622.475 217.358 623.514 217.603 624.513C217.849 625.513 218.289 626.455 218.898 627.285L219.242 627.752C220.473 629.428 222.319 630.546 224.374 630.86C226.43 631.175 228.526 630.66 230.202 629.429L243.725 619.495C244.555 618.886 245.257 618.119 245.79 617.238C246.323 616.357 246.678 615.38 246.834 614.363C246.989 613.345 246.943 612.306 246.698 611.307C246.452 610.307 246.012 609.365 245.402 608.535L245.059 608.068Z" stroke="#77C1EC" stroke-width="2"/>
<path d="M518.624 627.169C519.223 626.345 519.653 625.41 519.891 624.419C520.129 623.428 520.17 622.4 520.01 621.394C519.851 620.387 519.495 619.422 518.962 618.553C518.43 617.684 517.731 616.929 516.907 616.33L503.235 606.396C502.41 605.797 501.476 605.367 500.485 605.129C499.494 604.891 498.466 604.85 497.459 605.01C496.453 605.169 495.488 605.525 494.619 606.058C493.75 606.59 492.994 607.289 492.395 608.113L492.019 608.631C491.42 609.455 490.989 610.39 490.752 611.381C490.514 612.371 490.473 613.4 490.633 614.406C490.792 615.413 491.148 616.378 491.681 617.247C492.213 618.116 492.911 618.871 493.736 619.47L507.408 629.404C508.233 630.003 509.167 630.433 510.158 630.671C511.149 630.909 512.177 630.949 513.183 630.79C514.19 630.631 515.155 630.275 516.024 629.742C516.893 629.21 517.649 628.511 518.248 627.687L518.624 627.169Z" stroke="#77C1EC" stroke-width="2"/>
<path d="M279.041 686.3C279.901 688.507 281.371 689.843 283.451 690.31" stroke="#77C1EC" stroke-width="2"/>
<path d="M283.451 690.31C288.481 692.13 291.641 689.95 294.111 685.42C296.051 681.867 298.034 678.377 300.061 674.95C306.451 664.12 292.071 656.56 285.681 667C284.594 668.773 282.368 672.777 279.001 679.01C277.874 681.097 277.888 683.527 279.041 686.3" stroke="#70B4E2" stroke-width="2"/>
<path d="M283.451 690.31C286.051 690.377 288.201 689.957 289.901 689.05C291.434 688.23 292.811 686.563 294.031 684.05C296.811 678.31 305.851 668.28 296.671 663.5C291.931 661.03 287.541 665.3 285.371 669.13C284.598 670.477 282.894 673.76 280.261 678.98C279.334 680.82 279.021 682.24 279.321 683.24C279.794 684.813 279.701 685.833 279.041 686.3" stroke="#2085CF" stroke-width="2"/>
<path d="M450.435 665.579C449.895 664.699 449.188 663.933 448.353 663.327C447.518 662.72 446.571 662.284 445.568 662.043C444.564 661.802 443.523 661.761 442.503 661.922C441.484 662.084 440.506 662.445 439.626 662.984L439.046 663.339C438.166 663.878 437.401 664.586 436.794 665.421C436.187 666.256 435.751 667.202 435.51 668.206C435.269 669.21 435.228 670.251 435.39 671.27C435.551 672.29 435.912 673.268 436.451 674.148L444.487 687.261C445.027 688.141 445.734 688.907 446.569 689.513C447.404 690.12 448.351 690.556 449.354 690.797C450.358 691.038 451.399 691.079 452.419 690.918C453.438 690.756 454.416 690.396 455.296 689.856L455.876 689.501C456.756 688.962 457.521 688.254 458.128 687.419C458.734 686.584 459.171 685.638 459.412 684.634C459.653 683.63 459.694 682.589 459.532 681.57C459.371 680.55 459.01 679.572 458.471 678.692L450.435 665.579Z" stroke="#77C1EC" stroke-width="2"/>
<path d="M377.136 688.614C377.138 687.595 376.939 686.586 376.551 685.644C376.162 684.701 375.592 683.845 374.873 683.123C374.154 682.401 373.299 681.828 372.358 681.437C371.417 681.045 370.409 680.842 369.39 680.841L368.57 680.839C367.551 680.837 366.541 681.036 365.599 681.425C364.657 681.813 363.8 682.383 363.079 683.102C362.357 683.822 361.784 684.676 361.392 685.617C361 686.558 360.798 687.567 360.796 688.586L360.764 707.166C360.762 708.185 360.961 709.194 361.349 710.136C361.737 711.078 362.308 711.935 363.027 712.657C363.746 713.379 364.601 713.952 365.541 714.343C366.482 714.735 367.491 714.937 368.51 714.939L369.33 714.941C370.349 714.942 371.359 714.744 372.301 714.355C373.243 713.967 374.099 713.397 374.821 712.677C375.543 711.958 376.116 711.104 376.508 710.163C376.899 709.222 377.102 708.213 377.104 707.194L377.136 688.614Z" stroke="#77C1EC" stroke-width="2"/>
<path d="M687.163 447.841C687.168 445.035 686.058 442.342 684.077 440.355C682.097 438.367 679.408 437.248 676.602 437.243L627.622 437.157C624.816 437.152 622.123 438.262 620.135 440.243C618.148 442.224 617.028 444.913 617.023 447.719L616.939 495.759C616.935 498.565 618.045 501.258 620.025 503.245C622.006 505.233 624.695 506.352 627.501 506.357L676.481 506.443C679.287 506.448 681.98 505.338 683.967 503.357C685.955 501.376 687.074 498.687 687.079 495.881L687.163 447.841Z" stroke="#60B9EC" stroke-width="2"/>
<path d="M796.03 447.879C796.027 446.476 795.749 445.088 795.21 443.793C794.671 442.498 793.882 441.322 792.888 440.332C791.895 439.342 790.716 438.557 789.42 438.023C788.123 437.489 786.734 437.215 785.331 437.217L736.251 437.303C733.419 437.308 730.704 438.438 728.705 440.444C726.705 442.451 725.585 445.169 725.59 448.001L725.673 495.541C725.675 496.944 725.954 498.332 726.493 499.627C727.032 500.922 727.821 502.098 728.814 503.088C729.808 504.078 730.986 504.863 732.283 505.397C733.58 505.931 734.969 506.205 736.371 506.203L785.451 506.117C788.284 506.112 790.998 504.982 792.998 502.976C794.997 500.969 796.118 498.251 796.113 495.418L796.03 447.879Z" stroke="#60B9EC" stroke-width="2"/>
<path d="M687.118 551.779C687.114 548.991 686.002 546.32 684.027 544.352C682.053 542.385 679.378 541.282 676.59 541.287L627.47 541.373C626.09 541.375 624.724 541.649 623.45 542.18C622.175 542.71 621.018 543.486 620.044 544.464C619.07 545.442 618.298 546.602 617.772 547.878C617.246 549.154 616.976 550.521 616.979 551.901L617.062 599.581C617.067 602.369 618.179 605.04 620.153 607.007C622.128 608.975 624.803 610.078 627.59 610.073L676.71 609.987C678.09 609.985 679.456 609.71 680.731 609.18C682.005 608.65 683.162 607.873 684.136 606.896C685.111 605.918 685.883 604.758 686.409 603.482C686.935 602.206 687.204 600.839 687.202 599.459L687.118 551.779Z" stroke="#60B9EC" stroke-width="2"/>
<path d="M796.07 551.66C796.07 548.915 794.979 546.282 793.038 544.341C791.097 542.4 788.465 541.31 785.72 541.31H735.94C733.195 541.31 730.562 542.4 728.621 544.341C726.68 546.282 725.59 548.915 725.59 551.66V599.68C725.59 601.039 725.858 602.385 726.378 603.641C726.898 604.896 727.66 606.037 728.621 606.998C729.582 607.96 730.723 608.722 731.979 609.242C733.235 609.762 734.581 610.03 735.94 610.03H785.72C787.079 610.03 788.425 609.762 789.681 609.242C790.936 608.722 792.077 607.96 793.038 606.998C793.999 606.037 794.762 604.896 795.282 603.641C795.802 602.385 796.07 601.039 796.07 599.68V551.66Z" stroke="#60B9EC" stroke-width="2"/>
<path d="M375.792 538.142C375.58 537.341 375.206 536.591 374.692 535.935C374.177 535.279 373.531 534.73 372.792 534.319C372.052 533.909 371.233 533.644 370.382 533.541C369.53 533.438 368.662 533.499 367.828 533.719C366.994 533.94 366.21 534.316 365.52 534.826C364.83 535.336 364.249 535.971 363.809 536.693C363.369 537.415 363.078 538.211 362.955 539.036C362.831 539.86 362.876 540.697 363.088 541.498C363.3 542.299 363.674 543.049 364.188 543.705C364.703 544.361 365.349 544.91 366.088 545.321C366.828 545.731 367.647 545.996 368.498 546.099C369.35 546.202 370.218 546.141 371.052 545.921C371.886 545.7 372.67 545.324 373.36 544.814C374.05 544.304 374.631 543.669 375.071 542.947C375.512 542.225 375.802 541.429 375.925 540.604C376.049 539.78 376.004 538.943 375.792 538.142Z" stroke="#70B4E2" stroke-width="2"/>
<path d="M468.85 145.12C469.005 145.098 469.151 145.033 469.271 144.932C469.391 144.83 469.479 144.697 469.526 144.547C469.573 144.397 469.577 144.237 469.537 144.086C469.497 143.934 469.415 143.797 469.3 143.69C462.553 137.303 455.983 131.21 449.59 125.41C445.42 121.64 442.45 118.04 443.49 111.97C445.07 102.79 453.87 97.7 462.61 101.14C463.936 101.667 466.043 103.277 468.93 105.97C481.636 117.837 494.556 130.033 507.69 142.56C512.69 147.32 518.92 150.73 518.86 159.24C518.82 164.7 515.49 167.95 511.3 172.29C487.34 197.09 473.436 211.523 469.59 215.59C464.91 220.53 459.45 223.4 452.65 220.62C442.46 216.45 440.48 205.02 448.1 197.07C456.986 187.797 463.743 180.56 468.37 175.36C468.57 175.14 468.67 174.92 468.67 174.7C468.672 174.557 468.644 174.415 468.587 174.283C468.53 174.152 468.446 174.034 468.34 173.937C468.234 173.841 468.109 173.768 467.972 173.724C467.836 173.679 467.692 173.664 467.55 173.68C453.94 175.24 441.83 176.95 427.97 180.24C415.876 183.107 408.593 184.9 406.12 185.62C402.833 186.573 396.006 188.857 385.64 192.47C379.38 194.657 372.71 197.36 365.63 200.58C338.256 213.04 312.856 228.827 289.43 247.94C287.15 249.8 280.18 256.013 268.52 266.58C261.26 273.16 256.61 278.83 249.52 286.51C226.45 311.49 208.36 341.23 192.92 371.65C189.84 377.72 183.01 381.17 176.45 378.71C173.556 377.623 171.35 376.2 169.83 374.44C165.2 369.09 166.52 363.07 169.48 357.26C174.666 347.1 179.76 337.63 184.76 328.85C202.59 297.48 225.46 268.73 251.15 244.15C253.19 242.19 258.573 237.403 267.3 229.79C273.173 224.657 278.786 220.14 284.14 216.24C302.166 203.107 320.883 191.54 340.29 181.54C348.476 177.327 357.13 173.41 366.25 169.79C388.416 160.977 411.123 154.367 434.37 149.96C446.5 147.66 459.3 146.51 468.85 145.12Z" fill="#2792D9"/>
<path d="M679.919 188.53C689.832 193.683 697.432 197.943 702.719 201.31C713.826 208.39 724.986 216.233 736.199 224.84C739.009 226.99 743.459 230.56 744.949 233.97C750.749 247.28 735.719 259.73 723.869 250.43C706.019 236.43 687.129 224 666.939 213.52C646.749 203.03 625.719 194.72 603.999 188.18C589.569 183.83 591.109 164.37 605.339 161.46C608.979 160.72 614.459 162.31 617.839 163.37C631.326 167.59 644.162 172.21 656.349 177.23C662.142 179.61 669.999 183.377 679.919 188.53Z" fill="#2792D9"/>
<path d="M800.17 301.36C800.05 314.333 799.953 327.31 799.88 340.29C799.867 343.683 799.28 346.377 798.12 348.37C795.21 353.39 791.21 356.8 785.13 357.09C781.14 357.28 775.81 357.35 772.88 355.35C768.94 352.65 766.297 349.103 764.95 344.71C764.897 344.531 764.87 344.349 764.87 344.17L764.33 301C764.41 300.7 764.45 300.37 764.45 300.01C764.423 293.683 764.447 287.35 764.52 281.01C764.587 275.45 766.637 270.92 770.67 267.42C779.56 259.7 794.8 263.34 798.87 274.37C799.603 276.357 799.98 280.83 800 287.79C800.013 292.29 800.07 296.813 800.17 301.36Z" fill="#2792D9"/>
<path d="M589.459 301.35C589.566 302.07 589.549 302.997 589.409 304.13C589.269 305.303 589.199 306.227 589.199 306.9C589.219 317.487 589.236 328.76 589.249 340.72C589.256 345.507 587.763 349.447 584.769 352.54C580.919 356.53 573.299 358.24 567.629 357.16C561.643 356.013 557.473 352.693 555.119 347.2C554.159 344.96 553.656 340.893 553.609 335C553.523 323.407 553.526 311.81 553.619 300.21C553.626 295.403 553.609 290.59 553.569 285.77C553.523 280.423 553.906 276.67 554.719 274.51C556.979 268.477 561.339 264.877 567.799 263.71C576.179 262.19 585.049 266.27 588.219 274.38C589.019 276.427 589.403 280.723 589.369 287.27C589.343 291.85 589.373 296.543 589.459 301.35Z" fill="#2792D9"/>
<path d="M553.621 300.21C553.527 311.81 553.524 323.407 553.611 335C553.657 340.893 554.161 344.96 555.121 347.2C557.474 352.693 561.644 356.013 567.631 357.16C573.301 358.24 580.921 356.53 584.771 352.54C587.764 349.447 589.257 345.507 589.251 340.72C589.237 328.76 589.221 317.487 589.201 306.9C589.201 306.227 589.271 305.303 589.411 304.13C589.551 302.997 589.567 302.07 589.461 301.35L763.341 301.41C763.581 301.41 763.818 301.337 764.021 301.2L764.331 301L764.871 344.17C764.871 344.349 764.898 344.531 764.951 344.71C766.297 349.103 768.941 352.65 772.881 355.35C775.811 357.35 781.141 357.28 785.131 357.09C791.211 356.8 795.211 353.39 798.121 348.37C799.281 346.377 799.867 343.683 799.881 340.29C799.954 327.31 800.051 314.333 800.171 301.36C812.924 301.367 825.367 301.357 837.501 301.33C856.661 301.3 870.041 315.73 870.171 334.75C870.311 354.217 870.457 373.727 870.611 393.28L844.271 393.65C757.204 393.523 670.614 393.457 584.501 393.45C574.081 393.45 563.664 393.533 553.251 393.7C547.791 393.79 543.521 394.19 540.141 398.56C537.201 396.06 534.397 393.37 531.731 390.49C526.624 384.977 524.004 382.153 523.871 382.02C514.611 372.947 504.787 364.517 494.401 356.73C494.207 356.583 491.724 354.877 486.951 351.61C483.684 349.377 480.721 346.897 478.061 344.17C479.241 342.217 479.924 340.343 480.111 338.55C480.537 334.363 480.964 331.143 481.391 328.89C483.841 315.83 493.201 305.51 506.141 302.31C508.767 301.663 512.867 301.337 518.441 301.33C528.154 301.323 539.564 301.34 552.671 301.38C552.749 301.38 552.825 301.359 552.891 301.32C553.317 301.047 553.561 300.677 553.621 300.21Z" fill="#1978C5"/>
<path d="M478.06 344.17C480.72 346.897 483.683 349.377 486.95 351.61C491.723 354.877 494.206 356.583 494.4 356.73C504.786 364.517 514.61 372.947 523.87 382.02C524.003 382.153 526.623 384.977 531.73 390.49C534.396 393.37 537.2 396.06 540.14 398.56C545.106 404.913 549.813 411.473 554.26 418.24C562.93 431.45 570.74 445.68 576.35 460.25C582.543 476.357 586.956 493.013 589.59 510.22C595.42 548.38 589.37 587.26 574.96 623.06C571.12 632.58 567.72 638.32 561.65 650.04C561.604 650.128 561.579 650.226 561.576 650.325C561.574 650.424 561.595 650.522 561.636 650.611C561.678 650.7 561.74 650.778 561.817 650.839C561.894 650.899 561.984 650.941 562.08 650.96C566.88 651.94 572.103 652.437 577.75 652.45C626.93 652.537 701.013 652.547 800 652.48C810.56 652.48 820.31 650.26 828.71 643.46C838.58 635.47 843.59 624.91 843.95 612.34C843.99 610.98 844.01 608.867 844.01 606C844.116 535.193 844.203 464.41 844.27 393.65L870.61 393.28C870.943 395.853 871.11 398.51 871.11 401.25C871.163 463.723 871.173 535.307 871.14 616C871.133 627.347 869 637.83 864.74 647.45C858.506 661.517 851.22 675.33 842.88 688.89C826.486 715.543 808.273 739.913 788.24 762C779.56 771.56 769.33 781.617 757.55 792.17C746.016 802.503 734.87 811.533 724.11 819.26C675.163 854.413 620.623 877.053 560.49 887.18C556.543 887.847 548.233 888.87 535.56 890.25C527.14 891.177 518.79 891.66 510.51 891.7C494.37 891.787 483.573 891.667 478.12 891.34C465.493 890.58 451.583 888.893 436.39 886.28C420.29 883.507 404.886 879.767 390.18 875.06C360.27 865.48 330.18 852.47 305.46 836.84C300.986 834.013 293.72 829.07 283.66 822.01C259.74 805.2 237.9 784.76 218.03 763.55C216.23 761.623 214.936 760.07 214.15 758.89C208.16 749.88 214.77 738.63 225 738.12C229.653 737.887 233.603 739.51 236.85 742.99C243.27 749.87 247.33 754.45 253.62 760.29C269.513 775.05 285.016 787.947 300.13 798.98C317.996 812.033 337.493 823.257 358.62 832.65C387.033 845.29 416.55 854.05 447.17 858.93C477.256 863.723 508.023 864.417 539.47 861.01C605.67 853.83 665.193 829.183 718.04 787.07C724.073 782.257 730.686 776.503 737.88 769.81C752.07 756.62 763.5 743.82 776.16 728.43C786.72 715.59 796.126 702.573 804.38 689.38C805.24 688.01 806.52 685.78 806.53 683.84C806.54 681.23 801.03 678.45 799.22 677.83C798.776 677.678 798.31 677.6 797.84 677.6C708.58 677.56 633.723 677.567 573.27 677.62C564.1 677.62 555.48 675.34 547.62 673.39C547.088 673.256 546.529 673.282 546.01 673.463C545.492 673.644 545.036 673.973 544.7 674.41C538.053 683.037 530.28 691.817 521.38 700.75C507.82 714.36 492.84 725.2 477.24 734.22C441.64 754.813 403.403 764.913 362.53 764.52C346.823 764.373 329.85 762.05 311.61 757.55C276.216 748.817 244.986 731.903 217.92 706.81C173.81 665.92 145.89 608.71 143.92 548.26C142.966 519.067 147.236 491.143 156.73 464.49C161.09 452.237 167.65 438.547 176.41 423.42C178.163 420.387 182.653 413.953 189.88 404.12C197.753 393.393 206.576 383.73 216.35 375.13C254.556 341.503 298.286 321.993 347.54 316.6C376.273 313.447 405.676 316.277 435.75 325.09C444.37 327.62 455.12 332.36 462.58 335.87C466.853 337.883 472.013 340.65 478.06 344.17ZM498.37 683.68C502.323 680.893 505.946 677.593 509.24 673.78C509.299 673.711 509.333 673.623 509.337 673.531C509.341 673.438 509.313 673.346 509.26 673.27C509.18 673.157 509.07 673.06 508.93 672.98C511.23 670.273 513.523 667.553 515.81 664.82C555.95 616.78 571.92 552.58 556.17 492.04C540.62 432.29 498.68 381.74 441.12 357.89C433.34 354.663 426.193 352.23 419.68 350.59C375.79 339.5 327.97 343.61 286.94 363.18C247.36 382.06 214.72 412.85 194.52 451.61C179.48 480.45 172.516 512 173.63 546.26C175.85 614.38 212.67 674.68 270.72 709.5C305.08 730.1 345.15 737.68 384.25 734.67C397.456 733.657 411.053 730.883 425.04 726.35C452.6 717.423 477.043 703.2 498.37 683.68Z" fill="#2792D9"/>
<path d="M508.931 672.98L498.371 683.68C477.044 703.2 452.601 717.423 425.041 726.35C411.054 730.883 397.457 733.657 384.251 734.67C345.151 737.68 305.081 730.1 270.721 709.5C212.671 674.68 175.851 614.38 173.631 546.26C172.517 512 179.481 480.45 194.521 451.61C214.721 412.85 247.361 382.06 286.941 363.18C327.971 343.61 375.791 339.5 419.681 350.59C426.194 352.23 433.341 354.663 441.121 357.89C498.681 381.74 540.621 432.29 556.171 492.04C571.921 552.58 555.951 616.78 515.811 664.82C513.524 667.553 511.231 670.273 508.931 672.98ZM376.028 377.087C376.035 376.072 375.842 375.065 375.46 374.125C375.079 373.184 374.515 372.328 373.802 371.605C373.09 370.883 372.241 370.307 371.306 369.912C370.371 369.517 369.367 369.31 368.352 369.303L367.512 369.297C365.462 369.283 363.49 370.084 362.031 371.523C360.571 372.963 359.743 374.923 359.729 376.973L359.613 393.493C359.606 394.508 359.799 395.515 360.181 396.455C360.563 397.396 361.126 398.252 361.839 398.975C362.552 399.697 363.4 400.273 364.335 400.668C365.27 401.063 366.274 401.27 367.289 401.277L368.129 401.282C370.179 401.297 372.151 400.496 373.611 399.057C375.07 397.617 375.898 395.657 375.913 393.607L376.028 377.087ZM290.337 394.515C289.214 392.753 287.437 391.508 285.396 391.056C283.356 390.604 281.219 390.98 279.457 392.103L278.883 392.469C277.121 393.592 275.876 395.369 275.424 397.409C274.972 399.449 275.348 401.586 276.471 403.349L284.445 415.865C285.568 417.627 287.345 418.872 289.385 419.324C291.426 419.776 293.562 419.399 295.325 418.277L295.898 417.911C297.661 416.788 298.905 415.011 299.357 412.971C299.81 410.93 299.433 408.794 298.31 407.031L290.337 394.515ZM355.331 513.85C354.424 513.37 353.767 512.97 353.361 512.65C349.867 509.89 332.904 496.69 302.471 473.05C297.811 469.42 291.351 468.73 286.591 472.29C281.801 475.88 280.071 482.19 282.731 487.53C283.811 489.71 286.241 491.89 288.151 493.35C303.697 505.27 320.881 518.52 339.701 533.1C339.95 533.291 340.145 533.546 340.264 533.84C340.383 534.133 340.424 534.454 340.381 534.77C339.021 544.943 341.487 553.25 347.781 559.69C368.391 580.75 405.261 562.77 397.571 532.9C397.477 532.532 397.482 532.146 397.585 531.78C397.689 531.415 397.887 531.084 398.161 530.82C425.287 504.547 455.557 475.577 488.971 443.91C493.221 439.89 495.851 437.77 496.241 432.5C496.881 424.04 489.451 418.13 481.231 419.75C478.771 420.237 476.337 421.633 473.931 423.94C440.471 456.04 409.887 485.467 382.181 512.22C381.866 512.526 381.479 512.745 381.055 512.857C380.631 512.969 380.185 512.97 379.761 512.86C371.561 510.77 364.231 510.23 356.491 513.88C356.307 513.964 356.107 514.005 355.906 514C355.705 513.995 355.508 513.943 355.331 513.85ZM243.958 472.124C244.559 471.293 244.991 470.352 245.229 469.354C245.467 468.357 245.506 467.322 245.343 466.309C245.181 465.297 244.821 464.326 244.284 463.452C243.746 462.579 243.042 461.819 242.211 461.218L229.105 451.731C228.274 451.129 227.333 450.697 226.335 450.46C225.337 450.222 224.303 450.183 223.29 450.345C222.277 450.508 221.306 450.868 220.433 451.405C219.559 451.942 218.8 452.647 218.199 453.478L217.823 453.996C217.222 454.827 216.79 455.768 216.552 456.766C216.315 457.763 216.276 458.798 216.438 459.811C216.6 460.823 216.96 461.794 217.498 462.668C218.035 463.541 218.74 464.3 219.57 464.902L232.677 474.389C233.508 474.991 234.449 475.423 235.446 475.66C236.444 475.898 237.479 475.937 238.492 475.775C239.504 475.612 240.475 475.252 241.349 474.715C242.222 474.178 242.981 473.473 243.583 472.642L243.958 472.124ZM227.031 539.67C227.031 537.649 226.228 535.711 224.799 534.282C223.37 532.853 221.432 532.05 219.411 532.05H200.571C198.55 532.05 196.612 532.853 195.183 534.282C193.754 535.711 192.951 537.649 192.951 539.67V540.45C192.951 542.471 193.754 544.409 195.183 545.838C196.612 547.267 198.55 548.07 200.571 548.07H219.411C221.432 548.07 223.37 547.267 224.799 545.838C226.228 544.409 227.031 542.471 227.031 540.45V539.67ZM543.142 539.91C543.149 537.839 542.333 535.85 540.874 534.38C539.414 532.91 537.431 532.08 535.359 532.073L516.5 532.007C515.474 532.003 514.458 532.202 513.509 532.591C512.56 532.98 511.697 533.553 510.969 534.275C510.241 534.998 509.663 535.857 509.267 536.803C508.871 537.749 508.666 538.764 508.662 539.79L508.659 540.61C508.652 542.681 509.468 544.67 510.928 546.14C512.387 547.61 514.371 548.44 516.442 548.447L535.302 548.513C536.328 548.516 537.344 548.318 538.293 547.929C539.242 547.54 540.105 546.967 540.832 546.245C541.56 545.522 542.138 544.663 542.534 543.717C542.93 542.771 543.136 541.756 543.139 540.73L543.142 539.91ZM245.059 608.068C243.828 606.392 241.982 605.274 239.927 604.96C237.871 604.645 235.775 605.16 234.099 606.391L220.576 616.325C219.746 616.934 219.045 617.701 218.511 618.582C217.978 619.463 217.623 620.44 217.467 621.457C217.312 622.475 217.358 623.514 217.604 624.513C217.849 625.513 218.289 626.455 218.899 627.285L219.242 627.752C220.473 629.428 222.319 630.546 224.375 630.86C226.43 631.175 228.526 630.66 230.202 629.429L243.726 619.495C244.555 618.886 245.257 618.119 245.79 617.238C246.324 616.357 246.678 615.38 246.834 614.363C246.99 613.345 246.943 612.306 246.698 611.307C246.452 610.307 246.012 609.365 245.403 608.535L245.059 608.068ZM518.623 627.169C519.222 626.345 519.653 625.41 519.891 624.419C520.129 623.429 520.169 622.4 520.01 621.394C519.85 620.387 519.494 619.422 518.962 618.553C518.429 617.684 517.731 616.929 516.906 616.33L503.234 606.396C502.409 605.797 501.475 605.367 500.484 605.129C499.493 604.891 498.465 604.85 497.459 605.01C496.452 605.169 495.487 605.525 494.618 606.058C493.749 606.59 492.994 607.289 492.395 608.113L492.018 608.631C491.419 609.455 490.989 610.39 490.751 611.381C490.513 612.372 490.473 613.4 490.632 614.406C490.791 615.413 491.147 616.378 491.68 617.247C492.212 618.116 492.911 618.871 493.735 619.47L507.408 629.404C508.232 630.003 509.166 630.433 510.157 630.671C511.148 630.909 512.176 630.95 513.183 630.79C514.189 630.631 515.155 630.275 516.023 629.742C516.892 629.21 517.648 628.511 518.247 627.687L518.623 627.169ZM279.041 686.3C279.901 688.507 281.371 689.843 283.451 690.31C288.481 692.13 291.641 689.95 294.111 685.42C296.051 681.867 298.034 678.377 300.061 674.95C306.451 664.12 292.071 656.56 285.681 667C284.594 668.773 282.367 672.777 279.001 679.01C277.874 681.097 277.887 683.527 279.041 686.3ZM450.434 665.579C449.895 664.699 449.188 663.933 448.353 663.327C447.518 662.72 446.571 662.284 445.567 662.043C444.564 661.802 443.522 661.761 442.503 661.922C441.484 662.084 440.506 662.445 439.626 662.984L439.046 663.339C438.166 663.878 437.401 664.586 436.794 665.421C436.187 666.256 435.751 667.202 435.51 668.206C435.269 669.21 435.228 670.251 435.39 671.27C435.551 672.29 435.912 673.268 436.451 674.148L444.487 687.261C445.026 688.141 445.734 688.907 446.569 689.513C447.404 690.12 448.35 690.556 449.354 690.797C450.358 691.038 451.399 691.079 452.418 690.918C453.438 690.756 454.416 690.396 455.296 689.856L455.876 689.501C456.756 688.962 457.521 688.254 458.128 687.419C458.734 686.584 459.171 685.638 459.412 684.634C459.652 683.63 459.693 682.589 459.532 681.57C459.37 680.55 459.01 679.572 458.47 678.692L450.434 665.579ZM377.137 688.614C377.139 687.595 376.94 686.586 376.551 685.644C376.163 684.701 375.593 683.845 374.874 683.123C374.154 682.401 373.3 681.828 372.359 681.437C371.418 681.045 370.41 680.842 369.391 680.841L368.571 680.839C367.551 680.837 366.542 681.036 365.6 681.425C364.658 681.813 363.801 682.383 363.079 683.103C362.358 683.822 361.784 684.676 361.393 685.617C361.001 686.558 360.799 687.567 360.797 688.586L360.765 707.166C360.763 708.185 360.962 709.194 361.35 710.136C361.738 711.079 362.308 711.935 363.028 712.657C363.747 713.379 364.602 713.952 365.542 714.343C366.483 714.735 367.492 714.938 368.511 714.939L369.331 714.941C370.35 714.942 371.359 714.744 372.302 714.355C373.244 713.967 374.1 713.397 374.822 712.677C375.544 711.958 376.117 711.104 376.509 710.163C376.9 709.222 377.103 708.213 377.105 707.194L377.137 688.614Z" fill="#C6F0FF"/>
<path d="M368.351 369.303L367.511 369.297C363.242 369.268 359.757 372.704 359.727 376.973L359.612 393.493C359.582 397.762 363.019 401.247 367.288 401.277L368.128 401.283C372.397 401.312 375.882 397.876 375.912 393.607L376.027 377.087C376.057 372.818 372.62 369.333 368.351 369.303Z" fill="#2792D9"/>
<path d="M279.456 392.103L278.882 392.469C275.212 394.807 274.132 399.678 276.47 403.349L284.444 415.865C286.782 419.535 291.653 420.615 295.324 418.277L295.897 417.911C299.568 415.573 300.647 410.702 298.309 407.031L290.336 394.515C287.997 390.845 283.126 389.765 279.456 392.103Z" fill="#2792D9"/>
<path d="M844.271 393.65C844.204 464.41 844.117 535.193 844.011 606C844.011 608.867 843.991 610.98 843.951 612.34C843.591 624.91 838.581 635.47 828.711 643.46C820.311 650.26 810.561 652.48 800.001 652.48C701.014 652.547 626.931 652.537 577.751 652.45C572.104 652.437 566.881 651.94 562.081 650.96C561.985 650.941 561.895 650.899 561.818 650.839C561.741 650.778 561.679 650.7 561.637 650.611C561.596 650.522 561.575 650.424 561.578 650.325C561.58 650.226 561.605 650.128 561.651 650.04C567.721 638.32 571.121 632.58 574.961 623.06C589.371 587.26 595.421 548.38 589.591 510.22C586.957 493.013 582.544 476.357 576.351 460.25C570.741 445.68 562.931 431.45 554.261 418.24C549.814 411.473 545.107 404.913 540.141 398.56C543.521 394.19 547.791 393.79 553.251 393.7C563.664 393.533 574.081 393.45 584.501 393.45C670.614 393.457 757.204 393.523 844.271 393.65ZM687.163 447.841C687.167 445.035 686.057 442.342 684.077 440.355C682.096 438.367 679.407 437.248 676.601 437.243L627.621 437.157C624.815 437.152 622.122 438.262 620.134 440.243C618.147 442.224 617.027 444.913 617.023 447.719L616.939 495.759C616.934 498.565 618.044 501.258 620.024 503.245C622.005 505.233 624.694 506.352 627.5 506.357L676.48 506.443C679.286 506.448 681.979 505.338 683.967 503.357C685.954 501.376 687.074 498.687 687.079 495.881L687.163 447.841ZM796.029 447.879C796.027 446.476 795.748 445.088 795.209 443.793C794.67 442.498 793.881 441.322 792.888 440.332C791.894 439.342 790.716 438.557 789.419 438.023C788.122 437.489 786.733 437.215 785.33 437.217L736.25 437.303C733.418 437.308 730.703 438.438 728.704 440.444C726.705 442.451 725.584 445.169 725.589 448.001L725.672 495.541C725.675 496.944 725.953 498.332 726.492 499.627C727.031 500.922 727.82 502.098 728.813 503.088C729.807 504.078 730.986 504.863 732.282 505.397C733.579 505.931 734.968 506.205 736.371 506.203L785.451 506.117C788.283 506.112 790.998 504.982 792.997 502.976C794.997 500.969 796.117 498.251 796.112 495.418L796.029 447.879ZM687.119 551.779C687.114 548.991 686.002 546.32 684.028 544.353C682.053 542.385 679.378 541.282 676.591 541.287L627.471 541.373C626.091 541.375 624.724 541.65 623.45 542.18C622.176 542.71 621.019 543.487 620.044 544.464C619.07 545.442 618.298 546.602 617.772 547.878C617.246 549.154 616.977 550.521 616.979 551.901L617.062 599.581C617.067 602.369 618.179 605.04 620.154 607.007C622.128 608.975 624.803 610.078 627.591 610.073L676.711 609.987C678.091 609.985 679.457 609.71 680.731 609.18C682.005 608.65 683.163 607.874 684.137 606.896C685.111 605.918 685.883 604.758 686.409 603.482C686.935 602.206 687.205 600.839 687.202 599.459L687.119 551.779ZM796.071 551.66C796.071 548.915 794.98 546.282 793.039 544.341C791.098 542.4 788.466 541.31 785.721 541.31H735.941C733.196 541.31 730.563 542.4 728.622 544.341C726.681 546.282 725.591 548.915 725.591 551.66V599.68C725.591 601.039 725.858 602.385 726.378 603.641C726.899 604.896 727.661 606.037 728.622 606.999C729.583 607.96 730.724 608.722 731.98 609.242C733.236 609.762 734.581 610.03 735.941 610.03H785.721C787.08 610.03 788.426 609.762 789.681 609.242C790.937 608.722 792.078 607.96 793.039 606.999C794 606.037 794.763 604.896 795.283 603.641C795.803 602.385 796.071 601.039 796.071 599.68V551.66Z" fill="#98E0FF"/>
<path d="M355.329 513.85C355.507 513.943 355.703 513.995 355.905 514C356.106 514.005 356.306 513.964 356.489 513.88C364.229 510.23 371.559 510.77 379.759 512.86C380.183 512.97 380.629 512.969 381.053 512.857C381.477 512.745 381.865 512.526 382.179 512.22C409.886 485.467 440.469 456.04 473.929 423.94C476.336 421.633 478.769 420.237 481.229 419.75C489.449 418.13 496.879 424.04 496.239 432.5C495.849 437.77 493.219 439.89 488.969 443.91C455.556 475.577 425.286 504.547 398.159 530.82C397.886 531.084 397.687 531.415 397.584 531.78C397.48 532.146 397.475 532.532 397.569 532.9C405.259 562.77 368.389 580.75 347.779 559.69C341.486 553.25 339.019 544.943 340.379 534.77C340.422 534.454 340.382 534.133 340.262 533.84C340.143 533.546 339.949 533.291 339.699 533.1C320.879 518.52 303.696 505.27 288.149 493.35C286.239 491.89 283.809 489.71 282.729 487.53C280.069 482.19 281.799 475.88 286.589 472.29C291.349 468.73 297.809 469.42 302.469 473.05C332.902 496.69 349.866 509.89 353.359 512.65C353.766 512.97 354.422 513.37 355.329 513.85ZM375.791 538.142C375.579 537.341 375.205 536.591 374.691 535.935C374.176 535.279 373.53 534.73 372.791 534.319C372.051 533.909 371.232 533.644 370.381 533.541C369.529 533.438 368.661 533.499 367.827 533.719C366.993 533.94 366.209 534.316 365.519 534.826C364.829 535.336 364.248 535.971 363.808 536.693C363.368 537.415 363.077 538.211 362.954 539.036C362.83 539.86 362.875 540.697 363.087 541.498C363.299 542.299 363.673 543.049 364.187 543.705C364.702 544.361 365.348 544.91 366.087 545.321C366.827 545.731 367.646 545.996 368.497 546.099C369.349 546.202 370.217 546.141 371.051 545.921C371.885 545.7 372.669 545.324 373.359 544.814C374.049 544.304 374.63 543.669 375.07 542.947C375.511 542.225 375.801 541.429 375.924 540.604C376.048 539.78 376.003 538.943 375.791 538.142Z" fill="#1978C5"/>
<path d="M676.601 437.243L627.621 437.157C621.778 437.147 617.033 441.876 617.023 447.719L616.939 495.759C616.929 501.602 621.657 506.347 627.5 506.357L676.48 506.443C682.323 506.453 687.068 501.724 687.079 495.881L687.162 447.841C687.173 441.998 682.444 437.253 676.601 437.243Z" fill="#2792D9"/>
<path d="M785.33 437.217L736.25 437.303C730.352 437.313 725.579 442.103 725.589 448.002L725.672 495.541C725.682 501.44 730.472 506.213 736.371 506.203L785.45 506.117C791.349 506.107 796.122 501.317 796.112 495.419L796.029 447.879C796.019 441.98 791.229 437.207 785.33 437.217Z" fill="#2792D9"/>
<path d="M242.21 461.218L229.104 451.731C225.61 449.201 220.727 449.983 218.198 453.477L217.822 453.996C215.293 457.49 216.075 462.373 219.569 464.902L232.676 474.389C236.17 476.919 241.053 476.136 243.582 472.642L243.957 472.124C246.486 468.63 245.704 463.747 242.21 461.218Z" fill="#2792D9"/>
<path d="M219.409 532.05H200.569C196.361 532.05 192.949 535.462 192.949 539.67V540.45C192.949 544.658 196.361 548.07 200.569 548.07H219.409C223.618 548.07 227.029 544.658 227.029 540.45V539.67C227.029 535.462 223.618 532.05 219.409 532.05Z" fill="#2792D9"/>
<path d="M535.359 532.073L516.499 532.007C512.186 531.992 508.677 535.476 508.662 539.79L508.659 540.61C508.644 544.923 512.129 548.432 516.442 548.447L535.302 548.513C539.615 548.528 543.124 545.043 543.139 540.73L543.142 539.91C543.157 535.597 539.673 532.088 535.359 532.073Z" fill="#2792D9"/>
<path d="M371.052 545.921C374.56 544.994 376.683 541.511 375.792 538.142C374.902 534.772 371.337 532.792 367.829 533.719C364.32 534.646 362.198 538.129 363.088 541.498C363.979 544.868 367.544 546.848 371.052 545.921Z" fill="#C6F0FF"/>
<path d="M676.591 541.287L627.471 541.373C621.666 541.383 616.969 546.097 616.979 551.901L617.062 599.581C617.073 605.386 621.786 610.083 627.591 610.073L676.711 609.987C682.515 609.977 687.213 605.263 687.202 599.459L687.119 551.779C687.109 545.974 682.395 541.277 676.591 541.287Z" fill="#2792D9"/>
<path d="M785.72 541.31H735.94C730.224 541.31 725.59 545.944 725.59 551.66V599.68C725.59 605.396 730.224 610.03 735.94 610.03H785.72C791.436 610.03 796.07 605.396 796.07 599.68V551.66C796.07 545.944 791.436 541.31 785.72 541.31Z" fill="#2792D9"/>
<path d="M234.098 606.391L220.574 616.325C217.085 618.888 216.334 623.795 218.897 627.285L219.241 627.752C221.804 631.242 226.711 631.993 230.2 629.429L243.724 619.495C247.214 616.932 247.964 612.025 245.401 608.535L245.058 608.068C242.494 604.578 237.587 603.827 234.098 606.391Z" fill="#2792D9"/>
<path d="M516.905 616.33L503.233 606.396C499.766 603.877 494.913 604.646 492.394 608.113L492.018 608.631C489.499 612.098 490.267 616.951 493.734 619.47L507.407 629.404C510.874 631.923 515.727 631.154 518.246 627.687L518.622 627.169C521.141 623.702 520.373 618.849 516.905 616.33Z" fill="#2792D9"/>
<path d="M283.449 690.31C286.049 690.377 288.199 689.957 289.899 689.05C291.433 688.23 292.809 686.563 294.029 684.05C296.809 678.31 305.849 668.28 296.669 663.5C291.929 661.03 287.539 665.3 285.369 669.13C284.596 670.477 282.893 673.76 280.259 678.98C279.333 680.82 279.019 682.24 279.319 683.24C279.793 684.813 279.699 685.833 279.039 686.3C277.886 683.527 277.873 681.097 278.999 679.01C282.366 672.777 284.593 668.773 285.679 667C292.069 656.56 306.449 664.12 300.059 674.95C298.033 678.377 296.049 681.867 294.109 685.42C291.639 689.95 288.479 692.13 283.449 690.31Z" fill="#1978C5"/>
<path d="M439.625 662.984L439.046 663.339C435.344 665.607 434.182 670.446 436.451 674.148L444.487 687.261C446.755 690.963 451.594 692.124 455.295 689.856L455.875 689.501C459.576 687.233 460.738 682.394 458.47 678.692L450.434 665.579C448.166 661.877 443.327 660.716 439.625 662.984Z" fill="#2792D9"/>
<path d="M283.449 690.31C281.369 689.843 279.899 688.507 279.039 686.3C279.699 685.833 279.792 684.813 279.319 683.24C279.019 682.24 279.332 680.82 280.259 678.98C282.892 673.76 284.596 670.477 285.369 669.13C287.539 665.3 291.929 661.03 296.669 663.5C305.849 668.28 296.809 678.31 294.029 684.05C292.809 686.563 291.432 688.23 289.899 689.05C288.199 689.957 286.049 690.377 283.449 690.31Z" fill="#2792D9"/>
<path d="M508.929 672.98C509.069 673.06 509.179 673.157 509.259 673.27C509.313 673.346 509.34 673.438 509.337 673.531C509.333 673.623 509.299 673.711 509.239 673.78C505.946 677.593 502.322 680.893 498.369 683.68L508.929 672.98Z" fill="#1978C5"/>
<path d="M369.391 680.841L368.571 680.839C364.285 680.832 360.804 684.3 360.797 688.586L360.765 707.166C360.757 711.451 364.225 714.932 368.511 714.939L369.331 714.941C373.617 714.948 377.097 711.48 377.105 707.194L377.137 688.614C377.144 684.329 373.676 680.848 369.391 680.841Z" fill="#2792D9"/>
</svg>
