<svg width="1024" height="1024" viewBox="0 0 1024 1024" fill="none" xmlns="http://www.w3.org/2000/svg">
<path d="M645.1 162.92C627.58 169.96 611.96 177.97 597.07 189.62C586.41 197.96 575.983 206.617 565.79 215.59" stroke="#48BDF2" stroke-width="2"/>
<path d="M465.47 419.98C459.23 424.667 452.944 429.283 446.61 433.83C435.15 442.05 420.66 450.65 408.35 459.29C402.19 463.61 395.707 466.923 388.9 469.23" stroke="#3CAFEA" stroke-width="2"/>
<path d="M360.52 664C347.44 668.7 335.257 675.513 323.97 684.44C307.79 697.24 279.43 718.67 258.27 736.39C243.32 748.91 231.68 757.11 214.26 770.57C200.787 780.983 187.233 793.377 173.6 807.75C169.493 812.077 163.863 816.897 156.71 822.21" stroke="#2B99DE" stroke-width="2"/>
<path d="M794.46 641.48C788.48 649.2 779.12 655.56 773.81 660.02C764.5 667.83 755.35 677.87 747.84 685.06C737.18 695.28 726.37 704.43 714.88 713.02C697.293 726.16 679.17 738.617 660.51 750.39" stroke="#1C83D1" stroke-width="2"/>
<path d="M347.15 884.32C359.31 878.95 369.9 871.01 379.31 861.84C396.184 845.387 410.907 831.007 423.48 818.7C426.907 815.347 430.44 812.047 434.08 808.8C443.18 800.71 454.04 792.56 461.83 786.2C471.224 778.533 478.797 769.777 484.55 759.93C487.864 754.263 491.12 747.927 494.32 740.92C497.73 733.43 500.86 727.06 497.74 719.69" stroke="#1C83D1" stroke-width="2"/>
<path d="M645.1 162.92C627.58 169.96 611.96 177.97 597.07 189.62C586.41 197.96 575.983 206.617 565.79 215.59C556.87 197.35 542.166 189.447 521.68 191.88C521.634 191.886 521.589 191.882 521.545 191.868C521.501 191.855 521.461 191.832 521.427 191.802C521.393 191.771 521.366 191.734 521.347 191.693C521.329 191.651 521.319 191.606 521.32 191.56C521.3 170.28 521.253 147.593 521.18 123.5C521.16 118.7 520.96 114.27 527.24 114.12C533.573 113.967 539.41 114.417 544.75 115.47C560.236 118.537 575.56 122.893 590.72 128.54C610.313 135.833 628.44 147.293 645.1 162.92Z" fill="#4CC3F5"/>
<path d="M377.53 302.78C377.52 302.929 377.455 303.069 377.347 303.171C377.239 303.273 377.097 303.33 376.95 303.33C353.237 303.283 333.76 303.28 318.52 303.32C313.8 303.33 313.07 300.39 313.07 296.13C313.06 282.51 316.05 269.78 319.15 256.23C321.68 245.15 324.32 237.2 328.65 227.98C335.51 213.42 342.78 200.69 352.55 189.05C354.264 187.01 358.014 182.753 363.8 176.28C377.32 161.167 393.234 148.503 411.54 138.29C416.747 135.383 423.89 131.947 432.97 127.98C440.477 124.707 447.82 122.23 455 120.55C467.26 117.683 477.42 115.647 485.48 114.44C487.207 114.18 491.53 114.14 498.45 114.32C498.85 114.333 499.24 114.45 499.58 114.66C501.64 115.933 502.67 117.577 502.67 119.59C502.677 145.93 502.677 173.983 502.67 203.75C502.67 206.177 502.86 207.917 503.24 208.97C505.46 215.18 511.56 216.7 517.19 213.94C525.04 210.09 532.58 209.02 540.14 214.12C553.57 223.19 552.52 243.05 537.79 250.28C535.897 251.207 534.467 251.677 533.5 251.69C529.5 251.75 524.96 252.08 521.08 250.91C516.84 249.64 513 248.38 509.27 249.48C504.924 250.767 502.75 253.87 502.75 258.79C502.75 273.597 502.75 287.25 502.75 299.75C502.75 303.45 499.71 303.36 497 303.35C487.507 303.317 474.677 303.32 458.51 303.36C458.358 303.36 458.207 303.33 458.067 303.27C457.927 303.211 457.8 303.125 457.693 303.016C457.587 302.907 457.504 302.777 457.448 302.636C457.393 302.494 457.366 302.342 457.37 302.19C457.457 298.523 457.344 294.72 457.03 290.78C456.1 279.15 444.6 265.37 433.67 261.25C429.07 259.517 424.794 258.423 420.84 257.97C417.167 257.543 412.814 257.933 407.78 259.14C394.587 262.293 385.204 270.453 379.63 283.62C376.92 290.03 377.99 296.04 377.53 302.78Z" fill="#4CC3F5"/>
<path d="M645.1 162.92C656.393 174.067 665.01 183.37 670.95 190.83C685.623 209.283 696.84 231.19 704.6 256.55C708.12 268.04 709.51 280.91 710.65 291.53C710.73 292.27 710.727 294.653 710.64 298.68C710.51 304.15 703.13 303.31 698.5 303.31C678.267 303.337 657.433 303.3 636 303.2C633.54 303.187 631.163 303.327 628.87 303.62C628.361 303.686 627.866 303.845 627.41 304.09C620.62 307.79 622.43 314.41 624.53 320.37C627.67 329.33 626.53 337.73 619.2 344.18C613.84 348.89 605.69 350.15 598.94 347.85C596.087 346.87 593.447 345.053 591.02 342.4C585.773 336.653 584.373 329.703 586.82 321.55C588.62 315.53 592.06 308.41 585.08 304.47C583.687 303.683 580.733 303.293 576.22 303.3C558.907 303.32 543.08 303.34 528.74 303.36C523.8 303.37 521.28 303.75 521.25 298.18C521.197 288.747 521.197 279.78 521.25 271.28C521.25 271.185 521.271 271.091 521.311 271.005C521.351 270.919 521.409 270.843 521.481 270.781C521.553 270.719 521.638 270.674 521.729 270.648C521.82 270.622 521.916 270.616 522.01 270.63C531.983 272.163 540.813 270.693 548.5 266.22C556.66 261.473 562.533 254.687 566.12 245.86C569.927 236.48 569.817 226.39 565.79 215.59C575.983 206.617 586.41 197.96 597.07 189.62C611.96 177.97 627.58 169.96 645.1 162.92Z" fill="#43B7EE"/>
<path d="M465.47 419.98C459.23 424.667 452.944 429.283 446.61 433.83C435.15 442.05 420.66 450.65 408.35 459.29C402.19 463.61 395.707 466.923 388.9 469.23C375.834 458.563 363.987 446.613 353.36 433.38C345.534 423.627 339.104 413.897 334.07 404.19C330.604 397.503 326.827 388.617 322.74 377.53C317.84 364.243 314.734 350.62 313.42 336.66C312.927 331.487 312.88 327.857 313.28 325.77C313.767 323.237 315.427 321.967 318.26 321.96C342.16 321.92 366.574 321.933 391.5 322C394.51 322.01 397.77 321.04 399.54 318.33C403.36 312.51 398.63 306.96 397.62 300.86C396.294 292.88 398.514 286.473 404.28 281.64C410.31 276.59 418.83 275.78 425.89 278.87C434.99 282.85 439.75 293.49 436.84 302.88C435.334 307.727 434.454 310.9 434.2 312.4C434.121 312.871 434.111 313.353 434.17 313.83C434.844 319.13 438.14 321.827 444.06 321.92C451.154 322.027 469.05 322.047 497.75 321.98C499.11 321.973 500.374 322.177 501.54 322.59C501.856 322.706 502.116 322.931 502.27 323.22C502.61 323.867 502.784 324.877 502.79 326.25C502.824 337.477 502.794 346.763 502.7 354.11C502.699 354.213 502.677 354.315 502.635 354.41C502.593 354.504 502.533 354.589 502.457 354.659C502.381 354.73 502.292 354.784 502.194 354.818C502.097 354.853 501.993 354.867 501.89 354.86C497.67 354.62 494.3 354.62 491.78 354.86C478.19 356.16 466.7 364.9 460.61 377.14C453.52 391.41 455.6 407.47 465.47 419.98Z" fill="#43B7EE"/>
<path d="M565.41 321.95C565.47 321.95 565.53 321.962 565.585 321.986C565.64 322.01 565.69 322.044 565.732 322.088C565.774 322.132 565.807 322.184 565.829 322.241C565.851 322.298 565.862 322.359 565.86 322.42C565.68 327.4 565.25 333.03 566.51 338.11C570.71 355.02 585.63 367.75 603.23 368.33C613.77 368.68 622.55 366.33 630.83 359.86C642.27 350.913 647.387 338.527 646.18 322.7C646.173 322.611 646.185 322.521 646.215 322.436C646.244 322.351 646.291 322.273 646.352 322.208C646.413 322.142 646.487 322.09 646.569 322.054C646.652 322.018 646.741 322 646.83 322C669.95 321.88 689.684 321.913 706.03 322.1C708.797 322.127 710.28 323.423 710.48 325.99C710.95 331.94 710.26 335.78 709.44 345.24C708.98 350.48 707.59 357.327 705.27 365.78C702.597 375.48 698.934 385.55 694.28 395.99C690.034 405.53 684.71 414.807 678.31 423.82C664.257 443.613 647.677 460.687 628.57 475.04C625.81 477.12 622.447 479.347 618.48 481.72C611.647 485.82 603.66 490.077 594.52 494.49C582.027 500.523 570.09 504.663 558.71 506.91C548.244 508.983 540.344 510.527 535.01 511.54C534.364 511.667 532.024 511.73 527.99 511.73C523.46 511.73 521.22 509.74 521.23 505.26C521.33 455.413 521.33 426.917 521.23 419.77C521.15 414.083 518.44 410.787 513.1 409.88C512.611 409.801 512.113 409.814 511.63 409.92C510.644 410.127 507.877 411.17 503.33 413.05C482.97 421.46 466.36 397.29 479.93 380.97C486.18 373.46 495.88 371.84 505.34 375.53C507.28 376.29 508.817 376.807 509.95 377.08C517.37 378.88 521.31 372.41 521.28 365.99C521.2 346.783 521.2 333.463 521.28 326.03C521.314 323.33 522.547 321.98 524.98 321.98C541.794 321.973 555.27 321.963 565.41 321.95Z" fill="#35A6E5"/>
<path d="M388.9 469.23C395.707 466.923 402.19 463.61 408.35 459.29C420.66 450.65 435.15 442.05 446.61 433.83C452.944 429.283 459.23 424.667 465.47 419.98C472.877 428.507 482.26 433.217 493.62 434.11C496.46 434.33 499.164 434.047 501.73 433.26C501.844 433.224 501.964 433.215 502.082 433.234C502.2 433.253 502.311 433.3 502.407 433.37C502.504 433.44 502.582 433.532 502.637 433.638C502.691 433.744 502.72 433.861 502.72 433.98C502.76 466.047 502.754 489.633 502.7 504.74C502.69 507.43 501.91 509.79 499.78 511.15C499.459 511.354 499.091 511.474 498.71 511.5C494.317 511.8 491.257 511.84 489.53 511.62C473.19 509.52 457.617 505.657 442.81 500.03C437.284 497.93 432.147 495.563 427.4 492.93C420.97 489.37 414.31 486.72 407.38 482.35C401 478.323 394.84 473.95 388.9 469.23Z" fill="#35A6E5"/>
<path d="M834.408 541.722C832.552 499.209 797.434 466.213 755.969 468.023C714.504 469.834 682.395 505.765 684.251 548.278C686.108 590.791 721.226 623.787 762.691 621.977C804.155 620.166 836.265 584.235 834.408 541.722Z" fill="#208BD6"/>
<path d="M339.528 539.537C336.41 497.082 300.273 465.132 258.815 468.177C217.356 471.222 186.274 508.107 189.392 550.563C192.51 593.018 228.646 624.968 270.105 621.923C311.564 618.878 342.645 581.993 339.528 539.537Z" fill="#35A6E5"/>
<path d="M590.39 617.597C590.546 572.857 555.147 536.463 511.323 536.311C467.5 536.158 431.847 572.303 431.691 617.043C431.535 661.783 466.934 698.177 510.758 698.33C554.581 698.483 590.234 662.337 590.39 617.597Z" fill="#208BD6"/>
<path d="M360.52 664C347.44 668.7 335.256 675.513 323.97 684.44C307.79 697.24 279.43 718.67 258.27 736.39C243.32 748.91 231.68 757.11 214.26 770.57C200.786 780.983 187.233 793.377 173.6 807.75C169.493 812.077 163.863 816.897 156.71 822.21C149.61 820.903 142.603 819.277 135.69 817.33C124.42 814.15 115.6 807.06 115.4 794.52C115.28 787.247 115.236 776.49 115.27 762.25C115.33 734.18 124.75 707.57 142.91 686.3C152.9 674.61 167.56 664.43 181.42 656.43C186.71 653.37 192.37 651.58 198.14 649.49C206.246 646.563 213.606 644.377 220.22 642.93C224.22 642.06 228.99 641.31 233.78 641.29C250.986 641.217 270.163 641.203 291.31 641.25C296.003 641.257 300.433 641.673 304.6 642.5C311.533 643.867 318.27 645.613 324.81 647.74C339.6 652.54 349.54 655.96 360.52 664Z" fill="#35A6E5"/>
<path d="M794.46 641.48C788.48 649.2 779.12 655.56 773.81 660.02C764.5 667.83 755.35 677.87 747.84 685.06C737.18 695.28 726.37 704.43 714.88 713.02C697.294 726.16 679.17 738.617 660.51 750.39C657.5 747.2 654.43 743.51 651.59 740.75C641.99 731.417 631.334 723.33 619.62 716.49C619.359 716.335 619.166 716.088 619.079 715.797C618.992 715.506 619.018 715.193 619.15 714.92C628.484 695.667 641.854 679.693 659.26 667C669.34 659.647 678.874 654.263 687.86 650.85C697.3 647.263 707.19 644.487 717.53 642.52C721.57 641.747 726.254 641.343 731.58 641.31C752.434 641.177 773.394 641.233 794.46 641.48Z" fill="#208BD6"/>
<path d="M660.51 750.39C679.17 738.617 697.293 726.16 714.88 713.02C726.37 704.43 737.18 695.28 747.84 685.06C755.35 677.87 764.5 667.83 773.81 660.02C779.12 655.56 788.48 649.2 794.46 641.48C796.153 641.9 797.92 642.243 799.76 642.51C801.953 642.823 803.713 643.133 805.04 643.44C816.573 646.067 827.203 649.527 836.93 653.82C840.123 655.233 845.88 658.65 854.2 664.07C879.45 680.54 899.3 708.42 906.14 737.59C907.133 741.83 907.796 747.153 908.13 753.56C908.53 761.28 908.66 772.26 908.52 786.5C908.47 791.75 908.78 797.46 906.94 802.03C903.71 810.02 895.11 815.29 887.12 817.35C877.07 819.96 871.1 820.75 862.29 823.39C860.21 824.01 856.873 824.703 852.28 825.47C827.573 829.59 806.226 831.957 788.24 832.57C782.533 832.763 767.91 832.827 744.37 832.76C738.763 832.747 733.026 832.503 727.16 832.03C714.73 831.03 707.05 830.66 698 828.52C697.696 828.45 697.417 828.297 697.195 828.076C696.972 827.855 696.815 827.576 696.74 827.27C695.11 820.68 694.32 816.56 692.56 811.61C690.12 804.75 688.32 797.58 685.37 790.66C679.096 775.973 670.81 762.55 660.51 750.39Z" fill="#187ACB"/>
<path d="M360.52 664C368.067 669.28 373.19 673.237 375.89 675.87C384.53 684.277 392.243 693.98 399.03 704.98C400.897 708.007 402.67 711.44 404.35 715.28C404.428 715.464 404.437 715.669 404.374 715.856C404.311 716.043 404.181 716.198 404.01 716.29C392.703 722.503 382.237 730.03 372.61 738.87C357.39 752.86 346.49 770.68 337.72 789.46C335.433 794.353 333.537 799.527 332.03 804.98C330.097 811.973 327.98 818.707 325.68 825.18C325.153 826.653 324.743 827.57 324.45 827.93C324.223 828.222 323.911 828.436 323.56 828.54C321.933 829.013 320.28 829.367 318.6 829.6C310.407 830.733 303.87 831.403 298.99 831.61C292.47 831.88 287.68 832.64 281.66 832.7C265.393 832.847 250.637 832.853 237.39 832.72C231.983 832.667 228.067 832.517 225.64 832.27C220.24 831.71 215.48 831.85 209.98 831.19C190.91 828.91 174.1 826.93 156.71 822.21C163.863 816.897 169.493 812.077 173.6 807.75C187.233 793.377 200.787 780.983 214.26 770.57C231.68 757.11 243.32 748.91 258.27 736.39C279.43 718.67 307.79 697.24 323.97 684.44C335.257 675.513 347.44 668.7 360.52 664Z" fill="#208BD6"/>
<path d="M347.15 884.32C359.31 878.95 369.9 871.01 379.31 861.84C396.184 845.387 410.907 831.007 423.48 818.7C426.907 815.347 430.44 812.047 434.08 808.8C443.18 800.71 454.04 792.56 461.83 786.2C471.224 778.533 478.797 769.777 484.55 759.93C487.864 754.263 491.12 747.927 494.32 740.92C497.73 733.43 500.86 727.06 497.74 719.69C510.307 719.597 522.844 719.583 535.35 719.65C540.177 719.677 543.777 719.79 546.15 719.99C551.05 720.41 555.42 720.23 560.49 721.14C574.33 723.62 587.82 727.84 601.53 732.99C606.12 734.72 610.8 736.92 615.21 739.81C644.9 759.24 666.12 789.45 673.47 824.12C674.904 830.893 675.737 838.96 675.97 848.32C676.104 853.66 676.187 861.797 676.22 872.73C676.247 881.737 675.88 887.377 675.12 889.65C671.62 900.02 661.8 904.59 651.54 907.29C623.4 914.69 593.85 920.6 564.41 923.22C560.664 923.553 556.887 923.797 553.08 923.95C547.76 924.15 543.83 924.73 537.96 924.8C511.167 925.14 494.51 925.113 487.99 924.72C476.96 924.04 468.75 923.77 459.03 922.75C443.984 921.177 429.544 919.24 415.71 916.94C402.35 914.72 386.69 910.62 372.69 907.34C367.304 906.08 362.417 904.113 358.03 901.44C351.337 897.367 347.71 891.66 347.15 884.32Z" fill="#187ACB"/>
<path d="M497.74 719.69C500.86 727.06 497.73 733.43 494.32 740.92C491.12 747.927 487.864 754.263 484.55 759.93C478.797 769.777 471.224 778.533 461.83 786.2C454.04 792.56 443.18 800.71 434.08 808.8C430.44 812.047 426.907 815.347 423.48 818.7C410.907 831.007 396.184 845.387 379.31 861.84C369.9 871.01 359.31 878.95 347.15 884.32C346.237 865.847 346.357 849.743 347.51 836.01C348.63 822.757 352.387 809.17 358.78 795.25C368.527 774.037 382.977 756.667 402.13 743.14C405.064 741.067 407.647 739.567 409.88 738.64C419.94 734.47 429.58 729.74 439.12 726.84C449.92 723.553 459.32 721.473 467.32 720.6C475.534 719.707 485.674 719.403 497.74 719.69Z" fill="#208BD6"/>
</svg>
