<svg width="1024" height="1024" viewBox="0 0 1024 1024" fill="none" xmlns="http://www.w3.org/2000/svg">
<path d="M256.67 362.77L316.62 423.71C316.759 423.852 316.946 423.936 317.142 423.945C317.339 423.954 317.531 423.888 317.68 423.76C328.1 414.94 339.743 408.057 352.61 403.11C364.523 398.53 376.606 395.763 388.86 394.81C388.988 394.8 389.108 394.742 389.195 394.647C389.282 394.553 389.33 394.429 389.33 394.3L389.58 310.49C389.58 310.396 389.561 310.303 389.524 310.216C389.486 310.13 389.432 310.052 389.364 309.987C389.295 309.923 389.214 309.873 389.126 309.841C389.038 309.808 388.944 309.795 388.85 309.8C381.37 310.18 373.753 310.91 366 311.99C324.526 317.777 288.096 334.413 256.71 361.9C256.648 361.953 256.598 362.019 256.562 362.092C256.527 362.165 256.506 362.245 256.503 362.326C256.499 362.408 256.512 362.489 256.54 362.565C256.569 362.642 256.613 362.711 256.67 362.77Z" stroke="#B1E6D8" stroke-width="2"/>
<path d="M271.969 512.55C272.069 508.823 272.519 504.66 273.319 500.06C277.253 477.347 286.519 457.24 301.119 439.74C301.215 439.624 301.264 439.477 301.257 439.327C301.25 439.177 301.186 439.035 301.079 438.93L241.309 378.16C241.253 378.104 241.186 378.059 241.113 378.03C241.039 378 240.961 377.986 240.882 377.988C240.803 377.99 240.726 378.008 240.655 378.041C240.584 378.074 240.521 378.121 240.469 378.18C228.743 391.507 218.826 405.687 210.719 420.72C208.873 424.133 206.163 429.783 202.589 437.67C200.439 442.41 198.299 448.88 196.849 453.07C190.323 471.983 186.696 491.733 185.969 512.32C185.965 512.412 185.98 512.503 186.012 512.589C186.045 512.675 186.094 512.754 186.158 512.82C186.221 512.887 186.298 512.939 186.382 512.975C186.467 513.011 186.558 513.03 186.649 513.03L271.219 513.28C271.415 513.28 271.603 513.204 271.743 513.067C271.883 512.931 271.964 512.745 271.969 512.55Z" stroke="#B1E6D8" stroke-width="2"/>
<path d="M819.929 590.17C819.929 589.926 819.832 589.692 819.659 589.519C819.487 589.347 819.253 589.25 819.009 589.25H475.729C475.485 589.25 475.251 589.347 475.078 589.519C474.906 589.692 474.809 589.926 474.809 590.17V618.39C474.809 618.634 474.906 618.868 475.078 619.041C475.251 619.213 475.485 619.31 475.729 619.31H819.009C819.253 619.31 819.487 619.213 819.659 619.041C819.832 618.868 819.929 618.634 819.929 618.39V590.17Z" stroke="#B1E6D8" stroke-width="2"/>
<path d="M728.848 697.636C727.091 697.307 725.285 697.334 723.534 697.714C721.783 698.095 720.121 698.822 718.642 699.853C717.163 700.885 715.897 702.201 714.915 703.727C713.934 705.253 713.257 706.959 712.922 708.746C712.588 710.534 712.602 712.369 712.965 714.147C713.329 715.924 714.033 717.609 715.039 719.106C716.045 720.603 717.332 721.881 718.827 722.869C720.322 723.857 721.995 724.535 723.752 724.864C725.509 725.192 727.314 725.166 729.066 724.785C730.817 724.405 732.479 723.678 733.958 722.647C735.437 721.615 736.703 720.299 737.684 718.773C738.666 717.247 739.343 715.541 739.678 713.754C740.012 711.966 739.998 710.131 739.634 708.353C739.271 706.576 738.567 704.891 737.561 703.394C736.555 701.897 735.268 700.618 733.773 699.631C732.278 698.643 730.604 697.965 728.848 697.636Z" stroke="#B1E6D8" stroke-width="2"/>
<path d="M759.549 724.93C761.742 725.023 764.045 724.687 766.459 723.92C773.289 721.76 776.549 713.68 774.109 707.06C771.715 700.573 766.842 697.863 759.489 698.93C759.419 698.939 759.353 698.964 759.295 699.002C759.237 699.04 759.187 699.091 759.151 699.152C759.115 699.212 759.092 699.28 759.085 699.351C759.077 699.421 759.085 699.493 759.109 699.56C762.062 708.08 762.059 716.31 759.099 724.25C759.072 724.326 759.063 724.406 759.072 724.486C759.081 724.565 759.109 724.641 759.153 724.708C759.197 724.774 759.256 724.829 759.324 724.867C759.393 724.906 759.47 724.927 759.549 724.93Z" stroke="#B1E6D8" stroke-width="2"/>
<path d="M804.43 382.34C804.288 382.526 804.218 382.757 804.233 382.99C804.248 383.223 804.346 383.444 804.51 383.61L878.41 457.42C878.517 457.527 878.617 457.647 878.71 457.78C884.84 466.94 878.29 477.79 867.22 475.84C865.667 475.573 864.25 474.833 862.97 473.62C848.09 459.59 829.08 439.22 813.23 423.92C805.104 416.08 796.824 407.967 788.39 399.58C788.101 399.293 787.717 399.123 787.311 399.101C786.905 399.079 786.506 399.206 786.19 399.46C767.944 414.047 747.22 422.487 724.02 424.78C719.207 425.253 710.984 425.193 699.35 424.6C697.237 424.493 693.174 423.823 687.16 422.59C641.72 413.3 606.07 379.62 593.69 334.92C579.07 282.13 601.74 225.31 649.74 198.29C665.6 189.363 682.54 184.087 700.56 182.46C704.427 182.113 709.797 182.013 716.67 182.16C722.41 182.28 727.76 182.777 732.72 183.65C748.834 186.483 763.36 191.88 776.3 199.84C801.5 215.34 820.43 239.88 829.12 268.13C839.49 301.81 833.65 339.93 814.16 369.56C811.31 373.9 807.38 378.55 804.43 382.34ZM790.96 241.32C773.47 219.11 746.6 205.42 717.96 204.02C707.794 203.52 698.257 204.223 689.35 206.13C665.39 211.263 645.89 223.633 630.85 243.24C617.417 260.747 610.8 280.78 611 303.34C611.18 324.293 617.257 343.35 629.23 360.51C645.82 384.29 673.32 400.47 702.03 402.88C718.21 404.25 734.54 402.69 749.75 396.28C784.51 381.63 809.37 348.76 812.17 310.98C814.104 284.94 807.034 261.72 790.96 241.32Z" fill="#8DD4C4"/>
<path d="M698.771 318.35C698.921 318.403 699.083 318.413 699.238 318.378C699.394 318.342 699.537 318.263 699.651 318.15C727.158 290.73 746.484 271.47 757.631 260.37C763.071 254.95 773.051 256.13 775.251 264.12C776.511 268.707 775.451 272.683 772.071 276.05C751.991 296.083 730.644 317.327 708.031 339.78C704.451 343.33 699.521 346.15 694.481 343.86C693.268 343.313 691.761 342.133 689.961 340.32C680.601 330.927 669.348 319.767 656.201 306.84C651.281 302 647.331 296.81 651.291 290.03C655.261 283.26 664.321 284.15 669.271 289.23C673.504 293.583 682.971 303.03 697.671 317.57C698.091 317.99 698.458 318.25 698.771 318.35Z" fill="#8DD4C4"/>
<path d="M459.051 408.91C459.133 408.954 459.203 409.017 459.257 409.094C459.31 409.17 459.345 409.258 459.359 409.35C459.372 409.442 459.364 409.536 459.335 409.625C459.306 409.713 459.257 409.794 459.191 409.86L445.151 423.9C444.814 424.237 444.384 424.466 443.916 424.557C443.447 424.648 442.961 424.597 442.521 424.41C431.728 419.81 421.011 417.06 410.371 416.16C379.181 413.53 346.731 423.96 324.411 446.37C303.524 467.343 293.108 492.677 293.161 522.37C293.168 528.297 290.438 532.24 284.971 534.2C283.531 534.72 281.128 534.963 277.761 534.93C259.734 534.77 226.148 534.757 177.001 534.89C165.251 534.92 164.041 527 164.251 516.87C164.478 506.383 165.438 495.547 167.131 484.36C178.821 407.34 230.331 339.34 301.891 307.65C325.524 297.183 350.591 290.857 377.091 288.67C388.278 287.75 401.518 287.59 416.811 288.19C423.611 288.46 431.591 289.48 437.481 290.32C462.108 293.86 485.818 301.28 508.611 312.58C552.061 334.12 587.421 369.56 610.061 412.44C623.941 438.74 632.941 468.36 635.001 497.96C635.026 498.295 635.176 498.608 635.421 498.836C635.666 499.064 635.988 499.191 636.321 499.19C711.948 499.137 765.508 499.137 797.001 499.19C821.941 499.23 841.791 520.35 841.711 545C841.638 565.967 841.641 632.633 841.721 745C841.728 752.633 840.018 759.563 836.591 765.79C828.821 779.9 813.541 789.8 797.251 789.77C781.711 789.737 711.481 789.723 586.561 789.73C586.456 789.73 586.353 789.751 586.256 789.791C586.16 789.831 586.072 789.89 585.999 789.965C585.925 790.039 585.867 790.128 585.828 790.225C585.789 790.322 585.77 790.425 585.771 790.53C585.851 796.643 585.808 804 585.641 812.6C585.614 813.993 585.348 815.56 584.841 817.3C579.731 835.02 566.401 847.77 548.331 851.03C545.331 851.57 540.428 851.84 533.621 851.84C376.241 851.8 284.311 851.81 257.831 851.87C250.311 851.89 244.654 851.393 240.861 850.38C220.881 845.03 207.701 827.34 208.241 806.63C208.241 806.623 208.241 805.037 208.241 801.87C208.201 765.61 208.198 717.537 208.231 657.65C208.238 651.63 208.664 647.083 209.511 644.01C213.611 629.18 225.901 615.86 241.461 612.44C247.061 611.21 252.351 611.27 258.101 611.26C300.194 611.213 348.748 611.22 403.761 611.28C409.621 611.29 414.821 612.06 416.931 617.52C419.931 625.29 414.291 632.69 406.191 632.74C386.731 632.867 334.001 633.187 248.001 633.7C240.261 633.75 233.521 639.65 230.841 646.78C230.028 648.933 229.621 652.303 229.621 656.89C229.661 746.477 229.668 795.763 229.641 804.75C229.611 811.47 229.611 815.75 234.211 821.39C240.841 829.53 248.621 829.95 258.621 829.94C355.114 829.88 445.851 829.9 530.831 830C541.871 830.01 549.171 830.08 557.031 823.88C559.151 822.207 561.058 819.593 562.751 816.04C563.824 813.787 564.348 810.617 564.321 806.53C564.268 798.51 564.214 793.307 564.161 790.92C564.153 790.63 564.033 790.354 563.826 790.151C563.619 789.947 563.341 789.832 563.051 789.83C544.804 789.777 522.871 789.773 497.251 789.82C476.311 789.85 458.591 774.45 454.101 754.43C453.448 751.53 453.131 743.217 453.151 729.49C453.278 641.97 453.318 582.397 453.271 550.77C453.261 546.16 452.971 538.77 454.221 533.8C459.281 513.67 475.891 499.19 497.001 499.18C526.774 499.167 565.484 499.193 613.131 499.26C613.25 499.26 613.368 499.234 613.477 499.184C613.585 499.135 613.682 499.063 613.761 498.973C613.839 498.883 613.898 498.777 613.932 498.663C613.967 498.549 613.977 498.428 613.961 498.31C613.041 490.77 611.821 483.33 610.301 475.99C599.761 425.19 569.021 378.19 526.711 348.3C494.471 325.507 457.731 312.64 416.491 309.7C416.191 309.673 414.788 309.683 412.281 309.73C412.064 309.735 411.858 309.825 411.707 309.98C411.556 310.135 411.471 310.343 411.471 310.56L411.221 394.03C411.222 394.29 411.319 394.541 411.492 394.733C411.666 394.925 411.904 395.045 412.161 395.07C429.088 396.683 444.718 401.297 459.051 408.91ZM256.671 362.77L316.621 423.71C316.76 423.852 316.947 423.936 317.144 423.945C317.341 423.954 317.533 423.888 317.681 423.76C328.101 414.94 339.744 408.057 352.611 403.11C364.524 398.53 376.608 395.763 388.861 394.81C388.989 394.8 389.109 394.742 389.196 394.647C389.283 394.553 389.331 394.429 389.331 394.3L389.581 310.49C389.581 310.396 389.562 310.303 389.525 310.216C389.488 310.13 389.433 310.052 389.365 309.987C389.297 309.923 389.216 309.873 389.127 309.841C389.039 309.808 388.945 309.795 388.851 309.8C381.371 310.18 373.754 310.91 366.001 311.99C324.528 317.777 288.098 334.413 256.711 361.9C256.649 361.953 256.599 362.019 256.564 362.092C256.528 362.165 256.508 362.245 256.504 362.326C256.5 362.408 256.513 362.489 256.542 362.565C256.571 362.642 256.614 362.711 256.671 362.77ZM271.971 512.55C272.071 508.823 272.521 504.66 273.321 500.06C277.254 477.347 286.521 457.24 301.121 439.74C301.217 439.624 301.266 439.477 301.259 439.327C301.251 439.177 301.188 439.035 301.081 438.93L241.311 378.16C241.255 378.104 241.188 378.059 241.114 378.03C241.041 378 240.962 377.986 240.883 377.988C240.805 377.99 240.727 378.008 240.656 378.041C240.586 378.074 240.522 378.121 240.471 378.18C228.744 391.507 218.828 405.687 210.721 420.72C208.874 424.133 206.164 429.783 202.591 437.67C200.441 442.41 198.301 448.88 196.851 453.07C190.324 471.983 186.698 491.733 185.971 512.32C185.967 512.412 185.982 512.503 186.014 512.589C186.046 512.675 186.096 512.754 186.159 512.82C186.223 512.887 186.299 512.939 186.384 512.975C186.468 513.012 186.559 513.03 186.651 513.03L271.221 513.28C271.416 513.28 271.604 513.204 271.744 513.067C271.884 512.931 271.966 512.745 271.971 512.55ZM476.151 567.55H818.371C818.917 567.55 819.441 567.333 819.828 566.947C820.214 566.56 820.431 566.036 820.431 565.49V544.79C820.431 538.43 817.853 532.331 813.264 527.834C808.675 523.336 802.451 520.81 795.961 520.81H498.561C492.071 520.81 485.847 523.336 481.258 527.834C476.669 532.331 474.091 538.43 474.091 544.79V565.49C474.091 566.036 474.308 566.56 474.694 566.947C475.081 567.333 475.605 567.55 476.151 567.55ZM819.931 590.17C819.931 589.926 819.834 589.692 819.661 589.519C819.489 589.347 819.255 589.25 819.011 589.25H475.731C475.487 589.25 475.253 589.347 475.08 589.519C474.908 589.692 474.811 589.926 474.811 590.17V618.39C474.811 618.634 474.908 618.868 475.08 619.04C475.253 619.213 475.487 619.31 475.731 619.31H819.011C819.255 619.31 819.489 619.213 819.661 619.04C819.834 618.868 819.931 618.634 819.931 618.39V590.17ZM820.431 643.02C820.431 642.696 820.302 642.386 820.074 642.157C819.845 641.929 819.535 641.8 819.211 641.8L475.421 640.78C475.195 640.78 474.977 640.869 474.816 641.028C474.655 641.187 474.564 641.404 474.561 641.63C474.434 673.257 474.398 707.203 474.451 743.47C474.464 748.143 474.918 751.633 475.811 753.94C479.841 764.34 489.091 767.79 499.751 767.78C579.384 767.647 676.561 767.627 791.281 767.72C798.121 767.727 802.908 767.243 805.641 766.27C812.581 763.79 817.361 758.637 819.981 750.81C820.067 750.552 820.111 750.285 820.111 750.02L820.431 643.02Z" fill="#8DD4C4"/>
<path d="M256.67 362.77C256.613 362.711 256.569 362.642 256.54 362.565C256.512 362.489 256.499 362.408 256.503 362.326C256.506 362.245 256.527 362.165 256.562 362.092C256.598 362.019 256.648 361.953 256.71 361.9C288.096 334.413 324.526 317.777 366 311.99C373.753 310.91 381.37 310.18 388.85 309.8C388.944 309.795 389.038 309.808 389.126 309.841C389.214 309.873 389.295 309.923 389.364 309.987C389.432 310.052 389.486 310.13 389.524 310.216C389.561 310.303 389.58 310.396 389.58 310.49L389.33 394.3C389.33 394.429 389.282 394.553 389.195 394.647C389.107 394.742 388.988 394.8 388.86 394.81C376.606 395.763 364.523 398.53 352.61 403.11C339.743 408.057 328.1 414.94 317.68 423.76C317.531 423.888 317.339 423.954 317.142 423.945C316.946 423.936 316.759 423.852 316.62 423.71L256.67 362.77Z" fill="#D5F7EC"/>
<path d="M271.969 512.55C271.964 512.745 271.883 512.931 271.743 513.067C271.603 513.204 271.415 513.28 271.219 513.28L186.649 513.03C186.558 513.03 186.467 513.011 186.382 512.975C186.298 512.939 186.221 512.887 186.158 512.82C186.094 512.754 186.045 512.675 186.012 512.589C185.98 512.503 185.965 512.412 185.969 512.32C186.696 491.733 190.323 471.983 196.849 453.07C198.299 448.88 200.439 442.41 202.589 437.67C206.163 429.783 208.873 424.133 210.719 420.72C218.826 405.687 228.743 391.507 240.469 378.18C240.521 378.121 240.584 378.074 240.655 378.041C240.726 378.008 240.803 377.99 240.882 377.988C240.961 377.986 241.039 378 241.113 378.03C241.186 378.059 241.253 378.104 241.309 378.16L301.079 438.93C301.186 439.035 301.25 439.177 301.257 439.327C301.264 439.477 301.215 439.624 301.119 439.74C286.519 457.24 277.253 477.347 273.319 500.06C272.519 504.66 272.069 508.823 271.969 512.55Z" fill="#D5F7EC"/>
<path d="M433.38 498.47C442.32 517.09 434 537.72 416.34 547.11C404.61 553.34 389.58 552.36 378.39 544.78C370.984 539.753 365.86 532.413 363.02 522.76C362.214 520.013 361.934 515.94 362.18 510.54C362.98 492.91 378.27 477.38 395.73 476.19C400.564 475.863 405.344 476.23 410.07 477.29C410.369 477.358 410.68 477.35 410.975 477.268C411.27 477.186 411.54 477.032 411.76 476.82C435.427 454.073 454.667 435.313 469.48 420.54C479.81 410.22 488.98 402.17 497.64 393.46C502.65 388.43 507.59 385.22 514 389.41C519.6 393.07 518.84 399.19 515.31 404.06C513.564 406.473 510.414 409.823 505.86 414.11C493.647 425.623 484.297 434.607 477.81 441.06C472.897 445.947 468.54 450.837 464.74 455.73C456.38 466.517 446.407 479.38 434.82 494.32C433.94 495.46 433.41 496.423 433.23 497.21C433.14 497.638 433.192 498.081 433.38 498.47ZM415.9 513.74C415.9 509.351 414.157 505.141 411.053 502.037C407.949 498.934 403.74 497.19 399.35 497.19C397.177 497.19 395.025 497.618 393.017 498.45C391.009 499.282 389.185 500.501 387.648 502.037C386.111 503.574 384.892 505.399 384.06 507.407C383.228 509.415 382.8 511.567 382.8 513.74C382.8 518.129 384.544 522.339 387.648 525.443C390.752 528.546 394.961 530.29 399.35 530.29C403.74 530.29 407.949 528.546 411.053 525.443C414.157 522.339 415.9 518.129 415.9 513.74Z" fill="#8DD4C4"/>
<path d="M819.931 618.39C819.931 618.634 819.834 618.868 819.661 619.041C819.489 619.213 819.255 619.31 819.011 619.31H475.731C475.487 619.31 475.253 619.213 475.08 619.041C474.907 618.868 474.811 618.634 474.811 618.39V590.17C474.811 589.926 474.907 589.692 475.08 589.519C475.253 589.347 475.487 589.25 475.731 589.25H819.011C819.255 589.25 819.489 589.347 819.661 589.519C819.834 589.692 819.931 589.926 819.931 590.17V618.39ZM806.131 604.48C806.131 604.321 806.067 604.168 805.955 604.056C805.842 603.943 805.69 603.88 805.531 603.88H490.471C490.311 603.88 490.159 603.943 490.046 604.056C489.934 604.168 489.871 604.321 489.871 604.48V604.52C489.871 604.679 489.934 604.832 490.046 604.944C490.159 605.057 490.311 605.12 490.471 605.12H805.531C805.69 605.12 805.842 605.057 805.955 604.944C806.067 604.832 806.131 604.679 806.131 604.52V604.48Z" fill="#D5F7EC"/>
<path d="M335.411 667.918L275.451 668.022C269.751 668.032 265.139 672.661 265.149 678.36L265.151 679.42C265.161 685.12 269.789 689.732 275.489 689.722L335.449 689.618C341.148 689.608 345.761 684.979 345.751 679.28L345.749 678.22C345.739 672.52 341.11 667.908 335.411 667.918Z" fill="#8DD4C4"/>
<path d="M743.79 680.5C744.065 680.661 744.375 680.753 744.691 680.768C745.008 680.784 745.324 680.723 745.61 680.59C753.15 677.1 761.52 675.29 769.88 677.45C784.58 681.25 795.9 695.25 795.83 710.76C795.79 720.46 792.25 728.863 785.21 735.97C779.32 741.91 773.55 745.69 765.49 746.01C760.38 746.22 754.86 745.76 750 743.77C747.487 742.737 745.92 742.083 745.3 741.81C744.979 741.67 744.63 741.604 744.28 741.618C743.93 741.632 743.588 741.725 743.28 741.89C738 744.737 732.354 746.233 726.34 746.38C703.59 746.93 686.2 723.98 692.59 702.07C696.124 689.957 703.66 681.793 715.2 677.58C720.04 675.81 725.72 676.04 730.02 676.2C734.607 676.373 739.197 677.807 743.79 680.5ZM728.848 697.636C727.091 697.308 725.286 697.334 723.535 697.715C721.783 698.095 720.121 698.822 718.642 699.853C717.163 700.885 715.897 702.201 714.916 703.727C713.934 705.253 713.257 706.959 712.922 708.746C712.588 710.534 712.603 712.369 712.966 714.147C713.329 715.924 714.034 717.61 715.039 719.106C716.045 720.603 717.332 721.882 718.827 722.869C720.322 723.857 721.996 724.535 723.753 724.864C725.509 725.193 727.315 725.166 729.066 724.786C730.817 724.405 732.479 723.678 733.958 722.647C735.437 721.615 736.703 720.299 737.685 718.773C738.666 717.247 739.343 715.541 739.678 713.754C740.013 711.966 739.998 710.131 739.635 708.353C739.272 706.576 738.567 704.891 737.561 703.394C736.556 701.897 735.269 700.619 733.774 699.631C732.278 698.643 730.605 697.965 728.848 697.636ZM759.55 724.93C761.744 725.023 764.047 724.687 766.46 723.92C773.29 721.76 776.55 713.68 774.11 707.06C771.717 700.573 766.844 697.863 759.49 698.93C759.421 698.939 759.355 698.964 759.297 699.002C759.238 699.04 759.189 699.092 759.153 699.152C759.116 699.212 759.094 699.28 759.086 699.351C759.079 699.421 759.087 699.493 759.11 699.56C762.064 708.08 762.06 716.31 759.1 724.25C759.073 724.326 759.064 724.406 759.074 724.486C759.083 724.566 759.111 724.642 759.155 724.708C759.199 724.774 759.257 724.829 759.326 724.867C759.395 724.906 759.472 724.927 759.55 724.93Z" fill="#8DD4C4"/>
<path d="M622.312 679.018L516.312 679.203C510.485 679.213 505.77 683.944 505.78 689.771L505.781 690.251C505.791 696.078 510.523 700.793 516.349 700.783L622.349 700.597C628.176 700.587 632.891 695.856 632.881 690.029L632.88 689.549C632.87 683.723 628.138 679.007 622.312 679.018Z" fill="#8DD4C4"/>
<path d="M739.678 713.754C741.085 706.235 736.237 699.019 728.848 697.636C721.46 696.254 714.33 701.228 712.923 708.746C711.516 716.265 716.364 723.481 723.753 724.864C731.141 726.246 738.271 721.272 739.678 713.754Z" fill="#D5F7EC"/>
<path d="M759.551 724.93C759.472 724.927 759.395 724.906 759.326 724.867C759.258 724.829 759.199 724.774 759.155 724.708C759.111 724.641 759.083 724.565 759.074 724.486C759.064 724.406 759.074 724.326 759.101 724.25C762.061 716.31 762.064 708.08 759.111 699.56C759.087 699.493 759.079 699.421 759.087 699.351C759.094 699.28 759.117 699.212 759.153 699.152C759.189 699.091 759.239 699.04 759.297 699.002C759.355 698.964 759.421 698.939 759.491 698.93C766.844 697.863 771.717 700.573 774.111 707.06C776.551 713.68 773.291 721.76 766.461 723.92C764.047 724.687 761.744 725.023 759.551 724.93Z" fill="#D5F7EC"/>
<path d="M584.689 720.26L515.97 720.14C510.198 720.13 505.511 724.8 505.501 730.572L505.5 731.112C505.49 736.883 510.161 741.57 515.932 741.58L584.652 741.7C590.423 741.71 595.11 737.04 595.12 731.268L595.121 730.728C595.131 724.957 590.461 720.27 584.689 720.26Z" fill="#8DD4C4"/>
</svg>
