<svg width="1024" height="1024" viewBox="0 0 1024 1024" fill="none" xmlns="http://www.w3.org/2000/svg">
<path d="M554.61 215.57C552.57 206.24 558.31 196.62 567.04 193.17C572.113 191.17 577.253 191.7 582.46 194.76C583.66 195.467 586.133 197.76 589.88 201.64C595.353 207.32 613.393 225.43 644 255.97C647.66 259.623 649.9 262.37 650.72 264.21C656.89 277.99 637.43 300.02 623.69 286.53C604.717 267.917 582.977 246 558.47 220.78C556.643 218.9 555.47 217.467 554.95 216.48C554.797 216.195 554.683 215.889 554.61 215.57Z" fill="#F8C530"/>
<path d="M552.96 226.24L614.4 287.69C614.499 287.788 614.577 287.905 614.63 288.034C614.683 288.163 614.711 288.301 614.711 288.44C614.711 288.579 614.683 288.717 614.63 288.846C614.577 288.975 614.499 289.092 614.4 289.19L603.46 300.13C603.21 300.381 603.064 300.716 603.051 301.069C603.038 301.421 603.159 301.765 603.39 302.03C606.87 306.07 612.32 310.17 616.16 314.12C618.593 316.62 627.21 324.62 642.01 338.12C650.037 345.433 670.003 364.433 701.91 395.12C702.523 395.713 703.747 397.313 705.58 399.92C706.973 401.907 707.733 404.527 707.86 407.78C708.2 416.53 699.64 423.69 691.73 425.65C685.62 427.16 680.39 425.02 676.22 420.77C673.2 417.69 670.603 414.887 668.43 412.36C641.12 380.67 615.02 351.38 587.26 323.4C585.64 321.77 584.41 319.51 581.97 322.07C576.49 327.817 572.887 331.497 571.16 333.11C571.044 333.217 570.903 333.291 570.75 333.326C570.598 333.362 570.439 333.356 570.29 333.31C569.61 333.097 568.977 332.693 568.39 332.1C551.823 315.16 532.513 295.553 510.46 273.28C509.84 272.653 509.093 271.78 508.22 270.66C508.069 270.468 507.995 270.226 508.012 269.983C508.029 269.739 508.135 269.51 508.31 269.34L552.69 226.24C552.728 226.205 552.777 226.186 552.828 226.186C552.878 226.186 552.925 226.205 552.96 226.24Z" fill="#F8C530"/>
<path d="M550.91 369.51C545.27 368.43 540.72 365.01 536.28 360.55C513.66 337.797 493.2 317.32 474.9 299.12C463.07 287.35 481.43 259.45 496.94 270.94C497.533 271.373 499.07 272.84 501.55 275.34C524.463 298.447 546.13 320.217 566.55 340.65C571.05 345.157 572.666 350.273 571.4 356C569.31 365.44 560.43 371.33 550.91 369.51Z" fill="#F8C530"/>
<path d="M556.04 619.27C555.06 619.9 553.77 620.46 552.59 620.76C515.62 630.04 478.35 645.99 466.52 685.62C464.5 692.407 463.347 700.833 463.06 710.9C462.887 717.113 462.88 725.65 463.04 736.51C463.16 744.6 464.53 751.7 469.11 758.45C472.737 763.783 477.587 768.533 483.66 772.7C489.66 776.8 496.41 778.42 503.99 779.57C508.02 780.18 508.84 786.72 508.32 789.86C507.5 794.88 504.594 797.797 499.6 798.61C498.1 798.857 496.034 798.433 493.4 797.34C484.88 793.807 478.687 790.597 474.82 787.71C470.867 784.763 468.157 780.377 466.69 774.55C464.39 765.39 462.2 758.9 457.45 749.94C452.11 739.867 447.827 731.78 444.6 725.68C442.22 721.19 433.65 712.71 428.92 719.38C426.99 722.09 424.76 727.29 421.78 730.2C418.54 733.38 412.1 731.69 408.22 729.63C398.754 724.61 392.244 717.337 388.69 707.81C387.544 704.75 386.04 700.42 384.18 694.82C381.42 686.51 374 675.73 364.9 673.61C359.34 672.32 353.42 671.1 348.41 671.71C347.882 671.776 347.373 671.939 346.91 672.19C346.13 672.623 344.254 674.067 341.28 676.52C337.03 680.03 330.74 679.19 325.77 678.11C307.404 674.11 296.777 671.74 293.89 671C291.917 670.487 290.13 669.71 288.53 668.67C270.99 657.277 257.25 648.047 247.31 640.98C244.304 638.847 241.357 637.753 238.47 637.7C236.897 637.673 235.76 637.62 235.06 637.54C229.68 636.907 222.437 636.193 213.33 635.4C210.75 635.18 208.244 634.043 205.81 631.99C202.22 628.95 200.98 621.22 199.65 616.09C197.757 608.837 194.71 603.233 190.51 599.28C184.23 593.35 174.86 588.13 166.1 583.43C158.21 579.19 153.88 564.66 151.28 554.99C147.89 542.34 145.32 531.84 143.22 520.32C140.64 506.16 138.12 491.563 135.66 476.53C135.56 475.91 134.607 471.477 132.8 463.23C132.234 460.65 132.29 456.653 132.97 451.24C133.297 448.693 134.877 442.113 137.71 431.5C138.12 429.96 138.44 427.69 138.39 425.53C138.21 418.683 138.157 412.59 138.23 407.25C138.35 397.71 141.46 387.53 144.84 377.83C147.534 370.13 151.554 360.08 156.9 347.68C160.487 339.353 162.787 330.523 163.8 321.19C164.914 310.957 164.547 300.68 162.7 290.36C162.027 286.593 163.28 283.38 166.46 280.72C173.31 274.98 181.13 282.06 186.54 287.25C187.047 287.737 188.554 288.843 191.06 290.57C191.347 290.766 191.685 290.87 192.03 290.87C193.577 290.843 194.834 290.117 195.8 288.69C195.99 288.409 196.097 288.083 196.11 287.75C196.37 281.34 195.95 268.09 207.32 271.25C257.88 285.303 308.767 296.65 359.98 305.29C376.267 308.037 391.94 310.323 407 312.15C416.707 313.33 422.697 314.007 424.97 314.18C429.037 314.487 432.507 314.823 435.38 315.19C443.79 316.26 449.69 316.04 457.68 316.75C461.33 317.07 467.43 317.02 473.21 317.86C476.37 318.32 478.6 318.47 480.94 320.81C485.247 325.11 500.35 340.54 526.25 367.1C532.31 373.31 539.46 379.4 548.01 381.45C554.83 383.083 561.644 382.547 568.45 379.84C571.39 378.673 575.42 376.007 580.54 371.84C582.507 370.24 586.267 367.153 591.82 362.58C597.26 358.11 601.63 360.23 606.43 364.71C614.764 372.497 622.887 380.99 630.8 390.19C634.56 394.56 632.82 399.06 630.05 404.05C629.59 404.883 627.547 408.093 623.92 413.68C622.28 416.2 621.72 418.91 622.24 421.81C622.647 424.03 622.85 425.157 622.85 425.19C623.27 433.25 623.99 438.22 621.04 443.98C620.901 444.247 620.681 444.463 620.412 444.598C620.143 444.733 619.838 444.779 619.54 444.73C613.194 443.677 606.844 443.467 600.49 444.1C582.94 445.86 566.76 451.96 552.94 463.44C539.75 474.39 530.21 487.66 525.15 504.47C523.85 508.78 523.3 513.21 522.52 518.33C522.214 520.33 522.02 522.197 521.94 523.93C521.46 534.703 521.497 541.873 522.05 545.44C522.74 549.85 523.8 557.87 525.09 563.3C529.264 580.807 537.37 596.407 549.41 610.1C551.437 612.407 553.71 614.99 556.23 617.85C556.32 617.952 556.387 618.072 556.426 618.202C556.465 618.332 556.477 618.469 556.459 618.603C556.441 618.738 556.394 618.867 556.322 618.982C556.25 619.097 556.154 619.195 556.04 619.27ZM302.75 349.84C299.33 349.913 295.08 349.837 290 349.61C278.7 349.097 266.324 348.807 252.87 348.74C248.484 348.72 245.504 349.26 243.93 350.36C241.224 352.253 239.857 354.993 239.83 358.58C239.717 378.16 239.707 391.633 239.8 399C239.82 400.387 239.664 401.587 239.33 402.6C239.242 402.87 239.076 403.107 238.853 403.281C238.631 403.456 238.362 403.56 238.08 403.58C234.41 403.84 230.6 404.49 228.62 407.67C228.06 408.57 227.787 410.403 227.8 413.17C227.834 422.45 227.84 428.563 227.82 431.51C227.8 434.29 229.89 438.97 233.5 438.95C251.56 438.883 262.78 438.88 267.16 438.94C267.671 438.945 268.165 438.768 268.556 438.442C268.947 438.115 269.207 437.661 269.29 437.16L271.08 426.46C271.093 426.384 271.09 426.306 271.07 426.232C271.05 426.157 271.014 426.088 270.964 426.029C270.915 425.97 270.853 425.923 270.783 425.89C270.713 425.857 270.637 425.84 270.56 425.84H253.88C253.507 425.839 253.146 425.708 252.859 425.468C252.572 425.229 252.378 424.897 252.31 424.53C252.204 423.95 252.154 423.023 252.16 421.75C252.174 399.857 252.237 380.667 252.35 364.18C252.364 362.273 253.32 361.327 255.22 361.34C270.247 361.46 286.664 361.77 304.47 362.27C305.042 362.287 305.59 362.505 306.018 362.885C306.446 363.265 306.726 363.784 306.81 364.35L310.65 389.6C310.695 389.876 310.651 390.159 310.525 390.408C310.399 390.658 310.198 390.861 309.95 390.99C302.17 395.043 298.314 401.64 298.38 410.78C298.42 416.487 298.63 421.88 299.01 426.96C299.05 427.482 298.884 427.998 298.548 428.401C298.212 428.804 297.733 429.062 297.21 429.12C285.14 430.45 273.84 439.61 271.99 451.73C270.82 459.38 271.04 470.85 270.31 478.09C269.68 484.44 269.84 490.54 268.97 497.94C267.64 509.19 266.79 518.93 263.83 526.82C261.824 532.173 258.377 537.573 253.49 543.02C249.68 547.28 239.89 556.59 235.13 564.38C231.577 570.213 230.227 576.813 231.08 584.18C231.68 589.3 234.34 592.86 239.2 593.8C245.32 594.973 252.194 596.047 259.82 597.02C265.774 597.773 270.92 598.203 275.26 598.31C281.04 598.45 291.12 599.06 299.01 599.83C302.044 600.123 305.967 600.233 310.78 600.16C311.212 600.154 311.631 600.3 311.964 600.571C312.297 600.841 312.523 601.22 312.6 601.64L313.76 607.68C313.807 607.919 313.877 608.151 313.97 608.37C317.277 616.023 322.827 620.377 330.62 621.43C344.05 623.24 352.91 613.72 354.51 601.12C354.533 600.928 354.62 600.75 354.759 600.615C354.897 600.48 355.078 600.397 355.27 600.38C365.81 599.367 378.077 598.657 392.07 598.25C400.53 598.01 411.6 596.56 417.69 595.82C425.69 594.84 433.44 594.12 435.52 585.98C438.16 575.65 432.54 564.2 425.56 556.52C421.074 551.58 417.754 548.007 415.6 545.8C408.61 538.63 402.7 530.94 400.75 521.5C397.95 507.92 396.38 492.84 396.03 477.41C395.817 467.89 395.47 460.833 394.99 456.24C393.664 443.66 387.21 435.163 375.63 430.75C373.27 429.85 370.58 429.6 368.19 428.66C368.009 428.589 367.857 428.46 367.755 428.294C367.654 428.128 367.61 427.933 367.63 427.74C367.97 424.46 368.164 420.747 368.21 416.6C368.27 410.733 368.174 407.017 367.92 405.45C366.86 398.917 363.15 394.143 356.79 391.13C356.67 391.073 356.572 390.978 356.511 390.859C356.449 390.74 356.428 390.603 356.45 390.47L360.98 363.42C361.043 363.054 361.231 362.721 361.512 362.479C361.793 362.236 362.149 362.099 362.52 362.09L412.71 361.2C412.881 361.197 413.051 361.228 413.209 361.291C413.368 361.354 413.513 361.448 413.636 361.567C413.758 361.685 413.856 361.827 413.924 361.984C413.992 362.141 414.028 362.309 414.03 362.48C414.337 383.227 414.46 403.36 414.4 422.88C414.394 424.847 413.43 425.823 411.51 425.81C404.99 425.77 399.83 425.8 396.03 425.9C395.882 425.903 395.737 425.939 395.603 426.004C395.47 426.069 395.353 426.163 395.26 426.278C395.167 426.393 395.1 426.527 395.063 426.671C395.027 426.815 395.023 426.964 395.05 427.11C395.51 429.603 395.817 432.16 395.97 434.78C396.12 437.28 396.77 438.82 399.51 438.84C418.61 438.947 429.284 438.987 431.53 438.96C435.717 438.907 437.917 436.73 438.13 432.43C438.33 428.423 438.39 421.527 438.31 411.74C438.25 405.43 434.14 404.2 428.83 403.57C428.366 403.511 427.939 403.286 427.629 402.936C427.32 402.586 427.149 402.136 427.15 401.67C427.177 387.537 427.18 374.6 427.16 362.86C427.15 354.39 425.22 348.64 415.5 348.84C413.694 348.88 406.944 348.917 395.25 348.95C385.54 348.98 374.4 350.06 364.26 349.73C363.977 349.72 363.709 349.601 363.512 349.398C363.314 349.195 363.203 348.923 363.2 348.64C363.14 345.01 361.22 344.2 357.74 343.36C353.84 342.42 350.05 344.54 349.32 348.66C349.266 348.96 349.109 349.232 348.875 349.427C348.641 349.623 348.345 349.73 348.04 349.73H319.41C319.177 349.73 318.95 349.656 318.762 349.517C318.573 349.379 318.432 349.184 318.36 348.96C316.774 344.013 313.164 342.32 307.53 343.88C305.01 344.58 303.69 346.3 303.57 349.04C303.563 349.252 303.474 349.452 303.321 349.601C303.169 349.75 302.965 349.835 302.75 349.84Z" fill="#F8C530"/>
<path d="M735.899 662.5C735.9 662.557 735.884 662.614 735.852 662.661C735.82 662.709 735.774 662.745 735.721 662.766C735.667 662.787 735.609 662.79 735.553 662.777C735.497 662.763 735.447 662.733 735.409 662.69C724.809 650.82 712.789 641.34 697.909 634.36C685.383 628.48 672.656 624.033 659.729 621.02C658.116 620.64 656.656 620.067 655.349 619.3C655.26 619.247 655.184 619.174 655.127 619.087C655.07 619 655.034 618.9 655.021 618.797C655.008 618.694 655.02 618.589 655.054 618.49C655.089 618.392 655.145 618.303 655.219 618.23C672.829 601.09 684.319 581.12 688.579 556.83C689.899 549.283 690.709 542.34 691.009 536C691.483 526.08 690.383 515.903 687.709 505.47C681.119 479.69 660.839 459.04 636.089 449.5C635.632 449.324 635.235 449.021 634.944 448.628C634.654 448.235 634.482 447.767 634.449 447.28C634.169 442.96 634.103 438.113 634.249 432.74C634.419 426.25 636.849 420.05 640.389 414.25C642.309 411.08 644.259 409.15 648.099 410.16C650.469 410.78 654.529 414.79 655.919 416.28C663.889 424.77 670.509 432.41 679.049 439.2C679.883 439.867 680.409 441.063 680.629 442.79C681.509 449.55 681.229 459.36 691.089 458.41C695.923 457.95 700.629 456.55 705.209 454.21C715.116 449.143 723.156 443.593 729.329 437.56C733.056 433.913 738.846 428.3 746.699 420.72C750.559 416.99 754.659 417.83 760.509 418.97C762.649 419.39 766.349 418.53 768.569 417.29C776.519 412.83 779.839 404.63 777.499 395.71C775.569 388.36 775.459 383.54 781.519 377.99C786.273 373.637 793.313 367.35 802.639 359.13C809.759 352.86 815.609 346.39 818.039 336.02C819.086 331.547 820.563 322.767 822.469 309.68C823.256 304.32 824.236 300.89 825.409 299.39C829.409 294.28 835.109 293.33 841.259 295.44C846.173 297.127 849.959 300.437 852.619 305.37C859.569 318.26 862.349 324.32 869.809 333.42C872.489 336.693 874.169 340.11 874.849 343.67C875.679 348 872.899 351.45 869.589 354.85C855.629 369.21 849.239 375.17 840.549 386.34C838.129 389.447 837.266 393.08 837.959 397.24C838.793 402.233 839.529 405.947 840.169 408.38C840.809 410.793 842.299 412.53 844.639 413.59C850.029 416.04 855.719 418.34 856.529 424.99C857.089 429.53 851.419 433.81 847.449 435.48C840.203 438.533 833.659 441.327 827.819 443.86C819.629 447.41 807.869 452.23 806.379 460.4C803.766 474.673 799.536 492.993 793.689 515.36C792.389 520.327 791.719 523.863 791.679 525.97C791.429 537.68 800.189 547.67 801.679 559.27C802.949 569.22 794.829 578.84 787.799 585.94C771.569 602.33 755.279 620.96 740.509 640.01C735.169 646.9 735.579 653.98 735.899 662.5Z" fill="#F8C530"/>
<path d="M763.391 377.9C762.95 378.489 762.718 379.207 762.731 379.94C762.751 381.587 763.134 383.49 763.881 385.65C765.701 390.91 766.944 395.047 767.611 398.06C769.041 404.41 763.171 408.21 757.921 404.35C754.054 401.503 749.947 398.37 745.601 394.95C744.734 394.27 743.814 393.89 742.841 393.81C742.514 393.784 742.188 393.85 741.901 394C736.501 396.88 731.431 401.18 725.891 405.15C725.364 405.53 724.424 405.743 723.071 405.79C719.921 405.9 717.881 402.94 717.651 400.06C717.624 399.716 717.658 399.371 717.751 399.04C719.411 393.26 720.921 387.98 722.281 383.2C723.121 380.227 722.404 377.887 720.131 376.18C716.324 373.313 711.424 369.62 705.431 365.1C701.271 361.96 702.621 355.42 708.241 354.91C712.714 354.497 719.028 354.227 727.181 354.1C729.361 354.067 730.854 352.753 731.661 350.16C733.381 344.64 734.721 340.237 735.681 336.95C736.571 333.93 737.951 330.32 741.451 329.9C745.211 329.45 747.211 332.09 748.411 335.61C750.244 341.017 751.588 345.497 752.441 349.05C752.768 350.397 753.304 351.603 754.051 352.67C754.378 353.137 754.812 353.519 755.317 353.783C755.822 354.048 756.382 354.187 756.951 354.19C761.571 354.23 765.921 354.323 770.001 354.47C774.128 354.617 776.874 355.013 778.241 355.66C782.791 357.81 781.981 362.66 778.591 365.59C777.344 366.67 772.938 370.097 765.371 375.87C764.644 376.423 763.984 377.1 763.391 377.9Z" fill="#F8C530"/>
<path d="M347.91 363.56L344.37 384.68C344.311 385.03 344.13 385.347 343.859 385.576C343.588 385.805 343.245 385.93 342.89 385.93H324.45C324.093 385.929 323.747 385.801 323.476 385.568C323.204 385.335 323.025 385.013 322.97 384.66L319.75 363.54C319.717 363.325 319.731 363.106 319.79 362.898C319.85 362.689 319.954 362.496 320.096 362.331C320.238 362.167 320.413 362.035 320.611 361.945C320.808 361.855 321.023 361.809 321.24 361.81H346.43C346.648 361.81 346.864 361.857 347.062 361.949C347.26 362.041 347.436 362.175 347.576 362.341C347.717 362.508 347.82 362.703 347.878 362.914C347.936 363.124 347.947 363.345 347.91 363.56Z" fill="#F8C530"/>
<path d="M327.121 401.43C327.102 401.281 327.116 401.13 327.161 400.987C327.206 400.844 327.281 400.712 327.381 400.599C327.481 400.487 327.604 400.397 327.742 400.335C327.88 400.273 328.029 400.24 328.181 400.24H338.741C339.05 400.24 339.347 400.36 339.568 400.576C339.789 400.791 339.915 401.083 339.921 401.39C340.001 406.48 338.341 410.87 346.031 410.33C348.424 410.163 350.344 408.94 351.791 406.66C351.837 406.587 351.898 406.524 351.969 406.475C352.04 406.426 352.121 406.391 352.206 406.374C352.29 406.356 352.378 406.355 352.463 406.372C352.548 406.388 352.629 406.422 352.701 406.47C354.487 407.683 355.391 409.22 355.411 411.08C355.464 415.567 355.144 420.773 354.451 426.7C354.411 427.03 354.253 427.335 354.007 427.556C353.76 427.777 353.441 427.9 353.111 427.9H313.341C313.056 427.901 312.781 427.793 312.572 427.598C312.362 427.404 312.233 427.136 312.211 426.85C311.924 422.983 311.684 418.53 311.491 413.49C311.377 410.503 312.447 408.15 314.701 406.43C314.761 406.385 314.83 406.352 314.903 406.336C314.977 406.319 315.053 406.318 315.127 406.334C315.201 406.349 315.27 406.379 315.331 406.424C315.392 406.468 315.443 406.525 315.481 406.59C317.754 410.583 321.304 411.593 326.131 409.62C328.351 408.71 327.491 404.5 327.121 401.43Z" fill="#F8C530"/>
<path d="M285.071 466.41C284.779 466.41 284.499 466.294 284.293 466.088C284.087 465.882 283.971 465.602 283.971 465.31V463.56C283.971 457.532 286.365 451.75 290.628 447.487C294.891 443.225 300.672 440.83 306.701 440.83H359.681C365.709 440.83 371.491 443.225 375.753 447.487C380.016 451.75 382.411 457.532 382.411 463.56V465.31C382.411 465.602 382.295 465.882 382.089 466.088C381.882 466.294 381.602 466.41 381.311 466.41H285.071Z" fill="#F8C530"/>
<path d="M606.321 463.01C642.871 463.15 671.391 491.69 671.981 528.02C672.111 536.11 672.341 546.27 670.701 554.82C666.541 576.44 655.837 593.99 638.591 607.47C629.331 614.71 617.551 619.82 605.721 619.78C593.901 619.73 582.161 614.53 572.951 607.22C555.811 593.613 545.241 575.983 541.241 554.33C539.671 545.77 539.981 535.61 540.171 527.52C541.031 491.2 569.771 462.87 606.321 463.01Z" fill="#F8C530"/>
<path d="M259.85 555.92C260.11 555.34 260.584 554.623 261.27 553.77C265.73 548.22 269.91 542.97 272.76 537.09C275.834 530.75 278.074 523.47 279.48 515.25C281.247 504.923 282.467 494.173 283.14 483C283.22 481.68 283.42 480.49 283.74 479.43C283.846 479.067 284.067 478.747 284.37 478.52C284.673 478.293 285.042 478.17 285.42 478.17H381.47C381.796 478.17 382.111 478.289 382.356 478.504C382.601 478.719 382.759 479.017 382.8 479.34C383.314 483.453 383.61 486.773 383.69 489.3C383.93 497.32 384.87 501.87 386.3 512.49C387.96 524.86 392.59 537.76 400.55 547.77C404.244 552.41 406.244 554.947 406.55 555.38C406.645 555.512 406.706 555.665 406.73 555.826C406.754 555.987 406.74 556.151 406.688 556.305C406.636 556.459 406.549 556.599 406.433 556.713C406.317 556.827 406.175 556.911 406.02 556.96C402.78 557.98 399.58 557.79 395.69 558.28C387.264 559.347 382.2 559.877 380.5 559.87C366.06 559.797 352.23 560.157 339.01 560.95C335.93 561.13 333.65 560.42 332.56 557.3C330.56 551.59 325.99 542.82 324.18 535.81C322 527.35 320.96 518.48 321.06 509.2C321.087 506.227 321.034 504.423 320.9 503.79C320.56 502.217 319.107 501.357 316.54 501.21C313.4 501.023 311.607 502.417 311.16 505.39C309.594 515.95 310 526.883 312.38 538.19C313.56 543.79 316.25 547.37 319.12 551.87C319.253 552.089 319.357 552.321 319.43 552.56C319.99 554.527 319.967 556.283 319.36 557.83C319.13 558.424 318.705 558.937 318.138 559.302C317.571 559.668 316.89 559.869 316.18 559.88C309.067 559.98 299.62 559.99 287.84 559.91C278.48 559.85 270.13 558.63 260.6 557.29C260.451 557.27 260.308 557.215 260.184 557.129C260.059 557.043 259.957 556.929 259.884 556.796C259.811 556.663 259.77 556.515 259.764 556.363C259.759 556.211 259.788 556.059 259.85 555.92Z" fill="#F8C530"/>
<path d="M340.259 572.78C340.446 572.667 341.032 572.597 342.019 572.57C345.426 572.49 354.889 572.373 370.409 572.22C386.599 572.05 402.789 570.39 417.579 568.34C417.895 568.299 418.215 568.349 418.503 568.486C418.79 568.622 419.032 568.839 419.199 569.11C421.479 572.83 423.519 576.52 423.799 579.96C423.841 580.453 423.711 580.945 423.43 581.352C423.149 581.758 422.735 582.055 422.259 582.19C417.479 583.55 412.489 583.73 407.339 584.33C398.646 585.337 393.862 585.84 392.989 585.84C383.099 585.8 375.899 586.7 366.719 587.01C360.059 587.23 353.319 587.46 346.499 587.7C344.012 587.787 342.176 587.633 340.989 587.24C340.451 587.095 339.975 586.774 339.637 586.33C339.299 585.885 339.117 585.34 339.119 584.78L339.179 574.73C339.182 574.341 339.282 573.958 339.471 573.618C339.66 573.277 339.931 572.989 340.259 572.78Z" fill="#F8C530"/>
<path d="M327.639 585.9C327.56 586.389 327.314 586.835 326.945 587.165C326.575 587.494 326.104 587.687 325.609 587.71C314.229 588.22 302.149 587.57 293.359 587.1C288.426 586.84 284.866 586.573 282.679 586.3C277.849 585.7 273.479 586.01 268.459 585.43C260.006 584.443 252.766 583.487 246.739 582.56C245.506 582.373 244.476 582.09 243.649 581.71C243.27 581.537 242.962 581.239 242.776 580.865C242.591 580.492 242.539 580.067 242.629 579.66C243.356 576.413 244.859 573.04 247.139 569.54C247.391 569.154 247.751 568.85 248.174 568.667C248.598 568.484 249.065 568.429 249.519 568.51C253.399 569.197 260.486 570.053 270.779 571.08C287.379 572.73 301.239 572.16 319.499 572.2C327.319 572.21 328.619 579.83 327.639 585.9Z" fill="#F8C530"/>
<path d="M573.9 630.73C582.567 634.87 589.52 637.283 594.76 637.97C597.767 638.37 602.043 638.523 607.59 638.43C618.16 638.26 628.11 635.37 637.28 630.32C637.491 630.204 637.73 630.153 637.968 630.173C638.207 630.192 638.433 630.282 638.62 630.43C644.85 635.3 650.4 637.62 658.92 639.71C684.64 646.02 710.73 657.51 724.86 681.37C729.62 689.39 731.46 700.92 731.85 710.21C732.123 716.877 732.143 726.427 731.91 738.86C731.817 743.74 731.16 747.333 729.94 749.64C723.08 762.59 708.54 761.79 696.14 761.79C589.907 761.83 527.527 761.813 509 761.74C505.587 761.727 502.02 761.203 498.3 760.17C488.16 757.37 482.853 750.64 482.38 739.98C481.98 731.027 481.773 722.95 481.76 715.75C481.74 704.97 482.68 694.57 486.61 684.56C490.56 674.53 499.78 664.84 508.43 658.69C515.61 653.57 523.28 649.567 531.44 646.68C542.967 642.607 552.2 639.68 559.14 637.9C564.74 636.467 569.343 634.123 572.95 630.87C573.077 630.755 573.234 630.68 573.404 630.655C573.573 630.63 573.746 630.656 573.9 630.73Z" fill="#F8C530"/>
<path d="M749.569 714.51C749.565 714.428 749.589 714.347 749.638 714.281C749.687 714.216 749.758 714.169 749.837 714.15C749.917 714.131 750.001 714.141 750.075 714.177C750.148 714.214 750.206 714.275 750.239 714.35C754.113 721.837 759.509 731.82 766.429 744.3C769.383 749.627 771.133 755.11 771.679 760.75C771.806 762.023 771.873 766.203 771.879 773.29C771.886 777.257 771.466 780.16 770.619 782C767.839 788.03 761.229 791.96 754.879 789.35C753.446 788.757 750.803 786.57 746.949 782.79C742.669 778.583 738.996 774.75 735.929 771.29C735.772 771.112 735.653 770.904 735.577 770.68C735.501 770.455 735.472 770.217 735.489 769.98C735.507 769.743 735.572 769.513 735.68 769.301C735.788 769.09 735.938 768.903 736.119 768.75C740.513 765.043 743.769 760.597 745.889 755.41C747.469 751.543 748.503 746.093 748.989 739.06C749.383 733.32 749.576 725.137 749.569 714.51Z" fill="#F8C530"/>
</svg>
