<svg width="1024" height="1024" viewBox="0 0 1024 1024" fill="none" xmlns="http://www.w3.org/2000/svg">
<path d="M513.401 150.34C504.371 165.66 493.601 182.48 481.041 196.06C471.221 206.69 461.251 213.43 447.961 217.59" stroke="#FF8618" stroke-width="2"/>
<path d="M360.95 321.3C362.677 321.386 364.364 321.52 366.01 321.7C367.137 321.82 367.914 322.263 368.34 323.03C371.4 328.56 366.68 332.91 362.39 336.4C355.41 342.08 344.49 349.33 337.24 355.65C325.58 365.81 314.884 377.596 305.15 391.01C296.18 403.38 286.95 415.93 276.8 428.45C265.96 441.816 256.56 453.81 248.6 464.43C233.95 483.99 227.93 496.4 211.47 524.87C202.69 540.056 192.527 553.813 180.98 566.14" stroke="#FF8618" stroke-width="2"/>
<path d="M427.55 469.1C429.91 477.493 430.49 486.113 429.29 494.96C429.245 495.285 429.102 495.589 428.88 495.83C424.62 500.416 420.04 504.593 415.14 508.36C409.85 512.43 397.86 520.08 389.84 526.62C378.31 536.03 364.25 550.65 350.95 562.74C335.15 577.113 319.264 592.73 303.29 609.59C284.67 629.25 271.294 643.166 263.16 651.34C256.16 658.373 247.934 665.26 238.48 672" stroke="#FF750F" stroke-width="2"/>
<path d="M548.391 405.31C538.318 411.043 529.328 418.157 521.421 426.65C518.048 430.277 512.248 436.453 504.021 445.18C494.781 454.973 484.064 461.987 471.871 466.22" stroke="#FF750F" stroke-width="2"/>
<path d="M576.06 526.09C567.433 533.89 558.69 541.557 549.83 549.09C531.77 564.44 518.6 579.3 500.18 598.99C490.38 609.47 478.58 621.22 465.89 629.4C459.93 633.25 452.26 636.27 446.27 639.22C440.21 642.2 428.35 649.76 426.99 655.97C426.904 656.369 426.976 656.787 427.19 657.136C427.403 657.486 427.743 657.741 428.14 657.85C430.96 658.62 435.38 657.14 438.04 656.15C443.026 654.29 448.073 652.156 453.18 649.75C453.973 649.376 454.633 649.177 455.16 649.15C455.249 649.147 455.338 649.17 455.416 649.215C455.493 649.261 455.555 649.328 455.595 649.408C455.634 649.488 455.649 649.577 455.637 649.665C455.626 649.752 455.588 649.834 455.53 649.9C449.283 657.113 442.02 663.55 433.74 669.21C433.3 669.51 430.37 671.44 424.95 675C424.345 675.405 423.782 675.871 423.27 676.39C421.41 678.29 419.84 680.49 417.49 682.46C403.98 693.75 390.31 706.6 387.76 725.05" stroke="#FF680A" stroke-width="2"/>
<path d="M387.761 725.05C372.394 730.056 358.277 734.093 345.411 737.16C340.917 738.226 337.187 739.993 334.221 742.46" stroke="#FF6007" stroke-width="2"/>
<path d="M675.13 585.83C660.85 588.19 648.184 594.27 637.13 604.07C630.71 609.757 607.807 629.757 568.42 664.07C549.18 680.83 538.74 690.98 516.27 712.3C501.29 726.52 488.52 741.66 473.59 758.56C459.04 775.02 447.77 791.79 432.92 807.23C419.44 821.24 405.44 835.57 390.4 848.55" stroke="#FF5A04" stroke-width="2"/>
<path d="M386.381 822.8C387.068 818.427 388.564 814.537 390.871 811.13C393.721 806.93 397.701 802.4 400.611 798.22C409.544 785.42 420.774 769.613 434.301 750.8C439.301 743.85 446.401 731.68 451.441 724.03C454.761 718.99 457.291 714.657 459.031 711.03C460.378 708.223 460.558 705.327 459.571 702.34C459.468 702.023 459.256 701.751 458.971 701.57C457.731 700.797 456.608 700.617 455.601 701.03C431.561 710.903 408.948 718.91 387.761 725.05" stroke="#FF5A04" stroke-width="2"/>
<path d="M782.85 340.89L757.01 369.09" stroke="#FF680A" stroke-width="2"/>
<path d="M626.23 487.97C618.896 498.816 610.63 508.93 601.43 518.31" stroke="#FF680A" stroke-width="2"/>
<path d="M513.401 150.34C504.371 165.66 493.601 182.48 481.041 196.06C471.221 206.69 461.251 213.43 447.961 217.59C440.401 218.21 434.207 219.053 429.381 220.12C394.791 227.77 367.261 255.43 356.341 288.85C353.634 297.136 352.341 305.603 352.461 314.25C352.551 320.3 355.451 321.59 360.951 321.3C362.677 321.386 364.364 321.52 366.011 321.7C367.137 321.82 367.914 322.263 368.341 323.03C371.401 328.56 366.681 332.91 362.391 336.4C355.411 342.08 344.491 349.33 337.241 355.65C325.581 365.81 314.884 377.596 305.151 391.01C296.181 403.38 286.951 415.93 276.801 428.45C265.961 441.816 256.561 453.81 248.601 464.43C233.951 483.99 227.931 496.4 211.471 524.87C202.691 540.056 192.527 553.813 180.981 566.14C172.374 561.38 168.027 554.08 167.941 544.24C167.901 539.08 168.964 534.63 171.131 530.89C181.451 513.1 193.271 494.68 207.351 472.32C211.611 465.56 216.921 456.19 219.891 451.13C224.504 443.256 227.034 434.563 227.481 425.05C227.607 422.45 227.041 417.273 225.781 409.52C224.314 400.546 223.584 391.21 223.591 381.51C223.591 377.876 223.707 374.54 223.941 371.5C224.271 367.22 224.191 362.14 224.741 358.15C231.227 310.483 249.784 268.973 280.411 233.62C318.064 190.153 365.287 163.143 422.081 152.59C452.501 146.94 483.061 145.79 513.401 150.34Z" fill="#FF901D"/>
<path d="M548.391 405.31C538.318 411.043 529.328 418.156 521.421 426.65C518.048 430.277 512.248 436.453 504.021 445.18C494.781 454.973 484.064 461.987 471.871 466.22C471.991 458.387 472.144 453.4 472.331 451.26C473.691 436.073 480.558 423.467 492.931 413.44C502.004 406.093 508.101 401.173 511.221 398.68C533.721 380.713 547.674 357.24 553.081 328.26C553.748 324.707 554.168 320.207 554.341 314.76C554.848 299.22 551.871 284.69 545.411 271.17C532.881 244.95 506.371 222.41 476.341 218.92C472.951 218.52 469.031 217.82 465.131 217.75C459.458 217.643 453.734 217.59 447.961 217.59C461.251 213.43 471.221 206.69 481.041 196.06C493.601 182.48 504.371 165.66 513.401 150.34C560.481 156.45 606.001 175.02 641.781 205.78C666.371 226.93 687.651 252.57 701.131 281.8C701.185 281.915 701.211 282.042 701.207 282.169C701.202 282.297 701.167 282.422 701.105 282.534C701.043 282.646 700.954 282.742 700.848 282.814C700.741 282.887 700.619 282.933 700.491 282.95C698.338 283.217 696.008 283.363 693.501 283.39C668.028 283.677 644.458 289.88 622.791 302C583.851 323.78 556.681 361.45 548.391 405.31Z" fill="#FF7B12"/>
<path d="M427.55 469.1C429.91 477.493 430.49 486.113 429.29 494.96C429.245 495.285 429.102 495.589 428.88 495.83C424.62 500.417 420.04 504.593 415.14 508.36C409.85 512.43 397.86 520.08 389.84 526.62C378.31 536.03 364.25 550.65 350.95 562.74C335.15 577.113 319.264 592.73 303.29 609.59C284.67 629.25 271.294 643.167 263.16 651.34C256.16 658.373 247.934 665.26 238.48 672C237.2 664 233.51 658.48 228.85 650.88C228.626 650.51 228.473 650.099 228.4 649.67C228.074 647.783 228.374 645.9 229.3 644.02C231.227 640.107 232.494 637.29 233.1 635.57C233.587 634.163 233.31 632.963 232.27 631.97C229.964 629.757 227.057 627.507 223.55 625.22C220.37 623.147 218.987 619.917 219.4 615.53C219.487 614.55 221.007 604.123 223.96 584.25C225.16 576.14 218.32 573.24 211.6 572.16C210.587 571.993 203.907 571.02 191.56 569.24C187.807 568.7 184.28 567.667 180.98 566.14C192.527 553.813 202.69 540.057 211.47 524.87C227.93 496.4 233.95 483.99 248.6 464.43C256.56 453.81 265.96 441.817 276.8 428.45C286.95 415.93 296.18 403.38 305.15 391.01C314.884 377.597 325.58 365.81 337.24 355.65C344.49 349.33 355.41 342.08 362.39 336.4C366.68 332.91 371.4 328.56 368.34 323.03C367.914 322.263 367.137 321.82 366.01 321.7C364.364 321.52 362.677 321.387 360.95 321.3C371.824 321.227 382.697 321.243 393.57 321.35C398.58 321.4 400.76 319.99 401.18 315.13C402.65 297.91 410.98 283.43 425.47 274.57C442.6 264.09 464.36 263.37 481.81 273.27C496.43 281.58 504.88 296.67 505.78 313.77C506.4 325.537 503.164 336.13 496.07 345.55C494.677 347.397 491.834 350.227 487.54 354.04C486.007 355.4 478.447 361.667 464.86 372.84C456.7 379.54 449.364 387.047 442.85 395.36C433.17 407.713 427.617 421.45 426.19 436.57C425.584 443.03 425.297 448.483 425.33 452.93C425.377 458.717 426.117 464.107 427.55 469.1Z" fill="#FF7B12"/>
<path d="M782.85 340.89L757.01 369.09C749.61 362.33 741.963 357.18 734.07 353.64C713.043 344.207 691.216 343.047 668.59 350.16C658.99 353.18 650.103 357.953 641.93 364.48C622.14 380.28 611.04 401.64 608.9 426.89C607.04 448.837 612.816 469.197 626.23 487.97C618.896 498.817 610.63 508.93 601.43 518.31C583.91 498.523 573.576 475.393 570.43 448.92C569.063 437.393 569.28 426.18 571.08 415.28C576.18 384.32 590.24 358.637 613.26 338.23C634.44 319.44 660.78 309.25 689 306.83C696.006 306.23 703.65 306.48 711.93 307.58C738.79 311.153 762.43 322.257 782.85 340.89Z" fill="#FF6E0C"/>
<path d="M782.85 340.89C808.21 364.177 821.776 392.907 823.55 427.08C824.97 454.36 818.053 479.863 802.8 503.59C799 509.49 793.99 515.34 789.11 521.06C788.839 521.381 788.682 521.782 788.664 522.2C788.646 522.618 788.767 523.03 789.01 523.37L810.2 553.1C810.863 554.022 811.84 554.672 812.95 554.93C819.76 556.5 821.86 560.12 826.7 566.57C838.533 582.357 853.686 602.637 872.16 627.41C876.36 633.043 878.626 636.173 878.96 636.8C892.74 663.14 862.02 690.15 837.77 674.22C835.796 672.92 833.233 670.167 830.08 665.96C815.446 646.42 796.933 621.927 774.54 592.48C771.086 587.94 769.713 582.32 770.42 575.62C770.55 574.45 771.16 573.34 771.2 572.15C771.2 571.988 771.151 571.831 771.06 571.7L754.21 548.07C754.059 547.854 753.833 547.701 753.576 547.638C753.318 547.575 753.046 547.608 752.81 547.73C741.443 553.643 729.513 557.483 717.02 559.25C702.053 561.363 687.856 561.347 674.43 559.2C667.67 558.127 659.99 555.997 651.39 552.81C631.85 545.583 615.196 534.083 601.43 518.31C610.63 508.93 618.896 498.817 626.23 487.97C629.616 492.03 632.07 494.833 633.59 496.38C649.183 512.2 668.063 520.79 690.23 522.15C714.94 523.67 739.45 515.84 757.46 498.69C794.67 463.25 794.41 404.21 757.01 369.09L782.85 340.89Z" fill="#FF6107"/>
<path d="M548.389 405.31C540.469 447.71 550.449 491.34 576.059 526.09C567.433 533.89 558.689 541.557 549.829 549.09C531.769 564.44 518.599 579.3 500.179 598.99C490.379 609.47 478.579 621.22 465.889 629.4C459.929 633.25 452.259 636.27 446.269 639.22C440.209 642.2 428.349 649.76 426.989 655.97C426.904 656.369 426.975 656.787 427.189 657.136C427.403 657.486 427.743 657.741 428.139 657.85C430.959 658.62 435.379 657.14 438.039 656.15C443.026 654.29 448.073 652.157 453.179 649.75C453.973 649.377 454.633 649.177 455.159 649.15C455.249 649.147 455.338 649.17 455.415 649.216C455.493 649.262 455.555 649.329 455.594 649.409C455.634 649.488 455.648 649.577 455.637 649.665C455.625 649.752 455.588 649.834 455.529 649.9C449.283 657.113 442.019 663.55 433.739 669.21C433.299 669.51 430.369 671.44 424.949 675C424.344 675.406 423.781 675.871 423.269 676.39C421.409 678.29 419.839 680.49 417.489 682.46C403.979 693.75 390.309 706.6 387.759 725.05C372.393 730.057 358.276 734.093 345.409 737.16C340.916 738.227 337.186 739.993 334.219 742.46C319.599 743.947 304.823 745.537 289.889 747.23C286.829 747.57 284.353 747.737 282.459 747.73C280.049 747.72 275.729 747.96 272.539 747.35C266.999 746.29 262.659 744.907 259.519 743.2C246.446 736.113 239.443 725.41 238.509 711.09C237.983 702.997 238.229 693.717 239.249 683.25C239.476 680.877 239.219 677.127 238.479 672C247.933 665.26 256.159 658.373 263.159 651.34C271.293 643.167 284.669 629.25 303.289 609.59C319.263 592.73 335.149 577.113 350.949 562.74C364.249 550.65 378.309 536.03 389.839 526.62C397.859 520.08 409.849 512.43 415.139 508.36C420.039 504.593 424.619 500.417 428.879 495.83C429.101 495.589 429.244 495.286 429.289 494.96C430.489 486.113 429.909 477.493 427.549 469.1C429.163 469.907 430.313 470.31 430.999 470.31C442.413 470.27 453.829 470.247 465.249 470.24C468.609 470.24 470.816 468.9 471.869 466.22C484.063 461.987 494.779 454.973 504.019 445.18C512.246 436.453 518.046 430.277 521.419 426.65C529.326 418.157 538.316 411.043 548.389 405.31ZM478.589 533.58C478.589 525.926 475.549 518.585 470.136 513.173C464.724 507.761 457.383 504.72 449.729 504.72C442.075 504.72 434.734 507.761 429.322 513.173C423.91 518.585 420.869 525.926 420.869 533.58C420.869 541.234 423.91 548.575 429.322 553.987C434.734 559.399 442.075 562.44 449.729 562.44C457.383 562.44 464.724 559.399 470.136 553.987C475.549 548.575 478.589 541.234 478.589 533.58Z" fill="#FF6E0C"/>
<path d="M675.131 585.83C660.851 588.19 648.184 594.27 637.131 604.07C630.711 609.756 607.807 629.756 568.421 664.07C549.181 680.83 538.741 690.98 516.271 712.3C501.291 726.52 488.521 741.66 473.591 758.56C459.041 775.02 447.771 791.79 432.921 807.23C419.441 821.24 405.441 835.57 390.401 848.55L386.381 822.8C387.068 818.426 388.564 814.536 390.871 811.13C393.721 806.93 397.701 802.4 400.611 798.22C409.544 785.42 420.774 769.613 434.301 750.8C439.301 743.85 446.401 731.68 451.441 724.03C454.761 718.99 457.291 714.657 459.031 711.03C460.378 708.223 460.558 705.327 459.571 702.34C459.468 702.023 459.256 701.751 458.971 701.57C457.731 700.796 456.608 700.617 455.601 701.03C431.561 710.903 408.948 718.91 387.761 725.05C390.311 706.6 403.981 693.75 417.491 682.46C419.841 680.49 421.411 678.29 423.271 676.39C423.783 675.871 424.346 675.405 424.951 675C430.371 671.44 433.301 669.51 433.741 669.21C442.021 663.55 449.284 657.113 455.531 649.9C455.59 649.834 455.627 649.752 455.639 649.665C455.65 649.577 455.635 649.488 455.596 649.408C455.556 649.328 455.494 649.261 455.417 649.215C455.34 649.17 455.251 649.147 455.161 649.15C454.634 649.177 453.974 649.376 453.181 649.75C448.074 652.156 443.028 654.29 438.041 656.15C435.381 657.14 430.961 658.62 428.141 657.85C427.745 657.741 427.405 657.486 427.191 657.136C426.977 656.786 426.905 656.369 426.991 655.97C428.351 649.76 440.211 642.2 446.271 639.22C452.261 636.27 459.931 633.25 465.891 629.4C478.581 621.22 490.381 609.47 500.181 598.99C518.601 579.3 531.771 564.44 549.831 549.09C558.691 541.557 567.434 533.89 576.061 526.09C597.548 553.843 625.511 571.927 659.951 580.34C662.264 580.907 667.441 581.933 675.481 583.42C675.615 583.447 675.733 583.524 675.811 583.636C675.889 583.747 675.922 583.885 675.901 584.02C675.794 584.66 675.538 585.263 675.131 585.83Z" fill="#FF6107"/>
<path d="M675.13 585.83C668.79 597.983 663.084 610.413 658.01 623.12C655.017 630.62 653.317 637.837 652.91 644.77C652.49 652.05 652.477 657.62 652.87 661.48C653.5 667.55 653.65 674.04 654.34 680.13C656.38 697.997 659.644 717.177 664.13 737.67C667.884 754.81 673.007 778.7 679.5 809.34C680.347 813.327 680.484 816.1 679.91 817.66C677.83 823.38 674.17 824.67 667.82 825.86C581.32 842.047 497.157 857.917 415.33 873.47C409.39 874.603 405.507 874.947 403.68 874.5C399.607 873.52 396.484 871.233 394.31 867.64C393.397 866.14 392.59 863.007 391.89 858.24C391.41 854.993 390.914 851.763 390.4 848.55C405.44 835.57 419.44 821.24 432.92 807.23C447.77 791.79 459.04 775.02 473.59 758.56C488.52 741.66 501.29 726.52 516.27 712.3C538.74 690.98 549.18 680.83 568.42 664.07C607.807 629.757 630.71 609.757 637.13 604.07C648.184 594.27 660.85 588.19 675.13 585.83Z" fill="#FF5201"/>
<path d="M386.381 822.8C383.367 803.46 380.387 784.127 377.441 764.8C376.581 759.16 375.941 754.69 373.501 750.58C368.841 742.71 360.281 739.91 351.251 740.8C345.777 741.34 340.101 741.893 334.221 742.46C337.187 739.993 340.917 738.227 345.411 737.16C358.277 734.093 372.394 730.057 387.761 725.05C408.947 718.91 431.561 710.903 455.601 701.03C456.607 700.617 457.731 700.797 458.971 701.57C459.255 701.751 459.468 702.023 459.571 702.34C460.557 705.327 460.377 708.223 459.031 711.03C457.291 714.657 454.761 718.99 451.441 724.03C446.401 731.68 439.301 743.85 434.301 750.8C420.774 769.613 409.544 785.42 400.611 798.22C397.701 802.4 393.721 806.93 390.871 811.13C388.564 814.537 387.067 818.427 386.381 822.8Z" fill="#FF5201"/>
</svg>
