<svg width="1024" height="1024" viewBox="0 0 1024 1024" fill="none" xmlns="http://www.w3.org/2000/svg">
<path d="M751.56 835.53L658.67 835.91" stroke="#FEC623" stroke-width="2"/>
<path d="M365.919 835.77C365.353 835.703 364.673 835.677 363.879 835.69C354.399 835.823 347.689 835.877 343.749 835.85C326.643 835.723 309.536 835.74 292.429 835.9C289.889 835.92 286.729 835.857 282.949 835.71C279.736 835.583 276.579 835.51 273.479 835.49" stroke="#FEC623" stroke-width="2"/>
<path d="M785.57 673.21C784.12 661.55 774.34 661.09 765.06 661.1C601.913 661.127 438.733 661.077 275.52 660.95C267.19 660.94 260.06 660.59 253.3 661.57C243.92 662.92 239.67 669.53 238.99 678.49C238.67 682.777 238.513 685.057 238.52 685.33C239.22 709.59 239.456 735.12 239.23 761.92C239.19 767.32 238.94 775.68 241.62 779.82C247.07 788.24 256.37 787.92 265.5 787.95C320.973 788.13 375.866 788.15 430.18 788.01C436.92 787.997 444.026 787.99 451.5 787.99C641.586 788.003 745.77 788.04 764.05 788.1C767.616 788.113 771 787.713 774.2 786.9C780.4 785.34 785.26 779.08 786.18 772.67C786.353 771.483 786.486 768.773 786.58 764.54C786.86 751.88 786.87 739.917 786.61 728.65C786.33 716.18 786.64 702.67 786.63 690.06C786.63 684.507 786.276 678.89 785.57 673.21Z" stroke="#FFD936" stroke-width="2"/>
<path d="M657.549 728.45C657.549 721.772 654.897 715.367 650.174 710.645C645.452 705.923 639.048 703.27 632.369 703.27C625.691 703.27 619.287 705.923 614.565 710.645C609.842 715.367 607.189 721.772 607.189 728.45C607.189 735.128 609.842 741.533 614.565 746.255C619.287 750.977 625.691 753.63 632.369 753.63C639.048 753.63 645.452 750.977 650.174 746.255C654.897 741.533 657.549 735.128 657.549 728.45Z" stroke="#FFCC2B" stroke-width="2"/>
<path d="M745.9 728.44C745.9 721.778 743.254 715.388 738.543 710.678C733.832 705.967 727.442 703.32 720.78 703.32C714.118 703.32 707.729 705.967 703.018 710.678C698.307 715.388 695.66 721.778 695.66 728.44C695.66 735.102 698.307 741.492 703.018 746.203C707.729 750.913 714.118 753.56 720.78 753.56C727.442 753.56 733.832 750.913 738.543 746.203C743.254 741.492 745.9 735.102 745.9 728.44Z" stroke="#FFCC2B" stroke-width="2"/>
<path d="M769.89 285.58C765.78 285.26 761.23 281.77 757.77 278.07C745.37 264.85 732.14 252.01 718.2 241.32C697.49 225.44 677.05 212.89 651.05 200.17C645.68 197.54 638.94 195.32 632.95 192.57C629.037 190.783 623.754 188.82 617.1 186.68C597.08 180.253 577.234 175.607 557.56 172.74C553.847 172.2 549.757 171.763 545.29 171.43C540.09 171.05 534.61 169.92 528.88 169.82C519.054 169.633 509.154 169.633 499.18 169.82C491.76 169.96 484.56 171.02 477.04 171.53C474.36 171.71 471.41 172.017 468.19 172.45C456.377 174.057 446.484 175.837 438.51 177.79C430.877 179.657 421.184 182.287 409.43 185.68C405.297 186.873 396.97 189.923 384.45 194.83C375.564 198.317 367.42 201.847 360.02 205.42C332.674 218.64 307.664 235.917 284.99 257.25C279.99 261.95 273.724 268.347 266.19 276.44C264.097 278.693 261.494 280.827 258.38 282.84C256.034 284.353 253.487 285.293 250.74 285.66C228.9 288.57 213.81 266.11 225.26 246.75C226.46 244.723 229.197 241.377 233.47 236.71C254.504 213.75 277.91 194.077 303.69 177.69C352.96 146.39 409.1 126.34 467.19 120.56C490.74 118.21 513.7 117.33 535.62 119.17C545.29 119.98 551.58 120.23 560.39 121.37C595.397 125.89 628.31 134.89 659.13 148.37C679.65 157.34 701.11 168.54 720.44 181.63C726.1 185.46 735.35 191.2 742.51 196.58C759.404 209.273 775.227 223.52 789.98 239.32C794.12 243.75 797.88 247.66 799.11 252.73C800.124 256.93 800.134 261.09 799.14 265.21C796.634 275.623 790.174 282.367 779.76 285.44C778.1 285.927 774.81 285.973 769.89 285.58Z" fill="#FED32E"/>
<path d="M695.42 357.52C690.04 356.66 686.34 353.59 681.88 348.98C671.553 338.307 660.22 328.363 647.88 319.15C644.1 316.337 638.216 312.473 630.23 307.56C615.316 298.4 599.82 291.407 583.74 286.58C565.82 281.2 549.07 277.723 533.49 276.15C521.763 274.963 507.226 274.81 489.88 275.69C485.266 275.923 481.86 276.243 479.66 276.65C475.83 277.36 470.69 277.67 466.14 278.63C447.173 282.643 428.32 288.807 409.58 297.12C403.66 299.75 395.38 304.23 389.21 308.21C371.6 319.57 355.55 333.15 340.45 348C333.16 355.16 326.74 358.83 317.32 357.54C297.57 354.82 288.71 331.11 300.63 315.65C302.823 312.803 305.836 309.56 309.67 305.92C323.643 292.667 338.466 280.407 354.14 269.14C357.766 266.533 361.74 264.01 366.06 261.57C399.313 242.777 434.966 230.71 473.02 225.37C480.97 224.25 489.54 223.75 497.11 223.2C508.083 222.42 517.936 222.407 526.67 223.16C533.77 223.773 537.456 224.087 537.73 224.1C541.776 224.253 545.456 224.587 548.77 225.1C558.703 226.64 568.04 228.337 576.78 230.19C628.51 241.13 674.65 269.31 711.96 307.04C714.033 309.133 716.183 311.45 718.41 313.99C723.91 320.25 725.84 326.96 724.88 334.97C724.206 340.583 721.926 345.517 718.04 349.77C712 356.377 704.46 358.96 695.42 357.52Z" fill="#FED32E"/>
<path d="M369.66 396.05C370.86 393.617 372.24 391.453 373.8 389.56C378.573 383.773 383.323 378.77 388.05 374.55C397.06 366.5 407.22 357.85 417.22 351.56C431.65 342.49 447.24 335.05 463.84 330.89C471.32 329.023 480.543 327.51 491.51 326.35C500.837 325.363 510.163 325.337 519.49 326.27C529.017 327.217 538.947 328.87 549.28 331.23C562.147 334.163 574.443 338.36 586.17 343.82C608.64 354.28 629.96 370.39 645.62 389.69C651.05 396.38 651.03 408.6 647.1 416.1C643.54 422.893 638.087 427.233 630.74 429.12C625.033 430.587 619.69 430.18 614.71 427.9C612.73 426.987 608.97 423.963 603.43 418.83C595.603 411.57 588.437 405.65 581.93 401.07C571.463 393.697 559.757 388.16 546.81 384.46C538.963 382.22 532.037 380.747 526.03 380.04C507.403 377.853 489.503 379.143 472.33 383.91C454.95 388.737 439.33 397.17 425.47 409.21C423.637 410.797 418.583 415.563 410.31 423.51C405.523 428.11 400.017 430.287 393.79 430.04C390.21 429.89 387.29 429.97 383.93 428.52C376.157 425.173 371.12 419.34 368.82 411.02C367.72 407.05 367.65 400.1 369.66 396.05Z" fill="#FED32E"/>
<path d="M751.56 835.53L658.67 835.91C658.424 835.417 658.034 835.17 657.5 835.17C560.667 835.217 463.834 835.223 367 835.19C366.8 835.19 366.44 835.383 365.92 835.77C365.354 835.703 364.674 835.677 363.88 835.69C354.4 835.823 347.69 835.877 343.75 835.85C326.644 835.723 309.537 835.74 292.43 835.9C289.89 835.92 286.73 835.857 282.95 835.71C279.737 835.583 276.58 835.51 273.48 835.49C271.134 835.303 265.974 835.163 258 835.07C254.3 835.023 249.894 834.453 244.78 833.36C225.33 829.22 209.91 817.69 200.59 799.96C197.144 793.4 195.027 786.667 194.24 779.76C193.78 775.753 193.554 769.107 193.56 759.82C193.58 728.9 193.5 698.73 193.67 675.24C193.764 662.147 197.374 650.457 204.5 640.17C214.76 625.36 231.36 615.49 249.25 613.51C255.857 612.783 263.694 612.423 272.76 612.43C496.767 612.583 645.524 612.58 719.031 612.42C719.373 612.42 719.701 612.284 719.943 612.042C720.185 611.8 720.32 611.472 720.32 611.13C720.314 575.083 720.304 510.877 720.29 418.51C720.29 411.703 720.82 406.893 721.88 404.08C724.61 396.88 730.661 391.99 738.341 390.6C743.521 389.66 750.6 392.7 753.99 396.21C756.117 398.41 757.727 400.96 758.82 403.86C759.434 405.493 759.737 408.473 759.73 412.8C759.65 471.1 759.647 537.293 759.72 611.38C759.72 611.566 759.758 611.751 759.832 611.922C759.905 612.094 760.013 612.249 760.148 612.378C760.284 612.507 760.444 612.607 760.62 612.673C760.796 612.738 760.983 612.768 761.17 612.76C793.88 611.3 822.35 628.77 830.22 661.77C831.407 666.763 831.904 674.287 831.711 684.34C831.684 685.4 831.667 714.787 831.66 772.5C831.66 775.633 830.794 780.59 829.06 787.37C823.651 808.51 806.841 825.09 786.38 831.73C778.18 834.39 767.8 835.48 759.26 835.19C755.961 835.077 753.394 835.19 751.56 835.53ZM785.57 673.21C784.12 661.55 774.341 661.09 765.06 661.1C601.914 661.127 438.734 661.077 275.52 660.95C267.19 660.94 260.06 660.59 253.3 661.57C243.92 662.92 239.67 669.53 238.99 678.49C238.67 682.777 238.514 685.057 238.52 685.33C239.22 709.59 239.457 735.12 239.23 761.92C239.19 767.32 238.94 775.68 241.62 779.82C247.07 788.24 256.37 787.92 265.5 787.95C320.974 788.13 375.867 788.15 430.18 788.01C436.92 787.997 444.027 787.99 451.5 787.99C641.587 788.003 745.77 788.04 764.05 788.1C767.617 788.113 771 787.713 774.201 786.9C780.401 785.34 785.26 779.08 786.18 772.67C786.354 771.483 786.487 768.773 786.581 764.54C786.861 751.88 786.87 739.917 786.61 728.65C786.33 716.18 786.641 702.67 786.63 690.06C786.63 684.507 786.277 678.89 785.57 673.21Z" fill="#FED32E"/>
<path d="M565.087 491.526C566.577 459.943 542.66 433.155 511.667 431.694C480.674 430.232 454.342 454.65 452.852 486.234C451.363 517.817 475.28 544.605 506.273 546.066C537.266 547.528 563.598 523.11 565.087 491.526Z" fill="#FED32E"/>
<path d="M765.06 661.1C774.34 661.09 784.12 661.55 785.57 673.21C786.276 678.89 786.63 684.507 786.63 690.06C786.64 702.67 786.33 716.18 786.61 728.65C786.87 739.917 786.86 751.88 786.58 764.54C786.486 768.773 786.353 771.483 786.18 772.67C785.26 779.08 780.4 785.34 774.2 786.9C771 787.713 767.616 788.113 764.05 788.1C745.77 788.04 641.586 788.003 451.5 787.99C444.026 787.99 436.92 787.997 430.18 788.01C375.866 788.15 320.973 788.13 265.5 787.95C256.37 787.92 247.07 788.24 241.62 779.82C238.94 775.68 239.19 767.32 239.23 761.92C239.456 735.12 239.22 709.59 238.52 685.33C238.513 685.057 238.67 682.777 238.99 678.49C239.67 669.53 243.92 662.92 253.3 661.57C260.06 660.59 267.19 660.94 275.52 660.95C438.733 661.077 601.913 661.127 765.06 661.1ZM657.55 728.45C657.55 721.772 654.897 715.367 650.175 710.645C645.452 705.923 639.048 703.27 632.37 703.27C625.692 703.27 619.287 705.923 614.565 710.645C609.843 715.367 607.19 721.772 607.19 728.45C607.19 735.128 609.843 741.533 614.565 746.255C619.287 750.977 625.692 753.63 632.37 753.63C639.048 753.63 645.452 750.977 650.175 746.255C654.897 741.533 657.55 735.128 657.55 728.45ZM745.9 728.44C745.9 721.778 743.253 715.388 738.542 710.678C733.831 705.967 727.442 703.32 720.78 703.32C714.118 703.32 707.728 705.967 703.017 710.678C698.306 715.388 695.66 721.778 695.66 728.44C695.66 735.102 698.306 741.492 703.017 746.203C707.728 750.913 714.118 753.56 720.78 753.56C727.442 753.56 733.831 750.913 738.542 746.203C743.253 741.492 745.9 735.102 745.9 728.44Z" fill="#FFDF3D"/>
<path d="M632.37 753.63C646.277 753.63 657.55 742.357 657.55 728.45C657.55 714.543 646.277 703.27 632.37 703.27C618.464 703.27 607.19 714.543 607.19 728.45C607.19 742.357 618.464 753.63 632.37 753.63Z" fill="#FEB918"/>
<path d="M720.78 753.56C734.654 753.56 745.9 742.313 745.9 728.44C745.9 714.567 734.654 703.32 720.78 703.32C706.907 703.32 695.66 714.567 695.66 728.44C695.66 742.313 706.907 753.56 720.78 753.56Z" fill="#FEB918"/>
<path d="M365.92 835.77C365.747 842.33 365.704 848.907 365.79 855.5C365.93 865.94 361.43 874.49 351.01 877.67C348.31 878.5 343.1 878.63 339.65 878.63C320.837 878.65 306.87 878.653 297.75 878.64C294.15 878.64 288.25 878.19 284.92 876.38C275.84 871.44 273.34 863.63 273.57 853.75C273.704 847.91 273.674 841.823 273.48 835.49C276.58 835.51 279.737 835.583 282.95 835.71C286.73 835.857 289.89 835.92 292.43 835.9C309.537 835.74 326.644 835.723 343.75 835.85C347.69 835.877 354.4 835.823 363.88 835.69C364.674 835.677 365.354 835.703 365.92 835.77Z" fill="#FEB918"/>
<path d="M751.56 835.53C751.6 842.597 751.563 849.417 751.45 855.99C751.27 865.53 746.14 874.53 736.96 877.37C734.58 878.103 731.427 878.48 727.5 878.5C701.82 878.64 685.823 878.627 679.51 878.46C667.47 878.14 659.48 868.87 658.86 857.25C658.633 852.937 658.57 845.823 658.67 835.91L751.56 835.53Z" fill="#FEB918"/>
</svg>
